<svg height="96pt" viewBox="0 0 516 96" width="516pt" xmlns="http://www.w3.org/2000/svg" xmlns:xlink="http://www.w3.org/1999/xlink"><symbol id="a" overflow="visible"><path d="m4.890625-2.28125c.265625 0 .515625 0 .515625-.34375 0-.3125-.28125-.3125-.4375-.3125h-1.296875c-.171875 0-.4375 0-.4375.3125 0 .34375.25.34375.4375.34375h.453125c-.140625 1.21875-.671875 1.734375-1.25 1.734375-.875 0-1.703125-1.171875-1.703125-2.78125 0-1.671875.875-2.796875 1.71875-2.796875.375 0 1.0625.25 1.25 1.4375.03125.1875.09375.3125.375.3125.375 0 .375-.234375.375-.453125v-1.515625c0-.171875 0-.4375-.328125-.4375-.21875 0-.28125.125-.4375.484375-.390625-.328125-.828125-.484375-1.28125-.484375-1.3125 0-2.421875 1.46875-2.421875 3.4375 0 2.015625 1.125 3.46875 2.421875 3.46875.625 0 1.078125-.328125 1.296875-.578125 0 .234375 0 .453125.390625.453125.359375 0 .359375-.234375.359375-.453125zm0 0"/></symbol><symbol id="b" overflow="visible"><path d="m3.984375-.34375c.25.328125.765625.34375 1.1875.34375.296875 0 .546875 0 .546875-.34375 0-.328125-.28125-.328125-.4375-.328125-.453125 0-.5625-.046875-.65625-.078125v-2.359375c0-.765625-.59375-1.6875-2.15625-1.6875-.46875 0-1.578125 0-1.578125.796875 0 .328125.21875.5.484375.5.15625 0 .46875-.09375.484375-.5 0-.09375 0-.09375.21875-.125.15625-.015625.296875-.015625.390625-.015625.828125 0 1.40625.34375 1.40625 1.125-1.9375.03125-3.28125.578125-3.28125 1.625 0 .75.6875 1.453125 1.8125 1.453125.390625 0 1.078125-.078125 1.578125-.40625zm-.109375-2.03125v.90625c0 .265625 0 .484375-.421875.6875-.40625.1875-.890625.1875-.984375.1875-.671875 0-1.109375-.375-1.109375-.796875 0-.546875.9375-.9375 2.515625-.984375zm0 0"/></symbol><symbol id="c" overflow="visible"><path d="m3.90625-.34375c.015625.34375.234375.34375.4375.34375h.796875c.171875 0 .4375 0 .4375-.34375 0-.328125-.28125-.328125-.4375-.328125h-.484375v-3.578125c0-.34375-.0625-.453125-.4375-.453125h-.796875c-.171875 0-.4375 0-.4375.34375 0 .328125.28125.328125.421875.328125h.5v2.3125c0 .984375-.890625 1.125-1.234375 1.125-.859375 0-.859375-.359375-.859375-.71875v-2.9375c0-.34375-.0625-.453125-.4375-.453125h-.796875c-.171875 0-.453125 0-.453125.34375 0 .328125.296875.328125.4375.328125h.5v2.78125c0 1.046875.75 1.3125 1.546875 1.3125.4375 0 .890625-.109375 1.296875-.40625zm0 0"/></symbol><symbol id="d" overflow="visible"><path d="m3.25-2.78125c-.25-.046875-.46875-.078125-.734375-.125-.328125-.046875-1.0625-.1875-1.0625-.609375 0-.28125.34375-.625 1.375-.625.90625 0 1.0625.328125 1.09375.625.015625.171875.03125.359375.375.359375.375 0 .375-.21875.375-.4375v-.765625c0-.171875 0-.4375-.3125-.4375-.265625 0-.3125.15625-.328125.234375-.484375-.234375-.96875-.234375-1.171875-.234375-1.828125 0-2.078125.890625-2.078125 1.28125 0 1 1.15625 1.1875 2.15625 1.34375.53125.09375 1.40625.234375 1.40625.8125 0 .40625-.40625.765625-1.40625.765625-.5 0-1.109375-.125-1.390625-.984375-.046875-.1875-.09375-.3125-.375-.3125-.390625 0-.390625.234375-.390625.453125v1.0625c0 .171875 0 .4375.328125.4375.09375 0 .28125-.015625.40625-.40625.53125.390625 1.109375.40625 1.421875.40625 1.71875 0 2.0625-.90625 2.0625-1.421875 0-1.140625-1.40625-1.359375-1.75-1.421875zm0 0"/></symbol><symbol id="e" overflow="visible"><path d="m3.375-4.25c0-.34375-.078125-.453125-.4375-.453125h-1.546875c-.171875 0-.453125 0-.453125.328125 0 .34375.28125.34375.453125.34375h1.234375v3.359375h-1.328125c-.171875 0-.453125 0-.453125.34375 0 .328125.296875.328125.453125.328125h3.21875c.15625 0 .453125 0 .453125-.328125 0-.34375-.296875-.34375-.453125-.34375h-1.140625zm0-1.875c0-.3125-.25-.546875-.546875-.546875-.3125 0-.546875.234375-.546875.546875 0 .296875.234375.546875.546875.546875.296875 0 .546875-.25.546875-.546875zm0 0"/></symbol><symbol id="f" overflow="visible"><path d="m1.8125-4.1875c0-.34375 0-.515625-.4375-.515625h-.796875c-.171875 0-.453125 0-.453125.34375 0 .328125.296875.328125.4375.328125h.5v3.359375h-.484375c-.171875 0-.453125 0-.453125.34375 0 .328125.296875.328125.4375.328125h1.734375c.15625 0 .4375 0 .4375-.328125 0-.34375-.265625-.34375-.4375-.34375h-.484375v-1.921875c0-1.09375.8125-1.5 1.359375-1.5.578125 0 .734375.296875.734375.953125v2.46875h-.421875c-.1875 0-.453125 0-.453125.34375 0 .328125.296875.328125.453125.328125h1.65625c.15625 0 .4375 0 .4375-.328125 0-.34375-.265625-.34375-.4375-.34375h-.484375v-2.53125c0-1.09375-.5625-1.5625-1.421875-1.5625-.71875 0-1.21875.375-1.421875.578125zm0 0"/></symbol><symbol id="g" overflow="visible"><path d="m5.28125-6.34375c0-.171875 0-.4375-.328125-.4375-.203125 0-.25.109375-.3125.1875-.015625.046875-.015625.0625-.15625.328125-.359375-.296875-.859375-.515625-1.421875-.515625-1.40625 0-2.625 1.453125-2.625 3.4375 0 2 1.21875 3.46875 2.640625 3.46875 1.265625 0 2.203125-.96875 2.203125-1.953125 0-.359375-.265625-.359375-.390625-.359375-.09375 0-.34375 0-.359375.3125-.078125 1.0625-.96875 1.328125-1.40625 1.328125-1 0-1.9375-1.15625-1.9375-2.796875 0-1.625.953125-2.78125 1.921875-2.78125.65625 0 1.25.515625 1.40625 1.390625.03125.1875.046875.359375.375.359375.390625 0 .390625-.234375.390625-.453125zm0 0"/></symbol><symbol id="h" overflow="visible"><path d="m5.09375-2.359375c0-1.359375-1.015625-2.4375-2.234375-2.4375s-2.234375 1.078125-2.234375 2.4375c0 1.390625 1.03125 2.421875 2.234375 2.421875s2.234375-1.046875 2.234375-2.421875zm-2.234375 1.765625c-.8125 0-1.484375-.828125-1.484375-1.84375 0-.984375.703125-1.703125 1.484375-1.703125s1.484375.71875 1.484375 1.703125c0 1.015625-.671875 1.84375-1.484375 1.84375zm0 0"/></symbol><symbol id="i" overflow="visible"><path d="m3.234375-6.21875c0-.328125-.0625-.4375-.4375-.4375h-1.71875c-.171875 0-.453125 0-.453125.328125s.296875.328125.4375.328125h1.421875v5.328125h-1.40625c-.171875 0-.453125 0-.453125.34375 0 .328125.296875.328125.4375.328125h3.59375c.171875 0 .4375 0 .4375-.328125 0-.34375-.265625-.34375-.4375-.34375h-1.421875zm0 0"/></symbol><symbol id="j" overflow="visible"><path d="m1.1875-4.375c-.015625-.328125-.234375-.328125-.4375-.328125h-.34375c-.171875 0-.453125 0-.453125.328125 0 .34375.234375.34375.625.34375v3.359375c-.390625 0-.625 0-.625.34375 0 .328125.296875.328125.453125.328125h.953125c.171875 0 .453125 0 .453125-.328125 0-.34375-.234375-.34375-.625-.34375v-1.953125c0-.96875.453125-1.46875.890625-1.46875.25 0 .40625.171875.40625.890625v2.53125c-.203125 0-.484375 0-.484375.34375 0 .328125.296875.328125.453125.328125h.8125c.171875 0 .453125 0 .453125-.328125 0-.34375-.234375-.34375-.625-.34375v-1.953125c0-.96875.453125-1.46875.890625-1.46875.265625 0 .40625.171875.40625.890625v2.53125c-.203125 0-.46875 0-.46875.34375 0 .328125.28125.328125.4375.328125h.828125c.15625 0 .4375 0 .4375-.328125 0-.34375-.21875-.34375-.625-.34375v-2.625c0-.21875 0-1.46875-.96875-1.46875-.328125 0-.765625.140625-1.078125.5625-.15625-.359375-.46875-.5625-.828125-.5625-.34375 0-.671875.15625-.9375.390625zm0 0"/></symbol><symbol id="k" overflow="visible"><path d="m1.8125-4.234375v-1.984375c0-.328125-.0625-.4375-.4375-.4375h-.796875c-.171875 0-.453125 0-.453125.328125s.296875.328125.4375.328125h.5v5.546875c0 .21875 0 .453125.375.453125s.375-.21875.375-.484375c.4375.453125.90625.546875 1.265625.546875 1.1875 0 2.25-1.03125 2.25-2.421875 0-1.34375-.96875-2.40625-2.125-2.40625-.53125 0-1.015625.203125-1.390625.53125zm0 2.15625v-.796875c0-.640625.625-1.21875 1.3125-1.21875.8125 0 1.4375.796875 1.4375 1.734375 0 1.046875-.75 1.765625-1.515625 1.765625-.859375 0-1.234375-.96875-1.234375-1.484375zm0 0"/></symbol><symbol id="l" overflow="visible"><path d="m4.828125-6.90625c.171875 0 .4375 0 .4375-.328125s-.265625-.328125-.4375-.328125h-1.96875c-.359375 0-.4375.09375-.4375.4375v7.578125c0 .34375.0625.453125.4375.453125h1.96875c.171875 0 .4375 0 .4375-.328125 0-.34375-.265625-.34375-.4375-.34375h-1.65625v-7.140625zm0 0"/></symbol><symbol id="m" overflow="visible"><path d="m3.125-2.421875 1.25-1.609375h.4375c.15625 0 .4375 0 .4375-.328125 0-.34375-.28125-.34375-.4375-.34375h-1.28125c-.15625 0-.4375 0-.4375.328125 0 .34375.25.34375.53125.34375l-.796875 1.09375-.828125-1.09375c.28125 0 .515625 0 .515625-.34375 0-.328125-.265625-.328125-.4375-.328125h-1.265625c-.171875 0-.453125 0-.453125.34375 0 .328125.296875.328125.453125.328125h.4375l1.28125 1.609375-1.359375 1.75h-.4375c-.15625 0-.4375 0-.4375.34375 0 .328125.296875.328125.4375.328125h1.28125c.171875 0 .4375 0 .4375-.328125 0-.34375-.234375-.34375-.5625-.34375l.9375-1.328125.96875 1.328125c-.3125 0-.546875 0-.546875.34375 0 .328125.265625.328125.4375.328125h1.28125c.140625 0 .4375 0 .4375-.328125 0-.34375-.28125-.34375-.4375-.34375h-.4375zm0 0"/></symbol><symbol id="n" overflow="visible"><path d="m3.078125-.03125c-.171875.671875-.671875.84375-.8125.890625-.109375.03125-.296875.09375-.296875.3125 0 .15625.15625.34375.34375.34375.34375 0 1.46875-.59375 1.46875-1.78125 0-.671875-.4375-1.09375-.90625-1.09375-.4375 0-.6875.328125-.6875.671875 0 .421875.3125.6875.671875.6875.0625 0 .140625-.015625.21875-.03125zm0 0"/></symbol><symbol id="o" overflow="visible"><path d="m4.6875-4.03125h.328125c.171875 0 .4375 0 .4375-.328125 0-.34375-.265625-.34375-.4375-.34375h-1.28125c-.15625 0-.4375 0-.4375.328125 0 .34375.265625.34375.4375.34375h.3125l-.78125 2.3125c-.140625.40625-.21875.609375-.28125.9375h-.015625c-.0625-.203125-.15625-.421875-.234375-.640625l-1.015625-2.609375h.28125c.15625 0 .4375 0 .4375-.328125 0-.34375-.265625-.34375-.4375-.34375h-1.28125c-.171875 0-.4375 0-.4375.34375 0 .328125.28125.328125.4375.328125h.34375l1.546875 3.890625c.046875.109375.046875.125.046875.140625s-.28125.921875-.421875 1.1875c-.3125.59375-.703125.625-.875.640625 0-.015625.0625-.109375.0625-.25 0-.265625-.203125-.46875-.46875-.46875-.296875 0-.484375.203125-.484375.484375 0 .453125.375.890625.90625.890625 1.09375 0 1.578125-1.4375 1.625-1.5625zm0 0"/></symbol><symbol id="p" overflow="visible"><path d="m2.546875-1.921875c-.59375 0-1.046875-.515625-1.046875-1.09375 0-.609375.46875-1.09375 1.046875-1.09375s1.046875.515625 1.046875 1.09375c0 .609375-.484375 1.09375-1.046875 1.09375zm-.984375.390625c.03125.015625.4375.265625.984375.265625 1 0 1.796875-.78125 1.796875-1.75 0-.328125-.09375-.65625-.28125-.953125.21875-.125.484375-.171875.625-.1875.0625.296875.3125.375.421875.375.1875 0 .4375-.140625.4375-.453125 0-.25-.203125-.59375-.796875-.59375-.109375 0-.65625.015625-1.15625.390625-.171875-.125-.546875-.328125-1.046875-.328125-1.03125 0-1.8125.8125-1.8125 1.75 0 .46875.1875.828125.359375 1.03125-.125.171875-.21875.40625-.21875.734375 0 .390625.15625.65625.25.796875-.8125.484375-.8125 1.234375-.8125 1.34375 0 .9375 1.15625 1.609375 2.546875 1.609375s2.546875-.671875 2.546875-1.609375c0-.40625-.203125-.9375-.765625-1.234375-.140625-.078125-.59375-.328125-1.578125-.328125h-.765625c-.078125 0-.21875 0-.3125-.015625-.15625 0-.234375 0-.359375-.15625s-.125-.359375-.125-.390625c0-.046875.015625-.1875.0625-.296875zm1.296875 3.375c-1.09375 0-1.90625-.46875-1.90625-.953125 0-.1875.09375-.546875.4375-.765625.28125-.171875.375-.171875 1.171875-.171875.96875 0 2.203125 0 2.203125.9375 0 .484375-.8125.953125-1.90625.953125zm0 0"/></symbol><symbol id="q" overflow="visible"><path d="m3.296875-7.125c0-.328125-.0625-.4375-.4375-.4375h-1.96875c-.171875 0-.4375 0-.4375.328125s.25.328125.4375.328125h1.65625v7.140625h-1.65625c-.171875 0-.4375 0-.4375.328125 0 .34375.25.34375.4375.34375h1.96875c.359375 0 .4375-.09375.4375-.453125zm0 0"/></symbol><symbol id="r" overflow="visible"><path d="m4.765625.59375c0-.171875-.078125-.21875-.265625-.34375-1.359375-.921875-1.859375-2.359375-1.859375-3.59375 0-1.078125.40625-2.59375 1.875-3.59375.171875-.125.25-.15625.25-.328125 0-.078125-.046875-.296875-.34375-.296875-.3125 0-2.53125 1.4375-2.53125 4.21875 0 1.296875.5 2.28125.875 2.828125.578125.796875 1.40625 1.40625 1.65625 1.40625.296875 0 .34375-.21875.34375-.296875zm0 0"/></symbol><symbol id="s" overflow="visible"><path d="m3.84375-3.34375c0-1.296875-.5-2.265625-.890625-2.8125-.578125-.796875-1.390625-1.40625-1.65625-1.40625s-.34375.21875-.34375.296875c0 .171875.125.234375.1875.28125 1.78125 1.1875 1.953125 2.9375 1.953125 3.640625 0 1.09375-.40625 2.609375-1.890625 3.609375-.15625.109375-.25.15625-.25.328125 0 .078125.078125.296875.34375.296875.3125 0 2.546875-1.4375 2.546875-4.234375zm0 0"/></symbol><symbol id="t" overflow="visible"><path d="m1.828125-3.625v-1.203125l-1.515625.125v.34375c.75 0 .84375.078125.84375.609375v2.921875c0 .484375-.125.484375-.84375.484375v.34375c.421875-.015625.9375-.03125 1.234375-.03125.4375 0 .953125 0 1.390625.03125v-.34375h-.234375c-.8125 0-.828125-.109375-.828125-.5v-1.6875c0-1.078125.453125-2.046875 1.28125-2.046875.078125 0 .109375 0 .125.015625-.03125 0-.25.140625-.25.421875 0 .296875.234375.46875.46875.46875.203125 0 .46875-.140625.46875-.484375s-.34375-.671875-.8125-.671875c-.796875 0-1.1875.734375-1.328125 1.203125zm0 0"/></symbol><symbol id="u" overflow="visible"><path d="m1.21875-2.75c.0625-1.625.984375-1.890625 1.359375-1.890625 1.125 0 1.234375 1.46875 1.234375 1.890625zm-.015625.234375h3.046875c.25 0 .28125 0 .28125-.234375 0-1.078125-.59375-2.140625-1.953125-2.140625-1.265625 0-2.265625 1.125-2.265625 2.484375 0 1.46875 1.140625 2.53125 2.390625 2.53125 1.328125 0 1.828125-1.21875 1.828125-1.421875 0-.109375-.09375-.125-.140625-.125-.109375 0-.125.0625-.140625.140625-.390625 1.125-1.375 1.125-1.484375 1.125-.546875 0-.984375-.328125-1.234375-.734375-.328125-.515625-.328125-1.234375-.328125-1.625zm0 0"/></symbol><symbol id="v" overflow="visible"><path d="m1.890625-4.359375h1.5625v-.34375h-1.5625v-2h-.28125c0 .890625-.328125 2.0625-1.40625 2.09375v.25h.9375v3c0 1.34375 1.015625 1.484375 1.40625 1.484375.765625 0 1.078125-.78125 1.078125-1.484375v-.609375h-.28125v.59375c0 .8125-.328125 1.21875-.71875 1.21875-.734375 0-.734375-.984375-.734375-1.171875zm0 0"/></symbol><symbol id="w" overflow="visible"><path d="m4.265625-.859375v.984375l1.5625-.125v-.34375c-.75 0-.84375-.078125-.84375-.609375v-3.875l-1.609375.125v.34375c.765625 0 .859375.078125.859375.609375v1.9375c0 .953125-.53125 1.6875-1.328125 1.6875-.90625 0-.953125-.5-.953125-1.078125v-3.625l-1.609375.125v.34375c.859375 0 .859375.03125.859375 1v1.640625c0 .84375 0 1.84375 1.65625 1.84375.609375 0 1.09375-.3125 1.40625-.984375zm0 0"/></symbol><symbol id="x" overflow="visible"><path d="m1.203125-3.75v2.921875c0 .484375-.125.484375-.859375.484375v.34375c.390625-.015625.9375-.03125 1.234375-.03125.28125 0 .859375.015625 1.21875.03125v-.34375c-.71875 0-.84375 0-.84375-.484375v-2c0-1.140625.765625-1.75 1.46875-1.75.6875 0 .8125.59375.8125 1.203125v2.546875c0 .484375-.125.484375-.859375.484375v.34375c.390625-.015625.9375-.03125 1.234375-.03125.28125 0 .859375.015625 1.21875.03125v-.34375c-.5625 0-.828125 0-.84375-.328125v-2.078125c0-.9375 0-1.28125-.34375-1.671875-.140625-.1875-.5-.40625-1.140625-.40625-.796875 0-1.3125.46875-1.609375 1.15625v-1.15625l-1.546875.125v.34375c.765625 0 .859375.078125.859375.609375zm0 0"/></symbol><symbol id="y" overflow="visible"><path d="m2.265625-2.109375c.25.03125 1.140625.21875 1.140625 1 0 .546875-.390625.984375-1.234375.984375-.921875 0-1.3125-.609375-1.515625-1.546875-.03125-.140625-.046875-.1875-.15625-.1875-.140625 0-.140625.078125-.140625.28125v1.4375c0 .1875 0 .265625.125.265625.046875 0 .0625-.015625.265625-.21875.03125-.03125.03125-.046875.21875-.25.484375.453125.96875.46875 1.203125.46875 1.25 0 1.75-.734375 1.75-1.515625 0-.578125-.328125-.90625-.453125-1.046875-.359375-.34375-.78125-.4375-1.25-.515625-.609375-.125-1.328125-.265625-1.328125-.890625 0-.390625.28125-.828125 1.21875-.828125 1.1875 0 1.25.96875 1.265625 1.3125.015625.09375.109375.09375.140625.09375.140625 0 .140625-.046875.140625-.25v-1.109375c0-.1875 0-.265625-.125-.265625-.046875 0-.078125 0-.21875.140625-.03125.03125-.140625.140625-.1875.171875-.40625-.3125-.859375-.3125-1.015625-.3125-1.328125 0-1.75.734375-1.75 1.34375 0 .390625.171875.6875.46875.921875.34375.296875.65625.359375 1.4375.515625zm0 0"/></symbol><symbol id="z" overflow="visible"><path d="m1.203125-.828125c0 .484375-.125.484375-.859375.484375v.34375c.390625-.015625.9375-.03125 1.234375-.03125.28125 0 .859375.015625 1.21875.03125v-.34375c-.71875 0-.84375 0-.84375-.484375v-2c0-1.140625.765625-1.75 1.46875-1.75.6875 0 .8125.59375.8125 1.203125v2.546875c0 .484375-.125.484375-.859375.484375v.34375c.390625-.015625.9375-.03125 1.234375-.03125.28125 0 .859375.015625 1.21875.03125v-.34375c-.5625 0-.828125 0-.84375-.328125v-2.078125c0-.9375 0-1.28125-.34375-1.671875-.140625-.1875-.5-.40625-1.140625-.40625-.921875 0-1.390625.65625-1.578125 1.078125v-3.8125l-1.578125.109375v.34375c.765625 0 .859375.078125.859375.609375zm0 0"/></symbol><symbol id="A" overflow="visible"><path d="m1.9375-7.5625-1.578125.109375v.34375c.765625 0 .84375.078125.84375.609375v5.671875c0 .484375-.109375.484375-.84375.484375v.34375c.359375-.015625.9375-.03125 1.21875-.03125.265625 0 .796875.015625 1.203125.03125v-.34375c-.734375 0-.84375 0-.84375-.484375zm0 0"/></symbol><symbol id="B" overflow="visible"><path d="m1.28125-2.375c0-1.78125.890625-2.234375 1.46875-2.234375.09375 0 .78125 0 1.171875.40625-.453125.03125-.515625.359375-.515625.5 0 .28125.1875.5.5.5.28125 0 .5-.1875.5-.515625 0-.734375-.828125-1.171875-1.671875-1.171875-1.359375 0-2.359375 1.1875-2.359375 2.53125 0 1.40625 1.078125 2.484375 2.34375 2.484375 1.453125 0 1.8125-1.3125 1.8125-1.421875s-.109375-.109375-.140625-.109375c-.109375 0-.125.046875-.140625.109375-.328125 1.015625-1.03125 1.140625-1.4375 1.140625-.578125 0-1.53125-.46875-1.53125-2.21875zm0 0"/></symbol><symbol id="C" overflow="visible"><path d="m5.140625-2.328125c0-1.40625-1.09375-2.5625-2.421875-2.5625-1.359375 0-2.40625 1.1875-2.40625 2.5625 0 1.40625 1.125 2.453125 2.40625 2.453125 1.3125 0 2.421875-1.078125 2.421875-2.453125zm-2.421875 2.171875c-.46875 0-.9375-.21875-1.234375-.734375-.28125-.46875-.28125-1.140625-.28125-1.53125 0-.421875 0-1.015625.265625-1.5.296875-.5.8125-.71875 1.25-.71875.484375 0 .953125.234375 1.234375.703125s.28125 1.109375.28125 1.515625c0 .390625 0 .984375-.25 1.46875-.234375.484375-.71875.796875-1.265625.796875zm0 0"/></symbol><symbol id="D" overflow="visible"><path d="m1.203125-3.75v2.921875c0 .484375-.125.484375-.859375.484375v.34375c.390625-.015625.9375-.03125 1.234375-.03125.28125 0 .859375.015625 1.21875.03125v-.34375c-.71875 0-.84375 0-.84375-.484375v-2c0-1.140625.765625-1.75 1.46875-1.75.6875 0 .8125.59375.8125 1.203125v2.546875c0 .484375-.125.484375-.859375.484375v.34375c.390625-.015625.9375-.03125 1.234375-.03125.28125 0 .859375.015625 1.21875.03125v-.34375c-.71875 0-.84375 0-.84375-.484375v-2c0-1.140625.78125-1.75 1.46875-1.75s.8125.59375.8125 1.203125v2.546875c0 .484375-.125.484375-.859375.484375v.34375c.390625-.015625.9375-.03125 1.234375-.03125.28125 0 .859375.015625 1.21875.03125v-.34375c-.5625 0-.828125 0-.84375-.328125v-2.078125c0-.9375 0-1.28125-.34375-1.671875-.140625-.1875-.5-.40625-1.140625-.40625-.921875 0-1.390625.65625-1.578125 1.078125-.15625-.953125-.96875-1.078125-1.453125-1.078125-.796875 0-1.3125.46875-1.609375 1.15625v-1.15625l-1.546875.125v.34375c.765625 0 .859375.078125.859375.609375zm0 0"/></symbol><symbol id="E" overflow="visible"><path d="m3.625-.828125c.046875.4375.34375.890625.859375.890625.234375 0 .890625-.15625.890625-1.03125v-.609375h-.265625v.609375c0 .625-.28125.703125-.390625.703125-.359375 0-.40625-.5-.40625-.546875v-2.1875c0-.453125 0-.875-.390625-1.28125-.4375-.4375-.984375-.609375-1.5-.609375-.890625 0-1.640625.515625-1.640625 1.234375 0 .328125.21875.515625.5.515625.296875 0 .5-.21875.5-.5 0-.140625-.0625-.5-.5625-.5.296875-.390625.828125-.5 1.1875-.5.53125 0 1.15625.421875 1.15625 1.390625v.40625c-.5625.03125-1.328125.0625-2.015625.390625-.8125.375-1.09375.9375-1.09375 1.421875 0 .875 1.0625 1.15625 1.75 1.15625.71875 0 1.21875-.4375 1.421875-.953125zm-.0625-1.796875v1.09375c0 1.046875-.796875 1.40625-1.28125 1.40625-.53125 0-.984375-.375-.984375-.921875 0-.59375.453125-1.5 2.265625-1.578125zm0 0"/></symbol><symbol id="F" overflow="visible"><path d="m2.421875-1.875c-.953125 0-.953125-1.09375-.953125-1.34375 0-.296875.015625-.640625.171875-.921875.09375-.125.34375-.421875.78125-.421875.953125 0 .953125 1.078125.953125 1.328125 0 .296875-.015625.65625-.171875.921875-.09375.125-.34375.4375-.78125.4375zm-1.265625.421875c0-.046875 0-.296875.1875-.515625.421875.3125.875.34375 1.078125.34375 1.015625 0 1.765625-.75 1.765625-1.59375 0-.40625-.171875-.8125-.453125-1.0625.40625-.359375.796875-.421875.984375-.421875.03125 0 .078125 0 .109375.015625-.109375.046875-.171875.15625-.171875.296875 0 .1875.140625.3125.3125.3125.109375 0 .328125-.078125.328125-.328125 0-.1875-.140625-.53125-.5625-.53125-.21875 0-.703125.0625-1.15625.515625-.453125-.359375-.921875-.40625-1.15625-.40625-1.015625 0-1.765625.765625-1.765625 1.59375 0 .484375.234375.90625.515625 1.125-.140625.171875-.34375.53125-.34375.90625 0 .34375.140625.75.484375.96875-.65625.1875-1 .65625-1 1.09375 0 .78125 1.078125 1.390625 2.40625 1.390625 1.28125 0 2.421875-.5625 2.421875-1.40625 0-.390625-.15625-.9375-.71875-1.25-.578125-.296875-1.203125-.296875-1.875-.296875-.265625 0-.734375 0-.8125-.015625-.34375-.046875-.578125-.375-.578125-.734375zm1.5625 3.453125c-1.09375 0-1.84375-.5625-1.84375-1.140625 0-.5.40625-.90625.890625-.9375h.640625c.9375 0 2.15625 0 2.15625.9375 0 .59375-.765625 1.140625-1.84375 1.140625zm0 0"/></symbol><symbol id="G" overflow="visible"><path d="m1.9375-4.828125-1.53125.125v.34375c.703125 0 .796875.0625.796875.59375v2.9375c0 .484375-.109375.484375-.84375.484375v.34375c.34375-.015625.9375-.03125 1.203125-.03125.375 0 .765625.015625 1.125.03125v-.34375c-.71875 0-.75-.046875-.75-.46875zm.03125-1.890625c0-.34375-.265625-.578125-.578125-.578125-.328125 0-.578125.296875-.578125.578125 0 .296875.25.578125.578125.578125.3125 0 .578125-.234375.578125-.578125zm0 0"/></symbol><symbol id="H" overflow="visible"><path d="m1.90625-4.703125v-1.265625c0-.953125.53125-1.484375 1-1.484375.03125 0 .203125 0 .359375.078125-.125.046875-.328125.1875-.328125.453125s.1875.46875.46875.46875c.328125 0 .484375-.203125.484375-.46875 0-.40625-.40625-.765625-.984375-.765625-.75 0-1.6875.578125-1.6875 1.734375v1.25h-.859375v.34375h.859375v3.53125c0 .484375-.125.484375-.84375.484375v.34375c.421875-.015625.9375-.03125 1.234375-.03125.4375 0 .953125 0 1.390625.03125v-.34375h-.234375c-.796875 0-.828125-.109375-.828125-.5v-3.515625h1.25v-.34375zm0 0"/></symbol><symbol id="I" overflow="visible"><path d="m4.453125-2.515625h3.046875c.15625 0 .359375 0 .359375-.203125 0-.21875-.203125-.21875-.359375-.21875h-3.046875v-3.0625c0-.15625 0-.359375-.203125-.359375-.21875 0-.21875.203125-.21875.359375v3.0625h-3.0625c-.15625 0-.359375 0-.359375.21875 0 .203125.203125.203125.359375.203125h3.0625v3.0625c0 .15625 0 .359375.21875.359375.203125 0 .203125-.203125.203125-.359375zm0 0"/></symbol><symbol id="J" overflow="visible"><path d="m4.140625-.59375v.71875l1.609375-.125v-.34375c-.765625 0-.859375-.078125-.859375-.609375v-6.609375l-1.5625.109375v.34375c.765625 0 .84375.078125.84375.609375v2.359375c-.3125-.390625-.78125-.6875-1.375-.6875-1.28125 0-2.421875 1.078125-2.421875 2.484375 0 1.390625 1.0625 2.46875 2.3125 2.46875.6875 0 1.1875-.375 1.453125-.71875zm0-2.921875v2.234375c0 .1875 0 .21875-.109375.390625-.328125.53125-.828125.765625-1.296875.765625-.484375 0-.875-.28125-1.140625-.6875-.28125-.453125-.3125-1.078125-.3125-1.515625 0-.40625.015625-1.0625.328125-1.546875.234375-.34375.640625-.703125 1.234375-.703125.390625 0 .84375.15625 1.1875.65625.109375.1875.109375.203125.109375.40625zm0 0"/></symbol><symbol id="K" overflow="visible"><path d="m3.609375 2.625c0-.046875 0-.0625-.1875-.25-1.359375-1.375-1.703125-3.4375-1.703125-5.09375 0-1.90625.40625-3.796875 1.75-5.171875.140625-.125.140625-.140625.140625-.1875 0-.0625-.046875-.09375-.109375-.09375-.109375 0-1.09375.734375-1.734375 2.125-.5625 1.1875-.6875 2.40625-.6875 3.328125 0 .84375.125 2.15625.71875 3.390625.65625 1.34375 1.59375 2.046875 1.703125 2.046875.0625 0 .109375-.03125.109375-.09375zm0 0"/></symbol><symbol id="L" overflow="visible"><path d="m3.15625-2.71875c0-.859375-.125-2.171875-.71875-3.40625-.65625-1.34375-1.59375-2.046875-1.703125-2.046875-.0625 0-.109375.03125-.109375.09375 0 .046875 0 .0625.203125.265625 1.0625 1.078125 1.6875 2.8125 1.6875 5.09375 0 1.859375-.40625 3.78125-1.75 5.15625-.140625.125-.140625.140625-.140625.1875 0 .0625.046875.09375.109375.09375.109375 0 1.09375-.734375 1.734375-2.125.546875-1.1875.6875-2.40625.6875-3.3125zm0 0"/></symbol><symbol id="M" overflow="visible"><path d="m2.21875-.015625c0-.6875-.265625-1.140625-.703125-1.140625-.375 0-.578125.296875-.578125.578125s.1875.578125.578125.578125c.171875 0 .3125-.0625.421875-.15625l.015625-.015625c.015625 0 .015625.015625.015625.15625 0 .703125-.296875 1.375-.78125 1.875-.0625.078125-.078125.078125-.078125.125 0 .078125.0625.125.109375.125.140625 0 1-.859375 1-2.125zm0 0"/></symbol><symbol id="N" overflow="visible"><path d="m1.875-4.109375v-3.453125l-1.5625.109375v.34375c.75 0 .84375.078125.84375.609375v6.5h.265625c.015625-.015625.109375-.15625.40625-.671875.15625.25.609375.796875 1.421875.796875 1.296875 0 2.4375-1.078125 2.4375-2.484375 0-1.375-1.078125-2.46875-2.3125-2.46875-.859375 0-1.328125.515625-1.5.71875zm.03125 2.859375v-2.234375c0-.21875 0-.21875.125-.390625.421875-.625 1.015625-.703125 1.28125-.703125.5 0 .890625.28125 1.140625.703125.296875.4375.328125 1.0625.328125 1.515625 0 .390625-.03125 1.046875-.34375 1.546875-.234375.328125-.640625.6875-1.234375.6875-.484375 0-.875-.25-1.140625-.65625-.15625-.234375-.15625-.265625-.15625-.46875zm0 0"/></symbol><symbol id="O" overflow="visible"><path d="m4.53125-3.671875c.28125-.6875.828125-.6875 1.015625-.6875v-.34375c-.25.03125-.578125.03125-.828125.03125-.1875 0-.703125-.015625-.9375-.03125v.34375c.328125 0 .5.1875.5.46875 0 .109375 0 .125-.0625.265625l-1.09375 2.671875-1.21875-2.921875c-.046875-.109375-.0625-.15625-.0625-.203125 0-.28125.40625-.28125.609375-.28125v-.34375c-.28125.015625-1 .03125-1.1875.03125-.296875 0-.734375 0-1.0625-.03125v.34375c.53125 0 .734375 0 .890625.375l1.625 3.984375c-.046875.140625-.203125.5-.265625.640625-.234375.609375-.546875 1.359375-1.25 1.359375-.046875 0-.296875 0-.5-.203125.328125-.046875.421875-.28125.421875-.453125 0-.28125-.203125-.453125-.453125-.453125-.21875 0-.46875.140625-.46875.46875 0 .484375.46875.875 1 .875.6875 0 1.140625-.625 1.40625-1.234375zm0 0"/></symbol><symbol id="P" overflow="visible"><path d="m6.46875-.6875c.140625.234375.578125.671875.703125.671875.09375 0 .09375-.078125.09375-.25v-1.890625c0-.421875.046875-.484375.75-.484375v-.34375c-.40625.015625-1 .046875-1.328125.046875-.4375 0-1.359375 0-1.765625-.046875v.34375h.359375c.984375 0 1.015625.125 1.015625.53125v.6875c0 1.21875-1.390625 1.328125-1.6875 1.328125-.71875 0-2.875-.390625-2.875-3.640625s2.140625-3.609375 2.796875-3.609375c1.171875 0 2.171875.96875 2.390625 2.578125.015625.15625.015625.1875.171875.1875.171875 0 .171875-.03125.171875-.265625v-2.578125c0-.1875 0-.265625-.125-.265625-.046875 0-.078125 0-.171875.125l-.546875.8125c-.34375-.34375-.9375-.9375-2.015625-.9375-2.03125 0-3.796875 1.71875-3.796875 3.953125s1.75 3.96875 3.8125 3.96875c.796875 0 1.671875-.28125 2.046875-.921875zm0 0"/></symbol><symbol id="Q" overflow="visible"><path d="m6.75-3.671875c.203125-.53125.53125-.6875.921875-.6875v-.34375c-.25.03125-.5625.03125-.796875.03125-.328125 0-.8125-.015625-1.015625-.03125v.34375c.390625 0 .625.203125.625.515625 0 .0625 0 .09375-.046875.234375l-1 2.796875-1.078125-3.046875c-.046875-.125-.046875-.15625-.046875-.203125 0-.296875.421875-.296875.640625-.296875v-.34375c-.3125.015625-.875.03125-1.140625.03125-.328125 0-.640625 0-.96875-.03125v.34375c.40625 0 .578125.015625.6875.15625.0625.0625.171875.390625.25.609375l-.9375 2.640625-1.03125-2.921875c-.0625-.125-.0625-.15625-.0625-.1875 0-.296875.4375-.296875.65625-.296875v-.34375c-.328125.015625-.9375.03125-1.203125.03125-.03125 0-.609375 0-1-.03125v.34375c.53125 0 .671875.03125.796875.375l1.375 3.859375c.0625.15625.09375.25.234375.25s.15625-.078125.21875-.21875l1.09375-3.09375 1.109375 3.09375c.046875.125.078125.21875.21875.21875.15625 0 .1875-.109375.21875-.21875zm0 0"/></symbol><symbol id="R" overflow="visible"><path d="m4.25-4.375c.109375-.125.109375-.140625.109375-.1875 0-.140625-.09375-.140625-.296875-.140625h-3.484375l-.125 1.765625h.28125c.0625-1.125.265625-1.515625 1.46875-1.515625h1.25l-3.046875 4.109375c-.09375.109375-.09375.140625-.09375.1875 0 .15625.0625.15625.28125.15625h3.59375l.1875-2.046875h-.28125c-.09375 1.296875-.3125 1.78125-1.578125 1.78125h-1.296875zm0 0"/></symbol><symbol id="S" overflow="visible"><path d="m7.5-3.5625c.15625 0 .359375 0 .359375-.21875s-.203125-.21875-.359375-.21875h-6.53125c-.15625 0-.359375 0-.359375.21875s.203125.21875.375.21875zm0 2.109375c.15625 0 .359375 0 .359375-.21875s-.203125-.21875-.359375-.21875h-6.515625c-.171875 0-.375 0-.375.21875s.203125.21875.359375.21875zm0 0"/></symbol><symbol id="T" overflow="visible"><path d="m2.09375-.578125c0-.3125-.265625-.578125-.578125-.578125s-.578125.265625-.578125.578125.265625.578125.578125.578125.578125-.265625.578125-.578125zm0 0"/></symbol><symbol id="U" overflow="visible"><path d="m2.453125-6.59375c0-.390625.03125-.515625.890625-.515625h.28125v-.34375c-.375.03125-1.234375.03125-1.65625.03125s-1.28125 0-1.65625-.03125v.34375h.28125c.859375 0 .890625.125.890625.515625v5.75c0 .390625-.03125.5-.890625.5h-.28125v.34375c.375-.03125 1.234375-.03125 1.65625-.03125s1.28125 0 1.65625.03125v-.34375h-.28125c-.859375 0-.890625-.109375-.890625-.5zm0 0"/></symbol><symbol id="V" overflow="visible"><path d="m4.53125-3.625c.109375-.25.296875-.734375 1.015625-.734375v-.34375c-.25.03125-.578125.03125-.828125.03125-.265625 0-.765625-.015625-.9375-.03125v.34375c.390625 0 .515625.265625.515625.46875 0 .09375-.015625.140625-.0625.265625l-1.109375 2.78125-1.234375-3.046875c-.0625-.140625-.0625-.171875-.0625-.1875 0-.28125.421875-.28125.625-.28125v-.34375c-.328125.015625-.9375.03125-1.1875.03125-.296875 0-.734375 0-1.0625-.03125v.34375c.6875 0 .734375.0625.875.40625l1.578125 3.859375c.0625.15625.078125.21875.21875.21875s.1875-.109375.234375-.21875zm0 0"/></symbol><symbol id="W" overflow="visible"><path d="m1.390625-.84375 1.15625-1.125c1.703125-1.5 2.34375-2.09375 2.34375-3.171875 0-1.25-.96875-2.125-2.3125-2.125-1.21875 0-2.03125 1-2.03125 1.96875 0 .625.546875.625.578125.625.1875 0 .5625-.140625.5625-.578125 0-.296875-.1875-.578125-.578125-.578125-.078125 0-.109375 0-.140625.015625.25-.703125.84375-1.109375 1.46875-1.109375 1 0 1.46875.875 1.46875 1.78125 0 .859375-.546875 1.734375-1.140625 2.40625l-2.09375 2.328125c-.125.125-.125.140625-.125.40625h4.046875l.296875-1.890625h-.265625c-.0625.3125-.125.796875-.234375.96875-.078125.078125-.796875.078125-1.046875.078125zm0 0"/></symbol><symbol id="X" overflow="visible"><path d="m5.015625-3.484375c0-.875-.046875-1.75-.4375-2.5625-.5-1.046875-1.390625-1.21875-1.859375-1.21875-.640625 0-1.4375.28125-1.890625 1.296875-.34375.75-.40625 1.609375-.40625 2.484375 0 .8125.046875 1.796875.5 2.625.46875.875 1.265625 1.09375 1.796875 1.09375.578125 0 1.421875-.21875 1.890625-1.265625.359375-.75.40625-1.59375.40625-2.453125zm-2.296875 3.484375c-.421875 0-1.078125-.265625-1.265625-1.3125-.125-.65625-.125-1.671875-.125-2.3125 0-.6875 0-1.40625.09375-2 .203125-1.296875 1.015625-1.40625 1.296875-1.40625.359375 0 1.078125.203125 1.28125 1.28125.109375.609375.109375 1.4375.109375 2.125 0 .828125 0 1.5625-.125 2.265625-.15625 1.03125-.78125 1.359375-1.265625 1.359375zm0 0"/></symbol><symbol id="Y" overflow="visible"><path d="m3.203125-6.984375c0-.25 0-.28125-.25-.28125-.671875.703125-1.640625.703125-1.984375.703125v.328125c.21875 0 .859375 0 1.4375-.28125v5.65625c0 .390625-.046875.515625-1.015625.515625h-.359375v.34375c.390625-.03125 1.328125-.03125 1.765625-.03125s1.390625 0 1.765625.03125v-.34375h-.34375c-.984375 0-1.015625-.109375-1.015625-.515625zm0 0"/></symbol><symbol id="Z" overflow="visible"><path d="m4-4.359375h.9375c.21875 0 .328125 0 .328125-.21875 0-.125-.109375-.125-.296875-.125h-.90625l.234375-1.234375c.046875-.234375.203125-1.015625.265625-1.140625.09375-.203125.28125-.375.515625-.375.03125 0 .328125 0 .53125.203125-.484375.046875-.59375.421875-.59375.59375 0 .25.203125.375.40625.375.28125 0 .59375-.234375.59375-.65625 0-.5-.5-.75-.9375-.75-.375 0-1.0625.1875-1.390625 1.28125-.0625.21875-.09375.328125-.359375 1.703125h-.75c-.21875 0-.328125 0-.328125.203125 0 .140625.09375.140625.296875.140625h.71875l-.8125 4.3125c-.203125 1.046875-.375 2.046875-.953125 2.046875-.03125 0-.3125 0-.515625-.203125.5-.03125.59375-.421875.59375-.59375 0-.25-.1875-.375-.40625-.375-.28125 0-.59375.234375-.59375.65625 0 .484375.484375.75.921875.75.609375 0 1.046875-.640625 1.234375-1.0625.359375-.6875.609375-2 .609375-2.078125zm0 0"/></symbol><symbol id="aa" overflow="visible"><path d="m3.09375-6.8125c0-.21875-.15625-.390625-.40625-.390625-.28125 0-.578125.28125-.578125.578125 0 .203125.140625.390625.40625.390625.25 0 .578125-.25.578125-.578125zm-.828125 4.09375c.140625-.3125.140625-.328125.25-.625.078125-.21875.140625-.375.140625-.578125 0-.5-.359375-.90625-.90625-.90625-1.015625 0-1.4375 1.59375-1.4375 1.6875 0 .109375.109375.109375.140625.109375.109375 0 .109375-.015625.171875-.203125.296875-1.015625.734375-1.34375 1.09375-1.34375.09375 0 .28125 0 .28125.34375 0 .234375-.078125.453125-.125.5625-.09375.296875-.578125 1.5625-.75 2.03125-.109375.28125-.25.640625-.25.859375 0 .515625.375.90625.890625.90625 1.03125 0 1.4375-1.59375 1.4375-1.6875 0-.109375-.109375-.109375-.140625-.109375-.109375 0-.109375.03125-.15625.203125-.203125.6875-.5625 1.34375-1.125 1.34375-.171875 0-.25-.109375-.25-.359375 0-.265625.0625-.421875.3125-1.09375zm0 0"/></symbol><symbol id="ab" overflow="visible"><path d="m3.640625-3.296875c.0625-.28125.3125-1.28125 1.078125-1.28125.0625 0 .3125 0 .546875.140625-.296875.046875-.515625.328125-.515625.59375 0 .171875.109375.375.40625.375.25 0 .59375-.203125.59375-.625 0-.578125-.640625-.734375-1.015625-.734375-.640625 0-1.015625.578125-1.140625.84375-.28125-.734375-.875-.84375-1.1875-.84375-1.125 0-1.75 1.421875-1.75 1.6875 0 .109375.109375.109375.125.109375.09375 0 .125-.015625.140625-.125.375-1.15625 1.09375-1.421875 1.46875-1.421875.203125 0 .59375.09375.59375.734375 0 .328125-.1875 1.0625-.59375 2.59375-.171875.671875-.5625 1.125-1.03125 1.125-.078125 0-.328125 0-.546875-.140625.265625-.046875.5-.28125.5-.578125s-.234375-.390625-.390625-.390625c-.328125 0-.609375.28125-.609375.640625 0 .5.546875.71875 1.03125.71875.71875 0 1.109375-.765625 1.140625-.828125.140625.390625.53125.828125 1.1875.828125 1.109375 0 1.734375-1.40625 1.734375-1.6875 0-.109375-.09375-.109375-.125-.109375-.09375 0-.125.046875-.140625.125-.359375 1.171875-1.109375 1.421875-1.453125 1.421875-.421875 0-.59375-.34375-.59375-.71875 0-.234375.0625-.46875.171875-.953125zm0 0"/></symbol><symbol id="ac" overflow="visible"><path d="m2.21875-.015625c0-.71875-.28125-1.140625-.703125-1.140625-.359375 0-.578125.265625-.578125.578125 0 .296875.21875.578125.578125.578125.125 0 .265625-.046875.375-.140625.046875-.015625.046875-.03125.0625-.03125s.015625.015625.015625.15625c0 .8125-.375 1.46875-.734375 1.828125-.125.125-.125.140625-.125.171875 0 .078125.0625.125.109375.125.125 0 1-.84375 1-2.125zm0 0"/></symbol><symbol id="ad" overflow="visible"><path d="m5.296875-4.15625c.046875-.15625.046875-.171875.046875-.25 0-.203125-.15625-.296875-.3125-.296875-.109375 0-.28125.0625-.390625.234375-.015625.046875-.109375.390625-.140625.59375-.078125.28125-.15625.578125-.21875.859375l-.5 1.96875c-.046875.15625-.515625.921875-1.234375.921875-.546875 0-.671875-.46875-.671875-.875 0-.5.1875-1.1875.5625-2.140625.171875-.453125.21875-.5625.21875-.78125 0-.5-.359375-.90625-.90625-.90625-1.03125 0-1.4375 1.59375-1.4375 1.6875 0 .109375.109375.109375.140625.109375.109375 0 .109375-.015625.171875-.203125.296875-1.015625.734375-1.34375 1.09375-1.34375.09375 0 .28125 0 .28125.34375 0 .28125-.109375.5625-.1875.765625-.4375 1.15625-.640625 1.78125-.640625 2.296875 0 .96875.6875 1.296875 1.34375 1.296875.421875 0 .78125-.1875 1.09375-.5-.140625.578125-.265625 1.109375-.703125 1.6875-.28125.359375-.703125.6875-1.203125.6875-.15625 0-.640625-.03125-.828125-.46875.171875 0 .3125 0 .46875-.125.109375-.09375.21875-.234375.21875-.453125 0-.328125-.296875-.375-.40625-.375-.25 0-.609375.171875-.609375.703125 0 .546875.484375.953125 1.15625.953125 1.125 0 2.25-.984375 2.546875-2.21875zm0 0"/></symbol><symbol id="ae" overflow="visible"><path d="m5.65625-4.0625c.140625 0 .53125 0 .53125-.375 0-.265625-.234375-.265625-.421875-.265625h-2.5c-1.640625 0-2.84375 1.796875-2.84375 3.09375 0 .96875.640625 1.734375 1.625 1.734375 1.296875 0 2.734375-1.328125 2.734375-3 0-.1875 0-.71875-.328125-1.1875zm-3.59375 3.9375c-.53125 0-.96875-.390625-.96875-1.171875 0-.328125.125-1.21875.515625-1.859375.453125-.765625 1.109375-.90625 1.484375-.90625.90625 0 1 .71875 1 1.046875 0 .515625-.21875 1.40625-.59375 1.96875-.421875.640625-1.015625.921875-1.4375.921875zm0 0"/></symbol><symbol id="af" overflow="visible"><path d="m5.046875-3.703125c-.109375-.671875-.546875-1.28125-1.40625-1.28125-.65625 0-1.375.171875-2.21875 1.03125-.90625.90625-.984375 1.90625-.984375 2.25 0 .671875.484375 1.9375 2 1.9375 2.59375 0 3.734375-3.65625 3.734375-5.21875 0-1.734375-1.015625-2.828125-2.359375-2.828125-1.578125 0-2.078125 1.421875-2.078125 1.734375 0 .140625.09375.375.421875.375.359375 0 .578125-.328125.578125-.578125 0-.375-.328125-.375-.515625-.375.484375-.8125 1.265625-.875 1.578125-.875.796875 0 1.5625.5625 1.5625 1.96875 0 .421875-.0625.984375-.296875 1.859375zm-2.578125 3.640625c-1.1875 0-1.1875-1.125-1.1875-1.234375 0-.296875.265625-1.828125.71875-2.484375.4375-.609375.96875-.96875 1.640625-.96875 1.1875 0 1.21875 1.234375 1.21875 1.453125 0 .78125-.703125 3.234375-2.390625 3.234375zm0 0"/></symbol><symbol id="ag" overflow="visible"><path d="m2.09375-.578125c0-.3125-.265625-.578125-.578125-.578125s-.578125.265625-.578125.578125.265625.578125.578125.578125.578125-.265625.578125-.578125zm0 0"/></symbol><symbol id="ah" overflow="visible"><path d="m4-3.171875c-.359375.078125-.375.390625-.375.421875 0 .171875.140625.296875.3125.296875s.4375-.140625.4375-.484375c0-.453125-.5-.578125-.796875-.578125-.359375 0-.671875.265625-.859375.578125-.171875-.421875-.578125-.578125-.90625-.578125-.875 0-1.359375 1-1.359375 1.21875 0 .078125.0625.109375.125.109375.09375 0 .109375-.046875.125-.140625.1875-.578125.671875-.96875 1.078125-.96875.3125 0 .46875.234375.46875.515625 0 .15625-.09375.53125-.15625.78125-.0625.234375-.234375.9375-.28125 1.09375-.109375.421875-.390625.765625-.75.765625-.03125 0-.234375 0-.40625-.109375.359375-.09375.359375-.421875.359375-.4375 0-.1875-.140625-.296875-.3125-.296875-.21875 0-.453125.1875-.453125.484375 0 .375.390625.578125.796875.578125.421875 0 .71875-.3125.859375-.578125.1875.390625.546875.578125.9375.578125.859375 0 1.34375-1 1.34375-1.21875 0-.078125-.0625-.109375-.125-.109375-.09375 0-.109375.0625-.140625.140625-.15625.53125-.609375.96875-1.0625.96875-.265625 0-.453125-.171875-.453125-.515625 0-.15625.046875-.34375.15625-.78125.046875-.25.21875-.9375.265625-1.09375.109375-.421875.390625-.765625.75-.765625.046875 0 .25 0 .421875.125zm0 0"/></symbol><symbol id="ai" overflow="visible"><path d="m4.125-3c.03125-.109375.03125-.125.03125-.1875 0-.203125-.15625-.25-.25-.25-.046875 0-.21875.015625-.328125.21875-.015625.046875-.09375.328125-.125.5l-.484375 1.90625c0 .03125-.34375.671875-.921875.671875-.390625 0-.53125-.296875-.53125-.640625 0-.46875.265625-1.171875.453125-1.640625.078125-.203125.109375-.265625.109375-.421875 0-.4375-.359375-.671875-.71875-.671875-.796875 0-1.125 1.125-1.125 1.21875 0 .078125.0625.109375.125.109375.109375 0 .109375-.046875.140625-.125.203125-.703125.546875-.984375.828125-.984375.125 0 .1875.078125.1875.265625 0 .171875-.0625.359375-.109375.5-.328125.84375-.46875 1.25-.46875 1.625 0 .78125.59375.984375 1.0625.984375.375 0 .640625-.171875.84375-.34375-.125.4375-.203125.75-.5 1.140625-.265625.3125-.578125.53125-.9375.53125-.140625 0-.4375-.03125-.59375-.265625.421875-.03125.453125-.390625.453125-.4375 0-.1875-.15625-.296875-.3125-.296875-.1875 0-.453125.140625-.453125.53125 0 .375.34375.6875.90625.6875.8125 0 1.71875-.65625 1.96875-1.609375zm0 0"/></symbol><symbol id="aj" overflow="visible"><path d="m7.1875-2.515625c.1875 0 .375 0 .375-.203125 0-.21875-.1875-.21875-.375-.21875h-5.90625c-.1875 0-.375 0-.375.21875 0 .203125.1875.203125.375.203125zm0 0"/></symbol><g><use x="19.735" xlink:href="#a" y="11.152"/><use x="25.462277" xlink:href="#b" y="11.152"/><use x="31.189555" xlink:href="#c" y="11.152"/><use x="36.916833" xlink:href="#d" y="11.152"/><use x="42.64411" xlink:href="#d" y="11.152"/><use x="48.371388" xlink:href="#e" y="11.152"/><use x="54.098665" xlink:href="#b" y="11.152"/><use x="59.825943" xlink:href="#f" y="11.152"/><use x="65.55322" xlink:href="#g" y="11.152"/><use x="71.280498" xlink:href="#h" y="11.152"/><use x="77.007775" xlink:href="#c" y="11.152"/><use x="82.735053" xlink:href="#i" y="11.152"/><use x="88.46233" xlink:href="#h" y="11.152"/><use x="94.189608" xlink:href="#j" y="11.152"/><use x="99.916885" xlink:href="#k" y="11.152"/><use x="105.644163" xlink:href="#l" y="11.152"/><use x="111.37144" xlink:href="#m" y="11.152"/><use x="117.098718" xlink:href="#n" y="11.152"/></g><g><use x="128.553273" xlink:href="#o" y="11.152"/><use x="134.28055" xlink:href="#n" y="11.152"/></g><g><use x="145.735105" xlink:href="#d" y="11.152"/><use x="151.462383" xlink:href="#e" y="11.152"/><use x="157.18966" xlink:href="#p" y="11.152"/><use x="162.916938" xlink:href="#m" y="11.152"/><use x="168.644215" xlink:href="#n" y="11.152"/></g><g><use x="180.09877" xlink:href="#d" y="11.152"/><use x="185.826048" xlink:href="#e" y="11.152"/><use x="191.553325" xlink:href="#p" y="11.152"/><use x="197.280603" xlink:href="#o" y="11.152"/><use x="203.00788" xlink:href="#q" y="11.152"/></g><g><use x="213.599" xlink:href="#t" y="11.152"/><use x="217.872094" xlink:href="#u" y="11.152"/><use x="222.720099" xlink:href="#v" y="11.152"/><use x="226.962647" xlink:href="#w" y="11.152"/><use x="233.023743" xlink:href="#t" y="11.152"/><use x="237.296838" xlink:href="#x" y="11.152"/><use x="243.357934" xlink:href="#y" y="11.152"/></g><g><use x="252.525942" xlink:href="#v" y="11.152"/><use x="256.768491" xlink:href="#z" y="11.152"/><use x="262.829586" xlink:href="#u" y="11.152"/></g><g><use x="272.543049" xlink:href="#u" y="11.152"/><use x="277.391053" xlink:href="#A" y="11.152"/><use x="280.421601" xlink:href="#u" y="11.152"/><use x="285.269605" xlink:href="#B" y="11.152"/><use x="290.117609" xlink:href="#v" y="11.152"/><use x="294.360158" xlink:href="#t" y="11.152"/><use x="298.633253" xlink:href="#C" y="11.152"/><use x="304.087803" xlink:href="#D" y="11.152"/><use x="313.178356" xlink:href="#E" y="11.152"/><use x="318.632906" xlink:href="#F" y="11.152"/><use x="324.087456" xlink:href="#x" y="11.152"/><use x="330.148552" xlink:href="#u" y="11.152"/><use x="334.996556" xlink:href="#v" y="11.152"/><use x="339.239105" xlink:href="#G" y="11.152"/><use x="342.269653" xlink:href="#B" y="11.152"/></g><g><use x="351.983115" xlink:href="#H" y="11.152"/><use x="355.316936" xlink:href="#C" y="11.152"/><use x="360.771486" xlink:href="#t" y="11.152"/><use x="365.044581" xlink:href="#B" y="11.152"/><use x="369.892585" xlink:href="#u" y="11.152"/></g><use x="379.607" xlink:href="#Z" y="11.152"/><use x="384.948" xlink:href="#ah" y="12.788"/><use x="393.457" xlink:href="#I" y="11.152"/><g><use x="405.186" xlink:href="#aa" y="11.152"/><use x="408.944185" xlink:href="#Z" y="11.152"/></g><use x="414.285" xlink:href="#ai" y="12.788"/><g><use x="424.121" xlink:href="#E" y="11.152"/><use x="429.57555" xlink:href="#v" y="11.152"/></g><g><use x="438.683558" xlink:href="#v" y="11.152"/><use x="442.926107" xlink:href="#z" y="11.152"/><use x="448.987203" xlink:href="#u" y="11.152"/></g><g><use x="458.700665" xlink:href="#B" y="11.152"/><use x="463.548669" xlink:href="#C" y="11.152"/></g><g><use x="469.308674" xlink:href="#C" y="11.152"/><use x="474.763224" xlink:href="#t" y="11.152"/><use x="479.036318" xlink:href="#J" y="11.152"/><use x="485.097414" xlink:href="#G" y="11.152"/><use x="488.127962" xlink:href="#x" y="11.152"/><use x="494.189058" xlink:href="#E" y="11.152"/><use x="499.643608" xlink:href="#v" y="11.152"/><use x="503.886157" xlink:href="#u" y="11.152"/><use x="508.734161" xlink:href="#y" y="11.152"/></g><use x="2.798" xlink:href="#K" y="24.701"/><g><use x="7.041" xlink:href="#ab" y="24.701"/><use x="13.275551" xlink:href="#ac" y="24.701"/></g><use x="18.127918" xlink:href="#ad" y="24.701"/><g><use x="23.864" xlink:href="#L" y="24.701"/><use x="28.106549" xlink:href="#M" y="24.701"/></g><g><use x="34.769827" xlink:href="#F" y="24.701"/><use x="40.224377" xlink:href="#u" y="24.701"/><use x="45.072381" xlink:href="#x" y="24.701"/><use x="51.133477" xlink:href="#u" y="24.701"/><use x="55.981481" xlink:href="#t" y="24.701"/><use x="60.254576" xlink:href="#E" y="24.701"/><use x="65.709126" xlink:href="#v" y="24.701"/><use x="69.951675" xlink:href="#u" y="24.701"/><use x="74.799679" xlink:href="#J" y="24.701"/></g><use x="84.504414" xlink:href="#N" y="24.701"/><use x="90.260055" xlink:href="#O" y="24.701"/><use x="99.650609" xlink:href="#E" y="24.701"/><g><use x="108.737889" xlink:href="#P" y="24.701"/><use x="117.29826" xlink:href="#E" y="24.701"/><use x="122.75281" xlink:href="#w" y="24.701"/><use x="128.813906" xlink:href="#y" y="24.701"/><use x="133.116455" xlink:href="#y" y="24.701"/></g><g><use x="137.429913" xlink:href="#G" y="24.701"/><use x="140.460461" xlink:href="#E" y="24.701"/><use x="145.915011" xlink:href="#x" y="24.701"/></g><g><use x="155.608837" xlink:href="#N" y="24.701"/><use x="161.669933" xlink:href="#w" y="24.701"/><use x="167.731029" xlink:href="#x" y="24.701"/><use x="173.792125" xlink:href="#B" y="24.701"/></g><use x="178.334674" xlink:href="#z" y="24.701"/><g><use x="188.0285" xlink:href="#Q" y="24.701"/><use x="195.907052" xlink:href="#G" y="24.701"/><use x="198.9376" xlink:href="#v" y="24.701"/><use x="203.180149" xlink:href="#z" y="24.701"/></g><use x="212.873976" xlink:href="#y" y="24.701"/><g><use x="217.187434" xlink:href="#G" y="24.701"/><use x="220.217982" xlink:href="#R" y="24.701"/><use x="225.065986" xlink:href="#u" y="24.701"/><use x="229.91399" xlink:href="#y" y="24.701"/></g><g><use x="237.849" xlink:href="#r" y="24.701"/><use x="243.576278" xlink:href="#d" y="24.701"/><use x="249.303555" xlink:href="#e" y="24.701"/><use x="255.030833" xlink:href="#p" y="24.701"/><use x="260.75811" xlink:href="#m" y="24.701"/><use x="266.485388" xlink:href="#n" y="24.701"/><use x="272.212665" xlink:href="#d" y="24.701"/><use x="277.939943" xlink:href="#e" y="24.701"/><use x="283.66722" xlink:href="#p" y="24.701"/><use x="289.394498" xlink:href="#o" y="24.701"/><use x="295.121775" xlink:href="#s" y="24.701"/></g><g><use x="300.848" xlink:href="#S" y="24.701"/><use x="309.333098" xlink:href="#K" y="24.701"/></g><use x="313.576" xlink:href="#ae" y="24.701"/><use x="319.809" xlink:href="#ah" y="26.337"/><use x="325.074" xlink:href="#ac" y="24.701"/><use x="329.926368" xlink:href="#ae" y="24.701"/><use x="336.156" xlink:href="#ai" y="26.337"/><g><use x="341.126" xlink:href="#L" y="24.701"/><use x="345.368549" xlink:href="#T" y="24.701"/></g><g><use x="353.242737" xlink:href="#U" y="24.701"/><use x="357.182013" xlink:href="#v" y="24.701"/><use x="361.424562" xlink:href="#y" y="24.701"/></g><g><use x="369.370751" xlink:href="#J" y="24.701"/><use x="375.431847" xlink:href="#u" y="24.701"/><use x="380.279851" xlink:href="#t" y="24.701"/><use x="384.552945" xlink:href="#G" y="24.701"/><use x="387.583493" xlink:href="#V" y="24.701"/></g><g><use x="392.730407" xlink:href="#E" y="24.701"/><use x="398.184957" xlink:href="#v" y="24.701"/><use x="402.427506" xlink:href="#G" y="24.701"/><use x="405.458054" xlink:href="#V" y="24.701"/></g><use x="410.910422" xlink:href="#u" y="24.701"/><g><use x="419.402065" xlink:href="#E" y="24.701"/><use x="424.856615" xlink:href="#v" y="24.701"/></g><g><use x="432.731895" xlink:href="#v" y="24.701"/><use x="436.974444" xlink:href="#z" y="24.701"/><use x="443.035539" xlink:href="#u" y="24.701"/></g><g><use x="451.516274" xlink:href="#C" y="24.701"/><use x="456.970824" xlink:href="#t" y="24.701"/><use x="461.243918" xlink:href="#G" y="24.701"/><use x="464.274466" xlink:href="#F" y="24.701"/><use x="469.729016" xlink:href="#G" y="24.701"/><use x="472.759564" xlink:href="#x" y="24.701"/></g><g><use x="482.4643" xlink:href="#G" y="24.701"/><use x="485.494848" xlink:href="#y" y="24.701"/></g><use x="202.634" xlink:href="#af" y="47.418"/><use x="209.036551" xlink:href="#Z" y="47.418"/><use x="214.372" xlink:href="#ah" y="49.054"/><path d="m-.0011875.0006875h17.0039065" fill="none" stroke="#000" stroke-miterlimit="10" stroke-width=".436" transform="matrix(1 0 0 -1 202.634 52.071)"/><use x="204.819" xlink:href="#af" y="62.281"/><use x="211.221551" xlink:href="#ab" y="62.281"/><use x="223.863" xlink:href="#S" y="54.798"/><use x="235.378" xlink:href="#aj" y="54.798"/><use x="243.863" xlink:href="#W" y="54.798"/><use x="275.405" xlink:href="#ab" y="47.418"/><path d="m-.00128125.0006875h56.01953125" fill="none" stroke="#000" stroke-miterlimit="10" stroke-width=".436" transform="matrix(1 0 0 -1 250.513 52.071)"/><use x="250.513" xlink:href="#ae" y="62.281"/><use x="256.747" xlink:href="#ah" y="63.917"/><use x="262.012" xlink:href="#K" y="62.281"/><use x="266.254" xlink:href="#ae" y="62.281"/><use x="272.488" xlink:href="#ah" y="63.917"/><use x="280.177" xlink:href="#I" y="62.281"/><use x="291.086" xlink:href="#ae" y="62.281"/><use x="297.32" xlink:href="#ai" y="63.917"/><use x="302.29" xlink:href="#L" y="62.281"/><use x="311.364" xlink:href="#ac" y="54.798"/><g><use x="488.186" xlink:href="#K" y="54.798"/><use x="492.428549" xlink:href="#W" y="54.798"/><use x="497.883099" xlink:href="#X" y="54.798"/><use x="503.337649" xlink:href="#X" y="54.798"/><use x="508.792199" xlink:href="#L" y="54.798"/></g><use x="202.929" xlink:href="#af" y="77.028"/><use x="209.331551" xlink:href="#Z" y="77.028"/><use x="214.668" xlink:href="#ai" y="78.664"/><path d="m.0006875-.0011875h16.7070315" fill="none" stroke="#000" stroke-miterlimit="10" stroke-width=".436" transform="matrix(1 0 0 -1 202.929 81.741)"/><use x="205.214" xlink:href="#af" y="91.952"/><use x="211.616551" xlink:href="#ad" y="91.952"/><use x="223.863" xlink:href="#S" y="84.469"/><use x="235.378" xlink:href="#aj" y="84.469"/><use x="243.863" xlink:href="#W" y="84.469"/><use x="275.505" xlink:href="#ad" y="77.088"/><path d="m-.00128125-.0011875h55.72656225" fill="none" stroke="#000" stroke-miterlimit="10" stroke-width=".436" transform="matrix(1 0 0 -1 250.513 81.741)"/><use x="250.513" xlink:href="#ae" y="91.952"/><use x="256.747" xlink:href="#ai" y="93.588"/><use x="261.717" xlink:href="#K" y="91.952"/><use x="265.959" xlink:href="#ae" y="91.952"/><use x="272.193" xlink:href="#ah" y="93.588"/><use x="279.882" xlink:href="#I" y="91.952"/><use x="290.791" xlink:href="#ae" y="91.952"/><use x="297.025" xlink:href="#ai" y="93.588"/><use x="301.995" xlink:href="#L" y="91.952"/><use x="311.069" xlink:href="#ag" y="84.469"/><g><use x="488.186" xlink:href="#K" y="84.469"/><use x="492.428549" xlink:href="#W" y="84.469"/><use x="497.883099" xlink:href="#X" y="84.469"/><use x="503.337649" xlink:href="#Y" y="84.469"/><use x="508.792199" xlink:href="#L" y="84.469"/></g></svg>