<svg height="48pt" viewBox="0 0 416 48" width="416pt" xmlns="http://www.w3.org/2000/svg" xmlns:xlink="http://www.w3.org/1999/xlink"><symbol id="a" overflow="visible"><path d="m6.734375-7.546875c-.046875-.21875-.0625-.265625-.25-.265625-.109375 0-.1875 0-.34375.203125l-5.515625 7.390625c-.09375.109375-.09375.125-.09375.15625 0 .046875.015625.0625.25.0625h7.515625c.1875 0 .28125 0 .28125-.109375 0-.046875 0-.109375-.015625-.15625zm-.828125.765625 1.5 6h-5.984375zm0 0"/></symbol><symbol id="b" overflow="visible"><path d="m7.71875-2.546875c.03125-.046875.0625-.125.0625-.140625s0-.125-.140625-.125c-.09375 0-.109375.0625-.140625.125-.703125 1.625-1.109375 2.34375-2.96875 2.34375h-1.59375c-.15625 0-.171875 0-.25 0-.109375-.015625-.140625-.03125-.140625-.109375 0-.03125 0-.0625.0625-.25l.734375-2.984375h1.078125c.9375 0 .9375.234375.9375.5 0 .078125 0 .203125-.078125.53125-.03125.0625-.03125.09375-.03125.125 0 .0625.046875.125.140625.125.078125 0 .109375-.0625.15625-.21875l.625-2.5625c0-.0625-.046875-.109375-.125-.109375-.109375 0-.125.0625-.15625.1875-.234375.828125-.421875 1.078125-1.4375 1.078125h-1.015625l.65625-2.625c.09375-.375.109375-.421875.578125-.421875h1.546875c1.328125 0 1.65625.3125 1.65625 1.203125 0 .265625 0 .296875-.046875.578125 0 .078125-.015625.15625-.015625.203125 0 .0625.046875.125.140625.125.125 0 .125-.0625.15625-.265625l.21875-1.890625c.03125-.296875-.03125-.296875-.296875-.296875h-5.515625c-.21875 0-.328125 0-.328125.21875 0 .125.109375.125.3125.125.40625 0 .703125 0 .703125.203125 0 .03125 0 .0625-.046875.25l-1.4375 5.78125c-.109375.421875-.140625.5-1 .5-.1875 0-.296875 0-.296875.21875 0 .125.09375.125.296875.125h5.65625c.25 0 .265625-.015625.34375-.1875zm0 0"/></symbol><symbol id="c" overflow="visible"><path d="m2.046875-2.515625c.3125 0 1.109375-.03125 1.65625-.25.765625-.328125.828125-.96875.828125-1.125 0-.484375-.421875-.9375-1.171875-.9375-1.203125 0-2.859375 1.0625-2.859375 2.96875 0 1.125.640625 1.984375 1.71875 1.984375 1.5625 0 2.46875-1.15625 2.46875-1.296875 0-.0625-.0625-.140625-.125-.140625s-.078125.03125-.140625.109375c-.859375 1.078125-2.0625 1.078125-2.1875 1.078125-.84375 0-.953125-.90625-.953125-1.265625 0-.125.015625-.46875.1875-1.125zm-.515625-.25c.421875-1.65625 1.546875-1.8125 1.828125-1.8125.515625 0 .8125.3125.8125.6875 0 1.125-1.75 1.125-2.203125 1.125zm0 0"/></symbol><symbol id="d" overflow="visible"><path d="m3.640625-3.296875c.0625-.28125.3125-1.28125 1.078125-1.28125.0625 0 .3125 0 .546875.140625-.296875.046875-.515625.328125-.515625.59375 0 .171875.109375.375.40625.375.25 0 .59375-.203125.59375-.625 0-.578125-.640625-.734375-1.015625-.734375-.640625 0-1.015625.578125-1.140625.84375-.28125-.734375-.875-.84375-1.1875-.84375-1.125 0-1.75 1.421875-1.75 1.6875 0 .109375.109375.109375.125.109375.09375 0 .125-.015625.140625-.125.375-1.15625 1.09375-1.421875 1.46875-1.421875.203125 0 .59375.09375.59375.734375 0 .328125-.1875 1.0625-.59375 2.59375-.171875.671875-.5625 1.125-1.03125 1.125-.078125 0-.328125 0-.546875-.140625.265625-.046875.5-.28125.5-.578125s-.234375-.390625-.390625-.390625c-.328125 0-.609375.28125-.609375.640625 0 .5.546875.71875 1.03125.71875.71875 0 1.109375-.765625 1.140625-.828125.140625.390625.53125.828125 1.1875.828125 1.109375 0 1.734375-1.40625 1.734375-1.6875 0-.109375-.09375-.109375-.125-.109375-.09375 0-.125.046875-.140625.125-.359375 1.171875-1.109375 1.421875-1.453125 1.421875-.421875 0-.59375-.34375-.59375-.71875 0-.234375.0625-.46875.171875-.953125zm0 0"/></symbol><symbol id="e" overflow="visible"><path d="m5.296875-4.15625c.046875-.15625.046875-.171875.046875-.25 0-.203125-.15625-.296875-.3125-.296875-.109375 0-.28125.0625-.390625.234375-.015625.046875-.109375.390625-.140625.59375-.078125.28125-.15625.578125-.21875.859375l-.5 1.96875c-.046875.15625-.515625.921875-1.234375.921875-.546875 0-.671875-.46875-.671875-.875 0-.5.1875-1.1875.5625-2.140625.171875-.453125.21875-.5625.21875-.78125 0-.5-.359375-.90625-.90625-.90625-1.03125 0-1.4375 1.59375-1.4375 1.6875 0 .109375.109375.109375.140625.109375.109375 0 .109375-.015625.171875-.203125.296875-1.015625.734375-1.34375 1.09375-1.34375.09375 0 .28125 0 .28125.34375 0 .28125-.109375.5625-.1875.765625-.4375 1.15625-.640625 1.78125-.640625 2.296875 0 .96875.6875 1.296875 1.34375 1.296875.421875 0 .78125-.1875 1.09375-.5-.140625.578125-.265625 1.109375-.703125 1.6875-.28125.359375-.703125.6875-1.203125.6875-.15625 0-.640625-.03125-.828125-.46875.171875 0 .3125 0 .46875-.125.109375-.09375.21875-.234375.21875-.453125 0-.328125-.296875-.375-.40625-.375-.25 0-.609375.171875-.609375.703125 0 .546875.484375.953125 1.15625.953125 1.125 0 2.25-.984375 2.546875-2.21875zm0 0"/></symbol><symbol id="f" overflow="visible"><path d="m2.890625-4.0625h1.234375c-.359375 1.609375-.453125 2.078125-.453125 2.8125 0 .15625 0 .453125.078125.828125.109375.46875.234375.546875.390625.546875.21875 0 .453125-.203125.453125-.421875 0-.0625 0-.078125-.0625-.234375-.328125-.78125-.328125-1.5-.328125-1.796875 0-.578125.078125-1.171875.203125-1.734375h1.25c.140625 0 .53125 0 .53125-.375 0-.265625-.234375-.265625-.4375-.265625h-3.65625c-.234375 0-.65625 0-1.140625.515625-.375.421875-.65625.921875-.65625.984375 0 0 0 .109375.125.109375.09375 0 .109375-.046875.171875-.140625.546875-.828125 1.171875-.828125 1.390625-.828125h.625c-.359375 1.3125-.9375 2.640625-1.40625 3.625-.078125.171875-.078125.1875-.078125.265625 0 .203125.171875.296875.3125.296875.328125 0 .421875-.3125.546875-.71875.15625-.5.15625-.515625.296875-1.0625zm0 0"/></symbol><symbol id="g" overflow="visible"><path d="m2.25-4.359375h1.015625c.21875 0 .328125 0 .328125-.21875 0-.125-.109375-.125-.296875-.125h-.96875c.390625-1.546875.453125-1.765625.453125-1.828125 0-.1875-.125-.296875-.3125-.296875-.03125 0-.34375.015625-.4375.390625l-.421875 1.734375h-1.03125c-.21875 0-.328125 0-.328125.203125 0 .140625.09375.140625.3125.140625h.953125c-.78125 3.09375-.828125 3.28125-.828125 3.46875 0 .59375.40625 1.015625 1 1.015625 1.109375 0 1.734375-1.59375 1.734375-1.6875 0-.109375-.078125-.109375-.125-.109375-.09375 0-.109375.03125-.171875.15625-.46875 1.140625-1.046875 1.390625-1.40625 1.390625-.234375 0-.34375-.140625-.34375-.5 0-.265625.015625-.328125.0625-.515625zm0 0"/></symbol><symbol id="h" overflow="visible"><path d="m2.21875-.015625c0-.71875-.28125-1.140625-.703125-1.140625-.359375 0-.578125.265625-.578125.578125 0 .296875.21875.578125.578125.578125.125 0 .265625-.046875.375-.140625.046875-.015625.046875-.03125.0625-.03125s.015625.015625.015625.15625c0 .8125-.375 1.46875-.734375 1.828125-.125.125-.125.140625-.125.171875 0 .078125.0625.125.109375.125.125 0 1-.84375 1-2.125zm0 0"/></symbol><symbol id="i" overflow="visible"><path d="m7.5-3.5625c.15625 0 .359375 0 .359375-.21875s-.203125-.21875-.359375-.21875h-6.53125c-.15625 0-.359375 0-.359375.21875s.203125.21875.375.21875zm0 2.109375c.15625 0 .359375 0 .359375-.21875s-.203125-.21875-.359375-.21875h-6.515625c-.171875 0-.375 0-.375.21875s.203125.21875.359375.21875zm0 0"/></symbol><symbol id="j" overflow="visible"><path d="m4.453125-2.515625h3.046875c.15625 0 .359375 0 .359375-.203125 0-.21875-.203125-.21875-.359375-.21875h-3.046875v-3.0625c0-.15625 0-.359375-.203125-.359375-.21875 0-.21875.203125-.21875.359375v3.0625h-3.0625c-.15625 0-.359375 0-.359375.21875 0 .203125.203125.203125.359375.203125h3.0625v3.0625c0 .15625 0 .359375.21875.359375.203125 0 .203125-.203125.203125-.359375zm0 0"/></symbol><symbol id="k" overflow="visible"><path d="m1.390625-.84375 1.15625-1.125c1.703125-1.5 2.34375-2.09375 2.34375-3.171875 0-1.25-.96875-2.125-2.3125-2.125-1.21875 0-2.03125 1-2.03125 1.96875 0 .625.546875.625.578125.625.1875 0 .5625-.140625.5625-.578125 0-.296875-.1875-.578125-.578125-.578125-.078125 0-.109375 0-.140625.015625.25-.703125.84375-1.109375 1.46875-1.109375 1 0 1.46875.875 1.46875 1.78125 0 .859375-.546875 1.734375-1.140625 2.40625l-2.09375 2.328125c-.125.125-.125.140625-.125.40625h4.046875l.296875-1.890625h-.265625c-.0625.3125-.125.796875-.234375.96875-.078125.078125-.796875.078125-1.046875.078125zm0 0"/></symbol><symbol id="l" overflow="visible"><path d="m2.265625-2.109375c.25.03125 1.140625.21875 1.140625 1 0 .546875-.390625.984375-1.234375.984375-.921875 0-1.3125-.609375-1.515625-1.546875-.03125-.140625-.046875-.1875-.15625-.1875-.140625 0-.140625.078125-.140625.28125v1.4375c0 .1875 0 .265625.125.265625.046875 0 .0625-.015625.265625-.21875.03125-.03125.03125-.046875.21875-.25.484375.453125.96875.46875 1.203125.46875 1.25 0 1.75-.734375 1.75-1.515625 0-.578125-.328125-.90625-.453125-1.046875-.359375-.34375-.78125-.4375-1.25-.515625-.609375-.125-1.328125-.265625-1.328125-.890625 0-.390625.28125-.828125 1.21875-.828125 1.1875 0 1.25.96875 1.265625 1.3125.015625.09375.109375.09375.140625.09375.140625 0 .140625-.046875.140625-.25v-1.109375c0-.1875 0-.265625-.125-.265625-.046875 0-.078125 0-.21875.140625-.03125.03125-.140625.140625-.1875.171875-.40625-.3125-.859375-.3125-1.015625-.3125-1.328125 0-1.75.734375-1.75 1.34375 0 .390625.171875.6875.46875.921875.34375.296875.65625.359375 1.4375.515625zm0 0"/></symbol><symbol id="m" overflow="visible"><path d="m1.9375-4.828125-1.53125.125v.34375c.703125 0 .796875.0625.796875.59375v2.9375c0 .484375-.109375.484375-.84375.484375v.34375c.34375-.015625.9375-.03125 1.203125-.03125.375 0 .765625.015625 1.125.03125v-.34375c-.71875 0-.75-.046875-.75-.46875zm.03125-1.890625c0-.34375-.265625-.578125-.578125-.578125-.328125 0-.578125.296875-.578125.578125 0 .296875.25.578125.578125.578125.3125 0 .578125-.234375.578125-.578125zm0 0"/></symbol><symbol id="n" overflow="visible"><path d="m1.203125-3.75v2.921875c0 .484375-.125.484375-.859375.484375v.34375c.390625-.015625.9375-.03125 1.234375-.03125.28125 0 .859375.015625 1.21875.03125v-.34375c-.71875 0-.84375 0-.84375-.484375v-2c0-1.140625.765625-1.75 1.46875-1.75.6875 0 .8125.59375.8125 1.203125v2.546875c0 .484375-.125.484375-.859375.484375v.34375c.390625-.015625.9375-.03125 1.234375-.03125.28125 0 .859375.015625 1.21875.03125v-.34375c-.5625 0-.828125 0-.84375-.328125v-2.078125c0-.9375 0-1.28125-.34375-1.671875-.140625-.1875-.5-.40625-1.140625-.40625-.796875 0-1.3125.46875-1.609375 1.15625v-1.15625l-1.546875.125v.34375c.765625 0 .859375.078125.859375.609375zm0 0"/></symbol><symbol id="o" overflow="visible"><path d="m3.609375 2.625c0-.046875 0-.0625-.1875-.25-1.359375-1.375-1.703125-3.4375-1.703125-5.09375 0-1.90625.40625-3.796875 1.75-5.171875.140625-.125.140625-.140625.140625-.1875 0-.0625-.046875-.09375-.109375-.09375-.109375 0-1.09375.734375-1.734375 2.125-.5625 1.1875-.6875 2.40625-.6875 3.328125 0 .84375.125 2.15625.71875 3.390625.65625 1.34375 1.59375 2.046875 1.703125 2.046875.0625 0 .109375-.03125.109375-.09375zm0 0"/></symbol><symbol id="p" overflow="visible"><path d="m3.15625-2.71875c0-.859375-.125-2.171875-.71875-3.40625-.65625-1.34375-1.59375-2.046875-1.703125-2.046875-.0625 0-.109375.03125-.109375.09375 0 .046875 0 .0625.203125.265625 1.0625 1.078125 1.6875 2.8125 1.6875 5.09375 0 1.859375-.40625 3.78125-1.75 5.15625-.140625.125-.140625.140625-.140625.1875 0 .0625.046875.09375.109375.09375.109375 0 1.09375-.734375 1.734375-2.125.546875-1.1875.6875-2.40625.6875-3.3125zm0 0"/></symbol><symbol id="q" overflow="visible"><path d="m3.203125-6.984375c0-.25 0-.28125-.25-.28125-.671875.703125-1.640625.703125-1.984375.703125v.328125c.21875 0 .859375 0 1.4375-.28125v5.65625c0 .390625-.046875.515625-1.015625.515625h-.359375v.34375c.390625-.03125 1.328125-.03125 1.765625-.03125s1.390625 0 1.765625.03125v-.34375h-.34375c-.984375 0-1.015625-.109375-1.015625-.515625zm0 0"/></symbol><symbol id="r" overflow="visible"><path d="m5.015625-3.484375c0-.875-.046875-1.75-.4375-2.5625-.5-1.046875-1.390625-1.21875-1.859375-1.21875-.640625 0-1.4375.28125-1.890625 1.296875-.34375.75-.40625 1.609375-.40625 2.484375 0 .8125.046875 1.796875.5 2.625.46875.875 1.265625 1.09375 1.796875 1.09375.578125 0 1.421875-.21875 1.890625-1.265625.359375-.75.40625-1.59375.40625-2.453125zm-2.296875 3.484375c-.421875 0-1.078125-.265625-1.265625-1.3125-.125-.65625-.125-1.671875-.125-2.3125 0-.6875 0-1.40625.09375-2 .203125-1.296875 1.015625-1.40625 1.296875-1.40625.359375 0 1.078125.203125 1.28125 1.28125.109375.609375.109375 1.4375.109375 2.125 0 .828125 0 1.5625-.125 2.265625-.15625 1.03125-.78125 1.359375-1.265625 1.359375zm0 0"/></symbol><symbol id="s" overflow="visible"><path d="m7.1875-2.515625c.1875 0 .375 0 .375-.203125 0-.21875-.1875-.21875-.375-.21875h-5.90625c-.1875 0-.375 0-.375.21875 0 .203125.1875.203125.375.203125zm0 0"/></symbol><symbol id="t" overflow="visible"><path d="m3-4.65625c.015625-.15625.015625-.421875-.28125-.421875-.171875 0-.3125.15625-.28125.296875v.140625l.15625 1.6875-1.390625-1.015625c-.109375-.0625-.125-.078125-.203125-.078125-.15625 0-.296875.15625-.296875.3125 0 .171875.109375.21875.21875.265625l1.546875.75-1.5.71875c-.171875.09375-.265625.140625-.265625.296875 0 .171875.140625.3125.296875.3125.078125 0 .09375 0 .375-.21875l1.21875-.875-.15625 1.828125c0 .234375.1875.28125.28125.28125.125 0 .296875-.078125.296875-.28125l-.171875-1.828125 1.40625 1.015625c.09375.046875.109375.078125.1875.078125.15625 0 .296875-.15625.296875-.3125s-.09375-.21875-.234375-.28125c-.65625-.328125-.671875-.328125-1.53125-.734375l1.5-.734375c.171875-.078125.265625-.125.265625-.28125 0-.171875-.140625-.3125-.296875-.3125-.078125 0-.09375 0-.375.203125l-1.21875.890625zm0 0"/></symbol><symbol id="u" overflow="visible"><path d="m4.25-3.03125-2.1875-2.171875c-.125-.125-.15625-.15625-.234375-.15625-.109375 0-.21875.109375-.21875.21875 0 .078125.015625.109375.140625.21875l2.171875 2.203125-2.171875 2.1875c-.125.109375-.140625.140625-.140625.21875 0 .109375.109375.21875.21875.21875.078125 0 .109375-.03125.234375-.15625l2.171875-2.171875 2.25 2.265625c.03125 0 .109375.0625.171875.0625.125 0 .21875-.109375.21875-.21875 0-.03125 0-.0625-.03125-.125-.015625-.015625-1.75-1.734375-2.296875-2.28125l2-2c.046875-.0625.21875-.203125.265625-.28125.015625-.015625.0625-.0625.0625-.140625 0-.109375-.09375-.21875-.21875-.21875-.09375 0-.140625.046875-.25.171875zm0 0"/></symbol><symbol id="v" overflow="visible"><path d="m7.640625 25.625c0-.046875-.03125-.078125-.046875-.109375-.40625-.40625-1.140625-1.125-1.875-2.3125-1.75-2.8125-2.546875-6.359375-2.546875-10.546875 0-2.9375.390625-6.71875 2.1875-9.96875.875-1.546875 1.765625-2.453125 2.25-2.921875.03125-.03125.03125-.0625.03125-.09375 0-.109375-.078125-.109375-.234375-.109375s-.171875 0-.34375.171875c-3.65625 3.3125-4.796875 8.3125-4.796875 12.90625 0 4.28125.984375 8.609375 3.75 11.859375.21875.25.640625.703125 1.078125 1.09375.140625.140625.15625.140625.3125.140625s.234375 0 .234375-.109375zm0 0"/></symbol><symbol id="w" overflow="visible"><path d="m5.75 12.65625c0-4.296875-.984375-8.609375-3.75-11.875-.21875-.25-.640625-.6875-1.078125-1.09375-.140625-.125-.15625-.125-.3125-.125-.125 0-.234375 0-.234375.109375 0 .046875.046875.09375.078125.109375.375.390625 1.109375 1.125 1.84375 2.296875 1.75 2.8125 2.546875 6.359375 2.546875 10.5625 0 2.9375-.390625 6.71875-2.1875 9.96875-.875 1.546875-1.765625 2.453125-2.234375 2.90625-.015625.03125-.046875.078125-.046875.109375 0 .109375.109375.109375.234375.109375.15625 0 .171875 0 .34375-.171875 3.65625-3.328125 4.796875-8.3125 4.796875-12.90625zm0 0"/></symbol><symbol id="x" overflow="visible"><path d="m4.890625-6c.40625 0 .625 0 .625-.34375 0-.3125-.28125-.3125-.4375-.3125h-1.125c-.15625 0-.4375 0-.4375.3125 0 .34375.21875.34375.609375.34375l-.84375 3.34375c-.140625.578125-.34375 1.40625-.421875 1.875h-.015625c-.046875-.390625-.09375-.578125-.1875-.96875l-1.0625-4.25c.375 0 .609375 0 .609375-.34375 0-.3125-.28125-.3125-.453125-.3125h-1.109375c-.15625 0-.4375 0-.4375.3125 0 .34375.21875.34375.609375.34375l1.4375 5.671875c.109375.421875.296875.421875.609375.421875.296875 0 .5 0 .59375-.40625zm0 0"/></symbol><symbol id="y" overflow="visible"><path d="m5.109375-3.328125c0-3.15625-.234375-3.453125-2.25-3.453125s-2.25.296875-2.25 3.453125.234375 3.453125 2.25 3.453125c2 0 2.25-.296875 2.25-3.453125zm-2.25 2.78125c-.96875 0-1.234375-.234375-1.359375-.765625-.140625-.5625-.140625-1.515625-.140625-2.109375 0-.671875 0-1.421875.125-1.921875.140625-.640625.484375-.78125 1.375-.78125.8125 0 1.203125.109375 1.359375.703125.140625.515625.140625 1.328125.140625 2s0 1.453125-.125 2.03125c-.125.609375-.40625.84375-1.375.84375zm0 0"/></symbol><symbol id="z" overflow="visible"><path d="m1.9375-6h.609375c.15625 0 .453125 0 .453125-.328125s-.28125-.328125-.453125-.328125h-1.765625c-.171875 0-.4375 0-.4375.328125s.28125.328125.4375.328125h.40625v5.328125h-.40625c-.171875 0-.4375 0-.4375.34375 0 .328125.28125.328125.4375.328125h4.109375c.359375 0 .4375-.09375.4375-.453125v-.96875c0-.21875 0-.4375-.375-.4375-.390625 0-.390625.21875-.390625.4375v.75h-2.625zm0 0"/></symbol><symbol id="A" overflow="visible"><path d="m3.234375-6h1.4375v.578125c0 .203125 0 .453125.375.453125.390625 0 .390625-.234375.390625-.453125v-.796875c0-.328125-.078125-.4375-.4375-.4375h-4.265625c-.359375 0-.453125.078125-.453125.4375v.796875c0 .203125 0 .453125.375.453125s.375-.234375.375-.453125v-.578125h1.453125v5.328125h-.5625c-.171875 0-.4375 0-.4375.328125 0 .34375.265625.34375.4375.34375h1.890625c.15625 0 .4375 0 .4375-.328125 0-.34375-.265625-.34375-.4375-.34375h-.578125zm0 0"/></symbol><symbol id="B" overflow="visible"><path d="m.65625-6.65625c-.171875 0-.453125 0-.453125.328125s.28125.328125.453125.328125h.234375v5.328125h-.234375c-.171875 0-.453125 0-.453125.34375 0 .328125.28125.328125.453125.328125h2.25c1.421875 0 2.390625-1.53125 2.390625-3.28125s-.9375-3.375-2.390625-3.375zm.984375 5.984375v-5.328125h1.046875c1.234375 0 1.84375 1.453125 1.84375 2.71875 0 1.28125-.625 2.609375-1.84375 2.609375zm0 0"/></symbol><symbol id="C" overflow="visible"><path d="m3.390625-6.34375c0-.171875 0-.4375-.328125-.4375-.203125 0-.265625.125-.328125.265625-.40625.921875-.984375 1.046875-1.1875 1.0625-.171875.015625-.40625.03125-.40625.34375 0 .265625.203125.328125.359375.328125.21875 0 .65625-.078125 1.140625-.484375v4.59375h-1c-.171875 0-.4375 0-.4375.34375 0 .328125.28125.328125.4375.328125h2.75c.15625 0 .4375 0 .4375-.328125 0-.34375-.265625-.34375-.4375-.34375h-1zm0 0"/></symbol><symbol id="D" overflow="visible"><path d="m.734375-.625c-.109375.078125-.171875.140625-.171875.28125 0 .34375.28125.34375.453125.34375h3.703125c.359375 0 .421875-.09375.421875-.453125v-.28125c0-.203125 0-.4375-.359375-.4375-.390625 0-.390625.203125-.390625.5h-2.59375c.640625-.546875 1.6875-1.375 2.15625-1.796875.6875-.625 1.1875-1.3125 1.1875-2.1875 0-1.3125-1.09375-2.125-2.421875-2.125-1.296875 0-2.15625.890625-2.15625 1.8125 0 .40625.3125.53125.5.53125.21875 0 .46875-.1875.46875-.484375 0-.140625-.046875-.28125-.140625-.359375.15625-.5.671875-.84375 1.265625-.84375.90625 0 1.734375.515625 1.734375 1.46875 0 .765625-.53125 1.390625-1.25 2zm0 0"/></symbol><symbol id="E" overflow="visible"><path d="m5.171875-3.328125c0-2.03125-1.109375-3.453125-2.3125-3.453125-1.21875 0-2.3125 1.453125-2.3125 3.4375 0 2.03125 1.109375 3.46875 2.3125 3.46875 1.21875 0 2.3125-1.46875 2.3125-3.453125zm-2.3125 2.78125c-.859375 0-1.5625-1.28125-1.5625-2.90625 0-1.578125.75-2.671875 1.5625-2.671875.796875 0 1.5625 1.078125 1.5625 2.671875 0 1.625-.71875 2.90625-1.5625 2.90625zm0 0"/></symbol><symbol id="F" overflow="visible"><path d="m1.859375-3h1.484375c0 .453125 0 .625.390625.625.359375 0 .359375-.25.359375-.453125v-1.015625c0-.203125 0-.4375-.359375-.4375-.390625 0-.390625.171875-.390625.609375h-1.484375v-2.328125h2.734375v.578125c0 .203125 0 .453125.375.453125s.375-.234375.375-.453125v-.796875c0-.328125-.0625-.4375-.4375-.4375h-4.15625c-.171875 0-.4375 0-.4375.328125s.28125.328125.4375.328125h.359375v5.328125h-.359375c-.171875 0-.4375 0-.4375.34375 0 .328125.28125.328125.4375.328125h1.6875c.15625 0 .4375 0 .4375-.328125 0-.34375-.265625-.34375-.4375-.34375h-.578125zm0 0"/></symbol><symbol id="G" overflow="visible"><path d="m1.703125-6h.78125c1 0 1.484375.640625 1.484375 1.171875s-.484375 1.15625-1.484375 1.15625h-.78125zm2.09375 2.6875c.71875-.40625.921875-1.078125.921875-1.515625 0-.9375-.828125-1.828125-2.109375-1.828125h-1.9375c-.171875 0-.4375 0-.4375.328125s.28125.328125.4375.328125h.28125v5.328125h-.28125c-.171875 0-.4375 0-.4375.34375 0 .328125.28125.328125.4375.328125h1.296875c.171875 0 .4375 0 .4375-.328125 0-.34375-.25-.34375-.4375-.34375h-.265625v-2.328125h.84375c.21875 0 .546875 0 .890625.3125.234375.21875.234375.46875.234375.921875 0 .703125 0 1.03125.203125 1.390625.1875.328125.5.5.875.5.6875 0 .9375-.71875.9375-1.140625 0-.34375-.25-.34375-.375-.34375-.109375 0-.359375 0-.375.328125 0 .078125-.015625.484375-.203125.484375-.3125 0-.3125-.5-.3125-1.078125 0-.6875 0-.78125-.09375-1.03125-.125-.3125-.375-.546875-.53125-.65625zm0 0"/></symbol><symbol id="H" overflow="visible"><path d="m1.0625-.671875h-.328125c-.171875 0-.453125 0-.453125.34375 0 .328125.28125.328125.453125.328125h4.296875c.375 0 .4375-.09375.4375-.453125v-.96875c0-.203125 0-.4375-.359375-.4375-.390625 0-.390625.21875-.390625.4375v.75h-2.90625v-2.453125h1.421875c0 .453125 0 .625.390625.625.359375 0 .359375-.234375.359375-.4375v-1.015625c0-.21875 0-.453125-.359375-.453125-.390625 0-.390625.171875-.390625.625h-1.421875v-2.21875h2.671875v.578125c0 .203125 0 .453125.375.453125s.375-.234375.375-.453125v-.796875c0-.328125-.0625-.4375-.4375-.4375h-4.0625c-.171875 0-.453125 0-.453125.3125 0 .34375.28125.34375.453125.34375h.328125zm0 0"/></symbol><symbol id="I" overflow="visible"><path d="m4.609375 1.515625c.171875 0 .359375 0 .359375-.203125 0-.0625-.21875-.46875-.34375-.703125-.09375-.140625-.28125-.515625-.359375-.65625.484375-.1875.671875-.578125.765625-1.453125.078125-.59375.078125-1.328125.078125-1.828125 0-3.15625-.234375-3.453125-2.25-3.453125s-2.25.296875-2.25 3.453125.234375 3.453125 2.25 3.453125c.140625 0 .484375 0 .609375-.015625.0625.140625.640625 1.234375.671875 1.28125.078125.125.203125.125.375.125zm-1.484375-2.0625h-.359375c-.984375 0-1.1875-.296875-1.296875-.890625-.109375-.5625-.109375-1.296875-.109375-1.890625 0-.609375 0-1.453125.109375-1.96875.140625-.609375.390625-.828125 1.390625-.828125.96875 0 1.28125.1875 1.390625.90625.109375.546875.109375 1.296875.109375 1.875 0 2.28125-.21875 2.4375-.46875 2.609375l-.515625-.953125c-.109375-.171875-.109375-.171875-.328125-.171875h-.125c-.15625 0-.34375 0-.34375.203125 0 .046875 0 .078125.046875.140625zm0 0"/></symbol><symbol id="J" overflow="visible"><path d="m1.8125-2.671875h1.359375c1.265625 0 2.0625-.984375 2.0625-2s-.8125-1.984375-2.0625-1.984375h-2.4375c-.171875 0-.453125 0-.453125.3125 0 .34375.28125.34375.453125.34375h.328125v5.328125h-.328125c-.171875 0-.453125 0-.453125.34375 0 .328125.28125.328125.453125.328125h1.40625c.15625 0 .4375 0 .4375-.328125 0-.34375-.28125-.34375-.4375-.34375h-.328125zm0-3.328125h1.15625c1.046875 0 1.515625.75 1.515625 1.328125s-.46875 1.328125-1.515625 1.328125h-1.15625zm0 0"/></symbol><symbol id="K" overflow="visible"><path d="m4.765625-6h.265625c.171875 0 .4375 0 .4375-.328125s-.25-.328125-.4375-.328125h-1.296875c-.15625 0-.4375 0-.4375.3125 0 .34375.265625.34375.4375.34375h.28125v2.203125h-2.3125v-2.203125h.265625c.171875 0 .4375 0 .4375-.328125s-.25-.328125-.4375-.328125h-1.296875c-.171875 0-.4375 0-.4375.328125s.28125.328125.4375.328125h.28125v5.328125h-.28125c-.171875 0-.4375 0-.4375.34375 0 .328125.28125.328125.4375.328125h1.296875c.171875 0 .4375 0 .4375-.328125 0-.34375-.25-.34375-.4375-.34375h-.265625v-2.453125h2.3125v2.453125h-.28125c-.15625 0-.4375 0-.4375.328125 0 .34375.265625.34375.4375.34375h1.296875c.171875 0 .4375 0 .4375-.328125 0-.34375-.25-.34375-.4375-.34375h-.265625zm0 0"/></symbol><symbol id="L" overflow="visible"><path d="m3.234375-6h1.1875c.15625 0 .4375 0 .4375-.328125s-.28125-.328125-.4375-.328125h-3.109375c-.171875 0-.453125 0-.453125.3125 0 .34375.28125.34375.453125.34375h1.171875v5.328125h-1.171875c-.171875 0-.453125 0-.453125.328125 0 .34375.28125.34375.453125.34375h3.109375c.15625 0 .4375 0 .4375-.328125 0-.34375-.28125-.34375-.4375-.34375h-1.1875zm0 0"/></symbol><symbol id="M" overflow="visible"><path d="m2.25-1.625c.125-.125.453125-.390625.59375-.5.484375-.453125.953125-.890625.953125-1.609375 0-.953125-.796875-1.5625-1.78125-1.5625-.96875 0-1.59375.71875-1.59375 1.4375 0 .390625.3125.4375.421875.4375.171875 0 .421875-.109375.421875-.421875 0-.40625-.40625-.40625-.5-.40625.234375-.59375.765625-.78125 1.15625-.78125.734375 0 1.125.625 1.125 1.296875 0 .828125-.578125 1.4375-1.53125 2.390625l-1 1.046875c-.09375.078125-.09375.09375-.09375.296875h3.140625l.234375-1.421875h-.25c-.015625.15625-.078125.546875-.171875.703125-.046875.0625-.65625.0625-.78125.0625h-1.421875zm0 0"/></symbol><symbol id="N" overflow="visible"><path d="m3.21875-3c-.1875.03125-.359375.171875-.359375.375 0 .140625.09375.25.265625.25.125 0 .375-.09375.375-.453125 0-.484375-.515625-.6875-1.015625-.6875-1.0625 0-1.40625.765625-1.40625 1.171875 0 .078125 0 .359375.296875.578125.1875.140625.328125.171875.734375.25.28125.0625.734375.140625.734375.546875 0 .21875-.15625.46875-.375.625-.296875.1875-.6875.203125-.8125.203125-.1875 0-.734375-.03125-.9375-.359375.40625-.015625.46875-.34375.46875-.4375 0-.234375-.21875-.296875-.3125-.296875-.125 0-.453125.109375-.453125.546875 0 .46875.5.765625 1.234375.765625 1.390625 0 1.6875-.984375 1.6875-1.3125 0-.71875-.78125-.875-1.078125-.921875-.390625-.078125-.703125-.125-.703125-.46875 0-.140625.140625-.671875.921875-.671875.296875 0 .609375.09375.734375.296875zm0 0"/></symbol><g><use x="2.986" xlink:href="#a" y="20.582"/><use x="12.076553" xlink:href="#b" y="20.582"/></g><use x="23.789" xlink:href="#i" y="20.582"/><use x="34.698" xlink:href="#s" y="20.582"/><use x="45.607" xlink:href="#c" y="20.582"/><use x="53.111" xlink:href="#t" y="20.582"/><use x="60.99" xlink:href="#v" y="5.2"/><g><use x="69.02" xlink:href="#x" y="20.582"/><use x="74.747278" xlink:href="#y" y="20.582"/><use x="80.474555" xlink:href="#z" y="20.582"/><use x="86.201833" xlink:href="#A" y="20.582"/></g><use x="94.353" xlink:href="#j" y="20.582"/><g><use x="105.262" xlink:href="#B" y="20.582"/><use x="110.989278" xlink:href="#x" y="20.582"/><use x="116.716555" xlink:href="#y" y="20.582"/><use x="122.443833" xlink:href="#z" y="20.582"/><use x="128.17111" xlink:href="#A" y="20.582"/></g><use x="136.322" xlink:href="#j" y="20.582"/><g><use x="147.232" xlink:href="#x" y="20.582"/><use x="152.959278" xlink:href="#C" y="20.582"/></g><use x="162.322" xlink:href="#d" y="20.582"/><use x="170.981" xlink:href="#j" y="20.582"/><g><use x="183.086" xlink:href="#x" y="13.202"/><use x="188.813278" xlink:href="#D" y="13.202"/><use x="194.540555" xlink:href="#E" y="13.202"/></g><use x="203.904" xlink:href="#d" y="13.202"/><use x="210.139" xlink:href="#M" y="9.243"/><use x="217.295" xlink:href="#j" y="13.202"/><g><use x="228.204" xlink:href="#x" y="13.202"/><use x="233.931278" xlink:href="#E" y="13.202"/><use x="239.658555" xlink:href="#D" y="13.202"/></g><use x="249.022" xlink:href="#e" y="13.202"/><use x="254.762" xlink:href="#M" y="9.243"/><path d="m-.0000625-.00046875h76.4101565" fill="none" stroke="#000" stroke-miterlimit="10" stroke-width=".436" transform="matrix(1 0 0 -1 183.086 17.855)"/><use x="218.563" xlink:href="#k" y="28.065"/><use x="263.114" xlink:href="#j" y="20.582"/><g><use x="274.023" xlink:href="#x" y="20.582"/><use x="279.750277" xlink:href="#C" y="20.582"/><use x="285.477555" xlink:href="#C" y="20.582"/></g><g><use x="294.841" xlink:href="#d" y="20.582"/><use x="301.075551" xlink:href="#e" y="20.582"/></g><use x="306.816" xlink:href="#w" y="5.2"/><use x="34.698" xlink:href="#u" y="44.415"/><g><use x="45.607" xlink:href="#l" y="44.415"/><use x="49.909549" xlink:href="#m" y="44.415"/><use x="52.940097" xlink:href="#n" y="44.415"/><use x="59.001193" xlink:href="#o" y="44.415"/><use x="63.243742" xlink:href="#k" y="44.415"/></g><use x="68.698" xlink:href="#f" y="44.415"/><g><use x="78.944" xlink:href="#F" y="44.415"/><use x="84.671278" xlink:href="#G" y="44.415"/><use x="90.398555" xlink:href="#H" y="44.415"/><use x="96.125833" xlink:href="#I" y="44.415"/></g><use x="101.853" xlink:href="#o" y="44.415"/><use x="106.096" xlink:href="#g" y="44.415"/><use x="112.459" xlink:href="#s" y="44.415"/><use x="123.368" xlink:href="#g" y="44.415"/><use x="127.308" xlink:href="#N" y="46.052"/><use x="131.722" xlink:href="#p" y="44.415"/><use x="138.386369" xlink:href="#j" y="44.415"/><g><use x="149.298" xlink:href="#J" y="44.415"/><use x="155.025278" xlink:href="#K" y="44.415"/><use x="160.752555" xlink:href="#L" y="44.415"/></g><use x="168.903" xlink:href="#j" y="44.415"/><g><use x="179.812" xlink:href="#B" y="44.415"/><use x="185.539278" xlink:href="#J" y="44.415"/><use x="191.266555" xlink:href="#K" y="44.415"/><use x="196.993833" xlink:href="#L" y="44.415"/></g><use x="202.721" xlink:href="#p" y="44.415"/><use x="210.6" xlink:href="#h" y="44.415"/><g><use x="389.186" xlink:href="#o" y="29.021"/><use x="393.428549" xlink:href="#q" y="29.021"/><use x="398.883099" xlink:href="#r" y="29.021"/><use x="404.337649" xlink:href="#r" y="29.021"/><use x="409.792199" xlink:href="#p" y="29.021"/></g></svg>