<svg height="171pt" viewBox="0 0 516 171" width="516pt" xmlns="http://www.w3.org/2000/svg" xmlns:xlink="http://www.w3.org/1999/xlink"><symbol id="a" overflow="visible"><path d="m8.28125-7.578125c0-.03125-.015625-.109375-.109375-.109375-.03125 0-.046875.015625-.171875.125l-.765625.84375c-.09375-.15625-.59375-.96875-1.796875-.96875-2.4375 0-4.890625 2.40625-4.890625 4.9375 0 1.734375 1.203125 2.984375 2.96875 2.984375.484375 0 .984375-.09375 1.375-.25.546875-.21875.75-.453125.9375-.671875.109375.265625.390625.671875.5.671875.046875 0 .078125-.03125.078125-.03125.015625-.03125.125-.4375.1875-.671875l.203125-.84375c.046875-.1875.09375-.375.140625-.546875.125-.5.125-.515625.75-.53125.0625 0 .171875-.015625.171875-.21875 0-.078125-.046875-.125-.140625-.125-.25 0-.890625.046875-1.140625.046875-.34375 0-1.1875-.046875-1.53125-.046875-.09375 0-.21875 0-.21875.21875 0 .125.078125.125.3125.125.015625 0 .328125 0 .578125.015625.296875.046875.34375.078125.34375.21875 0 .09375-.125.578125-.234375.984375-.296875 1.203125-1.71875 1.328125-2.09375 1.328125-1.046875 0-2.203125-.625-2.203125-2.296875 0-.328125.109375-2.140625 1.265625-3.546875.578125-.75 1.640625-1.40625 2.71875-1.40625 1.109375 0 1.765625.828125 1.765625 2.09375 0 .4375-.046875.453125-.046875.5625s.125.109375.171875.109375c.140625 0 .140625-.03125.203125-.21875zm0 0"/></symbol><symbol id="b" overflow="visible"><path d="m3.640625-3.296875c.0625-.28125.3125-1.28125 1.078125-1.28125.0625 0 .3125 0 .546875.140625-.296875.046875-.515625.328125-.515625.59375 0 .171875.109375.375.40625.375.25 0 .59375-.203125.59375-.625 0-.578125-.640625-.734375-1.015625-.734375-.640625 0-1.015625.578125-1.140625.84375-.28125-.734375-.875-.84375-1.1875-.84375-1.125 0-1.75 1.421875-1.75 1.6875 0 .109375.109375.109375.125.109375.09375 0 .125-.015625.140625-.125.375-1.15625 1.09375-1.421875 1.46875-1.421875.203125 0 .59375.09375.59375.734375 0 .328125-.1875 1.0625-.59375 2.59375-.171875.671875-.5625 1.125-1.03125 1.125-.078125 0-.328125 0-.546875-.140625.265625-.046875.5-.28125.5-.578125s-.234375-.390625-.390625-.390625c-.328125 0-.609375.28125-.609375.640625 0 .5.546875.71875 1.03125.71875.71875 0 1.109375-.765625 1.140625-.828125.140625.390625.53125.828125 1.1875.828125 1.109375 0 1.734375-1.40625 1.734375-1.6875 0-.109375-.09375-.109375-.125-.109375-.09375 0-.125.046875-.140625.125-.359375 1.171875-1.109375 1.421875-1.453125 1.421875-.421875 0-.59375-.34375-.59375-.71875 0-.234375.0625-.46875.171875-.953125zm0 0"/></symbol><symbol id="c" overflow="visible"><path d="m2.21875-.015625c0-.71875-.28125-1.140625-.703125-1.140625-.359375 0-.578125.265625-.578125.578125 0 .296875.21875.578125.578125.578125.125 0 .265625-.046875.375-.140625.046875-.015625.046875-.03125.0625-.03125s.015625.015625.015625.15625c0 .8125-.375 1.46875-.734375 1.828125-.125.125-.125.140625-.125.171875 0 .078125.0625.125.109375.125.125 0 1-.84375 1-2.125zm0 0"/></symbol><symbol id="d" overflow="visible"><path d="m.484375 1.328125c-.078125.375-.109375.453125-.578125.453125-.140625 0-.25 0-.25.203125 0 .09375.046875.125.140625.125.296875 0 .609375-.03125.90625-.03125.359375 0 .734375.03125 1.078125.03125.0625 0 .203125 0 .203125-.21875 0-.109375-.109375-.109375-.265625-.109375-.546875 0-.546875-.078125-.546875-.171875 0-.140625.46875-1.921875.546875-2.1875.140625.3125.4375.703125 1 .703125 1.265625 0 2.625-1.59375 2.625-3.203125 0-1.015625-.625-1.75-1.453125-1.75-.546875 0-1.0625.40625-1.421875.828125-.109375-.59375-.578125-.828125-.984375-.828125-.5 0-.703125.4375-.8125.625-.1875.375-.328125 1.03125-.328125 1.0625 0 .109375.109375.109375.125.109375.109375 0 .125-.015625.1875-.25.1875-.78125.40625-1.296875.796875-1.296875.1875 0 .328125.078125.328125.5 0 .25-.03125.375-.0625.5625zm1.921875-4.734375c.078125-.296875.375-.59375.578125-.765625.375-.328125.6875-.40625.875-.40625.4375 0 .703125.375.703125 1.015625 0 .65625-.359375 1.90625-.5625 2.3125-.375.765625-.890625 1.125-1.296875 1.125-.71875 0-.859375-.90625-.859375-.96875 0-.015625 0-.046875.03125-.171875zm0 0"/></symbol><symbol id="e" overflow="visible"><path d="m5.296875-4.15625c.046875-.15625.046875-.171875.046875-.25 0-.203125-.15625-.296875-.3125-.296875-.109375 0-.28125.0625-.390625.234375-.015625.046875-.109375.390625-.140625.59375-.078125.28125-.15625.578125-.21875.859375l-.5 1.96875c-.046875.15625-.515625.921875-1.234375.921875-.546875 0-.671875-.46875-.671875-.875 0-.5.1875-1.1875.5625-2.140625.171875-.453125.21875-.5625.21875-.78125 0-.5-.359375-.90625-.90625-.90625-1.03125 0-1.4375 1.59375-1.4375 1.6875 0 .109375.109375.109375.140625.109375.109375 0 .109375-.015625.171875-.203125.296875-1.015625.734375-1.34375 1.09375-1.34375.09375 0 .28125 0 .28125.34375 0 .28125-.109375.5625-.1875.765625-.4375 1.15625-.640625 1.78125-.640625 2.296875 0 .96875.6875 1.296875 1.34375 1.296875.421875 0 .78125-.1875 1.09375-.5-.140625.578125-.265625 1.109375-.703125 1.6875-.28125.359375-.703125.6875-1.203125.6875-.15625 0-.640625-.03125-.828125-.46875.171875 0 .3125 0 .46875-.125.109375-.09375.21875-.234375.21875-.453125 0-.328125-.296875-.375-.40625-.375-.25 0-.609375.171875-.609375.703125 0 .546875.484375.953125 1.15625.953125 1.125 0 2.25-.984375 2.546875-2.21875zm0 0"/></symbol><symbol id="f" overflow="visible"><path d="m8.328125-6.609375c.09375-.390625.109375-.5.90625-.5.28125 0 .375 0 .375-.21875 0-.125-.125-.125-.15625-.125-.296875 0-1.09375.03125-1.390625.03125-.3125 0-1.09375-.03125-1.40625-.03125-.09375 0-.203125 0-.203125.21875 0 .125.09375.125.296875.125.015625 0 .234375 0 .421875.015625.1875.03125.28125.03125.28125.171875 0 .046875 0 .078125-.03125.21875l-.65625 2.65625h-3.328125l.640625-2.5625c.09375-.390625.125-.5.921875-.5.28125 0 .359375 0 .359375-.21875 0-.125-.109375-.125-.140625-.125-.3125 0-1.09375.03125-1.40625.03125s-1.09375-.03125-1.40625-.03125c-.078125 0-.203125 0-.203125.21875 0 .125.09375.125.3125.125.015625 0 .21875 0 .40625.015625.203125.03125.296875.03125.296875.171875 0 .046875-.015625.078125-.046875.21875l-1.453125 5.859375c-.109375.421875-.140625.5-1 .5-.1875 0-.296875 0-.296875.21875 0 .125.140625.125.15625.125.3125 0 1.078125-.03125 1.390625-.03125.21875 0 .46875.015625.6875.015625.25 0 .484375.015625.71875.015625.078125 0 .21875 0 .21875-.21875 0-.125-.109375-.125-.3125-.125-.40625 0-.703125 0-.703125-.1875 0-.0625.015625-.125.03125-.1875l.734375-2.984375h3.328125c-.453125 1.8125-.703125 2.84375-.75 3-.109375.359375-.3125.359375-1 .359375-.15625 0-.25 0-.25.21875 0 .125.125.125.15625.125.296875 0 1.078125-.03125 1.375-.03125.234375 0 .46875.015625.703125.015625s.484375.015625.703125.015625c.09375 0 .21875 0 .21875-.21875 0-.125-.09375-.125-.296875-.125-.40625 0-.71875 0-.71875-.1875 0-.0625.03125-.125.03125-.1875zm0 0"/></symbol><symbol id="g" overflow="visible"><path d="m5.046875-3.703125c-.109375-.671875-.546875-1.28125-1.40625-1.28125-.65625 0-1.375.171875-2.21875 1.03125-.90625.90625-.984375 1.90625-.984375 2.25 0 .671875.484375 1.9375 2 1.9375 2.59375 0 3.734375-3.65625 3.734375-5.21875 0-1.734375-1.015625-2.828125-2.359375-2.828125-1.578125 0-2.078125 1.421875-2.078125 1.734375 0 .140625.09375.375.421875.375.359375 0 .578125-.328125.578125-.578125 0-.375-.328125-.375-.515625-.375.484375-.8125 1.265625-.875 1.578125-.875.796875 0 1.5625.5625 1.5625 1.96875 0 .421875-.0625.984375-.296875 1.859375zm-2.578125 3.640625c-1.1875 0-1.1875-1.125-1.1875-1.234375 0-.296875.265625-1.828125.71875-2.484375.4375-.609375.96875-.96875 1.640625-.96875 1.1875 0 1.21875 1.234375 1.21875 1.453125 0 .78125-.703125 3.234375-2.390625 3.234375zm0 0"/></symbol><symbol id="h" overflow="visible"><path d="m6.734375-7.546875c-.046875-.21875-.0625-.265625-.25-.265625-.109375 0-.1875 0-.34375.203125l-5.515625 7.390625c-.09375.109375-.09375.125-.09375.15625 0 .046875.015625.0625.25.0625h7.515625c.1875 0 .28125 0 .28125-.109375 0-.046875 0-.109375-.015625-.15625zm-.828125.765625 1.5 6h-5.984375zm0 0"/></symbol><symbol id="i" overflow="visible"><path d="m4.0625-4.125c-.1875-.40625-.5-.703125-1-.703125-1.28125 0-2.625 1.609375-2.625 3.203125 0 1.03125.59375 1.75 1.453125 1.75.21875 0 .765625-.046875 1.40625-.828125.09375.46875.484375.828125 1 .828125.375 0 .625-.25.8125-.609375.1875-.390625.328125-1.046875.328125-1.078125 0-.109375-.109375-.109375-.140625-.109375-.109375 0-.109375.046875-.15625.203125-.171875.703125-.375 1.34375-.828125 1.34375-.28125 0-.328125-.28125-.328125-.5 0-.234375.03125-.328125.15625-.796875.109375-.46875.140625-.578125.234375-.984375l.390625-1.53125c.078125-.3125.078125-.328125.078125-.375 0-.1875-.125-.296875-.3125-.296875-.265625 0-.4375.25-.46875.484375zm-.703125 2.828125c-.0625.203125-.0625.21875-.21875.40625-.484375.59375-.921875.765625-1.234375.765625-.546875 0-.703125-.59375-.703125-1.015625 0-.546875.359375-1.890625.609375-2.390625.34375-.640625.828125-1.046875 1.265625-1.046875.703125 0 .859375.890625.859375.953125s-.015625.140625-.03125.1875zm0 0"/></symbol><symbol id="j" overflow="visible"><path d="m4.78125-7.765625c.0625-.140625.0625-.1875.0625-.203125 0-.109375-.09375-.203125-.21875-.203125-.078125 0-.15625.03125-.1875.09375l-3.78125 10.390625c-.0625.140625-.0625.1875-.0625.203125 0 .109375.109375.203125.21875.203125.140625 0 .1875-.0625.25-.25zm0 0"/></symbol><symbol id="k" overflow="visible"><path d="m2.609375-7.453125s0-.109375-.140625-.109375c-.25 0-1.046875.078125-1.328125.109375-.09375 0-.21875.015625-.21875.21875 0 .125.109375.125.265625.125.53125 0 .546875.078125.546875.1875 0 .078125-.09375.4375-.15625.671875l-.890625 3.5625c-.125.53125-.171875.71875-.171875 1.09375 0 1.03125.578125 1.71875 1.375 1.71875 1.296875 0 2.640625-1.625 2.640625-3.203125 0-.984375-.578125-1.75-1.453125-1.75-.5 0-.953125.328125-1.28125.65625zm-1.03125 4.125c.0625-.234375.0625-.265625.171875-.375.53125-.71875 1.015625-.875 1.296875-.875.40625 0 .6875.328125.6875 1.015625 0 .65625-.359375 1.90625-.546875 2.3125-.359375.734375-.859375 1.125-1.296875 1.125-.359375 0-.71875-.296875-.71875-1.09375 0-.203125 0-.421875.171875-1.109375zm0 0"/></symbol><symbol id="l" overflow="visible"><path d="m2.09375-.578125c0-.3125-.265625-.578125-.578125-.578125s-.578125.265625-.578125.578125.265625.578125.578125.578125.578125-.265625.578125-.578125zm0 0"/></symbol><symbol id="m" overflow="visible"><path d="m3.609375 2.625c0-.046875 0-.0625-.1875-.25-1.359375-1.375-1.703125-3.4375-1.703125-5.09375 0-1.90625.40625-3.796875 1.75-5.171875.140625-.125.140625-.140625.140625-.1875 0-.0625-.046875-.09375-.109375-.09375-.109375 0-1.09375.734375-1.734375 2.125-.5625 1.1875-.6875 2.40625-.6875 3.328125 0 .84375.125 2.15625.71875 3.390625.65625 1.34375 1.59375 2.046875 1.703125 2.046875.0625 0 .109375-.03125.109375-.09375zm0 0"/></symbol><symbol id="n" overflow="visible"><path d="m3.15625-2.71875c0-.859375-.125-2.171875-.71875-3.40625-.65625-1.34375-1.59375-2.046875-1.703125-2.046875-.0625 0-.109375.03125-.109375.09375 0 .046875 0 .0625.203125.265625 1.0625 1.078125 1.6875 2.8125 1.6875 5.09375 0 1.859375-.40625 3.78125-1.75 5.15625-.140625.125-.140625.140625-.140625.1875 0 .0625.046875.09375.109375.09375.109375 0 1.09375-.734375 1.734375-2.125.546875-1.1875.6875-2.40625.6875-3.3125zm0 0"/></symbol><symbol id="o" overflow="visible"><path d="m7.5-3.5625c.15625 0 .359375 0 .359375-.21875s-.203125-.21875-.359375-.21875h-6.53125c-.15625 0-.359375 0-.359375.21875s.203125.21875.375.21875zm0 2.109375c.15625 0 .359375 0 .359375-.21875s-.203125-.21875-.359375-.21875h-6.515625c-.171875 0-.375 0-.375.21875s.203125.21875.359375.21875zm0 0"/></symbol><symbol id="p" overflow="visible"><path d="m4.453125-2.515625h3.046875c.15625 0 .359375 0 .359375-.203125 0-.21875-.203125-.21875-.359375-.21875h-3.046875v-3.0625c0-.15625 0-.359375-.203125-.359375-.21875 0-.21875.203125-.21875.359375v3.0625h-3.0625c-.15625 0-.359375 0-.359375.21875 0 .203125.203125.203125.359375.203125h3.0625v3.0625c0 .15625 0 .359375.21875.359375.203125 0 .203125-.203125.203125-.359375zm0 0"/></symbol><symbol id="q" overflow="visible"><path d="m3.203125-6.984375c0-.25 0-.28125-.25-.28125-.671875.703125-1.640625.703125-1.984375.703125v.328125c.21875 0 .859375 0 1.4375-.28125v5.65625c0 .390625-.046875.515625-1.015625.515625h-.359375v.34375c.390625-.03125 1.328125-.03125 1.765625-.03125s1.390625 0 1.765625.03125v-.34375h-.34375c-.984375 0-1.015625-.109375-1.015625-.515625zm0 0"/></symbol><symbol id="r" overflow="visible"><path d="m1.390625-.84375 1.15625-1.125c1.703125-1.5 2.34375-2.09375 2.34375-3.171875 0-1.25-.96875-2.125-2.3125-2.125-1.21875 0-2.03125 1-2.03125 1.96875 0 .625.546875.625.578125.625.1875 0 .5625-.140625.5625-.578125 0-.296875-.1875-.578125-.578125-.578125-.078125 0-.109375 0-.140625.015625.25-.703125.84375-1.109375 1.46875-1.109375 1 0 1.46875.875 1.46875 1.78125 0 .859375-.546875 1.734375-1.140625 2.40625l-2.09375 2.328125c-.125.125-.125.140625-.125.40625h4.046875l.296875-1.890625h-.265625c-.0625.3125-.125.796875-.234375.96875-.078125.078125-.796875.078125-1.046875.078125zm0 0"/></symbol><symbol id="s" overflow="visible"><path d="m1.4375-3.578125v-.265625c0-2.75 1.359375-3.140625 1.90625-3.140625.265625 0 .71875.0625.96875.4375-.171875 0-.609375 0-.609375.484375 0 .34375.265625.5.5.5.1875 0 .515625-.09375.515625-.515625 0-.65625-.484375-1.1875-1.390625-1.1875-1.390625 0-2.875 1.40625-2.875 3.8125 0 2.921875 1.265625 3.6875 2.28125 3.6875 1.21875 0 2.25-1.015625 2.25-2.453125 0-1.390625-.96875-2.4375-2.1875-2.4375-.734375 0-1.140625.5625-1.359375 1.078125zm1.296875 3.515625c-.6875 0-1.015625-.65625-1.078125-.828125-.1875-.5-.1875-1.375-.1875-1.578125 0-.84375.34375-1.9375 1.328125-1.9375.171875 0 .671875 0 1.015625.671875.1875.40625.1875.96875.1875 1.5 0 .515625 0 1.0625-.1875 1.453125-.328125.65625-.828125.71875-1.078125.71875zm0 0"/></symbol><symbol id="t" overflow="visible"><path d="m6.75-3.671875c.203125-.53125.53125-.6875.921875-.6875v-.34375c-.25.03125-.5625.03125-.796875.03125-.328125 0-.8125-.015625-1.015625-.03125v.34375c.390625 0 .625.203125.625.515625 0 .0625 0 .09375-.046875.234375l-1 2.796875-1.078125-3.046875c-.046875-.125-.046875-.15625-.046875-.203125 0-.296875.421875-.296875.640625-.296875v-.34375c-.3125.015625-.875.03125-1.140625.03125-.328125 0-.640625 0-.96875-.03125v.34375c.40625 0 .578125.015625.6875.15625.0625.0625.171875.390625.25.609375l-.9375 2.640625-1.03125-2.921875c-.0625-.125-.0625-.15625-.0625-.1875 0-.296875.4375-.296875.65625-.296875v-.34375c-.328125.015625-.9375.03125-1.203125.03125-.03125 0-.609375 0-1-.03125v.34375c.53125 0 .671875.03125.796875.375l1.375 3.859375c.0625.15625.09375.25.234375.25s.15625-.078125.21875-.21875l1.09375-3.09375 1.109375 3.09375c.046875.125.078125.21875.21875.21875.15625 0 .1875-.109375.21875-.21875zm0 0"/></symbol><symbol id="u" overflow="visible"><path d="m1.203125-.828125c0 .484375-.125.484375-.859375.484375v.34375c.390625-.015625.9375-.03125 1.234375-.03125.28125 0 .859375.015625 1.21875.03125v-.34375c-.71875 0-.84375 0-.84375-.484375v-2c0-1.140625.765625-1.75 1.46875-1.75.6875 0 .8125.59375.8125 1.203125v2.546875c0 .484375-.125.484375-.859375.484375v.34375c.390625-.015625.9375-.03125 1.234375-.03125.28125 0 .859375.015625 1.21875.03125v-.34375c-.5625 0-.828125 0-.84375-.328125v-2.078125c0-.9375 0-1.28125-.34375-1.671875-.140625-.1875-.5-.40625-1.140625-.40625-.921875 0-1.390625.65625-1.578125 1.078125v-3.8125l-1.578125.109375v.34375c.765625 0 .859375.078125.859375.609375zm0 0"/></symbol><symbol id="v" overflow="visible"><path d="m1.21875-2.75c.0625-1.625.984375-1.890625 1.359375-1.890625 1.125 0 1.234375 1.46875 1.234375 1.890625zm-.015625.234375h3.046875c.25 0 .28125 0 .28125-.234375 0-1.078125-.59375-2.140625-1.953125-2.140625-1.265625 0-2.265625 1.125-2.265625 2.484375 0 1.46875 1.140625 2.53125 2.390625 2.53125 1.328125 0 1.828125-1.21875 1.828125-1.421875 0-.109375-.09375-.125-.140625-.125-.109375 0-.125.0625-.140625.140625-.390625 1.125-1.375 1.125-1.484375 1.125-.546875 0-.984375-.328125-1.234375-.734375-.328125-.515625-.328125-1.234375-.328125-1.625zm0 0"/></symbol><symbol id="w" overflow="visible"><path d="m1.828125-3.625v-1.203125l-1.515625.125v.34375c.75 0 .84375.078125.84375.609375v2.921875c0 .484375-.125.484375-.84375.484375v.34375c.421875-.015625.9375-.03125 1.234375-.03125.4375 0 .953125 0 1.390625.03125v-.34375h-.234375c-.8125 0-.828125-.109375-.828125-.5v-1.6875c0-1.078125.453125-2.046875 1.28125-2.046875.078125 0 .109375 0 .125.015625-.03125 0-.25.140625-.25.421875 0 .296875.234375.46875.46875.46875.203125 0 .46875-.140625.46875-.484375s-.34375-.671875-.8125-.671875c-.796875 0-1.1875.734375-1.328125 1.203125zm0 0"/></symbol><symbol id="x" overflow="visible"><path d="m3.15625-3.84375c.90625-.296875 1.53125-1.046875 1.53125-1.921875 0-.890625-.953125-1.5-2-1.5-1.109375 0-1.9375.65625-1.9375 1.484375 0 .359375.25.5625.5625.5625.328125 0 .546875-.234375.546875-.546875 0-.546875-.5-.546875-.671875-.546875.34375-.53125 1.0625-.671875 1.453125-.671875.453125 0 1.046875.234375 1.046875 1.21875 0 .125-.015625.765625-.3125 1.234375-.328125.53125-.6875.5625-.96875.578125-.078125 0-.34375.03125-.421875.03125-.09375 0-.15625.015625-.15625.125 0 .125.0625.125.25.125h.484375c.890625 0 1.296875.734375 1.296875 1.8125 0 1.484375-.75 1.796875-1.234375 1.796875-.46875 0-1.28125-.1875-1.671875-.828125.390625.046875.71875-.1875.71875-.609375 0-.390625-.28125-.609375-.609375-.609375-.25 0-.609375.15625-.609375.640625 0 .984375 1.015625 1.703125 2.203125 1.703125 1.328125 0 2.328125-.984375 2.328125-2.09375 0-.90625-.6875-1.75-1.828125-1.984375zm0 0"/></symbol><symbol id="y" overflow="visible"><path d="m3.203125-1.796875v.953125c0 .390625-.015625.5-.828125.5h-.21875v.34375c.4375-.03125 1-.03125 1.46875-.03125.453125 0 1.03125 0 1.484375.03125v-.34375h-.234375c-.8125 0-.828125-.109375-.828125-.5v-.953125h1.09375v-.34375h-1.09375v-4.953125c0-.21875 0-.296875-.171875-.296875-.09375 0-.140625 0-.21875.140625l-3.34375 5.109375v.34375zm.0625-.34375h-2.65625l2.65625-4.0625zm0 0"/></symbol><symbol id="z" overflow="visible"><path d="m4.890625-2.1875c0-1.296875-.890625-2.390625-2.0625-2.390625-.53125 0-1 .171875-1.390625.546875v-2.125c.21875.078125.578125.140625.921875.140625 1.34375 0 2.109375-.984375 2.109375-1.125 0-.0625-.03125-.125-.109375-.125 0 0-.03125 0-.078125.03125-.21875.109375-.765625.3125-1.484375.3125-.4375 0-.9375-.0625-1.453125-.296875-.09375-.03125-.109375-.03125-.140625-.03125-.109375 0-.109375.078125-.109375.265625v3.21875c0 .203125 0 .28125.15625.28125.078125 0 .109375-.03125.140625-.09375.125-.171875.53125-.765625 1.40625-.765625.578125 0 .84375.5.9375.703125.171875.40625.1875.828125.1875 1.375 0 .375 0 1.03125-.25 1.484375-.265625.4375-.671875.71875-1.171875.71875-.796875 0-1.421875-.578125-1.609375-1.21875.03125 0 .0625.015625.1875.015625.359375 0 .546875-.265625.546875-.53125s-.1875-.53125-.546875-.53125c-.15625 0-.53125.078125-.53125.578125 0 .9375.75 1.984375 1.96875 1.984375 1.265625 0 2.375-1.046875 2.375-2.421875zm0 0"/></symbol><symbol id="A" overflow="visible"><path d="m5.1875-6.640625c.109375-.125.109375-.15625.109375-.390625h-2.65625c-1.328125 0-1.359375-.140625-1.390625-.34375h-.28125l-.359375 2.25h.28125c.03125-.171875.125-.859375.265625-1 .078125-.0625.921875-.0625 1.0625-.0625h2.265625c-.125.171875-.984375 1.359375-1.21875 1.734375-.984375 1.46875-1.34375 2.984375-1.34375 4.09375 0 .109375 0 .59375.5.59375s.5-.484375.5-.59375v-.5625c0-.59375.03125-1.1875.125-1.78125.046875-.25.1875-1.1875.671875-1.859375zm0 0"/></symbol><symbol id="B" overflow="visible"><path d="m2.5-5.078125c0-.21875-.015625-.21875-.234375-.21875-.328125.3125-.75.5-1.5.5v.265625c.21875 0 .640625 0 1.109375-.203125v4.078125c0 .296875-.03125.390625-.78125.390625h-.28125v.265625c.328125-.03125 1.015625-.03125 1.375-.03125s1.046875 0 1.375.03125v-.265625h-.28125c-.75 0-.78125-.09375-.78125-.390625zm0 0"/></symbol><symbol id="C" overflow="visible"><path d="m2.25-1.625c.125-.125.453125-.390625.59375-.5.484375-.453125.953125-.890625.953125-1.609375 0-.953125-.796875-1.5625-1.78125-1.5625-.96875 0-1.59375.71875-1.59375 1.4375 0 .390625.3125.4375.421875.4375.171875 0 .421875-.109375.421875-.421875 0-.40625-.40625-.40625-.5-.40625.234375-.59375.765625-.78125 1.15625-.78125.734375 0 1.125.625 1.125 1.296875 0 .828125-.578125 1.4375-1.53125 2.390625l-1 1.046875c-.09375.078125-.09375.09375-.09375.296875h3.140625l.234375-1.421875h-.25c-.015625.15625-.078125.546875-.171875.703125-.046875.0625-.65625.0625-.78125.0625h-1.421875zm0 0"/></symbol><symbol id="D" overflow="visible"><path d="m3.890625-2.546875c0-.84375-.078125-1.359375-.34375-1.875-.34375-.703125-1-.875-1.4375-.875-1 0-1.375.75-1.484375.96875-.28125.578125-.296875 1.375-.296875 1.78125 0 .53125.015625 1.328125.40625 1.96875.359375.59375.953125.75 1.375.75.390625 0 1.0625-.125 1.46875-.90625.296875-.578125.3125-1.296875.3125-1.8125zm-1.78125 2.484375c-.265625 0-.8125-.125-.984375-.953125-.09375-.453125-.09375-1.203125-.09375-1.625 0-.546875 0-1.109375.09375-1.546875.171875-.8125.78125-.890625.984375-.890625.265625 0 .828125.140625.984375.859375.09375.4375.09375 1.046875.09375 1.578125 0 .46875 0 1.1875-.09375 1.640625-.171875.828125-.71875.9375-.984375.9375zm0 0"/></symbol><symbol id="E" overflow="visible"><path d="m4-3.171875c-.359375.078125-.375.390625-.375.421875 0 .171875.140625.296875.3125.296875s.4375-.140625.4375-.484375c0-.453125-.5-.578125-.796875-.578125-.359375 0-.671875.265625-.859375.578125-.171875-.421875-.578125-.578125-.90625-.578125-.875 0-1.359375 1-1.359375 1.21875 0 .078125.0625.109375.125.109375.09375 0 .109375-.046875.125-.140625.1875-.578125.671875-.96875 1.078125-.96875.3125 0 .46875.234375.46875.515625 0 .15625-.09375.53125-.15625.78125-.0625.234375-.234375.9375-.28125 1.09375-.109375.421875-.390625.765625-.75.765625-.03125 0-.234375 0-.40625-.109375.359375-.09375.359375-.421875.359375-.4375 0-.1875-.140625-.296875-.3125-.296875-.21875 0-.453125.1875-.453125.484375 0 .375.390625.578125.796875.578125.421875 0 .71875-.3125.859375-.578125.1875.390625.546875.578125.9375.578125.859375 0 1.34375-1 1.34375-1.21875 0-.078125-.0625-.109375-.125-.109375-.09375 0-.109375.0625-.140625.140625-.15625.53125-.609375.96875-1.0625.96875-.265625 0-.453125-.171875-.453125-.515625 0-.15625.046875-.34375.15625-.78125.046875-.25.21875-.9375.265625-1.09375.109375-.421875.390625-.765625.75-.765625.046875 0 .25 0 .421875.125zm0 0"/></symbol><symbol id="F" overflow="visible"><path d="m4.125-3c.03125-.109375.03125-.125.03125-.1875 0-.203125-.15625-.25-.25-.25-.046875 0-.21875.015625-.328125.21875-.015625.046875-.09375.328125-.125.5l-.484375 1.90625c0 .03125-.34375.671875-.921875.671875-.390625 0-.53125-.296875-.53125-.640625 0-.46875.265625-1.171875.453125-1.640625.078125-.203125.109375-.265625.109375-.421875 0-.4375-.359375-.671875-.71875-.671875-.796875 0-1.125 1.125-1.125 1.21875 0 .078125.0625.109375.125.109375.109375 0 .109375-.046875.140625-.125.203125-.703125.546875-.984375.828125-.984375.125 0 .1875.078125.1875.265625 0 .171875-.0625.359375-.109375.5-.328125.84375-.46875 1.25-.46875 1.625 0 .78125.59375.984375 1.0625.984375.375 0 .640625-.171875.84375-.34375-.125.4375-.203125.75-.5 1.140625-.265625.3125-.578125.53125-.9375.53125-.140625 0-.4375-.03125-.59375-.265625.421875-.03125.453125-.390625.453125-.4375 0-.1875-.15625-.296875-.3125-.296875-.1875 0-.453125.140625-.453125.53125 0 .375.34375.6875.90625.6875.8125 0 1.71875-.65625 1.96875-1.609375zm0 0"/></symbol><symbol id="G" overflow="visible"><path d="m7.640625 25.625c0-.046875-.03125-.078125-.046875-.109375-.40625-.40625-1.140625-1.125-1.875-2.3125-1.75-2.8125-2.546875-6.359375-2.546875-10.546875 0-2.9375.390625-6.71875 2.1875-9.96875.875-1.546875 1.765625-2.453125 2.25-2.921875.03125-.03125.03125-.0625.03125-.09375 0-.109375-.078125-.109375-.234375-.109375s-.171875 0-.34375.171875c-3.65625 3.3125-4.796875 8.3125-4.796875 12.90625 0 4.28125.984375 8.609375 3.75 11.859375.21875.25.640625.703125 1.078125 1.09375.140625.140625.15625.140625.3125.140625s.234375 0 .234375-.109375zm0 0"/></symbol><symbol id="H" overflow="visible"><path d="m5.75 12.65625c0-4.296875-.984375-8.609375-3.75-11.875-.21875-.25-.640625-.6875-1.078125-1.09375-.140625-.125-.15625-.125-.3125-.125-.125 0-.234375 0-.234375.109375 0 .046875.046875.09375.078125.109375.375.390625 1.109375 1.125 1.84375 2.296875 1.75 2.8125 2.546875 6.359375 2.546875 10.5625 0 2.9375-.390625 6.71875-2.1875 9.96875-.875 1.546875-1.765625 2.453125-2.234375 2.90625-.015625.03125-.046875.078125-.046875.109375 0 .109375.109375.109375.234375.109375.15625 0 .171875 0 .34375-.171875 3.65625-3.328125 4.796875-8.3125 4.796875-12.90625zm0 0"/></symbol><symbol id="I" overflow="visible"><path d="m7.1875-2.515625c.1875 0 .375 0 .375-.203125 0-.21875-.1875-.21875-.375-.21875h-5.90625c-.1875 0-.375 0-.375.21875 0 .203125.1875.203125.375.203125zm0 0"/></symbol><symbol id="J" overflow="visible"><path d="m3.015625-3.90625 1.65625-2.09375c.390625 0 .625 0 .625-.34375 0-.3125-.296875-.3125-.453125-.3125h-.96875c-.15625 0-.4375 0-.4375.328125s.296875.328125.4375.328125l-2.296875 2.90625v-2.90625h.25c.15625 0 .4375 0 .4375-.328125s-.265625-.328125-.4375-.328125h-1.09375c-.171875 0-.453125 0-.453125.3125 0 .34375.28125.34375.453125.34375h.234375v5.328125h-.234375c-.171875 0-.453125 0-.453125.328125 0 .34375.28125.34375.453125.34375h1.09375c.15625 0 .4375 0 .4375-.328125 0-.34375-.265625-.34375-.4375-.34375h-.25v-1.4375l1.015625-1.28125 1.53125 2.71875c-.15625 0-.4375 0-.4375.328125 0 .34375.265625.34375.453125.34375h.8125c.15625 0 .453125 0 .453125-.328125 0-.34375-.265625-.34375-.578125-.34375-.015625-.03125-.0625-.109375-.078125-.125zm0 0"/></symbol><symbol id="K" overflow="visible"><path d="m3.390625-6.34375c0-.171875 0-.4375-.328125-.4375-.203125 0-.265625.125-.328125.265625-.40625.921875-.984375 1.046875-1.1875 1.0625-.171875.015625-.40625.03125-.40625.34375 0 .265625.203125.328125.359375.328125.21875 0 .65625-.078125 1.140625-.484375v4.59375h-1c-.171875 0-.4375 0-.4375.34375 0 .328125.28125.328125.4375.328125h2.75c.15625 0 .4375 0 .4375-.328125 0-.34375-.265625-.34375-.4375-.34375h-1zm0 0"/></symbol><use x="76.486" xlink:href="#a" y="18.925"/><use x="85.063" xlink:href="#m" y="18.925"/><use x="89.305" xlink:href="#b" y="18.925"/><use x="95.54" xlink:href="#B" y="20.561"/><use x="100.272" xlink:href="#c" y="18.925"/><use x="105.124368" xlink:href="#d" y="18.925"/><use x="110.61" xlink:href="#E" y="20.561"/><use x="115.376" xlink:href="#C" y="20.561"/><use x="120.109" xlink:href="#c" y="18.925"/><use x="124.961368" xlink:href="#e" y="18.925"/><use x="130.306" xlink:href="#B" y="20.561"/><use x="135.038" xlink:href="#c" y="18.925"/><use x="139.890368" xlink:href="#d" y="18.925"/><use x="145.375" xlink:href="#F" y="20.561"/><use x="149.847" xlink:href="#C" y="20.561"/><use x="154.579" xlink:href="#c" y="18.925"/><use x="159.431368" xlink:href="#d" y="18.925"/><use x="164.916" xlink:href="#B" y="20.561"/><use x="169.649" xlink:href="#n" y="18.925"/><use x="176.924279" xlink:href="#o" y="18.925"/><use x="185.406" xlink:href="#f" y="18.925"/><use x="194.474" xlink:href="#D" y="20.561"/><use x="199.207" xlink:href="#m" y="18.925"/><use x="203.449" xlink:href="#b" y="18.925"/><use x="209.684" xlink:href="#B" y="20.561"/><use x="214.416" xlink:href="#c" y="18.925"/><use x="219.268368" xlink:href="#d" y="18.925"/><use x="224.753" xlink:href="#E" y="20.561"/><use x="229.52" xlink:href="#C" y="20.561"/><use x="234.252" xlink:href="#c" y="18.925"/><use x="239.104368" xlink:href="#e" y="18.925"/><use x="244.449" xlink:href="#B" y="20.561"/><use x="249.182" xlink:href="#c" y="18.925"/><use x="254.034368" xlink:href="#d" y="18.925"/><use x="259.519" xlink:href="#F" y="20.561"/><use x="263.991" xlink:href="#C" y="20.561"/><use x="268.723" xlink:href="#c" y="18.925"/><use x="273.575368" xlink:href="#d" y="18.925"/><use x="279.06" xlink:href="#B" y="20.561"/><use x="283.792" xlink:href="#n" y="18.925"/><use x="290.456369" xlink:href="#p" y="18.925"/><use x="302.563" xlink:href="#q" y="11.545"/><path d="m-.0015-.00121875h5.457031" fill="none" stroke="#000" stroke-miterlimit="10" stroke-width=".436" transform="matrix(1 0 0 -1 302.564 16.198)"/><use x="302.564" xlink:href="#r" y="26.408"/><use x="311.032" xlink:href="#G" y="3.543"/><use x="320.258" xlink:href="#g" y="11.545"/><use x="326.660551" xlink:href="#f" y="11.545"/><use x="335.724" xlink:href="#D" y="13.181"/><path d="m-.0001875-.00121875h20.1992185" fill="none" stroke="#000" stroke-miterlimit="10" stroke-width=".436" transform="matrix(1 0 0 -1 320.258 16.198)"/><use x="321.674" xlink:href="#g" y="26.408"/><use x="328.076551" xlink:href="#b" y="26.408"/><use x="334.307" xlink:href="#B" y="28.045"/><use x="343.441" xlink:href="#g" y="11.545"/><use x="349.843551" xlink:href="#f" y="11.545"/><use x="358.907" xlink:href="#D" y="13.181"/><path d="m.00065625-.00121875h21.38671875" fill="none" stroke="#000" stroke-miterlimit="10" stroke-width=".436" transform="matrix(1 0 0 -1 342.847 16.198)"/><use x="342.847" xlink:href="#g" y="26.408"/><use x="349.249551" xlink:href="#d" y="26.408"/><use x="354.733" xlink:href="#E" y="28.045"/><use x="359.5" xlink:href="#C" y="28.045"/><use x="367.852" xlink:href="#p" y="18.925"/><use x="379.957" xlink:href="#g" y="11.545"/><use x="386.359551" xlink:href="#f" y="11.545"/><use x="395.423" xlink:href="#D" y="13.181"/><path d="m.00003125-.00121875h20.19921875" fill="none" stroke="#000" stroke-miterlimit="10" stroke-width=".436" transform="matrix(1 0 0 -1 379.957 16.198)"/><use x="381.817" xlink:href="#g" y="26.408"/><use x="388.219551" xlink:href="#e" y="26.408"/><use x="393.563" xlink:href="#B" y="28.045"/><use x="402.992" xlink:href="#g" y="11.545"/><use x="409.394551" xlink:href="#f" y="11.545"/><use x="418.458" xlink:href="#D" y="13.181"/><path d="m.000875-.00121875h21.089844" fill="none" stroke="#000" stroke-miterlimit="10" stroke-width=".436" transform="matrix(1 0 0 -1 402.546 16.198)"/><use x="402.546" xlink:href="#g" y="26.408"/><use x="408.948551" xlink:href="#d" y="26.408"/><use x="414.432" xlink:href="#F" y="28.045"/><use x="418.904" xlink:href="#C" y="28.045"/><use x="424.832" xlink:href="#H" y="3.543"/><use x="438.317" xlink:href="#c" y="18.925"/><g><use x="489.186" xlink:href="#m" y="18.925"/><use x="493.428549" xlink:href="#q" y="18.925"/><use x="498.883099" xlink:href="#s" y="18.925"/><use x="504.337649" xlink:href="#r" y="18.925"/><use x="509.792199" xlink:href="#n" y="18.925"/></g><g><use x="3.798" xlink:href="#t" y="49.125"/><use x="11.676552" xlink:href="#u" y="49.125"/><use x="17.737648" xlink:href="#v" y="49.125"/><use x="22.585652" xlink:href="#w" y="49.125"/><use x="26.858746" xlink:href="#v" y="49.125"/></g><use x="203.417" xlink:href="#f" y="73.633"/><use x="212.485" xlink:href="#D" y="75.27"/><use x="220.248" xlink:href="#o" y="73.633"/><use x="231.763" xlink:href="#d" y="73.633"/><use x="237.252" xlink:href="#E" y="75.27"/><use x="242.018" xlink:href="#C" y="75.27"/><g><use x="246.751" xlink:href="#h" y="73.633"/><use x="255.841553" xlink:href="#b" y="73.633"/></g><use x="262.077" xlink:href="#B" y="75.27"/><use x="269.233" xlink:href="#p" y="73.633"/><use x="280.142" xlink:href="#d" y="73.633"/><use x="285.631" xlink:href="#F" y="75.27"/><use x="290.102" xlink:href="#C" y="75.27"/><g><use x="294.835" xlink:href="#h" y="73.633"/><use x="303.925553" xlink:href="#e" y="73.633"/></g><use x="309.274" xlink:href="#B" y="75.27"/><use x="317.643" xlink:href="#c" y="73.633"/><g><use x="489.186" xlink:href="#m" y="73.633"/><use x="493.428549" xlink:href="#q" y="73.633"/><use x="498.883099" xlink:href="#s" y="73.633"/><use x="504.337649" xlink:href="#x" y="73.633"/><use x="509.792199" xlink:href="#n" y="73.633"/></g><g><use x="197.159" xlink:href="#h" y="90.171"/><use x="206.249553" xlink:href="#b" y="90.171"/></g><use x="212.485" xlink:href="#B" y="91.808"/><use x="220.248" xlink:href="#o" y="90.171"/><use x="231.763" xlink:href="#b" y="90.171"/><use x="237.998" xlink:href="#B" y="91.808"/><use x="242.73" xlink:href="#m" y="90.171"/><g><use x="246.972" xlink:href="#i" y="90.171"/><use x="252.73855" xlink:href="#j" y="90.171"/></g><use x="258.193" xlink:href="#x" y="90.171"/><use x="266.06937" xlink:href="#p" y="90.171"/><use x="276.981" xlink:href="#k" y="90.171"/><use x="281.663" xlink:href="#n" y="90.171"/><g><use x="489.185718" xlink:href="#m" y="90.171"/><use x="493.428267" xlink:href="#q" y="90.171"/><use x="498.882817" xlink:href="#s" y="90.171"/><use x="504.337367" xlink:href="#y" y="90.171"/><use x="509.791917" xlink:href="#n" y="90.171"/></g><g><use x="198.046" xlink:href="#h" y="106.709"/><use x="207.136553" xlink:href="#e" y="106.709"/></g><use x="212.485" xlink:href="#B" y="108.346"/><use x="220.248" xlink:href="#o" y="106.709"/><use x="231.763" xlink:href="#I" y="106.709"/><use x="240.248" xlink:href="#e" y="106.709"/><use x="245.596" xlink:href="#B" y="108.346"/><use x="250.329" xlink:href="#m" y="106.709"/><use x="254.571" xlink:href="#i" y="106.709"/><use x="262.762" xlink:href="#p" y="106.709"/><g><use x="273.671" xlink:href="#k" y="106.709"/><use x="278.353186" xlink:href="#j" y="106.709"/></g><g><use x="283.807" xlink:href="#x" y="106.709"/><use x="289.26155" xlink:href="#n" y="106.709"/></g><use x="489.191535" xlink:href="#m" y="106.709"/><g><use x="493.423175" xlink:href="#q" y="106.709"/><use x="498.877725" xlink:href="#s" y="106.709"/><use x="504.332275" xlink:href="#z" y="106.709"/><use x="509.786825" xlink:href="#n" y="106.709"/></g><use x="211.451" xlink:href="#i" y="131.234"/><use x="220.248" xlink:href="#o" y="131.234"/><g><use x="231.763" xlink:href="#J" y="131.234"/><use x="237.490278" xlink:href="#K" y="131.234"/></g><use x="246.767" xlink:href="#b" y="123.854"/><use x="253.002" xlink:href="#C" y="119.895"/><use x="253.002" xlink:href="#B" y="126.777"/><path d="m.0010625-.0008125h15.6757815" fill="none" stroke="#000" stroke-miterlimit="10" stroke-width=".436" transform="matrix(1 0 0 -1 244.413 128.507)"/><use x="244.413" xlink:href="#y" y="138.717"/><use x="249.867" xlink:href="#d" y="138.717"/><use x="255.356" xlink:href="#B" y="140.354"/><g><use x="489.186" xlink:href="#m" y="131.234"/><use x="493.428549" xlink:href="#q" y="131.234"/><use x="498.883099" xlink:href="#s" y="131.234"/><use x="504.337649" xlink:href="#s" y="131.234"/><use x="509.792199" xlink:href="#n" y="131.234"/></g><use x="212.536" xlink:href="#k" y="161.299"/><use x="220.248" xlink:href="#o" y="161.299"/><g><use x="231.763" xlink:href="#J" y="161.299"/><use x="237.490277" xlink:href="#K" y="161.299"/></g><use x="247.376" xlink:href="#e" y="153.919"/><use x="253.116" xlink:href="#C" y="149.96"/><use x="252.724" xlink:href="#B" y="156.842"/><path d="m.0010625.0016875h16.3984375" fill="none" stroke="#000" stroke-miterlimit="10" stroke-width=".436" transform="matrix(1 0 0 -1 244.413 158.572)"/><use x="244.413" xlink:href="#y" y="168.782"/><use x="249.867" xlink:href="#d" y="168.782"/><use x="255.356" xlink:href="#q" y="168.782"/><use x="265.642" xlink:href="#l" y="161.299"/><g><use x="489.186" xlink:href="#m" y="161.299"/><use x="493.428549" xlink:href="#q" y="161.299"/><use x="498.883099" xlink:href="#s" y="161.299"/><use x="504.337649" xlink:href="#A" y="161.299"/><use x="509.792199" xlink:href="#n" y="161.299"/></g></svg>