<svg height="255pt" viewBox="0 0 517 255" width="517pt" xmlns="http://www.w3.org/2000/svg" xmlns:xlink="http://www.w3.org/1999/xlink"><symbol id="a" overflow="visible"><path d="m7.265625-7.390625h-6.671875l-.203125 2.46875h.28125c.140625-1.765625.3125-2.125 1.953125-2.125.203125 0 .484375 0 .59375.015625.234375.046875.234375.171875.234375.421875v5.75c0 .375 0 .515625-1.15625.515625h-.4375v.34375c.453125-.03125 1.5625-.03125 2.0625-.03125s1.625 0 2.078125.03125v-.34375h-.4375c-1.140625 0-1.140625-.140625-1.140625-.515625v-5.75c0-.21875 0-.375.1875-.421875.125-.015625.421875-.015625.625-.015625 1.640625 0 1.8125.359375 1.96875 2.125h.265625zm0 0"/></symbol><symbol id="b" overflow="visible"><path d="m1.203125-.828125c0 .484375-.125.484375-.859375.484375v.34375c.390625-.015625.9375-.03125 1.234375-.03125.28125 0 .859375.015625 1.21875.03125v-.34375c-.71875 0-.84375 0-.84375-.484375v-2c0-1.140625.765625-1.75 1.46875-1.75.6875 0 .8125.59375.8125 1.203125v2.546875c0 .484375-.125.484375-.859375.484375v.34375c.390625-.015625.9375-.03125 1.234375-.03125.28125 0 .859375.015625 1.21875.03125v-.34375c-.5625 0-.828125 0-.84375-.328125v-2.078125c0-.9375 0-1.28125-.34375-1.671875-.140625-.1875-.5-.40625-1.140625-.40625-.921875 0-1.390625.65625-1.578125 1.078125v-3.8125l-1.578125.109375v.34375c.765625 0 .859375.078125.859375.609375zm0 0"/></symbol><symbol id="c" overflow="visible"><path d="m1.21875-2.75c.0625-1.625.984375-1.890625 1.359375-1.890625 1.125 0 1.234375 1.46875 1.234375 1.890625zm-.015625.234375h3.046875c.25 0 .28125 0 .28125-.234375 0-1.078125-.59375-2.140625-1.953125-2.140625-1.265625 0-2.265625 1.125-2.265625 2.484375 0 1.46875 1.140625 2.53125 2.390625 2.53125 1.328125 0 1.828125-1.21875 1.828125-1.421875 0-.109375-.09375-.125-.140625-.125-.109375 0-.125.0625-.140625.140625-.390625 1.125-1.375 1.125-1.484375 1.125-.546875 0-.984375-.328125-1.234375-.734375-.328125-.515625-.328125-1.234375-.328125-1.625zm0 0"/></symbol><symbol id="d" overflow="visible"><path d="m1.890625-4.359375h1.5625v-.34375h-1.5625v-2h-.28125c0 .890625-.328125 2.0625-1.40625 2.09375v.25h.9375v3c0 1.34375 1.015625 1.484375 1.40625 1.484375.765625 0 1.078125-.78125 1.078125-1.484375v-.609375h-.28125v.59375c0 .8125-.328125 1.21875-.71875 1.21875-.734375 0-.734375-.984375-.734375-1.171875zm0 0"/></symbol><symbol id="e" overflow="visible"><path d="m1.828125-3.625v-1.203125l-1.515625.125v.34375c.75 0 .84375.078125.84375.609375v2.921875c0 .484375-.125.484375-.84375.484375v.34375c.421875-.015625.9375-.03125 1.234375-.03125.4375 0 .953125 0 1.390625.03125v-.34375h-.234375c-.8125 0-.828125-.109375-.828125-.5v-1.6875c0-1.078125.453125-2.046875 1.28125-2.046875.078125 0 .109375 0 .125.015625-.03125 0-.25.140625-.25.421875 0 .296875.234375.46875.46875.46875.203125 0 .46875-.140625.46875-.484375s-.34375-.671875-.8125-.671875c-.796875 0-1.1875.734375-1.328125 1.203125zm0 0"/></symbol><symbol id="f" overflow="visible"><path d="m3.625-.828125c.046875.4375.34375.890625.859375.890625.234375 0 .890625-.15625.890625-1.03125v-.609375h-.265625v.609375c0 .625-.28125.703125-.390625.703125-.359375 0-.40625-.5-.40625-.546875v-2.1875c0-.453125 0-.875-.390625-1.28125-.4375-.4375-.984375-.609375-1.5-.609375-.890625 0-1.640625.515625-1.640625 1.234375 0 .328125.21875.515625.5.515625.296875 0 .5-.21875.5-.5 0-.140625-.0625-.5-.5625-.5.296875-.390625.828125-.5 1.1875-.5.53125 0 1.15625.421875 1.15625 1.390625v.40625c-.5625.03125-1.328125.0625-2.015625.390625-.8125.375-1.09375.9375-1.09375 1.421875 0 .875 1.0625 1.15625 1.75 1.15625.71875 0 1.21875-.4375 1.421875-.953125zm-.0625-1.796875v1.09375c0 1.046875-.796875 1.40625-1.28125 1.40625-.53125 0-.984375-.375-.984375-.921875 0-.59375.453125-1.5 2.265625-1.578125zm0 0"/></symbol><symbol id="g" overflow="visible"><path d="m1.203125-3.75v2.921875c0 .484375-.125.484375-.859375.484375v.34375c.390625-.015625.9375-.03125 1.234375-.03125.28125 0 .859375.015625 1.21875.03125v-.34375c-.71875 0-.84375 0-.84375-.484375v-2c0-1.140625.765625-1.75 1.46875-1.75.6875 0 .8125.59375.8125 1.203125v2.546875c0 .484375-.125.484375-.859375.484375v.34375c.390625-.015625.9375-.03125 1.234375-.03125.28125 0 .859375.015625 1.21875.03125v-.34375c-.5625 0-.828125 0-.84375-.328125v-2.078125c0-.9375 0-1.28125-.34375-1.671875-.140625-.1875-.5-.40625-1.140625-.40625-.796875 0-1.3125.46875-1.609375 1.15625v-1.15625l-1.546875.125v.34375c.765625 0 .859375.078125.859375.609375zm0 0"/></symbol><symbol id="h" overflow="visible"><path d="m2.265625-2.109375c.25.03125 1.140625.21875 1.140625 1 0 .546875-.390625.984375-1.234375.984375-.921875 0-1.3125-.609375-1.515625-1.546875-.03125-.140625-.046875-.1875-.15625-.1875-.140625 0-.140625.078125-.140625.28125v1.4375c0 .1875 0 .265625.125.265625.046875 0 .0625-.015625.265625-.21875.03125-.03125.03125-.046875.21875-.25.484375.453125.96875.46875 1.203125.46875 1.25 0 1.75-.734375 1.75-1.515625 0-.578125-.328125-.90625-.453125-1.046875-.359375-.34375-.78125-.4375-1.25-.515625-.609375-.125-1.328125-.265625-1.328125-.890625 0-.390625.28125-.828125 1.21875-.828125 1.1875 0 1.25.96875 1.265625 1.3125.015625.09375.109375.09375.140625.09375.140625 0 .140625-.046875.140625-.25v-1.109375c0-.1875 0-.265625-.125-.265625-.046875 0-.078125 0-.21875.140625-.03125.03125-.140625.140625-.1875.171875-.40625-.3125-.859375-.3125-1.015625-.3125-1.328125 0-1.75.734375-1.75 1.34375 0 .390625.171875.6875.46875.921875.34375.296875.65625.359375 1.4375.515625zm0 0"/></symbol><symbol id="i" overflow="visible"><path d="m1.90625-4.703125v-1.265625c0-.953125.53125-1.484375 1-1.484375.03125 0 .203125 0 .359375.078125-.125.046875-.328125.1875-.328125.453125s.1875.46875.46875.46875c.328125 0 .484375-.203125.484375-.46875 0-.40625-.40625-.765625-.984375-.765625-.75 0-1.6875.578125-1.6875 1.734375v1.25h-.859375v.34375h.859375v3.53125c0 .484375-.125.484375-.84375.484375v.34375c.421875-.015625.9375-.03125 1.234375-.03125.4375 0 .953125 0 1.390625.03125v-.34375h-.234375c-.796875 0-.828125-.109375-.828125-.5v-3.515625h1.25v-.34375zm0 0"/></symbol><symbol id="j" overflow="visible"><path d="m5.140625-2.328125c0-1.40625-1.09375-2.5625-2.421875-2.5625-1.359375 0-2.40625 1.1875-2.40625 2.5625 0 1.40625 1.125 2.453125 2.40625 2.453125 1.3125 0 2.421875-1.078125 2.421875-2.453125zm-2.421875 2.171875c-.46875 0-.9375-.21875-1.234375-.734375-.28125-.46875-.28125-1.140625-.28125-1.53125 0-.421875 0-1.015625.265625-1.5.296875-.5.8125-.71875 1.25-.71875.484375 0 .953125.234375 1.234375.703125s.28125 1.109375.28125 1.515625c0 .390625 0 .984375-.25 1.46875-.234375.484375-.71875.796875-1.265625.796875zm0 0"/></symbol><symbol id="k" overflow="visible"><path d="m1.203125-3.75v2.921875c0 .484375-.125.484375-.859375.484375v.34375c.390625-.015625.9375-.03125 1.234375-.03125.28125 0 .859375.015625 1.21875.03125v-.34375c-.71875 0-.84375 0-.84375-.484375v-2c0-1.140625.765625-1.75 1.46875-1.75.6875 0 .8125.59375.8125 1.203125v2.546875c0 .484375-.125.484375-.859375.484375v.34375c.390625-.015625.9375-.03125 1.234375-.03125.28125 0 .859375.015625 1.21875.03125v-.34375c-.71875 0-.84375 0-.84375-.484375v-2c0-1.140625.78125-1.75 1.46875-1.75s.8125.59375.8125 1.203125v2.546875c0 .484375-.125.484375-.859375.484375v.34375c.390625-.015625.9375-.03125 1.234375-.03125.28125 0 .859375.015625 1.21875.03125v-.34375c-.5625 0-.828125 0-.84375-.328125v-2.078125c0-.9375 0-1.28125-.34375-1.671875-.140625-.1875-.5-.40625-1.140625-.40625-.921875 0-1.390625.65625-1.578125 1.078125-.15625-.953125-.96875-1.078125-1.453125-1.078125-.796875 0-1.3125.46875-1.609375 1.15625v-1.15625l-1.546875.125v.34375c.765625 0 .859375.078125.859375.609375zm0 0"/></symbol><symbol id="l" overflow="visible"><path d="m1.9375-4.828125-1.53125.125v.34375c.703125 0 .796875.0625.796875.59375v2.9375c0 .484375-.109375.484375-.84375.484375v.34375c.34375-.015625.9375-.03125 1.203125-.03125.375 0 .765625.015625 1.125.03125v-.34375c-.71875 0-.75-.046875-.75-.46875zm.03125-1.890625c0-.34375-.265625-.578125-.578125-.578125-.328125 0-.578125.296875-.578125.578125 0 .296875.25.578125.578125.578125.3125 0 .578125-.234375.578125-.578125zm0 0"/></symbol><symbol id="m" overflow="visible"><path d="m2.421875-1.875c-.953125 0-.953125-1.09375-.953125-1.34375 0-.296875.015625-.640625.171875-.921875.09375-.125.34375-.421875.78125-.421875.953125 0 .953125 1.078125.953125 1.328125 0 .296875-.015625.65625-.171875.921875-.09375.125-.34375.4375-.78125.4375zm-1.265625.421875c0-.046875 0-.296875.1875-.515625.421875.3125.875.34375 1.078125.34375 1.015625 0 1.765625-.75 1.765625-1.59375 0-.40625-.171875-.8125-.453125-1.0625.40625-.359375.796875-.421875.984375-.421875.03125 0 .078125 0 .109375.015625-.109375.046875-.171875.15625-.171875.296875 0 .1875.140625.3125.3125.3125.109375 0 .328125-.078125.328125-.328125 0-.1875-.140625-.53125-.5625-.53125-.21875 0-.703125.0625-1.15625.515625-.453125-.359375-.921875-.40625-1.15625-.40625-1.015625 0-1.765625.765625-1.765625 1.59375 0 .484375.234375.90625.515625 1.125-.140625.171875-.34375.53125-.34375.90625 0 .34375.140625.75.484375.96875-.65625.1875-1 .65625-1 1.09375 0 .78125 1.078125 1.390625 2.40625 1.390625 1.28125 0 2.421875-.5625 2.421875-1.40625 0-.390625-.15625-.9375-.71875-1.25-.578125-.296875-1.203125-.296875-1.875-.296875-.265625 0-.734375 0-.8125-.015625-.34375-.046875-.578125-.375-.578125-.734375zm1.5625 3.453125c-1.09375 0-1.84375-.5625-1.84375-1.140625 0-.5.40625-.90625.890625-.9375h.640625c.9375 0 2.15625 0 2.15625.9375 0 .59375-.765625 1.140625-1.84375 1.140625zm0 0"/></symbol><symbol id="n" overflow="visible"><path d="m4.53125-3.625c.109375-.25.296875-.734375 1.015625-.734375v-.34375c-.25.03125-.578125.03125-.828125.03125-.265625 0-.765625-.015625-.9375-.03125v.34375c.390625 0 .515625.265625.515625.46875 0 .09375-.015625.140625-.0625.265625l-1.109375 2.78125-1.234375-3.046875c-.0625-.140625-.0625-.171875-.0625-.1875 0-.28125.421875-.28125.625-.28125v-.34375c-.328125.015625-.9375.03125-1.1875.03125-.296875 0-.734375 0-1.0625-.03125v.34375c.6875 0 .734375.0625.875.40625l1.578125 3.859375c.0625.15625.078125.21875.21875.21875s.1875-.109375.234375-.21875zm0 0"/></symbol><symbol id="o" overflow="visible"><path d="m3.125-2.5625c.328125-.421875.75-.953125 1.015625-1.234375.328125-.390625.78125-.5625 1.296875-.5625v-.34375c-.296875.03125-.609375.03125-.90625.03125-.328125 0-.90625-.015625-1.046875-.03125v.34375c.234375.015625.328125.15625.328125.328125 0 .1875-.109375.328125-.171875.390625l-.671875.84375-.859375-1.09375c-.09375-.109375-.09375-.140625-.09375-.203125 0-.15625.171875-.265625.390625-.265625v-.34375c-.296875.015625-1.015625.03125-1.1875.03125-.21875 0-.734375 0-1.03125-.03125v.34375c.765625 0 .765625 0 1.28125.65625l1.078125 1.40625-1.015625 1.296875c-.53125.640625-1.171875.65625-1.40625.65625v.34375c.296875-.015625.625-.03125.90625-.03125.328125 0 .78125.015625 1.046875.03125v-.34375c-.25-.03125-.328125-.171875-.328125-.328125 0-.25.328125-.609375.984375-1.390625l.828125 1.09375c.09375.125.234375.296875.234375.359375 0 .09375-.09375.265625-.390625.265625v.34375c.328125-.015625.9375-.03125 1.171875-.03125.296875 0 .71875.015625 1.046875.03125v-.34375c-.59375 0-.78125-.015625-1.03125-.328125zm0 0"/></symbol><symbol id="p" overflow="visible"><path d="m1.875-4.09375v-.734375l-1.5625.125v.34375c.765625 0 .84375.0625.84375.546875v5.09375c0 .5-.125.5-.84375.5v.328125c.359375 0 .9375-.03125 1.21875-.03125.296875 0 .84375.03125 1.234375.03125v-.328125c-.734375 0-.859375 0-.859375-.5v-1.921875c.0625.171875.515625.765625 1.34375.765625 1.296875 0 2.4375-1.078125 2.4375-2.484375 0-1.375-1.0625-2.46875-2.28125-2.46875-.859375 0-1.3125.484375-1.53125.734375zm.03125 2.84375v-2.421875c.3125-.5625.859375-.875 1.40625-.875.796875 0 1.46875.953125 1.46875 2.1875 0 1.328125-.765625 2.234375-1.578125 2.234375-.4375 0-.84375-.21875-1.140625-.65625-.15625-.234375-.15625-.25-.15625-.46875zm0 0"/></symbol><symbol id="q" overflow="visible"><path d="m3.609375 2.625c0-.046875 0-.0625-.1875-.25-1.359375-1.375-1.703125-3.4375-1.703125-5.09375 0-1.90625.40625-3.796875 1.75-5.171875.140625-.125.140625-.140625.140625-.1875 0-.0625-.046875-.09375-.109375-.09375-.109375 0-1.09375.734375-1.734375 2.125-.5625 1.1875-.6875 2.40625-.6875 3.328125 0 .84375.125 2.15625.71875 3.390625.65625 1.34375 1.59375 2.046875 1.703125 2.046875.0625 0 .109375-.03125.109375-.09375zm0 0"/></symbol><symbol id="r" overflow="visible"><path d="m2.09375-4.125c0-.3125-.265625-.578125-.578125-.578125s-.578125.265625-.578125.578125.265625.578125.578125.578125.578125-.265625.578125-.578125zm0 3.546875c0-.3125-.265625-.578125-.578125-.578125s-.578125.265625-.578125.578125.265625.578125.578125.578125.578125-.265625.578125-.578125zm0 0"/></symbol><symbol id="s" overflow="visible"><path d="m3.15625-2.71875c0-.859375-.125-2.171875-.71875-3.40625-.65625-1.34375-1.59375-2.046875-1.703125-2.046875-.0625 0-.109375.03125-.109375.09375 0 .046875 0 .0625.203125.265625 1.0625 1.078125 1.6875 2.8125 1.6875 5.09375 0 1.859375-.40625 3.78125-1.75 5.15625-.140625.125-.140625.140625-.140625.1875 0 .0625.046875.09375.109375.09375.109375 0 1.09375-.734375 1.734375-2.125.546875-1.1875.6875-2.40625.6875-3.3125zm0 0"/></symbol><symbol id="t" overflow="visible"><path d="m1.390625-.84375 1.15625-1.125c1.703125-1.5 2.34375-2.09375 2.34375-3.171875 0-1.25-.96875-2.125-2.3125-2.125-1.21875 0-2.03125 1-2.03125 1.96875 0 .625.546875.625.578125.625.1875 0 .5625-.140625.5625-.578125 0-.296875-.1875-.578125-.578125-.578125-.078125 0-.109375 0-.140625.015625.25-.703125.84375-1.109375 1.46875-1.109375 1 0 1.46875.875 1.46875 1.78125 0 .859375-.546875 1.734375-1.140625 2.40625l-2.09375 2.328125c-.125.125-.125.140625-.125.40625h4.046875l.296875-1.890625h-.265625c-.0625.3125-.125.796875-.234375.96875-.078125.078125-.796875.078125-1.046875.078125zm0 0"/></symbol><symbol id="u" overflow="visible"><path d="m3.203125-6.984375c0-.25 0-.28125-.25-.28125-.671875.703125-1.640625.703125-1.984375.703125v.328125c.21875 0 .859375 0 1.4375-.28125v5.65625c0 .390625-.046875.515625-1.015625.515625h-.359375v.34375c.390625-.03125 1.328125-.03125 1.765625-.03125s1.390625 0 1.765625.03125v-.34375h-.34375c-.984375 0-1.015625-.109375-1.015625-.515625zm0 0"/></symbol><symbol id="v" overflow="visible"><path d="m5.1875-6.640625c.109375-.125.109375-.15625.109375-.390625h-2.65625c-1.328125 0-1.359375-.140625-1.390625-.34375h-.28125l-.359375 2.25h.28125c.03125-.171875.125-.859375.265625-1 .078125-.0625.921875-.0625 1.0625-.0625h2.265625c-.125.171875-.984375 1.359375-1.21875 1.734375-.984375 1.46875-1.34375 2.984375-1.34375 4.09375 0 .109375 0 .59375.5.59375s.5-.484375.5-.59375v-.5625c0-.59375.03125-1.1875.125-1.78125.046875-.25.1875-1.1875.671875-1.859375zm0 0"/></symbol><symbol id="w" overflow="visible"><path d="m3.203125-1.796875v.953125c0 .390625-.015625.5-.828125.5h-.21875v.34375c.4375-.03125 1-.03125 1.46875-.03125.453125 0 1.03125 0 1.484375.03125v-.34375h-.234375c-.8125 0-.828125-.109375-.828125-.5v-.953125h1.09375v-.34375h-1.09375v-4.953125c0-.21875 0-.296875-.171875-.296875-.09375 0-.140625 0-.21875.140625l-3.34375 5.109375v.34375zm.0625-.34375h-2.65625l2.65625-4.0625zm0 0"/></symbol><symbol id="x" overflow="visible"><path d="m6.75-3.671875c.203125-.53125.53125-.6875.921875-.6875v-.34375c-.25.03125-.5625.03125-.796875.03125-.328125 0-.8125-.015625-1.015625-.03125v.34375c.390625 0 .625.203125.625.515625 0 .0625 0 .09375-.046875.234375l-1 2.796875-1.078125-3.046875c-.046875-.125-.046875-.15625-.046875-.203125 0-.296875.421875-.296875.640625-.296875v-.34375c-.3125.015625-.875.03125-1.140625.03125-.328125 0-.640625 0-.96875-.03125v.34375c.40625 0 .578125.015625.6875.15625.0625.0625.171875.390625.25.609375l-.9375 2.640625-1.03125-2.921875c-.0625-.125-.0625-.15625-.0625-.1875 0-.296875.4375-.296875.65625-.296875v-.34375c-.328125.015625-.9375.03125-1.203125.03125-.03125 0-.609375 0-1-.03125v.34375c.53125 0 .671875.03125.796875.375l1.375 3.859375c.0625.15625.09375.25.234375.25s.15625-.078125.21875-.21875l1.09375-3.09375 1.109375 3.09375c.046875.125.078125.21875.21875.21875.15625 0 .1875-.109375.21875-.21875zm0 0"/></symbol><symbol id="y" overflow="visible"><path d="m4.140625-.59375v.71875l1.609375-.125v-.34375c-.765625 0-.859375-.078125-.859375-.609375v-6.609375l-1.5625.109375v.34375c.765625 0 .84375.078125.84375.609375v2.359375c-.3125-.390625-.78125-.6875-1.375-.6875-1.28125 0-2.421875 1.078125-2.421875 2.484375 0 1.390625 1.0625 2.46875 2.3125 2.46875.6875 0 1.1875-.375 1.453125-.71875zm0-2.921875v2.234375c0 .1875 0 .21875-.109375.390625-.328125.53125-.828125.765625-1.296875.765625-.484375 0-.875-.28125-1.140625-.6875-.28125-.453125-.3125-1.078125-.3125-1.515625 0-.40625.015625-1.0625.328125-1.546875.234375-.34375.640625-.703125 1.234375-.703125.390625 0 .84375.15625 1.1875.65625.109375.1875.109375.203125.109375.40625zm0 0"/></symbol><symbol id="z" overflow="visible"><path d="m6.6875-6.59375c0-.390625.015625-.515625.859375-.515625h.265625v-.34375c-.390625.03125-1.1875.03125-1.609375.03125-.40625 0-1.234375 0-1.609375-.03125v.34375h.265625c.828125 0 .859375.125.859375.515625v2.546875h-3.265625v-2.546875c0-.390625.015625-.515625.859375-.515625h.265625v-.34375c-.375.03125-1.1875.03125-1.609375.03125-.40625 0-1.234375 0-1.609375-.03125v.34375h.265625c.84375 0 .859375.125.859375.515625v5.75c0 .390625-.015625.5-.859375.5h-.265625v.34375c.375-.03125 1.1875-.03125 1.609375-.03125.40625 0 1.234375 0 1.609375.03125v-.34375h-.265625c-.84375 0-.859375-.109375-.859375-.5v-2.859375h3.265625v2.859375c0 .390625-.03125.5-.859375.5h-.265625v.34375c.375-.03125 1.1875-.03125 1.59375-.03125.421875 0 1.234375 0 1.625.03125v-.34375h-.265625c-.84375 0-.859375-.109375-.859375-.5zm0 0"/></symbol><symbol id="A" overflow="visible"><path d="m1.9375-7.5625-1.578125.109375v.34375c.765625 0 .84375.078125.84375.609375v5.671875c0 .484375-.109375.484375-.84375.484375v.34375c.359375-.015625.9375-.03125 1.21875-.03125.265625 0 .796875.015625 1.203125.03125v-.34375c-.734375 0-.84375 0-.84375-.484375zm0 0"/></symbol><symbol id="B" overflow="visible"><path d="m4.265625-.859375v.984375l1.5625-.125v-.34375c-.75 0-.84375-.078125-.84375-.609375v-3.875l-1.609375.125v.34375c.765625 0 .859375.078125.859375.609375v1.9375c0 .953125-.53125 1.6875-1.328125 1.6875-.90625 0-.953125-.5-.953125-1.078125v-3.625l-1.609375.125v.34375c.859375 0 .859375.03125.859375 1v1.640625c0 .84375 0 1.84375 1.65625 1.84375.609375 0 1.09375-.3125 1.40625-.984375zm0 0"/></symbol><symbol id="C" overflow="visible"><path d="m1.15625-.828125c0 .484375-.125.484375-.84375.484375v.34375c.359375-.015625.859375-.03125 1.1875-.03125s.75.015625 1.1875.03125v-.34375c-.71875 0-.84375 0-.84375-.484375v-1.125l.703125-.59375c.828125 1.15625 1.296875 1.765625 1.296875 1.953125 0 .21875-.1875.25-.390625.25v.34375c.296875-.015625.9375-.03125 1.171875-.03125.3125 0 .625.015625.953125.03125v-.34375c-.40625 0-.65625 0-1.0625-.578125l-1.390625-1.953125c0-.015625-.0625-.078125-.0625-.109375 0-.046875.78125-.703125.890625-.796875.6875-.546875 1.140625-.578125 1.375-.578125v-.34375c-.328125.03125-.46875.03125-.765625.03125-.390625 0-1.078125-.015625-1.21875-.03125v.34375c.203125 0 .3125.125.3125.265625 0 .21875-.15625.359375-.25.421875l-1.53125 1.34375v-5.234375l-1.5625.109375v.34375c.75 0 .84375.078125.84375.609375zm0 0"/></symbol><symbol id="D" overflow="visible"><path d="m1.28125-2.375c0-1.78125.890625-2.234375 1.46875-2.234375.09375 0 .78125 0 1.171875.40625-.453125.03125-.515625.359375-.515625.5 0 .28125.1875.5.5.5.28125 0 .5-.1875.5-.515625 0-.734375-.828125-1.171875-1.671875-1.171875-1.359375 0-2.359375 1.1875-2.359375 2.53125 0 1.40625 1.078125 2.484375 2.34375 2.484375 1.453125 0 1.8125-1.3125 1.8125-1.421875s-.109375-.109375-.140625-.109375c-.109375 0-.125.046875-.140625.109375-.328125 1.015625-1.03125 1.140625-1.4375 1.140625-.578125 0-1.53125-.46875-1.53125-2.21875zm0 0"/></symbol><symbol id="E" overflow="visible"><path d="m7.5-3.5625c.15625 0 .359375 0 .359375-.21875s-.203125-.21875-.359375-.21875h-6.53125c-.15625 0-.359375 0-.359375.21875s.203125.21875.375.21875zm0 2.109375c.15625 0 .359375 0 .359375-.21875s-.203125-.21875-.359375-.21875h-6.515625c-.171875 0-.375 0-.375.21875s.203125.21875.359375.21875zm0 0"/></symbol><symbol id="F" overflow="visible"><path d="m3.15625-3.84375c.90625-.296875 1.53125-1.046875 1.53125-1.921875 0-.890625-.953125-1.5-2-1.5-1.109375 0-1.9375.65625-1.9375 1.484375 0 .359375.25.5625.5625.5625.328125 0 .546875-.234375.546875-.546875 0-.546875-.5-.546875-.671875-.546875.34375-.53125 1.0625-.671875 1.453125-.671875.453125 0 1.046875.234375 1.046875 1.21875 0 .125-.015625.765625-.3125 1.234375-.328125.53125-.6875.5625-.96875.578125-.078125 0-.34375.03125-.421875.03125-.09375 0-.15625.015625-.15625.125 0 .125.0625.125.25.125h.484375c.890625 0 1.296875.734375 1.296875 1.8125 0 1.484375-.75 1.796875-1.234375 1.796875-.46875 0-1.28125-.1875-1.671875-.828125.390625.046875.71875-.1875.71875-.609375 0-.390625-.28125-.609375-.609375-.609375-.25 0-.609375.15625-.609375.640625 0 .984375 1.015625 1.703125 2.203125 1.703125 1.328125 0 2.328125-.984375 2.328125-2.09375 0-.90625-.6875-1.75-1.828125-1.984375zm0 0"/></symbol><symbol id="G" overflow="visible"><path d="m1.671875-2.28125.421875-4.96875c0-.359375-.296875-.5625-.578125-.5625s-.578125.203125-.578125.5625l.421875 4.953125c.015625.171875.03125.25.15625.25.109375 0 .140625-.046875.15625-.234375zm.421875 1.703125c0-.3125-.265625-.578125-.578125-.578125s-.578125.265625-.578125.578125.265625.578125.578125.578125.578125-.265625.578125-.578125zm0 0"/></symbol><symbol id="H" overflow="visible"><path d="m4.890625-2.1875c0-1.296875-.890625-2.390625-2.0625-2.390625-.53125 0-1 .171875-1.390625.546875v-2.125c.21875.078125.578125.140625.921875.140625 1.34375 0 2.109375-.984375 2.109375-1.125 0-.0625-.03125-.125-.109375-.125 0 0-.03125 0-.078125.03125-.21875.109375-.765625.3125-1.484375.3125-.4375 0-.9375-.0625-1.453125-.296875-.09375-.03125-.109375-.03125-.140625-.03125-.109375 0-.109375.078125-.109375.265625v3.21875c0 .203125 0 .28125.15625.28125.078125 0 .109375-.03125.140625-.09375.125-.171875.53125-.765625 1.40625-.765625.578125 0 .84375.5.9375.703125.171875.40625.1875.828125.1875 1.375 0 .375 0 1.03125-.25 1.484375-.265625.4375-.671875.71875-1.171875.71875-.796875 0-1.421875-.578125-1.609375-1.21875.03125 0 .0625.015625.1875.015625.359375 0 .546875-.265625.546875-.53125s-.1875-.53125-.546875-.53125c-.15625 0-.53125.078125-.53125.578125 0 .9375.75 1.984375 1.96875 1.984375 1.265625 0 2.375-1.046875 2.375-2.421875zm0 0"/></symbol><symbol id="I" overflow="visible"><path d="m4.53125-3.671875c.28125-.6875.828125-.6875 1.015625-.6875v-.34375c-.25.03125-.578125.03125-.828125.03125-.1875 0-.703125-.015625-.9375-.03125v.34375c.328125 0 .5.1875.5.46875 0 .109375 0 .125-.0625.265625l-1.09375 2.671875-1.21875-2.921875c-.046875-.109375-.0625-.15625-.0625-.203125 0-.28125.40625-.28125.609375-.28125v-.34375c-.28125.015625-1 .03125-1.1875.03125-.296875 0-.734375 0-1.0625-.03125v.34375c.53125 0 .734375 0 .890625.375l1.625 3.984375c-.046875.140625-.203125.5-.265625.640625-.234375.609375-.546875 1.359375-1.25 1.359375-.046875 0-.296875 0-.5-.203125.328125-.046875.421875-.28125.421875-.453125 0-.28125-.203125-.453125-.453125-.453125-.21875 0-.46875.140625-.46875.46875 0 .484375.46875.875 1 .875.6875 0 1.140625-.625 1.40625-1.234375zm0 0"/></symbol><symbol id="J" overflow="visible"><path d="m2.09375-.578125c0-.3125-.265625-.578125-.578125-.578125s-.578125.265625-.578125.578125.265625.578125.578125.578125.578125-.265625.578125-.578125zm0 0"/></symbol><symbol id="K" overflow="visible"><path d="m6.625-4.359375c.5 0 .578125.140625.578125.578125v2.953125c0 .484375-.125.484375-.859375.484375v.34375c.359375-.015625.9375-.03125 1.21875-.03125.265625 0 .796875.015625 1.203125.03125v-.34375c-.734375 0-.84375 0-.84375-.484375v-4l-.421875.03125c-.546875.046875-.625.046875-1.15625.078125-.015625.015625-.046875.015625-.1875.015625h-1.296875v-1.234375c0-1.078125.9375-1.515625 1.625-1.515625.328125 0 .71875.109375.9375.359375-.453125.03125-.515625.328125-.515625.5 0 .359375.28125.515625.484375.515625.25 0 .5-.1875.5-.515625 0-.640625-.59375-1.09375-1.40625-1.09375-.953125 0-1.578125.4375-1.765625.59375-.265625-.375-.71875-.59375-1.265625-.59375-1.015625 0-2.296875.5625-2.296875 1.75v1.234375h-.859375v.34375h.859375v3.53125c0 .484375-.125.484375-.84375.484375v.34375c.359375-.015625.9375-.03125 1.203125-.03125s.8125.015625 1.203125.03125v-.34375c-.71875 0-.84375 0-.84375-.484375v-3.53125h2.296875v3.53125c0 .484375-.109375.484375-.84375.484375v.34375c.359375-.015625.9375-.03125 1.203125-.03125.28125 0 .8125.015625 1.21875.03125v-.34375c-.734375 0-.859375 0-.859375-.484375v-3.53125zm-2.453125-.34375h-2.328125v-1.234375c0-1.09375.953125-1.515625 1.59375-1.515625.265625 0 .640625.0625.9375.359375-.421875.03125-.53125.28125-.53125.5 0 .25.140625.421875.328125.46875zm0 0"/></symbol><symbol id="L" overflow="visible"><path d="m2.296875-4.828125-1.671875.125v.34375c.84375 0 .953125.078125.953125.609375v4.3125c0 .5-.109375 1.4375-.796875 1.4375-.0625 0-.3125 0-.59375-.140625.15625-.046875.375-.203125.375-.5 0-.28125-.1875-.5-.5-.5-.296875 0-.5.21875-.5.5 0 .578125.609375.875 1.234375.875.8125 0 1.5-.703125 1.5-1.6875zm0-1.890625c0-.3125-.265625-.578125-.578125-.578125-.328125 0-.578125.265625-.578125.578125s.25.578125.578125.578125c.3125 0 .578125-.265625.578125-.578125zm0 0"/></symbol><symbol id="M" overflow="visible"><path d="m3.015625-2.046875v-.625h-2.890625v.625zm0 0"/></symbol><symbol id="N" overflow="visible"><path d="m4.453125-2.515625h3.046875c.15625 0 .359375 0 .359375-.203125 0-.21875-.203125-.21875-.359375-.21875h-3.046875v-3.0625c0-.15625 0-.359375-.203125-.359375-.21875 0-.21875.203125-.21875.359375v3.0625h-3.0625c-.15625 0-.359375 0-.359375.21875 0 .203125.203125.203125.359375.203125h3.0625v3.0625c0 .15625 0 .359375.21875.359375.203125 0 .203125-.203125.203125-.359375zm0 0"/></symbol><symbol id="O" overflow="visible"><path d="m1.4375-3.578125v-.265625c0-2.75 1.359375-3.140625 1.90625-3.140625.265625 0 .71875.0625.96875.4375-.171875 0-.609375 0-.609375.484375 0 .34375.265625.5.5.5.1875 0 .515625-.09375.515625-.515625 0-.65625-.484375-1.1875-1.390625-1.1875-1.390625 0-2.875 1.40625-2.875 3.8125 0 2.921875 1.265625 3.6875 2.28125 3.6875 1.21875 0 2.25-1.015625 2.25-2.453125 0-1.390625-.96875-2.4375-2.1875-2.4375-.734375 0-1.140625.5625-1.359375 1.078125zm1.296875 3.515625c-.6875 0-1.015625-.65625-1.078125-.828125-.1875-.5-.1875-1.375-.1875-1.578125 0-.84375.34375-1.9375 1.328125-1.9375.171875 0 .671875 0 1.015625.671875.1875.40625.1875.96875.1875 1.5 0 .515625 0 1.0625-.1875 1.453125-.328125.65625-.828125.71875-1.078125.71875zm0 0"/></symbol><symbol id="P" overflow="visible"><path d="m1.875-4.109375v-3.453125l-1.5625.109375v.34375c.75 0 .84375.078125.84375.609375v6.5h.265625c.015625-.015625.109375-.15625.40625-.671875.15625.25.609375.796875 1.421875.796875 1.296875 0 2.4375-1.078125 2.4375-2.484375 0-1.375-1.078125-2.46875-2.3125-2.46875-.859375 0-1.328125.515625-1.5.71875zm.03125 2.859375v-2.234375c0-.21875 0-.21875.125-.390625.421875-.625 1.015625-.703125 1.28125-.703125.5 0 .890625.28125 1.140625.703125.296875.4375.328125 1.0625.328125 1.515625 0 .390625-.03125 1.046875-.34375 1.546875-.234375.328125-.640625.6875-1.234375.6875-.484375 0-.875-.25-1.140625-.65625-.15625-.234375-.15625-.265625-.15625-.46875zm0 0"/></symbol><symbol id="Q" overflow="visible"><path d="m9.90625-6.375c.203125-.625.671875-.734375 1.09375-.734375v-.34375c-.328125.03125-.65625.03125-.984375.03125-.3125 0-1.015625-.015625-1.296875-.03125v.34375c.71875.015625.9375.375.9375.578125 0 .0625-.03125.15625-.046875.21875l-1.640625 5.03125-1.734375-5.34375c-.015625-.03125-.046875-.109375-.046875-.15625 0-.328125.640625-.328125.921875-.328125v-.34375c-.390625.03125-1.125.03125-1.546875.03125s-.890625-.015625-1.328125-.03125v.34375c.625 0 .84375 0 .984375.390625l.234375.765625-1.515625 4.671875-1.75-5.359375c-.015625-.03125-.03125-.109375-.03125-.140625 0-.328125.640625-.328125.921875-.328125v-.34375c-.390625.03125-1.140625.03125-1.546875.03125-.421875 0-.890625-.015625-1.328125-.03125v.34375c.8125 0 .859375.046875.984375.453125l2.1875 6.6875c.03125.09375.0625.203125.203125.203125.15625 0 .171875-.078125.21875-.21875l1.796875-5.53125 1.8125 5.546875c.03125.09375.0625.203125.203125.203125.15625 0 .171875-.078125.21875-.21875zm0 0"/></symbol><symbol id="R" overflow="visible"><path d="m1.78125-4.984375c-.5-.328125-.546875-.703125-.546875-.890625 0-.65625.703125-1.109375 1.484375-1.109375.796875 0 1.484375.5625 1.484375 1.34375 0 .625-.421875 1.140625-1.078125 1.53125zm1.59375 1.03125c.78125-.40625 1.3125-.96875 1.3125-1.6875 0-1-.96875-1.625-1.96875-1.625-1.078125 0-1.96875.8125-1.96875 1.828125 0 .1875.03125.6875.484375 1.1875.125.140625.515625.40625.796875.59375-.640625.3125-1.578125.9375-1.578125 2.015625 0 1.15625 1.125 1.875 2.265625 1.875 1.234375 0 2.265625-.90625 2.265625-2.0625 0-.390625-.125-.890625-.53125-1.34375-.203125-.234375-.390625-.34375-1.078125-.78125zm-1.09375.46875 1.34375.84375c.296875.203125.8125.53125.8125 1.203125 0 .8125-.8125 1.375-1.71875 1.375-.9375 0-1.71875-.671875-1.71875-1.578125 0-.640625.359375-1.34375 1.28125-1.84375zm0 0"/></symbol><symbol id="S" overflow="visible"><path d="m5.015625-3.484375c0-.875-.046875-1.75-.4375-2.5625-.5-1.046875-1.390625-1.21875-1.859375-1.21875-.640625 0-1.4375.28125-1.890625 1.296875-.34375.75-.40625 1.609375-.40625 2.484375 0 .8125.046875 1.796875.5 2.625.46875.875 1.265625 1.09375 1.796875 1.09375.578125 0 1.421875-.21875 1.890625-1.265625.359375-.75.40625-1.59375.40625-2.453125zm-2.296875 3.484375c-.421875 0-1.078125-.265625-1.265625-1.3125-.125-.65625-.125-1.671875-.125-2.3125 0-.6875 0-1.40625.09375-2 .203125-1.296875 1.015625-1.40625 1.296875-1.40625.359375 0 1.078125.203125 1.28125 1.28125.109375.609375.109375 1.4375.109375 2.125 0 .828125 0 1.5625-.125 2.265625-.15625 1.03125-.78125 1.359375-1.265625 1.359375zm0 0"/></symbol><symbol id="T" overflow="visible"><path d="m3.234375-2.984375c.296875.0625 1.203125.28125 1.203125 1.234375 0 .5625-.46875 1.203125-1.328125 1.203125-.3125 0-.84375-.046875-1.28125-.34375-.453125-.28125-.5-.75-.515625-.9375 0-.1875-.015625-.390625-.359375-.390625-.390625 0-.390625.234375-.390625.453125v1.4375c0 .171875 0 .453125.328125.453125.25 0 .3125-.15625.40625-.5.4375.328125 1.109375.5 1.796875.5 1.265625 0 2.046875-.96875 2.046875-1.9375 0-.703125-.390625-1.15625-.515625-1.296875-.453125-.4375-.75-.515625-1.59375-.703125l-.875-.203125c-.46875-.125-.875-.515625-.875-1.015625 0-.5625.53125-1.09375 1.296875-1.09375 1.296875 0 1.453125 1.03125 1.515625 1.375.046875.234375.15625.296875.375.296875.390625 0 .390625-.21875.390625-.4375v-1.453125c0-.171875 0-.4375-.328125-.4375-.265625 0-.328125.1875-.40625.515625-.453125-.390625-1.03125-.515625-1.53125-.515625-1.203125 0-2.03125.859375-2.03125 1.78125 0 .734375.5 1.453125 1.40625 1.71875.046875.015625 1.109375.265625 1.265625.296875zm0 0"/></symbol><symbol id="U" overflow="visible"><path d="m1.0625-.671875h-.328125c-.171875 0-.453125 0-.453125.34375 0 .328125.28125.328125.453125.328125h4.296875c.375 0 .4375-.09375.4375-.453125v-.96875c0-.203125 0-.4375-.359375-.4375-.390625 0-.390625.21875-.390625.4375v.75h-2.90625v-2.453125h1.421875c0 .453125 0 .625.390625.625.359375 0 .359375-.234375.359375-.4375v-1.015625c0-.21875 0-.453125-.359375-.453125-.390625 0-.390625.171875-.390625.625h-1.421875v-2.21875h2.671875v.578125c0 .203125 0 .453125.375.453125s.375-.234375.375-.453125v-.796875c0-.328125-.0625-.4375-.4375-.4375h-4.0625c-.171875 0-.453125 0-.453125.3125 0 .34375.28125.34375.453125.34375h.328125zm0 0"/></symbol><symbol id="V" overflow="visible"><path d="m3.171875-3.5625 1.234375-2.4375h.234375c.171875 0 .453125 0 .453125-.328125s-.28125-.328125-.453125-.328125h-1.125c-.171875 0-.4375 0-.4375.3125 0 .34375.25.34375.5.34375l-.78125 1.59375-.828125-1.59375c.21875 0 .46875 0 .46875-.34375 0-.3125-.28125-.3125-.4375-.3125h-1.140625c-.15625 0-.4375 0-.4375.3125 0 .34375.28125.34375.4375.34375h.25l1.3125 2.453125-1.453125 2.875h-.234375c-.171875 0-.4375 0-.4375.34375 0 .328125.265625.328125.4375.328125h1.125c.171875 0 .453125 0 .453125-.328125 0-.34375-.265625-.34375-.515625-.34375l1-2.109375 1.078125 2.109375c-.25 0-.484375 0-.484375.34375 0 .328125.28125.328125.4375.328125h1.140625c.15625 0 .4375 0 .4375-.328125 0-.34375-.28125-.34375-.4375-.34375h-.25zm0 0"/></symbol><symbol id="W" overflow="visible"><path d="m3.234375-6h1.4375v.578125c0 .203125 0 .453125.375.453125.390625 0 .390625-.234375.390625-.453125v-.796875c0-.328125-.078125-.4375-.4375-.4375h-4.265625c-.359375 0-.453125.078125-.453125.4375v.796875c0 .203125 0 .453125.375.453125s.375-.234375.375-.453125v-.578125h1.453125v5.328125h-.5625c-.171875 0-.4375 0-.4375.328125 0 .34375.265625.34375.4375.34375h1.890625c.15625 0 .4375 0 .4375-.328125 0-.34375-.265625-.34375-.4375-.34375h-.578125zm0 0"/></symbol><symbol id="X" overflow="visible"><path d="m1.9375-6h.609375c.15625 0 .453125 0 .453125-.328125s-.28125-.328125-.453125-.328125h-1.765625c-.171875 0-.4375 0-.4375.328125s.28125.328125.4375.328125h.40625v5.328125h-.40625c-.171875 0-.4375 0-.4375.34375 0 .328125.28125.328125.4375.328125h4.109375c.359375 0 .4375-.09375.4375-.453125v-.96875c0-.21875 0-.4375-.375-.4375-.390625 0-.390625.21875-.390625.4375v.75h-2.625zm0 0"/></symbol><symbol id="Y" overflow="visible"><path d="m3.015625-3.90625 1.65625-2.09375c.390625 0 .625 0 .625-.34375 0-.3125-.296875-.3125-.453125-.3125h-.96875c-.15625 0-.4375 0-.4375.328125s.296875.328125.4375.328125l-2.296875 2.90625v-2.90625h.25c.15625 0 .4375 0 .4375-.328125s-.265625-.328125-.4375-.328125h-1.09375c-.171875 0-.453125 0-.453125.3125 0 .34375.28125.34375.453125.34375h.234375v5.328125h-.234375c-.171875 0-.453125 0-.453125.328125 0 .34375.28125.34375.453125.34375h1.09375c.15625 0 .4375 0 .4375-.328125 0-.34375-.265625-.34375-.4375-.34375h-.25v-1.4375l1.015625-1.28125 1.53125 2.71875c-.15625 0-.4375 0-.4375.328125 0 .34375.265625.34375.453125.34375h.8125c.15625 0 .453125 0 .453125-.328125 0-.34375-.265625-.34375-.578125-.34375-.015625-.03125-.0625-.109375-.078125-.125zm0 0"/></symbol><symbol id="Z" overflow="visible"><path d="m.734375-.625c-.109375.078125-.171875.140625-.171875.28125 0 .34375.28125.34375.453125.34375h3.703125c.359375 0 .421875-.09375.421875-.453125v-.28125c0-.203125 0-.4375-.359375-.4375-.390625 0-.390625.203125-.390625.5h-2.59375c.640625-.546875 1.6875-1.375 2.15625-1.796875.6875-.625 1.1875-1.3125 1.1875-2.1875 0-1.3125-1.09375-2.125-2.421875-2.125-1.296875 0-2.15625.890625-2.15625 1.8125 0 .40625.3125.53125.5.53125.21875 0 .46875-.1875.46875-.484375 0-.140625-.046875-.28125-.140625-.359375.15625-.5.671875-.84375 1.265625-.84375.90625 0 1.734375.515625 1.734375 1.46875 0 .765625-.53125 1.390625-1.25 2zm0 0"/></symbol><symbol id="aa" overflow="visible"><path d="m3.296875-3.546875h1.0625c.828125 0 .90625.171875.90625.5 0 .0625 0 .203125-.078125.53125-.015625.046875-.03125.09375-.03125.109375 0 .09375.0625.140625.140625.140625.109375 0 .109375-.03125.15625-.234375l.59375-2.359375c.03125-.125.03125-.140625.03125-.171875s-.015625-.125-.125-.125-.125.046875-.15625.234375c-.234375.84375-.484375 1.046875-1.40625 1.046875h-1l.703125-2.78125c.09375-.375.109375-.421875.578125-.421875h1.453125c1.328125 0 1.578125.359375 1.578125 1.203125 0 .25 0 .296875-.03125.578125-.015625.15625-.015625.171875-.015625.203125 0 .0625.03125.125.125.125.125 0 .140625-.0625.15625-.265625l.21875-1.890625c.03125-.296875-.015625-.296875-.296875-.296875h-5.34375c-.21875 0-.328125 0-.328125.21875 0 .125.109375.125.3125.125.40625 0 .703125 0 .703125.203125 0 .03125 0 .0625-.046875.25l-1.4375 5.78125c-.109375.421875-.140625.5-1 .5-.1875 0-.296875 0-.296875.21875 0 .125.125.125.15625.125.3125 0 1.125-.03125 1.4375-.03125.359375 0 1.265625.03125 1.625.03125.09375 0 .234375 0 .234375-.203125 0-.09375-.0625-.109375-.0625-.125-.03125-.015625-.0625-.015625-.3125-.015625-.234375 0-.296875 0-.5625-.015625-.3125-.03125-.359375-.078125-.359375-.21875 0-.015625 0-.09375.046875-.25zm0 0"/></symbol><symbol id="ab" overflow="visible"><path d="m4.0625-4.125c-.1875-.40625-.5-.703125-1-.703125-1.28125 0-2.625 1.609375-2.625 3.203125 0 1.03125.59375 1.75 1.453125 1.75.21875 0 .765625-.046875 1.40625-.828125.09375.46875.484375.828125 1 .828125.375 0 .625-.25.8125-.609375.1875-.390625.328125-1.046875.328125-1.078125 0-.109375-.109375-.109375-.140625-.109375-.109375 0-.109375.046875-.15625.203125-.171875.703125-.375 1.34375-.828125 1.34375-.28125 0-.328125-.28125-.328125-.5 0-.234375.03125-.328125.15625-.796875.109375-.46875.140625-.578125.234375-.984375l.390625-1.53125c.078125-.3125.078125-.328125.078125-.375 0-.1875-.125-.296875-.3125-.296875-.265625 0-.4375.25-.46875.484375zm-.703125 2.828125c-.0625.203125-.0625.21875-.21875.40625-.484375.59375-.921875.765625-1.234375.765625-.546875 0-.703125-.59375-.703125-1.015625 0-.546875.359375-1.890625.609375-2.390625.34375-.640625.828125-1.046875 1.265625-1.046875.703125 0 .859375.890625.859375.953125s-.015625.140625-.03125.1875zm0 0"/></symbol><symbol id="ac" overflow="visible"><path d="m8.328125-6.609375c.09375-.390625.109375-.5.90625-.5.28125 0 .375 0 .375-.21875 0-.125-.125-.125-.15625-.125-.296875 0-1.09375.03125-1.390625.03125-.3125 0-1.09375-.03125-1.40625-.03125-.09375 0-.203125 0-.203125.21875 0 .125.09375.125.296875.125.015625 0 .234375 0 .421875.015625.1875.03125.28125.03125.28125.171875 0 .046875 0 .078125-.03125.21875l-.65625 2.65625h-3.328125l.640625-2.5625c.09375-.390625.125-.5.921875-.5.28125 0 .359375 0 .359375-.21875 0-.125-.109375-.125-.140625-.125-.3125 0-1.09375.03125-1.40625.03125s-1.09375-.03125-1.40625-.03125c-.078125 0-.203125 0-.203125.21875 0 .125.09375.125.3125.125.015625 0 .21875 0 .40625.015625.203125.03125.296875.03125.296875.171875 0 .046875-.015625.078125-.046875.21875l-1.453125 5.859375c-.109375.421875-.140625.5-1 .5-.1875 0-.296875 0-.296875.21875 0 .125.140625.125.15625.125.3125 0 1.078125-.03125 1.390625-.03125.21875 0 .46875.015625.6875.015625.25 0 .484375.015625.71875.015625.078125 0 .21875 0 .21875-.21875 0-.125-.109375-.125-.3125-.125-.40625 0-.703125 0-.703125-.1875 0-.0625.015625-.125.03125-.1875l.734375-2.984375h3.328125c-.453125 1.8125-.703125 2.84375-.75 3-.109375.359375-.3125.359375-1 .359375-.15625 0-.25 0-.25.21875 0 .125.125.125.15625.125.296875 0 1.078125-.03125 1.375-.03125.234375 0 .46875.015625.703125.015625s.484375.015625.703125.015625c.09375 0 .21875 0 .21875-.21875 0-.125-.09375-.125-.296875-.125-.40625 0-.71875 0-.71875-.1875 0-.0625.03125-.125.03125-.1875zm0 0"/></symbol><symbol id="ad" overflow="visible"><path d="m4.78125-7.765625c.0625-.140625.0625-.1875.0625-.203125 0-.109375-.09375-.203125-.21875-.203125-.078125 0-.15625.03125-.1875.09375l-3.78125 10.390625c-.0625.140625-.0625.1875-.0625.203125 0 .109375.109375.203125.21875.203125.140625 0 .1875-.0625.25-.25zm0 0"/></symbol><symbol id="ae" overflow="visible"><path d="m2.609375-7.453125s0-.109375-.140625-.109375c-.25 0-1.046875.078125-1.328125.109375-.09375 0-.21875.015625-.21875.21875 0 .125.109375.125.265625.125.53125 0 .546875.078125.546875.1875 0 .078125-.09375.4375-.15625.671875l-.890625 3.5625c-.125.53125-.171875.71875-.171875 1.09375 0 1.03125.578125 1.71875 1.375 1.71875 1.296875 0 2.640625-1.625 2.640625-3.203125 0-.984375-.578125-1.75-1.453125-1.75-.5 0-.953125.328125-1.28125.65625zm-1.03125 4.125c.0625-.234375.0625-.265625.171875-.375.53125-.71875 1.015625-.875 1.296875-.875.40625 0 .6875.328125.6875 1.015625 0 .65625-.359375 1.90625-.546875 2.3125-.359375.734375-.859375 1.125-1.296875 1.125-.359375 0-.71875-.296875-.71875-1.09375 0-.203125 0-.421875.171875-1.109375zm0 0"/></symbol><symbol id="af" overflow="visible"><path d="m6.84375-6.203125c.546875-.859375 1-.890625 1.40625-.90625.125-.015625.140625-.203125.140625-.203125 0-.09375-.0625-.140625-.140625-.140625-.28125 0-.609375.03125-.90625.03125-.359375 0-.71875-.03125-1.078125-.03125-.0625 0-.203125 0-.203125.21875 0 .109375.09375.125.171875.125.296875.015625.5.125.5.359375 0 .15625-.15625.40625-.15625.40625l-3.34375 5.328125-.75-5.765625c0-.1875.25-.328125.75-.328125.15625 0 .28125 0 .28125-.21875 0-.09375-.09375-.125-.15625-.125-.4375 0-.90625.03125-1.359375.03125-.1875 0-.390625 0-.59375 0s-.40625-.03125-.59375-.03125c-.078125 0-.203125 0-.203125.21875 0 .125.09375.125.28125.125.609375 0 .609375.09375.640625.375l.875 6.71875c.03125.21875.0625.25.21875.25.171875 0 .203125-.046875.296875-.1875zm0 0"/></symbol><symbol id="ag" overflow="visible"><path d="m2.21875-.015625c0-.71875-.28125-1.140625-.703125-1.140625-.359375 0-.578125.265625-.578125.578125 0 .296875.21875.578125.578125.578125.125 0 .265625-.046875.375-.140625.046875-.015625.046875-.03125.0625-.03125s.015625.015625.015625.15625c0 .8125-.375 1.46875-.734375 1.828125-.125.125-.125.140625-.125.171875 0 .078125.0625.125.109375.125.125 0 1-.84375 1-2.125zm0 0"/></symbol><symbol id="ah" overflow="visible"><path d="m3.640625-3.296875c.0625-.28125.3125-1.28125 1.078125-1.28125.0625 0 .3125 0 .546875.140625-.296875.046875-.515625.328125-.515625.59375 0 .171875.109375.375.40625.375.25 0 .59375-.203125.59375-.625 0-.578125-.640625-.734375-1.015625-.734375-.640625 0-1.015625.578125-1.140625.84375-.28125-.734375-.875-.84375-1.1875-.84375-1.125 0-1.75 1.421875-1.75 1.6875 0 .109375.109375.109375.125.109375.09375 0 .125-.015625.140625-.125.375-1.15625 1.09375-1.421875 1.46875-1.421875.203125 0 .59375.09375.59375.734375 0 .328125-.1875 1.0625-.59375 2.59375-.171875.671875-.5625 1.125-1.03125 1.125-.078125 0-.328125 0-.546875-.140625.265625-.046875.5-.28125.5-.578125s-.234375-.390625-.390625-.390625c-.328125 0-.609375.28125-.609375.640625 0 .5.546875.71875 1.03125.71875.71875 0 1.109375-.765625 1.140625-.828125.140625.390625.53125.828125 1.1875.828125 1.109375 0 1.734375-1.40625 1.734375-1.6875 0-.109375-.09375-.109375-.125-.109375-.09375 0-.125.046875-.140625.125-.359375 1.171875-1.109375 1.421875-1.453125 1.421875-.421875 0-.59375-.34375-.59375-.71875 0-.234375.0625-.46875.171875-.953125zm0 0"/></symbol><symbol id="ai" overflow="visible"><path d="m3.09375-6.8125c0-.21875-.15625-.390625-.40625-.390625-.28125 0-.578125.28125-.578125.578125 0 .203125.140625.390625.40625.390625.25 0 .578125-.25.578125-.578125zm-.828125 4.09375c.140625-.3125.140625-.328125.25-.625.078125-.21875.140625-.375.140625-.578125 0-.5-.359375-.90625-.90625-.90625-1.015625 0-1.4375 1.59375-1.4375 1.6875 0 .109375.109375.109375.140625.109375.109375 0 .109375-.015625.171875-.203125.296875-1.015625.734375-1.34375 1.09375-1.34375.09375 0 .28125 0 .28125.34375 0 .234375-.078125.453125-.125.5625-.09375.296875-.578125 1.5625-.75 2.03125-.109375.28125-.25.640625-.25.859375 0 .515625.375.90625.890625.90625 1.03125 0 1.4375-1.59375 1.4375-1.6875 0-.109375-.109375-.109375-.140625-.109375-.109375 0-.109375.03125-.15625.203125-.203125.6875-.5625 1.34375-1.125 1.34375-.171875 0-.25-.109375-.25-.359375 0-.265625.0625-.421875.3125-1.09375zm0 0"/></symbol><symbol id="aj" overflow="visible"><path d="m5.296875-4.15625c.046875-.15625.046875-.171875.046875-.25 0-.203125-.15625-.296875-.3125-.296875-.109375 0-.28125.0625-.390625.234375-.015625.046875-.109375.390625-.140625.59375-.078125.28125-.15625.578125-.21875.859375l-.5 1.96875c-.046875.15625-.515625.921875-1.234375.921875-.546875 0-.671875-.46875-.671875-.875 0-.5.1875-1.1875.5625-2.140625.171875-.453125.21875-.5625.21875-.78125 0-.5-.359375-.90625-.90625-.90625-1.03125 0-1.4375 1.59375-1.4375 1.6875 0 .109375.109375.109375.140625.109375.109375 0 .109375-.015625.171875-.203125.296875-1.015625.734375-1.34375 1.09375-1.34375.09375 0 .28125 0 .28125.34375 0 .28125-.109375.5625-.1875.765625-.4375 1.15625-.640625 1.78125-.640625 2.296875 0 .96875.6875 1.296875 1.34375 1.296875.421875 0 .78125-.1875 1.09375-.5-.140625.578125-.265625 1.109375-.703125 1.6875-.28125.359375-.703125.6875-1.203125.6875-.15625 0-.640625-.03125-.828125-.46875.171875 0 .3125 0 .46875-.125.109375-.09375.21875-.234375.21875-.453125 0-.328125-.296875-.375-.40625-.375-.25 0-.609375.171875-.609375.703125 0 .546875.484375.953125 1.15625.953125 1.125 0 2.25-.984375 2.546875-2.21875zm0 0"/></symbol><symbol id="ak" overflow="visible"><path d="m6.265625-6.203125c0-.828125-.59375-1.5-1.484375-1.5-.625 0-.9375.171875-1.3125.46875-.59375.421875-1.203125 1.484375-1.40625 2.3125l-1.734375 6.921875c-.015625.046875.046875.109375.125.109375.09375 0 .125-.015625.140625-.046875l.765625-3.015625c.203125.65625.6875 1.0625 1.46875 1.0625.796875 0 1.625-.375 2.109375-.859375.53125-.5.875-1.203125.875-2.015625 0-.78125-.40625-1.34375-.796875-1.625.640625-.359375 1.25-1.03125 1.25-1.8125zm-1.953125 1.8125c-.140625.046875-.265625.078125-.53125.078125-.15625 0-.375 0-.484375-.046875.03125-.109375.421875-.09375.546875-.09375.21875 0 .328125 0 .46875.0625zm1.34375-2.0625c0 .765625-.40625 1.546875-.984375 1.890625-.28125-.109375-.5-.140625-.828125-.140625-.234375 0-.84375-.015625-.84375.34375-.015625.3125.5625.28125.75.28125.40625 0 .5625-.015625.890625-.140625.421875.390625.46875.734375.484375 1.234375.015625.625-.234375 1.453125-.546875 1.875-.421875.578125-1.15625.984375-1.78125.984375-.828125 0-1.234375-.640625-1.234375-1.40625 0-.109375 0-.28125.046875-.484375l.703125-2.765625c.234375-.9375 1.03125-2.671875 2.328125-2.671875.640625 0 1.015625.34375 1.015625 1zm0 0"/></symbol><symbol id="al" overflow="visible"><path d="m.453125-2.765625c.421875-1.265625 1.609375-1.265625 1.734375-1.265625 1.640625 0 1.765625 1.90625 1.765625 2.765625 0 .671875-.0625.84375-.140625 1.0625-.234375.796875-.5625 2.0625-.5625 2.359375 0 .109375.046875.1875.140625.1875.140625 0 .234375-.234375.34375-.65625.25-.90625.359375-1.53125.40625-1.875.03125-.140625.046875-.28125.09375-.421875.34375-1.078125 1.046875-2.703125 1.484375-3.5625.078125-.140625.203125-.375.203125-.421875 0-.109375-.109375-.109375-.125-.109375-.03125 0-.109375 0-.140625.078125-.5625 1.03125-1 2.125-1.4375 3.234375-.015625-.34375-.015625-1.171875-.4375-2.234375-.265625-.65625-.703125-1.203125-1.453125-1.203125-1.375 0-2.125 1.671875-2.125 2 0 .109375.09375.109375.203125.109375zm0 0"/></symbol><symbol id="am" overflow="visible"><path d="m1.546875-4.90625c0-.234375-.171875-.453125-.4375-.453125-.234375 0-.4375.1875-.4375.4375 0 .28125.234375.453125.4375.453125.28125 0 .4375-.234375.4375-.4375zm-1.1875 1.484375v.265625c.515625 0 .578125.046875.578125.4375v2.09375c0 .359375-.09375.359375-.609375.359375v.265625c.3125-.03125.765625-.03125.890625-.03125.09375 0 .578125 0 .859375.03125v-.265625c-.53125 0-.5625-.03125-.5625-.34375v-2.90625zm0 0"/></symbol><symbol id="an" overflow="visible"><path d="m3.875-2.421875c0-.65625-.3125-1.09375-1.140625-1.09375-.796875 0-1.15625.578125-1.25.765625v-.765625l-1.15625.09375v.265625c.546875 0 .609375.046875.609375.4375v2.09375c0 .359375-.09375.359375-.609375.359375v.265625c.34375-.03125.6875-.03125.90625-.03125.234375 0 .5625 0 .90625.03125v-.265625c-.5 0-.609375 0-.609375-.359375v-1.4375c0-.84375.640625-1.234375 1.125-1.234375s.609375.34375.609375.84375v1.828125c0 .359375-.09375.359375-.609375.359375v.265625c.34375-.03125.703125-.03125.90625-.03125.234375 0 .578125 0 .921875.03125v-.265625c-.515625 0-.609375 0-.609375-.359375zm0 0"/></symbol><symbol id="ao" overflow="visible"><path d="m2.25-1.625c.125-.125.453125-.390625.59375-.5.484375-.453125.953125-.890625.953125-1.609375 0-.953125-.796875-1.5625-1.78125-1.5625-.96875 0-1.59375.71875-1.59375 1.4375 0 .390625.3125.4375.421875.4375.171875 0 .421875-.109375.421875-.421875 0-.40625-.40625-.40625-.5-.40625.234375-.59375.765625-.78125 1.15625-.78125.734375 0 1.125.625 1.125 1.296875 0 .828125-.578125 1.4375-1.53125 2.390625l-1 1.046875c-.09375.078125-.09375.09375-.09375.296875h3.140625l.234375-1.421875h-.25c-.015625.15625-.078125.546875-.171875.703125-.046875.0625-.65625.0625-.78125.0625h-1.421875zm0 0"/></symbol><symbol id="ap" overflow="visible"><path d="m3.984375-1.703125c0-.984375-.828125-1.84375-1.875-1.84375s-1.875.859375-1.875 1.84375c0 1 .859375 1.78125 1.875 1.78125 1.03125 0 1.875-.78125 1.875-1.78125zm-1.875 1.53125c-.421875 0-.765625-.203125-.9375-.484375-.203125-.328125-.21875-.71875-.21875-1.109375 0-.3125 0-.78125.234375-1.125.21875-.28125.546875-.4375.921875-.4375.421875 0 .765625.203125.9375.46875.21875.34375.234375.765625.234375 1.09375 0 .359375-.015625.796875-.25 1.140625-.203125.3125-.5625.453125-.921875.453125zm0 0"/></symbol><symbol id="aq" overflow="visible"><path d="m2.65625-3.421875v.265625c.546875 0 .609375.046875.609375.4375v1.390625c0 .6875-.40625 1.1875-1.015625 1.1875-.6875 0-.71875-.34375-.71875-.75v-2.625l-1.203125.09375v.265625c.609375 0 .609375.015625.609375.71875v1.203125c0 .578125 0 1.3125 1.265625 1.3125.75 0 1.046875-.578125 1.078125-.640625h.015625v.640625l1.1875-.078125v-.265625c-.546875 0-.609375-.046875-.609375-.4375v-2.8125zm0 0"/></symbol><symbol id="ar" overflow="visible"><path d="m1.484375-3.171875h1.1875v-.265625h-1.1875v-1.46875h-.25c0 .734375-.328125 1.484375-1.078125 1.515625v.21875h.71875v2.171875c0 .9375.71875 1.078125 1.078125 1.078125.546875 0 .859375-.46875.859375-1.078125v-.4375h-.25v.421875c0 .546875-.25.84375-.546875.84375-.53125 0-.53125-.6875-.53125-.8125zm0 0"/></symbol><symbol id="as" overflow="visible"><path d="m2.015625-2.65625c.625 0 1.03125.453125 1.03125 1.296875 0 1-.5625 1.28125-.984375 1.28125-.4375 0-1.046875-.15625-1.328125-.578125.296875 0 .5-.1875.5-.4375 0-.265625-.1875-.4375-.453125-.4375-.203125 0-.4375.125-.4375.453125 0 .75.8125 1.25 1.734375 1.25 1.046875 0 1.796875-.734375 1.796875-1.53125 0-.671875-.53125-1.265625-1.34375-1.453125.625-.21875 1.109375-.75 1.109375-1.390625s-.71875-1.09375-1.546875-1.09375c-.859375 0-1.5.453125-1.5 1.0625 0 .296875.1875.421875.40625.421875.25 0 .40625-.171875.40625-.40625 0-.296875-.265625-.40625-.4375-.40625.34375-.4375.953125-.46875 1.09375-.46875.203125 0 .8125.0625.8125.890625 0 .546875-.234375.890625-.34375 1.015625-.234375.25-.421875.265625-.90625.296875-.15625 0-.21875.015625-.21875.125s.078125.109375.21875.109375zm0 0"/></symbol><symbol id="at" overflow="visible"><path d="m5.828125-2.65625c.109375 0 .28125 0 .28125-.1875 0-.171875-.203125-.171875-.3125-.171875h-5.015625c-.125 0-.3125 0-.3125.171875 0 .1875.15625.1875.28125.1875zm-.03125 1.6875c.109375 0 .3125 0 .3125-.171875 0-.1875-.171875-.1875-.28125-.1875h-5.078125c-.125 0-.28125 0-.28125.1875 0 .171875.1875.171875.3125.171875zm0 0"/></symbol><symbol id="au" overflow="visible"><path d="m2.65625 1.984375c.0625 0 .15625 0 .15625-.09375 0-.03125 0-.03125-.109375-.140625-1.09375-1.03125-1.359375-2.5-1.359375-3.734375 0-2.296875.9375-3.375 1.34375-3.75.125-.09375.125-.109375.125-.140625 0-.046875-.03125-.09375-.109375-.09375-.125 0-.53125.40625-.59375.46875-1.0625 1.125-1.28125 2.546875-1.28125 3.515625 0 1.78125.734375 3.21875 1.828125 3.96875zm0 0"/></symbol><symbol id="av" overflow="visible"><path d="m2.46875-1.984375c0-.765625-.140625-1.671875-.625-2.609375-.390625-.734375-1.125-1.375-1.265625-1.375-.078125 0-.09375.046875-.09375.09375 0 .03125 0 .046875.09375.140625 1.109375 1.0625 1.359375 2.515625 1.359375 3.75 0 2.28125-.9375 3.359375-1.34375 3.734375-.109375.09375-.109375.109375-.109375.140625 0 .046875.015625.09375.09375.09375.125 0 .53125-.40625.59375-.46875 1.0625-1.125 1.296875-2.546875 1.296875-3.5zm0 0"/></symbol><symbol id="aw" overflow="visible"><path d="m4.25-3.03125-2.1875-2.171875c-.125-.125-.15625-.15625-.234375-.15625-.109375 0-.21875.109375-.21875.21875 0 .078125.015625.109375.140625.21875l2.171875 2.203125-2.171875 2.1875c-.125.109375-.140625.140625-.140625.21875 0 .109375.109375.21875.21875.21875.078125 0 .109375-.03125.234375-.15625l2.171875-2.171875 2.25 2.265625c.03125 0 .109375.0625.171875.0625.125 0 .21875-.109375.21875-.21875 0-.03125 0-.0625-.03125-.125-.015625-.015625-1.75-1.734375-2.296875-2.28125l2-2c.046875-.0625.21875-.203125.265625-.28125.015625-.015625.0625-.0625.0625-.140625 0-.109375-.09375-.21875-.21875-.21875-.09375 0-.140625.046875-.25.171875zm0 0"/></symbol><symbol id="ax" overflow="visible"><path d="m6.25-7.640625c-.09375-.15625-.09375-.171875-.25-.171875-.75 0-2.078125.3125-2.65625 1.234375-.15625-.3125-.6875-1.109375-1.515625-1.109375-.75 0-1.234375.6875-1.234375 1.3125 0 .40625.25.6875.5625 1 .609375.609375.609375.78125.609375 1.1875 0 .640625-.0625 1.296875-.53125 1.296875-.296875 0-.34375-.40625-.359375-.59375 0-.09375-.015625-.1875-.140625-.1875-.140625 0-.140625.125-.140625.171875 0 .203125.109375.84375.640625.84375.875 0 .875-1.390625.875-1.640625 0-.328125-.015625-.734375-.75-1.421875-.3125-.28125-.4375-.4375-.4375-.6875 0-.46875.328125-1.046875.890625-1.046875s1 .859375 1 2.125v3.21875c0 .109375 0 2.109375-.703125 2.109375-.40625 0-.8125-.34375-1.046875-1.03125.03125 0 .25-.0625.25-.171875 0-.0625-.078125-.109375-.109375-.109375-.046875 0-.1875.046875-.234375.0625-.015625-.0625-.0625-.171875-.140625-.171875-.0625 0-.140625.078125-.140625.140625 0 .03125.015625.109375.046875.140625-.0625 0-.234375.078125-.234375.15625 0 .0625.0625.125.125.125.03125 0 .15625-.046875.1875-.0625.359375.9375.90625 1.15625 1.296875 1.15625.765625 0 1.625-.984375 1.625-3.203125v-.796875h1.265625l.140625 2.390625c0 .078125-.046875.15625-.046875.359375 0 .65625.53125 1.25 1.265625 1.25.140625 0 .15625 0 .375-.140625l.78125-.625c.125-.09375.140625-.109375.140625-.15625 0-.09375-.171875-.15625-.203125-.15625-.0625 0-.453125.3125-.9375.71875-.375-.234375-.5-.59375-.5-.890625 0-.203125.03125-.234375.03125-.359375 0-.3125-.046875-.875-.0625-1.21875-.015625-.21875-.0625-1.09375-.078125-1.25.609375-.1875 1.796875-.890625 1.828125-.90625.03125-.03125.046875-.046875.046875-.109375 0-.015625-.0625-.140625-.078125-.15625zm.625 2.984375c-1 .5625-1.234375.5625-1.546875.5625h-1.59375v-.546875c0-.75-.09375-1.171875-.21875-1.515625.390625-1.046875 1.796875-1.234375 1.8125-1.234375s.078125.109375.09375.109375zm0 0"/></symbol><symbol id="ay" overflow="visible"><path d="m7.1875-2.515625c.1875 0 .375 0 .375-.203125 0-.21875-.1875-.21875-.375-.21875h-5.90625c-.1875 0-.375 0-.375.21875 0 .203125.1875.203125.375.203125zm0 0"/></symbol><symbol id="az" overflow="visible"><path d="m7.484375-4.625c.1875 0 .390625 0 .390625-.21875s-.203125-.21875-.375-.21875h-6.515625c-.1875 0-.390625 0-.390625.21875s.21875.21875.40625.21875zm.015625 4.234375c.171875 0 .375 0 .375-.21875s-.203125-.21875-.390625-.21875h-6.484375c-.1875 0-.40625 0-.40625.21875s.203125.21875.390625.21875zm0-2.125c.171875 0 .375 0 .375-.203125 0-.21875-.203125-.21875-.375-.21875h-6.515625c-.1875 0-.390625 0-.390625.21875 0 .203125.203125.203125.390625.203125zm0 0"/></symbol><symbol id="aA" overflow="visible"><path d="m4.25 9.328125-1.921875-4.25c-.078125-.171875-.140625-.171875-.171875-.171875 0 0-.0625 0-.1875.09375l-1.03125.78125c-.140625.109375-.140625.140625-.140625.171875 0 .0625.03125.125.109375.125.0625 0 .25-.15625.375-.25.0625-.046875.21875-.171875.34375-.25l2.15625 4.71875c.0625.171875.125.171875.21875.171875.171875 0 .203125-.0625.28125-.21875l4.953125-10.25c.0625-.15625.0625-.203125.0625-.21875 0-.109375-.078125-.21875-.21875-.21875-.078125 0-.15625.0625-.25.234375zm0 0"/></symbol><symbol id="aB" overflow="visible"><path d="m13.8125 15.265625 1.3125-3.484375h-.265625c-.4375 1.125-1.59375 1.875-2.84375 2.203125-.21875.046875-1.296875.328125-3.390625.328125h-6.578125l5.5625-6.5c.0625-.09375.09375-.125.09375-.171875 0-.03125 0-.0625-.078125-.171875l-5.078125-6.9375h5.96875c1.46875 0 2.453125.140625 2.546875.171875.59375.078125 1.546875.265625 2.40625.8125.265625.171875 1.015625.671875 1.390625 1.546875h.265625l-1.3125-3.0625h-12.890625c-.25 0-.265625.015625-.296875.078125-.015625.03125-.015625.234375-.015625.359375l5.765625 7.890625-5.640625 6.625c-.109375.125-.109375.1875-.109375.203125 0 .109375.09375.109375.296875.109375zm0 0"/></symbol><symbol id="aC" overflow="visible"><path d="m3.296875-4.96875c0-.15625-.125-.3125-.3125-.3125-.25 0-.453125.234375-.453125.4375 0 .15625.125.296875.3125.296875.234375 0 .453125-.21875.453125-.421875zm-1.671875 5.359375c-.125.5-.515625 1.015625-1 1.015625-.125 0-.25-.03125-.265625-.046875.25-.109375.28125-.328125.28125-.40625 0-.1875-.140625-.296875-.3125-.296875-.21875 0-.4375.203125-.4375.46875 0 .296875.296875.5.75.5.484375 0 1.359375-.296875 1.59375-1.265625l.71875-2.84375c.03125-.09375.046875-.15625.046875-.28125 0-.4375-.359375-.75-.8125-.75-.84375 0-1.34375 1.109375-1.34375 1.21875 0 .078125.0625.109375.125.109375.078125 0 .09375-.03125.140625-.140625.25-.5625.65625-.96875 1.046875-.96875.171875 0 .265625.125.265625.375 0 .109375-.015625.234375-.046875.34375zm0 0"/></symbol><symbol id="aD" overflow="visible"><path d="m4-3.171875c-.359375.078125-.375.390625-.375.421875 0 .171875.140625.296875.3125.296875s.4375-.140625.4375-.484375c0-.453125-.5-.578125-.796875-.578125-.359375 0-.671875.265625-.859375.578125-.171875-.421875-.578125-.578125-.90625-.578125-.875 0-1.359375 1-1.359375 1.21875 0 .078125.0625.109375.125.109375.09375 0 .109375-.046875.125-.140625.1875-.578125.671875-.96875 1.078125-.96875.3125 0 .46875.234375.46875.515625 0 .15625-.09375.53125-.15625.78125-.0625.234375-.234375.9375-.28125 1.09375-.109375.421875-.390625.765625-.75.765625-.03125 0-.234375 0-.40625-.109375.359375-.09375.359375-.421875.359375-.4375 0-.1875-.140625-.296875-.3125-.296875-.21875 0-.453125.1875-.453125.484375 0 .375.390625.578125.796875.578125.421875 0 .71875-.3125.859375-.578125.1875.390625.546875.578125.9375.578125.859375 0 1.34375-1 1.34375-1.21875 0-.078125-.0625-.109375-.125-.109375-.09375 0-.109375.0625-.140625.140625-.15625.53125-.609375.96875-1.0625.96875-.265625 0-.453125-.171875-.453125-.515625 0-.15625.046875-.34375.15625-.78125.046875-.25.21875-.9375.265625-1.09375.109375-.421875.390625-.765625.75-.765625.046875 0 .25 0 .421875.125zm0 0"/></symbol><symbol id="aE" overflow="visible"><path d="m1.484375-.125c0 .515625-.109375.984375-.59375 1.46875-.03125.03125-.046875.046875-.046875.078125 0 .0625.0625.109375.109375.109375.09375 0 .765625-.625.765625-1.5625 0-.5-.203125-.859375-.546875-.859375-.28125 0-.4375.234375-.4375.4375 0 .234375.15625.453125.4375.453125.203125 0 .3125-.109375.3125-.125zm0 0"/></symbol><symbol id="aF" overflow="visible"><path d="m4.125-3c.03125-.109375.03125-.125.03125-.1875 0-.203125-.15625-.25-.25-.25-.046875 0-.21875.015625-.328125.21875-.015625.046875-.09375.328125-.125.5l-.484375 1.90625c0 .03125-.34375.671875-.921875.671875-.390625 0-.53125-.296875-.53125-.640625 0-.46875.265625-1.171875.453125-1.640625.078125-.203125.109375-.265625.109375-.421875 0-.4375-.359375-.671875-.71875-.671875-.796875 0-1.125 1.125-1.125 1.21875 0 .078125.0625.109375.125.109375.109375 0 .109375-.046875.140625-.125.203125-.703125.546875-.984375.828125-.984375.125 0 .1875.078125.1875.265625 0 .171875-.0625.359375-.109375.5-.328125.84375-.46875 1.25-.46875 1.625 0 .78125.59375.984375 1.0625.984375.375 0 .640625-.171875.84375-.34375-.125.4375-.203125.75-.5 1.140625-.265625.3125-.578125.53125-.9375.53125-.140625 0-.4375-.03125-.59375-.265625.421875-.03125.453125-.390625.453125-.4375 0-.1875-.15625-.296875-.3125-.296875-.1875 0-.453125.140625-.453125.53125 0 .375.34375.6875.90625.6875.8125 0 1.71875-.65625 1.96875-1.609375zm0 0"/></symbol><symbol id="aG" overflow="visible"><path d="m2.328125-5.296875c0-.015625.03125-.109375.03125-.125 0-.03125-.03125-.109375-.125-.109375-.03125 0-.28125.03125-.46875.046875l-.4375.03125c-.1875.015625-.265625.015625-.265625.15625 0 .125.109375.125.21875.125.375 0 .375.046875.375.109375 0 .03125 0 .046875-.03125.1875l-1.140625 4.53125c-.03125.125-.03125.171875-.03125.171875 0 .140625.109375.25.265625.25.265625 0 .328125-.25.359375-.359375.078125-.34375.296875-1.1875.375-1.515625.4375.046875.984375.1875.984375.65625 0 .03125 0 .078125-.015625.15625-.03125.09375-.046875.21875-.046875.25 0 .46875.34375.8125.8125.8125.328125 0 .546875-.25.640625-.390625.203125-.296875.328125-.78125.328125-.828125 0-.078125-.0625-.109375-.125-.109375-.09375 0-.109375.0625-.140625.203125-.109375.375-.3125.90625-.6875.90625-.203125 0-.25-.171875-.25-.390625 0-.109375 0-.203125.046875-.390625 0-.03125.03125-.15625.03125-.234375 0-.65625-.8125-.796875-1.21875-.859375.296875-.171875.5625-.453125.65625-.546875.4375-.4375.796875-.734375 1.1875-.734375.09375 0 .1875.03125.25.109375-.421875.0625-.421875.4375-.421875.4375 0 .171875.140625.296875.3125.296875.21875 0 .453125-.171875.453125-.5 0-.28125-.1875-.5625-.59375-.5625-.453125 0-.875.359375-1.328125.8125-.46875.453125-.65625.53125-.796875.59375zm0 0"/></symbol><g><use x="20.735" xlink:href="#a" y="11.152"/><use x="28.613552" xlink:href="#b" y="11.152"/><use x="34.674648" xlink:href="#c" y="11.152"/></g><g><use x="43.155382" xlink:href="#d" y="11.152"/><use x="47.397931" xlink:href="#e" y="11.152"/><use x="51.671026" xlink:href="#f" y="11.152"/><use x="57.125576" xlink:href="#g" y="11.152"/><use x="63.186672" xlink:href="#h" y="11.152"/><use x="67.489221" xlink:href="#i" y="11.152"/><use x="70.823042" xlink:href="#j" y="11.152"/><use x="76.277592" xlink:href="#e" y="11.152"/><use x="80.550686" xlink:href="#k" y="11.152"/><use x="89.641239" xlink:href="#f" y="11.152"/><use x="95.095789" xlink:href="#d" y="11.152"/><use x="99.338338" xlink:href="#l" y="11.152"/><use x="102.368886" xlink:href="#j" y="11.152"/><use x="107.823436" xlink:href="#g" y="11.152"/></g><g><use x="117.528172" xlink:href="#j" y="11.152"/><use x="122.982722" xlink:href="#i" y="11.152"/></g><use x="129.949273" xlink:href="#f" y="11.152"/><g><use x="139.038" xlink:href="#T" y="11.152"/><use x="144.765278" xlink:href="#U" y="11.152"/><use x="150.492555" xlink:href="#V" y="11.152"/><use x="156.219833" xlink:href="#W" y="11.152"/></g><g><use x="165.583" xlink:href="#l" y="11.152"/><use x="168.613548" xlink:href="#h" y="11.152"/></g><g><use x="176.548827" xlink:href="#m" y="11.152"/><use x="182.003377" xlink:href="#l" y="11.152"/><use x="185.033925" xlink:href="#n" y="11.152"/></g><g><use x="190.497203" xlink:href="#c" y="11.152"/><use x="195.345207" xlink:href="#g" y="11.152"/></g><g><use x="205.039033" xlink:href="#f" y="11.152"/><use x="210.493583" xlink:href="#h" y="11.152"/></g><g><use x="125.19" xlink:href="#c" y="35.66"/><use x="130.038004" xlink:href="#o" y="35.66"/><use x="135.795827" xlink:href="#p" y="35.66"/><use x="141.856923" xlink:href="#q" y="35.66"/><use x="146.099472" xlink:href="#r" y="35.66"/></g><use x="152.159" xlink:href="#aa" y="35.66"/><g><use x="159.175" xlink:href="#am" y="37.296"/><use x="161.526977" xlink:href="#an" y="37.296"/></g><g><use x="169.76" xlink:href="#r" y="35.66"/><use x="172.790548" xlink:href="#s" y="35.66"/></g><g><use x="178.854917" xlink:href="#c" y="35.66"/><use x="183.702921" xlink:href="#o" y="35.66"/><use x="189.460744" xlink:href="#p" y="35.66"/><use x="195.52184" xlink:href="#q" y="35.66"/><use x="199.764389" xlink:href="#r" y="35.66"/></g><use x="205.821" xlink:href="#ab" y="35.66"/><use x="211.587" xlink:href="#X" y="35.66"/><g><use x="220.344" xlink:href="#r" y="35.66"/><use x="223.374548" xlink:href="#s" y="35.66"/></g><g><use x="229.438917" xlink:href="#c" y="35.66"/><use x="234.286921" xlink:href="#o" y="35.66"/><use x="240.044744" xlink:href="#p" y="35.66"/><use x="246.10584" xlink:href="#q" y="35.66"/><use x="250.348389" xlink:href="#r" y="35.66"/></g><use x="256.405" xlink:href="#ac" y="35.66"/><use x="265.473" xlink:href="#ao" y="37.296"/><use x="270.206" xlink:href="#ad" y="35.66"/><use x="275.66" xlink:href="#t" y="35.66"/><g><use x="284.14728" xlink:href="#r" y="35.66"/><use x="287.177828" xlink:href="#s" y="35.66"/></g><g><use x="293.231287" xlink:href="#c" y="35.66"/><use x="298.079291" xlink:href="#o" y="35.66"/><use x="303.837114" xlink:href="#p" y="35.66"/><use x="309.89821" xlink:href="#q" y="35.66"/><use x="314.140759" xlink:href="#r" y="35.66"/></g><use x="320.205" xlink:href="#ae" y="35.66"/><use x="324.887" xlink:href="#X" y="35.66"/><g><use x="333.645" xlink:href="#r" y="35.66"/><use x="336.675548" xlink:href="#s" y="35.66"/></g><use x="114.887" xlink:href="#aw" y="52.198"/><g><use x="125.19" xlink:href="#c" y="52.198"/><use x="130.038004" xlink:href="#o" y="52.198"/><use x="135.795827" xlink:href="#p" y="52.198"/><use x="141.856923" xlink:href="#q" y="52.198"/><use x="146.099472" xlink:href="#r" y="52.198"/></g><use x="152.159" xlink:href="#af" y="52.198"/><use x="158.523" xlink:href="#ao" y="53.834"/><g><use x="166.286" xlink:href="#r" y="52.198"/><use x="169.316548" xlink:href="#s" y="52.198"/></g><g><use x="175.380917" xlink:href="#c" y="52.198"/><use x="180.228921" xlink:href="#o" y="52.198"/><use x="185.986744" xlink:href="#p" y="52.198"/><use x="192.04784" xlink:href="#q" y="52.198"/><use x="196.290389" xlink:href="#r" y="52.198"/></g><use x="202.346" xlink:href="#ab" y="52.198"/><use x="208.113" xlink:href="#X" y="52.198"/><g><use x="216.87" xlink:href="#r" y="52.198"/><use x="219.900548" xlink:href="#s" y="52.198"/></g><g><use x="225.964917" xlink:href="#c" y="52.198"/><use x="230.812921" xlink:href="#o" y="52.198"/><use x="236.570744" xlink:href="#p" y="52.198"/><use x="242.63184" xlink:href="#q" y="52.198"/><use x="246.874389" xlink:href="#r" y="52.198"/></g><use x="252.931" xlink:href="#ac" y="52.198"/><use x="261.999" xlink:href="#ao" y="53.834"/><use x="266.731" xlink:href="#ad" y="52.198"/><use x="272.186" xlink:href="#t" y="52.198"/><g><use x="280.67328" xlink:href="#r" y="52.198"/><use x="283.703828" xlink:href="#s" y="52.198"/></g><g><use x="289.757287" xlink:href="#c" y="52.198"/><use x="294.605291" xlink:href="#o" y="52.198"/><use x="300.363114" xlink:href="#p" y="52.198"/><use x="306.42421" xlink:href="#q" y="52.198"/><use x="310.666759" xlink:href="#r" y="52.198"/></g><use x="316.731" xlink:href="#ae" y="52.198"/><use x="321.413" xlink:href="#X" y="52.198"/><g><use x="330.17" xlink:href="#r" y="52.198"/><use x="333.200548" xlink:href="#s" y="52.198"/></g><g><use x="339.264917" xlink:href="#c" y="52.198"/><use x="344.112921" xlink:href="#o" y="52.198"/><use x="349.870744" xlink:href="#p" y="52.198"/><use x="355.93184" xlink:href="#q" y="52.198"/><use x="360.174389" xlink:href="#r" y="52.198"/></g><use x="366.231" xlink:href="#aa" y="52.198"/><g><use x="373.246" xlink:href="#ap" y="53.834"/><use x="377.480514" xlink:href="#aq" y="53.834"/><use x="382.185264" xlink:href="#ar" y="53.834"/></g><g><use x="389.007" xlink:href="#r" y="52.198"/><use x="392.037548" xlink:href="#s" y="52.198"/></g><use x="399.916" xlink:href="#ag" y="52.198"/><g><use x="489.186" xlink:href="#q" y="52.198"/><use x="493.428549" xlink:href="#u" y="52.198"/><use x="498.883099" xlink:href="#v" y="52.198"/><use x="504.337649" xlink:href="#w" y="52.198"/><use x="509.792199" xlink:href="#s" y="52.198"/></g><g><use x="3.798" xlink:href="#x" y="76.706"/><use x="11.676552" xlink:href="#b" y="76.706"/><use x="17.737648" xlink:href="#c" y="76.706"/><use x="22.585652" xlink:href="#e" y="76.706"/><use x="26.858746" xlink:href="#c" y="76.706"/></g><use x="34.576" xlink:href="#X" y="76.706"/><g><use x="43.171" xlink:href="#f" y="76.706"/><use x="48.62555" xlink:href="#g" y="76.706"/><use x="54.686646" xlink:href="#y" y="76.706"/></g><use x="63.616" xlink:href="#ac" y="76.706"/><use x="72.684" xlink:href="#ao" y="78.342"/><g><use x="80.285" xlink:href="#f" y="76.706"/><use x="85.73955" xlink:href="#e" y="76.706"/><use x="90.012644" xlink:href="#c" y="76.706"/></g><g><use x="97.729742" xlink:href="#d" y="76.706"/><use x="101.972291" xlink:href="#b" y="76.706"/><use x="108.033387" xlink:href="#c" y="76.706"/></g><g><use x="115.750484" xlink:href="#z" y="76.706"/><use x="123.932309" xlink:href="#f" y="76.706"/><use x="129.386859" xlink:href="#k" y="76.706"/><use x="138.477412" xlink:href="#l" y="76.706"/><use x="141.50796" xlink:href="#A" y="76.706"/><use x="144.538508" xlink:href="#d" y="76.706"/><use x="148.781057" xlink:href="#j" y="76.706"/><use x="154.235607" xlink:href="#g" y="76.706"/><use x="160.296703" xlink:href="#l" y="76.706"/><use x="163.327251" xlink:href="#f" y="76.706"/><use x="168.781801" xlink:href="#g" y="76.706"/><use x="174.842897" xlink:href="#h" y="76.706"/></g><g><use x="182.014539" xlink:href="#j" y="76.706"/><use x="187.469089" xlink:href="#i" y="76.706"/></g><use x="193.672004" xlink:href="#f" y="76.706"/><g><use x="201.995647" xlink:href="#y" y="76.706"/><use x="208.056743" xlink:href="#e" y="76.706"/><use x="212.329837" xlink:href="#l" y="76.706"/><use x="215.360385" xlink:href="#i" y="76.706"/><use x="218.694206" xlink:href="#d" y="76.706"/></g><g><use x="225.805849" xlink:href="#j" y="76.706"/><use x="231.260399" xlink:href="#i" y="76.706"/></g><g><use x="237.463313" xlink:href="#A" y="76.706"/><use x="240.493861" xlink:href="#c" y="76.706"/><use x="245.341865" xlink:href="#g" y="76.706"/><use x="251.402961" xlink:href="#m" y="76.706"/><use x="256.857511" xlink:href="#d" y="76.706"/><use x="261.10006" xlink:href="#b" y="76.706"/></g><use x="270.024" xlink:href="#X" y="76.706"/><g><use x="278.619" xlink:href="#f" y="76.706"/><use x="284.07355" xlink:href="#g" y="76.706"/><use x="290.134646" xlink:href="#y" y="76.706"/></g><use x="299.064835" xlink:href="#f" y="76.706"/><g><use x="307.388479" xlink:href="#d" y="76.706"/><use x="311.631028" xlink:href="#b" y="76.706"/><use x="317.692123" xlink:href="#l" y="76.706"/><use x="320.722671" xlink:href="#g" y="76.706"/></g><g><use x="329.652861" xlink:href="#h" y="76.706"/><use x="333.95541" xlink:href="#c" y="76.706"/><use x="338.803414" xlink:href="#o" y="76.706"/><use x="344.561237" xlink:href="#d" y="76.706"/><use x="348.803786" xlink:href="#B" y="76.706"/><use x="354.864882" xlink:href="#p" y="76.706"/></g><g><use x="361.220523" xlink:href="#j" y="76.706"/><use x="366.675073" xlink:href="#A" y="76.706"/><use x="369.705621" xlink:href="#c" y="76.706"/></g><g><use x="377.422719" xlink:href="#C" y="76.706"/><use x="383.180542" xlink:href="#l" y="76.706"/><use x="386.21109" xlink:href="#D" y="76.706"/></g><use x="390.764548" xlink:href="#C" y="76.706"/><g><use x="399.391464" xlink:href="#x" y="76.706"/><use x="407.270016" xlink:href="#l" y="76.706"/><use x="410.300564" xlink:href="#d" y="76.706"/><use x="414.543113" xlink:href="#b" y="76.706"/></g><g><use x="423.473303" xlink:href="#l" y="76.706"/><use x="426.503851" xlink:href="#g" y="76.706"/></g><g><use x="432.259492" xlink:href="#d" y="76.706"/><use x="436.502041" xlink:href="#c" y="76.706"/><use x="441.350045" xlink:href="#m" y="76.706"/><use x="446.804595" xlink:href="#e" y="76.706"/><use x="451.077689" xlink:href="#f" y="76.706"/><use x="456.532239" xlink:href="#d" y="76.706"/><use x="460.774788" xlink:href="#c" y="76.706"/><use x="465.622792" xlink:href="#y" y="76.706"/></g><g><use x="474.552981" xlink:href="#h" y="76.706"/><use x="478.855531" xlink:href="#d" y="76.706"/><use x="483.098079" xlink:href="#e" y="76.706"/><use x="487.371174" xlink:href="#c" y="76.706"/><use x="492.219178" xlink:href="#g" y="76.706"/><use x="498.280274" xlink:href="#m" y="76.706"/><use x="503.734824" xlink:href="#d" y="76.706"/><use x="507.977373" xlink:href="#b" y="76.706"/></g><g><use x="3.798" xlink:href="#Y" y="90.255"/><use x="9.525278" xlink:href="#Z" y="90.255"/></g><use x="15.253" xlink:href="#r" y="90.255"/><use x="209.406" xlink:href="#ac" y="116.257"/><use x="218.474" xlink:href="#ao" y="117.893"/><use x="226.237" xlink:href="#E" y="116.257"/><g><use x="238.948" xlink:href="#Y" y="108.877"/><use x="244.675278" xlink:href="#Z" y="108.877"/></g><path d="m.00121875-.00125h11.45312525" fill="none" stroke="#000" stroke-miterlimit="10" stroke-width=".436" transform="matrix(1 0 0 -1 238.948 113.53)"/><g><use x="240.432" xlink:href="#F" y="123.74"/><use x="245.88655" xlink:href="#G" y="123.74"/></g><use x="251.597" xlink:href="#ax" y="116.257"/><use x="259.476" xlink:href="#q" y="116.257"/><use x="263.719" xlink:href="#ah" y="116.257"/><use x="272.378" xlink:href="#ay" y="116.257"/><g><use x="283.287" xlink:href="#ai" y="116.257"/><use x="287.045185" xlink:href="#aj" y="116.257"/></g><use x="292.785" xlink:href="#s" y="116.257"/><use x="297.027" xlink:href="#as" y="111.753"/><use x="305.396" xlink:href="#ag" y="116.257"/><g><use x="489.186" xlink:href="#q" y="116.257"/><use x="493.428549" xlink:href="#u" y="116.257"/><use x="498.883099" xlink:href="#v" y="116.257"/><use x="504.337649" xlink:href="#H" y="116.257"/><use x="509.792199" xlink:href="#s" y="116.257"/></g><g><use x="3.798" xlink:href="#e" y="145.592"/><use x="8.071094" xlink:href="#c" y="145.592"/><use x="12.919099" xlink:href="#h" y="145.592"/><use x="17.221648" xlink:href="#p" y="145.592"/></g><g><use x="23.588198" xlink:href="#c" y="145.592"/><use x="28.436202" xlink:href="#D" y="145.592"/><use x="33.284206" xlink:href="#d" y="145.592"/><use x="37.526755" xlink:href="#l" y="145.592"/><use x="40.557303" xlink:href="#n" y="145.592"/></g><g><use x="46.009672" xlink:href="#c" y="145.592"/><use x="50.857676" xlink:href="#A" y="145.592"/><use x="53.888224" xlink:href="#I" y="145.592"/></g><use x="58.740591" xlink:href="#J" y="145.592"/><g><use x="67.203871" xlink:href="#a" y="145.592"/><use x="75.082423" xlink:href="#b" y="145.592"/><use x="81.143519" xlink:href="#c" y="145.592"/></g><g><use x="89.820617" xlink:href="#D" y="145.592"/><use x="94.668621" xlink:href="#j" y="145.592"/></g><g><use x="100.428626" xlink:href="#c" y="145.592"/><use x="105.27663" xlink:href="#K" y="145.592"/><use x="114.367183" xlink:href="#c" y="145.592"/><use x="119.215187" xlink:href="#g" y="145.592"/></g><g><use x="124.970828" xlink:href="#d" y="145.592"/><use x="129.213377" xlink:href="#h" y="145.592"/></g><g><use x="137.355929" xlink:href="#f" y="145.592"/><use x="142.810479" xlink:href="#e" y="145.592"/><use x="147.083574" xlink:href="#c" y="145.592"/></g><use x="155.761" xlink:href="#ab" y="145.592"/><use x="164.884" xlink:href="#az" y="145.592"/><use x="176.725" xlink:href="#u" y="145.592"/><use x="182.18" xlink:href="#ad" y="145.592"/><use x="187.635" xlink:href="#t" y="145.592"/><use x="195.644" xlink:href="#ay" y="145.592"/><use x="206.683" xlink:href="#u" y="145.592"/><use x="212.138" xlink:href="#ad" y="145.592"/><use x="217.593" xlink:href="#aA" y="136.568"/><path d="m.00059375-.0015625h10.91015625" fill="none" stroke="#000" stroke-miterlimit="10" stroke-width=".436" transform="matrix(1 0 0 -1 226.683 136.35)"/><g><use x="226.683" xlink:href="#u" y="145.592"/><use x="232.13755" xlink:href="#t" y="145.592"/></g><g><use x="241.421194" xlink:href="#f" y="145.592"/><use x="246.875744" xlink:href="#g" y="145.592"/><use x="252.93684" xlink:href="#y" y="145.592"/></g><use x="262.833" xlink:href="#ae" y="145.592"/><use x="270.871" xlink:href="#E" y="145.592"/><use x="282.716101" xlink:href="#u" y="145.592"/><use x="288.167" xlink:href="#ad" y="145.592"/><use x="293.622" xlink:href="#t" y="145.592"/><use x="301.631" xlink:href="#ay" y="145.592"/><use x="312.671" xlink:href="#ab" y="145.592"/><use x="318.437" xlink:href="#J" y="145.592"/><use x="326.90028" xlink:href="#a" y="145.592"/><g><use x="333.873377" xlink:href="#c" y="145.592"/><use x="338.721381" xlink:href="#e" y="145.592"/><use x="342.994475" xlink:href="#k" y="145.592"/><use x="352.085028" xlink:href="#h" y="145.592"/></g><g><use x="360.216671" xlink:href="#c" y="145.592"/><use x="365.064675" xlink:href="#o" y="145.592"/><use x="370.822498" xlink:href="#p" y="145.592"/><use x="376.883594" xlink:href="#q" y="145.592"/><use x="381.126143" xlink:href="#r" y="145.592"/></g><use x="387.516" xlink:href="#aa" y="145.592"/><g><use x="394.531" xlink:href="#am" y="147.228"/><use x="396.882977" xlink:href="#an" y="147.228"/></g><g><use x="405.443" xlink:href="#r" y="145.592"/><use x="408.473548" xlink:href="#s" y="145.592"/></g><g><use x="416.545191" xlink:href="#f" y="145.592"/><use x="421.999741" xlink:href="#g" y="145.592"/><use x="428.060837" xlink:href="#y" y="145.592"/></g><g><use x="437.951027" xlink:href="#c" y="145.592"/><use x="442.799031" xlink:href="#o" y="145.592"/><use x="448.556854" xlink:href="#p" y="145.592"/><use x="454.61795" xlink:href="#q" y="145.592"/><use x="458.860499" xlink:href="#r" y="145.592"/></g><use x="465.252" xlink:href="#aa" y="145.592"/><g><use x="472.267" xlink:href="#ap" y="147.228"/><use x="476.501514" xlink:href="#aq" y="147.228"/><use x="481.206264" xlink:href="#ar" y="147.228"/></g><g><use x="488.354" xlink:href="#r" y="145.592"/><use x="491.384548" xlink:href="#s" y="145.592"/></g><g><use x="499.456191" xlink:href="#f" y="145.592"/><use x="504.910741" xlink:href="#e" y="145.592"/><use x="509.183836" xlink:href="#c" y="145.592"/></g><g><use x="3.798" xlink:href="#d" y="159.141"/><use x="8.040549" xlink:href="#e" y="159.141"/><use x="12.313643" xlink:href="#f" y="159.141"/><use x="17.768193" xlink:href="#g" y="159.141"/><use x="23.829289" xlink:href="#h" y="159.141"/><use x="28.131838" xlink:href="#i" y="159.141"/><use x="31.465659" xlink:href="#j" y="159.141"/><use x="36.920209" xlink:href="#e" y="159.141"/><use x="41.193304" xlink:href="#k" y="159.141"/><use x="50.283857" xlink:href="#f" y="159.141"/><use x="55.738407" xlink:href="#d" y="159.141"/><use x="59.980956" xlink:href="#l" y="159.141"/><use x="63.011504" xlink:href="#j" y="159.141"/><use x="68.466054" xlink:href="#g" y="159.141"/><use x="74.52715" xlink:href="#h" y="159.141"/></g><g><use x="82.855157" xlink:href="#i" y="159.141"/><use x="86.188978" xlink:href="#j" y="159.141"/><use x="91.643528" xlink:href="#e" y="159.141"/></g><g><use x="99.94208" xlink:href="#c" y="159.141"/><use x="104.790084" xlink:href="#g" y="159.141"/></g><g><use x="110.545725" xlink:href="#d" y="159.141"/><use x="114.788274" xlink:href="#e" y="159.141"/><use x="119.061369" xlink:href="#f" y="159.141"/><use x="124.515919" xlink:href="#g" y="159.141"/><use x="130.577015" xlink:href="#D" y="159.141"/><use x="135.425019" xlink:href="#c" y="159.141"/></g><g><use x="144.30939" xlink:href="#f" y="159.141"/><use x="149.76394" xlink:href="#g" y="159.141"/><use x="155.825036" xlink:href="#y" y="159.141"/></g><g><use x="165.91159" xlink:href="#c" y="159.141"/><use x="170.759594" xlink:href="#o" y="159.141"/><use x="176.517417" xlink:href="#l" y="159.141"/><use x="179.547965" xlink:href="#d" y="159.141"/></g><g><use x="187.815972" xlink:href="#g" y="159.141"/><use x="193.877067" xlink:href="#j" y="159.141"/><use x="199.331617" xlink:href="#g" y="159.141"/><use x="205.392713" xlink:href="#A" y="159.141"/><use x="208.423261" xlink:href="#l" y="159.141"/><use x="211.453809" xlink:href="#g" y="159.141"/><use x="217.514905" xlink:href="#c" y="159.141"/><use x="222.362909" xlink:href="#f" y="159.141"/><use x="227.817459" xlink:href="#e" y="159.141"/></g><g><use x="236.116012" xlink:href="#i" y="159.141"/><use x="239.449833" xlink:href="#e" y="159.141"/><use x="243.722927" xlink:href="#l" y="159.141"/><use x="246.753475" xlink:href="#g" y="159.141"/><use x="252.814571" xlink:href="#m" y="159.141"/><use x="258.269121" xlink:href="#c" y="159.141"/><use x="263.117125" xlink:href="#h" y="159.141"/><use x="267.419674" xlink:href="#J" y="159.141"/></g><g><use x="276.472045" xlink:href="#a" y="159.141"/><use x="284.350597" xlink:href="#b" y="159.141"/><use x="290.411693" xlink:href="#c" y="159.141"/></g><g><use x="299.285155" xlink:href="#d" y="159.141"/><use x="303.527704" xlink:href="#c" y="159.141"/><use x="308.375708" xlink:href="#e" y="159.141"/><use x="312.648803" xlink:href="#k" y="159.141"/></g><g><use x="325.775723" xlink:href="#c" y="159.141"/><use x="330.623727" xlink:href="#o" y="159.141"/><use x="336.38155" xlink:href="#p" y="159.141"/><use x="342.442646" xlink:href="#q" y="159.141"/><use x="346.685195" xlink:href="#r" y="159.141"/></g><use x="353.392" xlink:href="#af" y="159.141"/><use x="359.756" xlink:href="#ao" y="160.778"/><g><use x="368.171" xlink:href="#r" y="159.141"/><use x="371.201548" xlink:href="#s" y="159.141"/></g><g><use x="379.469555" xlink:href="#l" y="159.141"/><use x="382.500103" xlink:href="#h" y="159.141"/></g><use x="390.82811" xlink:href="#f" y="159.141"/><g><use x="400.319027" xlink:href="#D" y="159.141"/><use x="405.167031" xlink:href="#j" y="159.141"/><use x="410.621581" xlink:href="#e" y="159.141"/><use x="414.894675" xlink:href="#e" y="159.141"/><use x="419.16777" xlink:href="#c" y="159.141"/><use x="424.015774" xlink:href="#D" y="159.141"/><use x="428.863778" xlink:href="#d" y="159.141"/><use x="433.106327" xlink:href="#l" y="159.141"/><use x="436.136875" xlink:href="#j" y="159.141"/><use x="441.591425" xlink:href="#g" y="159.141"/></g><g><use x="451.677979" xlink:href="#d" y="159.141"/><use x="455.920528" xlink:href="#j" y="159.141"/></g><g><use x="465.400536" xlink:href="#f" y="159.141"/><use x="470.855086" xlink:href="#y" y="159.141"/><use x="476.916182" xlink:href="#L" y="159.141"/><use x="480.250002" xlink:href="#B" y="159.141"/><use x="486.311098" xlink:href="#h" y="159.141"/><use x="490.613647" xlink:href="#d" y="159.141"/></g><g><use x="498.881654" xlink:href="#d" y="159.141"/><use x="503.124203" xlink:href="#b" y="159.141"/><use x="509.185299" xlink:href="#c" y="159.141"/></g><g><use x="3.798" xlink:href="#d" y="172.69"/><use x="8.040549" xlink:href="#b" y="172.69"/><use x="14.101645" xlink:href="#l" y="172.69"/><use x="17.132193" xlink:href="#e" y="172.69"/><use x="21.405287" xlink:href="#y" y="172.69"/><use x="27.466383" xlink:href="#M" y="172.69"/><use x="31.102386" xlink:href="#j" y="172.69"/><use x="36.556936" xlink:href="#e" y="172.69"/><use x="40.830031" xlink:href="#y" y="172.69"/><use x="46.891127" xlink:href="#c" y="172.69"/><use x="51.739131" xlink:href="#e" y="172.69"/></g><g><use x="59.644956" xlink:href="#d" y="172.69"/><use x="63.887505" xlink:href="#c" y="172.69"/><use x="68.735509" xlink:href="#e" y="172.69"/><use x="73.008603" xlink:href="#k" y="172.69"/><use x="82.099156" xlink:href="#h" y="172.69"/></g><g><use x="90.045345" xlink:href="#l" y="172.69"/><use x="93.075893" xlink:href="#g" y="172.69"/></g><use x="102.768" xlink:href="#X" y="172.69"/><use x="108.495" xlink:href="#r" y="172.69"/><use x="148.993" xlink:href="#af" y="199.601"/><use x="155.356" xlink:href="#ao" y="201.238"/><use x="163.119" xlink:href="#E" y="199.601"/><use x="196.948" xlink:href="#aB" y="189.238"/><use x="174.634" xlink:href="#aC" y="213.397"/><g><use x="178.518" xlink:href="#at" y="213.397"/><use x="185.104491" xlink:href="#au" y="213.397"/></g><g><use x="188.398" xlink:href="#aD" y="213.397"/><use x="193.164917" xlink:href="#aE" y="213.397"/><use x="195.516893" xlink:href="#aF" y="213.397"/></g><use x="199.989" xlink:href="#av" y="213.397"/><g><use x="203.282" xlink:href="#aE" y="213.397"/><use x="205.633977" xlink:href="#aG" y="213.397"/></g><g><use x="210.256" xlink:href="#at" y="213.397"/><use x="216.842491" xlink:href="#au" y="213.397"/></g><g><use x="220.136" xlink:href="#aD" y="213.397"/><use x="224.902917" xlink:href="#aE" y="213.397"/><use x="227.254893" xlink:href="#aF" y="213.397"/></g><use x="231.727" xlink:href="#av" y="213.397"/><use x="236.838" xlink:href="#ay" y="199.601"/><use x="246.518" xlink:href="#ak" y="192.221"/><path d="m.00153125-.001h6.74609375" fill="none" stroke="#000" stroke-miterlimit="10" stroke-width=".436" transform="matrix(1 0 0 -1 246.518 196.874)"/><use x="247.164" xlink:href="#t" y="207.085"/><use x="254.46" xlink:href="#ac" y="199.602"/><use x="264.415" xlink:href="#ao" y="195.097"/><use x="263.528" xlink:href="#ao" y="202.377"/><g><use x="267.762" xlink:href="#aE" y="202.377"/><use x="270.113977" xlink:href="#aG" y="202.377"/></g><use x="277.659" xlink:href="#N" y="199.602"/><use x="288.568" xlink:href="#al" y="199.602"/><use x="294.826551" xlink:href="#ac" y="199.602"/><use x="303.89" xlink:href="#ao" y="201.238"/><g><use x="308.124" xlink:href="#aE" y="201.238"/><use x="310.475977" xlink:href="#aC" y="201.238"/></g><use x="314.859" xlink:href="#ac" y="199.602"/><use x="323.927" xlink:href="#ao" y="201.379"/><g><use x="328.161" xlink:href="#aE" y="201.379"/><use x="330.512977" xlink:href="#aG" y="201.379"/></g><use x="335.633" xlink:href="#ac" y="199.602"/><use x="344.701" xlink:href="#ao" y="201.379"/><g><use x="348.935" xlink:href="#aE" y="201.379"/><use x="351.286977" xlink:href="#aC" y="201.379"/></g><g><use x="354.703758" xlink:href="#aE" y="201.379"/><use x="357.055735" xlink:href="#aG" y="201.379"/></g><use x="365.81" xlink:href="#ag" y="199.602"/><g><use x="489.186" xlink:href="#q" y="199.602"/><use x="493.428549" xlink:href="#u" y="199.602"/><use x="498.883099" xlink:href="#v" y="199.602"/><use x="504.337649" xlink:href="#O" y="199.602"/><use x="509.792199" xlink:href="#s" y="199.602"/></g><g><use x="3.798" xlink:href="#x" y="238.333"/><use x="11.676552" xlink:href="#b" y="238.333"/><use x="17.737648" xlink:href="#c" y="238.333"/><use x="22.585652" xlink:href="#e" y="238.333"/><use x="26.858746" xlink:href="#c" y="238.333"/></g><use x="35.08" xlink:href="#ag" y="238.333"/><use x="39.932368" xlink:href="#ai" y="238.333"/><g><use x="47.06" xlink:href="#e" y="238.333"/><use x="51.333094" xlink:href="#c" y="238.333"/><use x="56.181099" xlink:href="#p" y="238.333"/><use x="62.242194" xlink:href="#e" y="238.333"/><use x="66.515289" xlink:href="#c" y="238.333"/><use x="71.363293" xlink:href="#h" y="238.333"/><use x="75.665842" xlink:href="#c" y="238.333"/><use x="80.513846" xlink:href="#g" y="238.333"/></g><g><use x="86.269487" xlink:href="#d" y="238.333"/><use x="90.512036" xlink:href="#h" y="238.333"/></g><g><use x="98.185497" xlink:href="#d" y="238.333"/><use x="102.428046" xlink:href="#b" y="238.333"/><use x="108.489142" xlink:href="#c" y="238.333"/></g><g><use x="116.718967" xlink:href="#y" y="238.333"/><use x="122.780063" xlink:href="#c" y="238.333"/><use x="127.628067" xlink:href="#e" y="238.333"/><use x="131.901162" xlink:href="#l" y="238.333"/><use x="134.93171" xlink:href="#n" y="238.333"/></g><g><use x="140.078623" xlink:href="#f" y="238.333"/><use x="145.533173" xlink:href="#d" y="238.333"/><use x="149.775722" xlink:href="#l" y="238.333"/><use x="152.80627" xlink:href="#n" y="238.333"/></g><use x="158.258638" xlink:href="#c" y="238.333"/><use x="166.477554" xlink:href="#P" y="238.333"/><use x="172.244104" xlink:href="#I" y="238.333"/><use x="181.37" xlink:href="#ah" y="238.333"/><g><use x="190.978" xlink:href="#j" y="238.333"/><use x="196.43255" xlink:href="#e" y="238.333"/></g><use x="204.079" xlink:href="#aj" y="238.333"/><use x="209.818" xlink:href="#J" y="238.333"/><use x="217.604916" xlink:href="#Q" y="238.333"/><use x="227.911833" xlink:href="#c" y="238.333"/><g><use x="236.130749" xlink:href="#b" y="238.333"/><use x="242.191845" xlink:href="#f" y="238.333"/></g><use x="247.34094" xlink:href="#n" y="238.333"/><use x="252.804218" xlink:href="#c" y="238.333"/><g><use x="261.023134" xlink:href="#f" y="238.333"/><use x="266.477684" xlink:href="#A" y="238.333"/><use x="269.508232" xlink:href="#h" y="238.333"/><use x="273.810781" xlink:href="#j" y="238.333"/></g><g><use x="282.636242" xlink:href="#l" y="238.333"/><use x="285.66679" xlink:href="#g" y="238.333"/></g><g><use x="291.422432" xlink:href="#d" y="238.333"/><use x="295.664981" xlink:href="#e" y="238.333"/><use x="299.938075" xlink:href="#j" y="238.333"/></g><g><use x="305.69808" xlink:href="#y" y="238.333"/><use x="311.759176" xlink:href="#B" y="238.333"/><use x="317.820272" xlink:href="#D" y="238.333"/><use x="322.668276" xlink:href="#c" y="238.333"/><use x="327.51628" xlink:href="#y" y="238.333"/></g><use x="336.948288" xlink:href="#d" y="238.333"/><use x="340.885382" xlink:href="#x" y="238.333"/><use x="348.469388" xlink:href="#j" y="238.333"/><g><use x="357.29485" xlink:href="#D" y="238.333"/><use x="362.142854" xlink:href="#j" y="238.333"/></g><g><use x="367.902859" xlink:href="#c" y="238.333"/><use x="372.750863" xlink:href="#K" y="238.333"/><use x="381.841416" xlink:href="#D" y="238.333"/><use x="386.68942" xlink:href="#l" y="238.333"/><use x="389.719968" xlink:href="#c" y="238.333"/><use x="394.567972" xlink:href="#g" y="238.333"/></g><g><use x="400.323613" xlink:href="#d" y="238.333"/><use x="404.566162" xlink:href="#h" y="238.333"/></g><use x="412.241" xlink:href="#ak" y="238.333"/><use x="422.018" xlink:href="#az" y="238.333"/><use x="433.533" xlink:href="#u" y="238.333"/><use x="438.988" xlink:href="#ad" y="238.333"/><use x="444.442" xlink:href="#O" y="238.333"/><use x="451.794" xlink:href="#ay" y="238.333"/><use x="462.176" xlink:href="#u" y="238.333"/><use x="467.631" xlink:href="#ad" y="238.333"/><use x="473.086" xlink:href="#aA" y="229.309"/><path d="m-.00121875.00015625h10.91015575" fill="none" stroke="#000" stroke-miterlimit="10" stroke-width=".436" transform="matrix(1 0 0 -1 482.177 229.09)"/><g><use x="482.177" xlink:href="#w" y="238.333"/><use x="487.63155" xlink:href="#R" y="238.333"/></g><g><use x="496.457012" xlink:href="#f" y="238.333"/><use x="501.911562" xlink:href="#g" y="238.333"/><use x="507.972658" xlink:href="#y" y="238.333"/></g><use x="3.798" xlink:href="#al" y="251.882"/><use x="13.083" xlink:href="#E" y="251.882"/><use x="24.600828" xlink:href="#u" y="251.882"/><use x="30.052" xlink:href="#ad" y="251.882"/><g><use x="35.507" xlink:href="#w" y="251.882"/><use x="40.96155" xlink:href="#S" y="251.882"/></g><use x="48.84" xlink:href="#ay" y="251.882"/><use x="59.749" xlink:href="#u" y="251.882"/><use x="65.204" xlink:href="#ad" y="251.882"/><g><use x="70.658" xlink:href="#q" y="251.882"/><use x="74.900549" xlink:href="#t" y="251.882"/><use x="80.355099" xlink:href="#w" y="251.882"/></g><use x="85.81" xlink:href="#aA" y="242.858"/><path d="m.00134375-.000625h5.45312525" fill="none" stroke="#000" stroke-miterlimit="10" stroke-width=".436" transform="matrix(1 0 0 -1 94.901 242.64)"/><g><use x="94.901" xlink:href="#F" y="251.882"/><use x="100.35555" xlink:href="#s" y="251.882"/></g><use x="108.230829" xlink:href="#J" y="251.882"/></svg>