<svg height="31pt" viewBox="0 0 410 31" width="410pt" xmlns="http://www.w3.org/2000/svg" xmlns:xlink="http://www.w3.org/1999/xlink"><symbol id="a" overflow="visible"><path d="m4.078125-6.59375c.09375-.390625.125-.515625 1.15625-.515625.328125 0 .421875 0 .421875-.203125 0-.140625-.125-.140625-.1875-.140625-.359375 0-1.25.03125-1.609375.03125-.328125 0-1.125-.03125-1.453125-.03125-.078125 0-.203125 0-.203125.21875 0 .125.09375.125.3125.125.015625 0 .21875 0 .40625.015625.203125.03125.296875.03125.296875.171875 0 .046875-.015625.078125-.046875.21875l-1.453125 5.859375c-.109375.421875-.140625.5-1 .5-.1875 0-.296875 0-.296875.21875 0 .125.109375.125.296875.125h5.046875c.265625 0 .28125 0 .34375-.1875l.859375-2.359375c.046875-.109375.046875-.140625.046875-.140625 0-.046875-.03125-.125-.140625-.125-.09375 0-.109375.046875-.171875.234375-.375 1-.859375 2.234375-2.75 2.234375h-1.015625c-.15625 0-.171875 0-.25 0-.109375-.015625-.140625-.03125-.140625-.109375 0-.03125 0-.0625.0625-.25zm0 0"/></symbol><symbol id="b" overflow="visible"><path d="m4.78125-7.765625c.0625-.140625.0625-.1875.0625-.203125 0-.109375-.09375-.203125-.21875-.203125-.078125 0-.15625.03125-.1875.09375l-3.78125 10.390625c-.0625.140625-.0625.1875-.0625.203125 0 .109375.109375.203125.21875.203125.140625 0 .1875-.0625.25-.25zm0 0"/></symbol><symbol id="c" overflow="visible"><path d="m2.109375-3.78125c.046875-.09375.078125-.15625.078125-.234375 0-.265625-.25-.4375-.46875-.4375-.3125 0-.40625.28125-.4375.390625l-1.015625 3.4375c-.03125.09375-.03125.109375-.03125.125 0 .0625.046875.078125.125.109375.15625.0625.171875.0625.1875.0625s.0625 0 .125-.140625zm0 0"/></symbol><symbol id="d" overflow="visible"><path d="m7.5-3.5625c.15625 0 .359375 0 .359375-.21875s-.203125-.21875-.359375-.21875h-6.53125c-.15625 0-.359375 0-.359375.21875s.203125.21875.375.21875zm0 2.109375c.15625 0 .359375 0 .359375-.21875s-.203125-.21875-.359375-.21875h-6.515625c-.171875 0-.375 0-.375.21875s.203125.21875.359375.21875zm0 0"/></symbol><symbol id="e" overflow="visible"><path d="m3.609375 2.625c0-.046875 0-.0625-.1875-.25-1.359375-1.375-1.703125-3.4375-1.703125-5.09375 0-1.90625.40625-3.796875 1.75-5.171875.140625-.125.140625-.140625.140625-.1875 0-.0625-.046875-.09375-.109375-.09375-.109375 0-1.09375.734375-1.734375 2.125-.5625 1.1875-.6875 2.40625-.6875 3.328125 0 .84375.125 2.15625.71875 3.390625.65625 1.34375 1.59375 2.046875 1.703125 2.046875.0625 0 .109375-.03125.109375-.09375zm0 0"/></symbol><symbol id="f" overflow="visible"><path d="m3.15625-2.71875c0-.859375-.125-2.171875-.71875-3.40625-.65625-1.34375-1.59375-2.046875-1.703125-2.046875-.0625 0-.109375.03125-.109375.09375 0 .046875 0 .0625.203125.265625 1.0625 1.078125 1.6875 2.8125 1.6875 5.09375 0 1.859375-.40625 3.78125-1.75 5.15625-.140625.125-.140625.140625-.140625.1875 0 .0625.046875.09375.109375.09375.109375 0 1.09375-.734375 1.734375-2.125.546875-1.1875.6875-2.40625.6875-3.3125zm0 0"/></symbol><symbol id="g" overflow="visible"><path d="m1.390625-.84375 1.15625-1.125c1.703125-1.5 2.34375-2.09375 2.34375-3.171875 0-1.25-.96875-2.125-2.3125-2.125-1.21875 0-2.03125 1-2.03125 1.96875 0 .625.546875.625.578125.625.1875 0 .5625-.140625.5625-.578125 0-.296875-.1875-.578125-.578125-.578125-.078125 0-.109375 0-.140625.015625.25-.703125.84375-1.109375 1.46875-1.109375 1 0 1.46875.875 1.46875 1.78125 0 .859375-.546875 1.734375-1.140625 2.40625l-2.09375 2.328125c-.125.125-.125.140625-.125.40625h4.046875l.296875-1.890625h-.265625c-.0625.3125-.125.796875-.234375.96875-.078125.078125-.796875.078125-1.046875.078125zm0 0"/></symbol><symbol id="h" overflow="visible"><path d="m3.203125-1.796875v.953125c0 .390625-.015625.5-.828125.5h-.21875v.34375c.4375-.03125 1-.03125 1.46875-.03125.453125 0 1.03125 0 1.484375.03125v-.34375h-.234375c-.8125 0-.828125-.109375-.828125-.5v-.953125h1.09375v-.34375h-1.09375v-4.953125c0-.21875 0-.296875-.171875-.296875-.09375 0-.140625 0-.21875.140625l-3.34375 5.109375v.34375zm.0625-.34375h-2.65625l2.65625-4.0625zm0 0"/></symbol><symbol id="i" overflow="visible"><path d="m2.265625-2.109375c.25.03125 1.140625.21875 1.140625 1 0 .546875-.390625.984375-1.234375.984375-.921875 0-1.3125-.609375-1.515625-1.546875-.03125-.140625-.046875-.1875-.15625-.1875-.140625 0-.140625.078125-.140625.28125v1.4375c0 .1875 0 .265625.125.265625.046875 0 .0625-.015625.265625-.21875.03125-.03125.03125-.046875.21875-.25.484375.453125.96875.46875 1.203125.46875 1.25 0 1.75-.734375 1.75-1.515625 0-.578125-.328125-.90625-.453125-1.046875-.359375-.34375-.78125-.4375-1.25-.515625-.609375-.125-1.328125-.265625-1.328125-.890625 0-.390625.28125-.828125 1.21875-.828125 1.1875 0 1.25.96875 1.265625 1.3125.015625.09375.109375.09375.140625.09375.140625 0 .140625-.046875.140625-.25v-1.109375c0-.1875 0-.265625-.125-.265625-.046875 0-.078125 0-.21875.140625-.03125.03125-.140625.140625-.1875.171875-.40625-.3125-.859375-.3125-1.015625-.3125-1.328125 0-1.75.734375-1.75 1.34375 0 .390625.171875.6875.46875.921875.34375.296875.65625.359375 1.4375.515625zm0 0"/></symbol><symbol id="j" overflow="visible"><path d="m1.9375-4.828125-1.53125.125v.34375c.703125 0 .796875.0625.796875.59375v2.9375c0 .484375-.109375.484375-.84375.484375v.34375c.34375-.015625.9375-.03125 1.203125-.03125.375 0 .765625.015625 1.125.03125v-.34375c-.71875 0-.75-.046875-.75-.46875zm.03125-1.890625c0-.34375-.265625-.578125-.578125-.578125-.328125 0-.578125.296875-.578125.578125 0 .296875.25.578125.578125.578125.3125 0 .578125-.234375.578125-.578125zm0 0"/></symbol><symbol id="k" overflow="visible"><path d="m1.203125-3.75v2.921875c0 .484375-.125.484375-.859375.484375v.34375c.390625-.015625.9375-.03125 1.234375-.03125.28125 0 .859375.015625 1.21875.03125v-.34375c-.71875 0-.84375 0-.84375-.484375v-2c0-1.140625.765625-1.75 1.46875-1.75.6875 0 .8125.59375.8125 1.203125v2.546875c0 .484375-.125.484375-.859375.484375v.34375c.390625-.015625.9375-.03125 1.234375-.03125.28125 0 .859375.015625 1.21875.03125v-.34375c-.5625 0-.828125 0-.84375-.328125v-2.078125c0-.9375 0-1.28125-.34375-1.671875-.140625-.1875-.5-.40625-1.140625-.40625-.796875 0-1.3125.46875-1.609375 1.15625v-1.15625l-1.546875.125v.34375c.765625 0 .859375.078125.859375.609375zm0 0"/></symbol><symbol id="l" overflow="visible"><path d="m3.203125-6.984375c0-.25 0-.28125-.25-.28125-.671875.703125-1.640625.703125-1.984375.703125v.328125c.21875 0 .859375 0 1.4375-.28125v5.65625c0 .390625-.046875.515625-1.015625.515625h-.359375v.34375c.390625-.03125 1.328125-.03125 1.765625-.03125s1.390625 0 1.765625.03125v-.34375h-.34375c-.984375 0-1.015625-.109375-1.015625-.515625zm0 0"/></symbol><symbol id="m" overflow="visible"><path d="m4-3.46875v.34375c0 2.5625-1.125 3.0625-1.765625 3.0625-.1875 0-.765625-.03125-1.0625-.390625.46875 0 .5625-.328125.5625-.5 0-.34375-.265625-.515625-.5-.515625-.171875 0-.5.109375-.5.53125 0 .734375.578125 1.171875 1.515625 1.171875 1.40625 0 2.734375-1.484375 2.734375-3.828125 0-2.921875-1.25-3.671875-2.21875-3.671875-.609375 0-1.140625.203125-1.609375.6875-.453125.5-.703125.953125-.703125 1.765625 0 1.359375.96875 2.4375 2.1875 2.4375.65625 0 1.109375-.453125 1.359375-1.09375zm-1.34375.84375c-.1875 0-.6875 0-1.015625-.6875-.203125-.40625-.203125-.953125-.203125-1.484375 0-.59375 0-1.109375.234375-1.5.296875-.546875.703125-.6875 1.09375-.6875.5 0 .859375.359375 1.046875.859375.125.34375.171875 1.03125.171875 1.53125 0 .90625-.375 1.96875-1.328125 1.96875zm0 0"/></symbol><symbol id="n" overflow="visible"><path d="m5.015625-3.484375c0-.875-.046875-1.75-.4375-2.5625-.5-1.046875-1.390625-1.21875-1.859375-1.21875-.640625 0-1.4375.28125-1.890625 1.296875-.34375.75-.40625 1.609375-.40625 2.484375 0 .8125.046875 1.796875.5 2.625.46875.875 1.265625 1.09375 1.796875 1.09375.578125 0 1.421875-.21875 1.890625-1.265625.359375-.75.40625-1.59375.40625-2.453125zm-2.296875 3.484375c-.421875 0-1.078125-.265625-1.265625-1.3125-.125-.65625-.125-1.671875-.125-2.3125 0-.6875 0-1.40625.09375-2 .203125-1.296875 1.015625-1.40625 1.296875-1.40625.359375 0 1.078125.203125 1.28125 1.28125.109375.609375.109375 1.4375.109375 2.125 0 .828125 0 1.5625-.125 2.265625-.15625 1.03125-.78125 1.359375-1.265625 1.359375zm0 0"/></symbol><symbol id="o" overflow="visible"><path d="m1.9375-6h.609375c.15625 0 .453125 0 .453125-.328125s-.28125-.328125-.453125-.328125h-1.765625c-.171875 0-.4375 0-.4375.328125s.28125.328125.4375.328125h.40625v5.328125h-.40625c-.171875 0-.4375 0-.4375.34375 0 .328125.28125.328125.4375.328125h4.109375c.359375 0 .4375-.09375.4375-.453125v-.96875c0-.21875 0-.4375-.375-.4375-.390625 0-.390625.21875-.390625.4375v.75h-2.625zm0 0"/></symbol><symbol id="p" overflow="visible"><path d="m3.453125-6.375c-.109375-.40625-.25-.421875-.59375-.421875-.3125 0-.5 0-.59375.421875l-1.3125 5.703125c-.15625 0-.40625 0-.46875.03125-.125.0625-.1875.171875-.1875.3125 0 .328125.28125.328125.46875.328125h1.109375c.203125 0 .453125 0 .453125-.328125 0-.34375-.21875-.34375-.609375-.34375l.25-1.125h1.765625l.25 1.125c-.390625 0-.609375 0-.609375.34375 0 .328125.265625.328125.46875.328125h1.109375c.1875 0 .46875 0 .46875-.328125 0-.140625-.0625-.25-.1875-.296875-.0625-.046875-.3125-.046875-.46875-.046875zm-.59375.46875h.015625l.703125 3.4375h-1.4375zm0 0"/></symbol><symbol id="q" overflow="visible"><path d="m2.078125-6.265625c-.140625-.359375-.296875-.390625-.59375-.390625h-.75c-.15625 0-.421875 0-.421875.3125 0 .34375.25.34375.421875.34375h.28125v5.328125h-.28125c-.15625 0-.421875 0-.421875.328125 0 .34375.25.34375.421875.34375h1.15625c.171875 0 .4375 0 .4375-.328125 0-.34375-.25-.34375-.4375-.34375h-.265625v-5.171875h.015625l2 5.453125c.140625.375.3125.390625.609375.390625.3125 0 .453125-.03125.453125-.453125v-5.546875h.265625c.171875 0 .4375 0 .4375-.328125s-.265625-.328125-.4375-.328125h-1.15625c-.171875 0-.4375 0-.4375.328125s.28125.328125.4375.328125h.28125v5.1875h-.015625zm0 0"/></symbol><symbol id="r" overflow="visible"><path d="m4.890625-2.28125c.265625 0 .515625 0 .515625-.34375 0-.3125-.28125-.3125-.4375-.3125h-1.296875c-.171875 0-.4375 0-.4375.3125 0 .34375.25.34375.4375.34375h.453125c-.140625 1.21875-.671875 1.734375-1.25 1.734375-.875 0-1.703125-1.171875-1.703125-2.78125 0-1.671875.875-2.796875 1.71875-2.796875.375 0 1.0625.25 1.25 1.4375.03125.1875.09375.3125.375.3125.375 0 .375-.234375.375-.453125v-1.515625c0-.171875 0-.4375-.328125-.4375-.21875 0-.28125.125-.4375.484375-.390625-.328125-.828125-.484375-1.28125-.484375-1.3125 0-2.421875 1.46875-2.421875 3.4375 0 2.015625 1.125 3.46875 2.421875 3.46875.625 0 1.078125-.328125 1.296875-.578125 0 .234375 0 .453125.390625.453125.359375 0 .359375-.234375.359375-.453125zm0 0"/></symbol><symbol id="s" overflow="visible"><path d="m1.0625-.671875h-.328125c-.171875 0-.453125 0-.453125.34375 0 .328125.28125.328125.453125.328125h4.296875c.375 0 .4375-.09375.4375-.453125v-.96875c0-.203125 0-.4375-.359375-.4375-.390625 0-.390625.21875-.390625.4375v.75h-2.90625v-2.453125h1.421875c0 .453125 0 .625.390625.625.359375 0 .359375-.234375.359375-.4375v-1.015625c0-.21875 0-.453125-.359375-.453125-.390625 0-.390625.171875-.390625.625h-1.421875v-2.21875h2.671875v.578125c0 .203125 0 .453125.375.453125s.375-.234375.375-.453125v-.796875c0-.328125-.0625-.4375-.4375-.4375h-4.0625c-.171875 0-.453125 0-.453125.3125 0 .34375.28125.34375.453125.34375h.328125zm0 0"/></symbol><symbol id="t" overflow="visible"><path d="m1.859375-3h1.484375c0 .453125 0 .625.390625.625.359375 0 .359375-.25.359375-.453125v-1.015625c0-.203125 0-.4375-.359375-.4375-.390625 0-.390625.171875-.390625.609375h-1.484375v-2.328125h2.734375v.578125c0 .203125 0 .453125.375.453125s.375-.234375.375-.453125v-.796875c0-.328125-.0625-.4375-.4375-.4375h-4.15625c-.171875 0-.4375 0-.4375.328125s.28125.328125.4375.328125h.359375v5.328125h-.359375c-.171875 0-.4375 0-.4375.34375 0 .328125.28125.328125.4375.328125h1.6875c.15625 0 .4375 0 .4375-.328125 0-.34375-.265625-.34375-.4375-.34375h-.578125zm0 0"/></symbol><symbol id="u" overflow="visible"><path d="m3.390625-6.34375c0-.171875 0-.4375-.328125-.4375-.203125 0-.265625.125-.328125.265625-.40625.921875-.984375 1.046875-1.1875 1.0625-.171875.015625-.40625.03125-.40625.34375 0 .265625.203125.328125.359375.328125.21875 0 .65625-.078125 1.140625-.484375v4.59375h-1c-.171875 0-.4375 0-.4375.34375 0 .328125.28125.328125.4375.328125h2.75c.15625 0 .4375 0 .4375-.328125 0-.34375-.265625-.34375-.4375-.34375h-1zm0 0"/></symbol><symbol id="v" overflow="visible"><path d="m.734375-.625c-.109375.078125-.171875.140625-.171875.28125 0 .34375.28125.34375.453125.34375h3.703125c.359375 0 .421875-.09375.421875-.453125v-.28125c0-.203125 0-.4375-.359375-.4375-.390625 0-.390625.203125-.390625.5h-2.59375c.640625-.546875 1.6875-1.375 2.15625-1.796875.6875-.625 1.1875-1.3125 1.1875-2.1875 0-1.3125-1.09375-2.125-2.421875-2.125-1.296875 0-2.15625.890625-2.15625 1.8125 0 .40625.3125.53125.5.53125.21875 0 .46875-.1875.46875-.484375 0-.140625-.046875-.28125-.140625-.359375.15625-.5.671875-.84375 1.265625-.84375.90625 0 1.734375.515625 1.734375 1.46875 0 .765625-.53125 1.390625-1.25 2zm0 0"/></symbol><symbol id="w" overflow="visible"><path d="m7.1875-2.515625c.1875 0 .375 0 .375-.203125 0-.21875-.1875-.21875-.375-.21875h-5.90625c-.1875 0-.375 0-.375.21875 0 .203125.1875.203125.375.203125zm0 0"/></symbol><symbol id="x" overflow="visible"><path d="m2.25-1.625c.125-.125.453125-.390625.59375-.5.484375-.453125.953125-.890625.953125-1.609375 0-.953125-.796875-1.5625-1.78125-1.5625-.96875 0-1.59375.71875-1.59375 1.4375 0 .390625.3125.4375.421875.4375.171875 0 .421875-.109375.421875-.421875 0-.40625-.40625-.40625-.5-.40625.234375-.59375.765625-.78125 1.15625-.78125.734375 0 1.125.625 1.125 1.296875 0 .828125-.578125 1.4375-1.53125 2.390625l-1 1.046875c-.09375.078125-.09375.09375-.09375.296875h3.140625l.234375-1.421875h-.25c-.015625.15625-.078125.546875-.171875.703125-.046875.0625-.65625.0625-.78125.0625h-1.421875zm0 0"/></symbol><use x="2.914" xlink:href="#a" y="20.582"/><use x="10.338" xlink:href="#c" y="16.078"/><use x="16.164" xlink:href="#d" y="20.582"/><use x="27.679" xlink:href="#o" y="20.582"/><use x="35.83" xlink:href="#w" y="20.582"/><use x="47.935" xlink:href="#e" y="13.202"/><g><use x="52.177" xlink:href="#p" y="13.202"/><use x="57.904278" xlink:href="#q" y="13.202"/><use x="63.631555" xlink:href="#r" y="13.202"/><use x="69.358833" xlink:href="#o" y="13.202"/><use x="75.08611" xlink:href="#s" y="13.202"/></g><g><use x="84.446118" xlink:href="#t" y="13.202"/><use x="90.173395" xlink:href="#u" y="13.202"/></g><use x="95.904" xlink:href="#f" y="13.202"/><use x="100.146" xlink:href="#x" y="9.243"/><path d="m-.00140625-.00046875h56.94531225" fill="none" stroke="#000" stroke-miterlimit="10" stroke-width=".436" transform="matrix(1 0 0 -1 47.935 17.855)"/><g><use x="68.089" xlink:href="#g" y="28.065"/><use x="73.54355" xlink:href="#h" y="28.065"/></g><use x="78.998" xlink:href="#o" y="28.065"/><g><use x="107.27" xlink:href="#i" y="13.202"/><use x="111.572549" xlink:href="#j" y="13.202"/><use x="114.603097" xlink:href="#k" y="13.202"/><use x="120.664193" xlink:href="#e" y="13.202"/><use x="124.906742" xlink:href="#e" y="13.202"/></g><g><use x="129.149" xlink:href="#p" y="13.202"/><use x="134.876278" xlink:href="#q" y="13.202"/><use x="140.603555" xlink:href="#r" y="13.202"/><use x="146.330833" xlink:href="#o" y="13.202"/><use x="152.05811" xlink:href="#s" y="13.202"/></g><g><use x="157.785" xlink:href="#e" y="13.202"/><use x="162.027549" xlink:href="#l" y="13.202"/></g><use x="169.906" xlink:href="#w" y="13.202"/><g><use x="180.815" xlink:href="#s" y="13.202"/><use x="186.542278" xlink:href="#u" y="13.202"/></g><use x="194.694" xlink:href="#w" y="13.202"/><g><use x="205.603" xlink:href="#s" y="13.202"/><use x="211.330278" xlink:href="#v" y="13.202"/></g><use x="217.057" xlink:href="#f" y="13.202"/><use x="223.724" xlink:href="#w" y="13.202"/><g><use x="234.633" xlink:href="#p" y="13.202"/><use x="240.360277" xlink:href="#s" y="13.202"/><use x="246.087555" xlink:href="#u" y="13.202"/></g><use x="254.239" xlink:href="#w" y="13.202"/><g><use x="265.148" xlink:href="#p" y="13.202"/><use x="270.875277" xlink:href="#s" y="13.202"/><use x="276.602555" xlink:href="#v" y="13.202"/></g><use x="282.329" xlink:href="#f" y="13.202"/><use x="286.572" xlink:href="#b" y="13.202"/><g><use x="292.026" xlink:href="#g" y="13.202"/><use x="297.48055" xlink:href="#f" y="13.202"/></g><path d="m-.00046875-.00046875h194.45312475" fill="none" stroke="#000" stroke-miterlimit="10" stroke-width=".436" transform="matrix(1 0 0 -1 107.27 17.855)"/><g><use x="173.784" xlink:href="#i" y="28.065"/><use x="178.086549" xlink:href="#j" y="28.065"/><use x="181.117097" xlink:href="#k" y="28.065"/><use x="187.178193" xlink:href="#e" y="28.065"/></g><g><use x="191.421" xlink:href="#p" y="28.065"/><use x="197.148278" xlink:href="#q" y="28.065"/><use x="202.875555" xlink:href="#r" y="28.065"/><use x="208.602833" xlink:href="#o" y="28.065"/><use x="214.33011" xlink:href="#s" y="28.065"/></g><use x="220.057" xlink:href="#b" y="28.065"/><g><use x="225.511" xlink:href="#g" y="28.065"/><use x="230.96555" xlink:href="#f" y="28.065"/></g><g><use x="388.64" xlink:href="#e" y="20.177"/><use x="392.882549" xlink:href="#m" y="20.177"/><use x="398.337099" xlink:href="#n" y="20.177"/><use x="403.791649" xlink:href="#f" y="20.177"/></g></svg>