<svg height="225pt" viewBox="0 0 516 225" width="516pt" xmlns="http://www.w3.org/2000/svg" xmlns:xlink="http://www.w3.org/1999/xlink"><symbol id="a" overflow="visible"><path d="m7.265625-7.390625h-6.671875l-.203125 2.46875h.28125c.140625-1.765625.3125-2.125 1.953125-2.125.203125 0 .484375 0 .59375.015625.234375.046875.234375.171875.234375.421875v5.75c0 .375 0 .515625-1.15625.515625h-.4375v.34375c.453125-.03125 1.5625-.03125 2.0625-.03125s1.625 0 2.078125.03125v-.34375h-.4375c-1.140625 0-1.140625-.140625-1.140625-.515625v-5.75c0-.21875 0-.375.1875-.421875.125-.015625.421875-.015625.625-.015625 1.640625 0 1.8125.359375 1.96875 2.125h.265625zm0 0"/></symbol><symbol id="b" overflow="visible"><path d="m1.203125-.828125c0 .484375-.125.484375-.859375.484375v.34375c.390625-.015625.9375-.03125 1.234375-.03125.28125 0 .859375.015625 1.21875.03125v-.34375c-.71875 0-.84375 0-.84375-.484375v-2c0-1.140625.765625-1.75 1.46875-1.75.6875 0 .8125.59375.8125 1.203125v2.546875c0 .484375-.125.484375-.859375.484375v.34375c.390625-.015625.9375-.03125 1.234375-.03125.28125 0 .859375.015625 1.21875.03125v-.34375c-.5625 0-.828125 0-.84375-.328125v-2.078125c0-.9375 0-1.28125-.34375-1.671875-.140625-.1875-.5-.40625-1.140625-.40625-.921875 0-1.390625.65625-1.578125 1.078125v-3.8125l-1.578125.109375v.34375c.765625 0 .859375.078125.859375.609375zm0 0"/></symbol><symbol id="c" overflow="visible"><path d="m1.21875-2.75c.0625-1.625.984375-1.890625 1.359375-1.890625 1.125 0 1.234375 1.46875 1.234375 1.890625zm-.015625.234375h3.046875c.25 0 .28125 0 .28125-.234375 0-1.078125-.59375-2.140625-1.953125-2.140625-1.265625 0-2.265625 1.125-2.265625 2.484375 0 1.46875 1.140625 2.53125 2.390625 2.53125 1.328125 0 1.828125-1.21875 1.828125-1.421875 0-.109375-.09375-.125-.140625-.125-.109375 0-.125.0625-.140625.140625-.390625 1.125-1.375 1.125-1.484375 1.125-.546875 0-.984375-.328125-1.234375-.734375-.328125-.515625-.328125-1.234375-.328125-1.625zm0 0"/></symbol><symbol id="d" overflow="visible"><path d="m1.875-4.109375v-3.453125l-1.5625.109375v.34375c.75 0 .84375.078125.84375.609375v6.5h.265625c.015625-.015625.109375-.15625.40625-.671875.15625.25.609375.796875 1.421875.796875 1.296875 0 2.4375-1.078125 2.4375-2.484375 0-1.375-1.078125-2.46875-2.3125-2.46875-.859375 0-1.328125.515625-1.5.71875zm.03125 2.859375v-2.234375c0-.21875 0-.21875.125-.390625.421875-.625 1.015625-.703125 1.28125-.703125.5 0 .890625.28125 1.140625.703125.296875.4375.328125 1.0625.328125 1.515625 0 .390625-.03125 1.046875-.34375 1.546875-.234375.328125-.640625.6875-1.234375.6875-.484375 0-.875-.25-1.140625-.65625-.15625-.234375-.15625-.265625-.15625-.46875zm0 0"/></symbol><symbol id="e" overflow="visible"><path d="m5.140625-2.328125c0-1.40625-1.09375-2.5625-2.421875-2.5625-1.359375 0-2.40625 1.1875-2.40625 2.5625 0 1.40625 1.125 2.453125 2.40625 2.453125 1.3125 0 2.421875-1.078125 2.421875-2.453125zm-2.421875 2.171875c-.46875 0-.9375-.21875-1.234375-.734375-.28125-.46875-.28125-1.140625-.28125-1.53125 0-.421875 0-1.015625.265625-1.5.296875-.5.8125-.71875 1.25-.71875.484375 0 .953125.234375 1.234375.703125s.28125 1.109375.28125 1.515625c0 .390625 0 .984375-.25 1.46875-.234375.484375-.71875.796875-1.265625.796875zm0 0"/></symbol><symbol id="f" overflow="visible"><path d="m4.140625-.59375v.71875l1.609375-.125v-.34375c-.765625 0-.859375-.078125-.859375-.609375v-6.609375l-1.5625.109375v.34375c.765625 0 .84375.078125.84375.609375v2.359375c-.3125-.390625-.78125-.6875-1.375-.6875-1.28125 0-2.421875 1.078125-2.421875 2.484375 0 1.390625 1.0625 2.46875 2.3125 2.46875.6875 0 1.1875-.375 1.453125-.71875zm0-2.921875v2.234375c0 .1875 0 .21875-.109375.390625-.328125.53125-.828125.765625-1.296875.765625-.484375 0-.875-.28125-1.140625-.6875-.28125-.453125-.3125-1.078125-.3125-1.515625 0-.40625.015625-1.0625.328125-1.546875.234375-.34375.640625-.703125 1.234375-.703125.390625 0 .84375.15625 1.1875.65625.109375.1875.109375.203125.109375.40625zm0 0"/></symbol><symbol id="g" overflow="visible"><path d="m4.53125-3.671875c.28125-.6875.828125-.6875 1.015625-.6875v-.34375c-.25.03125-.578125.03125-.828125.03125-.1875 0-.703125-.015625-.9375-.03125v.34375c.328125 0 .5.1875.5.46875 0 .109375 0 .125-.0625.265625l-1.09375 2.671875-1.21875-2.921875c-.046875-.109375-.0625-.15625-.0625-.203125 0-.28125.40625-.28125.609375-.28125v-.34375c-.28125.015625-1 .03125-1.1875.03125-.296875 0-.734375 0-1.0625-.03125v.34375c.53125 0 .734375 0 .890625.375l1.625 3.984375c-.046875.140625-.203125.5-.265625.640625-.234375.609375-.546875 1.359375-1.25 1.359375-.046875 0-.296875 0-.5-.203125.328125-.046875.421875-.28125.421875-.453125 0-.28125-.203125-.453125-.453125-.453125-.21875 0-.46875.140625-.46875.46875 0 .484375.46875.875 1 .875.6875 0 1.140625-.625 1.40625-1.234375zm0 0"/></symbol><symbol id="h" overflow="visible"><path d="m1.9375-4.828125-1.53125.125v.34375c.703125 0 .796875.0625.796875.59375v2.9375c0 .484375-.109375.484375-.84375.484375v.34375c.34375-.015625.9375-.03125 1.203125-.03125.375 0 .765625.015625 1.125.03125v-.34375c-.71875 0-.75-.046875-.75-.46875zm.03125-1.890625c0-.34375-.265625-.578125-.578125-.578125-.328125 0-.578125.296875-.578125.578125 0 .296875.25.578125.578125.578125.3125 0 .578125-.234375.578125-.578125zm0 0"/></symbol><symbol id="i" overflow="visible"><path d="m2.265625-2.109375c.25.03125 1.140625.21875 1.140625 1 0 .546875-.390625.984375-1.234375.984375-.921875 0-1.3125-.609375-1.515625-1.546875-.03125-.140625-.046875-.1875-.15625-.1875-.140625 0-.140625.078125-.140625.28125v1.4375c0 .1875 0 .265625.125.265625.046875 0 .0625-.015625.265625-.21875.03125-.03125.03125-.046875.21875-.25.484375.453125.96875.46875 1.203125.46875 1.25 0 1.75-.734375 1.75-1.515625 0-.578125-.328125-.90625-.453125-1.046875-.359375-.34375-.78125-.4375-1.25-.515625-.609375-.125-1.328125-.265625-1.328125-.890625 0-.390625.28125-.828125 1.21875-.828125 1.1875 0 1.25.96875 1.265625 1.3125.015625.09375.109375.09375.140625.09375.140625 0 .140625-.046875.140625-.25v-1.109375c0-.1875 0-.265625-.125-.265625-.046875 0-.078125 0-.21875.140625-.03125.03125-.140625.140625-.1875.171875-.40625-.3125-.859375-.3125-1.015625-.3125-1.328125 0-1.75.734375-1.75 1.34375 0 .390625.171875.6875.46875.921875.34375.296875.65625.359375 1.4375.515625zm0 0"/></symbol><symbol id="j" overflow="visible"><path d="m4.265625-.859375v.984375l1.5625-.125v-.34375c-.75 0-.84375-.078125-.84375-.609375v-3.875l-1.609375.125v.34375c.765625 0 .859375.078125.859375.609375v1.9375c0 .953125-.53125 1.6875-1.328125 1.6875-.90625 0-.953125-.5-.953125-1.078125v-3.625l-1.609375.125v.34375c.859375 0 .859375.03125.859375 1v1.640625c0 .84375 0 1.84375 1.65625 1.84375.609375 0 1.09375-.3125 1.40625-.984375zm0 0"/></symbol><symbol id="k" overflow="visible"><path d="m4.53125-3.625c.109375-.25.296875-.734375 1.015625-.734375v-.34375c-.25.03125-.578125.03125-.828125.03125-.265625 0-.765625-.015625-.9375-.03125v.34375c.390625 0 .515625.265625.515625.46875 0 .09375-.015625.140625-.0625.265625l-1.109375 2.78125-1.234375-3.046875c-.0625-.140625-.0625-.171875-.0625-.1875 0-.28125.421875-.28125.625-.28125v-.34375c-.328125.015625-.9375.03125-1.1875.03125-.296875 0-.734375 0-1.0625-.03125v.34375c.6875 0 .734375.0625.875.40625l1.578125 3.859375c.0625.15625.078125.21875.21875.21875s.1875-.109375.234375-.21875zm0 0"/></symbol><symbol id="l" overflow="visible"><path d="m1.203125-3.75v2.921875c0 .484375-.125.484375-.859375.484375v.34375c.390625-.015625.9375-.03125 1.234375-.03125.28125 0 .859375.015625 1.21875.03125v-.34375c-.71875 0-.84375 0-.84375-.484375v-2c0-1.140625.765625-1.75 1.46875-1.75.6875 0 .8125.59375.8125 1.203125v2.546875c0 .484375-.125.484375-.859375.484375v.34375c.390625-.015625.9375-.03125 1.234375-.03125.28125 0 .859375.015625 1.21875.03125v-.34375c-.5625 0-.828125 0-.84375-.328125v-2.078125c0-.9375 0-1.28125-.34375-1.671875-.140625-.1875-.5-.40625-1.140625-.40625-.796875 0-1.3125.46875-1.609375 1.15625v-1.15625l-1.546875.125v.34375c.765625 0 .859375.078125.859375.609375zm0 0"/></symbol><symbol id="m" overflow="visible"><path d="m1.890625-4.359375h1.5625v-.34375h-1.5625v-2h-.28125c0 .890625-.328125 2.0625-1.40625 2.09375v.25h.9375v3c0 1.34375 1.015625 1.484375 1.40625 1.484375.765625 0 1.078125-.78125 1.078125-1.484375v-.609375h-.28125v.59375c0 .8125-.328125 1.21875-.71875 1.21875-.734375 0-.734375-.984375-.734375-1.171875zm0 0"/></symbol><symbol id="n" overflow="visible"><path d="m7.5-3.5625c.15625 0 .359375 0 .359375-.21875s-.203125-.21875-.359375-.21875h-6.53125c-.15625 0-.359375 0-.359375.21875s.203125.21875.375.21875zm0 2.109375c.15625 0 .359375 0 .359375-.21875s-.203125-.21875-.359375-.21875h-6.515625c-.171875 0-.375 0-.375.21875s.203125.21875.359375.21875zm0 0"/></symbol><symbol id="o" overflow="visible"><path d="m3.203125-6.984375c0-.25 0-.28125-.25-.28125-.671875.703125-1.640625.703125-1.984375.703125v.328125c.21875 0 .859375 0 1.4375-.28125v5.65625c0 .390625-.046875.515625-1.015625.515625h-.359375v.34375c.390625-.03125 1.328125-.03125 1.765625-.03125s1.390625 0 1.765625.03125v-.34375h-.34375c-.984375 0-1.015625-.109375-1.015625-.515625zm0 0"/></symbol><symbol id="p" overflow="visible"><path d="m4.453125-2.515625h3.046875c.15625 0 .359375 0 .359375-.203125 0-.21875-.203125-.21875-.359375-.21875h-3.046875v-3.0625c0-.15625 0-.359375-.203125-.359375-.21875 0-.21875.203125-.21875.359375v3.0625h-3.0625c-.15625 0-.359375 0-.359375.21875 0 .203125.203125.203125.359375.203125h3.0625v3.0625c0 .15625 0 .359375.21875.359375.203125 0 .203125-.203125.203125-.359375zm0 0"/></symbol><symbol id="q" overflow="visible"><path d="m5.015625-3.484375c0-.875-.046875-1.75-.4375-2.5625-.5-1.046875-1.390625-1.21875-1.859375-1.21875-.640625 0-1.4375.28125-1.890625 1.296875-.34375.75-.40625 1.609375-.40625 2.484375 0 .8125.046875 1.796875.5 2.625.46875.875 1.265625 1.09375 1.796875 1.09375.578125 0 1.421875-.21875 1.890625-1.265625.359375-.75.40625-1.59375.40625-2.453125zm-2.296875 3.484375c-.421875 0-1.078125-.265625-1.265625-1.3125-.125-.65625-.125-1.671875-.125-2.3125 0-.6875 0-1.40625.09375-2 .203125-1.296875 1.015625-1.40625 1.296875-1.40625.359375 0 1.078125.203125 1.28125 1.28125.109375.609375.109375 1.4375.109375 2.125 0 .828125 0 1.5625-.125 2.265625-.15625 1.03125-.78125 1.359375-1.265625 1.359375zm0 0"/></symbol><symbol id="r" overflow="visible"><path d="m3.609375 2.625c0-.046875 0-.0625-.1875-.25-1.359375-1.375-1.703125-3.4375-1.703125-5.09375 0-1.90625.40625-3.796875 1.75-5.171875.140625-.125.140625-.140625.140625-.1875 0-.0625-.046875-.09375-.109375-.09375-.109375 0-1.09375.734375-1.734375 2.125-.5625 1.1875-.6875 2.40625-.6875 3.328125 0 .84375.125 2.15625.71875 3.390625.65625 1.34375 1.59375 2.046875 1.703125 2.046875.0625 0 .109375-.03125.109375-.09375zm0 0"/></symbol><symbol id="s" overflow="visible"><path d="m1.4375-3.578125v-.265625c0-2.75 1.359375-3.140625 1.90625-3.140625.265625 0 .71875.0625.96875.4375-.171875 0-.609375 0-.609375.484375 0 .34375.265625.5.5.5.1875 0 .515625-.09375.515625-.515625 0-.65625-.484375-1.1875-1.390625-1.1875-1.390625 0-2.875 1.40625-2.875 3.8125 0 2.921875 1.265625 3.6875 2.28125 3.6875 1.21875 0 2.25-1.015625 2.25-2.453125 0-1.390625-.96875-2.4375-2.1875-2.4375-.734375 0-1.140625.5625-1.359375 1.078125zm1.296875 3.515625c-.6875 0-1.015625-.65625-1.078125-.828125-.1875-.5-.1875-1.375-.1875-1.578125 0-.84375.34375-1.9375 1.328125-1.9375.171875 0 .671875 0 1.015625.671875.1875.40625.1875.96875.1875 1.5 0 .515625 0 1.0625-.1875 1.453125-.328125.65625-.828125.71875-1.078125.71875zm0 0"/></symbol><symbol id="t" overflow="visible"><path d="m3.15625-3.84375c.90625-.296875 1.53125-1.046875 1.53125-1.921875 0-.890625-.953125-1.5-2-1.5-1.109375 0-1.9375.65625-1.9375 1.484375 0 .359375.25.5625.5625.5625.328125 0 .546875-.234375.546875-.546875 0-.546875-.5-.546875-.671875-.546875.34375-.53125 1.0625-.671875 1.453125-.671875.453125 0 1.046875.234375 1.046875 1.21875 0 .125-.015625.765625-.3125 1.234375-.328125.53125-.6875.5625-.96875.578125-.078125 0-.34375.03125-.421875.03125-.09375 0-.15625.015625-.15625.125 0 .125.0625.125.25.125h.484375c.890625 0 1.296875.734375 1.296875 1.8125 0 1.484375-.75 1.796875-1.234375 1.796875-.46875 0-1.28125-.1875-1.671875-.828125.390625.046875.71875-.1875.71875-.609375 0-.390625-.28125-.609375-.609375-.609375-.25 0-.609375.15625-.609375.640625 0 .984375 1.015625 1.703125 2.203125 1.703125 1.328125 0 2.328125-.984375 2.328125-2.09375 0-.90625-.6875-1.75-1.828125-1.984375zm0 0"/></symbol><symbol id="u" overflow="visible"><path d="m3.15625-2.71875c0-.859375-.125-2.171875-.71875-3.40625-.65625-1.34375-1.59375-2.046875-1.703125-2.046875-.0625 0-.109375.03125-.109375.09375 0 .046875 0 .0625.203125.265625 1.0625 1.078125 1.6875 2.8125 1.6875 5.09375 0 1.859375-.40625 3.78125-1.75 5.15625-.140625.125-.140625.140625-.140625.1875 0 .0625.046875.09375.109375.09375.109375 0 1.09375-.734375 1.734375-2.125.546875-1.1875.6875-2.40625.6875-3.3125zm0 0"/></symbol><symbol id="v" overflow="visible"><path d="m1.9375-7.5625-1.578125.109375v.34375c.765625 0 .84375.078125.84375.609375v5.671875c0 .484375-.109375.484375-.84375.484375v.34375c.359375-.015625.9375-.03125 1.21875-.03125.265625 0 .796875.015625 1.203125.03125v-.34375c-.734375 0-.84375 0-.84375-.484375zm0 0"/></symbol><symbol id="w" overflow="visible"><path d="m1.28125-2.375c0-1.78125.890625-2.234375 1.46875-2.234375.09375 0 .78125 0 1.171875.40625-.453125.03125-.515625.359375-.515625.5 0 .28125.1875.5.5.5.28125 0 .5-.1875.5-.515625 0-.734375-.828125-1.171875-1.671875-1.171875-1.359375 0-2.359375 1.1875-2.359375 2.53125 0 1.40625 1.078125 2.484375 2.34375 2.484375 1.453125 0 1.8125-1.3125 1.8125-1.421875s-.109375-.109375-.140625-.109375c-.109375 0-.125.046875-.140625.109375-.328125 1.015625-1.03125 1.140625-1.4375 1.140625-.578125 0-1.53125-.46875-1.53125-2.21875zm0 0"/></symbol><symbol id="x" overflow="visible"><path d="m2.09375-.578125c0-.3125-.265625-.578125-.578125-.578125s-.578125.265625-.578125.578125.265625.578125.578125.578125.578125-.265625.578125-.578125zm0 0"/></symbol><symbol id="y" overflow="visible"><path d="m6.75-3.671875c.203125-.53125.53125-.6875.921875-.6875v-.34375c-.25.03125-.5625.03125-.796875.03125-.328125 0-.8125-.015625-1.015625-.03125v.34375c.390625 0 .625.203125.625.515625 0 .0625 0 .09375-.046875.234375l-1 2.796875-1.078125-3.046875c-.046875-.125-.046875-.15625-.046875-.203125 0-.296875.421875-.296875.640625-.296875v-.34375c-.3125.015625-.875.03125-1.140625.03125-.328125 0-.640625 0-.96875-.03125v.34375c.40625 0 .578125.015625.6875.15625.0625.0625.171875.390625.25.609375l-.9375 2.640625-1.03125-2.921875c-.0625-.125-.0625-.15625-.0625-.1875 0-.296875.4375-.296875.65625-.296875v-.34375c-.328125.015625-.9375.03125-1.203125.03125-.03125 0-.609375 0-1-.03125v.34375c.53125 0 .671875.03125.796875.375l1.375 3.859375c.0625.15625.09375.25.234375.25s.15625-.078125.21875-.21875l1.09375-3.09375 1.109375 3.09375c.046875.125.078125.21875.21875.21875.15625 0 .1875-.109375.21875-.21875zm0 0"/></symbol><symbol id="z" overflow="visible"><path d="m3.625-.828125c.046875.4375.34375.890625.859375.890625.234375 0 .890625-.15625.890625-1.03125v-.609375h-.265625v.609375c0 .625-.28125.703125-.390625.703125-.359375 0-.40625-.5-.40625-.546875v-2.1875c0-.453125 0-.875-.390625-1.28125-.4375-.4375-.984375-.609375-1.5-.609375-.890625 0-1.640625.515625-1.640625 1.234375 0 .328125.21875.515625.5.515625.296875 0 .5-.21875.5-.5 0-.140625-.0625-.5-.5625-.5.296875-.390625.828125-.5 1.1875-.5.53125 0 1.15625.421875 1.15625 1.390625v.40625c-.5625.03125-1.328125.0625-2.015625.390625-.8125.375-1.09375.9375-1.09375 1.421875 0 .875 1.0625 1.15625 1.75 1.15625.71875 0 1.21875-.4375 1.421875-.953125zm-.0625-1.796875v1.09375c0 1.046875-.796875 1.40625-1.28125 1.40625-.53125 0-.984375-.375-.984375-.921875 0-.59375.453125-1.5 2.265625-1.578125zm0 0"/></symbol><symbol id="A" overflow="visible"><path d="m1.828125-3.625v-1.203125l-1.515625.125v.34375c.75 0 .84375.078125.84375.609375v2.921875c0 .484375-.125.484375-.84375.484375v.34375c.421875-.015625.9375-.03125 1.234375-.03125.4375 0 .953125 0 1.390625.03125v-.34375h-.234375c-.8125 0-.828125-.109375-.828125-.5v-1.6875c0-1.078125.453125-2.046875 1.28125-2.046875.078125 0 .109375 0 .125.015625-.03125 0-.25.140625-.25.421875 0 .296875.234375.46875.46875.46875.203125 0 .46875-.140625.46875-.484375s-.34375-.671875-.8125-.671875c-.796875 0-1.1875.734375-1.328125 1.203125zm0 0"/></symbol><symbol id="B" overflow="visible"><path d="m1.90625-4.703125v-1.265625c0-.953125.53125-1.484375 1-1.484375.03125 0 .203125 0 .359375.078125-.125.046875-.328125.1875-.328125.453125s.1875.46875.46875.46875c.328125 0 .484375-.203125.484375-.46875 0-.40625-.40625-.765625-.984375-.765625-.75 0-1.6875.578125-1.6875 1.734375v1.25h-.859375v.34375h.859375v3.53125c0 .484375-.125.484375-.84375.484375v.34375c.421875-.015625.9375-.03125 1.234375-.03125.4375 0 .953125 0 1.390625.03125v-.34375h-.234375c-.796875 0-.828125-.109375-.828125-.5v-3.515625h1.25v-.34375zm0 0"/></symbol><symbol id="C" overflow="visible"><path d="m1.203125-3.75v2.921875c0 .484375-.125.484375-.859375.484375v.34375c.390625-.015625.9375-.03125 1.234375-.03125.28125 0 .859375.015625 1.21875.03125v-.34375c-.71875 0-.84375 0-.84375-.484375v-2c0-1.140625.765625-1.75 1.46875-1.75.6875 0 .8125.59375.8125 1.203125v2.546875c0 .484375-.125.484375-.859375.484375v.34375c.390625-.015625.9375-.03125 1.234375-.03125.28125 0 .859375.015625 1.21875.03125v-.34375c-.71875 0-.84375 0-.84375-.484375v-2c0-1.140625.78125-1.75 1.46875-1.75s.8125.59375.8125 1.203125v2.546875c0 .484375-.125.484375-.859375.484375v.34375c.390625-.015625.9375-.03125 1.234375-.03125.28125 0 .859375.015625 1.21875.03125v-.34375c-.5625 0-.828125 0-.84375-.328125v-2.078125c0-.9375 0-1.28125-.34375-1.671875-.140625-.1875-.5-.40625-1.140625-.40625-.921875 0-1.390625.65625-1.578125 1.078125-.15625-.953125-.96875-1.078125-1.453125-1.078125-.796875 0-1.3125.46875-1.609375 1.15625v-1.15625l-1.546875.125v.34375c.765625 0 .859375.078125.859375.609375zm0 0"/></symbol><symbol id="D" overflow="visible"><path d="m3.125-2.5625c.328125-.421875.75-.953125 1.015625-1.234375.328125-.390625.78125-.5625 1.296875-.5625v-.34375c-.296875.03125-.609375.03125-.90625.03125-.328125 0-.90625-.015625-1.046875-.03125v.34375c.234375.015625.328125.15625.328125.328125 0 .1875-.109375.328125-.171875.390625l-.671875.84375-.859375-1.09375c-.09375-.109375-.09375-.140625-.09375-.203125 0-.15625.171875-.265625.390625-.265625v-.34375c-.296875.015625-1.015625.03125-1.1875.03125-.21875 0-.734375 0-1.03125-.03125v.34375c.765625 0 .765625 0 1.28125.65625l1.078125 1.40625-1.015625 1.296875c-.53125.640625-1.171875.65625-1.40625.65625v.34375c.296875-.015625.625-.03125.90625-.03125.328125 0 .78125.015625 1.046875.03125v-.34375c-.25-.03125-.328125-.171875-.328125-.328125 0-.25.328125-.609375.984375-1.390625l.828125 1.09375c.09375.125.234375.296875.234375.359375 0 .09375-.09375.265625-.390625.265625v.34375c.328125-.015625.9375-.03125 1.171875-.03125.296875 0 .71875.015625 1.046875.03125v-.34375c-.59375 0-.78125-.015625-1.03125-.328125zm0 0"/></symbol><symbol id="E" overflow="visible"><path d="m1.875-4.09375v-.734375l-1.5625.125v.34375c.765625 0 .84375.0625.84375.546875v5.09375c0 .5-.125.5-.84375.5v.328125c.359375 0 .9375-.03125 1.21875-.03125.296875 0 .84375.03125 1.234375.03125v-.328125c-.734375 0-.859375 0-.859375-.5v-1.921875c.0625.171875.515625.765625 1.34375.765625 1.296875 0 2.4375-1.078125 2.4375-2.484375 0-1.375-1.0625-2.46875-2.28125-2.46875-.859375 0-1.3125.484375-1.53125.734375zm.03125 2.84375v-2.421875c.3125-.5625.859375-.875 1.40625-.875.796875 0 1.46875.953125 1.46875 2.1875 0 1.328125-.765625 2.234375-1.578125 2.234375-.4375 0-.84375-.21875-1.140625-.65625-.15625-.234375-.15625-.25-.15625-.46875zm0 0"/></symbol><symbol id="F" overflow="visible"><path d="m2.09375-4.125c0-.3125-.265625-.578125-.578125-.578125s-.578125.265625-.578125.578125.265625.578125.578125.578125.578125-.265625.578125-.578125zm0 3.546875c0-.3125-.265625-.578125-.578125-.578125s-.578125.265625-.578125.578125.265625.578125.578125.578125.578125-.265625.578125-.578125zm0 0"/></symbol><symbol id="G" overflow="visible"><path d="m1.390625-.84375 1.15625-1.125c1.703125-1.5 2.34375-2.09375 2.34375-3.171875 0-1.25-.96875-2.125-2.3125-2.125-1.21875 0-2.03125 1-2.03125 1.96875 0 .625.546875.625.578125.625.1875 0 .5625-.140625.5625-.578125 0-.296875-.1875-.578125-.578125-.578125-.078125 0-.109375 0-.140625.015625.25-.703125.84375-1.109375 1.46875-1.109375 1 0 1.46875.875 1.46875 1.78125 0 .859375-.546875 1.734375-1.140625 2.40625l-2.09375 2.328125c-.125.125-.125.140625-.125.40625h4.046875l.296875-1.890625h-.265625c-.0625.3125-.125.796875-.234375.96875-.078125.078125-.796875.078125-1.046875.078125zm0 0"/></symbol><symbol id="H" overflow="visible"><path d="m3.203125-1.796875v.953125c0 .390625-.015625.5-.828125.5h-.21875v.34375c.4375-.03125 1-.03125 1.46875-.03125.453125 0 1.03125 0 1.484375.03125v-.34375h-.234375c-.8125 0-.828125-.109375-.828125-.5v-.953125h1.09375v-.34375h-1.09375v-4.953125c0-.21875 0-.296875-.171875-.296875-.09375 0-.140625 0-.21875.140625l-3.34375 5.109375v.34375zm.0625-.34375h-2.65625l2.65625-4.0625zm0 0"/></symbol><symbol id="I" overflow="visible"><path d="m2.421875-3.984375v-2.6875c0-.359375.015625-.4375.53125-.4375h1.359375c1.046875 0 1.4375.921875 1.4375 1.5 0 .703125-.53125 1.625-1.75 1.625zm2.578125.09375c1.046875-.203125 1.8125-.90625 1.8125-1.71875 0-.9375-1.015625-1.84375-2.421875-1.84375h-4v.34375h.265625c.84375 0 .859375.125.859375.515625v5.75c0 .390625-.015625.5-.859375.5h-.265625v.34375h4.28125c1.453125 0 2.421875-.96875 2.421875-2 0-.9375-.890625-1.765625-2.09375-1.890625zm-.6875 3.546875h-1.359375c-.515625 0-.53125-.078125-.53125-.4375v-2.96875h2.046875c1.078125 0 1.546875 1.015625 1.546875 1.75 0 .765625-.578125 1.65625-1.703125 1.65625zm0 0"/></symbol><symbol id="J" overflow="visible"><path d="m1.15625-.828125c0 .484375-.125.484375-.84375.484375v.34375c.359375-.015625.859375-.03125 1.1875-.03125s.75.015625 1.1875.03125v-.34375c-.71875 0-.84375 0-.84375-.484375v-1.125l.703125-.59375c.828125 1.15625 1.296875 1.765625 1.296875 1.953125 0 .21875-.1875.25-.390625.25v.34375c.296875-.015625.9375-.03125 1.171875-.03125.3125 0 .625.015625.953125.03125v-.34375c-.40625 0-.65625 0-1.0625-.578125l-1.390625-1.953125c0-.015625-.0625-.078125-.0625-.109375 0-.046875.78125-.703125.890625-.796875.6875-.546875 1.140625-.578125 1.375-.578125v-.34375c-.328125.03125-.46875.03125-.765625.03125-.390625 0-1.078125-.015625-1.21875-.03125v.34375c.203125 0 .3125.125.3125.265625 0 .21875-.15625.359375-.25.421875l-1.53125 1.34375v-5.234375l-1.5625.109375v.34375c.75 0 .84375.078125.84375.609375zm0 0"/></symbol><symbol id="K" overflow="visible"><path d="m4.890625-2.1875c0-1.296875-.890625-2.390625-2.0625-2.390625-.53125 0-1 .171875-1.390625.546875v-2.125c.21875.078125.578125.140625.921875.140625 1.34375 0 2.109375-.984375 2.109375-1.125 0-.0625-.03125-.125-.109375-.125 0 0-.03125 0-.078125.03125-.21875.109375-.765625.3125-1.484375.3125-.4375 0-.9375-.0625-1.453125-.296875-.09375-.03125-.109375-.03125-.140625-.03125-.109375 0-.109375.078125-.109375.265625v3.21875c0 .203125 0 .28125.15625.28125.078125 0 .109375-.03125.140625-.09375.125-.171875.53125-.765625 1.40625-.765625.578125 0 .84375.5.9375.703125.171875.40625.1875.828125.1875 1.375 0 .375 0 1.03125-.25 1.484375-.265625.4375-.671875.71875-1.171875.71875-.796875 0-1.421875-.578125-1.609375-1.21875.03125 0 .0625.015625.1875.015625.359375 0 .546875-.265625.546875-.53125s-.1875-.53125-.546875-.53125c-.15625 0-.53125.078125-.53125.578125 0 .9375.75 1.984375 1.96875 1.984375 1.265625 0 2.375-1.046875 2.375-2.421875zm0 0"/></symbol><symbol id="L" overflow="visible"><path d="m2.453125-6.59375c0-.390625.03125-.515625.890625-.515625h.28125v-.34375c-.375.03125-1.234375.03125-1.65625.03125s-1.28125 0-1.65625-.03125v.34375h.28125c.859375 0 .890625.125.890625.515625v5.75c0 .390625-.03125.5-.890625.5h-.28125v.34375c.375-.03125 1.234375-.03125 1.65625-.03125s1.28125 0 1.65625.03125v-.34375h-.28125c-.859375 0-.890625-.109375-.890625-.5zm0 0"/></symbol><symbol id="M" overflow="visible"><path d="m2.21875-.015625c0-.6875-.265625-1.140625-.703125-1.140625-.375 0-.578125.296875-.578125.578125s.1875.578125.578125.578125c.171875 0 .3125-.0625.421875-.15625l.015625-.015625c.015625 0 .015625.015625.015625.15625 0 .703125-.296875 1.375-.78125 1.875-.0625.078125-.078125.078125-.078125.125 0 .078125.0625.125.109375.125.140625 0 1-.859375 1-2.125zm0 0"/></symbol><symbol id="N" overflow="visible"><path d="m3.59375-4.359375c.5 0 .578125.140625.578125.578125v2.953125c0 .484375-.109375.484375-.84375.484375v.34375c.359375-.015625.9375-.03125 1.203125-.03125.28125 0 .8125.015625 1.21875.03125v-.34375c-.734375 0-.859375 0-.859375-.484375v-4l-1.375.09375c-.171875.015625-.171875.015625-.1875.015625-.03125.015625-.046875.015625-.203125.015625h-1.28125v-1.234375c0-1.078125.9375-1.515625 1.609375-1.515625.328125 0 .71875.109375.9375.359375-.4375.03125-.515625.328125-.515625.5 0 .359375.296875.515625.5.515625.25 0 .5-.1875.5-.515625 0-.640625-.59375-1.09375-1.40625-1.09375-1.015625 0-2.3125.5625-2.3125 1.75v1.234375h-.859375v.34375h.859375v3.53125c0 .484375-.125.484375-.84375.484375v.34375c.359375-.015625.9375-.03125 1.203125-.03125s.8125.015625 1.203125.03125v-.34375c-.71875 0-.84375 0-.84375-.484375v-3.53125zm0 0"/></symbol><symbol id="O" overflow="visible"><path d="m.953125-.640625c-.03125.15625-.09375.40625-.09375.46875 0 .1875.15625.296875.3125.296875.140625 0 .328125-.09375.40625-.3125.015625-.015625.140625-.53125.203125-.8125l.25-.96875c.0625-.25.125-.484375.1875-.734375.03125-.1875.125-.5.140625-.546875.15625-.34375.734375-1.328125 1.78125-1.328125.484375 0 .578125.40625.578125.765625 0 .671875-.53125 2.0625-.703125 2.53125-.09375.25-.109375.390625-.109375.5 0 .515625.375.90625.890625.90625 1.03125 0 1.4375-1.59375 1.4375-1.6875 0-.109375-.109375-.109375-.140625-.109375-.109375 0-.109375.03125-.15625.203125-.21875.734375-.578125 1.34375-1.109375 1.34375-.1875 0-.265625-.109375-.265625-.359375 0-.265625.09375-.53125.1875-.765625.21875-.578125.671875-1.78125.671875-2.40625 0-.734375-.46875-1.171875-1.25-1.171875-.984375 0-1.515625.703125-1.703125.953125-.0625-.609375-.5-.953125-1-.953125-.515625 0-.71875.4375-.828125.625-.171875.375-.328125 1.015625-.328125 1.0625 0 .109375.109375.109375.140625.109375.109375 0 .109375-.015625.171875-.25.1875-.78125.40625-1.296875.796875-1.296875.21875 0 .34375.140625.34375.5 0 .234375-.03125.34375-.171875.921875zm0 0"/></symbol><symbol id="P" overflow="visible"><path d="m8.328125-6.609375c.09375-.390625.109375-.5.90625-.5.28125 0 .375 0 .375-.21875 0-.125-.125-.125-.15625-.125-.296875 0-1.09375.03125-1.390625.03125-.3125 0-1.09375-.03125-1.40625-.03125-.09375 0-.203125 0-.203125.21875 0 .125.09375.125.296875.125.015625 0 .234375 0 .421875.015625.1875.03125.28125.03125.28125.171875 0 .046875 0 .078125-.03125.21875l-.65625 2.65625h-3.328125l.640625-2.5625c.09375-.390625.125-.5.921875-.5.28125 0 .359375 0 .359375-.21875 0-.125-.109375-.125-.140625-.125-.3125 0-1.09375.03125-1.40625.03125s-1.09375-.03125-1.40625-.03125c-.078125 0-.203125 0-.203125.21875 0 .125.09375.125.3125.125.015625 0 .21875 0 .40625.015625.203125.03125.296875.03125.296875.171875 0 .046875-.015625.078125-.046875.21875l-1.453125 5.859375c-.109375.421875-.140625.5-1 .5-.1875 0-.296875 0-.296875.21875 0 .125.140625.125.15625.125.3125 0 1.078125-.03125 1.390625-.03125.21875 0 .46875.015625.6875.015625.25 0 .484375.015625.71875.015625.078125 0 .21875 0 .21875-.21875 0-.125-.109375-.125-.3125-.125-.40625 0-.703125 0-.703125-.1875 0-.0625.015625-.125.03125-.1875l.734375-2.984375h3.328125c-.453125 1.8125-.703125 2.84375-.75 3-.109375.359375-.3125.359375-1 .359375-.15625 0-.25 0-.25.21875 0 .125.125.125.15625.125.296875 0 1.078125-.03125 1.375-.03125.234375 0 .46875.015625.703125.015625s.484375.015625.703125.015625c.09375 0 .21875 0 .21875-.21875 0-.125-.09375-.125-.296875-.125-.40625 0-.71875 0-.71875-.1875 0-.0625.03125-.125.03125-.1875zm0 0"/></symbol><symbol id="Q" overflow="visible"><path d="m.484375 1.328125c-.078125.375-.109375.453125-.578125.453125-.140625 0-.25 0-.25.203125 0 .09375.046875.125.140625.125.296875 0 .609375-.03125.90625-.03125.359375 0 .734375.03125 1.078125.03125.0625 0 .203125 0 .203125-.21875 0-.109375-.109375-.109375-.265625-.109375-.546875 0-.546875-.078125-.546875-.171875 0-.140625.46875-1.921875.546875-2.1875.140625.3125.4375.703125 1 .703125 1.265625 0 2.625-1.59375 2.625-3.203125 0-1.015625-.625-1.75-1.453125-1.75-.546875 0-1.0625.40625-1.421875.828125-.109375-.59375-.578125-.828125-.984375-.828125-.5 0-.703125.4375-.8125.625-.1875.375-.328125 1.03125-.328125 1.0625 0 .109375.109375.109375.125.109375.109375 0 .125-.015625.1875-.25.1875-.78125.40625-1.296875.796875-1.296875.1875 0 .328125.078125.328125.5 0 .25-.03125.375-.0625.5625zm1.921875-4.734375c.078125-.296875.375-.59375.578125-.765625.375-.328125.6875-.40625.875-.40625.4375 0 .703125.375.703125 1.015625 0 .65625-.359375 1.90625-.5625 2.3125-.375.765625-.890625 1.125-1.296875 1.125-.71875 0-.859375-.90625-.859375-.96875 0-.015625 0-.046875.03125-.171875zm0 0"/></symbol><symbol id="R" overflow="visible"><path d="m7.71875-2.546875c.03125-.046875.0625-.125.0625-.140625s0-.125-.140625-.125c-.09375 0-.109375.0625-.140625.125-.703125 1.625-1.109375 2.34375-2.96875 2.34375h-1.59375c-.15625 0-.171875 0-.25 0-.109375-.015625-.140625-.03125-.140625-.109375 0-.03125 0-.0625.0625-.25l.734375-2.984375h1.078125c.9375 0 .9375.234375.9375.5 0 .078125 0 .203125-.078125.53125-.03125.0625-.03125.09375-.03125.125 0 .0625.046875.125.140625.125.078125 0 .109375-.0625.15625-.21875l.625-2.5625c0-.0625-.046875-.109375-.125-.109375-.109375 0-.125.0625-.15625.1875-.234375.828125-.421875 1.078125-1.4375 1.078125h-1.015625l.65625-2.625c.09375-.375.109375-.421875.578125-.421875h1.546875c1.328125 0 1.65625.3125 1.65625 1.203125 0 .265625 0 .296875-.046875.578125 0 .078125-.015625.15625-.015625.203125 0 .0625.046875.125.140625.125.125 0 .125-.0625.15625-.265625l.21875-1.890625c.03125-.296875-.03125-.296875-.296875-.296875h-5.515625c-.21875 0-.328125 0-.328125.21875 0 .125.109375.125.3125.125.40625 0 .703125 0 .703125.203125 0 .03125 0 .0625-.046875.25l-1.4375 5.78125c-.109375.421875-.140625.5-1 .5-.1875 0-.296875 0-.296875.21875 0 .125.09375.125.296875.125h5.65625c.25 0 .265625-.015625.34375-.1875zm0 0"/></symbol><symbol id="S" overflow="visible"><path d="m5.109375-4.0625c0-.578125-.28125-.765625-.484375-.765625-.265625 0-.53125.296875-.53125.53125 0 .140625.046875.203125.171875.328125.234375.21875.375.5.375.890625 0 .453125-.671875 2.953125-1.953125 2.953125-.546875 0-.796875-.375-.796875-.9375 0-.609375.296875-1.40625.625-2.3125.078125-.1875.140625-.34375.140625-.546875 0-.5-.359375-.90625-.90625-.90625-1.015625 0-1.4375 1.59375-1.4375 1.6875 0 .109375.109375.109375.140625.109375.109375 0 .109375-.015625.171875-.203125.3125-1.09375.78125-1.34375 1.09375-1.34375.09375 0 .28125 0 .28125.34375 0 .28125-.109375.5625-.1875.765625-.484375 1.265625-.625 1.765625-.625 2.234375 0 1.1875.96875 1.359375 1.46875 1.359375 1.828125 0 2.453125-3.609375 2.453125-4.1875zm0 0"/></symbol><symbol id="T" overflow="visible"><path d="m3.640625-3.296875c.0625-.28125.3125-1.28125 1.078125-1.28125.0625 0 .3125 0 .546875.140625-.296875.046875-.515625.328125-.515625.59375 0 .171875.109375.375.40625.375.25 0 .59375-.203125.59375-.625 0-.578125-.640625-.734375-1.015625-.734375-.640625 0-1.015625.578125-1.140625.84375-.28125-.734375-.875-.84375-1.1875-.84375-1.125 0-1.75 1.421875-1.75 1.6875 0 .109375.109375.109375.125.109375.09375 0 .125-.015625.140625-.125.375-1.15625 1.09375-1.421875 1.46875-1.421875.203125 0 .59375.09375.59375.734375 0 .328125-.1875 1.0625-.59375 2.59375-.171875.671875-.5625 1.125-1.03125 1.125-.078125 0-.328125 0-.546875-.140625.265625-.046875.5-.28125.5-.578125s-.234375-.390625-.390625-.390625c-.328125 0-.609375.28125-.609375.640625 0 .5.546875.71875 1.03125.71875.71875 0 1.109375-.765625 1.140625-.828125.140625.390625.53125.828125 1.1875.828125 1.109375 0 1.734375-1.40625 1.734375-1.6875 0-.109375-.09375-.109375-.125-.109375-.09375 0-.125.046875-.140625.125-.359375 1.171875-1.109375 1.421875-1.453125 1.421875-.421875 0-.59375-.34375-.59375-.71875 0-.234375.0625-.46875.171875-.953125zm0 0"/></symbol><symbol id="U" overflow="visible"><path d="m5.296875-4.15625c.046875-.15625.046875-.171875.046875-.25 0-.203125-.15625-.296875-.3125-.296875-.109375 0-.28125.0625-.390625.234375-.015625.046875-.109375.390625-.140625.59375-.078125.28125-.15625.578125-.21875.859375l-.5 1.96875c-.046875.15625-.515625.921875-1.234375.921875-.546875 0-.671875-.46875-.671875-.875 0-.5.1875-1.1875.5625-2.140625.171875-.453125.21875-.5625.21875-.78125 0-.5-.359375-.90625-.90625-.90625-1.03125 0-1.4375 1.59375-1.4375 1.6875 0 .109375.109375.109375.140625.109375.109375 0 .109375-.015625.171875-.203125.296875-1.015625.734375-1.34375 1.09375-1.34375.09375 0 .28125 0 .28125.34375 0 .28125-.109375.5625-.1875.765625-.4375 1.15625-.640625 1.78125-.640625 2.296875 0 .96875.6875 1.296875 1.34375 1.296875.421875 0 .78125-.1875 1.09375-.5-.140625.578125-.265625 1.109375-.703125 1.6875-.28125.359375-.703125.6875-1.203125.6875-.15625 0-.640625-.03125-.828125-.46875.171875 0 .3125 0 .46875-.125.109375-.09375.21875-.234375.21875-.453125 0-.328125-.296875-.375-.40625-.375-.25 0-.609375.171875-.609375.703125 0 .546875.484375.953125 1.15625.953125 1.125 0 2.25-.984375 2.546875-2.21875zm0 0"/></symbol><symbol id="V" overflow="visible"><path d="m2.09375-.578125c0-.3125-.265625-.578125-.578125-.578125s-.578125.265625-.578125.578125.265625.578125.578125.578125.578125-.265625.578125-.578125zm0 0"/></symbol><symbol id="W" overflow="visible"><path d="m6.734375-7.546875c-.046875-.21875-.0625-.265625-.25-.265625-.109375 0-.1875 0-.34375.203125l-5.515625 7.390625c-.09375.109375-.09375.125-.09375.15625 0 .046875.015625.0625.25.0625h7.515625c.1875 0 .28125 0 .28125-.109375 0-.046875 0-.109375-.015625-.15625zm-.828125.765625 1.5 6h-5.984375zm0 0"/></symbol><symbol id="X" overflow="visible"><path d="m1.859375-3h1.484375c0 .453125 0 .625.390625.625.359375 0 .359375-.25.359375-.453125v-1.015625c0-.203125 0-.4375-.359375-.4375-.390625 0-.390625.171875-.390625.609375h-1.484375v-2.328125h2.734375v.578125c0 .203125 0 .453125.375.453125s.375-.234375.375-.453125v-.796875c0-.328125-.0625-.4375-.4375-.4375h-4.15625c-.171875 0-.4375 0-.4375.328125s.28125.328125.4375.328125h.359375v5.328125h-.359375c-.171875 0-.4375 0-.4375.34375 0 .328125.28125.328125.4375.328125h1.6875c.15625 0 .4375 0 .4375-.328125 0-.34375-.265625-.34375-.4375-.34375h-.578125zm0 0"/></symbol><symbol id="Y" overflow="visible"><path d="m3.234375-6.21875c0-.328125-.0625-.4375-.4375-.4375h-1.71875c-.171875 0-.453125 0-.453125.328125s.296875.328125.4375.328125h1.421875v5.328125h-1.40625c-.171875 0-.453125 0-.453125.34375 0 .328125.296875.328125.4375.328125h3.59375c.171875 0 .4375 0 .4375-.328125 0-.34375-.265625-.34375-.4375-.34375h-1.421875zm0 0"/></symbol><symbol id="Z" overflow="visible"><path d="m5.09375-2.359375c0-1.359375-1.015625-2.4375-2.234375-2.4375s-2.234375 1.078125-2.234375 2.4375c0 1.390625 1.03125 2.421875 2.234375 2.421875s2.234375-1.046875 2.234375-2.421875zm-2.234375 1.765625c-.8125 0-1.484375-.828125-1.484375-1.84375 0-.984375.703125-1.703125 1.484375-1.703125s1.484375.71875 1.484375 1.703125c0 1.015625-.671875 1.84375-1.484375 1.84375zm0 0"/></symbol><symbol id="aa" overflow="visible"><path d="m2.421875-2.03125c0-1.015625.640625-2.0625 1.96875-2.0625 0 .25.1875.46875.46875.46875.234375 0 .453125-.171875.453125-.46875 0-.21875-.125-.671875-1.03125-.671875-.5625 0-1.265625.203125-1.859375.890625v-.375c0-.34375-.0625-.453125-.4375-.453125h-1.203125c-.15625 0-.4375 0-.4375.328125 0 .34375.265625.34375.4375.34375h.890625v3.359375h-.890625c-.15625 0-.4375 0-.4375.328125 0 .34375.265625.34375.4375.34375h2.84375c.171875 0 .453125 0 .453125-.328125 0-.34375-.28125-.34375-.453125-.34375h-1.203125zm0 0"/></symbol><symbol id="ab" overflow="visible"><path d="m3.015625-3.90625 1.65625-2.09375c.390625 0 .625 0 .625-.34375 0-.3125-.296875-.3125-.453125-.3125h-.96875c-.15625 0-.4375 0-.4375.328125s.296875.328125.4375.328125l-2.296875 2.90625v-2.90625h.25c.15625 0 .4375 0 .4375-.328125s-.265625-.328125-.4375-.328125h-1.09375c-.171875 0-.453125 0-.453125.3125 0 .34375.28125.34375.453125.34375h.234375v5.328125h-.234375c-.171875 0-.453125 0-.453125.328125 0 .34375.28125.34375.453125.34375h1.09375c.15625 0 .4375 0 .4375-.328125 0-.34375-.265625-.34375-.4375-.34375h-.25v-1.4375l1.015625-1.28125 1.53125 2.71875c-.15625 0-.4375 0-.4375.328125 0 .34375.265625.34375.453125.34375h.8125c.15625 0 .453125 0 .453125-.328125 0-.34375-.265625-.34375-.578125-.34375-.015625-.03125-.0625-.109375-.078125-.125zm0 0"/></symbol><symbol id="ac" overflow="visible"><path d="m3.390625-6.34375c0-.171875 0-.4375-.328125-.4375-.203125 0-.265625.125-.328125.265625-.40625.921875-.984375 1.046875-1.1875 1.0625-.171875.015625-.40625.03125-.40625.34375 0 .265625.203125.328125.359375.328125.21875 0 .65625-.078125 1.140625-.484375v4.59375h-1c-.171875 0-.4375 0-.4375.34375 0 .328125.28125.328125.4375.328125h2.75c.15625 0 .4375 0 .4375-.328125 0-.34375-.265625-.34375-.4375-.34375h-1zm0 0"/></symbol><symbol id="ad" overflow="visible"><path d="m1.9375-6h.609375c.15625 0 .453125 0 .453125-.328125s-.28125-.328125-.453125-.328125h-1.765625c-.171875 0-.4375 0-.4375.328125s.28125.328125.4375.328125h.40625v5.328125h-.40625c-.171875 0-.4375 0-.4375.34375 0 .328125.28125.328125.4375.328125h4.109375c.359375 0 .4375-.09375.4375-.453125v-.96875c0-.21875 0-.4375-.375-.4375-.390625 0-.390625.21875-.390625.4375v.75h-2.625zm0 0"/></symbol><symbol id="ae" overflow="visible"><path d="m1.0625-.671875h-.328125c-.171875 0-.453125 0-.453125.34375 0 .328125.28125.328125.453125.328125h4.296875c.375 0 .4375-.09375.4375-.453125v-.96875c0-.203125 0-.4375-.359375-.4375-.390625 0-.390625.21875-.390625.4375v.75h-2.90625v-2.453125h1.421875c0 .453125 0 .625.390625.625.359375 0 .359375-.234375.359375-.4375v-1.015625c0-.21875 0-.453125-.359375-.453125-.390625 0-.390625.171875-.390625.625h-1.421875v-2.21875h2.671875v.578125c0 .203125 0 .453125.375.453125s.375-.234375.375-.453125v-.796875c0-.328125-.0625-.4375-.4375-.4375h-4.0625c-.171875 0-.453125 0-.453125.3125 0 .34375.28125.34375.453125.34375h.328125zm0 0"/></symbol><symbol id="af" overflow="visible"><path d="m1.8125-2.671875h1.359375c1.265625 0 2.0625-.984375 2.0625-2s-.8125-1.984375-2.0625-1.984375h-2.4375c-.171875 0-.453125 0-.453125.3125 0 .34375.28125.34375.453125.34375h.328125v5.328125h-.328125c-.171875 0-.453125 0-.453125.34375 0 .328125.28125.328125.453125.328125h1.40625c.15625 0 .4375 0 .4375-.328125 0-.34375-.28125-.34375-.4375-.34375h-.328125zm0-3.328125h1.15625c1.046875 0 1.515625.75 1.515625 1.328125s-.46875 1.328125-1.515625 1.328125h-1.15625zm0 0"/></symbol><symbol id="ag" overflow="visible"><path d="m3.234375-2.984375c.296875.0625 1.203125.28125 1.203125 1.234375 0 .5625-.46875 1.203125-1.328125 1.203125-.3125 0-.84375-.046875-1.28125-.34375-.453125-.28125-.5-.75-.515625-.9375 0-.1875-.015625-.390625-.359375-.390625-.390625 0-.390625.234375-.390625.453125v1.4375c0 .171875 0 .453125.328125.453125.25 0 .3125-.15625.40625-.5.4375.328125 1.109375.5 1.796875.5 1.265625 0 2.046875-.96875 2.046875-1.9375 0-.703125-.390625-1.15625-.515625-1.296875-.453125-.4375-.75-.515625-1.59375-.703125l-.875-.203125c-.46875-.125-.875-.515625-.875-1.015625 0-.5625.53125-1.09375 1.296875-1.09375 1.296875 0 1.453125 1.03125 1.515625 1.375.046875.234375.15625.296875.375.296875.390625 0 .390625-.21875.390625-.4375v-1.453125c0-.171875 0-.4375-.328125-.4375-.265625 0-.328125.1875-.40625.515625-.453125-.390625-1.03125-.515625-1.53125-.515625-1.203125 0-2.03125.859375-2.03125 1.78125 0 .734375.5 1.453125 1.40625 1.71875.046875.015625 1.109375.265625 1.265625.296875zm0 0"/></symbol><symbol id="ah" overflow="visible"><path d="m2.71875 25.734375h2.875v-.609375h-2.265625v-24.96875h2.265625v-.59375h-2.875zm0 0"/></symbol><symbol id="ai" overflow="visible"><path d="m2.421875 25.125h-2.265625v.609375h2.859375v-26.171875h-2.859375v.59375h2.265625zm0 0"/></symbol><symbol id="aj" overflow="visible"><path d="m4.921875 19.921875c0-1.203125-.828125-3.03125-2.734375-4 1.1875-.625 2.59375-1.90625 2.71875-3.953125l.015625-.0625v-7.546875c0-.90625 0-1.09375.078125-1.515625.203125-.875.71875-1.953125 2.109375-2.765625.09375-.0625.09375-.0625.09375-.265625 0-.234375 0-.25-.25-.25-.1875 0-.21875 0-.5.171875-2.453125 1.390625-2.59375 3.421875-2.59375 3.796875v7.75c0 .796875 0 1.671875-.5625 2.671875-.5.90625-1.09375 1.34375-1.5625 1.671875-.15625.09375-.15625.109375-.15625.28125 0 .203125 0 .21875.09375.265625.921875.609375 1.921875 1.578125 2.15625 3.359375.03125.234375.03125.265625.03125.390625v8.375c0 .890625.546875 2.71875 2.65625 3.828125.25.140625.265625.140625.4375.140625.25 0 .25 0 .25-.25 0-.1875 0-.203125-.046875-.21875-.46875-.296875-1.90625-1.15625-2.1875-3.0625-.046875-.28125-.046875-.296875-.046875-.4375zm0 0"/></symbol><symbol id="ak" overflow="visible"><path d="m8.25 32.15625c0-.03125 0-.046875-.0625-.125-1.046875-1.265625-1.921875-2.65625-2.5625-4.171875-1.421875-3.34375-2-7.25-2-11.9375 0-4.640625.546875-8.71875 2.15625-12.296875.625-1.390625 1.453125-2.671875 2.4375-3.859375.015625-.03125.03125-.046875.03125-.09375 0-.109375-.078125-.109375-.234375-.109375s-.1875 0-.203125.015625-.6875.671875-1.546875 1.875c-1.890625 2.6875-2.859375 5.890625-3.34375 9.140625-.265625 1.75-.34375 3.546875-.34375 5.3125 0 4.078125.515625 8.25 2.25 11.984375.78125 1.65625 1.8125 3.15625 2.890625 4.28125.09375.09375.109375.09375.296875.09375.15625 0 .234375 0 .234375-.109375zm0 0"/></symbol><symbol id="al" overflow="visible"><path d="m6.046875 15.921875c0-4.078125-.5-8.25-2.25-11.96875-.78125-1.65625-1.8125-3.15625-2.890625-4.296875-.09375-.078125-.109375-.09375-.296875-.09375-.15625 0-.234375 0-.234375.109375 0 .046875.046875.09375.0625.125 1.046875 1.265625 1.921875 2.671875 2.5625 4.1875 1.421875 3.328125 2 7.234375 2 11.921875 0 4.65625-.546875 8.734375-2.15625 12.3125-.625 1.375-1.453125 2.671875-2.421875 3.84375-.015625.03125-.046875.0625-.046875.09375 0 .109375.078125.109375.234375.109375.171875 0 .1875 0 .203125-.015625s.6875-.671875 1.546875-1.859375c1.890625-2.6875 2.859375-5.890625 3.34375-9.140625.265625-1.765625.34375-3.546875.34375-5.328125zm0 0"/></symbol><symbol id="am" overflow="visible"><path d="m3.859375 27.484375c0 .890625 0 1.09375-.078125 1.5-.203125.875-.734375 1.953125-2.109375 2.78125-.09375.046875-.09375.0625-.09375.25 0 .25 0 .25.25.25.1875 0 .21875 0 .5-.171875 2.453125-1.375 2.59375-3.40625 2.59375-3.796875v-7.75c0-.78125 0-1.671875.5625-2.671875.484375-.84375 1.03125-1.3125 1.5625-1.65625.15625-.09375.15625-.109375.15625-.3125 0-.140625 0-.1875-.03125-.21875-.515625-.328125-1.9375-1.234375-2.21875-3.390625-.03125-.234375-.03125-.25-.03125-.390625v-8.375c0-.875-.546875-2.71875-2.65625-3.828125-.25-.140625-.265625-.140625-.4375-.140625-.25 0-.25 0-.25.25 0 .171875 0 .203125.0625.25 2.078125 1.234375 2.21875 3.0625 2.21875 3.484375v8.359375c0 1.203125.828125 3.046875 2.734375 4-1.1875.640625-2.59375 1.921875-2.71875 3.953125l-.015625.0625zm0 0"/></symbol><symbol id="an" overflow="visible"><path d="m5.0625 17.5625-2.34375-8.1875-1.515625 1.78125.171875.171875.734375-.875 2.515625 8.734375c.359375 0 .375 0 .453125-.25l5.984375-18.9375c.0625-.15625.0625-.203125.0625-.21875 0-.125-.09375-.21875-.21875-.21875-.15625 0-.203125.140625-.25.28125zm0 0"/></symbol><symbol id="ao" overflow="visible"><path d="m1.734375-7.78125c0-.203125 0-.390625-.21875-.390625s-.21875.1875-.21875.390625v10.109375c0 .203125 0 .390625.21875.390625s.21875-.1875.21875-.390625zm0 0"/></symbol><symbol id="ap" overflow="visible"><path d="m7.1875-2.515625c.1875 0 .375 0 .375-.203125 0-.21875-.1875-.21875-.375-.21875h-5.90625c-.1875 0-.375 0-.375.21875 0 .203125.1875.203125.375.203125zm0 0"/></symbol><symbol id="aq" overflow="visible"><path d="m2.25-1.625c.125-.125.453125-.390625.59375-.5.484375-.453125.953125-.890625.953125-1.609375 0-.953125-.796875-1.5625-1.78125-1.5625-.96875 0-1.59375.71875-1.59375 1.4375 0 .390625.3125.4375.421875.4375.171875 0 .421875-.109375.421875-.421875 0-.40625-.40625-.40625-.5-.40625.234375-.59375.765625-.78125 1.15625-.78125.734375 0 1.125.625 1.125 1.296875 0 .828125-.578125 1.4375-1.53125 2.390625l-1 1.046875c-.09375.078125-.09375.09375-.09375.296875h3.140625l.234375-1.421875h-.25c-.015625.15625-.078125.546875-.171875.703125-.046875.0625-.65625.0625-.78125.0625h-1.421875zm0 0"/></symbol><symbol id="ar" overflow="visible"><path d="m3.890625-2.546875c0-.84375-.078125-1.359375-.34375-1.875-.34375-.703125-1-.875-1.4375-.875-1 0-1.375.75-1.484375.96875-.28125.578125-.296875 1.375-.296875 1.78125 0 .53125.015625 1.328125.40625 1.96875.359375.59375.953125.75 1.375.75.390625 0 1.0625-.125 1.46875-.90625.296875-.578125.3125-1.296875.3125-1.8125zm-1.78125 2.484375c-.265625 0-.8125-.125-.984375-.953125-.09375-.453125-.09375-1.203125-.09375-1.625 0-.546875 0-1.109375.09375-1.546875.171875-.8125.78125-.890625.984375-.890625.265625 0 .828125.140625.984375.859375.09375.4375.09375 1.046875.09375 1.578125 0 .46875 0 1.1875-.09375 1.640625-.171875.828125-.71875.9375-.984375.9375zm0 0"/></symbol><symbol id="as" overflow="visible"><path d="m1.59375-1.3125c.03125-.109375.109375-.421875.125-.53125.109375-.4375.109375-.4375.296875-.703125.265625-.390625.640625-.75 1.171875-.75.28125 0 .453125.171875.453125.546875 0 .4375-.328125 1.34375-.484375 1.734375-.109375.265625-.109375.3125-.109375.421875 0 .453125.375.671875.71875.671875.78125 0 1.109375-1.109375 1.109375-1.21875 0-.078125-.0625-.109375-.125-.109375-.09375 0-.109375.0625-.125.140625-.1875.65625-.53125.96875-.828125.96875-.125 0-.1875-.078125-.1875-.265625s.0625-.359375.140625-.5625c.109375-.296875.46875-1.21875.46875-1.65625 0-.609375-.421875-.890625-.984375-.890625-.65625 0-1.0625.390625-1.296875.6875-.0625-.4375-.40625-.6875-.8125-.6875-.28125 0-.484375.1875-.609375.4375-.203125.375-.28125.765625-.28125.78125 0 .078125.0625.109375.125.109375.109375 0 .109375-.03125.171875-.25.09375-.390625.234375-.859375.5625-.859375.21875 0 .265625.203125.265625.375 0 .15625-.046875.296875-.109375.5625-.015625.0625-.140625.53125-.171875.640625l-.296875 1.203125c-.03125.125-.078125.3125-.078125.34375 0 .1875.15625.25.265625.25.140625 0 .265625-.09375.3125-.1875.03125-.046875.09375-.328125.125-.484375zm0 0"/></symbol><symbol id="at" overflow="visible"><path d="m4-3.171875c-.359375.078125-.375.390625-.375.421875 0 .171875.140625.296875.3125.296875s.4375-.140625.4375-.484375c0-.453125-.5-.578125-.796875-.578125-.359375 0-.671875.265625-.859375.578125-.171875-.421875-.578125-.578125-.90625-.578125-.875 0-1.359375 1-1.359375 1.21875 0 .078125.0625.109375.125.109375.09375 0 .109375-.046875.125-.140625.1875-.578125.671875-.96875 1.078125-.96875.3125 0 .46875.234375.46875.515625 0 .15625-.09375.53125-.15625.78125-.0625.234375-.234375.9375-.28125 1.09375-.109375.421875-.390625.765625-.75.765625-.03125 0-.234375 0-.40625-.109375.359375-.09375.359375-.421875.359375-.4375 0-.1875-.140625-.296875-.3125-.296875-.21875 0-.453125.1875-.453125.484375 0 .375.390625.578125.796875.578125.421875 0 .71875-.3125.859375-.578125.1875.390625.546875.578125.9375.578125.859375 0 1.34375-1 1.34375-1.21875 0-.078125-.0625-.109375-.125-.109375-.09375 0-.109375.0625-.140625.140625-.15625.53125-.609375.96875-1.0625.96875-.265625 0-.453125-.171875-.453125-.515625 0-.15625.046875-.34375.15625-.78125.046875-.25.21875-.9375.265625-1.09375.109375-.421875.390625-.765625.75-.765625.046875 0 .25 0 .421875.125zm0 0"/></symbol><symbol id="au" overflow="visible"><path d="m4.125-3c.03125-.109375.03125-.125.03125-.1875 0-.203125-.15625-.25-.25-.25-.046875 0-.21875.015625-.328125.21875-.015625.046875-.09375.328125-.125.5l-.484375 1.90625c0 .03125-.34375.671875-.921875.671875-.390625 0-.53125-.296875-.53125-.640625 0-.46875.265625-1.171875.453125-1.640625.078125-.203125.109375-.265625.109375-.421875 0-.4375-.359375-.671875-.71875-.671875-.796875 0-1.125 1.125-1.125 1.21875 0 .078125.0625.109375.125.109375.109375 0 .109375-.046875.140625-.125.203125-.703125.546875-.984375.828125-.984375.125 0 .1875.078125.1875.265625 0 .171875-.0625.359375-.109375.5-.328125.84375-.46875 1.25-.46875 1.625 0 .78125.59375.984375 1.0625.984375.375 0 .640625-.171875.84375-.34375-.125.4375-.203125.75-.5 1.140625-.265625.3125-.578125.53125-.9375.53125-.140625 0-.4375-.03125-.59375-.265625.421875-.03125.453125-.390625.453125-.4375 0-.1875-.15625-.296875-.3125-.296875-.1875 0-.453125.140625-.453125.53125 0 .375.34375.6875.90625.6875.8125 0 1.71875-.65625 1.96875-1.609375zm0 0"/></symbol><g><use x="19.735" xlink:href="#a" y="11.152"/><use x="27.613552" xlink:href="#b" y="11.152"/><use x="33.674648" xlink:href="#c" y="11.152"/></g><use x="42.155382" xlink:href="#d" y="11.152"/><use x="48.521933" xlink:href="#e" y="11.152"/><g><use x="54.281938" xlink:href="#f" y="11.152"/><use x="60.343034" xlink:href="#g" y="11.152"/></g><g><use x="69.733587" xlink:href="#h" y="11.152"/><use x="72.764135" xlink:href="#i" y="11.152"/></g><use x="80.699414" xlink:href="#i" y="11.152"/><use x="85.012873" xlink:href="#j" y="11.152"/><use x="91.063059" xlink:href="#d" y="11.152"/><g><use x="97.42961" xlink:href="#f" y="11.152"/><use x="103.490706" xlink:href="#h" y="11.152"/><use x="106.521254" xlink:href="#k" y="11.152"/><use x="112.279077" xlink:href="#h" y="11.152"/><use x="115.309625" xlink:href="#f" y="11.152"/><use x="121.370721" xlink:href="#c" y="11.152"/><use x="126.218725" xlink:href="#f" y="11.152"/></g><g><use x="135.912551" xlink:href="#h" y="11.152"/><use x="138.943099" xlink:href="#l" y="11.152"/></g><g><use x="144.70965" xlink:href="#m" y="11.152"/><use x="148.952199" xlink:href="#e" y="11.152"/></g><use x="198.72" xlink:href="#O" y="41.046"/><use x="208.298" xlink:href="#n" y="41.046"/><use x="219.815828" xlink:href="#o" y="41.046"/><use x="227.692198" xlink:href="#p" y="41.046"/><g><use x="238.601" xlink:href="#X" y="41.046"/><use x="244.328278" xlink:href="#Y" y="41.046"/><use x="250.055555" xlink:href="#Z" y="41.046"/><use x="255.782833" xlink:href="#Z" y="41.046"/><use x="261.51011" xlink:href="#aa" y="41.046"/></g><use x="269.055" xlink:href="#ah" y="25.664"/><g><use x="276.008" xlink:href="#o" y="33.666"/><use x="281.46255" xlink:href="#q" y="33.666"/></g><use x="286.917" xlink:href="#ao" y="33.666"/><g><use x="289.948" xlink:href="#ab" y="33.666"/><use x="295.675277" xlink:href="#ac" y="33.666"/><use x="301.402555" xlink:href="#ad" y="33.666"/></g><use x="307.129" xlink:href="#ao" y="33.666"/><path d="m-.0001875-.0013125h34.1523435" fill="none" stroke="#000" stroke-miterlimit="10" stroke-width=".436" transform="matrix(1 0 0 -1 276.008 38.319)"/><g><use x="284.493" xlink:href="#ae" y="48.529"/><use x="290.220277" xlink:href="#af" y="48.529"/><use x="295.947555" xlink:href="#ag" y="48.529"/></g><use x="311.355" xlink:href="#ai" y="25.664"/><g><use x="488.186" xlink:href="#r" y="41.046"/><use x="492.428549" xlink:href="#o" y="41.046"/><use x="497.883099" xlink:href="#s" y="41.046"/><use x="503.337649" xlink:href="#t" y="41.046"/><use x="508.792199" xlink:href="#u" y="41.046"/></g><g><use x="2.798" xlink:href="#i" y="71.547"/><use x="7.100549" xlink:href="#v" y="71.547"/><use x="10.131097" xlink:href="#h" y="71.547"/><use x="13.161645" xlink:href="#w" y="71.547"/><use x="18.009649" xlink:href="#c" y="71.547"/><use x="22.857653" xlink:href="#i" y="71.547"/><use x="27.160202" xlink:href="#x" y="71.547"/></g><g><use x="35.571" xlink:href="#ae" y="71.547"/><use x="41.298277" xlink:href="#af" y="71.547"/><use x="47.025555" xlink:href="#ag" y="71.547"/></g><use x="56.566" xlink:href="#n" y="71.547"/><use x="68.869283" xlink:href="#o" y="71.547"/><g><use x="78.131109" xlink:href="#h" y="71.547"/><use x="81.161657" xlink:href="#i" y="71.547"/></g><g><use x="89.282391" xlink:href="#j" y="71.547"/><use x="95.343487" xlink:href="#i" y="71.547"/><use x="99.646036" xlink:href="#c" y="71.547"/><use x="104.49404" xlink:href="#f" y="71.547"/></g><g><use x="114.362412" xlink:href="#y" y="71.547"/><use x="122.240964" xlink:href="#b" y="71.547"/><use x="128.30206" xlink:href="#c" y="71.547"/><use x="133.150064" xlink:href="#l" y="71.547"/></g><g><use x="143.026" xlink:href="#ae" y="71.547"/><use x="148.753277" xlink:href="#af" y="71.547"/><use x="154.480555" xlink:href="#ag" y="71.547"/></g><use x="164.02" xlink:href="#n" y="71.547"/><g><use x="176.323283" xlink:href="#q" y="71.547"/><use x="181.777833" xlink:href="#x" y="71.547"/></g><g><use x="190.186567" xlink:href="#a" y="71.547"/><use x="198.065119" xlink:href="#b" y="71.547"/><use x="204.126215" xlink:href="#c" y="71.547"/><use x="208.974219" xlink:href="#l" y="71.547"/></g><use x="218.842591" xlink:href="#z" y="71.547"/><g><use x="228.115326" xlink:href="#m" y="71.547"/><use x="232.357875" xlink:href="#A" y="71.547"/><use x="236.63097" xlink:href="#z" y="71.547"/><use x="242.08552" xlink:href="#l" y="71.547"/><use x="248.146616" xlink:href="#i" y="71.547"/><use x="252.449165" xlink:href="#k" y="71.547"/></g><g><use x="257.901533" xlink:href="#c" y="71.547"/><use x="262.749537" xlink:href="#A" y="71.547"/><use x="267.022631" xlink:href="#i" y="71.547"/><use x="271.32518" xlink:href="#c" y="71.547"/><use x="276.173184" xlink:href="#v" y="71.547"/><use x="279.203732" xlink:href="#g" y="71.547"/></g><g><use x="288.768831" xlink:href="#v" y="71.547"/><use x="291.799379" xlink:href="#h" y="71.547"/><use x="294.829927" xlink:href="#l" y="71.547"/><use x="300.891023" xlink:href="#c" y="71.547"/><use x="305.739027" xlink:href="#z" y="71.547"/><use x="311.193577" xlink:href="#A" y="71.547"/></g><g><use x="319.284857" xlink:href="#m" y="71.547"/><use x="323.527406" xlink:href="#A" y="71.547"/><use x="327.8005" xlink:href="#z" y="71.547"/><use x="333.25505" xlink:href="#l" y="71.547"/><use x="339.316146" xlink:href="#i" y="71.547"/><use x="343.618695" xlink:href="#B" y="71.547"/><use x="346.952516" xlink:href="#e" y="71.547"/><use x="352.407066" xlink:href="#A" y="71.547"/><use x="356.680161" xlink:href="#C" y="71.547"/><use x="365.770714" xlink:href="#z" y="71.547"/><use x="371.225264" xlink:href="#m" y="71.547"/><use x="375.467813" xlink:href="#h" y="71.547"/><use x="378.498361" xlink:href="#e" y="71.547"/><use x="383.952911" xlink:href="#l" y="71.547"/></g><g><use x="393.821282" xlink:href="#c" y="71.547"/><use x="398.669286" xlink:href="#D" y="71.547"/><use x="404.427109" xlink:href="#E" y="71.547"/><use x="410.488205" xlink:href="#r" y="71.547"/><use x="414.730754" xlink:href="#F" y="71.547"/></g><use x="421.089" xlink:href="#P" y="71.547"/><use x="430.157" xlink:href="#aq" y="73.183"/><use x="434.391" xlink:href="#as" y="73.183"/><g><use x="443.352" xlink:href="#F" y="71.547"/><use x="446.382548" xlink:href="#u" y="71.547"/></g><g><use x="454.443282" xlink:href="#h" y="71.547"/><use x="457.47383" xlink:href="#i" y="71.547"/></g><g><use x="465.583655" xlink:href="#z" y="71.547"/><use x="471.038205" xlink:href="#E" y="71.547"/><use x="477.099301" xlink:href="#E" y="71.547"/><use x="483.160397" xlink:href="#v" y="71.547"/><use x="486.190945" xlink:href="#h" y="71.547"/><use x="489.221493" xlink:href="#c" y="71.547"/><use x="494.069497" xlink:href="#f" y="71.547"/></g><g><use x="503.948778" xlink:href="#h" y="71.547"/><use x="506.979326" xlink:href="#l" y="71.547"/></g><g><use x="2.798" xlink:href="#c" y="85.096"/><use x="7.646004" xlink:href="#z" y="85.096"/><use x="13.100554" xlink:href="#w" y="85.096"/></g><use x="17.643103" xlink:href="#b" y="85.096"/><g><use x="27.347839" xlink:href="#i" y="85.096"/><use x="31.650388" xlink:href="#v" y="85.096"/><use x="34.680936" xlink:href="#h" y="85.096"/><use x="37.711484" xlink:href="#w" y="85.096"/><use x="42.559488" xlink:href="#c" y="85.096"/></g><g><use x="51.040222" xlink:href="#y" y="85.096"/><use x="58.918774" xlink:href="#h" y="85.096"/><use x="61.949322" xlink:href="#m" y="85.096"/><use x="66.191871" xlink:href="#b" y="85.096"/></g><use x="130.144" xlink:href="#P" y="116.142"/><use x="139.212" xlink:href="#aq" y="117.779"/><use x="143.447" xlink:href="#as" y="117.779"/><use x="152.113" xlink:href="#n" y="116.142"/><use x="165.371" xlink:href="#o" y="108.762"/><path d="m.00021875.0009375h6.54687525" fill="none" stroke="#000" stroke-miterlimit="10" stroke-width=".436" transform="matrix(1 0 0 -1 164.824 113.415)"/><use x="164.824" xlink:href="#O" y="123.626"/><g><use x="174.386" xlink:href="#aj" y="97.488"/><use x="183.174371" xlink:href="#ak" y="97.488"/></g><use x="191.81" xlink:href="#ap" y="116.143"/><use x="200.295" xlink:href="#Q" y="116.143"/><use x="208.208" xlink:href="#p" y="116.143"/><use x="220.312" xlink:href="#Q" y="107.641"/><use x="225.801" xlink:href="#aq" y="103.683"/><use x="225.801" xlink:href="#at" y="110.338"/><use x="233.49" xlink:href="#p" y="107.641"/><use x="244.399" xlink:href="#Q" y="107.641"/><use x="249.888" xlink:href="#aq" y="103.683"/><use x="249.888" xlink:href="#au" y="110.338"/><path d="m.0005.0009375h34.542969" fill="none" stroke="#000" stroke-miterlimit="10" stroke-width=".436" transform="matrix(1 0 0 -1 220.312 113.415)"/><use x="232.113" xlink:href="#G" y="123.626"/><use x="237.568" xlink:href="#Q" y="123.626"/><use x="258.477" xlink:href="#p" y="116.143"/><use x="271.251" xlink:href="#R" y="108.762"/><path d="m.00003125.0009375h10.01953175" fill="none" stroke="#000" stroke-miterlimit="10" stroke-width=".436" transform="matrix(1 0 0 -1 270.582 113.415)"/><use x="270.582" xlink:href="#S" y="123.626"/><use x="275.87" xlink:href="#ar" y="125.262"/><use x="281.798" xlink:href="#al" y="97.488"/><use x="292.252" xlink:href="#ad" y="116.143"/><use x="300.404" xlink:href="#p" y="116.143"/><g><use x="312.508" xlink:href="#ab" y="108.762"/><use x="318.235277" xlink:href="#ac" y="108.762"/></g><path d="m-.0001875.0009375h11.4531255" fill="none" stroke="#000" stroke-miterlimit="10" stroke-width=".436" transform="matrix(1 0 0 -1 312.508 113.415)"/><use x="315.508" xlink:href="#G" y="123.626"/><use x="325.158" xlink:href="#r" y="116.143"/><use x="329.401" xlink:href="#T" y="116.143"/><use x="335.635" xlink:href="#aq" y="111.638"/><use x="342.792" xlink:href="#ap" y="116.143"/><use x="353.701" xlink:href="#U" y="116.143"/><use x="359.441" xlink:href="#aq" y="111.638"/><use x="364.173" xlink:href="#u" y="116.143"/><use x="368.416" xlink:href="#am" y="97.488"/><use x="382.658" xlink:href="#V" y="116.143"/><g><use x="488.186" xlink:href="#r" y="116.143"/><use x="492.428549" xlink:href="#o" y="116.143"/><use x="497.883099" xlink:href="#s" y="116.143"/><use x="503.337649" xlink:href="#H" y="116.143"/><use x="508.792199" xlink:href="#u" y="116.143"/></g><g><use x="2.798" xlink:href="#I" y="155.283"/><use x="10.524916" xlink:href="#c" y="155.283"/><use x="15.37292" xlink:href="#m" y="155.283"/></g><use x="19.310014" xlink:href="#y" y="155.283"/><g><use x="26.89402" xlink:href="#c" y="155.283"/><use x="31.742024" xlink:href="#c" y="155.283"/><use x="36.590028" xlink:href="#l" y="155.283"/></g><g><use x="46.283854" xlink:href="#i" y="155.283"/><use x="50.586403" xlink:href="#v" y="155.283"/><use x="53.616951" xlink:href="#h" y="155.283"/><use x="56.647499" xlink:href="#w" y="155.283"/><use x="61.495503" xlink:href="#c" y="155.283"/><use x="66.343507" xlink:href="#i" y="155.283"/></g><g><use x="74.278787" xlink:href="#m" y="155.283"/><use x="78.521336" xlink:href="#b" y="155.283"/><use x="84.582432" xlink:href="#c" y="155.283"/></g><g><use x="93.074075" xlink:href="#w" y="155.283"/><use x="97.922079" xlink:href="#e" y="155.283"/><use x="103.376629" xlink:href="#A" y="155.283"/><use x="107.649724" xlink:href="#A" y="155.283"/><use x="111.922818" xlink:href="#c" y="155.283"/><use x="116.770822" xlink:href="#w" y="155.283"/><use x="121.618826" xlink:href="#m" y="155.283"/><use x="125.861375" xlink:href="#h" y="155.283"/><use x="128.891923" xlink:href="#e" y="155.283"/><use x="134.346473" xlink:href="#l" y="155.283"/></g><g><use x="144.0403" xlink:href="#c" y="155.283"/><use x="148.888304" xlink:href="#D" y="155.283"/><use x="154.646127" xlink:href="#E" y="155.283"/><use x="160.707222" xlink:href="#r" y="155.283"/><use x="164.949771" xlink:href="#F" y="155.283"/></g><g><use x="171.01" xlink:href="#W" y="155.283"/><use x="180.100553" xlink:href="#P" y="155.283"/></g><g><use x="193.086" xlink:href="#F" y="155.283"/><use x="196.116548" xlink:href="#u" y="155.283"/></g><g><use x="203.991827" xlink:href="#B" y="155.283"/><use x="207.325648" xlink:href="#e" y="155.283"/><use x="212.780198" xlink:href="#A" y="155.283"/></g><g><use x="220.696932" xlink:href="#m" y="155.283"/><use x="224.939481" xlink:href="#b" y="155.283"/><use x="231.000577" xlink:href="#c" y="155.283"/></g><g><use x="239.481311" xlink:href="#J" y="155.283"/><use x="245.239134" xlink:href="#h" y="155.283"/><use x="248.269682" xlink:href="#l" y="155.283"/><use x="254.330778" xlink:href="#c" y="155.283"/><use x="259.178782" xlink:href="#C" y="155.283"/><use x="268.269335" xlink:href="#z" y="155.283"/><use x="273.723885" xlink:href="#m" y="155.283"/><use x="277.966434" xlink:href="#h" y="155.283"/><use x="280.996982" xlink:href="#w" y="155.283"/><use x="285.844986" xlink:href="#z" y="155.283"/><use x="291.299536" xlink:href="#v" y="155.283"/></g><g><use x="297.962815" xlink:href="#m" y="155.283"/><use x="302.205364" xlink:href="#c" y="155.283"/><use x="307.053368" xlink:href="#A" y="155.283"/><use x="311.326462" xlink:href="#C" y="155.283"/></g><g><use x="154.283" xlink:href="#W" y="189.057"/><use x="163.373553" xlink:href="#P" y="189.057"/></g><use x="176.359" xlink:href="#n" y="189.057"/><use x="189.616" xlink:href="#o" y="181.677"/><path d="m.0013125.001875h6.5468745" fill="none" stroke="#000" stroke-miterlimit="10" stroke-width=".436" transform="matrix(1 0 0 -1 189.069 186.33)"/><use x="189.069" xlink:href="#O" y="196.54"/><use x="198.631" xlink:href="#ak" y="170.402"/><use x="207.267" xlink:href="#Q" y="189.057"/><use x="215.18" xlink:href="#ap" y="189.057"/><use x="226.089" xlink:href="#an" y="176.631"/><path d="m.001-.0010625h58.097656" fill="none" stroke="#000" stroke-miterlimit="10" stroke-width=".436" transform="matrix(1 0 0 -1 236.999 176.413)"/><use x="236.999" xlink:href="#Q" y="189.057"/><use x="242.487" xlink:href="#aq" y="185.905"/><use x="249.644" xlink:href="#ap" y="189.057"/><use x="260.553" xlink:href="#Q" y="189.057"/><use x="266.041" xlink:href="#aq" y="185.905"/><use x="266.041" xlink:href="#at" y="191.754"/><use x="273.731" xlink:href="#ap" y="189.057"/><use x="284.64" xlink:href="#Q" y="189.057"/><use x="290.128" xlink:href="#aq" y="185.905"/><use x="290.128" xlink:href="#au" y="191.754"/><use x="297.522" xlink:href="#ap" y="189.057"/><use x="309.627" xlink:href="#Q" y="180.556"/><use x="315.116" xlink:href="#aq" y="176.597"/><use x="315.116" xlink:href="#at" y="183.253"/><use x="322.805" xlink:href="#p" y="180.556"/><use x="333.714" xlink:href="#Q" y="180.556"/><use x="339.203" xlink:href="#aq" y="176.597"/><use x="339.203" xlink:href="#au" y="183.253"/><path d="m.00190625.001875h34.54296875" fill="none" stroke="#000" stroke-miterlimit="10" stroke-width=".436" transform="matrix(1 0 0 -1 309.627 186.33)"/><use x="321.428" xlink:href="#G" y="196.54"/><use x="326.883" xlink:href="#Q" y="196.54"/><use x="345.368" xlink:href="#al" y="170.402"/><use x="355.822" xlink:href="#ad" y="189.057"/><g><use x="488.186" xlink:href="#r" y="189.057"/><use x="492.428549" xlink:href="#o" y="189.057"/><use x="497.883099" xlink:href="#s" y="189.057"/><use x="503.337649" xlink:href="#K" y="189.057"/><use x="508.792199" xlink:href="#u" y="189.057"/></g><g><use x="2.798" xlink:href="#h" y="222.224"/><use x="5.828548" xlink:href="#i" y="222.224"/></g><g><use x="13.763827" xlink:href="#z" y="222.224"/><use x="19.218377" xlink:href="#E" y="222.224"/><use x="25.279473" xlink:href="#E" y="222.224"/><use x="31.340569" xlink:href="#v" y="222.224"/><use x="34.371117" xlink:href="#h" y="222.224"/><use x="37.401665" xlink:href="#c" y="222.224"/><use x="42.249669" xlink:href="#f" y="222.224"/><use x="48.310765" xlink:href="#x" y="222.224"/></g><g><use x="56.195863" xlink:href="#L" y="222.224"/><use x="60.135139" xlink:href="#l" y="222.224"/></g><use x="69.828965" xlink:href="#z" y="222.224"/><g><use x="78.916245" xlink:href="#i" y="222.224"/><use x="83.218794" xlink:href="#e" y="222.224"/><use x="88.673344" xlink:href="#v" y="222.224"/><use x="91.703892" xlink:href="#c" y="222.224"/><use x="96.551896" xlink:href="#l" y="222.224"/><use x="102.612992" xlink:href="#e" y="222.224"/><use x="108.067542" xlink:href="#h" y="222.224"/><use x="111.09809" xlink:href="#f" y="222.224"/><use x="117.159186" xlink:href="#M" y="222.224"/></g><g><use x="123.833374" xlink:href="#m" y="222.224"/><use x="128.075923" xlink:href="#b" y="222.224"/><use x="134.137019" xlink:href="#c" y="222.224"/></g><g><use x="142.617753" xlink:href="#B" y="222.224"/><use x="145.951574" xlink:href="#e" y="222.224"/><use x="151.406124" xlink:href="#A" y="222.224"/><use x="155.679218" xlink:href="#C" y="222.224"/><use x="164.769771" xlink:href="#i" y="222.224"/></g><g><use x="172.705051" xlink:href="#e" y="222.224"/><use x="178.159601" xlink:href="#B" y="222.224"/></g><use x="185.132" xlink:href="#P" y="222.224"/><use x="194.2" xlink:href="#aq" y="223.861"/><use x="198.434" xlink:href="#as" y="223.861"/><g><use x="207.707" xlink:href="#z" y="222.224"/><use x="213.16155" xlink:href="#l" y="222.224"/><use x="219.222646" xlink:href="#f" y="222.224"/></g><g><use x="228.919" xlink:href="#W" y="222.224"/><use x="238.009553" xlink:href="#P" y="222.224"/></g><g><use x="251.601" xlink:href="#z" y="222.224"/><use x="257.05555" xlink:href="#A" y="222.224"/><use x="261.328644" xlink:href="#c" y="222.224"/></g><g><use x="269.809379" xlink:href="#C" y="222.224"/><use x="278.899932" xlink:href="#e" y="222.224"/></g><g><use x="284.659937" xlink:href="#f" y="222.224"/><use x="290.721033" xlink:href="#h" y="222.224"/><use x="293.751581" xlink:href="#N" y="222.224"/><use x="299.812677" xlink:href="#c" y="222.224"/><use x="304.660681" xlink:href="#f" y="222.224"/><use x="310.721777" xlink:href="#x" y="222.224"/></g></svg>