<svg height="69pt" viewBox="0 0 313 69" width="313pt" xmlns="http://www.w3.org/2000/svg" xmlns:xlink="http://www.w3.org/1999/xlink"><symbol id="a" overflow="visible"><path d="m4.078125 19.296875c.234375 0 .3125 0 .3125-.140625.015625-7.65625.90625-14 4.71875-19.328125.078125-.09375.078125-.125.078125-.140625 0-.109375-.078125-.109375-.25-.109375-.1875 0-.203125 0-.21875.015625-.046875.03125-1.4375 1.625-2.53125 3.8125-1.4375 2.890625-2.34375 6.1875-2.75 10.15625-.03125.34375-.265625 2.609375-.265625 5.203125v.421875c.015625.109375.078125.109375.3125.109375zm0 0"/></symbol><symbol id="b" overflow="visible"><path d="m4.390625.1875c0-.28125-.015625-.296875-.3125-.296875h-.59375c-.296875 0-.3125.015625-.3125.296875v6.171875c0 .28125.015625.296875.3125.296875h.59375c.296875 0 .3125-.015625.3125-.296875zm0 0"/></symbol><symbol id="c" overflow="visible"><path d="m3.484375-.546875c-.234375 0-.296875 0-.3125.125v.421875c0 6.65625 1.1875 10.5625 1.53125 11.671875.734375 2.421875 1.953125 4.96875 3.765625 7.21875.171875.1875.21875.25.25.265625s.03125.03125.21875.03125c.171875 0 .25 0 .25-.109375 0-.03125 0-.046875-.0625-.140625-3.640625-5.046875-4.734375-11.109375-4.734375-19.328125 0-.15625-.078125-.15625-.3125-.15625zm0 0"/></symbol><symbol id="d" overflow="visible"><path d="m6.359375 18.765625c0-6.671875-1.1875-10.578125-1.53125-11.671875-.734375-2.421875-1.953125-4.984375-3.765625-7.21875-.171875-.203125-.21875-.25-.25-.28125-.03125-.015625-.03125-.015625-.21875-.015625-.15625 0-.25 0-.25.109375 0 .015625 0 .046875.140625.234375 3.796875 5.296875 4.65625 11.84375 4.65625 19.234375 0 .140625.078125.140625.3125.140625h.59375c.234375 0 .296875 0 .3125-.109375zm0 0"/></symbol><symbol id="e" overflow="visible"><path d="m6.359375.1875c0-.28125-.015625-.296875-.3125-.296875h-.59375c-.296875 0-.3125.015625-.3125.296875v6.171875c0 .28125.015625.296875.3125.296875h.59375c.296875 0 .3125-.015625.3125-.296875zm0 0"/></symbol><symbol id="f" overflow="visible"><path d="m6.359375-.421875c-.015625-.125-.078125-.125-.3125-.125h-.59375c-.234375 0-.3125 0-.3125.15625 0 1.125 0 3.71875-.28125 6.4375-.59375 5.640625-2.046875 9.53125-4.4375 12.890625-.078125.09375-.078125.109375-.078125.140625 0 .109375.09375.109375.25.109375.1875 0 .203125 0 .21875-.03125.046875-.03125 1.4375-1.625 2.53125-3.8125 1.4375-2.875 2.34375-6.1875 2.75-10.15625.03125-.328125.265625-2.609375.265625-5.1875zm0 0"/></symbol><symbol id="g" overflow="visible"><path d="m2.09375-.578125c0-.3125-.265625-.578125-.578125-.578125s-.578125.265625-.578125.578125.265625.578125.578125.578125.578125-.265625.578125-.578125zm0 0"/></symbol><symbol id="h" overflow="visible"><path d="m3.203125-6.984375c0-.25 0-.28125-.25-.28125-.671875.703125-1.640625.703125-1.984375.703125v.328125c.21875 0 .859375 0 1.4375-.28125v5.65625c0 .390625-.046875.515625-1.015625.515625h-.359375v.34375c.390625-.03125 1.328125-.03125 1.765625-.03125s1.390625 0 1.765625.03125v-.34375h-.34375c-.984375 0-1.015625-.109375-1.015625-.515625zm0 0"/></symbol><symbol id="i" overflow="visible"><path d="m3.609375 2.625c0-.046875 0-.0625-.1875-.25-1.359375-1.375-1.703125-3.4375-1.703125-5.09375 0-1.90625.40625-3.796875 1.75-5.171875.140625-.125.140625-.140625.140625-.1875 0-.0625-.046875-.09375-.109375-.09375-.109375 0-1.09375.734375-1.734375 2.125-.5625 1.1875-.6875 2.40625-.6875 3.328125 0 .84375.125 2.15625.71875 3.390625.65625 1.34375 1.59375 2.046875 1.703125 2.046875.0625 0 .109375-.03125.109375-.09375zm0 0"/></symbol><symbol id="j" overflow="visible"><path d="m1.78125-4.984375c-.5-.328125-.546875-.703125-.546875-.890625 0-.65625.703125-1.109375 1.484375-1.109375.796875 0 1.484375.5625 1.484375 1.34375 0 .625-.421875 1.140625-1.078125 1.53125zm1.59375 1.03125c.78125-.40625 1.3125-.96875 1.3125-1.6875 0-1-.96875-1.625-1.96875-1.625-1.078125 0-1.96875.8125-1.96875 1.828125 0 .1875.03125.6875.484375 1.1875.125.140625.515625.40625.796875.59375-.640625.3125-1.578125.9375-1.578125 2.015625 0 1.15625 1.125 1.875 2.265625 1.875 1.234375 0 2.265625-.90625 2.265625-2.0625 0-.390625-.125-.890625-.53125-1.34375-.203125-.234375-.390625-.34375-1.078125-.78125zm-1.09375.46875 1.34375.84375c.296875.203125.8125.53125.8125 1.203125 0 .8125-.8125 1.375-1.71875 1.375-.9375 0-1.71875-.671875-1.71875-1.578125 0-.640625.359375-1.34375 1.28125-1.84375zm0 0"/></symbol><symbol id="k" overflow="visible"><path d="m3.203125-1.796875v.953125c0 .390625-.015625.5-.828125.5h-.21875v.34375c.4375-.03125 1-.03125 1.46875-.03125.453125 0 1.03125 0 1.484375.03125v-.34375h-.234375c-.8125 0-.828125-.109375-.828125-.5v-.953125h1.09375v-.34375h-1.09375v-4.953125c0-.21875 0-.296875-.171875-.296875-.09375 0-.140625 0-.21875.140625l-3.34375 5.109375v.34375zm.0625-.34375h-2.65625l2.65625-4.0625zm0 0"/></symbol><symbol id="l" overflow="visible"><path d="m3.15625-2.71875c0-.859375-.125-2.171875-.71875-3.40625-.65625-1.34375-1.59375-2.046875-1.703125-2.046875-.0625 0-.109375.03125-.109375.09375 0 .046875 0 .0625.203125.265625 1.0625 1.078125 1.6875 2.8125 1.6875 5.09375 0 1.859375-.40625 3.78125-1.75 5.15625-.140625.125-.140625.140625-.140625.1875 0 .0625.046875.09375.109375.09375.109375 0 1.09375-.734375 1.734375-2.125.546875-1.1875.6875-2.40625.6875-3.3125zm0 0"/></symbol><symbol id="m" overflow="visible"><path d="m7.1875-2.515625c.1875 0 .375 0 .375-.203125 0-.21875-.1875-.21875-.375-.21875h-5.90625c-.1875 0-.375 0-.375.21875 0 .203125.1875.203125.375.203125zm0 0"/></symbol><use x=".082" xlink:href="#a" y="3.689"/><use x=".082" xlink:href="#b" y="22.889"/><use x=".082" xlink:href="#b" y="29.434"/><use x=".082" xlink:href="#b" y="35.98"/><use x=".082" xlink:href="#b" y="42.525"/><use x=".082" xlink:href="#c" y="49.507"/><use x="15.082" xlink:href="#g" y="11.591"/><use x="33.529" xlink:href="#h" y="11.591"/><use x="54.401" xlink:href="#g" y="11.591"/><use x="74.057016" xlink:href="#g" y="11.591"/><use x="9.627" xlink:href="#m" y="25.14"/><use x="18.112" xlink:href="#h" y="25.14"/><use x="34.742" xlink:href="#g" y="25.14"/><use x="54.398016" xlink:href="#g" y="25.14"/><use x="74.064942" xlink:href="#g" y="25.14"/><use x="15.082" xlink:href="#g" y="38.69"/><use x="34.738016" xlink:href="#g" y="38.69"/><use x="54.404942" xlink:href="#g" y="38.69"/><use x="72.849" xlink:href="#h" y="38.69"/><use x="15.082" xlink:href="#g" y="52.239"/><use x="34.738016" xlink:href="#g" y="52.239"/><use x="48.947" xlink:href="#m" y="52.239"/><use x="57.432" xlink:href="#h" y="52.239"/><use x="74.061" xlink:href="#g" y="52.239"/><g><use x="88.266" xlink:href="#g" y="31.932"/><use x="91.296548" xlink:href="#g" y="31.932"/><use x="94.327096" xlink:href="#g" y="31.932"/></g><g><use x="39.42" xlink:href="#g" y="65.788"/><use x="42.450548" xlink:href="#g" y="65.788"/><use x="45.481096" xlink:href="#g" y="65.788"/></g><g><use x="88.264404" xlink:href="#g" y="65.788"/><use x="91.294952" xlink:href="#g" y="65.788"/><use x="94.3255" xlink:href="#g" y="65.788"/></g><use x="97.357" xlink:href="#d" y="3.689"/><use x="97.357" xlink:href="#e" y="22.889"/><use x="97.357" xlink:href="#e" y="29.434"/><use x="97.357" xlink:href="#e" y="35.98"/><use x="97.357" xlink:href="#e" y="42.525"/><use x="97.357" xlink:href="#f" y="49.507"/><use x="108.721" xlink:href="#g" y="38.707"/><g><use x="286.186" xlink:href="#i" y="38.707"/><use x="290.428549" xlink:href="#h" y="38.707"/><use x="295.883099" xlink:href="#j" y="38.707"/><use x="301.337649" xlink:href="#k" y="38.707"/><use x="306.792199" xlink:href="#l" y="38.707"/></g></svg>