<svg height="61pt" viewBox="0 0 356 61" width="356pt" xmlns="http://www.w3.org/2000/svg" xmlns:xlink="http://www.w3.org/1999/xlink"><symbol id="a" overflow="visible"><path d="m3.609375 2.625c0-.046875 0-.0625-.1875-.25-1.359375-1.375-1.703125-3.4375-1.703125-5.09375 0-1.90625.40625-3.796875 1.75-5.171875.140625-.125.140625-.140625.140625-.1875 0-.0625-.046875-.09375-.109375-.09375-.109375 0-1.09375.734375-1.734375 2.125-.5625 1.1875-.6875 2.40625-.6875 3.328125 0 .84375.125 2.15625.71875 3.390625.65625 1.34375 1.59375 2.046875 1.703125 2.046875.0625 0 .109375-.03125.109375-.09375zm0 0"/></symbol><symbol id="b" overflow="visible"><path d="m3.15625-2.71875c0-.859375-.125-2.171875-.71875-3.40625-.65625-1.34375-1.59375-2.046875-1.703125-2.046875-.0625 0-.109375.03125-.109375.09375 0 .046875 0 .0625.203125.265625 1.0625 1.078125 1.6875 2.8125 1.6875 5.09375 0 1.859375-.40625 3.78125-1.75 5.15625-.140625.125-.140625.140625-.140625.1875 0 .0625.046875.09375.109375.09375.109375 0 1.09375-.734375 1.734375-2.125.546875-1.1875.6875-2.40625.6875-3.3125zm0 0"/></symbol><symbol id="c" overflow="visible"><path d="m4.453125-2.515625h3.046875c.15625 0 .359375 0 .359375-.203125 0-.21875-.203125-.21875-.359375-.21875h-3.046875v-3.0625c0-.15625 0-.359375-.203125-.359375-.21875 0-.21875.203125-.21875.359375v3.0625h-3.0625c-.15625 0-.359375 0-.359375.21875 0 .203125.203125.203125.359375.203125h3.0625v3.0625c0 .15625 0 .359375.21875.359375.203125 0 .203125-.203125.203125-.359375zm0 0"/></symbol><symbol id="d" overflow="visible"><path d="m3.203125-6.984375c0-.25 0-.28125-.25-.28125-.671875.703125-1.640625.703125-1.984375.703125v.328125c.21875 0 .859375 0 1.4375-.28125v5.65625c0 .390625-.046875.515625-1.015625.515625h-.359375v.34375c.390625-.03125 1.328125-.03125 1.765625-.03125s1.390625 0 1.765625.03125v-.34375h-.34375c-.984375 0-1.015625-.109375-1.015625-.515625zm0 0"/></symbol><symbol id="e" overflow="visible"><path d="m7.59375-1.3125c-.03125.859375-.734375 1.21875-1.21875 1.21875-.59375 0-1.15625-.5625-1.515625-.96875.5-.578125.9375-1.328125 1.4375-2.1875.4375-.71875.65625-1.109375 1.625-1.109375v-.34375c-.390625.03125-.984375.03125-1.046875.03125-.125 0-1.046875 0-1.328125-.03125v.34375c.5 0 .765625.203125.765625.484375 0 .09375-.046875.171875-.0625.203125-.59375 1.0625-1.09375 1.8125-1.5625 2.390625-.140625-.171875-1.328125-1.65625-1.8125-2.921875.59375-.65625 1.328125-1.484375 1.328125-2.203125 0-.5-.171875-1.40625-.9375-1.40625-.6875 0-1.484375.609375-1.484375 1.765625 0 .453125.0625 1.234375.4375 2.203125l-.984375 1.0625c-.5.5-.78125.796875-.78125 1.390625 0 .9375.90625 1.625 1.984375 1.625.921875 0 1.5625-.46875 1.96875-.828125.75.65625 1.390625.828125 1.921875.828125.828125 0 1.515625-.609375 1.53125-1.546875zm-4.796875-3.140625c-.296875-.875-.328125-1.515625-.328125-1.84375 0-.921875.4375-1.265625.8125-1.265625.65625 0 .65625 1.125.65625 1.15625 0 .71875-.890625 1.65625-1.140625 1.953125zm-.46875.859375c.234375.515625.390625.84375.875 1.515625.203125.3125.59375.875 1 1.28125-.703125.625-1.375.703125-1.6875.703125-.90625 0-1.15625-1.0625-1.15625-1.65625 0-.875.375-1.265625.96875-1.84375zm0 0"/></symbol><symbol id="f" overflow="visible"><path d="m1.203125-3.75v2.921875c0 .484375-.125.484375-.859375.484375v.34375c.390625-.015625.9375-.03125 1.234375-.03125.28125 0 .859375.015625 1.21875.03125v-.34375c-.71875 0-.84375 0-.84375-.484375v-2c0-1.140625.765625-1.75 1.46875-1.75.6875 0 .8125.59375.8125 1.203125v2.546875c0 .484375-.125.484375-.859375.484375v.34375c.390625-.015625.9375-.03125 1.234375-.03125.28125 0 .859375.015625 1.21875.03125v-.34375c-.71875 0-.84375 0-.84375-.484375v-2c0-1.140625.78125-1.75 1.46875-1.75s.8125.59375.8125 1.203125v2.546875c0 .484375-.125.484375-.859375.484375v.34375c.390625-.015625.9375-.03125 1.234375-.03125.28125 0 .859375.015625 1.21875.03125v-.34375c-.5625 0-.828125 0-.84375-.328125v-2.078125c0-.9375 0-1.28125-.34375-1.671875-.140625-.1875-.5-.40625-1.140625-.40625-.921875 0-1.390625.65625-1.578125 1.078125-.15625-.953125-.96875-1.078125-1.453125-1.078125-.796875 0-1.3125.46875-1.609375 1.15625v-1.15625l-1.546875.125v.34375c.765625 0 .859375.078125.859375.609375zm0 0"/></symbol><symbol id="g" overflow="visible"><path d="m1.9375-4.828125-1.53125.125v.34375c.703125 0 .796875.0625.796875.59375v2.9375c0 .484375-.109375.484375-.84375.484375v.34375c.34375-.015625.9375-.03125 1.203125-.03125.375 0 .765625.015625 1.125.03125v-.34375c-.71875 0-.75-.046875-.75-.46875zm.03125-1.890625c0-.34375-.265625-.578125-.578125-.578125-.328125 0-.578125.296875-.578125.578125 0 .296875.25.578125.578125.578125.3125 0 .578125-.234375.578125-.578125zm0 0"/></symbol><symbol id="h" overflow="visible"><path d="m1.203125-3.75v2.921875c0 .484375-.125.484375-.859375.484375v.34375c.390625-.015625.9375-.03125 1.234375-.03125.28125 0 .859375.015625 1.21875.03125v-.34375c-.71875 0-.84375 0-.84375-.484375v-2c0-1.140625.765625-1.75 1.46875-1.75.6875 0 .8125.59375.8125 1.203125v2.546875c0 .484375-.125.484375-.859375.484375v.34375c.390625-.015625.9375-.03125 1.234375-.03125.28125 0 .859375.015625 1.21875.03125v-.34375c-.5625 0-.828125 0-.84375-.328125v-2.078125c0-.9375 0-1.28125-.34375-1.671875-.140625-.1875-.5-.40625-1.140625-.40625-.796875 0-1.3125.46875-1.609375 1.15625v-1.15625l-1.546875.125v.34375c.765625 0 .859375.078125.859375.609375zm0 0"/></symbol><symbol id="i" overflow="visible"><path d="m3.625-.828125c.046875.4375.34375.890625.859375.890625.234375 0 .890625-.15625.890625-1.03125v-.609375h-.265625v.609375c0 .625-.28125.703125-.390625.703125-.359375 0-.40625-.5-.40625-.546875v-2.1875c0-.453125 0-.875-.390625-1.28125-.4375-.4375-.984375-.609375-1.5-.609375-.890625 0-1.640625.515625-1.640625 1.234375 0 .328125.21875.515625.5.515625.296875 0 .5-.21875.5-.5 0-.140625-.0625-.5-.5625-.5.296875-.390625.828125-.5 1.1875-.5.53125 0 1.15625.421875 1.15625 1.390625v.40625c-.5625.03125-1.328125.0625-2.015625.390625-.8125.375-1.09375.9375-1.09375 1.421875 0 .875 1.0625 1.15625 1.75 1.15625.71875 0 1.21875-.4375 1.421875-.953125zm-.0625-1.796875v1.09375c0 1.046875-.796875 1.40625-1.28125 1.40625-.53125 0-.984375-.375-.984375-.921875 0-.59375.453125-1.5 2.265625-1.578125zm0 0"/></symbol><symbol id="j" overflow="visible"><path d="m3.125-2.5625c.328125-.421875.75-.953125 1.015625-1.234375.328125-.390625.78125-.5625 1.296875-.5625v-.34375c-.296875.03125-.609375.03125-.90625.03125-.328125 0-.90625-.015625-1.046875-.03125v.34375c.234375.015625.328125.15625.328125.328125 0 .1875-.109375.328125-.171875.390625l-.671875.84375-.859375-1.09375c-.09375-.109375-.09375-.140625-.09375-.203125 0-.15625.171875-.265625.390625-.265625v-.34375c-.296875.015625-1.015625.03125-1.1875.03125-.21875 0-.734375 0-1.03125-.03125v.34375c.765625 0 .765625 0 1.28125.65625l1.078125 1.40625-1.015625 1.296875c-.53125.640625-1.171875.65625-1.40625.65625v.34375c.296875-.015625.625-.03125.90625-.03125.328125 0 .78125.015625 1.046875.03125v-.34375c-.25-.03125-.328125-.171875-.328125-.328125 0-.25.328125-.609375.984375-1.390625l.828125 1.09375c.09375.125.234375.296875.234375.359375 0 .09375-.09375.265625-.390625.265625v.34375c.328125-.015625.9375-.03125 1.171875-.03125.296875 0 .71875.015625 1.046875.03125v-.34375c-.59375 0-.78125-.015625-1.03125-.328125zm0 0"/></symbol><symbol id="k" overflow="visible"><path d="m5.1875-6.640625c.109375-.125.109375-.15625.109375-.390625h-2.65625c-1.328125 0-1.359375-.140625-1.390625-.34375h-.28125l-.359375 2.25h.28125c.03125-.171875.125-.859375.265625-1 .078125-.0625.921875-.0625 1.0625-.0625h2.265625c-.125.171875-.984375 1.359375-1.21875 1.734375-.984375 1.46875-1.34375 2.984375-1.34375 4.09375 0 .109375 0 .59375.5.59375s.5-.484375.5-.59375v-.5625c0-.59375.03125-1.1875.125-1.78125.046875-.25.1875-1.1875.671875-1.859375zm0 0"/></symbol><symbol id="l" overflow="visible"><path d="m4.890625-2.1875c0-1.296875-.890625-2.390625-2.0625-2.390625-.53125 0-1 .171875-1.390625.546875v-2.125c.21875.078125.578125.140625.921875.140625 1.34375 0 2.109375-.984375 2.109375-1.125 0-.0625-.03125-.125-.109375-.125 0 0-.03125 0-.078125.03125-.21875.109375-.765625.3125-1.484375.3125-.4375 0-.9375-.0625-1.453125-.296875-.09375-.03125-.109375-.03125-.140625-.03125-.109375 0-.109375.078125-.109375.265625v3.21875c0 .203125 0 .28125.15625.28125.078125 0 .109375-.03125.140625-.09375.125-.171875.53125-.765625 1.40625-.765625.578125 0 .84375.5.9375.703125.171875.40625.1875.828125.1875 1.375 0 .375 0 1.03125-.25 1.484375-.265625.4375-.671875.71875-1.171875.71875-.796875 0-1.421875-.578125-1.609375-1.21875.03125 0 .0625.015625.1875.015625.359375 0 .546875-.265625.546875-.53125s-.1875-.53125-.546875-.53125c-.15625 0-.53125.078125-.53125.578125 0 .9375.75 1.984375 1.96875 1.984375 1.265625 0 2.375-1.046875 2.375-2.421875zm0 0"/></symbol><symbol id="m" overflow="visible"><path d="m3.640625-3.296875c.0625-.28125.3125-1.28125 1.078125-1.28125.0625 0 .3125 0 .546875.140625-.296875.046875-.515625.328125-.515625.59375 0 .171875.109375.375.40625.375.25 0 .59375-.203125.59375-.625 0-.578125-.640625-.734375-1.015625-.734375-.640625 0-1.015625.578125-1.140625.84375-.28125-.734375-.875-.84375-1.1875-.84375-1.125 0-1.75 1.421875-1.75 1.6875 0 .109375.109375.109375.125.109375.09375 0 .125-.015625.140625-.125.375-1.15625 1.09375-1.421875 1.46875-1.421875.203125 0 .59375.09375.59375.734375 0 .328125-.1875 1.0625-.59375 2.59375-.171875.671875-.5625 1.125-1.03125 1.125-.078125 0-.328125 0-.546875-.140625.265625-.046875.5-.28125.5-.578125s-.234375-.390625-.390625-.390625c-.328125 0-.609375.28125-.609375.640625 0 .5.546875.71875 1.03125.71875.71875 0 1.109375-.765625 1.140625-.828125.140625.390625.53125.828125 1.1875.828125 1.109375 0 1.734375-1.40625 1.734375-1.6875 0-.109375-.09375-.109375-.125-.109375-.09375 0-.125.046875-.140625.125-.359375 1.171875-1.109375 1.421875-1.453125 1.421875-.421875 0-.59375-.34375-.59375-.71875 0-.234375.0625-.46875.171875-.953125zm0 0"/></symbol><symbol id="n" overflow="visible"><path d="m5.296875-4.15625c.046875-.15625.046875-.171875.046875-.25 0-.203125-.15625-.296875-.3125-.296875-.109375 0-.28125.0625-.390625.234375-.015625.046875-.109375.390625-.140625.59375-.078125.28125-.15625.578125-.21875.859375l-.5 1.96875c-.046875.15625-.515625.921875-1.234375.921875-.546875 0-.671875-.46875-.671875-.875 0-.5.1875-1.1875.5625-2.140625.171875-.453125.21875-.5625.21875-.78125 0-.5-.359375-.90625-.90625-.90625-1.03125 0-1.4375 1.59375-1.4375 1.6875 0 .109375.109375.109375.140625.109375.109375 0 .109375-.015625.171875-.203125.296875-1.015625.734375-1.34375 1.09375-1.34375.09375 0 .28125 0 .28125.34375 0 .28125-.109375.5625-.1875.765625-.4375 1.15625-.640625 1.78125-.640625 2.296875 0 .96875.6875 1.296875 1.34375 1.296875.421875 0 .78125-.1875 1.09375-.5-.140625.578125-.265625 1.109375-.703125 1.6875-.28125.359375-.703125.6875-1.203125.6875-.15625 0-.640625-.03125-.828125-.46875.171875 0 .3125 0 .46875-.125.109375-.09375.21875-.234375.21875-.453125 0-.328125-.296875-.375-.40625-.375-.25 0-.609375.171875-.609375.703125 0 .546875.484375.953125 1.15625.953125 1.125 0 2.25-.984375 2.546875-2.21875zm0 0"/></symbol><symbol id="o" overflow="visible"><path d="m7.359375-5.4375c.140625-.0625.203125-.109375.203125-.234375s-.09375-.21875-.21875-.21875c-.03125 0-.046875 0-.1875.078125l-6.046875 2.84375c-.109375.0625-.203125.109375-.203125.25 0 .125.09375.171875.203125.234375l6.046875 2.84375c.140625.078125.15625.078125.1875.078125.125 0 .21875-.09375.21875-.21875s-.0625-.171875-.203125-.234375l-5.71875-2.703125zm0 0"/></symbol><symbol id="p" overflow="visible"><path d="m2.21875-.015625c0-.71875-.28125-1.140625-.703125-1.140625-.359375 0-.578125.265625-.578125.578125 0 .296875.21875.578125.578125.578125.125 0 .265625-.046875.375-.140625.046875-.015625.046875-.03125.0625-.03125s.015625.015625.015625.15625c0 .8125-.375 1.46875-.734375 1.828125-.125.125-.125.140625-.125.171875 0 .078125.0625.125.109375.125.125 0 1-.84375 1-2.125zm0 0"/></symbol><symbol id="q" overflow="visible"><path d="m7.1875-2.515625c.1875 0 .375 0 .375-.203125 0-.21875-.1875-.21875-.375-.21875h-5.90625c-.1875 0-.375 0-.375.21875 0 .203125.1875.203125.375.203125zm0 0"/></symbol><symbol id="r" overflow="visible"><path d="m.65625-6.65625c-.171875 0-.453125 0-.453125.328125s.28125.328125.453125.328125h.234375v5.328125h-.234375c-.171875 0-.453125 0-.453125.34375 0 .328125.28125.328125.453125.328125h2.25c1.421875 0 2.390625-1.53125 2.390625-3.28125s-.9375-3.375-2.390625-3.375zm.984375 5.984375v-5.328125h1.046875c1.234375 0 1.84375 1.453125 1.84375 2.71875 0 1.28125-.625 2.609375-1.84375 2.609375zm0 0"/></symbol><symbol id="s" overflow="visible"><path d="m3.171875-3.5625 1.234375-2.4375h.234375c.171875 0 .453125 0 .453125-.328125s-.28125-.328125-.453125-.328125h-1.125c-.171875 0-.4375 0-.4375.3125 0 .34375.25.34375.5.34375l-.78125 1.59375-.828125-1.59375c.21875 0 .46875 0 .46875-.34375 0-.3125-.28125-.3125-.4375-.3125h-1.140625c-.15625 0-.4375 0-.4375.3125 0 .34375.28125.34375.4375.34375h.25l1.3125 2.453125-1.453125 2.875h-.234375c-.171875 0-.4375 0-.4375.34375 0 .328125.265625.328125.4375.328125h1.125c.171875 0 .453125 0 .453125-.328125 0-.34375-.265625-.34375-.515625-.34375l1-2.109375 1.078125 2.109375c-.25 0-.484375 0-.484375.34375 0 .328125.28125.328125.4375.328125h1.140625c.15625 0 .4375 0 .4375-.328125 0-.34375-.28125-.34375-.4375-.34375h-.25zm0 0"/></symbol><symbol id="t" overflow="visible"><path d="m3.453125-6.375c-.109375-.40625-.25-.421875-.59375-.421875-.3125 0-.5 0-.59375.421875l-1.3125 5.703125c-.15625 0-.40625 0-.46875.03125-.125.0625-.1875.171875-.1875.3125 0 .328125.28125.328125.46875.328125h1.109375c.203125 0 .453125 0 .453125-.328125 0-.34375-.21875-.34375-.609375-.34375l.25-1.125h1.765625l.25 1.125c-.390625 0-.609375 0-.609375.34375 0 .328125.265625.328125.46875.328125h1.109375c.1875 0 .46875 0 .46875-.328125 0-.140625-.0625-.25-.1875-.296875-.0625-.046875-.3125-.046875-.46875-.046875zm-.59375.46875h.015625l.703125 3.4375h-1.4375zm0 0"/></symbol><symbol id="u" overflow="visible"><path d="m4.84375-6h.234375c.15625 0 .421875 0 .421875-.328125s-.25-.328125-.421875-.328125h-1.140625c-.15625 0-.4375 0-.4375.3125 0 .34375.234375.34375.5.34375l-1.140625 2.578125c-.15625-.5625-1.03125-2.34375-1.140625-2.578125.25 0 .5 0 .5-.34375 0-.3125-.28125-.3125-.4375-.3125h-1.140625c-.15625 0-.4375 0-.4375.3125 0 .34375.265625.34375.4375.34375h.234375l1.609375 3.34375v1.984375h-.265625c-.171875 0-.4375 0-.4375.328125 0 .34375.265625.34375.4375.34375h1.296875c.15625 0 .4375 0 .4375-.328125 0-.34375-.265625-.34375-.4375-.34375h-.28125v-1.984375zm0 0"/></symbol><symbol id="v" overflow="visible"><path d="m3.390625-6.34375c0-.171875 0-.4375-.328125-.4375-.203125 0-.265625.125-.328125.265625-.40625.921875-.984375 1.046875-1.1875 1.0625-.171875.015625-.40625.03125-.40625.34375 0 .265625.203125.328125.359375.328125.21875 0 .65625-.078125 1.140625-.484375v4.59375h-1c-.171875 0-.4375 0-.4375.34375 0 .328125.28125.328125.4375.328125h2.75c.15625 0 .4375 0 .4375-.328125 0-.34375-.265625-.34375-.4375-.34375h-1zm0 0"/></symbol><symbol id="w" overflow="visible"><path d="m.734375-.625c-.109375.078125-.171875.140625-.171875.28125 0 .34375.28125.34375.453125.34375h3.703125c.359375 0 .421875-.09375.421875-.453125v-.28125c0-.203125 0-.4375-.359375-.4375-.390625 0-.390625.203125-.390625.5h-2.59375c.640625-.546875 1.6875-1.375 2.15625-1.796875.6875-.625 1.1875-1.3125 1.1875-2.1875 0-1.3125-1.09375-2.125-2.421875-2.125-1.296875 0-2.15625.890625-2.15625 1.8125 0 .40625.3125.53125.5.53125.21875 0 .46875-.1875.46875-.484375 0-.140625-.046875-.28125-.140625-.359375.15625-.5.671875-.84375 1.265625-.84375.90625 0 1.734375.515625 1.734375 1.46875 0 .765625-.53125 1.390625-1.25 2zm0 0"/></symbol><symbol id="x" overflow="visible"><path d="m2.25-1.625c.125-.125.453125-.390625.59375-.5.484375-.453125.953125-.890625.953125-1.609375 0-.953125-.796875-1.5625-1.78125-1.5625-.96875 0-1.59375.71875-1.59375 1.4375 0 .390625.3125.4375.421875.4375.171875 0 .421875-.109375.421875-.421875 0-.40625-.40625-.40625-.5-.40625.234375-.59375.765625-.78125 1.15625-.78125.734375 0 1.125.625 1.125 1.296875 0 .828125-.578125 1.4375-1.53125 2.390625l-1 1.046875c-.09375.078125-.09375.09375-.09375.296875h3.140625l.234375-1.421875h-.25c-.015625.15625-.078125.546875-.171875.703125-.046875.0625-.65625.0625-.78125.0625h-1.421875zm0 0"/></symbol><use x="24.904" xlink:href="#a" y="13.202"/><use x="29.146" xlink:href="#m" y="13.202"/><use x="37.805" xlink:href="#q" y="13.202"/><g><use x="48.715" xlink:href="#r" y="13.202"/><use x="54.442278" xlink:href="#s" y="13.202"/></g><use x="60.169" xlink:href="#b" y="13.202"/><use x="64.411" xlink:href="#x" y="9.243"/><path d="m-.00165625-.00046875h44.24218725" fill="none" stroke="#000" stroke-miterlimit="10" stroke-width=".436" transform="matrix(1 0 0 -1 24.904 17.855)"/><g><use x="38.93" xlink:href="#t" y="28.065"/><use x="44.657277" xlink:href="#s" y="28.065"/></g><use x="50.385" xlink:href="#x" y="24.553"/><use x="72.763" xlink:href="#c" y="20.582"/><use x="84.868" xlink:href="#a" y="13.202"/><use x="89.11" xlink:href="#n" y="13.202"/><use x="97.275" xlink:href="#q" y="13.202"/><g><use x="108.184" xlink:href="#r" y="13.202"/><use x="113.911277" xlink:href="#u" y="13.202"/></g><use x="119.638" xlink:href="#b" y="13.202"/><use x="123.88" xlink:href="#x" y="9.243"/><path d="m-.0008125-.00046875h43.7460935" fill="none" stroke="#000" stroke-miterlimit="10" stroke-width=".436" transform="matrix(1 0 0 -1 84.868 17.855)"/><g><use x="98.647" xlink:href="#t" y="28.065"/><use x="104.374278" xlink:href="#u" y="28.065"/></g><use x="110.101" xlink:href="#x" y="24.553"/><use x="132.839" xlink:href="#o" y="20.582"/><use x="144.354" xlink:href="#d" y="20.582"/><g><use x="3.102" xlink:href="#e" y="41.535"/><use x="11.587098" xlink:href="#e" y="41.535"/></g><g><use x="25.526746" xlink:href="#f" y="41.535"/><use x="34.617299" xlink:href="#g" y="41.535"/><use x="37.647847" xlink:href="#h" y="41.535"/><use x="43.708943" xlink:href="#a" y="41.535"/></g><g><use x="47.951" xlink:href="#r" y="41.535"/><use x="53.678278" xlink:href="#s" y="41.535"/><use x="59.405555" xlink:href="#v" y="41.535"/></g><use x="65.133" xlink:href="#p" y="41.535"/><g><use x="69.981" xlink:href="#r" y="41.535"/><use x="75.708278" xlink:href="#s" y="41.535"/><use x="81.435555" xlink:href="#w" y="41.535"/></g><use x="87.163" xlink:href="#b" y="41.535"/><use x="94.435" xlink:href="#o" y="41.535"/><use x="105.952828" xlink:href="#m" y="41.535"/><use x="115.220108" xlink:href="#o" y="41.535"/><g><use x="126.731" xlink:href="#f" y="41.535"/><use x="135.821553" xlink:href="#i" y="41.535"/><use x="141.276103" xlink:href="#j" y="41.535"/><use x="147.033926" xlink:href="#a" y="41.535"/></g><g><use x="151.276" xlink:href="#r" y="41.535"/><use x="157.003278" xlink:href="#s" y="41.535"/><use x="162.730555" xlink:href="#v" y="41.535"/></g><use x="168.458" xlink:href="#p" y="41.535"/><g><use x="173.306" xlink:href="#r" y="41.535"/><use x="179.033278" xlink:href="#s" y="41.535"/><use x="184.760555" xlink:href="#w" y="41.535"/></g><use x="190.488" xlink:href="#b" y="41.535"/><g><use x="3.102" xlink:href="#e" y="58.073"/><use x="11.587098" xlink:href="#e" y="58.073"/></g><g><use x="25.526746" xlink:href="#f" y="58.073"/><use x="34.617299" xlink:href="#g" y="58.073"/><use x="37.647847" xlink:href="#h" y="58.073"/><use x="43.708943" xlink:href="#a" y="58.073"/></g><g><use x="47.951" xlink:href="#r" y="58.073"/><use x="53.678278" xlink:href="#u" y="58.073"/><use x="59.405555" xlink:href="#v" y="58.073"/></g><use x="65.133" xlink:href="#p" y="58.073"/><g><use x="69.981" xlink:href="#r" y="58.073"/><use x="75.708278" xlink:href="#u" y="58.073"/><use x="81.435555" xlink:href="#w" y="58.073"/></g><use x="87.163" xlink:href="#b" y="58.073"/><use x="94.435" xlink:href="#o" y="58.073"/><use x="105.952828" xlink:href="#n" y="58.073"/><use x="114.716108" xlink:href="#o" y="58.073"/><g><use x="126.236" xlink:href="#f" y="58.073"/><use x="135.326553" xlink:href="#i" y="58.073"/><use x="140.781103" xlink:href="#j" y="58.073"/><use x="146.538926" xlink:href="#a" y="58.073"/></g><g><use x="150.781" xlink:href="#r" y="58.073"/><use x="156.508278" xlink:href="#u" y="58.073"/><use x="162.235555" xlink:href="#v" y="58.073"/></g><use x="167.963" xlink:href="#p" y="58.073"/><g><use x="172.811" xlink:href="#r" y="58.073"/><use x="178.538278" xlink:href="#u" y="58.073"/><use x="184.265555" xlink:href="#w" y="58.073"/></g><use x="189.993" xlink:href="#b" y="58.073"/><g><use x="334.64" xlink:href="#a" y="35.849"/><use x="338.882549" xlink:href="#k" y="35.849"/><use x="344.337099" xlink:href="#l" y="35.849"/><use x="349.791649" xlink:href="#b" y="35.849"/></g></svg>