<svg height="290pt" viewBox="0 0 517 290" width="517pt" xmlns="http://www.w3.org/2000/svg" xmlns:xlink="http://www.w3.org/1999/xlink"><symbol id="a" overflow="visible"><path d="m7.265625-7.390625h-6.671875l-.203125 2.46875h.28125c.140625-1.765625.3125-2.125 1.953125-2.125.203125 0 .484375 0 .59375.015625.234375.046875.234375.171875.234375.421875v5.75c0 .375 0 .515625-1.15625.515625h-.4375v.34375c.453125-.03125 1.5625-.03125 2.0625-.03125s1.625 0 2.078125.03125v-.34375h-.4375c-1.140625 0-1.140625-.140625-1.140625-.515625v-5.75c0-.21875 0-.375.1875-.421875.125-.015625.421875-.015625.625-.015625 1.640625 0 1.8125.359375 1.96875 2.125h.265625zm0 0"/></symbol><symbol id="b" overflow="visible"><path d="m1.203125-.828125c0 .484375-.125.484375-.859375.484375v.34375c.390625-.015625.9375-.03125 1.234375-.03125.28125 0 .859375.015625 1.21875.03125v-.34375c-.71875 0-.84375 0-.84375-.484375v-2c0-1.140625.765625-1.75 1.46875-1.75.6875 0 .8125.59375.8125 1.203125v2.546875c0 .484375-.125.484375-.859375.484375v.34375c.390625-.015625.9375-.03125 1.234375-.03125.28125 0 .859375.015625 1.21875.03125v-.34375c-.5625 0-.828125 0-.84375-.328125v-2.078125c0-.9375 0-1.28125-.34375-1.671875-.140625-.1875-.5-.40625-1.140625-.40625-.921875 0-1.390625.65625-1.578125 1.078125v-3.8125l-1.578125.109375v.34375c.765625 0 .859375.078125.859375.609375zm0 0"/></symbol><symbol id="c" overflow="visible"><path d="m1.21875-2.75c.0625-1.625.984375-1.890625 1.359375-1.890625 1.125 0 1.234375 1.46875 1.234375 1.890625zm-.015625.234375h3.046875c.25 0 .28125 0 .28125-.234375 0-1.078125-.59375-2.140625-1.953125-2.140625-1.265625 0-2.265625 1.125-2.265625 2.484375 0 1.46875 1.140625 2.53125 2.390625 2.53125 1.328125 0 1.828125-1.21875 1.828125-1.421875 0-.109375-.09375-.125-.140625-.125-.109375 0-.125.0625-.140625.140625-.390625 1.125-1.375 1.125-1.484375 1.125-.546875 0-.984375-.328125-1.234375-.734375-.328125-.515625-.328125-1.234375-.328125-1.625zm0 0"/></symbol><symbol id="d" overflow="visible"><path d="m1.875-4.09375v-.734375l-1.5625.125v.34375c.765625 0 .84375.0625.84375.546875v5.09375c0 .5-.125.5-.84375.5v.328125c.359375 0 .9375-.03125 1.21875-.03125.296875 0 .84375.03125 1.234375.03125v-.328125c-.734375 0-.859375 0-.859375-.5v-1.921875c.0625.171875.515625.765625 1.34375.765625 1.296875 0 2.4375-1.078125 2.4375-2.484375 0-1.375-1.0625-2.46875-2.28125-2.46875-.859375 0-1.3125.484375-1.53125.734375zm.03125 2.84375v-2.421875c.3125-.5625.859375-.875 1.40625-.875.796875 0 1.46875.953125 1.46875 2.1875 0 1.328125-.765625 2.234375-1.578125 2.234375-.4375 0-.84375-.21875-1.140625-.65625-.15625-.234375-.15625-.25-.15625-.46875zm0 0"/></symbol><symbol id="e" overflow="visible"><path d="m1.828125-3.625v-1.203125l-1.515625.125v.34375c.75 0 .84375.078125.84375.609375v2.921875c0 .484375-.125.484375-.84375.484375v.34375c.421875-.015625.9375-.03125 1.234375-.03125.4375 0 .953125 0 1.390625.03125v-.34375h-.234375c-.8125 0-.828125-.109375-.828125-.5v-1.6875c0-1.078125.453125-2.046875 1.28125-2.046875.078125 0 .109375 0 .125.015625-.03125 0-.25.140625-.25.421875 0 .296875.234375.46875.46875.46875.203125 0 .46875-.140625.46875-.484375s-.34375-.671875-.8125-.671875c-.796875 0-1.1875.734375-1.328125 1.203125zm0 0"/></symbol><symbol id="f" overflow="visible"><path d="m1.9375-4.828125-1.53125.125v.34375c.703125 0 .796875.0625.796875.59375v2.9375c0 .484375-.109375.484375-.84375.484375v.34375c.34375-.015625.9375-.03125 1.203125-.03125.375 0 .765625.015625 1.125.03125v-.34375c-.71875 0-.75-.046875-.75-.46875zm.03125-1.890625c0-.34375-.265625-.578125-.578125-.578125-.328125 0-.578125.296875-.578125.578125 0 .296875.25.578125.578125.578125.3125 0 .578125-.234375.578125-.578125zm0 0"/></symbol><symbol id="g" overflow="visible"><path d="m1.203125-3.75v2.921875c0 .484375-.125.484375-.859375.484375v.34375c.390625-.015625.9375-.03125 1.234375-.03125.28125 0 .859375.015625 1.21875.03125v-.34375c-.71875 0-.84375 0-.84375-.484375v-2c0-1.140625.765625-1.75 1.46875-1.75.6875 0 .8125.59375.8125 1.203125v2.546875c0 .484375-.125.484375-.859375.484375v.34375c.390625-.015625.9375-.03125 1.234375-.03125.28125 0 .859375.015625 1.21875.03125v-.34375c-.71875 0-.84375 0-.84375-.484375v-2c0-1.140625.78125-1.75 1.46875-1.75s.8125.59375.8125 1.203125v2.546875c0 .484375-.125.484375-.859375.484375v.34375c.390625-.015625.9375-.03125 1.234375-.03125.28125 0 .859375.015625 1.21875.03125v-.34375c-.5625 0-.828125 0-.84375-.328125v-2.078125c0-.9375 0-1.28125-.34375-1.671875-.140625-.1875-.5-.40625-1.140625-.40625-.921875 0-1.390625.65625-1.578125 1.078125-.15625-.953125-.96875-1.078125-1.453125-1.078125-.796875 0-1.3125.46875-1.609375 1.15625v-1.15625l-1.546875.125v.34375c.765625 0 .859375.078125.859375.609375zm0 0"/></symbol><symbol id="h" overflow="visible"><path d="m3.625-.828125c.046875.4375.34375.890625.859375.890625.234375 0 .890625-.15625.890625-1.03125v-.609375h-.265625v.609375c0 .625-.28125.703125-.390625.703125-.359375 0-.40625-.5-.40625-.546875v-2.1875c0-.453125 0-.875-.390625-1.28125-.4375-.4375-.984375-.609375-1.5-.609375-.890625 0-1.640625.515625-1.640625 1.234375 0 .328125.21875.515625.5.515625.296875 0 .5-.21875.5-.5 0-.140625-.0625-.5-.5625-.5.296875-.390625.828125-.5 1.1875-.5.53125 0 1.15625.421875 1.15625 1.390625v.40625c-.5625.03125-1.328125.0625-2.015625.390625-.8125.375-1.09375.9375-1.09375 1.421875 0 .875 1.0625 1.15625 1.75 1.15625.71875 0 1.21875-.4375 1.421875-.953125zm-.0625-1.796875v1.09375c0 1.046875-.796875 1.40625-1.28125 1.40625-.53125 0-.984375-.375-.984375-.921875 0-.59375.453125-1.5 2.265625-1.578125zm0 0"/></symbol><symbol id="i" overflow="visible"><path d="m4.53125-3.671875c.28125-.6875.828125-.6875 1.015625-.6875v-.34375c-.25.03125-.578125.03125-.828125.03125-.1875 0-.703125-.015625-.9375-.03125v.34375c.328125 0 .5.1875.5.46875 0 .109375 0 .125-.0625.265625l-1.09375 2.671875-1.21875-2.921875c-.046875-.109375-.0625-.15625-.0625-.203125 0-.28125.40625-.28125.609375-.28125v-.34375c-.28125.015625-1 .03125-1.1875.03125-.296875 0-.734375 0-1.0625-.03125v.34375c.53125 0 .734375 0 .890625.375l1.625 3.984375c-.046875.140625-.203125.5-.265625.640625-.234375.609375-.546875 1.359375-1.25 1.359375-.046875 0-.296875 0-.5-.203125.328125-.046875.421875-.28125.421875-.453125 0-.28125-.203125-.453125-.453125-.453125-.21875 0-.46875.140625-.46875.46875 0 .484375.46875.875 1 .875.6875 0 1.140625-.625 1.40625-1.234375zm0 0"/></symbol><symbol id="j" overflow="visible"><path d="m5.140625-2.328125c0-1.40625-1.09375-2.5625-2.421875-2.5625-1.359375 0-2.40625 1.1875-2.40625 2.5625 0 1.40625 1.125 2.453125 2.40625 2.453125 1.3125 0 2.421875-1.078125 2.421875-2.453125zm-2.421875 2.171875c-.46875 0-.9375-.21875-1.234375-.734375-.28125-.46875-.28125-1.140625-.28125-1.53125 0-.421875 0-1.015625.265625-1.5.296875-.5.8125-.71875 1.25-.71875.484375 0 .953125.234375 1.234375.703125s.28125 1.109375.28125 1.515625c0 .390625 0 .984375-.25 1.46875-.234375.484375-.71875.796875-1.265625.796875zm0 0"/></symbol><symbol id="k" overflow="visible"><path d="m2.265625-2.109375c.25.03125 1.140625.21875 1.140625 1 0 .546875-.390625.984375-1.234375.984375-.921875 0-1.3125-.609375-1.515625-1.546875-.03125-.140625-.046875-.1875-.15625-.1875-.140625 0-.140625.078125-.140625.28125v1.4375c0 .1875 0 .265625.125.265625.046875 0 .0625-.015625.265625-.21875.03125-.03125.03125-.046875.21875-.25.484375.453125.96875.46875 1.203125.46875 1.25 0 1.75-.734375 1.75-1.515625 0-.578125-.328125-.90625-.453125-1.046875-.359375-.34375-.78125-.4375-1.25-.515625-.609375-.125-1.328125-.265625-1.328125-.890625 0-.390625.28125-.828125 1.21875-.828125 1.1875 0 1.25.96875 1.265625 1.3125.015625.09375.109375.09375.140625.09375.140625 0 .140625-.046875.140625-.25v-1.109375c0-.1875 0-.265625-.125-.265625-.046875 0-.078125 0-.21875.140625-.03125.03125-.140625.140625-.1875.171875-.40625-.3125-.859375-.3125-1.015625-.3125-1.328125 0-1.75.734375-1.75 1.34375 0 .390625.171875.6875.46875.921875.34375.296875.65625.359375 1.4375.515625zm0 0"/></symbol><symbol id="l" overflow="visible"><path d="m1.890625-4.359375h1.5625v-.34375h-1.5625v-2h-.28125c0 .890625-.328125 2.0625-1.40625 2.09375v.25h.9375v3c0 1.34375 1.015625 1.484375 1.40625 1.484375.765625 0 1.078125-.78125 1.078125-1.484375v-.609375h-.28125v.59375c0 .8125-.328125 1.21875-.71875 1.21875-.734375 0-.734375-.984375-.734375-1.171875zm0 0"/></symbol><symbol id="m" overflow="visible"><path d="m1.203125-3.75v2.921875c0 .484375-.125.484375-.859375.484375v.34375c.390625-.015625.9375-.03125 1.234375-.03125.28125 0 .859375.015625 1.21875.03125v-.34375c-.71875 0-.84375 0-.84375-.484375v-2c0-1.140625.765625-1.75 1.46875-1.75.6875 0 .8125.59375.8125 1.203125v2.546875c0 .484375-.125.484375-.859375.484375v.34375c.390625-.015625.9375-.03125 1.234375-.03125.28125 0 .859375.015625 1.21875.03125v-.34375c-.5625 0-.828125 0-.84375-.328125v-2.078125c0-.9375 0-1.28125-.34375-1.671875-.140625-.1875-.5-.40625-1.140625-.40625-.796875 0-1.3125.46875-1.609375 1.15625v-1.15625l-1.546875.125v.34375c.765625 0 .859375.078125.859375.609375zm0 0"/></symbol><symbol id="n" overflow="visible"><path d="m4.53125-3.625c.109375-.25.296875-.734375 1.015625-.734375v-.34375c-.25.03125-.578125.03125-.828125.03125-.265625 0-.765625-.015625-.9375-.03125v.34375c.390625 0 .515625.265625.515625.46875 0 .09375-.015625.140625-.0625.265625l-1.109375 2.78125-1.234375-3.046875c-.0625-.140625-.0625-.171875-.0625-.1875 0-.28125.421875-.28125.625-.28125v-.34375c-.328125.015625-.9375.03125-1.1875.03125-.296875 0-.734375 0-1.0625-.03125v.34375c.6875 0 .734375.0625.875.40625l1.578125 3.859375c.0625.15625.078125.21875.21875.21875s.1875-.109375.234375-.21875zm0 0"/></symbol><symbol id="o" overflow="visible"><path d="m1.875-4.109375v-3.453125l-1.5625.109375v.34375c.75 0 .84375.078125.84375.609375v6.5h.265625c.015625-.015625.109375-.15625.40625-.671875.15625.25.609375.796875 1.421875.796875 1.296875 0 2.4375-1.078125 2.4375-2.484375 0-1.375-1.078125-2.46875-2.3125-2.46875-.859375 0-1.328125.515625-1.5.71875zm.03125 2.859375v-2.234375c0-.21875 0-.21875.125-.390625.421875-.625 1.015625-.703125 1.28125-.703125.5 0 .890625.28125 1.140625.703125.296875.4375.328125 1.0625.328125 1.515625 0 .390625-.03125 1.046875-.34375 1.546875-.234375.328125-.640625.6875-1.234375.6875-.484375 0-.875-.25-1.140625-.65625-.15625-.234375-.15625-.265625-.15625-.46875zm0 0"/></symbol><symbol id="p" overflow="visible"><path d="m1.9375-7.5625-1.578125.109375v.34375c.765625 0 .84375.078125.84375.609375v5.671875c0 .484375-.109375.484375-.84375.484375v.34375c.359375-.015625.9375-.03125 1.21875-.03125.265625 0 .796875.015625 1.203125.03125v-.34375c-.734375 0-.84375 0-.84375-.484375zm0 0"/></symbol><symbol id="q" overflow="visible"><path d="m3.609375 2.625c0-.046875 0-.0625-.1875-.25-1.359375-1.375-1.703125-3.4375-1.703125-5.09375 0-1.90625.40625-3.796875 1.75-5.171875.140625-.125.140625-.140625.140625-.1875 0-.0625-.046875-.09375-.109375-.09375-.109375 0-1.09375.734375-1.734375 2.125-.5625 1.1875-.6875 2.40625-.6875 3.328125 0 .84375.125 2.15625.71875 3.390625.65625 1.34375 1.59375 2.046875 1.703125 2.046875.0625 0 .109375-.03125.109375-.09375zm0 0"/></symbol><symbol id="r" overflow="visible"><path d="m3.15625-2.71875c0-.859375-.125-2.171875-.71875-3.40625-.65625-1.34375-1.59375-2.046875-1.703125-2.046875-.0625 0-.109375.03125-.109375.09375 0 .046875 0 .0625.203125.265625 1.0625 1.078125 1.6875 2.8125 1.6875 5.09375 0 1.859375-.40625 3.78125-1.75 5.15625-.140625.125-.140625.140625-.140625.1875 0 .0625.046875.09375.109375.09375.109375 0 1.09375-.734375 1.734375-2.125.546875-1.1875.6875-2.40625.6875-3.3125zm0 0"/></symbol><symbol id="s" overflow="visible"><path d="m2.21875-.015625c0-.6875-.265625-1.140625-.703125-1.140625-.375 0-.578125.296875-.578125.578125s.1875.578125.578125.578125c.171875 0 .3125-.0625.421875-.15625l.015625-.015625c.015625 0 .015625.015625.015625.15625 0 .703125-.296875 1.375-.78125 1.875-.0625.078125-.078125.078125-.078125.125 0 .078125.0625.125.109375.125.140625 0 1-.859375 1-2.125zm0 0"/></symbol><symbol id="t" overflow="visible"><path d="m6.75-3.671875c.203125-.53125.53125-.6875.921875-.6875v-.34375c-.25.03125-.5625.03125-.796875.03125-.328125 0-.8125-.015625-1.015625-.03125v.34375c.390625 0 .625.203125.625.515625 0 .0625 0 .09375-.046875.234375l-1 2.796875-1.078125-3.046875c-.046875-.125-.046875-.15625-.046875-.203125 0-.296875.421875-.296875.640625-.296875v-.34375c-.3125.015625-.875.03125-1.140625.03125-.328125 0-.640625 0-.96875-.03125v.34375c.40625 0 .578125.015625.6875.15625.0625.0625.171875.390625.25.609375l-.9375 2.640625-1.03125-2.921875c-.0625-.125-.0625-.15625-.0625-.1875 0-.296875.4375-.296875.65625-.296875v-.34375c-.328125.015625-.9375.03125-1.203125.03125-.03125 0-.609375 0-1-.03125v.34375c.53125 0 .671875.03125.796875.375l1.375 3.859375c.0625.15625.09375.25.234375.25s.15625-.078125.21875-.21875l1.09375-3.09375 1.109375 3.09375c.046875.125.078125.21875.21875.21875.15625 0 .1875-.109375.21875-.21875zm0 0"/></symbol><symbol id="u" overflow="visible"><path d="m4.140625-.59375v.71875l1.609375-.125v-.34375c-.765625 0-.859375-.078125-.859375-.609375v-6.609375l-1.5625.109375v.34375c.765625 0 .84375.078125.84375.609375v2.359375c-.3125-.390625-.78125-.6875-1.375-.6875-1.28125 0-2.421875 1.078125-2.421875 2.484375 0 1.390625 1.0625 2.46875 2.3125 2.46875.6875 0 1.1875-.375 1.453125-.71875zm0-2.921875v2.234375c0 .1875 0 .21875-.109375.390625-.328125.53125-.828125.765625-1.296875.765625-.484375 0-.875-.28125-1.140625-.6875-.28125-.453125-.3125-1.078125-.3125-1.515625 0-.40625.015625-1.0625.328125-1.546875.234375-.34375.640625-.703125 1.234375-.703125.390625 0 .84375.15625 1.1875.65625.109375.1875.109375.203125.109375.40625zm0 0"/></symbol><symbol id="v" overflow="visible"><path d="m1.28125-2.375c0-1.78125.890625-2.234375 1.46875-2.234375.09375 0 .78125 0 1.171875.40625-.453125.03125-.515625.359375-.515625.5 0 .28125.1875.5.5.5.28125 0 .5-.1875.5-.515625 0-.734375-.828125-1.171875-1.671875-1.171875-1.359375 0-2.359375 1.1875-2.359375 2.53125 0 1.40625 1.078125 2.484375 2.34375 2.484375 1.453125 0 1.8125-1.3125 1.8125-1.421875s-.109375-.109375-.140625-.109375c-.109375 0-.125.046875-.140625.109375-.328125 1.015625-1.03125 1.140625-1.4375 1.140625-.578125 0-1.53125-.46875-1.53125-2.21875zm0 0"/></symbol><symbol id="w" overflow="visible"><path d="m2.421875-1.875c-.953125 0-.953125-1.09375-.953125-1.34375 0-.296875.015625-.640625.171875-.921875.09375-.125.34375-.421875.78125-.421875.953125 0 .953125 1.078125.953125 1.328125 0 .296875-.015625.65625-.171875.921875-.09375.125-.34375.4375-.78125.4375zm-1.265625.421875c0-.046875 0-.296875.1875-.515625.421875.3125.875.34375 1.078125.34375 1.015625 0 1.765625-.75 1.765625-1.59375 0-.40625-.171875-.8125-.453125-1.0625.40625-.359375.796875-.421875.984375-.421875.03125 0 .078125 0 .109375.015625-.109375.046875-.171875.15625-.171875.296875 0 .1875.140625.3125.3125.3125.109375 0 .328125-.078125.328125-.328125 0-.1875-.140625-.53125-.5625-.53125-.21875 0-.703125.0625-1.15625.515625-.453125-.359375-.921875-.40625-1.15625-.40625-1.015625 0-1.765625.765625-1.765625 1.59375 0 .484375.234375.90625.515625 1.125-.140625.171875-.34375.53125-.34375.90625 0 .34375.140625.75.484375.96875-.65625.1875-1 .65625-1 1.09375 0 .78125 1.078125 1.390625 2.40625 1.390625 1.28125 0 2.421875-.5625 2.421875-1.40625 0-.390625-.15625-.9375-.71875-1.25-.578125-.296875-1.203125-.296875-1.875-.296875-.265625 0-.734375 0-.8125-.015625-.34375-.046875-.578125-.375-.578125-.734375zm1.5625 3.453125c-1.09375 0-1.84375-.5625-1.84375-1.140625 0-.5.40625-.90625.890625-.9375h.640625c.9375 0 2.15625 0 2.15625.9375 0 .59375-.765625 1.140625-1.84375 1.140625zm0 0"/></symbol><symbol id="x" overflow="visible"><path d="m2.09375-.578125c0-.3125-.265625-.578125-.578125-.578125s-.578125.265625-.578125.578125.265625.578125.578125.578125.578125-.265625.578125-.578125zm0 0"/></symbol><symbol id="y" overflow="visible"><path d="m6.34375-2.8125h-.265625c-.125 1.109375-.28125 2.46875-2.203125 2.46875h-.890625c-.515625 0-.53125-.078125-.53125-.4375v-5.8125c0-.359375 0-.515625 1.03125-.515625h.359375v-.34375c-.390625.03125-1.375.03125-1.828125.03125-.421875 0-1.28125 0-1.65625-.03125v.34375h.265625c.84375 0 .859375.125.859375.515625v5.75c0 .390625-.015625.5-.859375.5h-.265625v.34375h5.6875zm0 0"/></symbol><symbol id="z" overflow="visible"><path d="m3.015625-2.046875v-.625h-2.890625v.625zm0 0"/></symbol><symbol id="A" overflow="visible"><path d="m3.125-2.5625c.328125-.421875.75-.953125 1.015625-1.234375.328125-.390625.78125-.5625 1.296875-.5625v-.34375c-.296875.03125-.609375.03125-.90625.03125-.328125 0-.90625-.015625-1.046875-.03125v.34375c.234375.015625.328125.15625.328125.328125 0 .1875-.109375.328125-.171875.390625l-.671875.84375-.859375-1.09375c-.09375-.109375-.09375-.140625-.09375-.203125 0-.15625.171875-.265625.390625-.265625v-.34375c-.296875.015625-1.015625.03125-1.1875.03125-.21875 0-.734375 0-1.03125-.03125v.34375c.765625 0 .765625 0 1.28125.65625l1.078125 1.40625-1.015625 1.296875c-.53125.640625-1.171875.65625-1.40625.65625v.34375c.296875-.015625.625-.03125.90625-.03125.328125 0 .78125.015625 1.046875.03125v-.34375c-.25-.03125-.328125-.171875-.328125-.328125 0-.25.328125-.609375.984375-1.390625l.828125 1.09375c.09375.125.234375.296875.234375.359375 0 .09375-.09375.265625-.390625.265625v.34375c.328125-.015625.9375-.03125 1.171875-.03125.296875 0 .71875.015625 1.046875.03125v-.34375c-.59375 0-.78125-.015625-1.03125-.328125zm0 0"/></symbol><symbol id="B" overflow="visible"><path d="m7.5-3.5625c.15625 0 .359375 0 .359375-.21875s-.203125-.21875-.359375-.21875h-6.53125c-.15625 0-.359375 0-.359375.21875s.203125.21875.375.21875zm0 2.109375c.15625 0 .359375 0 .359375-.21875s-.203125-.21875-.359375-.21875h-6.515625c-.171875 0-.375 0-.375.21875s.203125.21875.359375.21875zm0 0"/></symbol><symbol id="C" overflow="visible"><path d="m1.390625-.84375 1.15625-1.125c1.703125-1.5 2.34375-2.09375 2.34375-3.171875 0-1.25-.96875-2.125-2.3125-2.125-1.21875 0-2.03125 1-2.03125 1.96875 0 .625.546875.625.578125.625.1875 0 .5625-.140625.5625-.578125 0-.296875-.1875-.578125-.578125-.578125-.078125 0-.109375 0-.140625.015625.25-.703125.84375-1.109375 1.46875-1.109375 1 0 1.46875.875 1.46875 1.78125 0 .859375-.546875 1.734375-1.140625 2.40625l-2.09375 2.328125c-.125.125-.125.140625-.125.40625h4.046875l.296875-1.890625h-.265625c-.0625.3125-.125.796875-.234375.96875-.078125.078125-.796875.078125-1.046875.078125zm0 0"/></symbol><symbol id="D" overflow="visible"><path d="m3.203125-6.984375c0-.25 0-.28125-.25-.28125-.671875.703125-1.640625.703125-1.984375.703125v.328125c.21875 0 .859375 0 1.4375-.28125v5.65625c0 .390625-.046875.515625-1.015625.515625h-.359375v.34375c.390625-.03125 1.328125-.03125 1.765625-.03125s1.390625 0 1.765625.03125v-.34375h-.34375c-.984375 0-1.015625-.109375-1.015625-.515625zm0 0"/></symbol><symbol id="E" overflow="visible"><path d="m2.09375-6.71875c0-.296875-.25-.578125-.578125-.578125-.375 0-.59375.3125-.59375.578125 0 .296875.25.578125.578125.578125.375 0 .59375-.3125.59375-.578125zm0 0"/></symbol><symbol id="F" overflow="visible"><path d="m4.453125-2.515625h3.046875c.15625 0 .359375 0 .359375-.203125 0-.21875-.203125-.21875-.359375-.21875h-3.046875v-3.0625c0-.15625 0-.359375-.203125-.359375-.21875 0-.21875.203125-.21875.359375v3.0625h-3.0625c-.15625 0-.359375 0-.359375.21875 0 .203125.203125.203125.359375.203125h3.0625v3.0625c0 .15625 0 .359375.21875.359375.203125 0 .203125-.203125.203125-.359375zm0 0"/></symbol><symbol id="G" overflow="visible"><path d="m3.15625-3.84375c.90625-.296875 1.53125-1.046875 1.53125-1.921875 0-.890625-.953125-1.5-2-1.5-1.109375 0-1.9375.65625-1.9375 1.484375 0 .359375.25.5625.5625.5625.328125 0 .546875-.234375.546875-.546875 0-.546875-.5-.546875-.671875-.546875.34375-.53125 1.0625-.671875 1.453125-.671875.453125 0 1.046875.234375 1.046875 1.21875 0 .125-.015625.765625-.3125 1.234375-.328125.53125-.6875.5625-.96875.578125-.078125 0-.34375.03125-.421875.03125-.09375 0-.15625.015625-.15625.125 0 .125.0625.125.25.125h.484375c.890625 0 1.296875.734375 1.296875 1.8125 0 1.484375-.75 1.796875-1.234375 1.796875-.46875 0-1.28125-.1875-1.671875-.828125.390625.046875.71875-.1875.71875-.609375 0-.390625-.28125-.609375-.609375-.609375-.25 0-.609375.15625-.609375.640625 0 .984375 1.015625 1.703125 2.203125 1.703125 1.328125 0 2.328125-.984375 2.328125-2.09375 0-.90625-.6875-1.75-1.828125-1.984375zm0 0"/></symbol><symbol id="H" overflow="visible"><path d="m4.265625-.859375v.984375l1.5625-.125v-.34375c-.75 0-.84375-.078125-.84375-.609375v-3.875l-1.609375.125v.34375c.765625 0 .859375.078125.859375.609375v1.9375c0 .953125-.53125 1.6875-1.328125 1.6875-.90625 0-.953125-.5-.953125-1.078125v-3.625l-1.609375.125v.34375c.859375 0 .859375.03125.859375 1v1.640625c0 .84375 0 1.84375 1.65625 1.84375.609375 0 1.09375-.3125 1.40625-.984375zm0 0"/></symbol><symbol id="I" overflow="visible"><path d="m4.25-4.375c.109375-.125.109375-.140625.109375-.1875 0-.140625-.09375-.140625-.296875-.140625h-3.484375l-.125 1.765625h.28125c.0625-1.125.265625-1.515625 1.46875-1.515625h1.25l-3.046875 4.109375c-.09375.109375-.09375.140625-.09375.1875 0 .15625.0625.15625.28125.15625h3.59375l.1875-2.046875h-.28125c-.09375 1.296875-.3125 1.78125-1.578125 1.78125h-1.296875zm0 0"/></symbol><symbol id="J" overflow="visible"><path d="m3.8125-4.234375-1.40625-.328125c-.671875-.171875-1.09375-.765625-1.09375-1.390625 0-.765625.578125-1.4375 1.4375-1.4375 1.8125 0 2.0625 1.796875 2.125 2.28125.015625.078125.015625.140625.125.140625.140625 0 .140625-.0625.140625-.265625v-2.1875c0-.1875 0-.265625-.109375-.265625-.078125 0-.09375.015625-.171875.140625l-.375.625c-.328125-.3125-.78125-.765625-1.75-.765625-1.203125 0-2.125.953125-2.125 2.109375 0 .90625.578125 1.703125 1.4375 2 .109375.046875.671875.171875 1.4375.359375.296875.078125.609375.15625.921875.5625.234375.28125.34375.640625.34375 1 0 .765625-.546875 1.5625-1.46875 1.5625-.3125 0-1.140625-.0625-1.71875-.59375-.640625-.59375-.671875-1.28125-.671875-1.671875-.015625-.109375-.109375-.109375-.140625-.109375-.140625 0-.140625.0625-.140625.265625v2.1875c0 .171875 0 .25.125.25.078125 0 .078125-.015625.15625-.140625 0 0 .03125-.046875.390625-.625.34375.375 1.046875.765625 2.015625.765625 1.265625 0 2.140625-1.0625 2.140625-2.265625 0-1.09375-.71875-1.984375-1.625-2.203125zm0 0"/></symbol><symbol id="K" overflow="visible"><path d="m4.34375-7.59375c-.0625-.140625-.078125-.21875-.25-.21875s-.21875.0625-.265625.21875l-2.25 6.53125c-.203125.546875-.640625.71875-1.234375.71875v.34375c.25-.015625.71875-.03125 1.125-.03125.328125 0 .890625.015625 1.25.03125v-.34375c-.546875 0-.828125-.265625-.828125-.546875 0-.03125.015625-.140625.03125-.171875l.5-1.421875h2.6875l.578125 1.671875c.015625.03125.03125.109375.03125.140625 0 .328125-.609375.328125-.890625.328125v.34375c.390625-.03125 1.15625-.03125 1.5625-.03125.46875 0 .96875.015625 1.421875.03125v-.34375h-.1875c-.65625 0-.8125-.078125-.921875-.4375zm-.578125 1.21875 1.234375 3.546875h-2.453125zm0 0"/></symbol><symbol id="L" overflow="visible"><path d="m.375-7.453125v.34375h.265625c.84375 0 .859375.125.859375.515625v5.75c0 .390625-.015625.5-.859375.5h-.265625v.34375h4c1.828125 0 3.328125-1.609375 3.328125-3.671875s-1.46875-3.78125-3.328125-3.78125zm2.609375 7.109375c-.515625 0-.546875-.078125-.546875-.4375v-5.890625c0-.359375.03125-.4375.546875-.4375h1.078125c.6875 0 1.4375.234375 1.984375 1.015625.46875.640625.578125 1.578125.578125 2.421875 0 1.21875-.21875 1.875-.609375 2.40625-.21875.296875-.828125.921875-1.9375.921875zm0 0"/></symbol><symbol id="M" overflow="visible"><path d="m2.25-6.421875c0-.65625-.265625-1.140625-.734375-1.140625-.375 0-.578125.28125-.578125.578125 0 .28125.1875.578125.578125.578125.21875 0 .375-.109375.4375-.1875.015625-.015625.015625-.03125.03125-.03125s.015625.15625.015625.203125c0 .34375-.0625 1.125-.75 1.8125-.140625.125-.140625.15625-.140625.1875 0 .0625.0625.109375.109375.109375.125 0 1.03125-.828125 1.03125-2.109375zm0 0"/></symbol><symbol id="N" overflow="visible"><path d="m1.90625-4.703125v-1.265625c0-.953125.53125-1.484375 1-1.484375.03125 0 .203125 0 .359375.078125-.125.046875-.328125.1875-.328125.453125s.1875.46875.46875.46875c.328125 0 .484375-.203125.484375-.46875 0-.40625-.40625-.765625-.984375-.765625-.75 0-1.6875.578125-1.6875 1.734375v1.25h-.859375v.34375h.859375v3.53125c0 .484375-.125.484375-.84375.484375v.34375c.421875-.015625.9375-.03125 1.234375-.03125.4375 0 .953125 0 1.390625.03125v-.34375h-.234375c-.796875 0-.828125-.109375-.828125-.5v-3.515625h1.25v-.34375zm0 0"/></symbol><symbol id="O" overflow="visible"><path d="m2.53125-7.3125c-.09375-.125-.109375-.140625-.3125-.140625h-1.859375v.34375h.3125c.171875 0 .390625.015625.546875.015625.25.03125.265625.046875.265625.25v5.703125c0 .296875 0 .796875-1.125.796875v.34375c.375-.015625.921875-.03125 1.28125-.03125s.890625.015625 1.265625.03125v-.34375c-1.125 0-1.125-.5-1.125-.796875v-5.671875c.0625.046875.078125.0625.109375.125l4.453125 6.546875c.109375.125.109375.140625.1875.140625.15625 0 .15625-.078125.15625-.28125v-6.015625c0-.296875 0-.8125 1.125-.8125v-.34375c-.390625.015625-.921875.03125-1.28125.03125s-.890625-.015625-1.28125-.03125v.34375c1.125 0 1.125.515625 1.125.8125v4.65625zm0 0"/></symbol><symbol id="P" overflow="visible"><path d="m.609375-3.734375c0 2.265625 1.765625 3.96875 3.796875 3.96875 1.78125 0 2.84375-1.515625 2.84375-2.78125 0-.109375 0-.171875-.140625-.171875-.125 0-.125.0625-.125.171875-.09375 1.546875-1.265625 2.453125-2.453125 2.453125-.65625 0-2.796875-.375-2.796875-3.625 0-3.265625 2.125-3.625 2.796875-3.625 1.1875 0 2.15625.984375 2.375 2.578125.015625.15625.015625.1875.171875.1875.171875 0 .171875-.03125.171875-.265625v-2.578125c0-.1875 0-.265625-.125-.265625-.03125 0-.078125 0-.171875.125l-.546875.8125c-.390625-.390625-.953125-.9375-2-.9375-2.046875 0-3.796875 1.734375-3.796875 3.953125zm0 0"/></symbol><symbol id="Q" overflow="visible"><path d="m3.203125-1.796875v.953125c0 .390625-.015625.5-.828125.5h-.21875v.34375c.4375-.03125 1-.03125 1.46875-.03125.453125 0 1.03125 0 1.484375.03125v-.34375h-.234375c-.8125 0-.828125-.109375-.828125-.5v-.953125h1.09375v-.34375h-1.09375v-4.953125c0-.21875 0-.296875-.171875-.296875-.09375 0-.140625 0-.21875.140625l-3.34375 5.109375v.34375zm.0625-.34375h-2.65625l2.65625-4.0625zm0 0"/></symbol><symbol id="R" overflow="visible"><path d="m4.890625-2.1875c0-1.296875-.890625-2.390625-2.0625-2.390625-.53125 0-1 .171875-1.390625.546875v-2.125c.21875.078125.578125.140625.921875.140625 1.34375 0 2.109375-.984375 2.109375-1.125 0-.0625-.03125-.125-.109375-.125 0 0-.03125 0-.078125.03125-.21875.109375-.765625.3125-1.484375.3125-.4375 0-.9375-.0625-1.453125-.296875-.09375-.03125-.109375-.03125-.140625-.03125-.109375 0-.109375.078125-.109375.265625v3.21875c0 .203125 0 .28125.15625.28125.078125 0 .109375-.03125.140625-.09375.125-.171875.53125-.765625 1.40625-.765625.578125 0 .84375.5.9375.703125.171875.40625.1875.828125.1875 1.375 0 .375 0 1.03125-.25 1.484375-.265625.4375-.671875.71875-1.171875.71875-.796875 0-1.421875-.578125-1.609375-1.21875.03125 0 .0625.015625.1875.015625.359375 0 .546875-.265625.546875-.53125s-.1875-.53125-.546875-.53125c-.15625 0-.53125.078125-.53125.578125 0 .9375.75 1.984375 1.96875 1.984375 1.265625 0 2.375-1.046875 2.375-2.421875zm0 0"/></symbol><symbol id="S" overflow="visible"><path d="m3.640625-3.296875c.0625-.28125.3125-1.28125 1.078125-1.28125.0625 0 .3125 0 .546875.140625-.296875.046875-.515625.328125-.515625.59375 0 .171875.109375.375.40625.375.25 0 .59375-.203125.59375-.625 0-.578125-.640625-.734375-1.015625-.734375-.640625 0-1.015625.578125-1.140625.84375-.28125-.734375-.875-.84375-1.1875-.84375-1.125 0-1.75 1.421875-1.75 1.6875 0 .109375.109375.109375.125.109375.09375 0 .125-.015625.140625-.125.375-1.15625 1.09375-1.421875 1.46875-1.421875.203125 0 .59375.09375.59375.734375 0 .328125-.1875 1.0625-.59375 2.59375-.171875.671875-.5625 1.125-1.03125 1.125-.078125 0-.328125 0-.546875-.140625.265625-.046875.5-.28125.5-.578125s-.234375-.390625-.390625-.390625c-.328125 0-.609375.28125-.609375.640625 0 .5.546875.71875 1.03125.71875.71875 0 1.109375-.765625 1.140625-.828125.140625.390625.53125.828125 1.1875.828125 1.109375 0 1.734375-1.40625 1.734375-1.6875 0-.109375-.09375-.109375-.125-.109375-.09375 0-.125.046875-.140625.125-.359375 1.171875-1.109375 1.421875-1.453125 1.421875-.421875 0-.59375-.34375-.59375-.71875 0-.234375.0625-.46875.171875-.953125zm0 0"/></symbol><symbol id="T" overflow="visible"><path d="m2.21875-.015625c0-.71875-.28125-1.140625-.703125-1.140625-.359375 0-.578125.265625-.578125.578125 0 .296875.21875.578125.578125.578125.125 0 .265625-.046875.375-.140625.046875-.015625.046875-.03125.0625-.03125s.015625.015625.015625.15625c0 .8125-.375 1.46875-.734375 1.828125-.125.125-.125.140625-.125.171875 0 .078125.0625.125.109375.125.125 0 1-.84375 1-2.125zm0 0"/></symbol><symbol id="U" overflow="visible"><path d="m5.296875-4.15625c.046875-.15625.046875-.171875.046875-.25 0-.203125-.15625-.296875-.3125-.296875-.109375 0-.28125.0625-.390625.234375-.015625.046875-.109375.390625-.140625.59375-.078125.28125-.15625.578125-.21875.859375l-.5 1.96875c-.046875.15625-.515625.921875-1.234375.921875-.546875 0-.671875-.46875-.671875-.875 0-.5.1875-1.1875.5625-2.140625.171875-.453125.21875-.5625.21875-.78125 0-.5-.359375-.90625-.90625-.90625-1.03125 0-1.4375 1.59375-1.4375 1.6875 0 .109375.109375.109375.140625.109375.109375 0 .109375-.015625.171875-.203125.296875-1.015625.734375-1.34375 1.09375-1.34375.09375 0 .28125 0 .28125.34375 0 .28125-.109375.5625-.1875.765625-.4375 1.15625-.640625 1.78125-.640625 2.296875 0 .96875.6875 1.296875 1.34375 1.296875.421875 0 .78125-.1875 1.09375-.5-.140625.578125-.265625 1.109375-.703125 1.6875-.28125.359375-.703125.6875-1.203125.6875-.15625 0-.640625-.03125-.828125-.46875.171875 0 .3125 0 .46875-.125.109375-.09375.21875-.234375.21875-.453125 0-.328125-.296875-.375-.40625-.375-.25 0-.609375.171875-.609375.703125 0 .546875.484375.953125 1.15625.953125 1.125 0 2.25-.984375 2.546875-2.21875zm0 0"/></symbol><symbol id="V" overflow="visible"><path d="m4.265625-4.078125c-.3125.015625-.53125.25-.53125.484375 0 .15625.109375.328125.34375.328125s.5-.1875.5-.609375c0-.5-.46875-.953125-1.296875-.953125-1.4375 0-1.84375 1.125-1.84375 1.59375 0 .859375.8125 1.015625 1.125 1.078125.5625.109375 1.140625.234375 1.140625.84375 0 .28125-.25 1.1875-1.5625 1.1875-.15625 0-1 0-1.25-.578125.421875.0625.6875-.265625.6875-.578125 0-.25-.171875-.375-.40625-.375-.28125 0-.609375.234375-.609375.71875 0 .625.625 1.0625 1.5625 1.0625 1.765625 0 2.1875-1.328125 2.1875-1.8125 0-.390625-.203125-.671875-.328125-.796875-.296875-.3125-.609375-.359375-1.09375-.453125-.390625-.09375-.828125-.171875-.828125-.65625 0-.328125.265625-.984375 1.21875-.984375.28125 0 .8125.078125.984375.5zm0 0"/></symbol><symbol id="W" overflow="visible"><path d="m2.25-4.359375h1.015625c.21875 0 .328125 0 .328125-.21875 0-.125-.109375-.125-.296875-.125h-.96875c.390625-1.546875.453125-1.765625.453125-1.828125 0-.1875-.125-.296875-.3125-.296875-.03125 0-.34375.015625-.4375.390625l-.421875 1.734375h-1.03125c-.21875 0-.328125 0-.328125.203125 0 .140625.09375.140625.3125.140625h.953125c-.78125 3.09375-.828125 3.28125-.828125 3.46875 0 .59375.40625 1.015625 1 1.015625 1.109375 0 1.734375-1.59375 1.734375-1.6875 0-.109375-.078125-.109375-.125-.109375-.09375 0-.109375.03125-.171875.15625-.46875 1.140625-1.046875 1.390625-1.40625 1.390625-.234375 0-.34375-.140625-.34375-.5 0-.265625.015625-.328125.0625-.515625zm0 0"/></symbol><symbol id="X" overflow="visible"><path d="m7.03125-7.578125c0-.03125-.015625-.109375-.109375-.109375-.0625 0-.078125.015625-.203125.15625l-.53125.625c-.28125-.515625-.84375-.78125-1.546875-.78125-1.390625 0-2.703125 1.25-2.703125 2.578125 0 .875.578125 1.375 1.140625 1.546875l1.171875.296875c.390625.109375 1 .265625 1 1.15625 0 .984375-.890625 2.015625-1.96875 2.015625-.703125 0-1.90625-.25-1.90625-1.59375 0-.265625.046875-.53125.0625-.59375.015625-.046875.03125-.046875.03125-.078125 0-.109375-.078125-.109375-.140625-.109375-.046875 0-.078125 0-.109375.03125-.046875.046875-.65625 2.53125-.65625 2.5625 0 .078125.0625.109375.125.109375.046875 0 .0625 0 .203125-.15625l.53125-.625c.46875.640625 1.203125.78125 1.84375.78125 1.484375 0 2.765625-1.4375 2.765625-2.796875 0-.75-.375-1.125-.53125-1.28125-.25-.25-.421875-.296875-1.390625-.546875-.234375-.0625-.625-.171875-.734375-.1875-.28125-.09375-.65625-.421875-.65625-1 0-.875.875-1.8125 1.90625-1.8125.90625 0 1.5625.46875 1.5625 1.703125 0 .34375-.03125.546875-.03125.609375 0 0 0 .109375.125.109375.109375 0 .125-.03125.171875-.21875zm0 0"/></symbol><symbol id="Y" overflow="visible"><path d="m4.078125-6.59375c.09375-.390625.125-.515625 1.15625-.515625.328125 0 .421875 0 .421875-.203125 0-.140625-.125-.140625-.1875-.140625-.359375 0-1.25.03125-1.609375.03125-.328125 0-1.125-.03125-1.453125-.03125-.078125 0-.203125 0-.203125.21875 0 .125.09375.125.3125.125.015625 0 .21875 0 .40625.015625.203125.03125.296875.03125.296875.171875 0 .046875-.015625.078125-.046875.21875l-1.453125 5.859375c-.109375.421875-.140625.5-1 .5-.1875 0-.296875 0-.296875.21875 0 .125.109375.125.296875.125h5.046875c.265625 0 .28125 0 .34375-.1875l.859375-2.359375c.046875-.109375.046875-.140625.046875-.140625 0-.046875-.03125-.125-.140625-.125-.09375 0-.109375.046875-.171875.234375-.375 1-.859375 2.234375-2.75 2.234375h-1.015625c-.15625 0-.171875 0-.25 0-.109375-.015625-.140625-.03125-.140625-.109375 0-.03125 0-.0625.0625-.25zm0 0"/></symbol><symbol id="Z" overflow="visible"><path d="m4.3125-4.140625c-.171875 0-.328125 0-.46875.15625-.171875.15625-.203125.34375-.203125.421875 0 .265625.203125.375.40625.375.3125 0 .609375-.265625.609375-.6875 0-.546875-.515625-.953125-1.28125-.953125-1.484375 0-2.921875 1.5625-2.921875 3.109375 0 .984375.625 1.84375 1.765625 1.84375 1.5625 0 2.46875-1.15625 2.46875-1.296875 0-.0625-.0625-.140625-.125-.140625s-.078125.03125-.140625.109375c-.859375 1.078125-2.0625 1.078125-2.1875 1.078125-.6875 0-.984375-.53125-.984375-1.1875 0-.4375.21875-1.5.59375-2.171875.34375-.625.9375-1.09375 1.53125-1.09375.375 0 .796875.140625.9375.4375zm0 0"/></symbol><symbol id="aa" overflow="visible"><path d="m5.625-7.453125s0-.109375-.140625-.109375c-.15625 0-1.203125.09375-1.390625.109375-.078125.015625-.140625.0625-.140625.21875 0 .125.09375.125.25.125.53125 0 .546875.078125.546875.1875l-.03125.21875-.65625 2.578125c-.1875-.40625-.5-.703125-1-.703125-1.28125 0-2.625 1.609375-2.625 3.203125 0 1.03125.59375 1.75 1.453125 1.75.21875 0 .765625-.046875 1.40625-.828125.09375.46875.484375.828125 1 .828125.375 0 .625-.25.8125-.609375.1875-.390625.328125-1.046875.328125-1.078125 0-.109375-.109375-.109375-.140625-.109375-.109375 0-.109375.046875-.15625.203125-.171875.703125-.375 1.34375-.828125 1.34375-.28125 0-.328125-.28125-.328125-.5 0-.265625.03125-.328125.078125-.515625zm-2.265625 6.15625c-.0625.203125-.0625.21875-.21875.40625-.484375.59375-.921875.765625-1.234375.765625-.546875 0-.703125-.59375-.703125-1.015625 0-.546875.359375-1.890625.609375-2.390625.34375-.640625.828125-1.046875 1.265625-1.046875.703125 0 .859375.890625.859375.953125s-.015625.140625-.03125.1875zm0 0"/></symbol><symbol id="ab" overflow="visible"><path d="m.953125-.640625c-.03125.15625-.09375.40625-.09375.46875 0 .1875.15625.296875.3125.296875.140625 0 .328125-.09375.40625-.3125.015625-.015625.140625-.53125.203125-.8125l.25-.96875c.0625-.25.125-.484375.1875-.734375.03125-.1875.125-.5.140625-.546875.15625-.34375.734375-1.328125 1.78125-1.328125.484375 0 .578125.40625.578125.765625 0 .265625-.078125.578125-.15625.90625l-.3125 1.265625-.21875.828125c-.046875.21875-.140625.578125-.140625.640625 0 .1875.15625.296875.3125.296875.34375 0 .40625-.28125.5-.625.15625-.609375.546875-2.203125.65625-2.625.03125-.140625.609375-1.453125 1.796875-1.453125.46875 0 .59375.375.59375.765625 0 .609375-.46875 1.859375-.6875 2.4375-.09375.265625-.140625.375-.140625.59375 0 .515625.390625.90625.890625.90625 1.03125 0 1.4375-1.59375 1.4375-1.6875 0-.109375-.09375-.109375-.125-.109375-.109375 0-.109375.03125-.171875.203125-.15625.578125-.515625 1.34375-1.109375 1.34375-.1875 0-.265625-.109375-.265625-.359375 0-.265625.09375-.53125.203125-.765625.203125-.578125.65625-1.78125.65625-2.40625 0-.703125-.4375-1.171875-1.25-1.171875s-1.375.484375-1.78125 1.0625c0-.140625-.046875-.515625-.34375-.765625-.28125-.234375-.625-.296875-.890625-.296875-.984375 0-1.515625.703125-1.703125.953125-.0625-.625-.515625-.953125-1-.953125-.515625 0-.71875.4375-.8125.625-.203125.390625-.34375 1.03125-.34375 1.0625 0 .109375.109375.109375.140625.109375.109375 0 .109375-.015625.171875-.25.1875-.78125.40625-1.296875.796875-1.296875.1875 0 .34375.078125.34375.5 0 .234375-.03125.34375-.171875.921875zm0 0"/></symbol><symbol id="ac" overflow="visible"><path d="m.484375 1.328125c-.078125.375-.109375.453125-.578125.453125-.140625 0-.25 0-.25.203125 0 .09375.046875.125.140625.125.296875 0 .609375-.03125.90625-.03125.359375 0 .734375.03125 1.078125.03125.0625 0 .203125 0 .203125-.21875 0-.109375-.109375-.109375-.265625-.109375-.546875 0-.546875-.078125-.546875-.171875 0-.140625.46875-1.921875.546875-2.1875.140625.3125.4375.703125 1 .703125 1.265625 0 2.625-1.59375 2.625-3.203125 0-1.015625-.625-1.75-1.453125-1.75-.546875 0-1.0625.40625-1.421875.828125-.109375-.59375-.578125-.828125-.984375-.828125-.5 0-.703125.4375-.8125.625-.1875.375-.328125 1.03125-.328125 1.0625 0 .109375.109375.109375.125.109375.109375 0 .125-.015625.1875-.25.1875-.78125.40625-1.296875.796875-1.296875.1875 0 .328125.078125.328125.5 0 .25-.03125.375-.0625.5625zm1.921875-4.734375c.078125-.296875.375-.59375.578125-.765625.375-.328125.6875-.40625.875-.40625.4375 0 .703125.375.703125 1.015625 0 .65625-.359375 1.90625-.5625 2.3125-.375.765625-.890625 1.125-1.296875 1.125-.71875 0-.859375-.90625-.859375-.96875 0-.015625 0-.046875.03125-.171875zm0 0"/></symbol><symbol id="ad" overflow="visible"><path d="m4.78125-7.765625c.0625-.140625.0625-.1875.0625-.203125 0-.109375-.09375-.203125-.21875-.203125-.078125 0-.15625.03125-.1875.09375l-3.78125 10.390625c-.0625.140625-.0625.1875-.0625.203125 0 .109375.109375.203125.21875.203125.140625 0 .1875-.0625.25-.25zm0 0"/></symbol><symbol id="ae" overflow="visible"><path d="m.359375 1.890625c-.03125.125-.03125.15625-.03125.171875 0 .15625.125.296875.296875.296875.234375 0 .375-.203125.390625-.234375.046875-.09375.40625-1.5625.703125-2.734375.21875.4375.5625.734375 1.078125.734375 1.265625 0 2.671875-1.546875 2.671875-3.171875 0-1.15625-.71875-1.78125-1.515625-1.78125-1.046875 0-2.203125 1.09375-2.53125 2.421875zm2.421875-2.015625c-.765625 0-.9375-.875-.9375-.96875 0-.046875.046875-.265625.09375-.40625.296875-1.21875.40625-1.609375.640625-2.046875.46875-.796875 1.015625-1.03125 1.359375-1.03125.40625 0 .75.3125.75 1.0625 0 .609375-.3125 1.828125-.609375 2.359375-.359375.6875-.875 1.03125-1.296875 1.03125zm0 0"/></symbol><symbol id="af" overflow="visible"><path d="m4.0625-4.125c-.1875-.40625-.5-.703125-1-.703125-1.28125 0-2.625 1.609375-2.625 3.203125 0 1.03125.59375 1.75 1.453125 1.75.21875 0 .765625-.046875 1.40625-.828125.09375.46875.484375.828125 1 .828125.375 0 .625-.25.8125-.609375.1875-.390625.328125-1.046875.328125-1.078125 0-.109375-.109375-.109375-.140625-.109375-.109375 0-.109375.046875-.15625.203125-.171875.703125-.375 1.34375-.828125 1.34375-.28125 0-.328125-.28125-.328125-.5 0-.234375.03125-.328125.15625-.796875.109375-.46875.140625-.578125.234375-.984375l.390625-1.53125c.078125-.3125.078125-.328125.078125-.375 0-.1875-.125-.296875-.3125-.296875-.265625 0-.4375.25-.46875.484375zm-.703125 2.828125c-.0625.203125-.0625.21875-.21875.40625-.484375.59375-.921875.765625-1.234375.765625-.546875 0-.703125-.59375-.703125-1.015625 0-.546875.359375-1.890625.609375-2.390625.34375-.640625.828125-1.046875 1.265625-1.046875.703125 0 .859375.890625.859375.953125s-.015625.140625-.03125.1875zm0 0"/></symbol><symbol id="ag" overflow="visible"><path d="m2.046875-2.515625c.3125 0 1.109375-.03125 1.65625-.25.765625-.328125.828125-.96875.828125-1.125 0-.484375-.421875-.9375-1.171875-.9375-1.203125 0-2.859375 1.0625-2.859375 2.96875 0 1.125.640625 1.984375 1.71875 1.984375 1.5625 0 2.46875-1.15625 2.46875-1.296875 0-.0625-.0625-.140625-.125-.140625s-.078125.03125-.140625.109375c-.859375 1.078125-2.0625 1.078125-2.1875 1.078125-.84375 0-.953125-.90625-.953125-1.265625 0-.125.015625-.46875.1875-1.125zm-.515625-.25c.421875-1.65625 1.546875-1.8125 1.828125-1.8125.515625 0 .8125.3125.8125.6875 0 1.125-1.75 1.125-2.203125 1.125zm0 0"/></symbol><symbol id="ah" overflow="visible"><path d="m1.953125-1.25c-.4375.71875-.859375.875-1.34375.90625-.125.015625-.234375.015625-.234375.21875 0 .078125.0625.125.15625.125.28125 0 .625-.03125.9375-.03125.359375 0 .734375.03125 1.078125.03125.078125 0 .21875 0 .21875-.203125 0-.125-.109375-.140625-.1875-.140625-.25-.015625-.5-.109375-.5-.375 0-.125.0625-.25.140625-.40625l.828125-1.390625h2.75c.015625.21875.171875 1.703125.171875 1.8125 0 .328125-.5625.359375-.78125.359375-.15625 0-.265625 0-.265625.21875 0 .125.125.125.15625.125.4375 0 .90625-.03125 1.359375-.03125.265625 0 .953125.03125 1.234375.03125.0625 0 .1875 0 .1875-.21875 0-.125-.109375-.125-.25-.125-.671875 0-.671875-.078125-.703125-.390625l-.671875-6.8125c-.015625-.21875-.015625-.265625-.203125-.265625-.171875 0-.21875.078125-.28125.1875zm1.3125-1.609375 2.140625-3.59375.359375 3.59375zm0 0"/></symbol><symbol id="ai" overflow="visible"><path d="m3.046875-4.09375c-.140625-.546875-.75-.828125-1.328125-.828125-.40625 0-.71875.21875-.953125.609375-.28125.4375-.421875 1.03125-.421875 1.078125 0 .15625.171875.15625.265625.15625.125 0 .171875 0 .21875-.046875.015625-.03125.015625-.046875.09375-.328125.21875-.84375.453125-1.078125.734375-1.078125.171875 0 .25.109375.25.390625 0 .1875-.046875.359375-.15625.796875-.078125.3125-.171875.75-.234375.984375l-.390625 1.53125c-.03125.15625-.09375.359375-.09375.4375 0 .234375.171875.484375.515625.484375.5625 0 .703125-.515625.78125-.828125.109375-.40625.1875-.765625.296875-1.234375.046875-.140625.3125-1.265625.34375-1.296875.015625-.0625.3125-.546875.671875-.84375.3125-.25.671875-.421875 1.125-.421875.28125 0 .546875.109375.546875.640625 0 .625-.484375 1.890625-.6875 2.4375-.125.296875-.15625.375-.15625.5625 0 .625.640625.984375 1.234375.984375 1.15625 0 1.703125-1.484375 1.703125-1.703125 0-.15625-.171875-.15625-.265625-.15625-.125 0-.203125 0-.25.140625-.359375 1.203125-.953125 1.3125-1.125 1.3125-.078125 0-.1875 0-.1875-.21875 0-.25.109375-.53125.21875-.796875.1875-.453125.6875-1.71875.6875-2.34375 0-1-.84375-1.25-1.625-1.25-.234375 0-1.03125 0-1.8125.828125zm0 0"/></symbol><symbol id="aj" overflow="visible"><path d="m3.0625-7.1875c.046875-.15625.046875-.171875.046875-.1875 0-.140625-.125-.1875-.234375-.1875-.046875 0-.0625 0-.078125 0l-1.40625.0625c-.15625.015625-.359375.03125-.359375.328125 0 .203125.21875.203125.28125.203125.125 0 .328125 0 .46875.015625-.09375.375-.203125.84375-.3125 1.265625l-.75 3c-.15625.609375-.15625.75-.15625 1 0 1.390625 1.046875 1.78125 1.859375 1.78125 1.96875 0 3.09375-1.78125 3.09375-3.21875 0-1.34375-1-1.796875-1.90625-1.796875-.515625 0-.953125.203125-1.1875.34375zm-.625 6.875c-.421875 0-.78125-.21875-.78125-.890625 0-.359375.109375-.765625.1875-1.09375.109375-.421875.296875-1.171875.375-1.5.046875-.1875.671875-.734375 1.34375-.734375s.71875.578125.71875.828125c0 .5625-.359375 1.90625-.546875 2.328125-.359375.890625-.96875 1.0625-1.296875 1.0625zm0 0"/></symbol><symbol id="ak" overflow="visible"><path d="m2.75-4.328125h.96875c.21875 0 .234375 0 .296875-.0625.0625-.03125.09375-.1875.09375-.25 0-.203125-.1875-.203125-.359375-.203125h-.875l.359375-1.40625c.03125-.171875.03125-.234375.03125-.28125 0-.34375-.28125-.484375-.5-.484375-.171875 0-.46875.078125-.640625.390625-.046875.078125-.171875.578125-.25.890625l-.21875.890625h-.984375c-.21875 0-.40625 0-.40625.3125 0 .203125.1875.203125.375.203125h.890625l-.625 2.484375c-.078125.28125-.1875.75-.1875.859375 0 .71875.703125 1.078125 1.375 1.078125 1.296875 0 2.046875-1.515625 2.046875-1.703125 0-.15625-.171875-.15625-.265625-.15625-.1875 0-.203125.015625-.28125.171875-.40625.9375-1.015625 1.28125-1.4375 1.28125-.109375 0-.265625 0-.265625-.390625 0-.21875.03125-.328125.0625-.46875zm0 0"/></symbol><symbol id="al" overflow="visible"><path d="m1.140625 23.75c.34375-.03125.53125-.265625.53125-.546875 0-.359375-.28125-.53125-.53125-.53125s-.53125.171875-.53125.546875c0 .5625.546875 1.015625 1.21875 1.015625 1.65625 0 2.265625-2.546875 3.046875-5.71875.84375-3.4375 1.546875-6.921875 2.140625-10.421875.40625-2.328125.796875-4.5 1.171875-5.90625.140625-.546875.5-1.953125.9375-1.953125.328125 0 .609375.21875.640625.25-.359375.03125-.53125.265625-.53125.546875 0 .359375.265625.53125.515625.53125.265625 0 .53125-.171875.53125-.546875 0-.59375-.578125-1.015625-1.1875-1.015625-.828125 0-1.4375 1.1875-2.03125 3.40625-.03125.125-1.515625 5.609375-2.71875 12.734375-.28125 1.671875-.609375 3.484375-.96875 5-.1875.796875-.6875 2.859375-1.578125 2.859375-.390625 0-.65625-.25-.65625-.25zm0 0"/></symbol><symbol id="am" overflow="visible"><path d="m4.625 12.65625c.34375 0 .34375-.015625.453125-.21875l5.96875-12.453125c.078125-.140625.078125-.171875.078125-.203125 0-.125-.09375-.21875-.21875-.21875-.140625 0-.1875.09375-.234375.21875l-5.640625 11.734375-2.3125-5.40625-1.515625 1.171875.15625.171875.78125-.59375zm0 0"/></symbol><symbol id="an" overflow="visible"><path d="m1.765625-3.171875h.78125c.140625 0 .234375 0 .234375-.15625 0-.109375-.09375-.109375-.234375-.109375h-.71875l.28125-1.125c.03125-.125.03125-.15625.03125-.171875 0-.171875-.125-.25-.265625-.25-.265625 0-.328125.21875-.40625.578125l-.25.96875h-.765625c-.15625 0-.25 0-.25.15625 0 .109375.09375.109375.234375.109375h.71875l-.484375 1.90625c-.046875.203125-.109375.484375-.109375.59375 0 .484375.390625.75.8125.75.84375 0 1.328125-1.125 1.328125-1.21875s-.0625-.109375-.109375-.109375c-.09375 0-.09375.03125-.15625.15625-.15625.390625-.5625.953125-1.046875.953125-.15625 0-.265625-.109375-.265625-.375 0-.15625.03125-.234375.046875-.34375zm0 0"/></symbol><symbol id="ao" overflow="visible"><path d="m4-3.171875c-.359375.078125-.375.390625-.375.421875 0 .171875.140625.296875.3125.296875s.4375-.140625.4375-.484375c0-.453125-.5-.578125-.796875-.578125-.359375 0-.671875.265625-.859375.578125-.171875-.421875-.578125-.578125-.90625-.578125-.875 0-1.359375 1-1.359375 1.21875 0 .078125.0625.109375.125.109375.09375 0 .109375-.046875.125-.140625.1875-.578125.671875-.96875 1.078125-.96875.3125 0 .46875.234375.46875.515625 0 .15625-.09375.53125-.15625.78125-.0625.234375-.234375.9375-.28125 1.09375-.109375.421875-.390625.765625-.75.765625-.03125 0-.234375 0-.40625-.109375.359375-.09375.359375-.421875.359375-.4375 0-.1875-.140625-.296875-.3125-.296875-.21875 0-.453125.1875-.453125.484375 0 .375.390625.578125.796875.578125.421875 0 .71875-.3125.859375-.578125.1875.390625.546875.578125.9375.578125.859375 0 1.34375-1 1.34375-1.21875 0-.078125-.0625-.109375-.125-.109375-.09375 0-.109375.0625-.140625.140625-.15625.53125-.609375.96875-1.0625.96875-.265625 0-.453125-.171875-.453125-.515625 0-.15625.046875-.34375.15625-.78125.046875-.25.21875-.9375.265625-1.09375.109375-.421875.390625-.765625.75-.765625.046875 0 .25 0 .421875.125zm0 0"/></symbol><symbol id="ap" overflow="visible"><path d="m4.125-3c.03125-.109375.03125-.125.03125-.1875 0-.203125-.15625-.25-.25-.25-.046875 0-.21875.015625-.328125.21875-.015625.046875-.09375.328125-.125.5l-.484375 1.90625c0 .03125-.34375.671875-.921875.671875-.390625 0-.53125-.296875-.53125-.640625 0-.46875.265625-1.171875.453125-1.640625.078125-.203125.109375-.265625.109375-.421875 0-.4375-.359375-.671875-.71875-.671875-.796875 0-1.125 1.125-1.125 1.21875 0 .078125.0625.109375.125.109375.109375 0 .109375-.046875.140625-.125.203125-.703125.546875-.984375.828125-.984375.125 0 .1875.078125.1875.265625 0 .171875-.0625.359375-.109375.5-.328125.84375-.46875 1.25-.46875 1.625 0 .78125.59375.984375 1.0625.984375.375 0 .640625-.171875.84375-.34375-.125.4375-.203125.75-.5 1.140625-.265625.3125-.578125.53125-.9375.53125-.140625 0-.4375-.03125-.59375-.265625.421875-.03125.453125-.390625.453125-.4375 0-.1875-.15625-.296875-.3125-.296875-.1875 0-.453125.140625-.453125.53125 0 .375.34375.6875.90625.6875.8125 0 1.71875-.65625 1.96875-1.609375zm0 0"/></symbol><symbol id="aq" overflow="visible"><path d="m3.21875-3c-.1875.03125-.359375.171875-.359375.375 0 .140625.09375.25.265625.25.125 0 .375-.09375.375-.453125 0-.484375-.515625-.6875-1.015625-.6875-1.0625 0-1.40625.765625-1.40625 1.171875 0 .078125 0 .359375.296875.578125.1875.140625.328125.171875.734375.25.28125.0625.734375.140625.734375.546875 0 .21875-.15625.46875-.375.625-.296875.1875-.6875.203125-.8125.203125-.1875 0-.734375-.03125-.9375-.359375.40625-.015625.46875-.34375.46875-.4375 0-.234375-.21875-.296875-.3125-.296875-.125 0-.453125.109375-.453125.546875 0 .46875.5.765625 1.234375.765625 1.390625 0 1.6875-.984375 1.6875-1.3125 0-.71875-.78125-.875-1.078125-.921875-.390625-.078125-.703125-.125-.703125-.46875 0-.140625.140625-.671875.921875-.671875.296875 0 .609375.09375.734375.296875zm0 0"/></symbol><symbol id="ar" overflow="visible"><path d="m1.15625-.6875c.28125-.296875.375-.390625 1.078125-.96875.078125-.078125.640625-.53125.859375-.75.5-.484375.8125-.921875.8125-1.015625 0-.0625-.0625-.09375-.125-.09375-.078125 0-.078125.015625-.15625.140625-.25.359375-.421875.421875-.578125.421875-.140625 0-.234375-.0625-.40625-.21875-.203125-.203125-.359375-.34375-.609375-.34375-.640625 0-1.046875.71875-1.046875.9375 0 0 0 .09375.125.09375.078125 0 .109375-.03125.140625-.125.09375-.234375.4375-.3125.671875-.3125.1875 0 .375.046875.578125.109375.328125.09375.40625.09375.578125.09375-.15625.171875-.390625.390625-1 .890625-.328125.28125-.671875.546875-.890625.765625-.578125.578125-.84375.96875-.84375 1.046875s.0625.09375.125.09375c.078125 0 .09375-.015625.140625-.078125.15625-.234375.40625-.484375.703125-.484375.1875 0 .265625.0625.421875.21875.25.25.390625.34375.625.34375.828125 0 1.328125-.984375 1.328125-1.234375 0-.078125-.046875-.109375-.125-.109375s-.09375.046875-.125.140625c-.15625.390625-.59375.609375-.984375.609375-.15625 0-.328125-.046875-.578125-.109375-.328125-.078125-.40625-.078125-.53125-.078125-.078125 0-.125 0-.1875.015625zm0 0"/></symbol><symbol id="as" overflow="visible"><path d="m7.1875-2.515625c.1875 0 .375 0 .375-.203125 0-.21875-.1875-.21875-.375-.21875h-5.90625c-.1875 0-.375 0-.375.21875 0 .203125.1875.203125.375.203125zm0 0"/></symbol><symbol id="at" overflow="visible"><path d="m3.890625-2.546875c0-.84375-.078125-1.359375-.34375-1.875-.34375-.703125-1-.875-1.4375-.875-1 0-1.375.75-1.484375.96875-.28125.578125-.296875 1.375-.296875 1.78125 0 .53125.015625 1.328125.40625 1.96875.359375.59375.953125.75 1.375.75.390625 0 1.0625-.125 1.46875-.90625.296875-.578125.3125-1.296875.3125-1.8125zm-1.78125 2.484375c-.265625 0-.8125-.125-.984375-.953125-.09375-.453125-.09375-1.203125-.09375-1.625 0-.546875 0-1.109375.09375-1.546875.171875-.8125.78125-.890625.984375-.890625.265625 0 .828125.140625.984375.859375.09375.4375.09375 1.046875.09375 1.578125 0 .46875 0 1.1875-.09375 1.640625-.171875.828125-.71875.9375-.984375.9375zm0 0"/></symbol><symbol id="au" overflow="visible"><path d="m2.25-1.625c.125-.125.453125-.390625.59375-.5.484375-.453125.953125-.890625.953125-1.609375 0-.953125-.796875-1.5625-1.78125-1.5625-.96875 0-1.59375.71875-1.59375 1.4375 0 .390625.3125.4375.421875.4375.171875 0 .421875-.109375.421875-.421875 0-.40625-.40625-.40625-.5-.40625.234375-.59375.765625-.78125 1.15625-.78125.734375 0 1.125.625 1.125 1.296875 0 .828125-.578125 1.4375-1.53125 2.390625l-1 1.046875c-.09375.078125-.09375.09375-.09375.296875h3.140625l.234375-1.421875h-.25c-.015625.15625-.078125.546875-.171875.703125-.046875.0625-.65625.0625-.78125.0625h-1.421875zm0 0"/></symbol><symbol id="av" overflow="visible"><path d="m2.109375-3.78125c.046875-.09375.078125-.15625.078125-.234375 0-.265625-.25-.4375-.46875-.4375-.3125 0-.40625.28125-.4375.390625l-1.015625 3.4375c-.03125.09375-.03125.109375-.03125.125 0 .0625.046875.078125.125.109375.15625.0625.171875.0625.1875.0625s.0625 0 .125-.140625zm0 0"/></symbol><g><use x="20.735" xlink:href="#a" y="12.152"/><use x="28.613552" xlink:href="#b" y="12.152"/><use x="34.674648" xlink:href="#c" y="12.152"/></g><g><use x="43.242655" xlink:href="#d" y="12.152"/><use x="49.303751" xlink:href="#e" y="12.152"/><use x="53.576846" xlink:href="#f" y="12.152"/><use x="56.607394" xlink:href="#g" y="12.152"/><use x="65.697947" xlink:href="#h" y="12.152"/><use x="71.152497" xlink:href="#e" y="12.152"/><use x="75.425591" xlink:href="#i" y="12.152"/></g><use x="84.903417" xlink:href="#d" y="12.152"/><g><use x="91.269968" xlink:href="#j" y="12.152"/><use x="96.724518" xlink:href="#k" y="12.152"/><use x="101.027067" xlink:href="#f" y="12.152"/><use x="104.057615" xlink:href="#l" y="12.152"/><use x="108.300164" xlink:href="#f" y="12.152"/><use x="111.330712" xlink:href="#j" y="12.152"/><use x="116.785262" xlink:href="#m" y="12.152"/></g><use x="126.566361" xlink:href="#n" y="12.152"/><g><use x="131.713274" xlink:href="#h" y="12.152"/><use x="137.167824" xlink:href="#e" y="12.152"/><use x="141.440919" xlink:href="#f" y="12.152"/><use x="144.471467" xlink:href="#h" y="12.152"/><use x="149.926017" xlink:href="#o" y="12.152"/><use x="155.987113" xlink:href="#p" y="12.152"/><use x="159.017661" xlink:href="#c" y="12.152"/><use x="163.865665" xlink:href="#k" y="12.152"/></g><g><use x="171.888217" xlink:href="#h" y="12.152"/><use x="177.342767" xlink:href="#e" y="12.152"/><use x="181.615861" xlink:href="#c" y="12.152"/></g><use x="190.183868" xlink:href="#q" y="12.152"/><g><use x="194.425" xlink:href="#S" y="12.152"/><use x="200.659551" xlink:href="#T" y="12.152"/></g><use x="205.511918" xlink:href="#U" y="12.152"/><use x="211.253378" xlink:href="#T" y="12.152"/><use x="216.094836" xlink:href="#V" y="12.152"/><g><use x="221.211" xlink:href="#r" y="12.152"/><use x="225.453549" xlink:href="#s" y="12.152"/></g><g><use x="232.225918" xlink:href="#t" y="12.152"/><use x="240.10447" xlink:href="#b" y="12.152"/><use x="246.165566" xlink:href="#c" y="12.152"/><use x="251.01357" xlink:href="#e" y="12.152"/><use x="255.286665" xlink:href="#c" y="12.152"/></g><use x="263.853" xlink:href="#S" y="12.152"/><g><use x="273.808" xlink:href="#h" y="12.152"/><use x="279.26255" xlink:href="#m" y="12.152"/><use x="285.323646" xlink:href="#u" y="12.152"/></g><use x="295.104" xlink:href="#U" y="12.152"/><g><use x="304.563" xlink:href="#h" y="12.152"/><use x="310.01755" xlink:href="#e" y="12.152"/><use x="314.290644" xlink:href="#c" y="12.152"/></g><g><use x="322.858652" xlink:href="#l" y="12.152"/><use x="327.101201" xlink:href="#b" y="12.152"/><use x="333.162297" xlink:href="#c" y="12.152"/></g><g><use x="341.730304" xlink:href="#u" y="12.152"/><use x="347.7914" xlink:href="#f" y="12.152"/><use x="350.821948" xlink:href="#k" y="12.152"/><use x="355.124497" xlink:href="#d" y="12.152"/><use x="361.185593" xlink:href="#p" y="12.152"/><use x="364.216141" xlink:href="#h" y="12.152"/><use x="369.670691" xlink:href="#v" y="12.152"/><use x="374.518695" xlink:href="#c" y="12.152"/><use x="379.366699" xlink:href="#g" y="12.152"/><use x="388.457252" xlink:href="#c" y="12.152"/><use x="393.305256" xlink:href="#m" y="12.152"/></g><g><use x="399.060897" xlink:href="#l" y="12.152"/><use x="403.303446" xlink:href="#k" y="12.152"/></g><g><use x="411.325998" xlink:href="#h" y="12.152"/><use x="416.780548" xlink:href="#p" y="12.152"/><use x="419.811096" xlink:href="#j" y="12.152"/><use x="425.265646" xlink:href="#m" y="12.152"/><use x="431.326742" xlink:href="#w" y="12.152"/></g><g><use x="440.501295" xlink:href="#l" y="12.152"/><use x="444.743844" xlink:href="#b" y="12.152"/><use x="450.80494" xlink:href="#c" y="12.152"/></g><g><use x="459.372947" xlink:href="#m" y="12.152"/><use x="465.434043" xlink:href="#j" y="12.152"/><use x="470.888593" xlink:href="#e" y="12.152"/><use x="475.161688" xlink:href="#g" y="12.152"/><use x="484.252241" xlink:href="#h" y="12.152"/><use x="489.706791" xlink:href="#p" y="12.152"/></g><g><use x="496.457342" xlink:href="#h" y="12.152"/><use x="501.911892" xlink:href="#m" y="12.152"/><use x="507.972988" xlink:href="#u" y="12.152"/></g><g><use x="3.798" xlink:href="#o" y="25.701"/><use x="9.859096" xlink:href="#f" y="25.701"/><use x="12.889644" xlink:href="#m" y="25.701"/><use x="18.95074" xlink:href="#j" y="25.701"/><use x="24.40529" xlink:href="#e" y="25.701"/><use x="28.678384" xlink:href="#g" y="25.701"/><use x="37.768937" xlink:href="#h" y="25.701"/><use x="43.223487" xlink:href="#p" y="25.701"/></g><use x="50.279493" xlink:href="#n" y="25.701"/><g><use x="55.731861" xlink:href="#c" y="25.701"/><use x="60.579865" xlink:href="#v" y="25.701"/><use x="65.42787" xlink:href="#l" y="25.701"/><use x="69.670419" xlink:href="#j" y="25.701"/><use x="75.124969" xlink:href="#e" y="25.701"/><use x="79.398063" xlink:href="#k" y="25.701"/><use x="83.700612" xlink:href="#s" y="25.701"/></g><use x="90.853" xlink:href="#ai" y="25.701"/><g><use x="102.654" xlink:href="#h" y="25.701"/><use x="108.10855" xlink:href="#m" y="25.701"/><use x="114.169646" xlink:href="#u" y="25.701"/></g><use x="124.254" xlink:href="#aj" y="25.701"/><use x="129.936" xlink:href="#s" y="25.701"/><g><use x="137.090188" xlink:href="#e" y="25.701"/><use x="141.363282" xlink:href="#c" y="25.701"/><use x="146.211286" xlink:href="#k" y="25.701"/><use x="150.513835" xlink:href="#d" y="25.701"/></g><g><use x="156.880386" xlink:href="#c" y="25.701"/><use x="161.72839" xlink:href="#v" y="25.701"/><use x="166.576394" xlink:href="#l" y="25.701"/><use x="170.818943" xlink:href="#f" y="25.701"/><use x="173.849491" xlink:href="#n" y="25.701"/></g><g><use x="179.301859" xlink:href="#c" y="25.701"/><use x="184.149863" xlink:href="#p" y="25.701"/><use x="187.180411" xlink:href="#i" y="25.701"/></g><use x="192.02187" xlink:href="#x" y="25.701"/><g><use x="201.074241" xlink:href="#y" y="25.701"/><use x="207.892429" xlink:href="#c" y="25.701"/><use x="212.740433" xlink:href="#l" y="25.701"/></g><use x="221.002" xlink:href="#ak" y="25.701"/><g><use x="229.557" xlink:href="#u" y="25.701"/><use x="235.618096" xlink:href="#c" y="25.701"/><use x="240.4661" xlink:href="#m" y="25.701"/><use x="246.527196" xlink:href="#j" y="25.701"/><use x="251.981746" xlink:href="#l" y="25.701"/><use x="256.224295" xlink:href="#c" y="25.701"/></g><g><use x="265.097757" xlink:href="#l" y="25.701"/><use x="269.340306" xlink:href="#b" y="25.701"/><use x="275.401402" xlink:href="#c" y="25.701"/></g><g><use x="284.274864" xlink:href="#l" y="25.701"/><use x="288.517413" xlink:href="#h" y="25.701"/><use x="293.971963" xlink:href="#m" y="25.701"/><use x="300.033059" xlink:href="#w" y="25.701"/><use x="305.487609" xlink:href="#c" y="25.701"/><use x="310.335613" xlink:href="#m" y="25.701"/></g><g><use x="316.091254" xlink:href="#l" y="25.701"/><use x="320.333803" xlink:href="#f" y="25.701"/><use x="323.364351" xlink:href="#h" y="25.701"/><use x="328.818901" xlink:href="#p" y="25.701"/></g><use x="335.874907" xlink:href="#n" y="25.701"/><g><use x="341.327275" xlink:href="#c" y="25.701"/><use x="346.175279" xlink:href="#v" y="25.701"/><use x="351.023283" xlink:href="#l" y="25.701"/><use x="355.265832" xlink:href="#j" y="25.701"/><use x="360.720382" xlink:href="#e" y="25.701"/></g><g><use x="369.018934" xlink:href="#h" y="25.701"/><use x="374.473484" xlink:href="#p" y="25.701"/><use x="377.504032" xlink:href="#j" y="25.701"/><use x="382.958582" xlink:href="#m" y="25.701"/><use x="389.019678" xlink:href="#w" y="25.701"/></g><use x="398.496" xlink:href="#V" y="25.701"/><use x="403.609" xlink:href="#s" y="25.701"/><g><use x="410.763188" xlink:href="#l" y="25.701"/><use x="415.005737" xlink:href="#b" y="25.701"/><use x="421.066833" xlink:href="#c" y="25.701"/><use x="425.914837" xlink:href="#m" y="25.701"/></g><use x="435.997" xlink:href="#ai" y="25.701"/><use x="443.774" xlink:href="#s" y="25.701"/><use x="450.926" xlink:href="#aj" y="25.701"/><use x="456.608" xlink:href="#s" y="25.701"/><use x="463.759" xlink:href="#ak" y="25.701"/><g><use x="472.313" xlink:href="#v" y="25.701"/><use x="477.161004" xlink:href="#j" y="25.701"/><use x="482.615554" xlink:href="#m" y="25.701"/><use x="488.67665" xlink:href="#k" y="25.701"/><use x="492.979199" xlink:href="#f" y="25.701"/><use x="496.009747" xlink:href="#k" y="25.701"/><use x="500.312296" xlink:href="#l" y="25.701"/></g><use x="508.580303" xlink:href="#h" y="25.701"/><g><use x="3.798" xlink:href="#e" y="39.25"/><use x="8.071094" xlink:href="#f" y="39.25"/><use x="11.101642" xlink:href="#w" y="39.25"/><use x="16.556192" xlink:href="#b" y="39.25"/></g><g><use x="22.311834" xlink:href="#l" y="39.25"/><use x="26.554383" xlink:href="#z" y="39.25"/><use x="30.190386" xlink:href="#b" y="39.25"/><use x="36.251482" xlink:href="#h" y="39.25"/><use x="41.706032" xlink:href="#m" y="39.25"/><use x="47.767128" xlink:href="#u" y="39.25"/><use x="53.828224" xlink:href="#c" y="39.25"/><use x="58.676228" xlink:href="#u" y="39.25"/></g><g><use x="68.370054" xlink:href="#k" y="39.25"/><use x="72.672603" xlink:href="#i" y="39.25"/><use x="78.430426" xlink:href="#k" y="39.25"/><use x="82.732975" xlink:href="#l" y="39.25"/><use x="86.975524" xlink:href="#c" y="39.25"/><use x="91.823528" xlink:href="#g" y="39.25"/></g><use x="100.92499" xlink:href="#x" y="39.25"/><g><use x="3.798" xlink:href="#a" y="52.799"/><use x="11.676552" xlink:href="#b" y="52.799"/><use x="17.737648" xlink:href="#c" y="52.799"/></g><g><use x="26.218382" xlink:href="#h" y="52.799"/><use x="31.672932" xlink:href="#v" y="52.799"/><use x="36.520936" xlink:href="#l" y="52.799"/><use x="40.763485" xlink:href="#f" y="52.799"/><use x="43.794033" xlink:href="#j" y="52.799"/><use x="49.248583" xlink:href="#m" y="52.799"/></g><g><use x="58.953319" xlink:href="#f" y="52.799"/><use x="61.983867" xlink:href="#m" y="52.799"/></g><use x="71.677" xlink:href="#W" y="52.799"/><g><use x="79.253" xlink:href="#f" y="52.799"/><use x="82.283548" xlink:href="#k" y="52.799"/></g><g><use x="90.218827" xlink:href="#c" y="52.799"/><use x="95.066831" xlink:href="#A" y="52.799"/><use x="100.824654" xlink:href="#d" y="52.799"/><use x="106.88575" xlink:href="#e" y="52.799"/><use x="111.158845" xlink:href="#c" y="52.799"/><use x="116.006849" xlink:href="#k" y="52.799"/><use x="120.309398" xlink:href="#k" y="52.799"/><use x="124.611947" xlink:href="#c" y="52.799"/><use x="129.459951" xlink:href="#u" y="52.799"/></g><use x="139.164686" xlink:href="#o" y="52.799"/><use x="144.920327" xlink:href="#i" y="52.799"/><use x="97.675" xlink:href="#X" y="81.724"/><use x="108.023" xlink:href="#B" y="81.724"/><use x="118.326" xlink:href="#al" y="66.876"/><use x="131.053" xlink:href="#Y" y="81.724"/><use x="138.478" xlink:href="#an" y="83.361"/><g><use x="142.034" xlink:href="#Z" y="81.724"/><use x="146.755458" xlink:href="#aa" y="81.724"/><use x="152.433645" xlink:href="#W" y="81.724"/></g><use x="160.005651" xlink:href="#T" y="81.724"/><g><use x="500.095" xlink:href="#q" y="81.724"/><use x="504.337549" xlink:href="#C" y="81.724"/><use x="509.792099" xlink:href="#r" y="81.724"/></g><use x="94.012" xlink:href="#Y" y="107.18"/><use x="101.437" xlink:href="#an" y="108.817"/><use x="108.023" xlink:href="#B" y="107.18"/><use x="118.932" xlink:href="#as" y="107.18"/><g><use x="131.037" xlink:href="#ab" y="99.8"/><use x="140.61519" xlink:href="#Z" y="99.8"/></g><path d="m-.00184375-.000125h14.30078075" fill="none" stroke="#000" stroke-miterlimit="10" stroke-width=".436" transform="matrix(1 0 0 -1 131.037 104.453)"/><use x="133.076" xlink:href="#ac" y="114.663"/><use x="138.565" xlink:href="#at" y="116.3"/><use x="146.532" xlink:href="#am" y="97.267"/><path d="m.00040625-.00178125h126.07421875" fill="none" stroke="#000" stroke-miterlimit="10" stroke-width=".436" transform="matrix(1 0 0 -1 157.441 97.049)"/><use x="157.441" xlink:href="#D" y="107.18"/><use x="165.319" xlink:href="#as" y="107.18"/><use x="178.134" xlink:href="#E" y="107.18"/><use x="176.229" xlink:href="#S" y="107.18"/><use x="182.463" xlink:href="#au" y="104.029"/><use x="189.62" xlink:href="#F" y="107.18"/><use x="202.490556" xlink:href="#E" y="107.18"/><use x="200.529" xlink:href="#U" y="107.18"/><use x="206.269" xlink:href="#au" y="104.029"/><use x="213.425" xlink:href="#F" y="107.18"/><g><use x="224.331918" xlink:href="#q" y="107.18"/><use x="228.574467" xlink:href="#D" y="107.18"/></g><use x="236.450837" xlink:href="#F" y="107.18"/><g><use x="247.365" xlink:href="#S" y="107.18"/><use x="253.599551" xlink:href="#ad" y="107.18"/><use x="259.054101" xlink:href="#ae" y="107.18"/></g><use x="264.694" xlink:href="#r" y="107.18"/><use x="268.937" xlink:href="#au" y="104.029"/><use x="275.317" xlink:href="#E" y="107.18"/><use x="273.669" xlink:href="#V" y="107.18"/><use x="278.783" xlink:href="#au" y="104.029"/><use x="285.939" xlink:href="#F" y="107.18"/><use x="296.848" xlink:href="#af" y="107.18"/><use x="302.615" xlink:href="#ao" y="108.817"/><use x="309.785" xlink:href="#E" y="107.18"/><use x="307.88" xlink:href="#S" y="107.18"/><use x="316.539" xlink:href="#F" y="107.18"/><use x="327.448" xlink:href="#af" y="107.18"/><use x="333.214" xlink:href="#ap" y="108.817"/><use x="340.145" xlink:href="#E" y="107.18"/><use x="338.184" xlink:href="#U" y="107.18"/><use x="346.348" xlink:href="#F" y="107.18"/><g><use x="357.254918" xlink:href="#q" y="107.18"/><use x="361.497467" xlink:href="#D" y="107.18"/></g><use x="369.373837" xlink:href="#F" y="107.18"/><g><use x="380.288" xlink:href="#S" y="107.18"/><use x="386.522551" xlink:href="#ad" y="107.18"/><use x="391.977101" xlink:href="#ae" y="107.18"/></g><use x="397.617" xlink:href="#r" y="107.18"/><use x="401.86" xlink:href="#af" y="107.18"/><use x="407.626" xlink:href="#aq" y="108.817"/><use x="413.688" xlink:href="#E" y="107.18"/><use x="412.04" xlink:href="#V" y="107.18"/><use x="420.785825" xlink:href="#T" y="107.18"/><g><use x="500.095" xlink:href="#q" y="107.18"/><use x="504.337549" xlink:href="#G" y="107.18"/><use x="509.792099" xlink:href="#r" y="107.18"/></g><g><use x="3.798" xlink:href="#t" y="136.922"/><use x="11.676552" xlink:href="#b" y="136.922"/><use x="17.737648" xlink:href="#c" y="136.922"/><use x="22.585652" xlink:href="#e" y="136.922"/><use x="26.858746" xlink:href="#c" y="136.922"/></g><use x="34.551" xlink:href="#ac" y="136.922"/><use x="40.04" xlink:href="#at" y="138.558"/><g><use x="47.616" xlink:href="#h" y="136.922"/><use x="53.07055" xlink:href="#m" y="136.922"/><use x="59.131646" xlink:href="#u" y="136.922"/></g><use x="68.040017" xlink:href="#q" y="136.922"/><use x="72.278" xlink:href="#af" y="136.922"/><use x="78.044" xlink:href="#ao" y="138.558"/><use x="83.309" xlink:href="#T" y="136.922"/><use x="88.161368" xlink:href="#af" y="136.922"/><use x="93.924" xlink:href="#ap" y="138.558"/><use x="98.894" xlink:href="#T" y="136.922"/><use x="103.746368" xlink:href="#af" y="136.922"/><use x="109.509" xlink:href="#ar" y="138.558"/><use x="114.283" xlink:href="#r" y="136.922"/><use x="121.558279" xlink:href="#B" y="136.922"/><use x="133.071" xlink:href="#ag" y="136.922"/><use x="138.15" xlink:href="#q" y="136.922"/><use x="142.393" xlink:href="#ah" y="136.922"/><use x="150.574" xlink:href="#ao" y="138.558"/><use x="155.839" xlink:href="#T" y="136.922"/><use x="160.691368" xlink:href="#ah" y="136.922"/><use x="168.87" xlink:href="#ap" y="138.558"/><use x="173.839" xlink:href="#T" y="136.922"/><use x="178.691368" xlink:href="#ah" y="136.922"/><use x="186.87" xlink:href="#ar" y="138.558"/><use x="191.644" xlink:href="#r" y="136.922"/><g><use x="195.886" xlink:href="#ad" y="136.922"/><use x="201.34055" xlink:href="#ac" y="136.922"/></g><use x="206.829" xlink:href="#at" y="138.558"/><g><use x="214.405" xlink:href="#h" y="136.922"/><use x="219.85955" xlink:href="#e" y="136.922"/><use x="224.132644" xlink:href="#c" y="136.922"/></g><g><use x="231.827924" xlink:href="#l" y="136.922"/><use x="236.070473" xlink:href="#b" y="136.922"/><use x="242.131569" xlink:href="#c" y="136.922"/></g><g><use x="249.815939" xlink:href="#u" y="136.922"/><use x="255.877035" xlink:href="#c" y="136.922"/><use x="260.725039" xlink:href="#k" y="136.922"/><use x="265.027588" xlink:href="#f" y="136.922"/><use x="268.058136" xlink:href="#w" y="136.922"/><use x="273.512686" xlink:href="#m" y="136.922"/></g><g><use x="282.421057" xlink:href="#g" y="136.922"/><use x="291.51161" xlink:href="#j" y="136.922"/><use x="296.96616" xlink:href="#g" y="136.922"/><use x="306.056713" xlink:href="#c" y="136.922"/><use x="310.904717" xlink:href="#m" y="136.922"/></g><g><use x="316.660358" xlink:href="#l" y="136.922"/><use x="320.902907" xlink:href="#H" y="136.922"/><use x="326.964003" xlink:href="#g" y="136.922"/></g><g><use x="338.901831" xlink:href="#h" y="136.922"/><use x="344.356381" xlink:href="#m" y="136.922"/><use x="350.417477" xlink:href="#u" y="136.922"/></g><g><use x="359.325848" xlink:href="#l" y="136.922"/><use x="363.568397" xlink:href="#b" y="136.922"/><use x="369.629493" xlink:href="#c" y="136.922"/></g><g><use x="377.313863" xlink:href="#m" y="136.922"/><use x="383.374959" xlink:href="#j" y="136.922"/><use x="388.829509" xlink:href="#e" y="136.922"/><use x="393.102603" xlink:href="#g" y="136.922"/><use x="402.193156" xlink:href="#h" y="136.922"/><use x="407.647706" xlink:href="#p" y="136.922"/><use x="410.678254" xlink:href="#f" y="136.922"/><use x="413.708802" xlink:href="#I" y="136.922"/><use x="418.556806" xlink:href="#c" y="136.922"/><use x="423.404811" xlink:href="#u" y="136.922"/></g><use x="432.313182" xlink:href="#n" y="136.922"/><g><use x="437.76555" xlink:href="#c" y="136.922"/><use x="442.613554" xlink:href="#v" y="136.922"/><use x="447.461558" xlink:href="#l" y="136.922"/><use x="451.704107" xlink:href="#j" y="136.922"/><use x="457.158657" xlink:href="#e" y="136.922"/></g><use x="464.279026" xlink:href="#d" y="136.922"/><g><use x="470.645577" xlink:href="#j" y="136.922"/><use x="476.100127" xlink:href="#l" y="136.922"/><use x="480.342676" xlink:href="#c" y="136.922"/><use x="485.19068" xlink:href="#m" y="136.922"/></g><g><use x="490.946321" xlink:href="#l" y="136.922"/><use x="495.18887" xlink:href="#f" y="136.922"/><use x="498.219418" xlink:href="#h" y="136.922"/><use x="503.673968" xlink:href="#p" y="136.922"/><use x="506.704516" xlink:href="#k" y="136.922"/><use x="511.007065" xlink:href="#s" y="136.922"/></g><g><use x="3.798" xlink:href="#e" y="150.471"/><use x="8.071094" xlink:href="#c" y="150.471"/><use x="12.919099" xlink:href="#k" y="150.471"/><use x="17.221648" xlink:href="#d" y="150.471"/></g><g><use x="23.588198" xlink:href="#c" y="150.471"/><use x="28.436202" xlink:href="#v" y="150.471"/><use x="33.284206" xlink:href="#l" y="150.471"/><use x="37.526755" xlink:href="#f" y="150.471"/><use x="40.557303" xlink:href="#n" y="150.471"/></g><g><use x="46.009672" xlink:href="#c" y="150.471"/><use x="50.857676" xlink:href="#p" y="150.471"/><use x="53.888224" xlink:href="#i" y="150.471"/></g><use x="58.740591" xlink:href="#s" y="150.471"/><g><use x="65.382051" xlink:href="#h" y="150.471"/><use x="70.836601" xlink:href="#m" y="150.471"/><use x="76.897697" xlink:href="#u" y="150.471"/></g><use x="86.87516" xlink:href="#E" y="150.471"/><g><use x="93.811166" xlink:href="#u" y="150.471"/><use x="99.872262" xlink:href="#c" y="150.471"/><use x="104.720266" xlink:href="#m" y="150.471"/><use x="110.781362" xlink:href="#j" y="150.471"/><use x="116.235912" xlink:href="#l" y="150.471"/><use x="120.478461" xlink:href="#c" y="150.471"/><use x="125.326465" xlink:href="#k" y="150.471"/></g><g><use x="133.239926" xlink:href="#l" y="150.471"/><use x="137.482475" xlink:href="#b" y="150.471"/><use x="143.543571" xlink:href="#c" y="150.471"/></g><g><use x="152.002487" xlink:href="#u" y="150.471"/><use x="158.063583" xlink:href="#c" y="150.471"/><use x="162.911587" xlink:href="#e" y="150.471"/><use x="167.184682" xlink:href="#f" y="150.471"/><use x="170.21523" xlink:href="#n" y="150.471"/></g><g><use x="175.362143" xlink:href="#h" y="150.471"/><use x="180.816693" xlink:href="#l" y="150.471"/><use x="185.059242" xlink:href="#f" y="150.471"/><use x="188.08979" xlink:href="#n" y="150.471"/></g><use x="193.553067" xlink:href="#c" y="150.471"/><use x="202.011983" xlink:href="#o" y="150.471"/><use x="207.767625" xlink:href="#i" y="150.471"/><g><use x="217.132" xlink:href="#Z" y="150.471"/><use x="221.853458" xlink:href="#W" y="150.471"/></g><use x="225.792" xlink:href="#x" y="150.471"/><g><use x="233.666188" xlink:href="#J" y="150.471"/><use x="239.727284" xlink:href="#K" y="150.471"/><use x="247.909109" xlink:href="#L" y="150.471"/><use x="256.242571" xlink:href="#M" y="150.471"/><use x="259.273119" xlink:href="#k" y="150.471"/></g><g><use x="267.175671" xlink:href="#v" y="150.471"/><use x="272.023675" xlink:href="#j" y="150.471"/></g><g><use x="277.78368" xlink:href="#j" y="150.471"/><use x="283.23823" xlink:href="#e" y="150.471"/><use x="287.511324" xlink:href="#u" y="150.471"/><use x="293.57242" xlink:href="#f" y="150.471"/><use x="296.602968" xlink:href="#m" y="150.471"/><use x="302.664064" xlink:href="#h" y="150.471"/><use x="308.118614" xlink:href="#l" y="150.471"/><use x="312.361163" xlink:href="#c" y="150.471"/></g><g><use x="320.820079" xlink:href="#j" y="150.471"/><use x="326.274629" xlink:href="#m" y="150.471"/><use x="332.335725" xlink:href="#p" y="150.471"/><use x="335.366273" xlink:href="#i" y="150.471"/></g><g><use x="344.735008" xlink:href="#b" y="150.471"/><use x="350.796104" xlink:href="#h" y="150.471"/><use x="356.250654" xlink:href="#k" y="150.471"/></g><g><use x="364.164115" xlink:href="#l" y="150.471"/><use x="368.406664" xlink:href="#b" y="150.471"/><use x="374.46776" xlink:href="#c" y="150.471"/></g><g><use x="382.926676" xlink:href="#e" y="150.471"/><use x="387.199771" xlink:href="#h" y="150.471"/><use x="392.654321" xlink:href="#u" y="150.471"/><use x="398.715417" xlink:href="#f" y="150.471"/></g><g><use x="401.735056" xlink:href="#H" y="150.471"/><use x="407.796152" xlink:href="#k" y="150.471"/></g><g><use x="415.709613" xlink:href="#j" y="150.471"/><use x="421.164163" xlink:href="#N" y="150.471"/></g><g><use x="428.108896" xlink:href="#v" y="150.471"/><use x="432.9569" xlink:href="#H" y="150.471"/><use x="439.017996" xlink:href="#e" y="150.471"/><use x="443.29109" xlink:href="#n" y="150.471"/></g><g><use x="448.448913" xlink:href="#h" y="150.471"/><use x="453.903463" xlink:href="#l" y="150.471"/><use x="458.146012" xlink:href="#H" y="150.471"/><use x="464.207108" xlink:href="#e" y="150.471"/><use x="468.480202" xlink:href="#c" y="150.471"/></g><use x="476.933" xlink:href="#ae" y="150.471"/><g><use x="486.182" xlink:href="#f" y="150.471"/><use x="489.212548" xlink:href="#m" y="150.471"/></g><g><use x="498.884556" xlink:href="#l" y="150.471"/><use x="503.127105" xlink:href="#b" y="150.471"/><use x="509.188201" xlink:href="#c" y="150.471"/></g><g><use x="3.798" xlink:href="#p" y="164.02"/><use x="6.828548" xlink:href="#j" y="164.02"/></g><g><use x="12.588553" xlink:href="#v" y="164.02"/><use x="17.436557" xlink:href="#h" y="164.02"/><use x="22.891107" xlink:href="#p" y="164.02"/></g><use x="29.263" xlink:href="#S" y="164.02"/><use x="35.498" xlink:href="#z" y="164.02"/><use x="39.134" xlink:href="#V" y="164.02"/><g><use x="47.591" xlink:href="#d" y="164.02"/><use x="53.652096" xlink:href="#p" y="164.02"/><use x="56.682644" xlink:href="#h" y="164.02"/><use x="62.137194" xlink:href="#m" y="164.02"/><use x="68.19829" xlink:href="#c" y="164.02"/><use x="73.046294" xlink:href="#x" y="164.02"/></g><g><use x="80.8223" xlink:href="#O" y="164.02"/><use x="89.004125" xlink:href="#j" y="164.02"/><use x="94.458675" xlink:href="#l" y="164.02"/><use x="98.701224" xlink:href="#c" y="164.02"/></g><g><use x="106.898322" xlink:href="#l" y="164.02"/><use x="111.140871" xlink:href="#b" y="164.02"/><use x="117.201967" xlink:href="#h" y="164.02"/><use x="122.656517" xlink:href="#l" y="164.02"/></g><use x="130.241" xlink:href="#ae" y="164.02"/><g><use x="139.225" xlink:href="#f" y="164.02"/><use x="142.255548" xlink:href="#k" y="164.02"/></g><g><use x="149.896282" xlink:href="#l" y="164.02"/><use x="154.138831" xlink:href="#b" y="164.02"/><use x="160.199927" xlink:href="#c" y="164.02"/></g><g><use x="168.397024" xlink:href="#v" y="164.02"/><use x="173.245028" xlink:href="#H" y="164.02"/><use x="179.306124" xlink:href="#e" y="164.02"/><use x="183.579219" xlink:href="#n" y="164.02"/></g><g><use x="188.726132" xlink:href="#h" y="164.02"/><use x="194.180682" xlink:href="#l" y="164.02"/><use x="198.423231" xlink:href="#H" y="164.02"/><use x="204.484327" xlink:href="#e" y="164.02"/><use x="208.757422" xlink:href="#c" y="164.02"/></g><g><use x="216.954519" xlink:href="#j" y="164.02"/><use x="222.409069" xlink:href="#N" y="164.02"/></g><g><use x="229.081075" xlink:href="#l" y="164.02"/><use x="233.323624" xlink:href="#b" y="164.02"/><use x="239.38472" xlink:href="#c" y="164.02"/></g><g><use x="247.581818" xlink:href="#v" y="164.02"/><use x="252.429822" xlink:href="#j" y="164.02"/></g><g><use x="258.189826" xlink:href="#j" y="164.02"/><use x="263.644376" xlink:href="#e" y="164.02"/></g><g><use x="267.906562" xlink:href="#u" y="164.02"/><use x="273.967658" xlink:href="#f" y="164.02"/><use x="276.998206" xlink:href="#m" y="164.02"/><use x="283.059302" xlink:href="#h" y="164.02"/><use x="288.513852" xlink:href="#l" y="164.02"/><use x="292.756401" xlink:href="#c" y="164.02"/></g><g><use x="300.953498" xlink:href="#k" y="164.02"/><use x="305.256047" xlink:href="#i" y="164.02"/><use x="311.01387" xlink:href="#k" y="164.02"/><use x="315.316419" xlink:href="#l" y="164.02"/><use x="319.558968" xlink:href="#c" y="164.02"/><use x="324.406972" xlink:href="#g" y="164.02"/><use x="333.497526" xlink:href="#s" y="164.02"/></g><g><use x="339.931713" xlink:href="#m" y="164.02"/><use x="345.992809" xlink:href="#j" y="164.02"/><use x="351.447359" xlink:href="#l" y="164.02"/></g><g><use x="359.028092" xlink:href="#l" y="164.02"/><use x="363.270641" xlink:href="#b" y="164.02"/><use x="369.331737" xlink:href="#h" y="164.02"/><use x="374.786287" xlink:href="#l" y="164.02"/></g><g><use x="382.37793" xlink:href="#j" y="164.02"/><use x="387.83248" xlink:href="#N" y="164.02"/></g><g><use x="394.504485" xlink:href="#l" y="164.02"/><use x="398.747034" xlink:href="#b" y="164.02"/><use x="404.80813" xlink:href="#c" y="164.02"/></g><g><use x="413.005228" xlink:href="#j" y="164.02"/><use x="418.459778" xlink:href="#e" y="164.02"/><use x="422.732873" xlink:href="#o" y="164.02"/><use x="428.793969" xlink:href="#f" y="164.02"/><use x="431.824517" xlink:href="#l" y="164.02"/><use x="436.067066" xlink:href="#x" y="164.02"/></g><g><use x="443.843072" xlink:href="#a" y="164.02"/><use x="451.721624" xlink:href="#b" y="164.02"/><use x="457.78272" xlink:href="#c" y="164.02"/></g><g><use x="465.968909" xlink:href="#l" y="164.02"/><use x="470.211458" xlink:href="#e" y="164.02"/><use x="474.484552" xlink:href="#h" y="164.02"/><use x="479.939102" xlink:href="#m" y="164.02"/><use x="486.000198" xlink:href="#k" y="164.02"/><use x="490.302747" xlink:href="#n" y="164.02"/></g><g><use x="495.766024" xlink:href="#c" y="164.02"/><use x="500.614028" xlink:href="#e" y="164.02"/><use x="504.887123" xlink:href="#k" y="164.02"/><use x="509.189672" xlink:href="#c" y="164.02"/></g><use x="3.798" xlink:href="#n" y="177.569"/><g><use x="9.250368" xlink:href="#c" y="177.569"/><use x="14.098372" xlink:href="#v" y="177.569"/><use x="18.946376" xlink:href="#l" y="177.569"/><use x="23.188925" xlink:href="#j" y="177.569"/><use x="28.643475" xlink:href="#e" y="177.569"/></g><use x="36.560209" xlink:href="#d" y="177.569"/><g><use x="42.915851" xlink:href="#j" y="177.569"/><use x="48.370401" xlink:href="#l" y="177.569"/><use x="52.61295" xlink:href="#c" y="177.569"/><use x="57.460954" xlink:href="#m" y="177.569"/></g><g><use x="63.227504" xlink:href="#l" y="177.569"/><use x="67.470053" xlink:href="#f" y="177.569"/><use x="70.500601" xlink:href="#h" y="177.569"/><use x="75.955151" xlink:href="#p" y="177.569"/></g><use x="78.97479" xlink:href="#k" y="177.569"/><use x="86.920978" xlink:href="#q" y="177.569"/><use x="91.162" xlink:href="#af" y="177.569"/><use x="96.928" xlink:href="#ao" y="179.206"/><use x="102.193" xlink:href="#T" y="177.569"/><use x="107.045368" xlink:href="#af" y="177.569"/><use x="112.808" xlink:href="#ap" y="179.206"/><use x="117.778" xlink:href="#r" y="177.569"/><g><use x="125.653279" xlink:href="#h" y="177.569"/><use x="131.107829" xlink:href="#e" y="177.569"/><use x="135.380924" xlink:href="#c" y="177.569"/></g><g><use x="143.872567" xlink:href="#m" y="177.569"/><use x="149.933663" xlink:href="#j" y="177.569"/><use x="155.388213" xlink:href="#m" y="177.569"/><use x="161.449309" xlink:href="#z" y="177.569"/><use x="165.085312" xlink:href="#I" y="177.569"/><use x="169.933316" xlink:href="#c" y="177.569"/><use x="174.78132" xlink:href="#e" y="177.569"/><use x="179.054415" xlink:href="#j" y="177.569"/></g><g><use x="188.141695" xlink:href="#j" y="177.569"/><use x="193.596245" xlink:href="#m" y="177.569"/><use x="199.657341" xlink:href="#p" y="177.569"/><use x="202.687889" xlink:href="#i" y="177.569"/></g><g><use x="212.078442" xlink:href="#f" y="177.569"/><use x="215.10899" xlink:href="#m" y="177.569"/></g><g><use x="224.813726" xlink:href="#l" y="177.569"/><use x="229.056275" xlink:href="#b" y="177.569"/></g><use x="235.106461" xlink:href="#c" y="177.569"/><g><use x="243.598105" xlink:href="#k" y="177.569"/><use x="247.900654" xlink:href="#j" y="177.569"/><use x="253.355204" xlink:href="#p" y="177.569"/><use x="256.385752" xlink:href="#c" y="177.569"/><use x="261.233756" xlink:href="#m" y="177.569"/><use x="267.294852" xlink:href="#j" y="177.569"/><use x="272.749402" xlink:href="#f" y="177.569"/><use x="275.77995" xlink:href="#u" y="177.569"/></g><g><use x="285.473776" xlink:href="#e" y="177.569"/><use x="289.746871" xlink:href="#c" y="177.569"/><use x="294.594875" xlink:href="#w" y="177.569"/><use x="300.049425" xlink:href="#f" y="177.569"/><use x="303.079973" xlink:href="#j" y="177.569"/><use x="308.534523" xlink:href="#m" y="177.569"/><use x="314.595619" xlink:href="#s" y="177.569"/></g><g><use x="321.258897" xlink:href="#t" y="177.569"/><use x="329.137449" xlink:href="#b" y="177.569"/><use x="335.198545" xlink:href="#c" y="177.569"/><use x="340.046549" xlink:href="#e" y="177.569"/><use x="344.319643" xlink:href="#c" y="177.569"/></g><use x="352.811287" xlink:href="#D" y="177.569"/><g><use x="358.263" xlink:href="#ad" y="177.569"/><use x="363.71755" xlink:href="#ae" y="177.569"/></g><g><use x="372.994" xlink:href="#f" y="177.569"/><use x="376.024548" xlink:href="#k" y="177.569"/></g><g><use x="383.959827" xlink:href="#I" y="177.569"/><use x="388.807831" xlink:href="#c" y="177.569"/><use x="393.655835" xlink:href="#e" y="177.569"/><use x="397.92893" xlink:href="#j" y="177.569"/><use x="403.38348" xlink:href="#x" y="177.569"/></g><g><use x="3.798" xlink:href="#P" y="191.118"/><use x="11.676552" xlink:href="#H" y="191.118"/><use x="17.737648" xlink:href="#e" y="191.118"/><use x="22.010742" xlink:href="#e" y="191.118"/><use x="26.283837" xlink:href="#c" y="191.118"/><use x="31.131841" xlink:href="#m" y="191.118"/></g><g><use x="36.887482" xlink:href="#l" y="191.118"/><use x="41.130031" xlink:href="#p" y="191.118"/><use x="44.160579" xlink:href="#i" y="191.118"/></g><g><use x="53.551132" xlink:href="#J" y="191.118"/><use x="59.612228" xlink:href="#K" y="191.118"/><use x="67.794053" xlink:href="#L" y="191.118"/></g><g><use x="79.771154" xlink:href="#u" y="191.118"/><use x="85.83225" xlink:href="#j" y="191.118"/></g><g><use x="91.581346" xlink:href="#c" y="191.118"/><use x="96.42935" xlink:href="#k" y="191.118"/></g><g><use x="104.375538" xlink:href="#m" y="191.118"/><use x="110.436634" xlink:href="#j" y="191.118"/><use x="115.891184" xlink:href="#l" y="191.118"/></g><g><use x="123.766464" xlink:href="#b" y="191.118"/><use x="129.82756" xlink:href="#h" y="191.118"/><use x="135.28211" xlink:href="#m" y="191.118"/><use x="141.343206" xlink:href="#u" y="191.118"/><use x="147.404301" xlink:href="#p" y="191.118"/><use x="150.434849" xlink:href="#c" y="191.118"/></g><g><use x="158.915584" xlink:href="#l" y="191.118"/><use x="163.158133" xlink:href="#b" y="191.118"/><use x="169.219229" xlink:href="#c" y="191.118"/></g><g><use x="177.710872" xlink:href="#c" y="191.118"/><use x="182.558876" xlink:href="#p" y="191.118"/><use x="185.589424" xlink:href="#c" y="191.118"/><use x="190.437428" xlink:href="#v" y="191.118"/><use x="195.285432" xlink:href="#l" y="191.118"/><use x="199.527981" xlink:href="#e" y="191.118"/><use x="203.801076" xlink:href="#j" y="191.118"/><use x="209.255626" xlink:href="#k" y="191.118"/><use x="213.558175" xlink:href="#l" y="191.118"/><use x="217.800724" xlink:href="#h" y="191.118"/><use x="223.255274" xlink:href="#l" y="191.118"/><use x="227.497823" xlink:href="#f" y="191.118"/><use x="230.528371" xlink:href="#v" y="191.118"/></g><use x="239.009105" xlink:href="#d" y="191.118"/><g><use x="245.375656" xlink:href="#j" y="191.118"/><use x="250.830206" xlink:href="#l" y="191.118"/><use x="255.072755" xlink:href="#c" y="191.118"/><use x="259.920759" xlink:href="#m" y="191.118"/></g><g><use x="265.6764" xlink:href="#l" y="191.118"/><use x="269.918949" xlink:href="#f" y="191.118"/><use x="272.949497" xlink:href="#h" y="191.118"/><use x="278.404047" xlink:href="#p" y="191.118"/><use x="281.434595" xlink:href="#x" y="191.118"/></g><g><use x="3.798" xlink:href="#K" y="204.668"/><use x="11.979825" xlink:href="#k" y="204.668"/></g><g><use x="19.915104" xlink:href="#J" y="204.668"/><use x="25.9762" xlink:href="#K" y="204.668"/><use x="34.158025" xlink:href="#L" y="204.668"/></g><g><use x="46.135126" xlink:href="#H" y="204.668"/><use x="52.196222" xlink:href="#k" y="204.668"/><use x="56.498771" xlink:href="#c" y="204.668"/><use x="61.346775" xlink:href="#k" y="204.668"/></g><use x="69.283" xlink:href="#V" y="204.668"/><g><use x="78.033" xlink:href="#N" y="204.668"/><use x="81.366821" xlink:href="#j" y="204.668"/><use x="86.821371" xlink:href="#e" y="204.668"/></g><g><use x="94.727196" xlink:href="#l" y="204.668"/><use x="98.969745" xlink:href="#b" y="204.668"/><use x="105.030841" xlink:href="#c" y="204.668"/></g><g><use x="113.522484" xlink:href="#f" y="204.668"/><use x="116.553032" xlink:href="#m" y="204.668"/><use x="122.614128" xlink:href="#u" y="204.668"/></g><use x="128.664315" xlink:href="#c" y="204.668"/><use x="133.523228" xlink:href="#d" y="204.668"/><g><use x="139.87887" xlink:href="#c" y="204.668"/><use x="144.726874" xlink:href="#m" y="204.668"/><use x="150.78797" xlink:href="#u" y="204.668"/><use x="156.849066" xlink:href="#c" y="204.668"/><use x="161.69707" xlink:href="#m" y="204.668"/></g><use x="167.452711" xlink:href="#l" y="204.668"/><use x="175.338899" xlink:href="#n" y="204.668"/><g><use x="180.485813" xlink:href="#h" y="204.668"/><use x="185.940363" xlink:href="#e" y="204.668"/><use x="190.213457" xlink:href="#f" y="204.668"/><use x="193.244005" xlink:href="#h" y="204.668"/><use x="198.698555" xlink:href="#o" y="204.668"/><use x="204.759651" xlink:href="#p" y="204.668"/><use x="207.790199" xlink:href="#c" y="204.668"/></g><g><use x="216.270933" xlink:href="#f" y="204.668"/><use x="219.301481" xlink:href="#m" y="204.668"/><use x="225.362577" xlink:href="#k" y="204.668"/><use x="229.665126" xlink:href="#l" y="204.668"/><use x="233.907675" xlink:href="#c" y="204.668"/><use x="238.755679" xlink:href="#h" y="204.668"/><use x="244.210229" xlink:href="#u" y="204.668"/></g><g><use x="253.914965" xlink:href="#j" y="204.668"/><use x="259.369515" xlink:href="#N" y="204.668"/></g><use x="266.336" xlink:href="#W" y="204.668"/><use x="270.276" xlink:href="#s" y="204.668"/><g><use x="276.939278" xlink:href="#l" y="204.668"/><use x="281.181827" xlink:href="#b" y="204.668"/><use x="287.242923" xlink:href="#c" y="204.668"/></g><g><use x="295.734567" xlink:href="#y" y="204.668"/><use x="302.552754" xlink:href="#h" y="204.668"/><use x="308.007304" xlink:href="#w" y="204.668"/><use x="313.461854" xlink:href="#e" y="204.668"/><use x="317.734949" xlink:href="#h" y="204.668"/><use x="323.189499" xlink:href="#m" y="204.668"/><use x="329.250595" xlink:href="#w" y="204.668"/><use x="334.705145" xlink:href="#c" y="204.668"/><use x="339.553149" xlink:href="#h" y="204.668"/><use x="345.007699" xlink:href="#m" y="204.668"/></g><use x="354.7" xlink:href="#Y" y="204.668"/><g><use x="365.761" xlink:href="#N" y="204.668"/><use x="369.094821" xlink:href="#j" y="204.668"/><use x="374.549371" xlink:href="#e" y="204.668"/></g><use x="382.458" xlink:href="#V" y="204.668"/><g><use x="391.208" xlink:href="#f" y="204.668"/><use x="394.238548" xlink:href="#k" y="204.668"/></g><g><use x="402.173827" xlink:href="#t" y="204.668"/><use x="410.052379" xlink:href="#e" y="204.668"/><use x="414.325474" xlink:href="#f" y="204.668"/><use x="417.356022" xlink:href="#l" y="204.668"/><use x="421.598571" xlink:href="#l" y="204.668"/><use x="425.84112" xlink:href="#c" y="204.668"/><use x="430.689124" xlink:href="#m" y="204.668"/></g><g><use x="440.393859" xlink:href="#h" y="204.668"/><use x="445.848409" xlink:href="#k" y="204.668"/></g><use x="90.694" xlink:href="#Y" y="233.7"/><use x="101.149" xlink:href="#B" y="233.7"/><use x="109.634" xlink:href="#Y" y="233.7"/><use x="117.058" xlink:href="#an" y="235.336"/><g><use x="121.81" xlink:href="#aa" y="226.32"/><use x="127.488187" xlink:href="#Z" y="226.32"/><use x="132.209645" xlink:href="#W" y="226.32"/></g><path d="m-.00140625.00034375h14.33984325" fill="none" stroke="#000" stroke-miterlimit="10" stroke-width=".436" transform="matrix(1 0 0 -1 121.81 230.973)"/><g><use x="123.583" xlink:href="#aa" y="241.183"/><use x="129.261187" xlink:href="#V" y="241.183"/></g><use x="140.98" xlink:href="#T" y="233.7"/><g><use x="500.095" xlink:href="#q" y="233.7"/><use x="504.337549" xlink:href="#Q" y="233.7"/><use x="509.792099" xlink:href="#r" y="233.7"/></g><use x="101.149" xlink:href="#B" y="257.245"/><use x="112.058" xlink:href="#as" y="257.245"/><g><use x="124.163" xlink:href="#ab" y="249.865"/><use x="133.74119" xlink:href="#Z" y="249.865"/></g><path d="m.0010625-.00153125h14.2968755" fill="none" stroke="#000" stroke-miterlimit="10" stroke-width=".436" transform="matrix(1 0 0 -1 124.163 254.518)"/><use x="126.202" xlink:href="#ac" y="264.728"/><use x="131.691" xlink:href="#at" y="266.364"/><use x="139.658" xlink:href="#am" y="247.332"/><path d="m-.00059375.00071875h135.78906275" fill="none" stroke="#000" stroke-miterlimit="10" stroke-width=".436" transform="matrix(1 0 0 -1 150.567 247.114)"/><use x="150.567" xlink:href="#Z" y="257.245"/><use x="155.288" xlink:href="#au" y="254.094"/><use x="160.02" xlink:href="#W" y="257.245"/><use x="163.959" xlink:href="#av" y="254.094"/><use x="166.256" xlink:href="#au" y="254.094"/><use x="173.413" xlink:href="#as" y="257.245"/><use x="184.322" xlink:href="#S" y="257.245"/><use x="190.557" xlink:href="#av" y="254.094"/><use x="192.854" xlink:href="#au" y="254.094"/><use x="200.01" xlink:href="#F" y="257.245"/><use x="210.919" xlink:href="#U" y="257.245"/><use x="216.659" xlink:href="#av" y="254.094"/><use x="218.956" xlink:href="#au" y="254.094"/><use x="226.113" xlink:href="#F" y="257.245"/><g><use x="237.019918" xlink:href="#q" y="257.245"/><use x="241.262467" xlink:href="#D" y="257.245"/></g><use x="249.138837" xlink:href="#F" y="257.245"/><g><use x="260.052" xlink:href="#S" y="257.245"/><use x="266.286551" xlink:href="#ad" y="257.245"/><use x="271.741101" xlink:href="#ae" y="257.245"/></g><use x="277.382" xlink:href="#r" y="257.245"/><use x="281.624" xlink:href="#au" y="254.094"/><use x="288.78" xlink:href="#F" y="257.245"/><use x="299.69" xlink:href="#af" y="257.245"/><use x="305.456" xlink:href="#ao" y="258.881"/><use x="310.721" xlink:href="#S" y="257.245"/><use x="316.956" xlink:href="#av" y="252.741"/><use x="322.175" xlink:href="#F" y="257.245"/><use x="333.084" xlink:href="#af" y="257.245"/><use x="338.851" xlink:href="#ap" y="258.881"/><use x="343.82" xlink:href="#U" y="257.245"/><use x="349.56" xlink:href="#av" y="252.741"/><use x="354.78" xlink:href="#F" y="257.245"/><g><use x="365.686918" xlink:href="#q" y="257.245"/><use x="369.929467" xlink:href="#D" y="257.245"/></g><use x="377.805837" xlink:href="#F" y="257.245"/><g><use x="388.719" xlink:href="#S" y="257.245"/><use x="394.953551" xlink:href="#ad" y="257.245"/><use x="400.408101" xlink:href="#ae" y="257.245"/></g><use x="406.049" xlink:href="#r" y="257.245"/><use x="410.291" xlink:href="#af" y="257.245"/><use x="416.057" xlink:href="#aq" y="258.881"/><use x="424.108" xlink:href="#T" y="257.245"/><g><use x="500.095" xlink:href="#q" y="257.245"/><use x="504.337549" xlink:href="#R" y="257.245"/><use x="509.792099" xlink:href="#r" y="257.245"/></g><g><use x="3.798" xlink:href="#t" y="287.191"/><use x="11.676552" xlink:href="#b" y="287.191"/><use x="17.737648" xlink:href="#c" y="287.191"/><use x="22.585652" xlink:href="#e" y="287.191"/><use x="26.858746" xlink:href="#c" y="287.191"/></g><use x="35.344" xlink:href="#av" y="283.232"/><g><use x="41.775" xlink:href="#f" y="287.191"/><use x="44.805548" xlink:href="#k" y="287.191"/></g><g><use x="52.740827" xlink:href="#l" y="287.191"/><use x="56.983376" xlink:href="#b" y="287.191"/><use x="63.044472" xlink:href="#c" y="287.191"/></g><g><use x="71.536116" xlink:href="#u" y="287.191"/><use x="77.597212" xlink:href="#c" y="287.191"/><use x="82.445216" xlink:href="#e" y="287.191"/><use x="86.71831" xlink:href="#f" y="287.191"/><use x="89.748858" xlink:href="#n" y="287.191"/></g><g><use x="94.895772" xlink:href="#h" y="287.191"/><use x="100.350322" xlink:href="#l" y="287.191"/><use x="104.592871" xlink:href="#f" y="287.191"/><use x="107.623419" xlink:href="#n" y="287.191"/></g><use x="113.075787" xlink:href="#c" y="287.191"/><use x="121.56743" xlink:href="#o" y="287.191"/><use x="127.323071" xlink:href="#i" y="287.191"/><use x="136.715" xlink:href="#V" y="287.191"/><use x="141.828" xlink:href="#x" y="287.191"/></svg>