<svg height="32pt" viewBox="0 0 332 32" width="332pt" xmlns="http://www.w3.org/2000/svg" xmlns:xlink="http://www.w3.org/1999/xlink"><symbol id="a" overflow="visible"><path d="m4.3125-4.140625c-.171875 0-.328125 0-.46875.15625-.171875.15625-.203125.34375-.203125.421875 0 .265625.203125.375.40625.375.3125 0 .609375-.265625.609375-.6875 0-.546875-.515625-.953125-1.28125-.953125-1.484375 0-2.921875 1.5625-2.921875 3.109375 0 .984375.625 1.84375 1.765625 1.84375 1.5625 0 2.46875-1.15625 2.46875-1.296875 0-.0625-.0625-.140625-.125-.140625s-.078125.03125-.140625.109375c-.859375 1.078125-2.0625 1.078125-2.1875 1.078125-.6875 0-.984375-.53125-.984375-1.1875 0-.4375.21875-1.5.59375-2.171875.34375-.625.9375-1.09375 1.53125-1.09375.375 0 .796875.140625.9375.4375zm0 0"/></symbol><symbol id="b" overflow="visible"><path d="m2.21875-.015625c0-.71875-.28125-1.140625-.703125-1.140625-.359375 0-.578125.265625-.578125.578125 0 .296875.21875.578125.578125.578125.125 0 .265625-.046875.375-.140625.046875-.015625.046875-.03125.0625-.03125s.015625.015625.015625.15625c0 .8125-.375 1.46875-.734375 1.828125-.125.125-.125.140625-.125.171875 0 .078125.0625.125.109375.125.125 0 1-.84375 1-2.125zm0 0"/></symbol><symbol id="c" overflow="visible"><path d="m4.265625-4.078125c-.3125.015625-.53125.25-.53125.484375 0 .15625.109375.328125.34375.328125s.5-.1875.5-.609375c0-.5-.46875-.953125-1.296875-.953125-1.4375 0-1.84375 1.125-1.84375 1.59375 0 .859375.8125 1.015625 1.125 1.078125.5625.109375 1.140625.234375 1.140625.84375 0 .28125-.25 1.1875-1.5625 1.1875-.15625 0-1 0-1.25-.578125.421875.0625.6875-.265625.6875-.578125 0-.25-.171875-.375-.40625-.375-.28125 0-.609375.234375-.609375.71875 0 .625.625 1.0625 1.5625 1.0625 1.765625 0 2.1875-1.328125 2.1875-1.8125 0-.390625-.203125-.671875-.328125-.796875-.296875-.3125-.609375-.359375-1.09375-.453125-.390625-.09375-.828125-.171875-.828125-.65625 0-.328125.265625-.984375 1.21875-.984375.28125 0 .8125.078125.984375.5zm0 0"/></symbol><symbol id="d" overflow="visible"><path d="m2.09375-.578125c0-.3125-.265625-.578125-.578125-.578125s-.578125.265625-.578125.578125.265625.578125.578125.578125.578125-.265625.578125-.578125zm0 0"/></symbol><symbol id="e" overflow="visible"><path d="m2.5-5.078125c0-.21875-.015625-.21875-.234375-.21875-.328125.3125-.75.5-1.5.5v.265625c.21875 0 .640625 0 1.109375-.203125v4.078125c0 .296875-.03125.390625-.78125.390625h-.28125v.265625c.328125-.03125 1.015625-.03125 1.375-.03125s1.046875 0 1.375.03125v-.265625h-.28125c-.75 0-.78125-.09375-.78125-.390625zm0 0"/></symbol><symbol id="f" overflow="visible"><path d="m2.25-1.625c.125-.125.453125-.390625.59375-.5.484375-.453125.953125-.890625.953125-1.609375 0-.953125-.796875-1.5625-1.78125-1.5625-.96875 0-1.59375.71875-1.59375 1.4375 0 .390625.3125.4375.421875.4375.171875 0 .421875-.109375.421875-.421875 0-.40625-.40625-.40625-.5-.40625.234375-.59375.765625-.78125 1.15625-.78125.734375 0 1.125.625 1.125 1.296875 0 .828125-.578125 1.4375-1.53125 2.390625l-1 1.046875c-.09375.078125-.09375.09375-.09375.296875h3.140625l.234375-1.421875h-.25c-.015625.15625-.078125.546875-.171875.703125-.046875.0625-.65625.0625-.78125.0625h-1.421875zm0 0"/></symbol><symbol id="g" overflow="visible"><path d="m2.015625-2.65625c.625 0 1.03125.453125 1.03125 1.296875 0 1-.5625 1.28125-.984375 1.28125-.4375 0-1.046875-.15625-1.328125-.578125.296875 0 .5-.1875.5-.4375 0-.265625-.1875-.4375-.453125-.4375-.203125 0-.4375.125-.4375.453125 0 .75.8125 1.25 1.734375 1.25 1.046875 0 1.796875-.734375 1.796875-1.53125 0-.671875-.53125-1.265625-1.34375-1.453125.625-.21875 1.109375-.75 1.109375-1.390625s-.71875-1.09375-1.546875-1.09375c-.859375 0-1.5.453125-1.5 1.0625 0 .296875.1875.421875.40625.421875.25 0 .40625-.171875.40625-.40625 0-.296875-.265625-.40625-.4375-.40625.34375-.4375.953125-.46875 1.09375-.46875.203125 0 .8125.0625.8125.890625 0 .546875-.234375.890625-.34375 1.015625-.234375.25-.421875.265625-.90625.296875-.15625 0-.21875.015625-.21875.125s.078125.109375.21875.109375zm0 0"/></symbol><symbol id="h" overflow="visible"><path d="m1.484375-.125c0 .515625-.109375.984375-.59375 1.46875-.03125.03125-.046875.046875-.046875.078125 0 .0625.0625.109375.109375.109375.09375 0 .765625-.625.765625-1.5625 0-.5-.203125-.859375-.546875-.859375-.28125 0-.4375.234375-.4375.4375 0 .234375.15625.453125.4375.453125.203125 0 .3125-.109375.3125-.125zm0 0"/></symbol><symbol id="i" overflow="visible"><path d="m7.5-3.5625c.15625 0 .359375 0 .359375-.21875s-.203125-.21875-.359375-.21875h-6.53125c-.15625 0-.359375 0-.359375.21875s.203125.21875.375.21875zm0 2.109375c.15625 0 .359375 0 .359375-.21875s-.203125-.21875-.359375-.21875h-6.515625c-.171875 0-.375 0-.375.21875s.203125.21875.359375.21875zm0 0"/></symbol><symbol id="j" overflow="visible"><path d="m1.28125-2.375c0-1.78125.890625-2.234375 1.46875-2.234375.09375 0 .78125 0 1.171875.40625-.453125.03125-.515625.359375-.515625.5 0 .28125.1875.5.5.5.28125 0 .5-.1875.5-.515625 0-.734375-.828125-1.171875-1.671875-1.171875-1.359375 0-2.359375 1.1875-2.359375 2.53125 0 1.40625 1.078125 2.484375 2.34375 2.484375 1.453125 0 1.8125-1.3125 1.8125-1.421875s-.109375-.109375-.140625-.109375c-.109375 0-.125.046875-.140625.109375-.328125 1.015625-1.03125 1.140625-1.4375 1.140625-.578125 0-1.53125-.46875-1.53125-2.21875zm0 0"/></symbol><symbol id="k" overflow="visible"><path d="m5.140625-2.328125c0-1.40625-1.09375-2.5625-2.421875-2.5625-1.359375 0-2.40625 1.1875-2.40625 2.5625 0 1.40625 1.125 2.453125 2.40625 2.453125 1.3125 0 2.421875-1.078125 2.421875-2.453125zm-2.421875 2.171875c-.46875 0-.9375-.21875-1.234375-.734375-.28125-.46875-.28125-1.140625-.28125-1.53125 0-.421875 0-1.015625.265625-1.5.296875-.5.8125-.71875 1.25-.71875.484375 0 .953125.234375 1.234375.703125s.28125 1.109375.28125 1.515625c0 .390625 0 .984375-.25 1.46875-.234375.484375-.71875.796875-1.265625.796875zm0 0"/></symbol><symbol id="l" overflow="visible"><path d="m2.265625-2.109375c.25.03125 1.140625.21875 1.140625 1 0 .546875-.390625.984375-1.234375.984375-.921875 0-1.3125-.609375-1.515625-1.546875-.03125-.140625-.046875-.1875-.15625-.1875-.140625 0-.140625.078125-.140625.28125v1.4375c0 .1875 0 .265625.125.265625.046875 0 .0625-.015625.265625-.21875.03125-.03125.03125-.046875.21875-.25.484375.453125.96875.46875 1.203125.46875 1.25 0 1.75-.734375 1.75-1.515625 0-.578125-.328125-.90625-.453125-1.046875-.359375-.34375-.78125-.4375-1.25-.515625-.609375-.125-1.328125-.265625-1.328125-.890625 0-.390625.28125-.828125 1.21875-.828125 1.1875 0 1.25.96875 1.265625 1.3125.015625.09375.109375.09375.140625.09375.140625 0 .140625-.046875.140625-.25v-1.109375c0-.1875 0-.265625-.125-.265625-.046875 0-.078125 0-.21875.140625-.03125.03125-.140625.140625-.1875.171875-.40625-.3125-.859375-.3125-1.015625-.3125-1.328125 0-1.75.734375-1.75 1.34375 0 .390625.171875.6875.46875.921875.34375.296875.65625.359375 1.4375.515625zm0 0"/></symbol><symbol id="m" overflow="visible"><path d="m3.609375 2.625c0-.046875 0-.0625-.1875-.25-1.359375-1.375-1.703125-3.4375-1.703125-5.09375 0-1.90625.40625-3.796875 1.75-5.171875.140625-.125.140625-.140625.140625-.1875 0-.0625-.046875-.09375-.109375-.09375-.109375 0-1.09375.734375-1.734375 2.125-.5625 1.1875-.6875 2.40625-.6875 3.328125 0 .84375.125 2.15625.71875 3.390625.65625 1.34375 1.59375 2.046875 1.703125 2.046875.0625 0 .109375-.03125.109375-.09375zm0 0"/></symbol><symbol id="n" overflow="visible"><path d="m3.15625-2.71875c0-.859375-.125-2.171875-.71875-3.40625-.65625-1.34375-1.59375-2.046875-1.703125-2.046875-.0625 0-.109375.03125-.109375.09375 0 .046875 0 .0625.203125.265625 1.0625 1.078125 1.6875 2.8125 1.6875 5.09375 0 1.859375-.40625 3.78125-1.75 5.15625-.140625.125-.140625.140625-.140625.1875 0 .0625.046875.09375.109375.09375.109375 0 1.09375-.734375 1.734375-2.125.546875-1.1875.6875-2.40625.6875-3.3125zm0 0"/></symbol><symbol id="o" overflow="visible"><path d="m1.9375-4.828125-1.53125.125v.34375c.703125 0 .796875.0625.796875.59375v2.9375c0 .484375-.109375.484375-.84375.484375v.34375c.34375-.015625.9375-.03125 1.203125-.03125.375 0 .765625.015625 1.125.03125v-.34375c-.71875 0-.75-.046875-.75-.46875zm.03125-1.890625c0-.34375-.265625-.578125-.578125-.578125-.328125 0-.578125.296875-.578125.578125 0 .296875.25.578125.578125.578125.3125 0 .578125-.234375.578125-.578125zm0 0"/></symbol><symbol id="p" overflow="visible"><path d="m1.203125-3.75v2.921875c0 .484375-.125.484375-.859375.484375v.34375c.390625-.015625.9375-.03125 1.234375-.03125.28125 0 .859375.015625 1.21875.03125v-.34375c-.71875 0-.84375 0-.84375-.484375v-2c0-1.140625.765625-1.75 1.46875-1.75.6875 0 .8125.59375.8125 1.203125v2.546875c0 .484375-.125.484375-.859375.484375v.34375c.390625-.015625.9375-.03125 1.234375-.03125.28125 0 .859375.015625 1.21875.03125v-.34375c-.5625 0-.828125 0-.84375-.328125v-2.078125c0-.9375 0-1.28125-.34375-1.671875-.140625-.1875-.5-.40625-1.140625-.40625-.796875 0-1.3125.46875-1.609375 1.15625v-1.15625l-1.546875.125v.34375c.765625 0 .859375.078125.859375.609375zm0 0"/></symbol><symbol id="q" overflow="visible"><path d="m3.203125-6.984375c0-.25 0-.28125-.25-.28125-.671875.703125-1.640625.703125-1.984375.703125v.328125c.21875 0 .859375 0 1.4375-.28125v5.65625c0 .390625-.046875.515625-1.015625.515625h-.359375v.34375c.390625-.03125 1.328125-.03125 1.765625-.03125s1.390625 0 1.765625.03125v-.34375h-.34375c-.984375 0-1.015625-.109375-1.015625-.515625zm0 0"/></symbol><symbol id="r" overflow="visible"><path d="m5.015625-3.484375c0-.875-.046875-1.75-.4375-2.5625-.5-1.046875-1.390625-1.21875-1.859375-1.21875-.640625 0-1.4375.28125-1.890625 1.296875-.34375.75-.40625 1.609375-.40625 2.484375 0 .8125.046875 1.796875.5 2.625.46875.875 1.265625 1.09375 1.796875 1.09375.578125 0 1.421875-.21875 1.890625-1.265625.359375-.75.40625-1.59375.40625-2.453125zm-2.296875 3.484375c-.421875 0-1.078125-.265625-1.265625-1.3125-.125-.65625-.125-1.671875-.125-2.3125 0-.6875 0-1.40625.09375-2 .203125-1.296875 1.015625-1.40625 1.296875-1.40625.359375 0 1.078125.203125 1.28125 1.28125.109375.609375.109375 1.4375.109375 2.125 0 .828125 0 1.5625-.125 2.265625-.15625 1.03125-.78125 1.359375-1.265625 1.359375zm0 0"/></symbol><symbol id="s" overflow="visible"><path d="m3.15625-3.84375c.90625-.296875 1.53125-1.046875 1.53125-1.921875 0-.890625-.953125-1.5-2-1.5-1.109375 0-1.9375.65625-1.9375 1.484375 0 .359375.25.5625.5625.5625.328125 0 .546875-.234375.546875-.546875 0-.546875-.5-.546875-.671875-.546875.34375-.53125 1.0625-.671875 1.453125-.671875.453125 0 1.046875.234375 1.046875 1.21875 0 .125-.015625.765625-.3125 1.234375-.328125.53125-.6875.5625-.96875.578125-.078125 0-.34375.03125-.421875.03125-.09375 0-.15625.015625-.15625.125 0 .125.0625.125.25.125h.484375c.890625 0 1.296875.734375 1.296875 1.8125 0 1.484375-.75 1.796875-1.234375 1.796875-.46875 0-1.28125-.1875-1.671875-.828125.390625.046875.71875-.1875.71875-.609375 0-.390625-.28125-.609375-.609375-.609375-.25 0-.609375.15625-.609375.640625 0 .984375 1.015625 1.703125 2.203125 1.703125 1.328125 0 2.328125-.984375 2.328125-2.09375 0-.90625-.6875-1.75-1.828125-1.984375zm0 0"/></symbol><symbol id="t" overflow="visible"><path d="m5.28125-6.34375c0-.171875 0-.4375-.328125-.4375-.203125 0-.25.109375-.3125.1875-.015625.046875-.015625.0625-.15625.328125-.359375-.296875-.859375-.515625-1.421875-.515625-1.40625 0-2.625 1.453125-2.625 3.4375 0 2 1.21875 3.46875 2.640625 3.46875 1.265625 0 2.203125-.96875 2.203125-1.953125 0-.359375-.265625-.359375-.390625-.359375-.09375 0-.34375 0-.359375.3125-.078125 1.0625-.96875 1.328125-1.40625 1.328125-1 0-1.9375-1.15625-1.9375-2.796875 0-1.625.953125-2.78125 1.921875-2.78125.65625 0 1.25.515625 1.40625 1.390625.03125.1875.046875.359375.375.359375.390625 0 .390625-.234375.390625-.453125zm0 0"/></symbol><symbol id="u" overflow="visible"><path d="m4.765625-6h.265625c.171875 0 .4375 0 .4375-.328125s-.25-.328125-.4375-.328125h-1.296875c-.15625 0-.4375 0-.4375.3125 0 .34375.265625.34375.4375.34375h.28125v2.203125h-2.3125v-2.203125h.265625c.171875 0 .4375 0 .4375-.328125s-.25-.328125-.4375-.328125h-1.296875c-.171875 0-.4375 0-.4375.328125s.28125.328125.4375.328125h.28125v5.328125h-.28125c-.171875 0-.4375 0-.4375.34375 0 .328125.28125.328125.4375.328125h1.296875c.171875 0 .4375 0 .4375-.328125 0-.34375-.25-.34375-.4375-.34375h-.265625v-2.453125h2.3125v2.453125h-.28125c-.15625 0-.4375 0-.4375.328125 0 .34375.265625.34375.4375.34375h1.296875c.171875 0 .4375 0 .4375-.328125 0-.34375-.25-.34375-.4375-.34375h-.265625zm0 0"/></symbol><symbol id="v" overflow="visible"><path d="m3.234375-6h1.1875c.15625 0 .4375 0 .4375-.328125s-.28125-.328125-.4375-.328125h-3.109375c-.171875 0-.453125 0-.453125.3125 0 .34375.28125.34375.453125.34375h1.171875v5.328125h-1.171875c-.171875 0-.453125 0-.453125.328125 0 .34375.28125.34375.453125.34375h3.109375c.15625 0 .4375 0 .4375-.328125 0-.34375-.28125-.34375-.4375-.34375h-1.1875zm0 0"/></symbol><symbol id="w" overflow="visible"><path d="m3.390625-6.34375c0-.171875 0-.4375-.328125-.4375-.203125 0-.265625.125-.328125.265625-.40625.921875-.984375 1.046875-1.1875 1.0625-.171875.015625-.40625.03125-.40625.34375 0 .265625.203125.328125.359375.328125.21875 0 .65625-.078125 1.140625-.484375v4.59375h-1c-.171875 0-.4375 0-.4375.34375 0 .328125.28125.328125.4375.328125h2.75c.15625 0 .4375 0 .4375-.328125 0-.34375-.265625-.34375-.4375-.34375h-1zm0 0"/></symbol><symbol id="x" overflow="visible"><path d="m.734375-.625c-.109375.078125-.171875.140625-.171875.28125 0 .34375.28125.34375.453125.34375h3.703125c.359375 0 .421875-.09375.421875-.453125v-.28125c0-.203125 0-.4375-.359375-.4375-.390625 0-.390625.203125-.390625.5h-2.59375c.640625-.546875 1.6875-1.375 2.15625-1.796875.6875-.625 1.1875-1.3125 1.1875-2.1875 0-1.3125-1.09375-2.125-2.421875-2.125-1.296875 0-2.15625.890625-2.15625 1.8125 0 .40625.3125.53125.5.53125.21875 0 .46875-.1875.46875-.484375 0-.140625-.046875-.28125-.140625-.359375.15625-.5.671875-.84375 1.265625-.84375.90625 0 1.734375.515625 1.734375 1.46875 0 .765625-.53125 1.390625-1.25 2zm0 0"/></symbol><symbol id="y" overflow="visible"><path d="m4-3.640625c.609375-.390625.921875-1.015625.921875-1.609375 0-.796875-.796875-1.53125-2.046875-1.53125-1.3125 0-2.078125.515625-2.078125 1.28125 0 .359375.265625.5.484375.5.234375 0 .484375-.1875.484375-.484375 0-.15625-.0625-.265625-.09375-.296875.328125-.34375 1.109375-.34375 1.203125-.34375.75 0 1.296875.40625 1.296875.890625 0 .328125-.171875.703125-.46875.953125-.34375.28125-.609375.296875-1.015625.328125-.609375.03125-.78125.03125-.78125.359375s.265625.328125.4375.328125h.5c1.078125 0 1.640625.734375 1.640625 1.375 0 .65625-.609375 1.34375-1.609375 1.34375-.4375 0-1.265625-.125-1.5625-.625.0625-.0625.140625-.125.140625-.34375 0-.265625-.203125-.484375-.484375-.484375-.25 0-.484375.171875-.484375.515625 0 .96875 1.046875 1.609375 2.390625 1.609375 1.4375 0 2.359375-1.015625 2.359375-2.015625 0-.78125-.515625-1.421875-1.234375-1.75zm0 0"/></symbol><use x="3.042" xlink:href="#a" y="11.591"/><use x="7.763" xlink:href="#e" y="13.228"/><use x="11.998" xlink:href="#h" y="13.228"/><use x="14.35" xlink:href="#f" y="13.228"/><use x="18.584" xlink:href="#h" y="13.228"/><use x="20.936" xlink:href="#g" y="13.228"/><use x="28.699" xlink:href="#i" y="11.591"/><g><use x="39.005918" xlink:href="#j" y="11.591"/><use x="43.853922" xlink:href="#k" y="11.591"/><use x="49.308472" xlink:href="#l" y="11.591"/><use x="53.611021" xlink:href="#m" y="11.591"/></g><g><use x="57.85" xlink:href="#t" y="11.591"/><use x="63.577277" xlink:href="#u" y="11.591"/><use x="69.304555" xlink:href="#v" y="11.591"/><use x="75.031833" xlink:href="#w" y="11.591"/></g><use x="80.759" xlink:href="#b" y="11.591"/><g><use x="85.608" xlink:href="#t" y="11.591"/><use x="91.335277" xlink:href="#u" y="11.591"/><use x="97.062555" xlink:href="#v" y="11.591"/><use x="102.789832" xlink:href="#x" y="11.591"/></g><use x="108.517" xlink:href="#b" y="11.591"/><g><use x="113.365" xlink:href="#t" y="11.591"/><use x="119.092277" xlink:href="#u" y="11.591"/><use x="124.819555" xlink:href="#v" y="11.591"/><use x="130.546832" xlink:href="#y" y="11.591"/></g><use x="136.274" xlink:href="#n" y="11.591"/><use x="144.153" xlink:href="#b" y="11.591"/><use x="2.65" xlink:href="#c" y="28.129"/><use x="7.763" xlink:href="#e" y="29.766"/><use x="11.998" xlink:href="#h" y="29.766"/><use x="14.35" xlink:href="#f" y="29.766"/><use x="18.584" xlink:href="#h" y="29.766"/><use x="20.936" xlink:href="#g" y="29.766"/><use x="28.699" xlink:href="#i" y="28.129"/><g><use x="39.005918" xlink:href="#l" y="28.129"/><use x="43.308467" xlink:href="#o" y="28.129"/><use x="46.339015" xlink:href="#p" y="28.129"/><use x="52.400111" xlink:href="#m" y="28.129"/></g><g><use x="56.638" xlink:href="#t" y="28.129"/><use x="62.365277" xlink:href="#u" y="28.129"/><use x="68.092555" xlink:href="#v" y="28.129"/><use x="73.819832" xlink:href="#w" y="28.129"/></g><use x="79.547" xlink:href="#b" y="28.129"/><g><use x="84.396" xlink:href="#t" y="28.129"/><use x="90.123277" xlink:href="#u" y="28.129"/><use x="95.850555" xlink:href="#v" y="28.129"/><use x="101.577832" xlink:href="#x" y="28.129"/></g><use x="107.305" xlink:href="#b" y="28.129"/><g><use x="112.153" xlink:href="#t" y="28.129"/><use x="117.880277" xlink:href="#u" y="28.129"/><use x="123.607555" xlink:href="#v" y="28.129"/><use x="129.334832" xlink:href="#y" y="28.129"/></g><use x="135.062" xlink:href="#n" y="28.129"/><use x="142.941" xlink:href="#d" y="28.129"/><g><use x="305.186" xlink:href="#m" y="19.878"/><use x="309.428549" xlink:href="#q" y="19.878"/><use x="314.883099" xlink:href="#r" y="19.878"/><use x="320.337649" xlink:href="#s" y="19.878"/><use x="325.792199" xlink:href="#n" y="19.878"/></g></svg>