<svg height="110pt" viewBox="0 0 400 110" width="400pt" xmlns="http://www.w3.org/2000/svg" xmlns:xlink="http://www.w3.org/1999/xlink"><symbol id="a" overflow="visible"><path d="m8.328125-6.609375c.09375-.390625.109375-.5.90625-.5.28125 0 .375 0 .375-.21875 0-.125-.125-.125-.15625-.125-.296875 0-1.09375.03125-1.390625.03125-.3125 0-1.09375-.03125-1.40625-.03125-.09375 0-.203125 0-.203125.21875 0 .125.09375.125.296875.125.015625 0 .234375 0 .421875.015625.1875.03125.28125.03125.28125.171875 0 .046875 0 .078125-.03125.21875l-.65625 2.65625h-3.328125l.640625-2.5625c.09375-.390625.125-.5.921875-.5.28125 0 .359375 0 .359375-.21875 0-.125-.109375-.125-.140625-.125-.3125 0-1.09375.03125-1.40625.03125s-1.09375-.03125-1.40625-.03125c-.078125 0-.203125 0-.203125.21875 0 .125.09375.125.3125.125.015625 0 .21875 0 .40625.015625.203125.03125.296875.03125.296875.171875 0 .046875-.015625.078125-.046875.21875l-1.453125 5.859375c-.109375.421875-.140625.5-1 .5-.1875 0-.296875 0-.296875.21875 0 .125.140625.125.15625.125.3125 0 1.078125-.03125 1.390625-.03125.21875 0 .46875.015625.6875.015625.25 0 .484375.015625.71875.015625.078125 0 .21875 0 .21875-.21875 0-.125-.109375-.125-.3125-.125-.40625 0-.703125 0-.703125-.1875 0-.0625.015625-.125.03125-.1875l.734375-2.984375h3.328125c-.453125 1.8125-.703125 2.84375-.75 3-.109375.359375-.3125.359375-1 .359375-.15625 0-.25 0-.25.21875 0 .125.125.125.15625.125.296875 0 1.078125-.03125 1.375-.03125.234375 0 .46875.015625.703125.015625s.484375.015625.703125.015625c.09375 0 .21875 0 .21875-.21875 0-.125-.09375-.125-.296875-.125-.40625 0-.71875 0-.71875-.1875 0-.0625.03125-.125.03125-.1875zm0 0"/></symbol><symbol id="b" overflow="visible"><path d="m2.09375-.578125c0-.3125-.265625-.578125-.578125-.578125s-.578125.265625-.578125.578125.265625.578125.578125.578125.578125-.265625.578125-.578125zm0 0"/></symbol><symbol id="c" overflow="visible"><path d="m1.953125-1.25c-.4375.71875-.859375.875-1.34375.90625-.125.015625-.234375.015625-.234375.21875 0 .078125.0625.125.15625.125.28125 0 .625-.03125.9375-.03125.359375 0 .734375.03125 1.078125.03125.078125 0 .21875 0 .21875-.203125 0-.125-.109375-.140625-.1875-.140625-.25-.015625-.5-.109375-.5-.375 0-.125.0625-.25.140625-.40625l.828125-1.390625h2.75c.015625.21875.171875 1.703125.171875 1.8125 0 .328125-.5625.359375-.78125.359375-.15625 0-.265625 0-.265625.21875 0 .125.125.125.15625.125.4375 0 .90625-.03125 1.359375-.03125.265625 0 .953125.03125 1.234375.03125.0625 0 .1875 0 .1875-.21875 0-.125-.109375-.125-.25-.125-.671875 0-.671875-.078125-.703125-.390625l-.671875-6.8125c-.015625-.21875-.015625-.265625-.203125-.265625-.171875 0-.21875.078125-.28125.1875zm1.3125-1.609375 2.140625-3.59375.359375 3.59375zm0 0"/></symbol><symbol id="d" overflow="visible"><path d="m3.640625-3.296875c.0625-.28125.3125-1.28125 1.078125-1.28125.0625 0 .3125 0 .546875.140625-.296875.046875-.515625.328125-.515625.59375 0 .171875.109375.375.40625.375.25 0 .59375-.203125.59375-.625 0-.578125-.640625-.734375-1.015625-.734375-.640625 0-1.015625.578125-1.140625.84375-.28125-.734375-.875-.84375-1.1875-.84375-1.125 0-1.75 1.421875-1.75 1.6875 0 .109375.109375.109375.125.109375.09375 0 .125-.015625.140625-.125.375-1.15625 1.09375-1.421875 1.46875-1.421875.203125 0 .59375.09375.59375.734375 0 .328125-.1875 1.0625-.59375 2.59375-.171875.671875-.5625 1.125-1.03125 1.125-.078125 0-.328125 0-.546875-.140625.265625-.046875.5-.28125.5-.578125s-.234375-.390625-.390625-.390625c-.328125 0-.609375.28125-.609375.640625 0 .5.546875.71875 1.03125.71875.71875 0 1.109375-.765625 1.140625-.828125.140625.390625.53125.828125 1.1875.828125 1.109375 0 1.734375-1.40625 1.734375-1.6875 0-.109375-.09375-.109375-.125-.109375-.09375 0-.125.046875-.140625.125-.359375 1.171875-1.109375 1.421875-1.453125 1.421875-.421875 0-.59375-.34375-.59375-.71875 0-.234375.0625-.46875.171875-.953125zm0 0"/></symbol><symbol id="e" overflow="visible"><path d="m2.21875-.015625c0-.71875-.28125-1.140625-.703125-1.140625-.359375 0-.578125.265625-.578125.578125 0 .296875.21875.578125.578125.578125.125 0 .265625-.046875.375-.140625.046875-.015625.046875-.03125.0625-.03125s.015625.015625.015625.15625c0 .8125-.375 1.46875-.734375 1.828125-.125.125-.125.140625-.125.171875 0 .078125.0625.125.109375.125.125 0 1-.84375 1-2.125zm0 0"/></symbol><symbol id="f" overflow="visible"><path d="m5.296875-4.15625c.046875-.15625.046875-.171875.046875-.25 0-.203125-.15625-.296875-.3125-.296875-.109375 0-.28125.0625-.390625.234375-.015625.046875-.109375.390625-.140625.59375-.078125.28125-.15625.578125-.21875.859375l-.5 1.96875c-.046875.15625-.515625.921875-1.234375.921875-.546875 0-.671875-.46875-.671875-.875 0-.5.1875-1.1875.5625-2.140625.171875-.453125.21875-.5625.21875-.78125 0-.5-.359375-.90625-.90625-.90625-1.03125 0-1.4375 1.59375-1.4375 1.6875 0 .109375.109375.109375.140625.109375.109375 0 .109375-.015625.171875-.203125.296875-1.015625.734375-1.34375 1.09375-1.34375.09375 0 .28125 0 .28125.34375 0 .28125-.109375.5625-.1875.765625-.4375 1.15625-.640625 1.78125-.640625 2.296875 0 .96875.6875 1.296875 1.34375 1.296875.421875 0 .78125-.1875 1.09375-.5-.140625.578125-.265625 1.109375-.703125 1.6875-.28125.359375-.703125.6875-1.203125.6875-.15625 0-.640625-.03125-.828125-.46875.171875 0 .3125 0 .46875-.125.109375-.09375.21875-.234375.21875-.453125 0-.328125-.296875-.375-.40625-.375-.25 0-.609375.171875-.609375.703125 0 .546875.484375.953125 1.15625.953125 1.125 0 2.25-.984375 2.546875-2.21875zm0 0"/></symbol><symbol id="g" overflow="visible"><path d="m5.140625-4.109375c0-.0625.03125-.125.03125-.203125 0-.1875-.140625-.296875-.3125-.296875-.109375 0-.40625.078125-.453125.46875-.203125-.390625-.578125-.6875-1.015625-.6875-1.234375 0-2.59375 1.53125-2.59375 3.109375 0 1.078125.671875 1.71875 1.453125 1.71875.640625 0 1.15625-.515625 1.265625-.625-.21875.96875-.359375 1.421875-.359375 1.4375-.03125.109375-.40625 1.1875-1.5625 1.1875-.203125 0-.5625-.015625-.875-.109375.328125-.109375.453125-.390625.453125-.578125 0-.171875-.125-.375-.421875-.375-.234375 0-.59375.203125-.59375.640625s.40625.65625 1.453125.65625c1.375 0 2.15625-.84375 2.3125-1.5zm-1.421875 2.71875c-.0625.28125-.3125.546875-.5625.765625-.21875.1875-.5625.390625-.875.390625-.546875 0-.703125-.578125-.703125-1.015625 0-.515625.3125-1.796875.609375-2.359375.28125-.53125.75-.96875 1.21875-.96875.71875 0 .875.875.875.9375 0 .046875-.03125.125-.03125.15625zm0 0"/></symbol><symbol id="h" overflow="visible"><path d="m.953125-.640625c-.03125.15625-.09375.40625-.09375.46875 0 .1875.15625.296875.3125.296875.140625 0 .328125-.09375.40625-.3125.015625-.015625.140625-.53125.203125-.8125l.25-.96875c.0625-.25.125-.484375.1875-.734375.03125-.1875.125-.5.140625-.546875.15625-.34375.734375-1.328125 1.78125-1.328125.484375 0 .578125.40625.578125.765625 0 .671875-.53125 2.0625-.703125 2.53125-.09375.25-.109375.390625-.109375.5 0 .515625.375.90625.890625.90625 1.03125 0 1.4375-1.59375 1.4375-1.6875 0-.109375-.109375-.109375-.140625-.109375-.109375 0-.109375.03125-.15625.203125-.21875.734375-.578125 1.34375-1.109375 1.34375-.1875 0-.265625-.109375-.265625-.359375 0-.265625.09375-.53125.1875-.765625.21875-.578125.671875-1.78125.671875-2.40625 0-.734375-.46875-1.171875-1.25-1.171875-.984375 0-1.515625.703125-1.703125.953125-.0625-.609375-.5-.953125-1-.953125-.515625 0-.71875.4375-.828125.625-.171875.375-.328125 1.015625-.328125 1.0625 0 .109375.109375.109375.140625.109375.109375 0 .109375-.015625.171875-.25.1875-.78125.40625-1.296875.796875-1.296875.21875 0 .34375.140625.34375.5 0 .234375-.03125.34375-.171875.921875zm0 0"/></symbol><symbol id="i" overflow="visible"><path d="m3.09375-6.8125c0-.21875-.15625-.390625-.40625-.390625-.28125 0-.578125.28125-.578125.578125 0 .203125.140625.390625.40625.390625.25 0 .578125-.25.578125-.578125zm-.828125 4.09375c.140625-.3125.140625-.328125.25-.625.078125-.21875.140625-.375.140625-.578125 0-.5-.359375-.90625-.90625-.90625-1.015625 0-1.4375 1.59375-1.4375 1.6875 0 .109375.109375.109375.140625.109375.109375 0 .109375-.015625.171875-.203125.296875-1.015625.734375-1.34375 1.09375-1.34375.09375 0 .28125 0 .28125.34375 0 .234375-.078125.453125-.125.5625-.09375.296875-.578125 1.5625-.75 2.03125-.109375.28125-.25.640625-.25.859375 0 .515625.375.90625.890625.90625 1.03125 0 1.4375-1.59375 1.4375-1.6875 0-.109375-.109375-.109375-.140625-.109375-.109375 0-.109375.03125-.15625.203125-.203125.6875-.5625 1.34375-1.125 1.34375-.171875 0-.25-.109375-.25-.359375 0-.265625.0625-.421875.3125-1.09375zm0 0"/></symbol><symbol id="j" overflow="visible"><path d="m.359375 1.890625c-.03125.125-.03125.15625-.03125.171875 0 .15625.125.296875.296875.296875.234375 0 .375-.203125.390625-.234375.046875-.09375.40625-1.5625.703125-2.734375.21875.4375.5625.734375 1.078125.734375 1.265625 0 2.671875-1.546875 2.671875-3.171875 0-1.15625-.71875-1.78125-1.515625-1.78125-1.046875 0-2.203125 1.09375-2.53125 2.421875zm2.421875-2.015625c-.765625 0-.9375-.875-.9375-.96875 0-.046875.046875-.265625.09375-.40625.296875-1.21875.40625-1.609375.640625-2.046875.46875-.796875 1.015625-1.03125 1.359375-1.03125.40625 0 .75.3125.75 1.0625 0 .609375-.3125 1.828125-.609375 2.359375-.359375.6875-.875 1.03125-1.296875 1.03125zm0 0"/></symbol><symbol id="k" overflow="visible"><path d="m3.125-7.453125s0-.109375-.140625-.109375c-.25 0-1.046875.078125-1.328125.109375-.078125 0-.203125.015625-.203125.21875 0 .125.09375.125.265625.125.515625 0 .53125.078125.53125.1875l-.03125.21875-1.578125 6.28125c-.046875.15625-.046875.171875-.046875.234375 0 .25.21875.3125.328125.3125.140625 0 .296875-.109375.359375-.234375.0625-.09375.546875-2.109375.609375-2.390625.375.03125 1.265625.203125 1.265625.921875 0 .078125 0 .125-.03125.234375-.015625.140625-.03125.265625-.03125.390625 0 .640625.421875 1.078125 1 1.078125.328125 0 .625-.171875.859375-.578125.265625-.484375.390625-1.078125.390625-1.109375 0-.109375-.09375-.109375-.125-.109375-.109375 0-.125.046875-.15625.203125-.21875.796875-.46875 1.34375-.953125 1.34375-.203125 0-.34375-.109375-.34375-.5 0-.1875.046875-.4375.078125-.625.046875-.171875.046875-.21875.046875-.328125 0-.71875-.6875-1.03125-1.609375-1.140625.34375-.203125.6875-.546875.9375-.8125.515625-.578125 1.03125-1.046875 1.5625-1.046875.0625 0 .078125 0 .09375.015625.125.015625.140625.015625.234375.078125.015625.015625.015625.03125.03125.046875-.515625.03125-.609375.453125-.609375.59375 0 .171875.109375.375.40625.375.28125 0 .609375-.234375.609375-.671875 0-.3125-.25-.6875-.75-.6875-.296875 0-.8125.09375-1.59375.96875-.375.40625-.796875.84375-1.203125 1.015625zm0 0"/></symbol><symbol id="l" overflow="visible"><path d="m7.5-3.5625c.15625 0 .359375 0 .359375-.21875s-.203125-.21875-.359375-.21875h-6.53125c-.15625 0-.359375 0-.359375.21875s.203125.21875.375.21875zm0 2.109375c.15625 0 .359375 0 .359375-.21875s-.203125-.21875-.359375-.21875h-6.515625c-.171875 0-.375 0-.375.21875s.203125.21875.359375.21875zm0 0"/></symbol><symbol id="m" overflow="visible"><path d="m4.453125-2.515625h3.046875c.15625 0 .359375 0 .359375-.203125 0-.21875-.203125-.21875-.359375-.21875h-3.046875v-3.0625c0-.15625 0-.359375-.203125-.359375-.21875 0-.21875.203125-.21875.359375v3.0625h-3.0625c-.15625 0-.359375 0-.359375.21875 0 .203125.203125.203125.359375.203125h3.0625v3.0625c0 .15625 0 .359375.21875.359375.203125 0 .203125-.203125.203125-.359375zm0 0"/></symbol><symbol id="n" overflow="visible"><path d="m3.609375 2.625c0-.046875 0-.0625-.1875-.25-1.359375-1.375-1.703125-3.4375-1.703125-5.09375 0-1.90625.40625-3.796875 1.75-5.171875.140625-.125.140625-.140625.140625-.1875 0-.0625-.046875-.09375-.109375-.09375-.109375 0-1.09375.734375-1.734375 2.125-.5625 1.1875-.6875 2.40625-.6875 3.328125 0 .84375.125 2.15625.71875 3.390625.65625 1.34375 1.59375 2.046875 1.703125 2.046875.0625 0 .109375-.03125.109375-.09375zm0 0"/></symbol><symbol id="o" overflow="visible"><path d="m3.15625-2.71875c0-.859375-.125-2.171875-.71875-3.40625-.65625-1.34375-1.59375-2.046875-1.703125-2.046875-.0625 0-.109375.03125-.109375.09375 0 .046875 0 .0625.203125.265625 1.0625 1.078125 1.6875 2.8125 1.6875 5.09375 0 1.859375-.40625 3.78125-1.75 5.15625-.140625.125-.140625.140625-.140625.1875 0 .0625.046875.09375.109375.09375.109375 0 1.09375-.734375 1.734375-2.125.546875-1.1875.6875-2.40625.6875-3.3125zm0 0"/></symbol><symbol id="p" overflow="visible"><path d="m3.203125-6.984375c0-.25 0-.28125-.25-.28125-.671875.703125-1.640625.703125-1.984375.703125v.328125c.21875 0 .859375 0 1.4375-.28125v5.65625c0 .390625-.046875.515625-1.015625.515625h-.359375v.34375c.390625-.03125 1.328125-.03125 1.765625-.03125s1.390625 0 1.765625.03125v-.34375h-.34375c-.984375 0-1.015625-.109375-1.015625-.515625zm0 0"/></symbol><symbol id="q" overflow="visible"><path d="m1.671875-2.28125.421875-4.96875c0-.359375-.296875-.5625-.578125-.5625s-.578125.203125-.578125.5625l.421875 4.953125c.015625.171875.03125.25.15625.25.109375 0 .140625-.046875.15625-.234375zm.421875 1.703125c0-.3125-.265625-.578125-.578125-.578125s-.578125.265625-.578125.578125.265625.578125.578125.578125.578125-.265625.578125-.578125zm0 0"/></symbol><symbol id="r" overflow="visible"><path d="m6.75-3.671875c.203125-.53125.53125-.6875.921875-.6875v-.34375c-.25.03125-.5625.03125-.796875.03125-.328125 0-.8125-.015625-1.015625-.03125v.34375c.390625 0 .625.203125.625.515625 0 .0625 0 .09375-.046875.234375l-1 2.796875-1.078125-3.046875c-.046875-.125-.046875-.15625-.046875-.203125 0-.296875.421875-.296875.640625-.296875v-.34375c-.3125.015625-.875.03125-1.140625.03125-.328125 0-.640625 0-.96875-.03125v.34375c.40625 0 .578125.015625.6875.15625.0625.0625.171875.390625.25.609375l-.9375 2.640625-1.03125-2.921875c-.0625-.125-.0625-.15625-.0625-.1875 0-.296875.4375-.296875.65625-.296875v-.34375c-.328125.015625-.9375.03125-1.203125.03125-.03125 0-.609375 0-1-.03125v.34375c.53125 0 .671875.03125.796875.375l1.375 3.859375c.0625.15625.09375.25.234375.25s.15625-.078125.21875-.21875l1.09375-3.09375 1.109375 3.09375c.046875.125.078125.21875.21875.21875.15625 0 .1875-.109375.21875-.21875zm0 0"/></symbol><symbol id="s" overflow="visible"><path d="m1.9375-4.828125-1.53125.125v.34375c.703125 0 .796875.0625.796875.59375v2.9375c0 .484375-.109375.484375-.84375.484375v.34375c.34375-.015625.9375-.03125 1.203125-.03125.375 0 .765625.015625 1.125.03125v-.34375c-.71875 0-.75-.046875-.75-.46875zm.03125-1.890625c0-.34375-.265625-.578125-.578125-.578125-.328125 0-.578125.296875-.578125.578125 0 .296875.25.578125.578125.578125.3125 0 .578125-.234375.578125-.578125zm0 0"/></symbol><symbol id="t" overflow="visible"><path d="m1.890625-4.359375h1.5625v-.34375h-1.5625v-2h-.28125c0 .890625-.328125 2.0625-1.40625 2.09375v.25h.9375v3c0 1.34375 1.015625 1.484375 1.40625 1.484375.765625 0 1.078125-.78125 1.078125-1.484375v-.609375h-.28125v.59375c0 .8125-.328125 1.21875-.71875 1.21875-.734375 0-.734375-.984375-.734375-1.171875zm0 0"/></symbol><symbol id="u" overflow="visible"><path d="m1.203125-.828125c0 .484375-.125.484375-.859375.484375v.34375c.390625-.015625.9375-.03125 1.234375-.03125.28125 0 .859375.015625 1.21875.03125v-.34375c-.71875 0-.84375 0-.84375-.484375v-2c0-1.140625.765625-1.75 1.46875-1.75.6875 0 .8125.59375.8125 1.203125v2.546875c0 .484375-.125.484375-.859375.484375v.34375c.390625-.015625.9375-.03125 1.234375-.03125.28125 0 .859375.015625 1.21875.03125v-.34375c-.5625 0-.828125 0-.84375-.328125v-2.078125c0-.9375 0-1.28125-.34375-1.671875-.140625-.1875-.5-.40625-1.140625-.40625-.921875 0-1.390625.65625-1.578125 1.078125v-3.8125l-1.578125.109375v.34375c.765625 0 .859375.078125.859375.609375zm0 0"/></symbol><symbol id="v" overflow="visible"><path d="m1.390625-.84375 1.15625-1.125c1.703125-1.5 2.34375-2.09375 2.34375-3.171875 0-1.25-.96875-2.125-2.3125-2.125-1.21875 0-2.03125 1-2.03125 1.96875 0 .625.546875.625.578125.625.1875 0 .5625-.140625.5625-.578125 0-.296875-.1875-.578125-.578125-.578125-.078125 0-.109375 0-.140625.015625.25-.703125.84375-1.109375 1.46875-1.109375 1 0 1.46875.875 1.46875 1.78125 0 .859375-.546875 1.734375-1.140625 2.40625l-2.09375 2.328125c-.125.125-.125.140625-.125.40625h4.046875l.296875-1.890625h-.265625c-.0625.3125-.125.796875-.234375.96875-.078125.078125-.796875.078125-1.046875.078125zm0 0"/></symbol><symbol id="w" overflow="visible"><path d="m3.15625-3.84375c.90625-.296875 1.53125-1.046875 1.53125-1.921875 0-.890625-.953125-1.5-2-1.5-1.109375 0-1.9375.65625-1.9375 1.484375 0 .359375.25.5625.5625.5625.328125 0 .546875-.234375.546875-.546875 0-.546875-.5-.546875-.671875-.546875.34375-.53125 1.0625-.671875 1.453125-.671875.453125 0 1.046875.234375 1.046875 1.21875 0 .125-.015625.765625-.3125 1.234375-.328125.53125-.6875.5625-.96875.578125-.078125 0-.34375.03125-.421875.03125-.09375 0-.15625.015625-.15625.125 0 .125.0625.125.25.125h.484375c.890625 0 1.296875.734375 1.296875 1.8125 0 1.484375-.75 1.796875-1.234375 1.796875-.46875 0-1.28125-.1875-1.671875-.828125.390625.046875.71875-.1875.71875-.609375 0-.390625-.28125-.609375-.609375-.609375-.25 0-.609375.15625-.609375.640625 0 .984375 1.015625 1.703125 2.203125 1.703125 1.328125 0 2.328125-.984375 2.328125-2.09375 0-.90625-.6875-1.75-1.828125-1.984375zm0 0"/></symbol><symbol id="x" overflow="visible"><path d="m1.78125-4.984375c-.5-.328125-.546875-.703125-.546875-.890625 0-.65625.703125-1.109375 1.484375-1.109375.796875 0 1.484375.5625 1.484375 1.34375 0 .625-.421875 1.140625-1.078125 1.53125zm1.59375 1.03125c.78125-.40625 1.3125-.96875 1.3125-1.6875 0-1-.96875-1.625-1.96875-1.625-1.078125 0-1.96875.8125-1.96875 1.828125 0 .1875.03125.6875.484375 1.1875.125.140625.515625.40625.796875.59375-.640625.3125-1.578125.9375-1.578125 2.015625 0 1.15625 1.125 1.875 2.265625 1.875 1.234375 0 2.265625-.90625 2.265625-2.0625 0-.390625-.125-.890625-.53125-1.34375-.203125-.234375-.390625-.34375-1.078125-.78125zm-1.09375.46875 1.34375.84375c.296875.203125.8125.53125.8125 1.203125 0 .8125-.8125 1.375-1.71875 1.375-.9375 0-1.71875-.671875-1.71875-1.578125 0-.640625.359375-1.34375 1.28125-1.84375zm0 0"/></symbol><symbol id="y" overflow="visible"><path d="m4.890625-2.1875c0-1.296875-.890625-2.390625-2.0625-2.390625-.53125 0-1 .171875-1.390625.546875v-2.125c.21875.078125.578125.140625.921875.140625 1.34375 0 2.109375-.984375 2.109375-1.125 0-.0625-.03125-.125-.109375-.125 0 0-.03125 0-.078125.03125-.21875.109375-.765625.3125-1.484375.3125-.4375 0-.9375-.0625-1.453125-.296875-.09375-.03125-.109375-.03125-.140625-.03125-.109375 0-.109375.078125-.109375.265625v3.21875c0 .203125 0 .28125.15625.28125.078125 0 .109375-.03125.140625-.09375.125-.171875.53125-.765625 1.40625-.765625.578125 0 .84375.5.9375.703125.171875.40625.1875.828125.1875 1.375 0 .375 0 1.03125-.25 1.484375-.265625.4375-.671875.71875-1.171875.71875-.796875 0-1.421875-.578125-1.609375-1.21875.03125 0 .0625.015625.1875.015625.359375 0 .546875-.265625.546875-.53125s-.1875-.53125-.546875-.53125c-.15625 0-.53125.078125-.53125.578125 0 .9375.75 1.984375 1.96875 1.984375 1.265625 0 2.375-1.046875 2.375-2.421875zm0 0"/></symbol><symbol id="z" overflow="visible"><path d="m3.21875-3c-.1875.03125-.359375.171875-.359375.375 0 .140625.09375.25.265625.25.125 0 .375-.09375.375-.453125 0-.484375-.515625-.6875-1.015625-.6875-1.0625 0-1.40625.765625-1.40625 1.171875 0 .078125 0 .359375.296875.578125.1875.140625.328125.171875.734375.25.28125.0625.734375.140625.734375.546875 0 .21875-.15625.46875-.375.625-.296875.1875-.6875.203125-.8125.203125-.1875 0-.734375-.03125-.9375-.359375.40625-.015625.46875-.34375.46875-.4375 0-.234375-.21875-.296875-.3125-.296875-.125 0-.453125.109375-.453125.546875 0 .46875.5.765625 1.234375.765625 1.390625 0 1.6875-.984375 1.6875-1.3125 0-.71875-.78125-.875-1.078125-.921875-.390625-.078125-.703125-.125-.703125-.46875 0-.140625.140625-.671875.921875-.671875.296875 0 .609375.09375.734375.296875zm0 0"/></symbol><symbol id="A" overflow="visible"><path d="m2.328125-5.296875c0-.015625.03125-.109375.03125-.125 0-.03125-.03125-.109375-.125-.109375-.03125 0-.28125.03125-.46875.046875l-.4375.03125c-.1875.015625-.265625.015625-.265625.15625 0 .125.109375.125.21875.125.375 0 .375.046875.375.109375 0 .03125 0 .046875-.03125.1875l-1.140625 4.53125c-.03125.125-.03125.171875-.03125.171875 0 .140625.109375.25.265625.25.265625 0 .328125-.25.359375-.359375.078125-.34375.296875-1.1875.375-1.515625.4375.046875.984375.1875.984375.65625 0 .03125 0 .078125-.015625.15625-.03125.09375-.046875.21875-.046875.25 0 .46875.34375.8125.8125.8125.328125 0 .546875-.25.640625-.390625.203125-.296875.328125-.78125.328125-.828125 0-.078125-.0625-.109375-.125-.109375-.09375 0-.109375.0625-.140625.203125-.109375.375-.3125.90625-.6875.90625-.203125 0-.25-.171875-.25-.390625 0-.109375 0-.203125.046875-.390625 0-.03125.03125-.15625.03125-.234375 0-.65625-.8125-.796875-1.21875-.859375.296875-.171875.5625-.453125.65625-.546875.4375-.4375.796875-.734375 1.1875-.734375.09375 0 .1875.03125.25.109375-.421875.0625-.421875.4375-.421875.4375 0 .171875.140625.296875.3125.296875.21875 0 .453125-.171875.453125-.5 0-.28125-.1875-.5625-.59375-.5625-.453125 0-.875.359375-1.328125.8125-.46875.453125-.65625.53125-.796875.59375zm0 0"/></symbol><symbol id="B" overflow="visible"><path d="m1.484375-.125c0 .515625-.109375.984375-.59375 1.46875-.03125.03125-.046875.046875-.046875.078125 0 .0625.0625.109375.109375.109375.09375 0 .765625-.625.765625-1.5625 0-.5-.203125-.859375-.546875-.859375-.28125 0-.4375.234375-.4375.4375 0 .234375.15625.453125.4375.453125.203125 0 .3125-.109375.3125-.125zm0 0"/></symbol><symbol id="C" overflow="visible"><path d="m1.59375-1.3125c.03125-.109375.109375-.421875.125-.53125.109375-.4375.109375-.4375.296875-.703125.265625-.390625.640625-.75 1.171875-.75.28125 0 .453125.171875.453125.546875 0 .4375-.328125 1.34375-.484375 1.734375-.109375.265625-.109375.3125-.109375.421875 0 .453125.375.671875.71875.671875.78125 0 1.109375-1.109375 1.109375-1.21875 0-.078125-.0625-.109375-.125-.109375-.09375 0-.109375.0625-.125.140625-.1875.65625-.53125.96875-.828125.96875-.125 0-.1875-.078125-.1875-.265625s.0625-.359375.140625-.5625c.109375-.296875.46875-1.21875.46875-1.65625 0-.609375-.421875-.890625-.984375-.890625-.65625 0-1.0625.390625-1.296875.6875-.0625-.4375-.40625-.6875-.8125-.6875-.28125 0-.484375.1875-.609375.4375-.203125.375-.28125.765625-.28125.78125 0 .078125.0625.109375.125.109375.109375 0 .109375-.03125.171875-.25.09375-.390625.234375-.859375.5625-.859375.21875 0 .265625.203125.265625.375 0 .15625-.046875.296875-.109375.5625-.015625.0625-.140625.53125-.171875.640625l-.296875 1.203125c-.03125.125-.078125.3125-.078125.34375 0 .1875.15625.25.265625.25.140625 0 .265625-.09375.3125-.1875.03125-.046875.09375-.328125.125-.484375zm0 0"/></symbol><symbol id="D" overflow="visible"><path d="m3.703125-5.640625c.046875-.109375.046875-.125.046875-.15625 0-.09375-.078125-.171875-.1875-.171875-.125 0-.15625.09375-.1875.171875l-2.859375 7.453125c-.046875.109375-.046875.125-.046875.15625 0 .09375.078125.171875.1875.171875.125 0 .15625-.09375.1875-.171875zm0 0"/></symbol><symbol id="E" overflow="visible"><path d="m4.296875-2.1875c-.46875-.5625-.53125-.625-.8125-.828125-.359375-.28125-.84375-.5-1.375-.5-.96875 0-1.640625.859375-1.640625 1.796875s.65625 1.796875 1.609375 1.796875c.65625 0 1.421875-.34375 2.078125-1.328125.46875.5625.53125.625.8125.828125.375.28125.859375.5 1.375.5.984375 0 1.65625-.84375 1.65625-1.796875 0-.9375-.671875-1.796875-1.609375-1.796875-.65625 0-1.421875.34375-2.09375 1.328125zm.25.296875c.296875-.5.953125-1.328125 1.890625-1.328125.859375 0 1.328125.78125 1.328125 1.5 0 .765625-.578125 1.375-1.28125 1.375s-1.171875-.59375-1.9375-1.546875zm-.625.34375c-.296875.5-.953125 1.328125-1.890625 1.328125-.859375 0-1.34375-.78125-1.34375-1.5 0-.765625.59375-1.359375 1.296875-1.359375s1.171875.578125 1.9375 1.53125zm0 0"/></symbol><symbol id="F" overflow="visible"><path d="m5.5625-1.8125c.140625 0 .3125 0 .3125-.171875 0-.1875-.171875-.1875-.3125-.1875h-4.5625c-.125 0-.296875 0-.296875.1875 0 .171875.171875.171875.296875.171875zm0 0"/></symbol><symbol id="G" overflow="visible"><path d="m13.8125 15.265625 1.3125-3.484375h-.265625c-.4375 1.125-1.59375 1.875-2.84375 2.203125-.21875.046875-1.296875.328125-3.390625.328125h-6.578125l5.5625-6.5c.0625-.09375.09375-.125.09375-.171875 0-.03125 0-.0625-.078125-.171875l-5.078125-6.9375h5.96875c1.46875 0 2.453125.140625 2.546875.171875.59375.078125 1.546875.265625 2.40625.8125.265625.171875 1.015625.671875 1.390625 1.546875h.265625l-1.3125-3.0625h-12.890625c-.25 0-.265625.015625-.296875.078125-.015625.03125-.015625.234375-.015625.359375l5.765625 7.890625-5.640625 6.625c-.109375.125-.109375.1875-.109375.203125 0 .109375.09375.109375.296875.109375zm0 0"/></symbol><symbol id="H" overflow="visible"><path d="m5.828125-2.65625c.109375 0 .28125 0 .28125-.1875 0-.171875-.203125-.171875-.3125-.171875h-5.015625c-.125 0-.3125 0-.3125.171875 0 .1875.15625.1875.28125.1875zm-.03125 1.6875c.109375 0 .3125 0 .3125-.171875 0-.1875-.171875-.1875-.28125-.1875h-5.078125c-.125 0-.28125 0-.28125.1875 0 .171875.1875.171875.3125.171875zm0 0"/></symbol><symbol id="I" overflow="visible"><path d="m3.890625-2.546875c0-.84375-.078125-1.359375-.34375-1.875-.34375-.703125-1-.875-1.4375-.875-1 0-1.375.75-1.484375.96875-.28125.578125-.296875 1.375-.296875 1.78125 0 .53125.015625 1.328125.40625 1.96875.359375.59375.953125.75 1.375.75.390625 0 1.0625-.125 1.46875-.90625.296875-.578125.3125-1.296875.3125-1.8125zm-1.78125 2.484375c-.265625 0-.8125-.125-.984375-.953125-.09375-.453125-.09375-1.203125-.09375-1.625 0-.546875 0-1.109375.09375-1.546875.171875-.8125.78125-.890625.984375-.890625.265625 0 .828125.140625.984375.859375.09375.4375.09375 1.046875.09375 1.578125 0 .46875 0 1.1875-.09375 1.640625-.171875.828125-.71875.9375-.984375.9375zm0 0"/></symbol><symbol id="J" overflow="visible"><path d="m2.5-5.078125c0-.21875-.015625-.21875-.234375-.21875-.328125.3125-.75.5-1.5.5v.265625c.21875 0 .640625 0 1.109375-.203125v4.078125c0 .296875-.03125.390625-.78125.390625h-.28125v.265625c.328125-.03125 1.015625-.03125 1.375-.03125s1.046875 0 1.375.03125v-.265625h-.28125c-.75 0-.78125-.09375-.78125-.390625zm0 0"/></symbol><symbol id="K" overflow="visible"><path d="m2.25-1.625c.125-.125.453125-.390625.59375-.5.484375-.453125.953125-.890625.953125-1.609375 0-.953125-.796875-1.5625-1.78125-1.5625-.96875 0-1.59375.71875-1.59375 1.4375 0 .390625.3125.4375.421875.4375.171875 0 .421875-.109375.421875-.421875 0-.40625-.40625-.40625-.5-.40625.234375-.59375.765625-.78125 1.15625-.78125.734375 0 1.125.625 1.125 1.296875 0 .828125-.578125 1.4375-1.53125 2.390625l-1 1.046875c-.09375.078125-.09375.09375-.09375.296875h3.140625l.234375-1.421875h-.25c-.015625.15625-.078125.546875-.171875.703125-.046875.0625-.65625.0625-.78125.0625h-1.421875zm0 0"/></symbol><symbol id="L" overflow="visible"><path d="m3.46875-1.8125h2.34375c.109375 0 .296875 0 .296875-.171875 0-.1875-.1875-.1875-.296875-.1875h-2.34375v-2.359375c0-.109375 0-.28125-.171875-.28125-.1875 0-.1875.171875-.1875.28125v2.359375h-2.359375c-.109375 0-.28125 0-.28125.1875 0 .171875.171875.171875.28125.171875h2.359375v2.359375c0 .109375 0 .28125.1875.28125.171875 0 .171875-.171875.171875-.28125zm0 0"/></symbol><symbol id="M" overflow="visible"><path d="m3.015625-3.90625 1.65625-2.09375c.390625 0 .625 0 .625-.34375 0-.3125-.296875-.3125-.453125-.3125h-.96875c-.15625 0-.4375 0-.4375.328125s.296875.328125.4375.328125l-2.296875 2.90625v-2.90625h.25c.15625 0 .4375 0 .4375-.328125s-.265625-.328125-.4375-.328125h-1.09375c-.171875 0-.453125 0-.453125.3125 0 .34375.28125.34375.453125.34375h.234375v5.328125h-.234375c-.171875 0-.453125 0-.453125.328125 0 .34375.28125.34375.453125.34375h1.09375c.15625 0 .4375 0 .4375-.328125 0-.34375-.265625-.34375-.4375-.34375h-.25v-1.4375l1.015625-1.28125 1.53125 2.71875c-.15625 0-.4375 0-.4375.328125 0 .34375.265625.34375.453125.34375h.8125c.15625 0 .453125 0 .453125-.328125 0-.34375-.265625-.34375-.578125-.34375-.015625-.03125-.0625-.109375-.078125-.125zm0 0"/></symbol><symbol id="N" overflow="visible"><path d="m3.234375-2.984375c.296875.0625 1.203125.28125 1.203125 1.234375 0 .5625-.46875 1.203125-1.328125 1.203125-.3125 0-.84375-.046875-1.28125-.34375-.453125-.28125-.5-.75-.515625-.9375 0-.1875-.015625-.390625-.359375-.390625-.390625 0-.390625.234375-.390625.453125v1.4375c0 .171875 0 .453125.328125.453125.25 0 .3125-.15625.40625-.5.4375.328125 1.109375.5 1.796875.5 1.265625 0 2.046875-.96875 2.046875-1.9375 0-.703125-.390625-1.15625-.515625-1.296875-.453125-.4375-.75-.515625-1.59375-.703125l-.875-.203125c-.46875-.125-.875-.515625-.875-1.015625 0-.5625.53125-1.09375 1.296875-1.09375 1.296875 0 1.453125 1.03125 1.515625 1.375.046875.234375.15625.296875.375.296875.390625 0 .390625-.21875.390625-.4375v-1.453125c0-.171875 0-.4375-.328125-.4375-.265625 0-.328125.1875-.40625.515625-.453125-.390625-1.03125-.515625-1.53125-.515625-1.203125 0-2.03125.859375-2.03125 1.78125 0 .734375.5 1.453125 1.40625 1.71875.046875.015625 1.109375.265625 1.265625.296875zm0 0"/></symbol><symbol id="O" overflow="visible"><path d="m1.9375-6h.609375c.15625 0 .453125 0 .453125-.328125s-.28125-.328125-.453125-.328125h-1.765625c-.171875 0-.4375 0-.4375.328125s.28125.328125.4375.328125h.40625v5.328125h-.40625c-.171875 0-.4375 0-.4375.34375 0 .328125.28125.328125.4375.328125h4.109375c.359375 0 .4375-.09375.4375-.453125v-.96875c0-.21875 0-.4375-.375-.4375-.390625 0-.390625.21875-.390625.4375v.75h-2.625zm0 0"/></symbol><symbol id="P" overflow="visible"><path d="m3.453125-6.375c-.109375-.40625-.25-.421875-.59375-.421875-.3125 0-.5 0-.59375.421875l-1.3125 5.703125c-.15625 0-.40625 0-.46875.03125-.125.0625-.1875.171875-.1875.3125 0 .328125.28125.328125.46875.328125h1.109375c.203125 0 .453125 0 .453125-.328125 0-.34375-.21875-.34375-.609375-.34375l.25-1.125h1.765625l.25 1.125c-.390625 0-.609375 0-.609375.34375 0 .328125.265625.328125.46875.328125h1.109375c.1875 0 .46875 0 .46875-.328125 0-.140625-.0625-.25-.1875-.296875-.0625-.046875-.3125-.046875-.46875-.046875zm-.59375.46875h.015625l.703125 3.4375h-1.4375zm0 0"/></symbol><symbol id="Q" overflow="visible"><path d="m2.078125-6.265625c-.140625-.359375-.296875-.390625-.59375-.390625h-.75c-.15625 0-.421875 0-.421875.3125 0 .34375.25.34375.421875.34375h.28125v5.328125h-.28125c-.15625 0-.421875 0-.421875.328125 0 .34375.25.34375.421875.34375h1.15625c.171875 0 .4375 0 .4375-.328125 0-.34375-.25-.34375-.4375-.34375h-.265625v-5.171875h.015625l2 5.453125c.140625.375.3125.390625.609375.390625.3125 0 .453125-.03125.453125-.453125v-5.546875h.265625c.171875 0 .4375 0 .4375-.328125s-.265625-.328125-.4375-.328125h-1.15625c-.171875 0-.4375 0-.4375.328125s.28125.328125.4375.328125h.28125v5.1875h-.015625zm0 0"/></symbol><symbol id="R" overflow="visible"><path d="m4.890625-2.28125c.265625 0 .515625 0 .515625-.34375 0-.3125-.28125-.3125-.4375-.3125h-1.296875c-.171875 0-.4375 0-.4375.3125 0 .34375.25.34375.4375.34375h.453125c-.140625 1.21875-.671875 1.734375-1.25 1.734375-.875 0-1.703125-1.171875-1.703125-2.78125 0-1.671875.875-2.796875 1.71875-2.796875.375 0 1.0625.25 1.25 1.4375.03125.1875.09375.3125.375.3125.375 0 .375-.234375.375-.453125v-1.515625c0-.171875 0-.4375-.328125-.4375-.21875 0-.28125.125-.4375.484375-.390625-.328125-.828125-.484375-1.28125-.484375-1.3125 0-2.421875 1.46875-2.421875 3.4375 0 2.015625 1.125 3.46875 2.421875 3.46875.625 0 1.078125-.328125 1.296875-.578125 0 .234375 0 .453125.390625.453125.359375 0 .359375-.234375.359375-.453125zm0 0"/></symbol><symbol id="S" overflow="visible"><path d="m1.0625-.671875h-.328125c-.171875 0-.453125 0-.453125.34375 0 .328125.28125.328125.453125.328125h4.296875c.375 0 .4375-.09375.4375-.453125v-.96875c0-.203125 0-.4375-.359375-.4375-.390625 0-.390625.21875-.390625.4375v.75h-2.90625v-2.453125h1.421875c0 .453125 0 .625.390625.625.359375 0 .359375-.234375.359375-.4375v-1.015625c0-.21875 0-.453125-.359375-.453125-.390625 0-.390625.171875-.390625.625h-1.421875v-2.21875h2.671875v.578125c0 .203125 0 .453125.375.453125s.375-.234375.375-.453125v-.796875c0-.328125-.0625-.4375-.4375-.4375h-4.0625c-.171875 0-.453125 0-.453125.3125 0 .34375.28125.34375.453125.34375h.328125zm0 0"/></symbol><symbol id="T" overflow="visible"><path d="m4.25-3.03125-2.1875-2.171875c-.125-.125-.15625-.15625-.234375-.15625-.109375 0-.21875.109375-.21875.21875 0 .078125.015625.109375.140625.21875l2.171875 2.203125-2.171875 2.1875c-.125.109375-.140625.140625-.140625.21875 0 .109375.109375.21875.21875.21875.078125 0 .109375-.03125.234375-.15625l2.171875-2.171875 2.25 2.265625c.03125 0 .109375.0625.171875.0625.125 0 .21875-.109375.21875-.21875 0-.03125 0-.0625-.03125-.125-.015625-.015625-1.75-1.734375-2.296875-2.28125l2-2c.046875-.0625.21875-.203125.265625-.28125.015625-.015625.0625-.0625.0625-.140625 0-.109375-.09375-.21875-.21875-.21875-.09375 0-.140625.046875-.25.171875zm0 0"/></symbol><symbol id="U" overflow="visible"><path d="m4.25 9.328125-1.921875-4.25c-.078125-.171875-.140625-.171875-.171875-.171875 0 0-.0625 0-.1875.09375l-1.03125.78125c-.140625.109375-.140625.140625-.140625.171875 0 .0625.03125.125.109375.125.0625 0 .25-.15625.375-.25.0625-.046875.21875-.171875.34375-.25l2.15625 4.71875c.0625.171875.125.171875.21875.171875.171875 0 .203125-.0625.28125-.21875l4.953125-10.25c.0625-.15625.0625-.203125.0625-.21875 0-.109375-.078125-.21875-.21875-.21875-.078125 0-.15625.0625-.25.234375zm0 0"/></symbol><symbol id="V" overflow="visible"><path d="m7.484375-4.625c.1875 0 .390625 0 .390625-.21875s-.203125-.21875-.375-.21875h-6.515625c-.1875 0-.390625 0-.390625.21875s.21875.21875.40625.21875zm.015625 4.234375c.171875 0 .375 0 .375-.21875s-.203125-.21875-.390625-.21875h-6.484375c-.1875 0-.40625 0-.40625.21875s.203125.21875.390625.21875zm0-2.125c.171875 0 .375 0 .375-.203125 0-.21875-.203125-.21875-.375-.21875h-6.515625c-.1875 0-.390625 0-.390625.21875 0 .203125.203125.203125.390625.203125zm0 0"/></symbol><symbol id="W" overflow="visible"><path d="m7.1875-2.515625c.1875 0 .375 0 .375-.203125 0-.21875-.1875-.21875-.375-.21875h-5.90625c-.1875 0-.375 0-.375.21875 0 .203125.1875.203125.375.203125zm0 0"/></symbol><use x="34.02" xlink:href="#a" y="11.591"/><use x="47.004" xlink:href="#l" y="11.591"/><g><use x="55.489" xlink:href="#b" y="11.591"/><use x="58.519548" xlink:href="#b" y="11.591"/><use x="61.550096" xlink:href="#b" y="11.591"/></g><use x="67.004" xlink:href="#m" y="11.591"/><use x="77.913" xlink:href="#c" y="11.591"/><use x="86.095" xlink:href="#z" y="13.228"/><use x="90.509" xlink:href="#n" y="11.591"/><g><use x="94.752" xlink:href="#d" y="11.591"/><use x="100.986551" xlink:href="#e" y="11.591"/></g><use x="105.838918" xlink:href="#f" y="11.591"/><use x="111.575" xlink:href="#o" y="11.591"/><use x="119.454" xlink:href="#e" y="11.591"/><use x="6.07" xlink:href="#c" y="37.8"/><use x="14.252" xlink:href="#z" y="39.436"/><use x="18.666" xlink:href="#n" y="37.8"/><g><use x="22.908" xlink:href="#d" y="37.8"/><use x="29.142551" xlink:href="#e" y="37.8"/></g><use x="33.994918" xlink:href="#f" y="37.8"/><use x="39.732" xlink:href="#o" y="37.8"/><use x="47.007279" xlink:href="#l" y="37.8"/><use x="64.54" xlink:href="#E" y="24.164"/><use x="60.895" xlink:href="#G" y="27.436"/><use x="57.307" xlink:href="#A" y="51.153"/><g><use x="61.931252" xlink:href="#B" y="51.153"/><use x="64.283229" xlink:href="#C" y="51.153"/></g><g><use x="69.419" xlink:href="#H" y="51.153"/><use x="76.005491" xlink:href="#I" y="51.153"/></g><use x="82.058" xlink:href="#g" y="37.8"/><use x="87.262" xlink:href="#A" y="39.577"/><use x="91.886252" xlink:href="#C" y="39.577"/><use x="98.715" xlink:href="#M" y="30.42"/><use x="104.442" xlink:href="#h" y="30.42"/><use x="113.414" xlink:href="#m" y="30.42"/><use x="124.323" xlink:href="#i" y="30.42"/><g><use x="128.082" xlink:href="#N" y="30.42"/><use x="133.809277" xlink:href="#M" y="30.42"/></g><use x="139.536" xlink:href="#h" y="30.42"/><path d="m-.00015625-.00121875h47.37109425" fill="none" stroke="#000" stroke-miterlimit="10" stroke-width=".436" transform="matrix(1 0 0 -1 98.715 35.073)"/><use x="103.974" xlink:href="#n" y="45.283"/><use x="108.217" xlink:href="#h" y="45.283"/><use x="117.189" xlink:href="#m" y="45.283"/><g><use x="128.095918" xlink:href="#p" y="45.283"/><use x="133.550468" xlink:href="#o" y="45.283"/><use x="137.793017" xlink:href="#q" y="45.283"/></g><use x="147.28" xlink:href="#n" y="37.8"/><use x="151.522" xlink:href="#j" y="37.8"/><use x="159.587" xlink:href="#m" y="37.8"/><use x="170.496" xlink:href="#d" y="37.8"/><use x="176.731" xlink:href="#o" y="37.8"/><use x="180.973" xlink:href="#J" y="33.296"/><use x="185.207" xlink:href="#D" y="33.296"/><use x="189.441" xlink:href="#K" y="33.296"/><use x="193.676" xlink:href="#F" y="33.296"/><use x="200.262" xlink:href="#A" y="33.296"/><use x="207.806" xlink:href="#T" y="37.8"/><use x="219.911" xlink:href="#n" y="30.42"/><use x="224.153" xlink:href="#d" y="30.42"/><use x="232.812" xlink:href="#m" y="30.42"/><g><use x="243.721" xlink:href="#i" y="30.42"/><use x="247.479185" xlink:href="#f" y="30.42"/></g><use x="253.219" xlink:href="#o" y="30.42"/><use x="257.462" xlink:href="#C" y="26.461"/><use x="262.6" xlink:href="#L" y="26.461"/><use x="269.186" xlink:href="#A" y="26.461"/><path d="m-.00084375-.00121875h54.39843775" fill="none" stroke="#000" stroke-miterlimit="10" stroke-width=".436" transform="matrix(1 0 0 -1 219.911 35.073)"/><use x="239.743" xlink:href="#U" y="38.486"/><path d="m.0019375-.00153125h5.6367185" fill="none" stroke="#000" stroke-miterlimit="10" stroke-width=".436" transform="matrix(1 0 0 -1 248.834 38.268)"/><use x="248.834" xlink:href="#j" y="45.283"/><use x="279.138" xlink:href="#e" y="37.8"/><g><use x="3.664" xlink:href="#r" y="73.341"/><use x="11.542552" xlink:href="#s" y="73.341"/><use x="14.5731" xlink:href="#t" y="73.341"/><use x="18.815649" xlink:href="#u" y="73.341"/></g><use x="28.513" xlink:href="#g" y="73.341"/><use x="33.716" xlink:href="#A" y="75.118"/><use x="38.340252" xlink:href="#C" y="75.118"/><use x="47.004" xlink:href="#V" y="73.341"/><use x="57.910918" xlink:href="#W" y="73.341"/><g><use x="70.018" xlink:href="#n" y="65.961"/><use x="74.260549" xlink:href="#v" y="65.961"/></g><use x="79.715" xlink:href="#k" y="65.961"/><use x="88.162" xlink:href="#W" y="65.961"/><g><use x="99.071" xlink:href="#p" y="65.961"/><use x="104.52555" xlink:href="#o" y="65.961"/><use x="108.768099" xlink:href="#q" y="65.961"/><use x="111.798647" xlink:href="#q" y="65.961"/><use x="114.829195" xlink:href="#n" y="65.961"/><use x="119.071744" xlink:href="#v" y="65.961"/></g><use x="124.526" xlink:href="#k" y="65.961"/><use x="132.972" xlink:href="#W" y="65.961"/><g><use x="143.882" xlink:href="#w" y="65.961"/><use x="149.33655" xlink:href="#o" y="65.961"/><use x="153.579099" xlink:href="#q" y="65.961"/><use x="156.609647" xlink:href="#q" y="65.961"/><use x="159.640195" xlink:href="#n" y="65.961"/></g><use x="163.882" xlink:href="#h" y="65.961"/><use x="172.854" xlink:href="#m" y="65.961"/><g><use x="183.760918" xlink:href="#p" y="65.961"/><use x="189.215468" xlink:href="#o" y="65.961"/><use x="193.458017" xlink:href="#q" y="65.961"/></g><path d="m.00153125-.00028125h126.46874975" fill="none" stroke="#000" stroke-miterlimit="10" stroke-width=".436" transform="matrix(1 0 0 -1 70.018 70.613)"/><use x="95.337" xlink:href="#x" y="80.827"/><use x="100.791" xlink:href="#A" y="77.675"/><use x="105.911" xlink:href="#n" y="80.827"/><use x="110.154" xlink:href="#h" y="80.827"/><use x="119.126" xlink:href="#m" y="80.827"/><use x="130.035" xlink:href="#k" y="80.827"/><use x="138.482" xlink:href="#m" y="80.827"/><g><use x="149.388918" xlink:href="#p" y="80.827"/><use x="154.843468" xlink:href="#o" y="80.827"/><use x="159.086017" xlink:href="#q" y="80.827"/></g><use x="162.118" xlink:href="#k" y="80.827"/><use x="168.141" xlink:href="#q" y="80.827"/><use x="201.322" xlink:href="#e" y="73.341"/><use x="38.334" xlink:href="#j" y="101.586"/><use x="47.004" xlink:href="#V" y="101.586"/><use x="68.139" xlink:href="#O" y="94.206"/><path d="m-.00140625-.000375h28.63671825" fill="none" stroke="#000" stroke-miterlimit="10" stroke-width=".436" transform="matrix(1 0 0 -1 56.685 98.859)"/><g><use x="56.685" xlink:href="#P" y="109.069"/><use x="62.412278" xlink:href="#Q" y="109.069"/><use x="68.139555" xlink:href="#R" y="109.069"/><use x="73.866833" xlink:href="#O" y="109.069"/><use x="79.59411" xlink:href="#S" y="109.069"/></g><use x="90.153" xlink:href="#b" y="101.586"/><g><use x="373.186" xlink:href="#n" y="58.315"/><use x="377.428549" xlink:href="#p" y="58.315"/><use x="382.883099" xlink:href="#y" y="58.315"/><use x="388.337649" xlink:href="#x" y="58.315"/><use x="393.792199" xlink:href="#o" y="58.315"/></g></svg>