<svg height="45pt" viewBox="0 0 423 45" width="423pt" xmlns="http://www.w3.org/2000/svg" xmlns:xlink="http://www.w3.org/1999/xlink"><symbol id="a" overflow="visible"><path d="m4.078125 19.296875c.234375 0 .3125 0 .3125-.140625.015625-7.65625.90625-14 4.71875-19.328125.078125-.09375.078125-.125.078125-.140625 0-.109375-.078125-.109375-.25-.109375-.1875 0-.203125 0-.21875.015625-.046875.03125-1.4375 1.625-2.53125 3.8125-1.4375 2.890625-2.34375 6.1875-2.75 10.15625-.03125.34375-.265625 2.609375-.265625 5.203125v.421875c.015625.109375.078125.109375.3125.109375zm0 0"/></symbol><symbol id="b" overflow="visible"><path d="m3.484375-.546875c-.234375 0-.296875 0-.3125.125v.421875c0 6.65625 1.1875 10.5625 1.53125 11.671875.734375 2.421875 1.953125 4.96875 3.765625 7.21875.171875.1875.21875.25.25.265625s.03125.03125.21875.03125c.171875 0 .25 0 .25-.109375 0-.03125 0-.046875-.0625-.140625-3.640625-5.046875-4.734375-11.109375-4.734375-19.328125 0-.15625-.078125-.15625-.3125-.15625zm0 0"/></symbol><symbol id="c" overflow="visible"><path d="m6.359375 18.765625c0-6.671875-1.1875-10.578125-1.53125-11.671875-.734375-2.421875-1.953125-4.984375-3.765625-7.21875-.171875-.203125-.21875-.25-.25-.28125-.03125-.015625-.03125-.015625-.21875-.015625-.15625 0-.25 0-.25.109375 0 .015625 0 .046875.140625.234375 3.796875 5.296875 4.65625 11.84375 4.65625 19.234375 0 .140625.078125.140625.3125.140625h.59375c.234375 0 .296875 0 .3125-.109375zm0 0"/></symbol><symbol id="d" overflow="visible"><path d="m6.359375-.421875c-.015625-.125-.078125-.125-.3125-.125h-.59375c-.234375 0-.3125 0-.3125.15625 0 1.125 0 3.71875-.28125 6.4375-.59375 5.640625-2.046875 9.53125-4.4375 12.890625-.078125.09375-.078125.109375-.078125.140625 0 .109375.09375.109375.25.109375.1875 0 .203125 0 .21875-.03125.046875-.03125 1.4375-1.625 2.53125-3.8125 1.4375-2.875 2.34375-6.1875 2.75-10.15625.03125-.328125.265625-2.609375.265625-5.1875zm0 0"/></symbol><symbol id="e" overflow="visible"><path d="m3.640625-3.296875c.0625-.28125.3125-1.28125 1.078125-1.28125.0625 0 .3125 0 .546875.140625-.296875.046875-.515625.328125-.515625.59375 0 .171875.109375.375.40625.375.25 0 .59375-.203125.59375-.625 0-.578125-.640625-.734375-1.015625-.734375-.640625 0-1.015625.578125-1.140625.84375-.28125-.734375-.875-.84375-1.1875-.84375-1.125 0-1.75 1.421875-1.75 1.6875 0 .109375.109375.109375.125.109375.09375 0 .125-.015625.140625-.125.375-1.15625 1.09375-1.421875 1.46875-1.421875.203125 0 .59375.09375.59375.734375 0 .328125-.1875 1.0625-.59375 2.59375-.171875.671875-.5625 1.125-1.03125 1.125-.078125 0-.328125 0-.546875-.140625.265625-.046875.5-.28125.5-.578125s-.234375-.390625-.390625-.390625c-.328125 0-.609375.28125-.609375.640625 0 .5.546875.71875 1.03125.71875.71875 0 1.109375-.765625 1.140625-.828125.140625.390625.53125.828125 1.1875.828125 1.109375 0 1.734375-1.40625 1.734375-1.6875 0-.109375-.09375-.109375-.125-.109375-.09375 0-.125.046875-.140625.125-.359375 1.171875-1.109375 1.421875-1.453125 1.421875-.421875 0-.59375-.34375-.59375-.71875 0-.234375.0625-.46875.171875-.953125zm0 0"/></symbol><symbol id="f" overflow="visible"><path d="m5.296875-4.15625c.046875-.15625.046875-.171875.046875-.25 0-.203125-.15625-.296875-.3125-.296875-.109375 0-.28125.0625-.390625.234375-.015625.046875-.109375.390625-.140625.59375-.078125.28125-.15625.578125-.21875.859375l-.5 1.96875c-.046875.15625-.515625.921875-1.234375.921875-.546875 0-.671875-.46875-.671875-.875 0-.5.1875-1.1875.5625-2.140625.171875-.453125.21875-.5625.21875-.78125 0-.5-.359375-.90625-.90625-.90625-1.03125 0-1.4375 1.59375-1.4375 1.6875 0 .109375.109375.109375.140625.109375.109375 0 .109375-.015625.171875-.203125.296875-1.015625.734375-1.34375 1.09375-1.34375.09375 0 .28125 0 .28125.34375 0 .28125-.109375.5625-.1875.765625-.4375 1.15625-.640625 1.78125-.640625 2.296875 0 .96875.6875 1.296875 1.34375 1.296875.421875 0 .78125-.1875 1.09375-.5-.140625.578125-.265625 1.109375-.703125 1.6875-.28125.359375-.703125.6875-1.203125.6875-.15625 0-.640625-.03125-.828125-.46875.171875 0 .3125 0 .46875-.125.109375-.09375.21875-.234375.21875-.453125 0-.328125-.296875-.375-.40625-.375-.25 0-.609375.171875-.609375.703125 0 .546875.484375.953125 1.15625.953125 1.125 0 2.25-.984375 2.546875-2.21875zm0 0"/></symbol><symbol id="g" overflow="visible"><path d="m1.453125-.90625c.59375-.625.90625-.90625 1.296875-1.25 0 0 .671875-.578125 1.0625-.96875 1.046875-1.015625 1.28125-1.546875 1.28125-1.59375 0-.109375-.09375-.109375-.125-.109375-.078125 0-.109375.03125-.15625.125-.328125.53125-.5625.703125-.828125.703125-.25 0-.390625-.171875-.546875-.359375-.203125-.25-.390625-.46875-.75-.46875-.828125 0-1.328125 1.015625-1.328125 1.25 0 .0625.03125.125.140625.125.09375 0 .109375-.0625.140625-.125.203125-.5.828125-.515625.921875-.515625.234375 0 .4375.078125.6875.171875.4375.15625.5625.15625.84375.15625-.390625.46875-1.3125 1.25-1.515625 1.4375l-.984375.90625c-.75.734375-1.125 1.359375-1.125 1.4375 0 .109375.109375.109375.125.109375.09375 0 .109375-.03125.1875-.140625.25-.390625.578125-.6875.921875-.6875.25 0 .359375.109375.625.421875.1875.234375.390625.40625.703125.40625 1.078125 0 1.71875-1.390625 1.71875-1.6875 0-.046875-.046875-.109375-.140625-.109375s-.109375.0625-.15625.140625c-.25.71875-.9375.921875-1.296875.921875-.21875 0-.421875-.0625-.640625-.140625-.375-.140625-.546875-.1875-.765625-.1875-.03125 0-.203125 0-.296875.03125zm0 0"/></symbol><symbol id="h" overflow="visible"><path d="m4.3125-4.140625c-.171875 0-.328125 0-.46875.15625-.171875.15625-.203125.34375-.203125.421875 0 .265625.203125.375.40625.375.3125 0 .609375-.265625.609375-.6875 0-.546875-.515625-.953125-1.28125-.953125-1.484375 0-2.921875 1.5625-2.921875 3.109375 0 .984375.625 1.84375 1.765625 1.84375 1.5625 0 2.46875-1.15625 2.46875-1.296875 0-.0625-.0625-.140625-.125-.140625s-.078125.03125-.140625.109375c-.859375 1.078125-2.0625 1.078125-2.1875 1.078125-.6875 0-.984375-.53125-.984375-1.1875 0-.4375.21875-1.5.59375-2.171875.34375-.625.9375-1.09375 1.53125-1.09375.375 0 .796875.140625.9375.4375zm0 0"/></symbol><symbol id="i" overflow="visible"><path d="m4.265625-4.078125c-.3125.015625-.53125.25-.53125.484375 0 .15625.109375.328125.34375.328125s.5-.1875.5-.609375c0-.5-.46875-.953125-1.296875-.953125-1.4375 0-1.84375 1.125-1.84375 1.59375 0 .859375.8125 1.015625 1.125 1.078125.5625.109375 1.140625.234375 1.140625.84375 0 .28125-.25 1.1875-1.5625 1.1875-.15625 0-1 0-1.25-.578125.421875.0625.6875-.265625.6875-.578125 0-.25-.171875-.375-.40625-.375-.28125 0-.609375.234375-.609375.71875 0 .625.625 1.0625 1.5625 1.0625 1.765625 0 2.1875-1.328125 2.1875-1.8125 0-.390625-.203125-.671875-.328125-.796875-.296875-.3125-.609375-.359375-1.09375-.453125-.390625-.09375-.828125-.171875-.828125-.65625 0-.328125.265625-.984375 1.21875-.984375.28125 0 .8125.078125.984375.5zm0 0"/></symbol><symbol id="j" overflow="visible"><path d="m2.21875-.015625c0-.71875-.28125-1.140625-.703125-1.140625-.359375 0-.578125.265625-.578125.578125 0 .296875.21875.578125.578125.578125.125 0 .265625-.046875.375-.140625.046875-.015625.046875-.03125.0625-.03125s.015625.015625.015625.15625c0 .8125-.375 1.46875-.734375 1.828125-.125.125-.125.140625-.125.171875 0 .078125.0625.125.109375.125.125 0 1-.84375 1-2.125zm0 0"/></symbol><symbol id="k" overflow="visible"><path d="m2.5-5.078125c0-.21875-.015625-.21875-.234375-.21875-.328125.3125-.75.5-1.5.5v.265625c.21875 0 .640625 0 1.109375-.203125v4.078125c0 .296875-.03125.390625-.78125.390625h-.28125v.265625c.328125-.03125 1.015625-.03125 1.375-.03125s1.046875 0 1.375.03125v-.265625h-.28125c-.75 0-.78125-.09375-.78125-.390625zm0 0"/></symbol><symbol id="l" overflow="visible"><path d="m2.015625-2.65625c.625 0 1.03125.453125 1.03125 1.296875 0 1-.5625 1.28125-.984375 1.28125-.4375 0-1.046875-.15625-1.328125-.578125.296875 0 .5-.1875.5-.4375 0-.265625-.1875-.4375-.453125-.4375-.203125 0-.4375.125-.4375.453125 0 .75.8125 1.25 1.734375 1.25 1.046875 0 1.796875-.734375 1.796875-1.53125 0-.671875-.53125-1.265625-1.34375-1.453125.625-.21875 1.109375-.75 1.109375-1.390625s-.71875-1.09375-1.546875-1.09375c-.859375 0-1.5.453125-1.5 1.0625 0 .296875.1875.421875.40625.421875.25 0 .40625-.171875.40625-.40625 0-.296875-.265625-.40625-.4375-.40625.34375-.4375.953125-.46875 1.09375-.46875.203125 0 .8125.0625.8125.890625 0 .546875-.234375.890625-.34375 1.015625-.234375.25-.421875.265625-.90625.296875-.15625 0-.21875.015625-.21875.125s.078125.109375.21875.109375zm0 0"/></symbol><symbol id="m" overflow="visible"><path d="m2.25-1.625c.125-.125.453125-.390625.59375-.5.484375-.453125.953125-.890625.953125-1.609375 0-.953125-.796875-1.5625-1.78125-1.5625-.96875 0-1.59375.71875-1.59375 1.4375 0 .390625.3125.4375.421875.4375.171875 0 .421875-.109375.421875-.421875 0-.40625-.40625-.40625-.5-.40625.234375-.59375.765625-.78125 1.15625-.78125.734375 0 1.125.625 1.125 1.296875 0 .828125-.578125 1.4375-1.53125 2.390625l-1 1.046875c-.09375.078125-.09375.09375-.09375.296875h3.140625l.234375-1.421875h-.25c-.015625.15625-.078125.546875-.171875.703125-.046875.0625-.65625.0625-.78125.0625h-1.421875zm0 0"/></symbol><symbol id="n" overflow="visible"><path d="m3.890625-2.546875c0-.84375-.078125-1.359375-.34375-1.875-.34375-.703125-1-.875-1.4375-.875-1 0-1.375.75-1.484375.96875-.28125.578125-.296875 1.375-.296875 1.78125 0 .53125.015625 1.328125.40625 1.96875.359375.59375.953125.75 1.375.75.390625 0 1.0625-.125 1.46875-.90625.296875-.578125.3125-1.296875.3125-1.8125zm-1.78125 2.484375c-.265625 0-.8125-.125-.984375-.953125-.09375-.453125-.09375-1.203125-.09375-1.625 0-.546875 0-1.109375.09375-1.546875.171875-.8125.78125-.890625.984375-.890625.265625 0 .828125.140625.984375.859375.09375.4375.09375 1.046875.09375 1.578125 0 .46875 0 1.1875-.09375 1.640625-.171875.828125-.71875.9375-.984375.9375zm0 0"/></symbol><symbol id="o" overflow="visible"><path d="m7.5-3.5625c.15625 0 .359375 0 .359375-.21875s-.203125-.21875-.359375-.21875h-6.53125c-.15625 0-.359375 0-.359375.21875s.203125.21875.375.21875zm0 2.109375c.15625 0 .359375 0 .359375-.21875s-.203125-.21875-.359375-.21875h-6.515625c-.171875 0-.375 0-.375.21875s.203125.21875.359375.21875zm0 0"/></symbol><symbol id="p" overflow="visible"><path d="m5.015625-3.484375c0-.875-.046875-1.75-.4375-2.5625-.5-1.046875-1.390625-1.21875-1.859375-1.21875-.640625 0-1.4375.28125-1.890625 1.296875-.34375.75-.40625 1.609375-.40625 2.484375 0 .8125.046875 1.796875.5 2.625.46875.875 1.265625 1.09375 1.796875 1.09375.578125 0 1.421875-.21875 1.890625-1.265625.359375-.75.40625-1.59375.40625-2.453125zm-2.296875 3.484375c-.421875 0-1.078125-.265625-1.265625-1.3125-.125-.65625-.125-1.671875-.125-2.3125 0-.6875 0-1.40625.09375-2 .203125-1.296875 1.015625-1.40625 1.296875-1.40625.359375 0 1.078125.203125 1.28125 1.28125.109375.609375.109375 1.4375.109375 2.125 0 .828125 0 1.5625-.125 2.265625-.15625 1.03125-.78125 1.359375-1.265625 1.359375zm0 0"/></symbol><symbol id="q" overflow="visible"><path d="m3.203125-6.984375c0-.25 0-.28125-.25-.28125-.671875.703125-1.640625.703125-1.984375.703125v.328125c.21875 0 .859375 0 1.4375-.28125v5.65625c0 .390625-.046875.515625-1.015625.515625h-.359375v.34375c.390625-.03125 1.328125-.03125 1.765625-.03125s1.390625 0 1.765625.03125v-.34375h-.34375c-.984375 0-1.015625-.109375-1.015625-.515625zm0 0"/></symbol><symbol id="r" overflow="visible"><path d="m3.609375 2.625c0-.046875 0-.0625-.1875-.25-1.359375-1.375-1.703125-3.4375-1.703125-5.09375 0-1.90625.40625-3.796875 1.75-5.171875.140625-.125.140625-.140625.140625-.1875 0-.0625-.046875-.09375-.109375-.09375-.109375 0-1.09375.734375-1.734375 2.125-.5625 1.1875-.6875 2.40625-.6875 3.328125 0 .84375.125 2.15625.71875 3.390625.65625 1.34375 1.59375 2.046875 1.703125 2.046875.0625 0 .109375-.03125.109375-.09375zm0 0"/></symbol><symbol id="s" overflow="visible"><path d="m3.15625-2.71875c0-.859375-.125-2.171875-.71875-3.40625-.65625-1.34375-1.59375-2.046875-1.703125-2.046875-.0625 0-.109375.03125-.109375.09375 0 .046875 0 .0625.203125.265625 1.0625 1.078125 1.6875 2.8125 1.6875 5.09375 0 1.859375-.40625 3.78125-1.75 5.15625-.140625.125-.140625.140625-.140625.1875 0 .0625.046875.09375.109375.09375.109375 0 1.09375-.734375 1.734375-2.125.546875-1.1875.6875-2.40625.6875-3.3125zm0 0"/></symbol><symbol id="t" overflow="visible"><path d="m7.1875-2.515625c.1875 0 .375 0 .375-.203125 0-.21875-.1875-.21875-.375-.21875h-5.90625c-.1875 0-.375 0-.375.21875 0 .203125.1875.203125.375.203125zm0 0"/></symbol><symbol id="u" overflow="visible"><path d="m.65625-6.65625c-.171875 0-.453125 0-.453125.328125s.28125.328125.453125.328125h.234375v5.328125h-.234375c-.171875 0-.453125 0-.453125.34375 0 .328125.28125.328125.453125.328125h2.25c1.421875 0 2.390625-1.53125 2.390625-3.28125s-.9375-3.375-2.390625-3.375zm.984375 5.984375v-5.328125h1.046875c1.234375 0 1.84375 1.453125 1.84375 2.71875 0 1.28125-.625 2.609375-1.84375 2.609375zm0 0"/></symbol><symbol id="v" overflow="visible"><path d="m3.171875-3.5625 1.234375-2.4375h.234375c.171875 0 .453125 0 .453125-.328125s-.28125-.328125-.453125-.328125h-1.125c-.171875 0-.4375 0-.4375.3125 0 .34375.25.34375.5.34375l-.78125 1.59375-.828125-1.59375c.21875 0 .46875 0 .46875-.34375 0-.3125-.28125-.3125-.4375-.3125h-1.140625c-.15625 0-.4375 0-.4375.3125 0 .34375.28125.34375.4375.34375h.25l1.3125 2.453125-1.453125 2.875h-.234375c-.171875 0-.4375 0-.4375.34375 0 .328125.265625.328125.4375.328125h1.125c.171875 0 .453125 0 .453125-.328125 0-.34375-.265625-.34375-.515625-.34375l1-2.109375 1.078125 2.109375c-.25 0-.484375 0-.484375.34375 0 .328125.28125.328125.4375.328125h1.140625c.15625 0 .4375 0 .4375-.328125 0-.34375-.28125-.34375-.4375-.34375h-.25zm0 0"/></symbol><symbol id="w" overflow="visible"><path d="m4.84375-6h.234375c.15625 0 .421875 0 .421875-.328125s-.25-.328125-.421875-.328125h-1.140625c-.15625 0-.4375 0-.4375.3125 0 .34375.234375.34375.5.34375l-1.140625 2.578125c-.15625-.5625-1.03125-2.34375-1.140625-2.578125.25 0 .5 0 .5-.34375 0-.3125-.28125-.3125-.4375-.3125h-1.140625c-.15625 0-.4375 0-.4375.3125 0 .34375.265625.34375.4375.34375h.234375l1.609375 3.34375v1.984375h-.265625c-.171875 0-.4375 0-.4375.328125 0 .34375.265625.34375.4375.34375h1.296875c.15625 0 .4375 0 .4375-.328125 0-.34375-.265625-.34375-.4375-.34375h-.28125v-1.984375zm0 0"/></symbol><use x=".251" xlink:href="#a" y="4.23"/><use x=".251" xlink:href="#b" y="23.867"/><use x="9.796" xlink:href="#e" y="12.591"/><use x="10.044" xlink:href="#f" y="26.14"/><use x="10.137" xlink:href="#g" y="39.69"/><use x="16.031" xlink:href="#c" y="4.23"/><use x="16.031" xlink:href="#d" y="23.867"/><use x="25.577" xlink:href="#k" y="44.252"/><use x="33.339" xlink:href="#o" y="26.158"/><use x="44.854" xlink:href="#a" y="4.23"/><use x="44.854" xlink:href="#b" y="23.867"/><use x="54.596" xlink:href="#h" y="12.591"/><use x="59.317" xlink:href="#l" y="14.228"/><use x="74.208" xlink:href="#t" y="12.591"/><use x="82.693" xlink:href="#i" y="12.591"/><use x="87.807" xlink:href="#l" y="14.228"/><use x="102.502" xlink:href="#p" y="12.591"/><use x="54.4" xlink:href="#i" y="26.14"/><use x="59.513" xlink:href="#l" y="27.777"/><use x="78.647" xlink:href="#h" y="26.14"/><use x="83.368" xlink:href="#l" y="27.777"/><use x="102.502" xlink:href="#p" y="26.14"/><use x="56.595" xlink:href="#p" y="39.69"/><use x="80.649565" xlink:href="#p" y="39.69"/><use x="102.500493" xlink:href="#q" y="39.69"/><use x="107.956" xlink:href="#c" y="4.23"/><use x="107.956" xlink:href="#d" y="23.867"/><use x="119.32" xlink:href="#a" y="4.23"/><use x="119.32" xlink:href="#b" y="23.867"/><use x="128.865" xlink:href="#q" y="12.591"/><use x="150.715927" xlink:href="#p" y="12.591"/><use x="174.770493" xlink:href="#p" y="12.591"/><use x="128.865" xlink:href="#p" y="26.14"/><use x="148.721" xlink:href="#h" y="26.14"/><use x="153.442" xlink:href="#m" y="27.777"/><use x="172.576" xlink:href="#i" y="26.14"/><use x="177.69" xlink:href="#m" y="27.777"/><use x="128.865" xlink:href="#p" y="39.69"/><use x="144.283" xlink:href="#t" y="39.69"/><use x="152.767" xlink:href="#i" y="39.69"/><use x="157.881" xlink:href="#m" y="41.326"/><use x="172.772" xlink:href="#h" y="39.69"/><use x="177.493" xlink:href="#m" y="41.326"/><use x="182.422" xlink:href="#c" y="4.23"/><use x="182.422" xlink:href="#d" y="23.867"/><use x="193.786" xlink:href="#a" y="4.23"/><use x="193.786" xlink:href="#b" y="23.867"/><use x="207.77" xlink:href="#h" y="12.591"/><use x="212.491" xlink:href="#k" y="14.228"/><use x="231.625" xlink:href="#p" y="12.591"/><use x="247.042" xlink:href="#i" y="12.591"/><use x="252.155" xlink:href="#k" y="14.228"/><use x="209.769" xlink:href="#p" y="26.14"/><use x="231.619927" xlink:href="#q" y="26.14"/><use x="249.238124" xlink:href="#p" y="26.14"/><use x="203.331" xlink:href="#t" y="39.69"/><use x="211.816" xlink:href="#i" y="39.69"/><use x="216.93" xlink:href="#k" y="41.326"/><use x="231.625" xlink:href="#p" y="39.69"/><use x="247.238" xlink:href="#h" y="39.69"/><use x="251.959" xlink:href="#k" y="41.326"/><use x="256.888" xlink:href="#c" y="4.23"/><use x="256.888" xlink:href="#d" y="23.867"/><use x="268.251" xlink:href="#a" y="4.23"/><use x="268.251" xlink:href="#b" y="23.867"/><use x="277.797" xlink:href="#e" y="12.591"/><use x="286.456" xlink:href="#t" y="12.591"/><g><use x="297.365" xlink:href="#u" y="12.591"/><use x="303.092277" xlink:href="#v" y="12.591"/></g><use x="278.044" xlink:href="#f" y="26.14"/><use x="286.208" xlink:href="#t" y="26.14"/><g><use x="297.117" xlink:href="#u" y="26.14"/><use x="302.844277" xlink:href="#w" y="26.14"/></g><use x="290.531" xlink:href="#g" y="39.69"/><use x="308.819" xlink:href="#c" y="4.23"/><use x="308.819" xlink:href="#d" y="23.867"/><use x="318.365" xlink:href="#n" y="44.253"/><use x="328.552" xlink:href="#j" y="26.158"/><g><use x="396.186" xlink:href="#r" y="26.407"/><use x="400.428549" xlink:href="#q" y="26.407"/><use x="405.883099" xlink:href="#p" y="26.407"/><use x="411.337649" xlink:href="#q" y="26.407"/><use x="416.792199" xlink:href="#s" y="26.407"/></g></svg>