<svg height="431pt" viewBox="0 0 516 431" width="516pt" xmlns="http://www.w3.org/2000/svg" xmlns:xlink="http://www.w3.org/1999/xlink"><symbol id="a" overflow="visible"><path d="m7.265625-7.390625h-6.671875l-.203125 2.46875h.28125c.140625-1.765625.3125-2.125 1.953125-2.125.203125 0 .484375 0 .59375.015625.234375.046875.234375.171875.234375.421875v5.75c0 .375 0 .515625-1.15625.515625h-.4375v.34375c.453125-.03125 1.5625-.03125 2.0625-.03125s1.625 0 2.078125.03125v-.34375h-.4375c-1.140625 0-1.140625-.140625-1.140625-.515625v-5.75c0-.21875 0-.375.1875-.421875.125-.015625.421875-.015625.625-.015625 1.640625 0 1.8125.359375 1.96875 2.125h.265625zm0 0"/></symbol><symbol id="b" overflow="visible"><path d="m1.203125-.828125c0 .484375-.125.484375-.859375.484375v.34375c.390625-.015625.9375-.03125 1.234375-.03125.28125 0 .859375.015625 1.21875.03125v-.34375c-.71875 0-.84375 0-.84375-.484375v-2c0-1.140625.765625-1.75 1.46875-1.75.6875 0 .8125.59375.8125 1.203125v2.546875c0 .484375-.125.484375-.859375.484375v.34375c.390625-.015625.9375-.03125 1.234375-.03125.28125 0 .859375.015625 1.21875.03125v-.34375c-.5625 0-.828125 0-.84375-.328125v-2.078125c0-.9375 0-1.28125-.34375-1.671875-.140625-.1875-.5-.40625-1.140625-.40625-.921875 0-1.390625.65625-1.578125 1.078125v-3.8125l-1.578125.109375v.34375c.765625 0 .859375.078125.859375.609375zm0 0"/></symbol><symbol id="c" overflow="visible"><path d="m1.21875-2.75c.0625-1.625.984375-1.890625 1.359375-1.890625 1.125 0 1.234375 1.46875 1.234375 1.890625zm-.015625.234375h3.046875c.25 0 .28125 0 .28125-.234375 0-1.078125-.59375-2.140625-1.953125-2.140625-1.265625 0-2.265625 1.125-2.265625 2.484375 0 1.46875 1.140625 2.53125 2.390625 2.53125 1.328125 0 1.828125-1.21875 1.828125-1.421875 0-.109375-.09375-.125-.140625-.125-.109375 0-.125.0625-.140625.140625-.390625 1.125-1.375 1.125-1.484375 1.125-.546875 0-.984375-.328125-1.234375-.734375-.328125-.515625-.328125-1.234375-.328125-1.625zm0 0"/></symbol><symbol id="d" overflow="visible"><path d="m1.890625-4.359375h1.5625v-.34375h-1.5625v-2h-.28125c0 .890625-.328125 2.0625-1.40625 2.09375v.25h.9375v3c0 1.34375 1.015625 1.484375 1.40625 1.484375.765625 0 1.078125-.78125 1.078125-1.484375v-.609375h-.28125v.59375c0 .8125-.328125 1.21875-.71875 1.21875-.734375 0-.734375-.984375-.734375-1.171875zm0 0"/></symbol><symbol id="e" overflow="visible"><path d="m1.828125-3.625v-1.203125l-1.515625.125v.34375c.75 0 .84375.078125.84375.609375v2.921875c0 .484375-.125.484375-.84375.484375v.34375c.421875-.015625.9375-.03125 1.234375-.03125.4375 0 .953125 0 1.390625.03125v-.34375h-.234375c-.8125 0-.828125-.109375-.828125-.5v-1.6875c0-1.078125.453125-2.046875 1.28125-2.046875.078125 0 .109375 0 .125.015625-.03125 0-.25.140625-.25.421875 0 .296875.234375.46875.46875.46875.203125 0 .46875-.140625.46875-.484375s-.34375-.671875-.8125-.671875c-.796875 0-1.1875.734375-1.328125 1.203125zm0 0"/></symbol><symbol id="f" overflow="visible"><path d="m3.625-.828125c.046875.4375.34375.890625.859375.890625.234375 0 .890625-.15625.890625-1.03125v-.609375h-.265625v.609375c0 .625-.28125.703125-.390625.703125-.359375 0-.40625-.5-.40625-.546875v-2.1875c0-.453125 0-.875-.390625-1.28125-.4375-.4375-.984375-.609375-1.5-.609375-.890625 0-1.640625.515625-1.640625 1.234375 0 .328125.21875.515625.5.515625.296875 0 .5-.21875.5-.5 0-.140625-.0625-.5-.5625-.5.296875-.390625.828125-.5 1.1875-.5.53125 0 1.15625.421875 1.15625 1.390625v.40625c-.5625.03125-1.328125.0625-2.015625.390625-.8125.375-1.09375.9375-1.09375 1.421875 0 .875 1.0625 1.15625 1.75 1.15625.71875 0 1.21875-.4375 1.421875-.953125zm-.0625-1.796875v1.09375c0 1.046875-.796875 1.40625-1.28125 1.40625-.53125 0-.984375-.375-.984375-.921875 0-.59375.453125-1.5 2.265625-1.578125zm0 0"/></symbol><symbol id="g" overflow="visible"><path d="m1.203125-3.75v2.921875c0 .484375-.125.484375-.859375.484375v.34375c.390625-.015625.9375-.03125 1.234375-.03125.28125 0 .859375.015625 1.21875.03125v-.34375c-.71875 0-.84375 0-.84375-.484375v-2c0-1.140625.765625-1.75 1.46875-1.75.6875 0 .8125.59375.8125 1.203125v2.546875c0 .484375-.125.484375-.859375.484375v.34375c.390625-.015625.9375-.03125 1.234375-.03125.28125 0 .859375.015625 1.21875.03125v-.34375c-.5625 0-.828125 0-.84375-.328125v-2.078125c0-.9375 0-1.28125-.34375-1.671875-.140625-.1875-.5-.40625-1.140625-.40625-.796875 0-1.3125.46875-1.609375 1.15625v-1.15625l-1.546875.125v.34375c.765625 0 .859375.078125.859375.609375zm0 0"/></symbol><symbol id="h" overflow="visible"><path d="m2.265625-2.109375c.25.03125 1.140625.21875 1.140625 1 0 .546875-.390625.984375-1.234375.984375-.921875 0-1.3125-.609375-1.515625-1.546875-.03125-.140625-.046875-.1875-.15625-.1875-.140625 0-.140625.078125-.140625.28125v1.4375c0 .1875 0 .265625.125.265625.046875 0 .0625-.015625.265625-.21875.03125-.03125.03125-.046875.21875-.25.484375.453125.96875.46875 1.203125.46875 1.25 0 1.75-.734375 1.75-1.515625 0-.578125-.328125-.90625-.453125-1.046875-.359375-.34375-.78125-.4375-1.25-.515625-.609375-.125-1.328125-.265625-1.328125-.890625 0-.390625.28125-.828125 1.21875-.828125 1.1875 0 1.25.96875 1.265625 1.3125.015625.09375.109375.09375.140625.09375.140625 0 .140625-.046875.140625-.25v-1.109375c0-.1875 0-.265625-.125-.265625-.046875 0-.078125 0-.21875.140625-.03125.03125-.140625.140625-.1875.171875-.40625-.3125-.859375-.3125-1.015625-.3125-1.328125 0-1.75.734375-1.75 1.34375 0 .390625.171875.6875.46875.921875.34375.296875.65625.359375 1.4375.515625zm0 0"/></symbol><symbol id="i" overflow="visible"><path d="m1.90625-4.703125v-1.265625c0-.953125.53125-1.484375 1-1.484375.03125 0 .203125 0 .359375.078125-.125.046875-.328125.1875-.328125.453125s.1875.46875.46875.46875c.328125 0 .484375-.203125.484375-.46875 0-.40625-.40625-.765625-.984375-.765625-.75 0-1.6875.578125-1.6875 1.734375v1.25h-.859375v.34375h.859375v3.53125c0 .484375-.125.484375-.84375.484375v.34375c.421875-.015625.9375-.03125 1.234375-.03125.4375 0 .953125 0 1.390625.03125v-.34375h-.234375c-.796875 0-.828125-.109375-.828125-.5v-3.515625h1.25v-.34375zm0 0"/></symbol><symbol id="j" overflow="visible"><path d="m5.140625-2.328125c0-1.40625-1.09375-2.5625-2.421875-2.5625-1.359375 0-2.40625 1.1875-2.40625 2.5625 0 1.40625 1.125 2.453125 2.40625 2.453125 1.3125 0 2.421875-1.078125 2.421875-2.453125zm-2.421875 2.171875c-.46875 0-.9375-.21875-1.234375-.734375-.28125-.46875-.28125-1.140625-.28125-1.53125 0-.421875 0-1.015625.265625-1.5.296875-.5.8125-.71875 1.25-.71875.484375 0 .953125.234375 1.234375.703125s.28125 1.109375.28125 1.515625c0 .390625 0 .984375-.25 1.46875-.234375.484375-.71875.796875-1.265625.796875zm0 0"/></symbol><symbol id="k" overflow="visible"><path d="m1.203125-3.75v2.921875c0 .484375-.125.484375-.859375.484375v.34375c.390625-.015625.9375-.03125 1.234375-.03125.28125 0 .859375.015625 1.21875.03125v-.34375c-.71875 0-.84375 0-.84375-.484375v-2c0-1.140625.765625-1.75 1.46875-1.75.6875 0 .8125.59375.8125 1.203125v2.546875c0 .484375-.125.484375-.859375.484375v.34375c.390625-.015625.9375-.03125 1.234375-.03125.28125 0 .859375.015625 1.21875.03125v-.34375c-.71875 0-.84375 0-.84375-.484375v-2c0-1.140625.78125-1.75 1.46875-1.75s.8125.59375.8125 1.203125v2.546875c0 .484375-.125.484375-.859375.484375v.34375c.390625-.015625.9375-.03125 1.234375-.03125.28125 0 .859375.015625 1.21875.03125v-.34375c-.5625 0-.828125 0-.84375-.328125v-2.078125c0-.9375 0-1.28125-.34375-1.671875-.140625-.1875-.5-.40625-1.140625-.40625-.921875 0-1.390625.65625-1.578125 1.078125-.15625-.953125-.96875-1.078125-1.453125-1.078125-.796875 0-1.3125.46875-1.609375 1.15625v-1.15625l-1.546875.125v.34375c.765625 0 .859375.078125.859375.609375zm0 0"/></symbol><symbol id="l" overflow="visible"><path d="m1.9375-4.828125-1.53125.125v.34375c.703125 0 .796875.0625.796875.59375v2.9375c0 .484375-.109375.484375-.84375.484375v.34375c.34375-.015625.9375-.03125 1.203125-.03125.375 0 .765625.015625 1.125.03125v-.34375c-.71875 0-.75-.046875-.75-.46875zm.03125-1.890625c0-.34375-.265625-.578125-.578125-.578125-.328125 0-.578125.296875-.578125.578125 0 .296875.25.578125.578125.578125.3125 0 .578125-.234375.578125-.578125zm0 0"/></symbol><symbol id="m" overflow="visible"><path d="m1.28125-2.375c0-1.78125.890625-2.234375 1.46875-2.234375.09375 0 .78125 0 1.171875.40625-.453125.03125-.515625.359375-.515625.5 0 .28125.1875.5.5.5.28125 0 .5-.1875.5-.515625 0-.734375-.828125-1.171875-1.671875-1.171875-1.359375 0-2.359375 1.1875-2.359375 2.53125 0 1.40625 1.078125 2.484375 2.34375 2.484375 1.453125 0 1.8125-1.3125 1.8125-1.421875s-.109375-.109375-.140625-.109375c-.109375 0-.125.046875-.140625.109375-.328125 1.015625-1.03125 1.140625-1.4375 1.140625-.578125 0-1.53125-.46875-1.53125-2.21875zm0 0"/></symbol><symbol id="n" overflow="visible"><path d="m7.5-3.5625c.15625 0 .359375 0 .359375-.21875s-.203125-.21875-.359375-.21875h-6.53125c-.15625 0-.359375 0-.359375.21875s.203125.21875.375.21875zm0 2.109375c.15625 0 .359375 0 .359375-.21875s-.203125-.21875-.359375-.21875h-6.515625c-.171875 0-.375 0-.375.21875s.203125.21875.359375.21875zm0 0"/></symbol><symbol id="o" overflow="visible"><path d="m3.203125-6.984375c0-.25 0-.28125-.25-.28125-.671875.703125-1.640625.703125-1.984375.703125v.328125c.21875 0 .859375 0 1.4375-.28125v5.65625c0 .390625-.046875.515625-1.015625.515625h-.359375v.34375c.390625-.03125 1.328125-.03125 1.765625-.03125s1.390625 0 1.765625.03125v-.34375h-.34375c-.984375 0-1.015625-.109375-1.015625-.515625zm0 0"/></symbol><symbol id="p" overflow="visible"><path d="m5.015625-3.484375c0-.875-.046875-1.75-.4375-2.5625-.5-1.046875-1.390625-1.21875-1.859375-1.21875-.640625 0-1.4375.28125-1.890625 1.296875-.34375.75-.40625 1.609375-.40625 2.484375 0 .8125.046875 1.796875.5 2.625.46875.875 1.265625 1.09375 1.796875 1.09375.578125 0 1.421875-.21875 1.890625-1.265625.359375-.75.40625-1.59375.40625-2.453125zm-2.296875 3.484375c-.421875 0-1.078125-.265625-1.265625-1.3125-.125-.65625-.125-1.671875-.125-2.3125 0-.6875 0-1.40625.09375-2 .203125-1.296875 1.015625-1.40625 1.296875-1.40625.359375 0 1.078125.203125 1.28125 1.28125.109375.609375.109375 1.4375.109375 2.125 0 .828125 0 1.5625-.125 2.265625-.15625 1.03125-.78125 1.359375-1.265625 1.359375zm0 0"/></symbol><symbol id="q" overflow="visible"><path d="m2.09375-4.125c0-.3125-.265625-.578125-.578125-.578125s-.578125.265625-.578125.578125.265625.578125.578125.578125.578125-.265625.578125-.578125zm0 3.546875c0-.3125-.265625-.578125-.578125-.578125s-.578125.265625-.578125.578125.265625.578125.578125.578125.578125-.265625.578125-.578125zm0 0"/></symbol><symbol id="r" overflow="visible"><path d="m3.609375 2.625c0-.046875 0-.0625-.1875-.25-1.359375-1.375-1.703125-3.4375-1.703125-5.09375 0-1.90625.40625-3.796875 1.75-5.171875.140625-.125.140625-.140625.140625-.1875 0-.0625-.046875-.09375-.109375-.09375-.109375 0-1.09375.734375-1.734375 2.125-.5625 1.1875-.6875 2.40625-.6875 3.328125 0 .84375.125 2.15625.71875 3.390625.65625 1.34375 1.59375 2.046875 1.703125 2.046875.0625 0 .109375-.03125.109375-.09375zm0 0"/></symbol><symbol id="s" overflow="visible"><path d="m3.15625-2.71875c0-.859375-.125-2.171875-.71875-3.40625-.65625-1.34375-1.59375-2.046875-1.703125-2.046875-.0625 0-.109375.03125-.109375.09375 0 .046875 0 .0625.203125.265625 1.0625 1.078125 1.6875 2.8125 1.6875 5.09375 0 1.859375-.40625 3.78125-1.75 5.15625-.140625.125-.140625.140625-.140625.1875 0 .0625.046875.09375.109375.09375.109375 0 1.09375-.734375 1.734375-2.125.546875-1.1875.6875-2.40625.6875-3.3125zm0 0"/></symbol><symbol id="t" overflow="visible"><path d="m4.453125-2.515625h3.046875c.15625 0 .359375 0 .359375-.203125 0-.21875-.203125-.21875-.359375-.21875h-3.046875v-3.0625c0-.15625 0-.359375-.203125-.359375-.21875 0-.21875.203125-.21875.359375v3.0625h-3.0625c-.15625 0-.359375 0-.359375.21875 0 .203125.203125.203125.359375.203125h3.0625v3.0625c0 .15625 0 .359375.21875.359375.203125 0 .203125-.203125.203125-.359375zm0 0"/></symbol><symbol id="u" overflow="visible"><path d="m1.390625-.84375 1.15625-1.125c1.703125-1.5 2.34375-2.09375 2.34375-3.171875 0-1.25-.96875-2.125-2.3125-2.125-1.21875 0-2.03125 1-2.03125 1.96875 0 .625.546875.625.578125.625.1875 0 .5625-.140625.5625-.578125 0-.296875-.1875-.578125-.578125-.578125-.078125 0-.109375 0-.140625.015625.25-.703125.84375-1.109375 1.46875-1.109375 1 0 1.46875.875 1.46875 1.78125 0 .859375-.546875 1.734375-1.140625 2.40625l-2.09375 2.328125c-.125.125-.125.140625-.125.40625h4.046875l.296875-1.890625h-.265625c-.0625.3125-.125.796875-.234375.96875-.078125.078125-.796875.078125-1.046875.078125zm0 0"/></symbol><symbol id="v" overflow="visible"><path d="m3.203125-1.796875v.953125c0 .390625-.015625.5-.828125.5h-.21875v.34375c.4375-.03125 1-.03125 1.46875-.03125.453125 0 1.03125 0 1.484375.03125v-.34375h-.234375c-.8125 0-.828125-.109375-.828125-.5v-.953125h1.09375v-.34375h-1.09375v-4.953125c0-.21875 0-.296875-.171875-.296875-.09375 0-.140625 0-.21875.140625l-3.34375 5.109375v.34375zm.0625-.34375h-2.65625l2.65625-4.0625zm0 0"/></symbol><symbol id="w" overflow="visible"><path d="m5.1875-6.640625c.109375-.125.109375-.15625.109375-.390625h-2.65625c-1.328125 0-1.359375-.140625-1.390625-.34375h-.28125l-.359375 2.25h.28125c.03125-.171875.125-.859375.265625-1 .078125-.0625.921875-.0625 1.0625-.0625h2.265625c-.125.171875-.984375 1.359375-1.21875 1.734375-.984375 1.46875-1.34375 2.984375-1.34375 4.09375 0 .109375 0 .59375.5.59375s.5-.484375.5-.59375v-.5625c0-.59375.03125-1.1875.125-1.78125.046875-.25.1875-1.1875.671875-1.859375zm0 0"/></symbol><symbol id="x" overflow="visible"><path d="m1.78125-4.984375c-.5-.328125-.546875-.703125-.546875-.890625 0-.65625.703125-1.109375 1.484375-1.109375.796875 0 1.484375.5625 1.484375 1.34375 0 .625-.421875 1.140625-1.078125 1.53125zm1.59375 1.03125c.78125-.40625 1.3125-.96875 1.3125-1.6875 0-1-.96875-1.625-1.96875-1.625-1.078125 0-1.96875.8125-1.96875 1.828125 0 .1875.03125.6875.484375 1.1875.125.140625.515625.40625.796875.59375-.640625.3125-1.578125.9375-1.578125 2.015625 0 1.15625 1.125 1.875 2.265625 1.875 1.234375 0 2.265625-.90625 2.265625-2.0625 0-.390625-.125-.890625-.53125-1.34375-.203125-.234375-.390625-.34375-1.078125-.78125zm-1.09375.46875 1.34375.84375c.296875.203125.8125.53125.8125 1.203125 0 .8125-.8125 1.375-1.71875 1.375-.9375 0-1.71875-.671875-1.71875-1.578125 0-.640625.359375-1.34375 1.28125-1.84375zm0 0"/></symbol><symbol id="y" overflow="visible"><path d="m4-3.46875v.34375c0 2.5625-1.125 3.0625-1.765625 3.0625-.1875 0-.765625-.03125-1.0625-.390625.46875 0 .5625-.328125.5625-.5 0-.34375-.265625-.515625-.5-.515625-.171875 0-.5.109375-.5.53125 0 .734375.578125 1.171875 1.515625 1.171875 1.40625 0 2.734375-1.484375 2.734375-3.828125 0-2.921875-1.25-3.671875-2.21875-3.671875-.609375 0-1.140625.203125-1.609375.6875-.453125.5-.703125.953125-.703125 1.765625 0 1.359375.96875 2.4375 2.1875 2.4375.65625 0 1.109375-.453125 1.359375-1.09375zm-1.34375.84375c-.1875 0-.6875 0-1.015625-.6875-.203125-.40625-.203125-.953125-.203125-1.484375 0-.59375 0-1.109375.234375-1.5.296875-.546875.703125-.6875 1.09375-.6875.5 0 .859375.359375 1.046875.859375.125.34375.171875 1.03125.171875 1.53125 0 .90625-.375 1.96875-1.328125 1.96875zm0 0"/></symbol><symbol id="z" overflow="visible"><path d="m4.890625-2.1875c0-1.296875-.890625-2.390625-2.0625-2.390625-.53125 0-1 .171875-1.390625.546875v-2.125c.21875.078125.578125.140625.921875.140625 1.34375 0 2.109375-.984375 2.109375-1.125 0-.0625-.03125-.125-.109375-.125 0 0-.03125 0-.078125.03125-.21875.109375-.765625.3125-1.484375.3125-.4375 0-.9375-.0625-1.453125-.296875-.09375-.03125-.109375-.03125-.140625-.03125-.109375 0-.109375.078125-.109375.265625v3.21875c0 .203125 0 .28125.15625.28125.078125 0 .109375-.03125.140625-.09375.125-.171875.53125-.765625 1.40625-.765625.578125 0 .84375.5.9375.703125.171875.40625.1875.828125.1875 1.375 0 .375 0 1.03125-.25 1.484375-.265625.4375-.671875.71875-1.171875.71875-.796875 0-1.421875-.578125-1.609375-1.21875.03125 0 .0625.015625.1875.015625.359375 0 .546875-.265625.546875-.53125s-.1875-.53125-.546875-.53125c-.15625 0-.53125.078125-.53125.578125 0 .9375.75 1.984375 1.96875 1.984375 1.265625 0 2.375-1.046875 2.375-2.421875zm0 0"/></symbol><symbol id="A" overflow="visible"><path d="m6.75-3.671875c.203125-.53125.53125-.6875.921875-.6875v-.34375c-.25.03125-.5625.03125-.796875.03125-.328125 0-.8125-.015625-1.015625-.03125v.34375c.390625 0 .625.203125.625.515625 0 .0625 0 .09375-.046875.234375l-1 2.796875-1.078125-3.046875c-.046875-.125-.046875-.15625-.046875-.203125 0-.296875.421875-.296875.640625-.296875v-.34375c-.3125.015625-.875.03125-1.140625.03125-.328125 0-.640625 0-.96875-.03125v.34375c.40625 0 .578125.015625.6875.15625.0625.0625.171875.390625.25.609375l-.9375 2.640625-1.03125-2.921875c-.0625-.125-.0625-.15625-.0625-.1875 0-.296875.4375-.296875.65625-.296875v-.34375c-.328125.015625-.9375.03125-1.203125.03125-.03125 0-.609375 0-1-.03125v.34375c.53125 0 .671875.03125.796875.375l1.375 3.859375c.0625.15625.09375.25.234375.25s.15625-.078125.21875-.21875l1.09375-3.09375 1.109375 3.09375c.046875.125.078125.21875.21875.21875.15625 0 .1875-.109375.21875-.21875zm0 0"/></symbol><symbol id="B" overflow="visible"><path d="m3.15625-3.84375c.90625-.296875 1.53125-1.046875 1.53125-1.921875 0-.890625-.953125-1.5-2-1.5-1.109375 0-1.9375.65625-1.9375 1.484375 0 .359375.25.5625.5625.5625.328125 0 .546875-.234375.546875-.546875 0-.546875-.5-.546875-.671875-.546875.34375-.53125 1.0625-.671875 1.453125-.671875.453125 0 1.046875.234375 1.046875 1.21875 0 .125-.015625.765625-.3125 1.234375-.328125.53125-.6875.5625-.96875.578125-.078125 0-.34375.03125-.421875.03125-.09375 0-.15625.015625-.15625.125 0 .125.0625.125.25.125h.484375c.890625 0 1.296875.734375 1.296875 1.8125 0 1.484375-.75 1.796875-1.234375 1.796875-.46875 0-1.28125-.1875-1.671875-.828125.390625.046875.71875-.1875.71875-.609375 0-.390625-.28125-.609375-.609375-.609375-.25 0-.609375.15625-.609375.640625 0 .984375 1.015625 1.703125 2.203125 1.703125 1.328125 0 2.328125-.984375 2.328125-2.09375 0-.90625-.6875-1.75-1.828125-1.984375zm0 0"/></symbol><symbol id="C" overflow="visible"><path d="m1.4375-3.578125v-.265625c0-2.75 1.359375-3.140625 1.90625-3.140625.265625 0 .71875.0625.96875.4375-.171875 0-.609375 0-.609375.484375 0 .34375.265625.5.5.5.1875 0 .515625-.09375.515625-.515625 0-.65625-.484375-1.1875-1.390625-1.1875-1.390625 0-2.875 1.40625-2.875 3.8125 0 2.921875 1.265625 3.6875 2.28125 3.6875 1.21875 0 2.25-1.015625 2.25-2.453125 0-1.390625-.96875-2.4375-2.1875-2.4375-.734375 0-1.140625.5625-1.359375 1.078125zm1.296875 3.515625c-.6875 0-1.015625-.65625-1.078125-.828125-.1875-.5-.1875-1.375-.1875-1.578125 0-.84375.34375-1.9375 1.328125-1.9375.171875 0 .671875 0 1.015625.671875.1875.40625.1875.96875.1875 1.5 0 .515625 0 1.0625-.1875 1.453125-.328125.65625-.828125.71875-1.078125.71875zm0 0"/></symbol><symbol id="D" overflow="visible"><path d="m1.9375-7.5625-1.578125.109375v.34375c.765625 0 .84375.078125.84375.609375v5.671875c0 .484375-.109375.484375-.84375.484375v.34375c.359375-.015625.9375-.03125 1.21875-.03125.265625 0 .796875.015625 1.203125.03125v-.34375c-.734375 0-.84375 0-.84375-.484375zm0 0"/></symbol><symbol id="E" overflow="visible"><path d="m2.421875-1.875c-.953125 0-.953125-1.09375-.953125-1.34375 0-.296875.015625-.640625.171875-.921875.09375-.125.34375-.421875.78125-.421875.953125 0 .953125 1.078125.953125 1.328125 0 .296875-.015625.65625-.171875.921875-.09375.125-.34375.4375-.78125.4375zm-1.265625.421875c0-.046875 0-.296875.1875-.515625.421875.3125.875.34375 1.078125.34375 1.015625 0 1.765625-.75 1.765625-1.59375 0-.40625-.171875-.8125-.453125-1.0625.40625-.359375.796875-.421875.984375-.421875.03125 0 .078125 0 .109375.015625-.109375.046875-.171875.15625-.171875.296875 0 .1875.140625.3125.3125.3125.109375 0 .328125-.078125.328125-.328125 0-.1875-.140625-.53125-.5625-.53125-.21875 0-.703125.0625-1.15625.515625-.453125-.359375-.921875-.40625-1.15625-.40625-1.015625 0-1.765625.765625-1.765625 1.59375 0 .484375.234375.90625.515625 1.125-.140625.171875-.34375.53125-.34375.90625 0 .34375.140625.75.484375.96875-.65625.1875-1 .65625-1 1.09375 0 .78125 1.078125 1.390625 2.40625 1.390625 1.28125 0 2.421875-.5625 2.421875-1.40625 0-.390625-.15625-.9375-.71875-1.25-.578125-.296875-1.203125-.296875-1.875-.296875-.265625 0-.734375 0-.8125-.015625-.34375-.046875-.578125-.375-.578125-.734375zm1.5625 3.453125c-1.09375 0-1.84375-.5625-1.84375-1.140625 0-.5.40625-.90625.890625-.9375h.640625c.9375 0 2.15625 0 2.15625.9375 0 .59375-.765625 1.140625-1.84375 1.140625zm0 0"/></symbol><symbol id="F" overflow="visible"><path d="m4.265625-.859375v.984375l1.5625-.125v-.34375c-.75 0-.84375-.078125-.84375-.609375v-3.875l-1.609375.125v.34375c.765625 0 .859375.078125.859375.609375v1.9375c0 .953125-.53125 1.6875-1.328125 1.6875-.90625 0-.953125-.5-.953125-1.078125v-3.625l-1.609375.125v.34375c.859375 0 .859375.03125.859375 1v1.640625c0 .84375 0 1.84375 1.65625 1.84375.609375 0 1.09375-.3125 1.40625-.984375zm0 0"/></symbol><symbol id="G" overflow="visible"><path d="m4.140625-.59375v.71875l1.609375-.125v-.34375c-.765625 0-.859375-.078125-.859375-.609375v-6.609375l-1.5625.109375v.34375c.765625 0 .84375.078125.84375.609375v2.359375c-.3125-.390625-.78125-.6875-1.375-.6875-1.28125 0-2.421875 1.078125-2.421875 2.484375 0 1.390625 1.0625 2.46875 2.3125 2.46875.6875 0 1.1875-.375 1.453125-.71875zm0-2.921875v2.234375c0 .1875 0 .21875-.109375.390625-.328125.53125-.828125.765625-1.296875.765625-.484375 0-.875-.28125-1.140625-.6875-.28125-.453125-.3125-1.078125-.3125-1.515625 0-.40625.015625-1.0625.328125-1.546875.234375-.34375.640625-.703125 1.234375-.703125.390625 0 .84375.15625 1.1875.65625.109375.1875.109375.203125.109375.40625zm0 0"/></symbol><symbol id="H" overflow="visible"><path d="m6.734375-7.546875c-.046875-.21875-.0625-.265625-.25-.265625-.109375 0-.1875 0-.34375.203125l-5.515625 7.390625c-.09375.109375-.09375.125-.09375.15625 0 .046875.015625.0625.25.0625h7.515625c.1875 0 .28125 0 .28125-.109375 0-.046875 0-.109375-.015625-.15625zm-.828125.765625 1.5 6h-5.984375zm0 0"/></symbol><symbol id="I" overflow="visible"><path d="m8.328125-6.609375c.09375-.390625.109375-.5.90625-.5.28125 0 .375 0 .375-.21875 0-.125-.125-.125-.15625-.125-.296875 0-1.09375.03125-1.390625.03125-.3125 0-1.09375-.03125-1.40625-.03125-.09375 0-.203125 0-.203125.21875 0 .125.09375.125.296875.125.015625 0 .234375 0 .421875.015625.1875.03125.28125.03125.28125.171875 0 .046875 0 .078125-.03125.21875l-.65625 2.65625h-3.328125l.640625-2.5625c.09375-.390625.125-.5.921875-.5.28125 0 .359375 0 .359375-.21875 0-.125-.109375-.125-.140625-.125-.3125 0-1.09375.03125-1.40625.03125s-1.09375-.03125-1.40625-.03125c-.078125 0-.203125 0-.203125.21875 0 .125.09375.125.3125.125.015625 0 .21875 0 .40625.015625.203125.03125.296875.03125.296875.171875 0 .046875-.015625.078125-.046875.21875l-1.453125 5.859375c-.109375.421875-.140625.5-1 .5-.1875 0-.296875 0-.296875.21875 0 .125.140625.125.15625.125.3125 0 1.078125-.03125 1.390625-.03125.21875 0 .46875.015625.6875.015625.25 0 .484375.015625.71875.015625.078125 0 .21875 0 .21875-.21875 0-.125-.109375-.125-.3125-.125-.40625 0-.703125 0-.703125-.1875 0-.0625.015625-.125.03125-.1875l.734375-2.984375h3.328125c-.453125 1.8125-.703125 2.84375-.75 3-.109375.359375-.3125.359375-1 .359375-.15625 0-.25 0-.25.21875 0 .125.125.125.15625.125.296875 0 1.078125-.03125 1.375-.03125.234375 0 .46875.015625.703125.015625s.484375.015625.703125.015625c.09375 0 .21875 0 .21875-.21875 0-.125-.09375-.125-.296875-.125-.40625 0-.71875 0-.71875-.1875 0-.0625.03125-.125.03125-.1875zm0 0"/></symbol><symbol id="J" overflow="visible"><path d="m4.78125-7.765625c.0625-.140625.0625-.1875.0625-.203125 0-.109375-.09375-.203125-.21875-.203125-.078125 0-.15625.03125-.1875.09375l-3.78125 10.390625c-.0625.140625-.0625.1875-.0625.203125 0 .109375.109375.203125.21875.203125.140625 0 .1875-.0625.25-.25zm0 0"/></symbol><symbol id="K" overflow="visible"><path d="m.359375 1.890625c-.03125.125-.03125.15625-.03125.171875 0 .15625.125.296875.296875.296875.234375 0 .375-.203125.390625-.234375.046875-.09375.40625-1.5625.703125-2.734375.21875.4375.5625.734375 1.078125.734375 1.265625 0 2.671875-1.546875 2.671875-3.171875 0-1.15625-.71875-1.78125-1.515625-1.78125-1.046875 0-2.203125 1.09375-2.53125 2.421875zm2.421875-2.015625c-.765625 0-.9375-.875-.9375-.96875 0-.046875.046875-.265625.09375-.40625.296875-1.21875.40625-1.609375.640625-2.046875.46875-.796875 1.015625-1.03125 1.359375-1.03125.40625 0 .75.3125.75 1.0625 0 .609375-.3125 1.828125-.609375 2.359375-.359375.6875-.875 1.03125-1.296875 1.03125zm0 0"/></symbol><symbol id="L" overflow="visible"><path d="m.484375 1.328125c-.078125.375-.109375.453125-.578125.453125-.140625 0-.25 0-.25.203125 0 .09375.046875.125.140625.125.296875 0 .609375-.03125.90625-.03125.359375 0 .734375.03125 1.078125.03125.0625 0 .203125 0 .203125-.21875 0-.109375-.109375-.109375-.265625-.109375-.546875 0-.546875-.078125-.546875-.171875 0-.140625.46875-1.921875.546875-2.1875.140625.3125.4375.703125 1 .703125 1.265625 0 2.625-1.59375 2.625-3.203125 0-1.015625-.625-1.75-1.453125-1.75-.546875 0-1.0625.40625-1.421875.828125-.109375-.59375-.578125-.828125-.984375-.828125-.5 0-.703125.4375-.8125.625-.1875.375-.328125 1.03125-.328125 1.0625 0 .109375.109375.109375.125.109375.109375 0 .125-.015625.1875-.25.1875-.78125.40625-1.296875.796875-1.296875.1875 0 .328125.078125.328125.5 0 .25-.03125.375-.0625.5625zm1.921875-4.734375c.078125-.296875.375-.59375.578125-.765625.375-.328125.6875-.40625.875-.40625.4375 0 .703125.375.703125 1.015625 0 .65625-.359375 1.90625-.5625 2.3125-.375.765625-.890625 1.125-1.296875 1.125-.71875 0-.859375-.90625-.859375-.96875 0-.015625 0-.046875.03125-.171875zm0 0"/></symbol><symbol id="M" overflow="visible"><path d="m4.0625-4.125c-.1875-.40625-.5-.703125-1-.703125-1.28125 0-2.625 1.609375-2.625 3.203125 0 1.03125.59375 1.75 1.453125 1.75.21875 0 .765625-.046875 1.40625-.828125.09375.46875.484375.828125 1 .828125.375 0 .625-.25.8125-.609375.1875-.390625.328125-1.046875.328125-1.078125 0-.109375-.109375-.109375-.140625-.109375-.109375 0-.109375.046875-.15625.203125-.171875.703125-.375 1.34375-.828125 1.34375-.28125 0-.328125-.28125-.328125-.5 0-.234375.03125-.328125.15625-.796875.109375-.46875.140625-.578125.234375-.984375l.390625-1.53125c.078125-.3125.078125-.328125.078125-.375 0-.1875-.125-.296875-.3125-.296875-.265625 0-.4375.25-.46875.484375zm-.703125 2.828125c-.0625.203125-.0625.21875-.21875.40625-.484375.59375-.921875.765625-1.234375.765625-.546875 0-.703125-.59375-.703125-1.015625 0-.546875.359375-1.890625.609375-2.390625.34375-.640625.828125-1.046875 1.265625-1.046875.703125 0 .859375.890625.859375.953125s-.015625.140625-.03125.1875zm0 0"/></symbol><symbol id="N" overflow="visible"><path d="m2.21875-.015625c0-.71875-.28125-1.140625-.703125-1.140625-.359375 0-.578125.265625-.578125.578125 0 .296875.21875.578125.578125.578125.125 0 .265625-.046875.375-.140625.046875-.015625.046875-.03125.0625-.03125s.015625.015625.015625.15625c0 .8125-.375 1.46875-.734375 1.828125-.125.125-.125.140625-.125.171875 0 .078125.0625.125.109375.125.125 0 1-.84375 1-2.125zm0 0"/></symbol><symbol id="O" overflow="visible"><path d="m1.75-.84375c-.109375.421875-.140625.5-1 .5-.1875 0-.296875 0-.296875.21875 0 .125.109375.125.296875.125h3.890625c1.734375 0 3.015625-1.28125 3.015625-2.359375 0-.78125-.625-1.421875-1.6875-1.53125 1.125-.203125 2.28125-1.015625 2.28125-2.046875 0-.8125-.71875-1.515625-2.03125-1.515625h-3.671875c-.203125 0-.3125 0-.3125.21875 0 .125.09375.125.3125.125.015625 0 .21875 0 .40625.015625.203125.03125.296875.03125.296875.171875 0 .046875-.015625.078125-.046875.21875zm1.640625-3.140625.671875-2.71875c.109375-.375.125-.40625.59375-.40625h1.40625c.96875 0 1.1875.640625 1.1875 1.125 0 .953125-.9375 2-2.265625 2zm-.484375 3.640625c-.15625 0-.1875 0-.25 0-.109375-.015625-.140625-.03125-.140625-.109375 0-.03125 0-.0625.0625-.25l.75-3.046875h2.0625c1.046875 0 1.25.8125 1.25 1.28125 0 1.078125-.96875 2.125-2.25 2.125zm0 0"/></symbol><symbol id="P" overflow="visible"><path d="m5.296875-4.15625c.046875-.15625.046875-.171875.046875-.25 0-.203125-.15625-.296875-.3125-.296875-.109375 0-.28125.0625-.390625.234375-.015625.046875-.109375.390625-.140625.59375-.078125.28125-.15625.578125-.21875.859375l-.5 1.96875c-.046875.15625-.515625.921875-1.234375.921875-.546875 0-.671875-.46875-.671875-.875 0-.5.1875-1.1875.5625-2.140625.171875-.453125.21875-.5625.21875-.78125 0-.5-.359375-.90625-.90625-.90625-1.03125 0-1.4375 1.59375-1.4375 1.6875 0 .109375.109375.109375.140625.109375.109375 0 .109375-.015625.171875-.203125.296875-1.015625.734375-1.34375 1.09375-1.34375.09375 0 .28125 0 .28125.34375 0 .28125-.109375.5625-.1875.765625-.4375 1.15625-.640625 1.78125-.640625 2.296875 0 .96875.6875 1.296875 1.34375 1.296875.421875 0 .78125-.1875 1.09375-.5-.140625.578125-.265625 1.109375-.703125 1.6875-.28125.359375-.703125.6875-1.203125.6875-.15625 0-.640625-.03125-.828125-.46875.171875 0 .3125 0 .46875-.125.109375-.09375.21875-.234375.21875-.453125 0-.328125-.296875-.375-.40625-.375-.25 0-.609375.171875-.609375.703125 0 .546875.484375.953125 1.15625.953125 1.125 0 2.25-.984375 2.546875-2.21875zm0 0"/></symbol><symbol id="Q" overflow="visible"><path d="m3.640625-3.296875c.0625-.28125.3125-1.28125 1.078125-1.28125.0625 0 .3125 0 .546875.140625-.296875.046875-.515625.328125-.515625.59375 0 .171875.109375.375.40625.375.25 0 .59375-.203125.59375-.625 0-.578125-.640625-.734375-1.015625-.734375-.640625 0-1.015625.578125-1.140625.84375-.28125-.734375-.875-.84375-1.1875-.84375-1.125 0-1.75 1.421875-1.75 1.6875 0 .109375.109375.109375.125.109375.09375 0 .125-.015625.140625-.125.375-1.15625 1.09375-1.421875 1.46875-1.421875.203125 0 .59375.09375.59375.734375 0 .328125-.1875 1.0625-.59375 2.59375-.171875.671875-.5625 1.125-1.03125 1.125-.078125 0-.328125 0-.546875-.140625.265625-.046875.5-.28125.5-.578125s-.234375-.390625-.390625-.390625c-.328125 0-.609375.28125-.609375.640625 0 .5.546875.71875 1.03125.71875.71875 0 1.109375-.765625 1.140625-.828125.140625.390625.53125.828125 1.1875.828125 1.109375 0 1.734375-1.40625 1.734375-1.6875 0-.109375-.09375-.109375-.125-.109375-.09375 0-.125.046875-.140625.125-.359375 1.171875-1.109375 1.421875-1.453125 1.421875-.421875 0-.59375-.34375-.59375-.71875 0-.234375.0625-.46875.171875-.953125zm0 0"/></symbol><symbol id="R" overflow="visible"><path d="m5.03125-3.703125c.0625-.234375.171875-.640625.171875-.703125 0-.203125-.15625-.296875-.3125-.296875-.140625 0-.328125.09375-.40625.3125-.03125.078125-.546875 2.15625-.625 2.4375-.078125.328125-.09375.53125-.09375.71875 0 .125 0 .140625.015625.203125-.265625.578125-.578125.90625-1.015625.90625-.875 0-.875-.796875-.875-.984375 0-.359375.0625-.78125.578125-2.125.109375-.328125.1875-.46875.1875-.6875 0-.5-.359375-.90625-.90625-.90625-1.03125 0-1.4375 1.59375-1.4375 1.6875 0 .109375.109375.109375.140625.109375.109375 0 .109375-.015625.171875-.203125.296875-1.015625.71875-1.34375 1.09375-1.34375.109375 0 .28125.015625.28125.359375 0 .265625-.125.578125-.203125.765625-.484375 1.28125-.609375 1.78125-.609375 2.203125 0 .984375.734375 1.375 1.546875 1.375.1875 0 .703125 0 1.140625-.765625.28125.6875 1.03125.765625 1.359375.765625.8125 0 1.296875-.6875 1.578125-1.34375.375-.859375.71875-2.3125.71875-2.84375 0-.59375-.296875-.765625-.46875-.765625-.28125 0-.546875.296875-.546875.53125 0 .140625.0625.203125.15625.296875.125.125.390625.40625.390625.921875 0 .375-.3125 1.4375-.59375 2-.28125.578125-.671875.953125-1.203125.953125-.515625 0-.8125-.328125-.8125-.9375 0-.3125.078125-.65625.125-.796875zm0 0"/></symbol><symbol id="S" overflow="visible"><path d="m.171875-1.078125c-.015625.03125-.046875.0625-.046875.109375s.0625.140625.125.140625.09375-.03125.390625-.34375c.09375-.078125.3125-.28125.390625-.359375.109375.859375.4375 1.65625 1.21875 1.65625.4375 0 .828125-.25 1.046875-.40625.15625-.109375.671875-.53125.671875-.640625 0-.03125-.03125-.140625-.125-.140625-.03125 0-.046875.015625-.140625.109375-.703125.6875-1.109375.84375-1.421875.84375-.5 0-.671875-.5625-.671875-1.421875 0-.0625.03125-.5625.0625-.625.015625-.03125.015625-.046875.234375-.265625.890625-.875 2.4375-2.71875 2.4375-4.421875 0-.1875 0-.84375-.640625-.84375-.90625 0-1.71875 1.796875-1.828125 2.046875-.515625 1.1875-.859375 2.46875-.859375 3.765625zm1.546875-1.53125c.03125-.109375.5-2.53125 1.109375-3.8125.296875-.59375.53125-1.03125.875-1.03125.375 0 .375.390625.375.578125 0 1.8125-1.828125 3.71875-2.359375 4.265625zm0 0"/></symbol><symbol id="T" overflow="visible"><path d="m2.09375-.578125c0-.3125-.265625-.578125-.578125-.578125s-.578125.265625-.578125.578125.265625.578125.578125.578125.578125-.265625.578125-.578125zm0 0"/></symbol><symbol id="U" overflow="visible"><path d="m1.453125-.90625c.59375-.625.90625-.90625 1.296875-1.25 0 0 .671875-.578125 1.0625-.96875 1.046875-1.015625 1.28125-1.546875 1.28125-1.59375 0-.109375-.09375-.109375-.125-.109375-.078125 0-.109375.03125-.15625.125-.328125.53125-.5625.703125-.828125.703125-.25 0-.390625-.171875-.546875-.359375-.203125-.25-.390625-.46875-.75-.46875-.828125 0-1.328125 1.015625-1.328125 1.25 0 .0625.03125.125.140625.125.09375 0 .109375-.0625.140625-.125.203125-.5.828125-.515625.921875-.515625.234375 0 .4375.078125.6875.171875.4375.15625.5625.15625.84375.15625-.390625.46875-1.3125 1.25-1.515625 1.4375l-.984375.90625c-.75.734375-1.125 1.359375-1.125 1.4375 0 .109375.109375.109375.125.109375.09375 0 .109375-.03125.1875-.140625.25-.390625.578125-.6875.921875-.6875.25 0 .359375.109375.625.421875.1875.234375.390625.40625.703125.40625 1.078125 0 1.71875-1.390625 1.71875-1.6875 0-.046875-.046875-.109375-.140625-.109375s-.109375.0625-.15625.140625c-.25.71875-.9375.921875-1.296875.921875-.21875 0-.421875-.0625-.640625-.140625-.375-.140625-.546875-.1875-.765625-.1875-.03125 0-.203125 0-.296875.03125zm0 0"/></symbol><symbol id="V" overflow="visible"><path d="m5.109375-4.0625c0-.578125-.28125-.765625-.484375-.765625-.265625 0-.53125.296875-.53125.53125 0 .140625.046875.203125.171875.328125.234375.21875.375.5.375.890625 0 .453125-.671875 2.953125-1.953125 2.953125-.546875 0-.796875-.375-.796875-.9375 0-.609375.296875-1.40625.625-2.3125.078125-.1875.140625-.34375.140625-.546875 0-.5-.359375-.90625-.90625-.90625-1.015625 0-1.4375 1.59375-1.4375 1.6875 0 .109375.109375.109375.140625.109375.109375 0 .109375-.015625.171875-.203125.3125-1.09375.78125-1.34375 1.09375-1.34375.09375 0 .28125 0 .28125.34375 0 .28125-.109375.5625-.1875.765625-.484375 1.265625-.625 1.765625-.625 2.234375 0 1.1875.96875 1.359375 1.46875 1.359375 1.828125 0 2.453125-3.609375 2.453125-4.1875zm0 0"/></symbol><symbol id="W" overflow="visible"><path d="m7.1875-2.515625c.1875 0 .375 0 .375-.203125 0-.21875-.1875-.21875-.375-.21875h-5.90625c-.1875 0-.375 0-.375.21875 0 .203125.1875.203125.375.203125zm0 0"/></symbol><symbol id="X" overflow="visible"><path d="m2.25-1.625c.125-.125.453125-.390625.59375-.5.484375-.453125.953125-.890625.953125-1.609375 0-.953125-.796875-1.5625-1.78125-1.5625-.96875 0-1.59375.71875-1.59375 1.4375 0 .390625.3125.4375.421875.4375.171875 0 .421875-.109375.421875-.421875 0-.40625-.40625-.40625-.5-.40625.234375-.59375.765625-.78125 1.15625-.78125.734375 0 1.125.625 1.125 1.296875 0 .828125-.578125 1.4375-1.53125 2.390625l-1 1.046875c-.09375.078125-.09375.09375-.09375.296875h3.140625l.234375-1.421875h-.25c-.015625.15625-.078125.546875-.171875.703125-.046875.0625-.65625.0625-.78125.0625h-1.421875zm0 0"/></symbol><symbol id="Y" overflow="visible"><path d="m3.890625-2.546875c0-.84375-.078125-1.359375-.34375-1.875-.34375-.703125-1-.875-1.4375-.875-1 0-1.375.75-1.484375.96875-.28125.578125-.296875 1.375-.296875 1.78125 0 .53125.015625 1.328125.40625 1.96875.359375.59375.953125.75 1.375.75.390625 0 1.0625-.125 1.46875-.90625.296875-.578125.3125-1.296875.3125-1.8125zm-1.78125 2.484375c-.265625 0-.8125-.125-.984375-.953125-.09375-.453125-.09375-1.203125-.09375-1.625 0-.546875 0-1.109375.09375-1.546875.171875-.8125.78125-.890625.984375-.890625.265625 0 .828125.140625.984375.859375.09375.4375.09375 1.046875.09375 1.578125 0 .46875 0 1.1875-.09375 1.640625-.171875.828125-.71875.9375-.984375.9375zm0 0"/></symbol><symbol id="Z" overflow="visible"><path d="m5.0625 17.5625-2.34375-8.1875-1.515625 1.78125.171875.171875.734375-.875 2.515625 8.734375c.359375 0 .375 0 .453125-.25l5.984375-18.9375c.0625-.15625.0625-.203125.0625-.21875 0-.125-.09375-.21875-.21875-.21875-.15625 0-.203125.140625-.25.28125zm0 0"/></symbol><symbol id="aa" overflow="visible"><path d="m7.640625 25.625c0-.046875-.03125-.078125-.046875-.109375-.40625-.40625-1.140625-1.125-1.875-2.3125-1.75-2.8125-2.546875-6.359375-2.546875-10.546875 0-2.9375.390625-6.71875 2.1875-9.96875.875-1.546875 1.765625-2.453125 2.25-2.921875.03125-.03125.03125-.0625.03125-.09375 0-.109375-.078125-.109375-.234375-.109375s-.171875 0-.34375.171875c-3.65625 3.3125-4.796875 8.3125-4.796875 12.90625 0 4.28125.984375 8.609375 3.75 11.859375.21875.25.640625.703125 1.078125 1.09375.140625.140625.15625.140625.3125.140625s.234375 0 .234375-.109375zm0 0"/></symbol><symbol id="ab" overflow="visible"><path d="m5.75 12.65625c0-4.296875-.984375-8.609375-3.75-11.875-.21875-.25-.640625-.6875-1.078125-1.09375-.140625-.125-.15625-.125-.3125-.125-.125 0-.234375 0-.234375.109375 0 .046875.046875.09375.078125.109375.375.390625 1.109375 1.125 1.84375 2.296875 1.75 2.8125 2.546875 6.359375 2.546875 10.5625 0 2.9375-.390625 6.71875-2.1875 9.96875-.875 1.546875-1.765625 2.453125-2.234375 2.90625-.015625.03125-.046875.078125-.046875.109375 0 .109375.109375.109375.234375.109375.15625 0 .171875 0 .34375-.171875 3.65625-3.328125 4.796875-8.3125 4.796875-12.90625zm0 0"/></symbol><symbol id="ac" overflow="visible"><path d="m4-3.171875c-.359375.078125-.375.390625-.375.421875 0 .171875.140625.296875.3125.296875s.4375-.140625.4375-.484375c0-.453125-.5-.578125-.796875-.578125-.359375 0-.671875.265625-.859375.578125-.171875-.421875-.578125-.578125-.90625-.578125-.875 0-1.359375 1-1.359375 1.21875 0 .078125.0625.109375.125.109375.09375 0 .109375-.046875.125-.140625.1875-.578125.671875-.96875 1.078125-.96875.3125 0 .46875.234375.46875.515625 0 .15625-.09375.53125-.15625.78125-.0625.234375-.234375.9375-.28125 1.09375-.109375.421875-.390625.765625-.75.765625-.03125 0-.234375 0-.40625-.109375.359375-.09375.359375-.421875.359375-.4375 0-.1875-.140625-.296875-.3125-.296875-.21875 0-.453125.1875-.453125.484375 0 .375.390625.578125.796875.578125.421875 0 .71875-.3125.859375-.578125.1875.390625.546875.578125.9375.578125.859375 0 1.34375-1 1.34375-1.21875 0-.078125-.0625-.109375-.125-.109375-.09375 0-.109375.0625-.140625.140625-.15625.53125-.609375.96875-1.0625.96875-.265625 0-.453125-.171875-.453125-.515625 0-.15625.046875-.34375.15625-.78125.046875-.25.21875-.9375.265625-1.09375.109375-.421875.390625-.765625.75-.765625.046875 0 .25 0 .421875.125zm0 0"/></symbol><symbol id="ad" overflow="visible"><path d="m3.265625-3.046875c-.328125.03125-.4375.28125-.4375.4375 0 .234375.203125.296875.3125.296875.03125 0 .4375-.03125.4375-.515625s-.515625-.6875-1-.6875c-1.125 0-2.234375 1.09375-2.234375 2.21875 0 .75.53125 1.375 1.40625 1.375 1.265625 0 1.921875-.796875 1.921875-.90625 0-.078125-.078125-.125-.125-.125s-.078125.015625-.109375.0625c-.625.75-1.53125.75-1.671875.75-.421875 0-.765625-.265625-.765625-.875 0-.34375.15625-1.1875.53125-1.6875.34375-.4375.75-.59375 1.0625-.59375.09375 0 .453125.015625.671875.25zm0 0"/></symbol><symbol id="ae" overflow="visible"><path d="m4.125-3c.03125-.109375.03125-.125.03125-.1875 0-.203125-.15625-.25-.25-.25-.046875 0-.21875.015625-.328125.21875-.015625.046875-.09375.328125-.125.5l-.484375 1.90625c0 .03125-.34375.671875-.921875.671875-.390625 0-.53125-.296875-.53125-.640625 0-.46875.265625-1.171875.453125-1.640625.078125-.203125.109375-.265625.109375-.421875 0-.4375-.359375-.671875-.71875-.671875-.796875 0-1.125 1.125-1.125 1.21875 0 .078125.0625.109375.125.109375.109375 0 .109375-.046875.140625-.125.203125-.703125.546875-.984375.828125-.984375.125 0 .1875.078125.1875.265625 0 .171875-.0625.359375-.109375.5-.328125.84375-.46875 1.25-.46875 1.625 0 .78125.59375.984375 1.0625.984375.375 0 .640625-.171875.84375-.34375-.125.4375-.203125.75-.5 1.140625-.265625.3125-.578125.53125-.9375.53125-.140625 0-.4375-.03125-.59375-.265625.421875-.03125.453125-.390625.453125-.4375 0-.1875-.15625-.296875-.3125-.296875-.1875 0-.453125.140625-.453125.53125 0 .375.34375.6875.90625.6875.8125 0 1.71875-.65625 1.96875-1.609375zm0 0"/></symbol><symbol id="af" overflow="visible"><path d="m1.15625-.6875c.28125-.296875.375-.390625 1.078125-.96875.078125-.078125.640625-.53125.859375-.75.5-.484375.8125-.921875.8125-1.015625 0-.0625-.0625-.09375-.125-.09375-.078125 0-.078125.015625-.15625.140625-.25.359375-.421875.421875-.578125.421875-.140625 0-.234375-.0625-.40625-.21875-.203125-.203125-.359375-.34375-.609375-.34375-.640625 0-1.046875.71875-1.046875.9375 0 0 0 .09375.125.09375.078125 0 .109375-.03125.140625-.125.09375-.234375.4375-.3125.671875-.3125.1875 0 .375.046875.578125.109375.328125.09375.40625.09375.578125.09375-.15625.171875-.390625.390625-1 .890625-.328125.28125-.671875.546875-.890625.765625-.578125.578125-.84375.96875-.84375 1.046875s.0625.09375.125.09375c.078125 0 .09375-.015625.140625-.078125.15625-.234375.40625-.484375.703125-.484375.1875 0 .265625.0625.421875.21875.25.25.390625.34375.625.34375.828125 0 1.328125-.984375 1.328125-1.234375 0-.078125-.046875-.109375-.125-.109375s-.09375.046875-.125.140625c-.15625.390625-.59375.609375-.984375.609375-.15625 0-.328125-.046875-.578125-.109375-.328125-.078125-.40625-.078125-.53125-.078125-.078125 0-.125 0-.1875.015625zm0 0"/></symbol><g><use x="20.735" xlink:href="#a" y="12.152"/><use x="28.613552" xlink:href="#b" y="12.152"/><use x="34.674648" xlink:href="#c" y="12.152"/></g><g><use x="43.155382" xlink:href="#d" y="12.152"/><use x="47.397931" xlink:href="#e" y="12.152"/><use x="51.671026" xlink:href="#f" y="12.152"/><use x="57.125576" xlink:href="#g" y="12.152"/><use x="63.186672" xlink:href="#h" y="12.152"/><use x="67.489221" xlink:href="#i" y="12.152"/><use x="70.823042" xlink:href="#j" y="12.152"/><use x="76.277592" xlink:href="#e" y="12.152"/><use x="80.550686" xlink:href="#k" y="12.152"/><use x="89.641239" xlink:href="#f" y="12.152"/><use x="95.095789" xlink:href="#d" y="12.152"/><use x="99.338338" xlink:href="#l" y="12.152"/><use x="102.368886" xlink:href="#j" y="12.152"/><use x="107.823436" xlink:href="#g" y="12.152"/></g><use x="117.528172" xlink:href="#i" y="12.152"/><g><use x="120.851083" xlink:href="#j" y="12.152"/><use x="126.305633" xlink:href="#e" y="12.152"/></g><g><use x="134.222367" xlink:href="#d" y="12.152"/><use x="138.464916" xlink:href="#b" y="12.152"/><use x="144.526012" xlink:href="#c" y="12.152"/></g><g><use x="153.006747" xlink:href="#m" y="12.152"/><use x="157.854751" xlink:href="#j" y="12.152"/><use x="163.309301" xlink:href="#e" y="12.152"/><use x="167.582395" xlink:href="#e" y="12.152"/><use x="171.85549" xlink:href="#c" y="12.152"/><use x="176.703494" xlink:href="#m" y="12.152"/><use x="181.551498" xlink:href="#d" y="12.152"/><use x="185.794047" xlink:href="#l" y="12.152"/><use x="188.824595" xlink:href="#j" y="12.152"/><use x="194.279145" xlink:href="#g" y="12.152"/></g><g><use x="203.972971" xlink:href="#d" y="12.152"/><use x="208.21552" xlink:href="#c" y="12.152"/><use x="213.063524" xlink:href="#e" y="12.152"/><use x="217.336618" xlink:href="#k" y="12.152"/></g><g><use x="230.068" xlink:href="#H" y="12.152"/><use x="239.158553" xlink:href="#I" y="12.152"/></g><use x="252.144" xlink:href="#n" y="12.152"/><use x="263.659" xlink:href="#I" y="12.152"/><use x="276.038" xlink:href="#W" y="12.152"/><use x="286.947" xlink:href="#I" y="12.152"/><use x="296.015" xlink:href="#X" y="13.788"/><g><use x="304.384" xlink:href="#i" y="12.152"/><use x="307.717821" xlink:href="#j" y="12.152"/><use x="313.172371" xlink:href="#e" y="12.152"/></g><use x="321.078196" xlink:href="#o" y="12.152"/><g><use x="326.535" xlink:href="#J" y="12.152"/><use x="331.98955" xlink:href="#K" y="12.152"/></g><use x="340.66" xlink:href="#n" y="12.152"/><g><use x="352.177828" xlink:href="#p" y="12.152"/><use x="357.632378" xlink:href="#q" y="12.152"/></g><g><use x="93.314" xlink:href="#H" y="43.37"/><use x="102.404553" xlink:href="#I" y="43.37"/></g><use x="115.389" xlink:href="#n" y="43.37"/><use x="126.905" xlink:href="#W" y="43.37"/><use x="135.389" xlink:href="#Z" y="30.414"/><path d="m.00178125-.0003125h131.86718775" fill="none" stroke="#000" stroke-miterlimit="10" stroke-width=".436" transform="matrix(1 0 0 -1 146.299 30.195)"/><use x="146.299" xlink:href="#L" y="43.37"/><use x="151.787" xlink:href="#X" y="40.218"/><use x="158.944" xlink:href="#W" y="43.37"/><use x="169.853" xlink:href="#r" y="43.37"/><use x="174.095" xlink:href="#L" y="43.37"/><use x="179.584" xlink:href="#ac" y="45.006"/><use x="187.273" xlink:href="#W" y="43.37"/><use x="198.182" xlink:href="#M" y="43.37"/><use x="203.949" xlink:href="#ad" y="45.006"/><use x="208.114" xlink:href="#s" y="43.37"/><use x="212.357" xlink:href="#X" y="40.218"/><use x="219.513" xlink:href="#W" y="43.37"/><use x="230.422" xlink:href="#r" y="43.37"/><use x="234.665" xlink:href="#L" y="43.37"/><use x="240.153" xlink:href="#ae" y="45.006"/><use x="247.548" xlink:href="#W" y="43.37"/><use x="258.457" xlink:href="#M" y="43.37"/><use x="264.223" xlink:href="#ae" y="45.006"/><use x="269.193" xlink:href="#s" y="43.37"/><use x="273.435" xlink:href="#X" y="40.218"/><use x="280.592" xlink:href="#t" y="43.37"/><use x="291.501" xlink:href="#L" y="43.37"/><use x="299.414" xlink:href="#W" y="43.37"/><use x="311.518" xlink:href="#r" y="35.99"/><use x="315.761" xlink:href="#L" y="35.99"/><use x="321.249" xlink:href="#ac" y="37.626"/><use x="328.939" xlink:href="#W" y="35.99"/><use x="339.848" xlink:href="#M" y="35.99"/><use x="345.614" xlink:href="#ac" y="37.626"/><use x="350.879" xlink:href="#s" y="35.99"/><use x="355.122" xlink:href="#X" y="32.031"/><path d="m.00153125-.00153125h48.33593775" fill="none" stroke="#000" stroke-miterlimit="10" stroke-width=".436" transform="matrix(1 0 0 -1 311.518 40.643)"/><use x="330.215" xlink:href="#u" y="50.853"/><use x="335.669" xlink:href="#L" y="50.853"/><use x="363.474" xlink:href="#W" y="43.37"/><use x="375.578" xlink:href="#r" y="35.929"/><use x="379.821" xlink:href="#L" y="35.929"/><use x="385.309" xlink:href="#ae" y="37.566"/><use x="392.703" xlink:href="#W" y="35.929"/><use x="403.612" xlink:href="#M" y="35.929"/><use x="409.379" xlink:href="#ae" y="37.566"/><use x="414.349" xlink:href="#s" y="35.929"/><use x="418.591" xlink:href="#X" y="31.97"/><path d="m.000125-.00153125h47.746094" fill="none" stroke="#000" stroke-miterlimit="10" stroke-width=".436" transform="matrix(1 0 0 -1 375.578 40.643)"/><use x="393.979" xlink:href="#u" y="50.853"/><use x="399.434" xlink:href="#L" y="50.853"/><g><use x="494.64" xlink:href="#r" y="43.37"/><use x="498.882549" xlink:href="#v" y="43.37"/><use x="504.337099" xlink:href="#w" y="43.37"/><use x="509.791649" xlink:href="#s" y="43.37"/></g><use x="115.389" xlink:href="#n" y="73.495"/><use x="126.905" xlink:href="#L" y="73.495"/><use x="134.817" xlink:href="#W" y="73.495"/><use x="145.726" xlink:href="#L" y="73.495"/><use x="151.215" xlink:href="#af" y="75.131"/><use x="158.413" xlink:href="#W" y="73.495"/><use x="170.518" xlink:href="#r" y="66.115"/><use x="174.76" xlink:href="#L" y="66.115"/><use x="180.249" xlink:href="#ac" y="67.751"/><use x="187.938" xlink:href="#W" y="66.115"/><use x="198.847" xlink:href="#M" y="66.115"/><use x="204.613" xlink:href="#ac" y="67.751"/><use x="209.878" xlink:href="#s" y="66.115"/><use x="214.121" xlink:href="#X" y="62.156"/><path d="m.00153125-.00153125h48.33593775" fill="none" stroke="#000" stroke-miterlimit="10" stroke-width=".436" transform="matrix(1 0 0 -1 170.518 70.768)"/><use x="189.214" xlink:href="#u" y="80.978"/><use x="194.668" xlink:href="#L" y="80.978"/><use x="222.473" xlink:href="#W" y="73.495"/><use x="234.578" xlink:href="#r" y="66.054"/><use x="238.82" xlink:href="#L" y="66.054"/><use x="244.309" xlink:href="#ae" y="67.691"/><use x="251.703" xlink:href="#W" y="66.054"/><use x="262.612" xlink:href="#M" y="66.054"/><use x="268.378" xlink:href="#ae" y="67.691"/><use x="273.348" xlink:href="#s" y="66.054"/><use x="277.59" xlink:href="#X" y="62.095"/><path d="m.000125-.00153125h47.746094" fill="none" stroke="#000" stroke-miterlimit="10" stroke-width=".436" transform="matrix(1 0 0 -1 234.578 70.768)"/><use x="252.979" xlink:href="#u" y="80.978"/><use x="258.433" xlink:href="#L" y="80.978"/><use x="287.155" xlink:href="#N" y="73.495"/><g><use x="494.64" xlink:href="#r" y="73.495"/><use x="498.882549" xlink:href="#v" y="73.495"/><use x="504.337099" xlink:href="#x" y="73.495"/><use x="509.791649" xlink:href="#s" y="73.495"/></g><use x="101.328" xlink:href="#M" y="101.919"/><use x="107.094" xlink:href="#ac" y="103.555"/><use x="115.389" xlink:href="#n" y="101.919"/><use x="126.905" xlink:href="#W" y="101.919"/><use x="136.585" xlink:href="#O" y="94.539"/><use x="144.86" xlink:href="#af" y="96.175"/><path d="m.0009375.00059375h13.0468755" fill="none" stroke="#000" stroke-miterlimit="10" stroke-width=".436" transform="matrix(1 0 0 -1 136.585 99.192)"/><use x="140.382" xlink:href="#u" y="109.402"/><use x="150.829" xlink:href="#P" y="101.919"/><use x="160.20319" xlink:href="#N" y="101.919"/><g><use x="494.64" xlink:href="#r" y="101.919"/><use x="498.882549" xlink:href="#v" y="101.919"/><use x="504.337099" xlink:href="#y" y="101.919"/><use x="509.791649" xlink:href="#s" y="101.919"/></g><use x="101.623" xlink:href="#M" y="128.222"/><use x="107.389" xlink:href="#ae" y="129.858"/><use x="115.389" xlink:href="#n" y="128.222"/><use x="128.1" xlink:href="#O" y="120.842"/><use x="136.375" xlink:href="#af" y="122.478"/><path d="m.0015625.0018125h13.0468755" fill="none" stroke="#000" stroke-miterlimit="10" stroke-width=".436" transform="matrix(1 0 0 -1 128.1 125.494)"/><use x="131.897" xlink:href="#u" y="135.705"/><use x="142.344" xlink:href="#Q" y="128.222"/><use x="152.211281" xlink:href="#N" y="128.222"/><g><use x="494.64" xlink:href="#r" y="128.222"/><use x="498.882549" xlink:href="#z" y="128.222"/><use x="504.337099" xlink:href="#p" y="128.222"/><use x="509.791649" xlink:href="#s" y="128.222"/></g><g><use x="3.798" xlink:href="#l" y="154.946"/><use x="6.828548" xlink:href="#h" y="154.946"/></g><g><use x="14.763827" xlink:href="#A" y="154.946"/><use x="22.642379" xlink:href="#e" y="154.946"/><use x="26.915474" xlink:href="#l" y="154.946"/><use x="29.946022" xlink:href="#d" y="154.946"/><use x="34.188571" xlink:href="#d" y="154.946"/><use x="38.43112" xlink:href="#c" y="154.946"/><use x="43.279124" xlink:href="#g" y="154.946"/></g><g><use x="52.983859" xlink:href="#f" y="154.946"/><use x="58.438409" xlink:href="#h" y="154.946"/></g><use x="218.057" xlink:href="#Q" y="179.454"/><use x="227.322" xlink:href="#n" y="179.454"/><use x="238.837" xlink:href="#Q" y="179.454"/><use x="245.072" xlink:href="#Y" y="181.09"/><use x="252.228" xlink:href="#t" y="179.454"/><g><use x="263.137" xlink:href="#H" y="179.454"/><use x="272.227553" xlink:href="#Q" y="179.454"/></g><use x="282.094834" xlink:href="#N" y="179.454"/><g><use x="494.64" xlink:href="#r" y="179.454"/><use x="498.882549" xlink:href="#z" y="179.454"/><use x="504.337099" xlink:href="#o" y="179.454"/><use x="509.791649" xlink:href="#s" y="179.454"/></g><use x="218.552" xlink:href="#P" y="195.992"/><use x="227.322" xlink:href="#n" y="195.992"/><use x="238.837" xlink:href="#P" y="195.992"/><use x="244.185" xlink:href="#Y" y="197.628"/><use x="251.342" xlink:href="#t" y="195.992"/><g><use x="262.251" xlink:href="#H" y="195.992"/><use x="271.341553" xlink:href="#P" y="195.992"/></g><use x="280.715743" xlink:href="#N" y="195.992"/><g><use x="494.64" xlink:href="#r" y="195.992"/><use x="498.882549" xlink:href="#z" y="195.992"/><use x="504.337099" xlink:href="#u" y="195.992"/><use x="509.791649" xlink:href="#s" y="195.992"/></g><use x="213.538" xlink:href="#L" y="218.876"/><use x="219.027" xlink:href="#ac" y="220.512"/><use x="227.322" xlink:href="#n" y="218.876"/><use x="238.837" xlink:href="#L" y="218.876"/><use x="244.326" xlink:href="#ac" y="220.512"/><use x="249.092" xlink:href="#Y" y="220.512"/><use x="256.249" xlink:href="#t" y="218.876"/><use x="268.354" xlink:href="#O" y="211.496"/><use x="276.628" xlink:href="#af" y="213.132"/><path d="m.00146875.0005625h13.04687525" fill="none" stroke="#000" stroke-miterlimit="10" stroke-width=".436" transform="matrix(1 0 0 -1 268.354 216.149)"/><use x="272.151" xlink:href="#u" y="226.359"/><g><use x="282.598" xlink:href="#H" y="218.876"/><use x="291.688553" xlink:href="#P" y="218.876"/></g><use x="301.062743" xlink:href="#N" y="218.876"/><g><use x="494.64" xlink:href="#r" y="218.876"/><use x="498.882549" xlink:href="#z" y="218.876"/><use x="504.337099" xlink:href="#B" y="218.876"/><use x="509.791649" xlink:href="#s" y="218.876"/></g><use x="213.833" xlink:href="#L" y="245.179"/><use x="219.322" xlink:href="#ae" y="246.815"/><use x="227.322" xlink:href="#n" y="245.179"/><use x="238.837" xlink:href="#L" y="245.179"/><use x="244.326" xlink:href="#ae" y="246.815"/><use x="248.797" xlink:href="#Y" y="246.815"/><use x="255.954" xlink:href="#W" y="245.179"/><use x="268.058" xlink:href="#O" y="237.799"/><use x="276.333" xlink:href="#af" y="239.435"/><path d="m.00059375-.001125h13.04687525" fill="none" stroke="#000" stroke-miterlimit="10" stroke-width=".436" transform="matrix(1 0 0 -1 268.058 242.452)"/><use x="271.855" xlink:href="#u" y="252.662"/><g><use x="282.302" xlink:href="#H" y="245.179"/><use x="291.392553" xlink:href="#Q" y="245.179"/></g><use x="301.259834" xlink:href="#N" y="245.179"/><g><use x="494.64" xlink:href="#r" y="245.179"/><use x="498.882549" xlink:href="#z" y="245.179"/><use x="504.337099" xlink:href="#v" y="245.179"/><use x="509.791649" xlink:href="#s" y="245.179"/></g><g><use x="3.798" xlink:href="#A" y="272.193"/><use x="11.676552" xlink:href="#b" y="272.193"/><use x="17.737648" xlink:href="#c" y="272.193"/><use x="22.585652" xlink:href="#e" y="272.193"/><use x="26.858746" xlink:href="#c" y="272.193"/></g><g><use x="119.861" xlink:href="#H" y="299.966"/><use x="128.951553" xlink:href="#Q" y="299.966"/></g><use x="138.217" xlink:href="#n" y="299.966"/><use x="149.733" xlink:href="#aa" y="284.584"/><use x="157.763" xlink:href="#L" y="299.966"/><use x="163.252" xlink:href="#ac" y="301.603"/><use x="168.018" xlink:href="#Y" y="301.603"/><use x="175.175" xlink:href="#t" y="299.966"/><use x="187.28" xlink:href="#O" y="292.586"/><use x="195.554" xlink:href="#af" y="294.223"/><path d="m.00125.00071875h13.046875" fill="none" stroke="#000" stroke-miterlimit="10" stroke-width=".436" transform="matrix(1 0 0 -1 187.28 297.239)"/><use x="191.077" xlink:href="#u" y="307.449"/><use x="201.524" xlink:href="#P" y="299.966"/><use x="206.872" xlink:href="#Y" y="301.603"/><use x="211.604" xlink:href="#ab" y="284.584"/><g><use x="221.453" xlink:href="#h" y="299.966"/><use x="225.755549" xlink:href="#l" y="299.966"/><use x="228.786097" xlink:href="#g" y="299.966"/></g><use x="236.665" xlink:href="#R" y="299.966"/><use x="244.76937" xlink:href="#S" y="299.966"/><use x="251.738" xlink:href="#W" y="299.966"/><use x="262.647" xlink:href="#aa" y="284.584"/><use x="270.678" xlink:href="#L" y="299.966"/><use x="276.166" xlink:href="#ae" y="301.603"/><use x="280.638" xlink:href="#Y" y="301.603"/><use x="287.794" xlink:href="#W" y="299.966"/><use x="299.899" xlink:href="#O" y="292.586"/><use x="308.174" xlink:href="#af" y="294.223"/><path d="m-.0005625.00071875h13.0468745" fill="none" stroke="#000" stroke-miterlimit="10" stroke-width=".436" transform="matrix(1 0 0 -1 299.899 297.239)"/><use x="303.696" xlink:href="#u" y="307.449"/><use x="314.143" xlink:href="#Q" y="299.966"/><use x="320.378" xlink:href="#Y" y="301.603"/><use x="325.11" xlink:href="#ab" y="284.584"/><g><use x="334.959" xlink:href="#r" y="299.966"/><use x="339.201549" xlink:href="#m" y="299.966"/><use x="344.049553" xlink:href="#j" y="299.966"/><use x="349.504103" xlink:href="#h" y="299.966"/></g><use x="355.625" xlink:href="#R" y="299.966"/><use x="363.72937" xlink:href="#S" y="299.966"/><use x="370.699" xlink:href="#W" y="299.966"/><g><use x="381.608" xlink:href="#o" y="299.966"/><use x="387.06255" xlink:href="#s" y="299.966"/></g><use x="391.305" xlink:href="#N" y="299.966"/><g><use x="494.64" xlink:href="#r" y="299.966"/><use x="498.882549" xlink:href="#z" y="299.966"/><use x="504.337099" xlink:href="#z" y="299.966"/><use x="509.791649" xlink:href="#s" y="299.966"/></g><g><use x="120.356" xlink:href="#H" y="330.133"/><use x="129.446553" xlink:href="#P" y="330.133"/></g><use x="138.217" xlink:href="#n" y="330.133"/><use x="149.733" xlink:href="#aa" y="314.751"/><use x="157.763" xlink:href="#L" y="330.133"/><use x="163.252" xlink:href="#ac" y="331.77"/><use x="168.018" xlink:href="#Y" y="331.77"/><use x="175.175" xlink:href="#t" y="330.133"/><use x="187.28" xlink:href="#O" y="322.753"/><use x="195.554" xlink:href="#af" y="324.39"/><path d="m.00125-.00025h13.046875" fill="none" stroke="#000" stroke-miterlimit="10" stroke-width=".436" transform="matrix(1 0 0 -1 187.28 327.406)"/><use x="191.077" xlink:href="#u" y="337.617"/><use x="201.524" xlink:href="#P" y="330.133"/><use x="206.872" xlink:href="#Y" y="331.77"/><use x="211.604" xlink:href="#ab" y="314.752"/><g><use x="221.453" xlink:href="#r" y="330.133"/><use x="225.695549" xlink:href="#m" y="330.133"/><use x="230.543553" xlink:href="#j" y="330.133"/><use x="235.998103" xlink:href="#h" y="330.133"/></g><use x="242.119" xlink:href="#R" y="330.133"/><use x="250.22337" xlink:href="#S" y="330.133"/><use x="257.193" xlink:href="#W" y="330.133"/><g><use x="268.102" xlink:href="#o" y="330.133"/><use x="273.55655" xlink:href="#s" y="330.133"/></g><use x="280.220919" xlink:href="#t" y="330.133"/><use x="291.132" xlink:href="#aa" y="314.752"/><use x="299.162" xlink:href="#L" y="330.133"/><use x="304.651" xlink:href="#ae" y="331.77"/><use x="309.123" xlink:href="#Y" y="331.77"/><use x="316.279" xlink:href="#W" y="330.133"/><use x="328.384" xlink:href="#O" y="322.753"/><use x="336.658" xlink:href="#af" y="324.39"/><path d="m-.0011875-.00025h13.0507815" fill="none" stroke="#000" stroke-miterlimit="10" stroke-width=".436" transform="matrix(1 0 0 -1 328.384 327.406)"/><use x="332.181" xlink:href="#u" y="337.617"/><use x="342.628" xlink:href="#Q" y="330.133"/><use x="348.863" xlink:href="#Y" y="331.77"/><use x="353.595" xlink:href="#ab" y="314.752"/><g><use x="363.443" xlink:href="#h" y="330.133"/><use x="367.745549" xlink:href="#l" y="330.133"/><use x="370.776097" xlink:href="#g" y="330.133"/></g><use x="378.656" xlink:href="#R" y="330.133"/><use x="386.76037" xlink:href="#S" y="330.133"/><use x="394.938923" xlink:href="#N" y="330.133"/><g><use x="494.641" xlink:href="#r" y="330.133"/><use x="498.883549" xlink:href="#z" y="330.133"/><use x="504.338099" xlink:href="#C" y="330.133"/><use x="509.792649" xlink:href="#s" y="330.133"/></g><use x="127.084" xlink:href="#R" y="360.044"/><use x="138.218" xlink:href="#n" y="360.044"/><use x="150.928" xlink:href="#O" y="352.664"/><use x="159.203" xlink:href="#af" y="354.3"/><use x="163.977" xlink:href="#r" y="352.664"/><use x="168.219" xlink:href="#L" y="352.664"/><use x="176.132" xlink:href="#W" y="352.664"/><use x="187.041" xlink:href="#L" y="352.664"/><use x="192.53" xlink:href="#af" y="354.3"/><use x="197.303" xlink:href="#s" y="352.664"/><path d="m.0016875.00059375h50.6171875" fill="none" stroke="#000" stroke-miterlimit="10" stroke-width=".436" transform="matrix(1 0 0 -1 150.928 357.317)"/><g><use x="168.361" xlink:href="#L" y="367.527"/><use x="173.849368" xlink:href="#L" y="367.527"/></g><use x="179.339" xlink:href="#af" y="369.164"/><use x="206.378" xlink:href="#T" y="360.044"/><g><use x="494.64" xlink:href="#r" y="360.044"/><use x="498.882549" xlink:href="#z" y="360.044"/><use x="504.337099" xlink:href="#w" y="360.044"/><use x="509.791649" xlink:href="#s" y="360.044"/></g><g><use x="3.798" xlink:href="#a" y="389.179"/><use x="11.676552" xlink:href="#b" y="389.179"/><use x="17.737648" xlink:href="#c" y="389.179"/></g><g><use x="26.218382" xlink:href="#D" y="389.179"/><use x="29.24893" xlink:href="#j" y="389.179"/><use x="34.70348" xlink:href="#g" y="389.179"/><use x="40.764576" xlink:href="#E" y="389.179"/><use x="46.219126" xlink:href="#l" y="389.179"/><use x="49.249674" xlink:href="#d" y="389.179"/><use x="53.492223" xlink:href="#F" y="389.179"/><use x="59.553319" xlink:href="#G" y="389.179"/><use x="65.614415" xlink:href="#l" y="389.179"/><use x="68.644963" xlink:href="#g" y="389.179"/><use x="74.706059" xlink:href="#f" y="389.179"/><use x="80.160609" xlink:href="#D" y="389.179"/></g><g><use x="86.823887" xlink:href="#m" y="389.179"/><use x="91.671891" xlink:href="#j" y="389.179"/></g><g><use x="97.431896" xlink:href="#j" y="389.179"/><use x="102.886446" xlink:href="#e" y="389.179"/><use x="107.159541" xlink:href="#G" y="389.179"/><use x="113.220637" xlink:href="#l" y="389.179"/><use x="116.251185" xlink:href="#g" y="389.179"/><use x="122.312281" xlink:href="#f" y="389.179"/><use x="127.766831" xlink:href="#d" y="389.179"/><use x="132.00938" xlink:href="#c" y="389.179"/></g><g><use x="140.490114" xlink:href="#l" y="389.179"/><use x="143.520662" xlink:href="#h" y="389.179"/></g><g><use x="151.46685" xlink:href="#d" y="389.179"/><use x="155.709399" xlink:href="#e" y="389.179"/><use x="159.982494" xlink:href="#f" y="389.179"/><use x="165.437044" xlink:href="#g" y="389.179"/><use x="171.49814" xlink:href="#h" y="389.179"/><use x="175.800689" xlink:href="#i" y="389.179"/><use x="179.13451" xlink:href="#j" y="389.179"/><use x="184.58906" xlink:href="#e" y="389.179"/><use x="188.862154" xlink:href="#k" y="389.179"/><use x="197.952707" xlink:href="#c" y="389.179"/><use x="202.800711" xlink:href="#G" y="389.179"/></g><g><use x="212.494538" xlink:href="#f" y="389.179"/><use x="217.949088" xlink:href="#h" y="389.179"/><use x="222.251637" xlink:href="#q" y="389.179"/></g><use x="176.084" xlink:href="#U" y="419.731"/><use x="184.668" xlink:href="#n" y="419.731"/><use x="196.183" xlink:href="#U" y="419.731"/><use x="201.256" xlink:href="#Y" y="421.367"/><use x="208.413" xlink:href="#t" y="419.731"/><use x="219.322" xlink:href="#aa" y="404.349"/><use x="228.548" xlink:href="#B" y="412.351"/><path d="m-.001125.00009375h5.457031" fill="none" stroke="#000" stroke-miterlimit="10" stroke-width=".436" transform="matrix(1 0 0 -1 228.548 417.004)"/><use x="228.548" xlink:href="#u" y="427.214"/><use x="237.622" xlink:href="#W" y="419.731"/><use x="252.113" xlink:href="#L" y="412.351"/><path d="m.0005625.00009375h10.2617185" fill="none" stroke="#000" stroke-miterlimit="10" stroke-width=".436" transform="matrix(1 0 0 -1 249.726 417.004)"/><use x="249.726" xlink:href="#L" y="427.214"/><use x="255.215" xlink:href="#af" y="428.85"/><use x="263.609" xlink:href="#W" y="419.731"/><use x="278.42" xlink:href="#L" y="412.351"/><use x="283.908" xlink:href="#X" y="408.392"/><use x="283.908" xlink:href="#af" y="415.048"/><path d="m.00184375.00009375h15.67578125" fill="none" stroke="#000" stroke-miterlimit="10" stroke-width=".436" transform="matrix(1 0 0 -1 275.713 417.004)"/><use x="275.713" xlink:href="#u" y="427.214"/><use x="281.168" xlink:href="#L" y="427.214"/><use x="286.656" xlink:href="#X" y="424.063"/><use x="295.008" xlink:href="#t" y="419.731"/><g><use x="305.917" xlink:href="#H" y="419.731"/><use x="315.007553" xlink:href="#V" y="419.731"/></g><use x="320.688" xlink:href="#ab" y="404.349"/><use x="330.536" xlink:href="#S" y="419.731"/><use x="338.714552" xlink:href="#T" y="419.731"/><g><use x="494.64" xlink:href="#r" y="419.731"/><use x="498.882549" xlink:href="#z" y="419.731"/><use x="504.337099" xlink:href="#x" y="419.731"/><use x="509.791649" xlink:href="#s" y="419.731"/></g></svg>