<svg height="262pt" viewBox="0 0 405 262" width="405pt" xmlns="http://www.w3.org/2000/svg" xmlns:xlink="http://www.w3.org/1999/xlink"><symbol id="a" overflow="visible"><path d="m3.640625-3.296875c.0625-.28125.3125-1.28125 1.078125-1.28125.0625 0 .3125 0 .546875.140625-.296875.046875-.515625.328125-.515625.59375 0 .171875.109375.375.40625.375.25 0 .59375-.203125.59375-.625 0-.578125-.640625-.734375-1.015625-.734375-.640625 0-1.015625.578125-1.140625.84375-.28125-.734375-.875-.84375-1.1875-.84375-1.125 0-1.75 1.421875-1.75 1.6875 0 .109375.109375.109375.125.109375.09375 0 .125-.015625.140625-.125.375-1.15625 1.09375-1.421875 1.46875-1.421875.203125 0 .59375.09375.59375.734375 0 .328125-.1875 1.0625-.59375 2.59375-.171875.671875-.5625 1.125-1.03125 1.125-.078125 0-.328125 0-.546875-.140625.265625-.046875.5-.28125.5-.578125s-.234375-.390625-.390625-.390625c-.328125 0-.609375.28125-.609375.640625 0 .5.546875.71875 1.03125.71875.71875 0 1.109375-.765625 1.140625-.828125.140625.390625.53125.828125 1.1875.828125 1.109375 0 1.734375-1.40625 1.734375-1.6875 0-.109375-.09375-.109375-.125-.109375-.09375 0-.125.046875-.140625.125-.359375 1.171875-1.109375 1.421875-1.453125 1.421875-.421875 0-.59375-.34375-.59375-.71875 0-.234375.0625-.46875.171875-.953125zm0 0"/></symbol><symbol id="b" overflow="visible"><path d="m6.734375-7.546875c-.046875-.21875-.0625-.265625-.25-.265625-.109375 0-.1875 0-.34375.203125l-5.515625 7.390625c-.09375.109375-.09375.125-.09375.15625 0 .046875.015625.0625.25.0625h7.515625c.1875 0 .28125 0 .28125-.109375 0-.046875 0-.109375-.015625-.15625zm-.828125.765625 1.5 6h-5.984375zm0 0"/></symbol><symbol id="c" overflow="visible"><path d="m.484375 1.328125c-.078125.375-.109375.453125-.578125.453125-.140625 0-.25 0-.25.203125 0 .09375.046875.125.140625.125.296875 0 .609375-.03125.90625-.03125.359375 0 .734375.03125 1.078125.03125.0625 0 .203125 0 .203125-.21875 0-.109375-.109375-.109375-.265625-.109375-.546875 0-.546875-.078125-.546875-.171875 0-.140625.46875-1.921875.546875-2.1875.140625.3125.4375.703125 1 .703125 1.265625 0 2.625-1.59375 2.625-3.203125 0-1.015625-.625-1.75-1.453125-1.75-.546875 0-1.0625.40625-1.421875.828125-.109375-.59375-.578125-.828125-.984375-.828125-.5 0-.703125.4375-.8125.625-.1875.375-.328125 1.03125-.328125 1.0625 0 .109375.109375.109375.125.109375.109375 0 .125-.015625.1875-.25.1875-.78125.40625-1.296875.796875-1.296875.1875 0 .328125.078125.328125.5 0 .25-.03125.375-.0625.5625zm1.921875-4.734375c.078125-.296875.375-.59375.578125-.765625.375-.328125.6875-.40625.875-.40625.4375 0 .703125.375.703125 1.015625 0 .65625-.359375 1.90625-.5625 2.3125-.375.765625-.890625 1.125-1.296875 1.125-.71875 0-.859375-.90625-.859375-.96875 0-.015625 0-.046875.03125-.171875zm0 0"/></symbol><symbol id="d" overflow="visible"><path d="m2.21875-.015625c0-.71875-.28125-1.140625-.703125-1.140625-.359375 0-.578125.265625-.578125.578125 0 .296875.21875.578125.578125.578125.125 0 .265625-.046875.375-.140625.046875-.015625.046875-.03125.0625-.03125s.015625.015625.015625.15625c0 .8125-.375 1.46875-.734375 1.828125-.125.125-.125.140625-.125.171875 0 .078125.0625.125.109375.125.125 0 1-.84375 1-2.125zm0 0"/></symbol><symbol id="e" overflow="visible"><path d="m5.296875-4.15625c.046875-.15625.046875-.171875.046875-.25 0-.203125-.15625-.296875-.3125-.296875-.109375 0-.28125.0625-.390625.234375-.015625.046875-.109375.390625-.140625.59375-.078125.28125-.15625.578125-.21875.859375l-.5 1.96875c-.046875.15625-.515625.921875-1.234375.921875-.546875 0-.671875-.46875-.671875-.875 0-.5.1875-1.1875.5625-2.140625.171875-.453125.21875-.5625.21875-.78125 0-.5-.359375-.90625-.90625-.90625-1.03125 0-1.4375 1.59375-1.4375 1.6875 0 .109375.109375.109375.140625.109375.109375 0 .109375-.015625.171875-.203125.296875-1.015625.734375-1.34375 1.09375-1.34375.09375 0 .28125 0 .28125.34375 0 .28125-.109375.5625-.1875.765625-.4375 1.15625-.640625 1.78125-.640625 2.296875 0 .96875.6875 1.296875 1.34375 1.296875.421875 0 .78125-.1875 1.09375-.5-.140625.578125-.265625 1.109375-.703125 1.6875-.28125.359375-.703125.6875-1.203125.6875-.15625 0-.640625-.03125-.828125-.46875.171875 0 .3125 0 .46875-.125.109375-.09375.21875-.234375.21875-.453125 0-.328125-.296875-.375-.40625-.375-.25 0-.609375.171875-.609375.703125 0 .546875.484375.953125 1.15625.953125 1.125 0 2.25-.984375 2.546875-2.21875zm0 0"/></symbol><symbol id="f" overflow="visible"><path d="m1.453125-.90625c.59375-.625.90625-.90625 1.296875-1.25 0 0 .671875-.578125 1.0625-.96875 1.046875-1.015625 1.28125-1.546875 1.28125-1.59375 0-.109375-.09375-.109375-.125-.109375-.078125 0-.109375.03125-.15625.125-.328125.53125-.5625.703125-.828125.703125-.25 0-.390625-.171875-.546875-.359375-.203125-.25-.390625-.46875-.75-.46875-.828125 0-1.328125 1.015625-1.328125 1.25 0 .0625.03125.125.140625.125.09375 0 .109375-.0625.140625-.125.203125-.5.828125-.515625.921875-.515625.234375 0 .4375.078125.6875.171875.4375.15625.5625.15625.84375.15625-.390625.46875-1.3125 1.25-1.515625 1.4375l-.984375.90625c-.75.734375-1.125 1.359375-1.125 1.4375 0 .109375.109375.109375.125.109375.09375 0 .109375-.03125.1875-.140625.25-.390625.578125-.6875.921875-.6875.25 0 .359375.109375.625.421875.1875.234375.390625.40625.703125.40625 1.078125 0 1.71875-1.390625 1.71875-1.6875 0-.046875-.046875-.109375-.140625-.109375s-.109375.0625-.15625.140625c-.25.71875-.9375.921875-1.296875.921875-.21875 0-.421875-.0625-.640625-.140625-.375-.140625-.546875-.1875-.765625-.1875-.03125 0-.203125 0-.296875.03125zm0 0"/></symbol><symbol id="g" overflow="visible"><path d="m4.78125-7.765625c.0625-.140625.0625-.1875.0625-.203125 0-.109375-.09375-.203125-.21875-.203125-.078125 0-.15625.03125-.1875.09375l-3.78125 10.390625c-.0625.140625-.0625.1875-.0625.203125 0 .109375.109375.203125.21875.203125.140625 0 .1875-.0625.25-.25zm0 0"/></symbol><symbol id="h" overflow="visible"><path d="m.359375 1.890625c-.03125.125-.03125.15625-.03125.171875 0 .15625.125.296875.296875.296875.234375 0 .375-.203125.390625-.234375.046875-.09375.40625-1.5625.703125-2.734375.21875.4375.5625.734375 1.078125.734375 1.265625 0 2.671875-1.546875 2.671875-3.171875 0-1.15625-.71875-1.78125-1.515625-1.78125-1.046875 0-2.203125 1.09375-2.53125 2.421875zm2.421875-2.015625c-.765625 0-.9375-.875-.9375-.96875 0-.046875.046875-.265625.09375-.40625.296875-1.21875.40625-1.609375.640625-2.046875.46875-.796875 1.015625-1.03125 1.359375-1.03125.40625 0 .75.3125.75 1.0625 0 .609375-.3125 1.828125-.609375 2.359375-.359375.6875-.875 1.03125-1.296875 1.03125zm0 0"/></symbol><symbol id="i" overflow="visible"><path d="m4.078125-6.59375c.09375-.390625.125-.515625 1.15625-.515625.328125 0 .421875 0 .421875-.203125 0-.140625-.125-.140625-.1875-.140625-.359375 0-1.25.03125-1.609375.03125-.328125 0-1.125-.03125-1.453125-.03125-.078125 0-.203125 0-.203125.21875 0 .125.09375.125.3125.125.015625 0 .21875 0 .40625.015625.203125.03125.296875.03125.296875.171875 0 .046875-.015625.078125-.046875.21875l-1.453125 5.859375c-.109375.421875-.140625.5-1 .5-.1875 0-.296875 0-.296875.21875 0 .125.109375.125.296875.125h5.046875c.265625 0 .28125 0 .34375-.1875l.859375-2.359375c.046875-.109375.046875-.140625.046875-.140625 0-.046875-.03125-.125-.140625-.125-.09375 0-.109375.046875-.171875.234375-.375 1-.859375 2.234375-2.75 2.234375h-1.015625c-.15625 0-.171875 0-.25 0-.109375-.015625-.140625-.03125-.140625-.109375 0-.03125 0-.0625.0625-.25zm0 0"/></symbol><symbol id="j" overflow="visible"><path d="m2.09375-.578125c0-.3125-.265625-.578125-.578125-.578125s-.578125.265625-.578125.578125.265625.578125.578125.578125.578125-.265625.578125-.578125zm0 0"/></symbol><symbol id="k" overflow="visible"><path d="m2.25-1.625c.125-.125.453125-.390625.59375-.5.484375-.453125.953125-.890625.953125-1.609375 0-.953125-.796875-1.5625-1.78125-1.5625-.96875 0-1.59375.71875-1.59375 1.4375 0 .390625.3125.4375.421875.4375.171875 0 .421875-.109375.421875-.421875 0-.40625-.40625-.40625-.5-.40625.234375-.59375.765625-.78125 1.15625-.78125.734375 0 1.125.625 1.125 1.296875 0 .828125-.578125 1.4375-1.53125 2.390625l-1 1.046875c-.09375.078125-.09375.09375-.09375.296875h3.140625l.234375-1.421875h-.25c-.015625.15625-.078125.546875-.171875.703125-.046875.0625-.65625.0625-.78125.0625h-1.421875zm0 0"/></symbol><symbol id="l" overflow="visible"><path d="m2.5-5.078125c0-.21875-.015625-.21875-.234375-.21875-.328125.3125-.75.5-1.5.5v.265625c.21875 0 .640625 0 1.109375-.203125v4.078125c0 .296875-.03125.390625-.78125.390625h-.28125v.265625c.328125-.03125 1.015625-.03125 1.375-.03125s1.046875 0 1.375.03125v-.265625h-.28125c-.75 0-.78125-.09375-.78125-.390625zm0 0"/></symbol><symbol id="m" overflow="visible"><path d="m3.890625-2.546875c0-.84375-.078125-1.359375-.34375-1.875-.34375-.703125-1-.875-1.4375-.875-1 0-1.375.75-1.484375.96875-.28125.578125-.296875 1.375-.296875 1.78125 0 .53125.015625 1.328125.40625 1.96875.359375.59375.953125.75 1.375.75.390625 0 1.0625-.125 1.46875-.90625.296875-.578125.3125-1.296875.3125-1.8125zm-1.78125 2.484375c-.265625 0-.8125-.125-.984375-.953125-.09375-.453125-.09375-1.203125-.09375-1.625 0-.546875 0-1.109375.09375-1.546875.171875-.8125.78125-.890625.984375-.890625.265625 0 .828125.140625.984375.859375.09375.4375.09375 1.046875.09375 1.578125 0 .46875 0 1.1875-.09375 1.640625-.171875.828125-.71875.9375-.984375.9375zm0 0"/></symbol><symbol id="n" overflow="visible"><path d="m7.5-3.5625c.15625 0 .359375 0 .359375-.21875s-.203125-.21875-.359375-.21875h-6.53125c-.15625 0-.359375 0-.359375.21875s.203125.21875.375.21875zm0 2.109375c.15625 0 .359375 0 .359375-.21875s-.203125-.21875-.359375-.21875h-6.515625c-.171875 0-.375 0-.375.21875s.203125.21875.359375.21875zm0 0"/></symbol><symbol id="o" overflow="visible"><path d="m4.453125-2.515625h3.046875c.15625 0 .359375 0 .359375-.203125 0-.21875-.203125-.21875-.359375-.21875h-3.046875v-3.0625c0-.15625 0-.359375-.203125-.359375-.21875 0-.21875.203125-.21875.359375v3.0625h-3.0625c-.15625 0-.359375 0-.359375.21875 0 .203125.203125.203125.359375.203125h3.0625v3.0625c0 .15625 0 .359375.21875.359375.203125 0 .203125-.203125.203125-.359375zm0 0"/></symbol><symbol id="p" overflow="visible"><path d="m3.609375 2.625c0-.046875 0-.0625-.1875-.25-1.359375-1.375-1.703125-3.4375-1.703125-5.09375 0-1.90625.40625-3.796875 1.75-5.171875.140625-.125.140625-.140625.140625-.1875 0-.0625-.046875-.09375-.109375-.09375-.109375 0-1.09375.734375-1.734375 2.125-.5625 1.1875-.6875 2.40625-.6875 3.328125 0 .84375.125 2.15625.71875 3.390625.65625 1.34375 1.59375 2.046875 1.703125 2.046875.0625 0 .109375-.03125.109375-.09375zm0 0"/></symbol><symbol id="q" overflow="visible"><path d="m1.390625-.84375 1.15625-1.125c1.703125-1.5 2.34375-2.09375 2.34375-3.171875 0-1.25-.96875-2.125-2.3125-2.125-1.21875 0-2.03125 1-2.03125 1.96875 0 .625.546875.625.578125.625.1875 0 .5625-.140625.5625-.578125 0-.296875-.1875-.578125-.578125-.578125-.078125 0-.109375 0-.140625.015625.25-.703125.84375-1.109375 1.46875-1.109375 1 0 1.46875.875 1.46875 1.78125 0 .859375-.546875 1.734375-1.140625 2.40625l-2.09375 2.328125c-.125.125-.125.140625-.125.40625h4.046875l.296875-1.890625h-.265625c-.0625.3125-.125.796875-.234375.96875-.078125.078125-.796875.078125-1.046875.078125zm0 0"/></symbol><symbol id="r" overflow="visible"><path d="m3.15625-2.71875c0-.859375-.125-2.171875-.71875-3.40625-.65625-1.34375-1.59375-2.046875-1.703125-2.046875-.0625 0-.109375.03125-.109375.09375 0 .046875 0 .0625.203125.265625 1.0625 1.078125 1.6875 2.8125 1.6875 5.09375 0 1.859375-.40625 3.78125-1.75 5.15625-.140625.125-.140625.140625-.140625.1875 0 .0625.046875.09375.109375.09375.109375 0 1.09375-.734375 1.734375-2.125.546875-1.1875.6875-2.40625.6875-3.3125zm0 0"/></symbol><symbol id="s" overflow="visible"><path d="m6.75-3.671875c.203125-.53125.53125-.6875.921875-.6875v-.34375c-.25.03125-.5625.03125-.796875.03125-.328125 0-.8125-.015625-1.015625-.03125v.34375c.390625 0 .625.203125.625.515625 0 .0625 0 .09375-.046875.234375l-1 2.796875-1.078125-3.046875c-.046875-.125-.046875-.15625-.046875-.203125 0-.296875.421875-.296875.640625-.296875v-.34375c-.3125.015625-.875.03125-1.140625.03125-.328125 0-.640625 0-.96875-.03125v.34375c.40625 0 .578125.015625.6875.15625.0625.0625.171875.390625.25.609375l-.9375 2.640625-1.03125-2.921875c-.0625-.125-.0625-.15625-.0625-.1875 0-.296875.4375-.296875.65625-.296875v-.34375c-.328125.015625-.9375.03125-1.203125.03125-.03125 0-.609375 0-1-.03125v.34375c.53125 0 .671875.03125.796875.375l1.375 3.859375c.0625.15625.09375.25.234375.25s.15625-.078125.21875-.21875l1.09375-3.09375 1.109375 3.09375c.046875.125.078125.21875.21875.21875.15625 0 .1875-.109375.21875-.21875zm0 0"/></symbol><symbol id="t" overflow="visible"><path d="m1.203125-.828125c0 .484375-.125.484375-.859375.484375v.34375c.390625-.015625.9375-.03125 1.234375-.03125.28125 0 .859375.015625 1.21875.03125v-.34375c-.71875 0-.84375 0-.84375-.484375v-2c0-1.140625.765625-1.75 1.46875-1.75.6875 0 .8125.59375.8125 1.203125v2.546875c0 .484375-.125.484375-.859375.484375v.34375c.390625-.015625.9375-.03125 1.234375-.03125.28125 0 .859375.015625 1.21875.03125v-.34375c-.5625 0-.828125 0-.84375-.328125v-2.078125c0-.9375 0-1.28125-.34375-1.671875-.140625-.1875-.5-.40625-1.140625-.40625-.921875 0-1.390625.65625-1.578125 1.078125v-3.8125l-1.578125.109375v.34375c.765625 0 .859375.078125.859375.609375zm0 0"/></symbol><symbol id="u" overflow="visible"><path d="m1.21875-2.75c.0625-1.625.984375-1.890625 1.359375-1.890625 1.125 0 1.234375 1.46875 1.234375 1.890625zm-.015625.234375h3.046875c.25 0 .28125 0 .28125-.234375 0-1.078125-.59375-2.140625-1.953125-2.140625-1.265625 0-2.265625 1.125-2.265625 2.484375 0 1.46875 1.140625 2.53125 2.390625 2.53125 1.328125 0 1.828125-1.21875 1.828125-1.421875 0-.109375-.09375-.125-.140625-.125-.109375 0-.125.0625-.140625.140625-.390625 1.125-1.375 1.125-1.484375 1.125-.546875 0-.984375-.328125-1.234375-.734375-.328125-.515625-.328125-1.234375-.328125-1.625zm0 0"/></symbol><symbol id="v" overflow="visible"><path d="m1.828125-3.625v-1.203125l-1.515625.125v.34375c.75 0 .84375.078125.84375.609375v2.921875c0 .484375-.125.484375-.84375.484375v.34375c.421875-.015625.9375-.03125 1.234375-.03125.4375 0 .953125 0 1.390625.03125v-.34375h-.234375c-.8125 0-.828125-.109375-.828125-.5v-1.6875c0-1.078125.453125-2.046875 1.28125-2.046875.078125 0 .109375 0 .125.015625-.03125 0-.25.140625-.25.421875 0 .296875.234375.46875.46875.46875.203125 0 .46875-.140625.46875-.484375s-.34375-.671875-.8125-.671875c-.796875 0-1.1875.734375-1.328125 1.203125zm0 0"/></symbol><symbol id="w" overflow="visible"><path d="m3.203125-1.796875v.953125c0 .390625-.015625.5-.828125.5h-.21875v.34375c.4375-.03125 1-.03125 1.46875-.03125.453125 0 1.03125 0 1.484375.03125v-.34375h-.234375c-.8125 0-.828125-.109375-.828125-.5v-.953125h1.09375v-.34375h-1.09375v-4.953125c0-.21875 0-.296875-.171875-.296875-.09375 0-.140625 0-.21875.140625l-3.34375 5.109375v.34375zm.0625-.34375h-2.65625l2.65625-4.0625zm0 0"/></symbol><symbol id="x" overflow="visible"><path d="m1.4375-3.578125v-.265625c0-2.75 1.359375-3.140625 1.90625-3.140625.265625 0 .71875.0625.96875.4375-.171875 0-.609375 0-.609375.484375 0 .34375.265625.5.5.5.1875 0 .515625-.09375.515625-.515625 0-.65625-.484375-1.1875-1.390625-1.1875-1.390625 0-2.875 1.40625-2.875 3.8125 0 2.921875 1.265625 3.6875 2.28125 3.6875 1.21875 0 2.25-1.015625 2.25-2.453125 0-1.390625-.96875-2.4375-2.1875-2.4375-.734375 0-1.140625.5625-1.359375 1.078125zm1.296875 3.515625c-.6875 0-1.015625-.65625-1.078125-.828125-.1875-.5-.1875-1.375-.1875-1.578125 0-.84375.34375-1.9375 1.328125-1.9375.171875 0 .671875 0 1.015625.671875.1875.40625.1875.96875.1875 1.5 0 .515625 0 1.0625-.1875 1.453125-.328125.65625-.828125.71875-1.078125.71875zm0 0"/></symbol><symbol id="y" overflow="visible"><path d="m3.15625-3.84375c.90625-.296875 1.53125-1.046875 1.53125-1.921875 0-.890625-.953125-1.5-2-1.5-1.109375 0-1.9375.65625-1.9375 1.484375 0 .359375.25.5625.5625.5625.328125 0 .546875-.234375.546875-.546875 0-.546875-.5-.546875-.671875-.546875.34375-.53125 1.0625-.671875 1.453125-.671875.453125 0 1.046875.234375 1.046875 1.21875 0 .125-.015625.765625-.3125 1.234375-.328125.53125-.6875.5625-.96875.578125-.078125 0-.34375.03125-.421875.03125-.09375 0-.15625.015625-.15625.125 0 .125.0625.125.25.125h.484375c.890625 0 1.296875.734375 1.296875 1.8125 0 1.484375-.75 1.796875-1.234375 1.796875-.46875 0-1.28125-.1875-1.671875-.828125.390625.046875.71875-.1875.71875-.609375 0-.390625-.28125-.609375-.609375-.609375-.25 0-.609375.15625-.609375.640625 0 .984375 1.015625 1.703125 2.203125 1.703125 1.328125 0 2.328125-.984375 2.328125-2.09375 0-.90625-.6875-1.75-1.828125-1.984375zm0 0"/></symbol><symbol id="z" overflow="visible"><path d="m3.203125-6.984375c0-.25 0-.28125-.25-.28125-.671875.703125-1.640625.703125-1.984375.703125v.328125c.21875 0 .859375 0 1.4375-.28125v5.65625c0 .390625-.046875.515625-1.015625.515625h-.359375v.34375c.390625-.03125 1.328125-.03125 1.765625-.03125s1.390625 0 1.765625.03125v-.34375h-.34375c-.984375 0-1.015625-.109375-1.015625-.515625zm0 0"/></symbol><symbol id="A" overflow="visible"><path d="m2.265625-2.109375c.25.03125 1.140625.21875 1.140625 1 0 .546875-.390625.984375-1.234375.984375-.921875 0-1.3125-.609375-1.515625-1.546875-.03125-.140625-.046875-.1875-.15625-.1875-.140625 0-.140625.078125-.140625.28125v1.4375c0 .1875 0 .265625.125.265625.046875 0 .0625-.015625.265625-.21875.03125-.03125.03125-.046875.21875-.25.484375.453125.96875.46875 1.203125.46875 1.25 0 1.75-.734375 1.75-1.515625 0-.578125-.328125-.90625-.453125-1.046875-.359375-.34375-.78125-.4375-1.25-.515625-.609375-.125-1.328125-.265625-1.328125-.890625 0-.390625.28125-.828125 1.21875-.828125 1.1875 0 1.25.96875 1.265625 1.3125.015625.09375.109375.09375.140625.09375.140625 0 .140625-.046875.140625-.25v-1.109375c0-.1875 0-.265625-.125-.265625-.046875 0-.078125 0-.21875.140625-.03125.03125-.140625.140625-.1875.171875-.40625-.3125-.859375-.3125-1.015625-.3125-1.328125 0-1.75.734375-1.75 1.34375 0 .390625.171875.6875.46875.921875.34375.296875.65625.359375 1.4375.515625zm0 0"/></symbol><symbol id="B" overflow="visible"><path d="m1.9375-4.828125-1.53125.125v.34375c.703125 0 .796875.0625.796875.59375v2.9375c0 .484375-.109375.484375-.84375.484375v.34375c.34375-.015625.9375-.03125 1.203125-.03125.375 0 .765625.015625 1.125.03125v-.34375c-.71875 0-.75-.046875-.75-.46875zm.03125-1.890625c0-.34375-.265625-.578125-.578125-.578125-.328125 0-.578125.296875-.578125.578125 0 .296875.25.578125.578125.578125.3125 0 .578125-.234375.578125-.578125zm0 0"/></symbol><symbol id="C" overflow="visible"><path d="m1.203125-3.75v2.921875c0 .484375-.125.484375-.859375.484375v.34375c.390625-.015625.9375-.03125 1.234375-.03125.28125 0 .859375.015625 1.21875.03125v-.34375c-.71875 0-.84375 0-.84375-.484375v-2c0-1.140625.765625-1.75 1.46875-1.75.6875 0 .8125.59375.8125 1.203125v2.546875c0 .484375-.125.484375-.859375.484375v.34375c.390625-.015625.9375-.03125 1.234375-.03125.28125 0 .859375.015625 1.21875.03125v-.34375c-.5625 0-.828125 0-.84375-.328125v-2.078125c0-.9375 0-1.28125-.34375-1.671875-.140625-.1875-.5-.40625-1.140625-.40625-.796875 0-1.3125.46875-1.609375 1.15625v-1.15625l-1.546875.125v.34375c.765625 0 .859375.078125.859375.609375zm0 0"/></symbol><symbol id="D" overflow="visible"><path d="m4.890625-2.1875c0-1.296875-.890625-2.390625-2.0625-2.390625-.53125 0-1 .171875-1.390625.546875v-2.125c.21875.078125.578125.140625.921875.140625 1.34375 0 2.109375-.984375 2.109375-1.125 0-.0625-.03125-.125-.109375-.125 0 0-.03125 0-.078125.03125-.21875.109375-.765625.3125-1.484375.3125-.4375 0-.9375-.0625-1.453125-.296875-.09375-.03125-.109375-.03125-.140625-.03125-.109375 0-.109375.078125-.109375.265625v3.21875c0 .203125 0 .28125.15625.28125.078125 0 .109375-.03125.140625-.09375.125-.171875.53125-.765625 1.40625-.765625.578125 0 .84375.5.9375.703125.171875.40625.1875.828125.1875 1.375 0 .375 0 1.03125-.25 1.484375-.265625.4375-.671875.71875-1.171875.71875-.796875 0-1.421875-.578125-1.609375-1.21875.03125 0 .0625.015625.1875.015625.359375 0 .546875-.265625.546875-.53125s-.1875-.53125-.546875-.53125c-.15625 0-.53125.078125-.53125.578125 0 .9375.75 1.984375 1.96875 1.984375 1.265625 0 2.375-1.046875 2.375-2.421875zm0 0"/></symbol><symbol id="E" overflow="visible"><path d="m3.046875-3.171875h.75c.15625 0 .25 0 .25-.15625 0-.109375-.109375-.109375-.234375-.109375h-.71875c.140625-.71875.21875-1.171875.296875-1.53125.03125-.125.046875-.21875.171875-.3125.109375-.09375.171875-.109375.25-.109375.125 0 .25.03125.359375.09375-.046875.015625-.09375.03125-.125.0625-.140625.078125-.234375.21875-.234375.375 0 .1875.140625.296875.3125.296875.234375 0 .453125-.203125.453125-.484375 0-.375-.390625-.5625-.765625-.5625-.28125 0-.78125.125-1.03125.859375-.078125.1875-.078125.203125-.28125 1.3125h-.609375c-.15625 0-.25 0-.25.15625 0 .109375.109375.109375.234375.109375h.578125l-.578125 3.09375c-.15625.796875-.265625 1.484375-.703125 1.484375-.015625 0-.1875 0-.328125-.09375.359375-.09375.359375-.421875.359375-.4375 0-.1875-.140625-.296875-.3125-.296875-.21875 0-.453125.1875-.453125.484375 0 .34375.34375.5625.734375.5625.5 0 .828125-.515625.9375-.703125.28125-.53125.46875-1.53125.484375-1.609375zm0 0"/></symbol><symbol id="F" overflow="visible"><path d="m1.53125-1.09375c.09375-.34375.1875-.6875.265625-1.046875 0-.015625.0625-.234375.0625-.28125.03125-.078125.234375-.40625.4375-.59375.25-.234375.53125-.28125.671875-.28125.078125 0 .234375.015625.34375.109375-.34375.078125-.390625.359375-.390625.4375 0 .171875.125.296875.3125.296875.203125 0 .453125-.171875.453125-.5 0-.28125-.25-.5625-.703125-.5625-.546875 0-.90625.359375-1.078125.578125-.15625-.578125-.703125-.578125-.78125-.578125-.28125 0-.484375.1875-.609375.4375-.1875.359375-.28125.765625-.28125.78125 0 .078125.0625.109375.125.109375.109375 0 .109375-.03125.171875-.25.09375-.390625.234375-.859375.5625-.859375.21875 0 .265625.203125.265625.375 0 .15625-.046875.296875-.109375.5625-.015625.0625-.140625.53125-.171875.640625l-.296875 1.203125c-.03125.125-.078125.3125-.078125.34375 0 .1875.15625.25.265625.25.28125 0 .328125-.21875.390625-.5zm0 0"/></symbol><symbol id="G" overflow="visible"><path d="m4.125-3c.03125-.109375.03125-.125.03125-.1875 0-.203125-.15625-.25-.25-.25-.046875 0-.21875.015625-.328125.21875-.015625.046875-.09375.328125-.125.5l-.484375 1.90625c0 .03125-.34375.671875-.921875.671875-.390625 0-.53125-.296875-.53125-.640625 0-.46875.265625-1.171875.453125-1.640625.078125-.203125.109375-.265625.109375-.421875 0-.4375-.359375-.671875-.71875-.671875-.796875 0-1.125 1.125-1.125 1.21875 0 .078125.0625.109375.125.109375.109375 0 .109375-.046875.140625-.125.203125-.703125.546875-.984375.828125-.984375.125 0 .1875.078125.1875.265625 0 .171875-.0625.359375-.109375.5-.328125.84375-.46875 1.25-.46875 1.625 0 .78125.59375.984375 1.0625.984375.375 0 .640625-.171875.84375-.34375-.125.4375-.203125.75-.5 1.140625-.265625.3125-.578125.53125-.9375.53125-.140625 0-.4375-.03125-.59375-.265625.421875-.03125.453125-.390625.453125-.4375 0-.1875-.15625-.296875-.3125-.296875-.1875 0-.453125.140625-.453125.53125 0 .375.34375.6875.90625.6875.8125 0 1.71875-.65625 1.96875-1.609375zm0 0"/></symbol><symbol id="H" overflow="visible"><path d="m3.125-3.03125c-.078125-.140625-.296875-.484375-.796875-.484375-.9375 0-1.984375 1.109375-1.984375 2.28125 0 .84375.53125 1.3125 1.140625 1.3125.515625 0 .953125-.40625 1.09375-.5625.140625.546875.6875.5625.78125.5625.375 0 .546875-.296875.609375-.4375.171875-.28125.28125-.75.28125-.78125 0-.046875-.03125-.109375-.125-.109375s-.109375.0625-.171875.25c-.109375.4375-.25.859375-.5625.859375-.1875 0-.265625-.15625-.265625-.375 0-.140625.078125-.40625.125-.609375s.171875-.671875.203125-.8125l.15625-.609375c.046875-.1875.125-.53125.125-.5625 0-.1875-.15625-.25-.25-.25-.125 0-.328125.078125-.359375.328125zm-.546875 2.171875c-.390625.546875-.8125.71875-1.0625.71875-.375 0-.546875-.34375-.546875-.75 0-.375.203125-1.234375.390625-1.578125.21875-.484375.609375-.828125.984375-.828125.515625 0 .671875.59375.671875.6875 0 .03125-.203125.8125-.25 1.015625-.109375.375-.109375.390625-.1875.734375zm0 0"/></symbol><symbol id="I" overflow="visible"><path d="m4-3.171875c-.359375.078125-.375.390625-.375.421875 0 .171875.140625.296875.3125.296875s.4375-.140625.4375-.484375c0-.453125-.5-.578125-.796875-.578125-.359375 0-.671875.265625-.859375.578125-.171875-.421875-.578125-.578125-.90625-.578125-.875 0-1.359375 1-1.359375 1.21875 0 .078125.0625.109375.125.109375.09375 0 .109375-.046875.125-.140625.1875-.578125.671875-.96875 1.078125-.96875.3125 0 .46875.234375.46875.515625 0 .15625-.09375.53125-.15625.78125-.0625.234375-.234375.9375-.28125 1.09375-.109375.421875-.390625.765625-.75.765625-.03125 0-.234375 0-.40625-.109375.359375-.09375.359375-.421875.359375-.4375 0-.1875-.140625-.296875-.3125-.296875-.21875 0-.453125.1875-.453125.484375 0 .375.390625.578125.796875.578125.421875 0 .71875-.3125.859375-.578125.1875.390625.546875.578125.9375.578125.859375 0 1.34375-1 1.34375-1.21875 0-.078125-.0625-.109375-.125-.109375-.09375 0-.109375.0625-.140625.140625-.15625.53125-.609375.96875-1.0625.96875-.265625 0-.453125-.171875-.453125-.515625 0-.15625.046875-.34375.15625-.78125.046875-.25.21875-.9375.265625-1.09375.109375-.421875.390625-.765625.75-.765625.046875 0 .25 0 .421875.125zm0 0"/></symbol><symbol id="J" overflow="visible"><path d="m1.9375-5.296875c.015625-.015625.03125-.109375.03125-.125 0-.03125-.03125-.109375-.125-.109375-.03125 0-.28125.03125-.453125.046875l-.453125.03125c-.171875.015625-.25.015625-.25.15625 0 .125.109375.125.203125.125.390625 0 .390625.046875.390625.109375 0 .046875-.09375.375-.140625.546875l-.6875 2.78125c-.0625.265625-.0625.390625-.0625.515625 0 .828125.5 1.296875 1.109375 1.296875.984375 0 2-1.125 2-2.28125 0-.796875-.5-1.3125-1.140625-1.3125-.453125 0-.796875.28125-.96875.4375zm-.4375 5.15625c-.28125 0-.5625-.21875-.5625-.8125 0-.203125.03125-.40625.125-.796875.046875-.21875.109375-.453125.171875-.6875.046875-.140625.046875-.15625.140625-.265625.265625-.34375.625-.59375.953125-.59375.40625 0 .5625.390625.5625.75 0 .296875-.1875 1.15625-.421875 1.625-.203125.421875-.59375.78125-.96875.78125zm0 0"/></symbol><symbol id="K" overflow="visible"><path d="m7.1875-2.515625c.1875 0 .375 0 .375-.203125 0-.21875-.1875-.21875-.375-.21875h-5.90625c-.1875 0-.375 0-.375.21875 0 .203125.1875.203125.375.203125zm0 0"/></symbol><symbol id="L" overflow="visible"><path d="m7.484375-4.625c.1875 0 .390625 0 .390625-.21875s-.203125-.21875-.375-.21875h-6.515625c-.1875 0-.390625 0-.390625.21875s.21875.21875.40625.21875zm.015625 4.234375c.171875 0 .375 0 .375-.21875s-.203125-.21875-.390625-.21875h-6.484375c-.1875 0-.40625 0-.40625.21875s.203125.21875.390625.21875zm0-2.125c.171875 0 .375 0 .375-.203125 0-.21875-.203125-.21875-.375-.21875h-6.515625c-.1875 0-.390625 0-.390625.21875 0 .203125.203125.203125.390625.203125zm0 0"/></symbol><symbol id="M" overflow="visible"><path d="m4.25-3.03125-2.1875-2.171875c-.125-.125-.15625-.15625-.234375-.15625-.109375 0-.21875.109375-.21875.21875 0 .078125.015625.109375.140625.21875l2.171875 2.203125-2.171875 2.1875c-.125.109375-.140625.140625-.140625.21875 0 .109375.109375.21875.21875.21875.078125 0 .109375-.03125.234375-.15625l2.171875-2.171875 2.25 2.265625c.03125 0 .109375.0625.171875.0625.125 0 .21875-.109375.21875-.21875 0-.03125 0-.0625-.03125-.125-.015625-.015625-1.75-1.734375-2.296875-2.28125l2-2c.046875-.0625.21875-.203125.265625-.28125.015625-.015625.0625-.0625.0625-.140625 0-.109375-.09375-.21875-.21875-.21875-.09375 0-.140625.046875-.25.171875zm0 0"/></symbol><symbol id="N" overflow="visible"><path d="m1.859375-3h1.484375c0 .453125 0 .625.390625.625.359375 0 .359375-.25.359375-.453125v-1.015625c0-.203125 0-.4375-.359375-.4375-.390625 0-.390625.171875-.390625.609375h-1.484375v-2.328125h2.734375v.578125c0 .203125 0 .453125.375.453125s.375-.234375.375-.453125v-.796875c0-.328125-.0625-.4375-.4375-.4375h-4.15625c-.171875 0-.4375 0-.4375.328125s.28125.328125.4375.328125h.359375v5.328125h-.359375c-.171875 0-.4375 0-.4375.34375 0 .328125.28125.328125.4375.328125h1.6875c.15625 0 .4375 0 .4375-.328125 0-.34375-.265625-.34375-.4375-.34375h-.578125zm0 0"/></symbol><symbol id="O" overflow="visible"><path d="m3.390625-6.34375c0-.171875 0-.4375-.328125-.4375-.203125 0-.265625.125-.328125.265625-.40625.921875-.984375 1.046875-1.1875 1.0625-.171875.015625-.40625.03125-.40625.34375 0 .265625.203125.328125.359375.328125.21875 0 .65625-.078125 1.140625-.484375v4.59375h-1c-.171875 0-.4375 0-.4375.34375 0 .328125.28125.328125.4375.328125h2.75c.15625 0 .4375 0 .4375-.328125 0-.34375-.265625-.34375-.4375-.34375h-1zm0 0"/></symbol><symbol id="P" overflow="visible"><path d="m3.453125-6.375c-.109375-.40625-.25-.421875-.59375-.421875-.3125 0-.5 0-.59375.421875l-1.3125 5.703125c-.15625 0-.40625 0-.46875.03125-.125.0625-.1875.171875-.1875.3125 0 .328125.28125.328125.46875.328125h1.109375c.203125 0 .453125 0 .453125-.328125 0-.34375-.21875-.34375-.609375-.34375l.25-1.125h1.765625l.25 1.125c-.390625 0-.609375 0-.609375.34375 0 .328125.265625.328125.46875.328125h1.109375c.1875 0 .46875 0 .46875-.328125 0-.140625-.0625-.25-.1875-.296875-.0625-.046875-.3125-.046875-.46875-.046875zm-.59375.46875h.015625l.703125 3.4375h-1.4375zm0 0"/></symbol><symbol id="Q" overflow="visible"><path d="m2.078125-6.265625c-.140625-.359375-.296875-.390625-.59375-.390625h-.75c-.15625 0-.421875 0-.421875.3125 0 .34375.25.34375.421875.34375h.28125v5.328125h-.28125c-.15625 0-.421875 0-.421875.328125 0 .34375.25.34375.421875.34375h1.15625c.171875 0 .4375 0 .4375-.328125 0-.34375-.25-.34375-.4375-.34375h-.265625v-5.171875h.015625l2 5.453125c.140625.375.3125.390625.609375.390625.3125 0 .453125-.03125.453125-.453125v-5.546875h.265625c.171875 0 .4375 0 .4375-.328125s-.265625-.328125-.4375-.328125h-1.15625c-.171875 0-.4375 0-.4375.328125s.28125.328125.4375.328125h.28125v5.1875h-.015625zm0 0"/></symbol><symbol id="R" overflow="visible"><path d="m4.890625-2.28125c.265625 0 .515625 0 .515625-.34375 0-.3125-.28125-.3125-.4375-.3125h-1.296875c-.171875 0-.4375 0-.4375.3125 0 .34375.25.34375.4375.34375h.453125c-.140625 1.21875-.671875 1.734375-1.25 1.734375-.875 0-1.703125-1.171875-1.703125-2.78125 0-1.671875.875-2.796875 1.71875-2.796875.375 0 1.0625.25 1.25 1.4375.03125.1875.09375.3125.375.3125.375 0 .375-.234375.375-.453125v-1.515625c0-.171875 0-.4375-.328125-.4375-.21875 0-.28125.125-.4375.484375-.390625-.328125-.828125-.484375-1.28125-.484375-1.3125 0-2.421875 1.46875-2.421875 3.4375 0 2.015625 1.125 3.46875 2.421875 3.46875.625 0 1.078125-.328125 1.296875-.578125 0 .234375 0 .453125.390625.453125.359375 0 .359375-.234375.359375-.453125zm0 0"/></symbol><symbol id="S" overflow="visible"><path d="m1.9375-6h.609375c.15625 0 .453125 0 .453125-.328125s-.28125-.328125-.453125-.328125h-1.765625c-.171875 0-.4375 0-.4375.328125s.28125.328125.4375.328125h.40625v5.328125h-.40625c-.171875 0-.4375 0-.4375.34375 0 .328125.28125.328125.4375.328125h4.109375c.359375 0 .4375-.09375.4375-.453125v-.96875c0-.21875 0-.4375-.375-.4375-.390625 0-.390625.21875-.390625.4375v.75h-2.625zm0 0"/></symbol><symbol id="T" overflow="visible"><path d="m1.0625-.671875h-.328125c-.171875 0-.453125 0-.453125.34375 0 .328125.28125.328125.453125.328125h4.296875c.375 0 .4375-.09375.4375-.453125v-.96875c0-.203125 0-.4375-.359375-.4375-.390625 0-.390625.21875-.390625.4375v.75h-2.90625v-2.453125h1.421875c0 .453125 0 .625.390625.625.359375 0 .359375-.234375.359375-.4375v-1.015625c0-.21875 0-.453125-.359375-.453125-.390625 0-.390625.171875-.390625.625h-1.421875v-2.21875h2.671875v.578125c0 .203125 0 .453125.375.453125s.375-.234375.375-.453125v-.796875c0-.328125-.0625-.4375-.4375-.4375h-4.0625c-.171875 0-.453125 0-.453125.3125 0 .34375.28125.34375.453125.34375h.328125zm0 0"/></symbol><symbol id="U" overflow="visible"><path d="m3.015625-3.90625 1.65625-2.09375c.390625 0 .625 0 .625-.34375 0-.3125-.296875-.3125-.453125-.3125h-.96875c-.15625 0-.4375 0-.4375.328125s.296875.328125.4375.328125l-2.296875 2.90625v-2.90625h.25c.15625 0 .4375 0 .4375-.328125s-.265625-.328125-.4375-.328125h-1.09375c-.171875 0-.453125 0-.453125.3125 0 .34375.28125.34375.453125.34375h.234375v5.328125h-.234375c-.171875 0-.453125 0-.453125.328125 0 .34375.28125.34375.453125.34375h1.09375c.15625 0 .4375 0 .4375-.328125 0-.34375-.265625-.34375-.4375-.34375h-.25v-1.4375l1.015625-1.28125 1.53125 2.71875c-.15625 0-.4375 0-.4375.328125 0 .34375.265625.34375.453125.34375h.8125c.15625 0 .453125 0 .453125-.328125 0-.34375-.265625-.34375-.578125-.34375-.015625-.03125-.0625-.109375-.078125-.125zm0 0"/></symbol><symbol id="V" overflow="visible"><path d="m5.171875-3.328125c0-2.03125-1.109375-3.453125-2.3125-3.453125-1.21875 0-2.3125 1.453125-2.3125 3.4375 0 2.03125 1.109375 3.46875 2.3125 3.46875 1.21875 0 2.3125-1.46875 2.3125-3.453125zm-2.3125 2.78125c-.859375 0-1.5625-1.28125-1.5625-2.90625 0-1.578125.75-2.671875 1.5625-2.671875.796875 0 1.5625 1.078125 1.5625 2.671875 0 1.625-.71875 2.90625-1.5625 2.90625zm0 0"/></symbol><symbol id="W" overflow="visible"><path d="m.734375-.625c-.109375.078125-.171875.140625-.171875.28125 0 .34375.28125.34375.453125.34375h3.703125c.359375 0 .421875-.09375.421875-.453125v-.28125c0-.203125 0-.4375-.359375-.4375-.390625 0-.390625.203125-.390625.5h-2.59375c.640625-.546875 1.6875-1.375 2.15625-1.796875.6875-.625 1.1875-1.3125 1.1875-2.1875 0-1.3125-1.09375-2.125-2.421875-2.125-1.296875 0-2.15625.890625-2.15625 1.8125 0 .40625.3125.53125.5.53125.21875 0 .46875-.1875.46875-.484375 0-.140625-.046875-.28125-.140625-.359375.15625-.5.671875-.84375 1.265625-.84375.90625 0 1.734375.515625 1.734375 1.46875 0 .765625-.53125 1.390625-1.25 2zm0 0"/></symbol><symbol id="X" overflow="visible"><path d="m2.109375-3.78125c.046875-.09375.078125-.15625.078125-.234375 0-.265625-.25-.4375-.46875-.4375-.3125 0-.40625.28125-.4375.390625l-1.015625 3.4375c-.03125.09375-.03125.109375-.03125.125 0 .0625.046875.078125.125.109375.15625.0625.171875.0625.1875.0625s.0625 0 .125-.140625zm0 0"/></symbol><use x="48.872" xlink:href="#a" y="15.851"/><use x="55.107" xlink:href="#k" y="17.487"/><use x="62.87" xlink:href="#n" y="15.851"/><use x="71.355" xlink:href="#a" y="15.851"/><use x="77.589" xlink:href="#l" y="17.487"/><use x="84.746" xlink:href="#o" y="15.851"/><g><use x="95.655" xlink:href="#b" y="15.851"/><use x="104.745553" xlink:href="#a" y="15.851"/></g><use x="110.981" xlink:href="#E" y="17.628"/><use x="115.92565" xlink:href="#F" y="17.628"/><use x="121.678" xlink:href="#c" y="8.471"/><use x="127.166" xlink:href="#l" y="10.107"/><use x="134.323" xlink:href="#K" y="8.471"/><use x="145.232" xlink:href="#c" y="8.471"/><use x="150.721" xlink:href="#m" y="10.107"/><path d="m.0016875.00190625h33.7734375" fill="none" stroke="#000" stroke-miterlimit="10" stroke-width=".436" transform="matrix(1 0 0 -1 121.678 13.123)"/><use x="133.455" xlink:href="#c" y="23.334"/><use x="138.944" xlink:href="#l" y="24.97"/><use x="160.285" xlink:href="#d" y="15.851"/><use x="45.147" xlink:href="#c" y="46.117"/><use x="50.635" xlink:href="#G" y="47.753"/><use x="55.107" xlink:href="#k" y="47.753"/><use x="62.87" xlink:href="#n" y="46.117"/><use x="71.355" xlink:href="#c" y="46.117"/><use x="76.843" xlink:href="#G" y="47.753"/><use x="81.315" xlink:href="#l" y="47.753"/><use x="88.471" xlink:href="#o" y="46.117"/><use x="99.38" xlink:href="#e" y="46.117"/><use x="104.729" xlink:href="#l" y="47.753"/><g><use x="110.657" xlink:href="#b" y="38.535"/><use x="119.747553" xlink:href="#e" y="38.535"/></g><use x="125.096" xlink:href="#E" y="40.312"/><use x="130.04065" xlink:href="#F" y="40.312"/><use x="137.022" xlink:href="#K" y="38.535"/><g><use x="147.931" xlink:href="#b" y="38.535"/><use x="157.021553" xlink:href="#e" y="38.535"/></g><use x="162.37" xlink:href="#E" y="40.312"/><use x="167.31465" xlink:href="#F" y="40.312"/><use x="171.375416" xlink:href="#H" y="40.312"/><use x="176.37" xlink:href="#e" y="38.535"/><use x="182.11" xlink:href="#k" y="34.576"/><use x="181.719" xlink:href="#l" y="41.458"/><path d="m-.00075-.001625h76.1875" fill="none" stroke="#000" stroke-miterlimit="10" stroke-width=".436" transform="matrix(1 0 0 -1 110.657 43.389)"/><use x="143.639" xlink:href="#c" y="53.81"/><use x="149.128" xlink:href="#k" y="50.053"/><use x="149.128" xlink:href="#l" y="56.934"/><use x="191.674" xlink:href="#d" y="46.116"/><use x="50.034" xlink:href="#f" y="77.596"/><use x="55.107" xlink:href="#k" y="79.232"/><use x="62.87" xlink:href="#n" y="77.596"/><use x="71.355" xlink:href="#f" y="77.596"/><use x="76.428" xlink:href="#l" y="79.232"/><use x="83.584" xlink:href="#o" y="77.596"/><g><use x="95.689" xlink:href="#b" y="70.015"/><use x="104.779553" xlink:href="#a" y="70.015"/></g><use x="111.015" xlink:href="#E" y="71.792"/><use x="115.95965" xlink:href="#F" y="71.792"/><use x="120.516" xlink:href="#c" y="70.015"/><use x="126.005" xlink:href="#I" y="71.651"/><use x="130.772" xlink:href="#l" y="71.651"/><use x="137.928" xlink:href="#o" y="70.015"/><use x="148.834918" xlink:href="#p" y="70.015"/><g><use x="153.08" xlink:href="#b" y="70.015"/><use x="162.170553" xlink:href="#e" y="70.015"/></g><use x="167.519" xlink:href="#E" y="71.792"/><use x="172.46365" xlink:href="#F" y="71.792"/><use x="179.445" xlink:href="#K" y="70.015"/><g><use x="190.354" xlink:href="#b" y="70.015"/><use x="199.444553" xlink:href="#e" y="70.015"/></g><use x="204.793" xlink:href="#E" y="71.792"/><use x="209.73765" xlink:href="#F" y="71.792"/><use x="213.798416" xlink:href="#H" y="71.792"/><use x="218.793" xlink:href="#e" y="70.015"/><use x="224.533" xlink:href="#k" y="66.056"/><use x="224.141" xlink:href="#l" y="72.938"/><use x="229.265" xlink:href="#g" y="70.015"/><g><use x="234.72" xlink:href="#q" y="70.015"/><use x="240.17455" xlink:href="#r" y="70.015"/></g><use x="244.417" xlink:href="#e" y="70.015"/><use x="250.157" xlink:href="#k" y="66.056"/><use x="249.765" xlink:href="#l" y="72.938"/><use x="254.889" xlink:href="#g" y="70.015"/><g><use x="260.343" xlink:href="#p" y="70.015"/><use x="264.585549" xlink:href="#q" y="70.015"/></g><use x="270.04" xlink:href="#c" y="70.015"/><use x="275.529" xlink:href="#l" y="71.651"/><use x="280.261" xlink:href="#r" y="70.015"/><path d="m-.0015.0018125h188.816406" fill="none" stroke="#000" stroke-miterlimit="10" stroke-width=".436" transform="matrix(1 0 0 -1 95.689 74.869)"/><use x="184.986" xlink:href="#c" y="85.079"/><use x="190.475" xlink:href="#l" y="86.716"/><use x="289.336" xlink:href="#d" y="77.596"/><g><use x="3.467" xlink:href="#s" y="107.661"/><use x="11.345552" xlink:href="#t" y="107.661"/><use x="17.406648" xlink:href="#u" y="107.661"/><use x="22.254652" xlink:href="#v" y="107.661"/><use x="26.527746" xlink:href="#u" y="107.661"/></g><g><use x="35.012" xlink:href="#b" y="107.661"/><use x="44.102553" xlink:href="#a" y="107.661"/></g><use x="50.338" xlink:href="#E" y="109.438"/><use x="55.28265" xlink:href="#F" y="109.438"/><use x="62.87" xlink:href="#L" y="107.661"/><g><use x="74.792" xlink:href="#N" y="100.281"/><use x="80.519277" xlink:href="#O" y="100.281"/></g><use x="86.246" xlink:href="#k" y="96.322"/><path d="m.00078125-.00059375h20.66796875" fill="none" stroke="#000" stroke-miterlimit="10" stroke-width=".436" transform="matrix(1 0 0 -1 72.55 104.933)"/><g><use x="72.55" xlink:href="#q" y="115.144"/><use x="78.00455" xlink:href="#w" y="115.144"/></g><use x="83.459" xlink:href="#h" y="115.144"/><use x="89.099" xlink:href="#J" y="116.921"/><use x="98.052" xlink:href="#d" y="107.661"/><g><use x="35.898" xlink:href="#b" y="135.297"/><use x="44.988553" xlink:href="#e" y="135.297"/></g><use x="50.338" xlink:href="#E" y="137.074"/><use x="55.28265" xlink:href="#F" y="137.074"/><use x="62.87" xlink:href="#L" y="135.297"/><g><use x="74.736" xlink:href="#N" y="127.917"/><use x="80.463277" xlink:href="#O" y="127.917"/></g><path d="m.00078125-.0013125h15.82812475" fill="none" stroke="#000" stroke-miterlimit="10" stroke-width=".436" transform="matrix(1 0 0 -1 72.55 132.569)"/><use x="72.55" xlink:href="#x" y="142.991"/><use x="78.005" xlink:href="#h" y="142.991"/><use x="83.645" xlink:href="#k" y="139.233"/><use x="83.645" xlink:href="#J" y="146.513"/><use x="93.209" xlink:href="#d" y="135.297"/><g><use x="31.4" xlink:href="#b" y="164.909"/><use x="40.490553" xlink:href="#e" y="164.909"/></g><use x="45.84" xlink:href="#E" y="166.686"/><use x="50.78465" xlink:href="#F" y="166.686"/><use x="54.845416" xlink:href="#H" y="166.686"/><use x="62.87" xlink:href="#L" y="164.909"/><use x="72.55" xlink:href="#q" y="157.529"/><path d="m.00078125.0013125h5.45312475" fill="none" stroke="#000" stroke-miterlimit="10" stroke-width=".436" transform="matrix(1 0 0 -1 72.55 162.181)"/><use x="72.55" xlink:href="#y" y="172.392"/><use x="88.582" xlink:href="#z" y="157.529"/><path d="m-.00146875.0013125h21.82812475" fill="none" stroke="#000" stroke-miterlimit="10" stroke-width=".436" transform="matrix(1 0 0 -1 80.396 162.181)"/><g><use x="80.396" xlink:href="#N" y="172.603"/><use x="86.123277" xlink:href="#O" y="172.603"/></g><use x="91.85" xlink:href="#h" y="172.603"/><use x="97.49" xlink:href="#k" y="168.845"/><use x="97.49" xlink:href="#J" y="176.125"/><use x="107.054" xlink:href="#d" y="164.909"/><use x="50.079" xlink:href="#h" y="195.877"/><use x="55.719" xlink:href="#J" y="197.654"/><use x="62.87" xlink:href="#L" y="195.877"/><use x="94.152" xlink:href="#i" y="188.497"/><use x="101.577" xlink:href="#X" y="184.538"/><path d="m.00078125.0015625h53.42187475" fill="none" stroke="#000" stroke-miterlimit="10" stroke-width=".436" transform="matrix(1 0 0 -1 72.55 193.15)"/><g><use x="72.55" xlink:href="#P" y="203.36"/><use x="78.277278" xlink:href="#Q" y="203.36"/><use x="84.004555" xlink:href="#R" y="203.36"/><use x="89.731833" xlink:href="#S" y="203.36"/><use x="95.45911" xlink:href="#T" y="203.36"/></g><use x="103.61" xlink:href="#o" y="203.36"/><g><use x="114.519" xlink:href="#U" y="203.36"/><use x="120.246278" xlink:href="#V" y="203.36"/></g><use x="130.806" xlink:href="#d" y="195.877"/><use x="49.62" xlink:href="#i" y="224.729"/><use x="57.044" xlink:href="#X" y="220.225"/><use x="62.87" xlink:href="#L" y="224.729"/><use x="71.355" xlink:href="#S" y="224.729"/><use x="79.506" xlink:href="#K" y="224.729"/><use x="91.611" xlink:href="#p" y="217.349"/><g><use x="95.853" xlink:href="#P" y="217.349"/><use x="101.580278" xlink:href="#Q" y="217.349"/><use x="107.307555" xlink:href="#R" y="217.349"/><use x="113.034833" xlink:href="#S" y="217.349"/><use x="118.76211" xlink:href="#T" y="217.349"/></g><g><use x="128.122118" xlink:href="#N" y="217.349"/><use x="133.849395" xlink:href="#O" y="217.349"/></g><use x="139.58" xlink:href="#r" y="217.349"/><use x="143.822" xlink:href="#k" y="213.39"/><path d="m-.001625-.00190625h56.945313" fill="none" stroke="#000" stroke-miterlimit="10" stroke-width=".436" transform="matrix(1 0 0 -1 91.611 222.002)"/><g><use x="111.764" xlink:href="#q" y="232.212"/><use x="117.21855" xlink:href="#w" y="232.212"/></g><use x="122.673" xlink:href="#S" y="232.212"/><use x="73.779" xlink:href="#M" y="251.759"/><g><use x="85.883" xlink:href="#A" y="244.379"/><use x="90.185549" xlink:href="#B" y="244.379"/><use x="93.216097" xlink:href="#C" y="244.379"/><use x="99.277193" xlink:href="#p" y="244.379"/><use x="103.519742" xlink:href="#p" y="244.379"/></g><g><use x="107.762" xlink:href="#P" y="244.379"/><use x="113.489278" xlink:href="#Q" y="244.379"/><use x="119.216555" xlink:href="#R" y="244.379"/><use x="124.943833" xlink:href="#S" y="244.379"/><use x="130.67111" xlink:href="#T" y="244.379"/></g><g><use x="136.398" xlink:href="#p" y="244.379"/><use x="140.640549" xlink:href="#z" y="244.379"/></g><use x="148.519" xlink:href="#K" y="244.379"/><g><use x="159.428" xlink:href="#T" y="244.379"/><use x="165.155278" xlink:href="#O" y="244.379"/></g><use x="173.307" xlink:href="#K" y="244.379"/><g><use x="184.216" xlink:href="#T" y="244.379"/><use x="189.943278" xlink:href="#W" y="244.379"/></g><use x="195.671" xlink:href="#r" y="244.379"/><use x="202.337" xlink:href="#K" y="244.379"/><g><use x="213.246" xlink:href="#P" y="244.379"/><use x="218.973277" xlink:href="#T" y="244.379"/><use x="224.700555" xlink:href="#O" y="244.379"/></g><use x="232.852" xlink:href="#K" y="244.379"/><g><use x="243.761" xlink:href="#P" y="244.379"/><use x="249.488277" xlink:href="#T" y="244.379"/><use x="255.215555" xlink:href="#W" y="244.379"/></g><use x="260.943" xlink:href="#r" y="244.379"/><use x="265.185" xlink:href="#g" y="244.379"/><g><use x="270.64" xlink:href="#q" y="244.379"/><use x="276.09455" xlink:href="#r" y="244.379"/></g><path d="m-.0001875.00075h194.4531255" fill="none" stroke="#000" stroke-miterlimit="10" stroke-width=".436" transform="matrix(1 0 0 -1 85.883 249.032)"/><g><use x="152.398" xlink:href="#A" y="259.243"/><use x="156.700549" xlink:href="#B" y="259.243"/><use x="159.731097" xlink:href="#C" y="259.243"/><use x="165.792193" xlink:href="#p" y="259.243"/></g><g><use x="170.034" xlink:href="#P" y="259.243"/><use x="175.761278" xlink:href="#Q" y="259.243"/><use x="181.488555" xlink:href="#R" y="259.243"/><use x="187.215833" xlink:href="#S" y="259.243"/><use x="192.94311" xlink:href="#T" y="259.243"/></g><use x="198.671" xlink:href="#g" y="259.243"/><g><use x="204.125" xlink:href="#q" y="259.243"/><use x="209.57955" xlink:href="#r" y="259.243"/></g><use x="285.169" xlink:href="#j" y="251.759"/><g><use x="383.64" xlink:href="#p" y="134.766"/><use x="387.882549" xlink:href="#D" y="134.766"/><use x="393.337099" xlink:href="#D" y="134.766"/><use x="398.791649" xlink:href="#r" y="134.766"/></g></svg>