<svg height="95pt" viewBox="0 0 516 95" width="516pt" xmlns="http://www.w3.org/2000/svg" xmlns:xlink="http://www.w3.org/1999/xlink"><symbol id="a" overflow="visible"><path d="m3.8125-4.234375-1.40625-.328125c-.671875-.171875-1.09375-.765625-1.09375-1.390625 0-.765625.578125-1.4375 1.4375-1.4375 1.8125 0 2.0625 1.796875 2.125 2.28125.015625.078125.015625.140625.125.140625.140625 0 .140625-.0625.140625-.265625v-2.1875c0-.1875 0-.265625-.109375-.265625-.078125 0-.09375.015625-.171875.140625l-.375.625c-.328125-.3125-.78125-.765625-1.75-.765625-1.203125 0-2.125.953125-2.125 2.109375 0 .90625.578125 1.703125 1.4375 2 .109375.046875.671875.171875 1.4375.359375.296875.078125.609375.15625.921875.5625.234375.28125.34375.640625.34375 1 0 .765625-.546875 1.5625-1.46875 1.5625-.3125 0-1.140625-.0625-1.71875-.59375-.640625-.59375-.671875-1.28125-.671875-1.671875-.015625-.109375-.109375-.109375-.140625-.109375-.140625 0-.140625.0625-.140625.265625v2.1875c0 .171875 0 .25.125.25.078125 0 .078125-.015625.15625-.140625 0 0 .03125-.046875.390625-.625.34375.375 1.046875.765625 2.015625.765625 1.265625 0 2.140625-1.0625 2.140625-2.265625 0-1.09375-.71875-1.984375-1.625-2.203125zm0 0"/></symbol><symbol id="b" overflow="visible"><path d="m4.34375-7.59375c-.0625-.140625-.078125-.21875-.25-.21875s-.21875.0625-.265625.21875l-2.25 6.53125c-.203125.546875-.640625.71875-1.234375.71875v.34375c.25-.015625.71875-.03125 1.125-.03125.328125 0 .890625.015625 1.25.03125v-.34375c-.546875 0-.828125-.265625-.828125-.546875 0-.03125.015625-.140625.03125-.171875l.5-1.421875h2.6875l.578125 1.671875c.015625.03125.03125.109375.03125.140625 0 .328125-.609375.328125-.890625.328125v.34375c.390625-.03125 1.15625-.03125 1.5625-.03125.46875 0 .96875.015625 1.421875.03125v-.34375h-.1875c-.65625 0-.8125-.078125-.921875-.4375zm-.578125 1.21875 1.234375 3.546875h-2.453125zm0 0"/></symbol><symbol id="c" overflow="visible"><path d="m.375-7.453125v.34375h.265625c.84375 0 .859375.125.859375.515625v5.75c0 .390625-.015625.5-.859375.5h-.265625v.34375h4c1.828125 0 3.328125-1.609375 3.328125-3.671875s-1.46875-3.78125-3.328125-3.78125zm2.609375 7.109375c-.515625 0-.546875-.078125-.546875-.4375v-5.890625c0-.359375.03125-.4375.546875-.4375h1.078125c.6875 0 1.4375.234375 1.984375 1.015625.46875.640625.578125 1.578125.578125 2.421875 0 1.21875-.21875 1.875-.609375 2.40625-.21875.296875-.828125.921875-1.9375.921875zm0 0"/></symbol><symbol id="d" overflow="visible"><path d="m4.265625-.859375v.984375l1.5625-.125v-.34375c-.75 0-.84375-.078125-.84375-.609375v-3.875l-1.609375.125v.34375c.765625 0 .859375.078125.859375.609375v1.9375c0 .953125-.53125 1.6875-1.328125 1.6875-.90625 0-.953125-.5-.953125-1.078125v-3.625l-1.609375.125v.34375c.859375 0 .859375.03125.859375 1v1.640625c0 .84375 0 1.84375 1.65625 1.84375.609375 0 1.09375-.3125 1.40625-.984375zm0 0"/></symbol><symbol id="e" overflow="visible"><path d="m2.265625-2.109375c.25.03125 1.140625.21875 1.140625 1 0 .546875-.390625.984375-1.234375.984375-.921875 0-1.3125-.609375-1.515625-1.546875-.03125-.140625-.046875-.1875-.15625-.1875-.140625 0-.140625.078125-.140625.28125v1.4375c0 .1875 0 .265625.125.265625.046875 0 .0625-.015625.265625-.21875.03125-.03125.03125-.046875.21875-.25.484375.453125.96875.46875 1.203125.46875 1.25 0 1.75-.734375 1.75-1.515625 0-.578125-.328125-.90625-.453125-1.046875-.359375-.34375-.78125-.4375-1.25-.515625-.609375-.125-1.328125-.265625-1.328125-.890625 0-.390625.28125-.828125 1.21875-.828125 1.1875 0 1.25.96875 1.265625 1.3125.015625.09375.109375.09375.140625.09375.140625 0 .140625-.046875.140625-.25v-1.109375c0-.1875 0-.265625-.125-.265625-.046875 0-.078125 0-.21875.140625-.03125.03125-.140625.140625-.1875.171875-.40625-.3125-.859375-.3125-1.015625-.3125-1.328125 0-1.75.734375-1.75 1.34375 0 .390625.171875.6875.46875.921875.34375.296875.65625.359375 1.4375.515625zm0 0"/></symbol><symbol id="f" overflow="visible"><path d="m1.21875-2.75c.0625-1.625.984375-1.890625 1.359375-1.890625 1.125 0 1.234375 1.46875 1.234375 1.890625zm-.015625.234375h3.046875c.25 0 .28125 0 .28125-.234375 0-1.078125-.59375-2.140625-1.953125-2.140625-1.265625 0-2.265625 1.125-2.265625 2.484375 0 1.46875 1.140625 2.53125 2.390625 2.53125 1.328125 0 1.828125-1.21875 1.828125-1.421875 0-.109375-.09375-.125-.140625-.125-.109375 0-.125.0625-.140625.140625-.390625 1.125-1.375 1.125-1.484375 1.125-.546875 0-.984375-.328125-1.234375-.734375-.328125-.515625-.328125-1.234375-.328125-1.625zm0 0"/></symbol><symbol id="g" overflow="visible"><path d="m2.21875-.015625c0-.6875-.265625-1.140625-.703125-1.140625-.375 0-.578125.296875-.578125.578125s.1875.578125.578125.578125c.171875 0 .3125-.0625.421875-.15625l.015625-.015625c.015625 0 .015625.015625.015625.15625 0 .703125-.296875 1.375-.78125 1.875-.0625.078125-.078125.078125-.078125.125 0 .078125.0625.125.109375.125.140625 0 1-.859375 1-2.125zm0 0"/></symbol><symbol id="h" overflow="visible"><path d="m1.890625-4.359375h1.5625v-.34375h-1.5625v-2h-.28125c0 .890625-.328125 2.0625-1.40625 2.09375v.25h.9375v3c0 1.34375 1.015625 1.484375 1.40625 1.484375.765625 0 1.078125-.78125 1.078125-1.484375v-.609375h-.28125v.59375c0 .8125-.328125 1.21875-.71875 1.21875-.734375 0-.734375-.984375-.734375-1.171875zm0 0"/></symbol><symbol id="i" overflow="visible"><path d="m1.203125-.828125c0 .484375-.125.484375-.859375.484375v.34375c.390625-.015625.9375-.03125 1.234375-.03125.28125 0 .859375.015625 1.21875.03125v-.34375c-.71875 0-.84375 0-.84375-.484375v-2c0-1.140625.765625-1.75 1.46875-1.75.6875 0 .8125.59375.8125 1.203125v2.546875c0 .484375-.125.484375-.859375.484375v.34375c.390625-.015625.9375-.03125 1.234375-.03125.28125 0 .859375.015625 1.21875.03125v-.34375c-.5625 0-.828125 0-.84375-.328125v-2.078125c0-.9375 0-1.28125-.34375-1.671875-.140625-.1875-.5-.40625-1.140625-.40625-.921875 0-1.390625.65625-1.578125 1.078125v-3.8125l-1.578125.109375v.34375c.765625 0 .859375.078125.859375.609375zm0 0"/></symbol><symbol id="j" overflow="visible"><path d="m4.140625-.59375v.71875l1.609375-.125v-.34375c-.765625 0-.859375-.078125-.859375-.609375v-6.609375l-1.5625.109375v.34375c.765625 0 .84375.078125.84375.609375v2.359375c-.3125-.390625-.78125-.6875-1.375-.6875-1.28125 0-2.421875 1.078125-2.421875 2.484375 0 1.390625 1.0625 2.46875 2.3125 2.46875.6875 0 1.1875-.375 1.453125-.71875zm0-2.921875v2.234375c0 .1875 0 .21875-.109375.390625-.328125.53125-.828125.765625-1.296875.765625-.484375 0-.875-.28125-1.140625-.6875-.28125-.453125-.3125-1.078125-.3125-1.515625 0-.40625.015625-1.0625.328125-1.546875.234375-.34375.640625-.703125 1.234375-.703125.390625 0 .84375.15625 1.1875.65625.109375.1875.109375.203125.109375.40625zm0 0"/></symbol><symbol id="k" overflow="visible"><path d="m1.9375-4.828125-1.53125.125v.34375c.703125 0 .796875.0625.796875.59375v2.9375c0 .484375-.109375.484375-.84375.484375v.34375c.34375-.015625.9375-.03125 1.203125-.03125.375 0 .765625.015625 1.125.03125v-.34375c-.71875 0-.75-.046875-.75-.46875zm.03125-1.890625c0-.34375-.265625-.578125-.578125-.578125-.328125 0-.578125.296875-.578125.578125 0 .296875.25.578125.578125.578125.3125 0 .578125-.234375.578125-.578125zm0 0"/></symbol><symbol id="l" overflow="visible"><path d="m3.625-.828125c.046875.4375.34375.890625.859375.890625.234375 0 .890625-.15625.890625-1.03125v-.609375h-.265625v.609375c0 .625-.28125.703125-.390625.703125-.359375 0-.40625-.5-.40625-.546875v-2.1875c0-.453125 0-.875-.390625-1.28125-.4375-.4375-.984375-.609375-1.5-.609375-.890625 0-1.640625.515625-1.640625 1.234375 0 .328125.21875.515625.5.515625.296875 0 .5-.21875.5-.5 0-.140625-.0625-.5-.5625-.5.296875-.390625.828125-.5 1.1875-.5.53125 0 1.15625.421875 1.15625 1.390625v.40625c-.5625.03125-1.328125.0625-2.015625.390625-.8125.375-1.09375.9375-1.09375 1.421875 0 .875 1.0625 1.15625 1.75 1.15625.71875 0 1.21875-.4375 1.421875-.953125zm-.0625-1.796875v1.09375c0 1.046875-.796875 1.40625-1.28125 1.40625-.53125 0-.984375-.375-.984375-.921875 0-.59375.453125-1.5 2.265625-1.578125zm0 0"/></symbol><symbol id="m" overflow="visible"><path d="m1.203125-3.75v2.921875c0 .484375-.125.484375-.859375.484375v.34375c.390625-.015625.9375-.03125 1.234375-.03125.28125 0 .859375.015625 1.21875.03125v-.34375c-.71875 0-.84375 0-.84375-.484375v-2c0-1.140625.765625-1.75 1.46875-1.75.6875 0 .8125.59375.8125 1.203125v2.546875c0 .484375-.125.484375-.859375.484375v.34375c.390625-.015625.9375-.03125 1.234375-.03125.28125 0 .859375.015625 1.21875.03125v-.34375c-.5625 0-.828125 0-.84375-.328125v-2.078125c0-.9375 0-1.28125-.34375-1.671875-.140625-.1875-.5-.40625-1.140625-.40625-.796875 0-1.3125.46875-1.609375 1.15625v-1.15625l-1.546875.125v.34375c.765625 0 .859375.078125.859375.609375zm0 0"/></symbol><symbol id="n" overflow="visible"><path d="m1.28125-2.375c0-1.78125.890625-2.234375 1.46875-2.234375.09375 0 .78125 0 1.171875.40625-.453125.03125-.515625.359375-.515625.5 0 .28125.1875.5.5.5.28125 0 .5-.1875.5-.515625 0-.734375-.828125-1.171875-1.671875-1.171875-1.359375 0-2.359375 1.1875-2.359375 2.53125 0 1.40625 1.078125 2.484375 2.34375 2.484375 1.453125 0 1.8125-1.3125 1.8125-1.421875s-.109375-.109375-.140625-.109375c-.109375 0-.125.046875-.140625.109375-.328125 1.015625-1.03125 1.140625-1.4375 1.140625-.578125 0-1.53125-.46875-1.53125-2.21875zm0 0"/></symbol><symbol id="o" overflow="visible"><path d="m1.9375-7.5625-1.578125.109375v.34375c.765625 0 .84375.078125.84375.609375v5.671875c0 .484375-.109375.484375-.84375.484375v.34375c.359375-.015625.9375-.03125 1.21875-.03125.265625 0 .796875.015625 1.203125.03125v-.34375c-.734375 0-.84375 0-.84375-.484375zm0 0"/></symbol><symbol id="p" overflow="visible"><path d="m5.140625-2.328125c0-1.40625-1.09375-2.5625-2.421875-2.5625-1.359375 0-2.40625 1.1875-2.40625 2.5625 0 1.40625 1.125 2.453125 2.40625 2.453125 1.3125 0 2.421875-1.078125 2.421875-2.453125zm-2.421875 2.171875c-.46875 0-.9375-.21875-1.234375-.734375-.28125-.46875-.28125-1.140625-.28125-1.53125 0-.421875 0-1.015625.265625-1.5.296875-.5.8125-.71875 1.25-.71875.484375 0 .953125.234375 1.234375.703125s.28125 1.109375.28125 1.515625c0 .390625 0 .984375-.25 1.46875-.234375.484375-.71875.796875-1.265625.796875zm0 0"/></symbol><symbol id="q" overflow="visible"><path d="m2.421875-1.875c-.953125 0-.953125-1.09375-.953125-1.34375 0-.296875.015625-.640625.171875-.921875.09375-.125.34375-.421875.78125-.421875.953125 0 .953125 1.078125.953125 1.328125 0 .296875-.015625.65625-.171875.921875-.09375.125-.34375.4375-.78125.4375zm-1.265625.421875c0-.046875 0-.296875.1875-.515625.421875.3125.875.34375 1.078125.34375 1.015625 0 1.765625-.75 1.765625-1.59375 0-.40625-.171875-.8125-.453125-1.0625.40625-.359375.796875-.421875.984375-.421875.03125 0 .078125 0 .109375.015625-.109375.046875-.171875.15625-.171875.296875 0 .1875.140625.3125.3125.3125.109375 0 .328125-.078125.328125-.328125 0-.1875-.140625-.53125-.5625-.53125-.21875 0-.703125.0625-1.15625.515625-.453125-.359375-.921875-.40625-1.15625-.40625-1.015625 0-1.765625.765625-1.765625 1.59375 0 .484375.234375.90625.515625 1.125-.140625.171875-.34375.53125-.34375.90625 0 .34375.140625.75.484375.96875-.65625.1875-1 .65625-1 1.09375 0 .78125 1.078125 1.390625 2.40625 1.390625 1.28125 0 2.421875-.5625 2.421875-1.40625 0-.390625-.15625-.9375-.71875-1.25-.578125-.296875-1.203125-.296875-1.875-.296875-.265625 0-.734375 0-.8125-.015625-.34375-.046875-.578125-.375-.578125-.734375zm1.5625 3.453125c-1.09375 0-1.84375-.5625-1.84375-1.140625 0-.5.40625-.90625.890625-.9375h.640625c.9375 0 2.15625 0 2.15625.9375 0 .59375-.765625 1.140625-1.84375 1.140625zm0 0"/></symbol><symbol id="r" overflow="visible"><path d="m1.828125-3.625v-1.203125l-1.515625.125v.34375c.75 0 .84375.078125.84375.609375v2.921875c0 .484375-.125.484375-.84375.484375v.34375c.421875-.015625.9375-.03125 1.234375-.03125.4375 0 .953125 0 1.390625.03125v-.34375h-.234375c-.8125 0-.828125-.109375-.828125-.5v-1.6875c0-1.078125.453125-2.046875 1.28125-2.046875.078125 0 .109375 0 .125.015625-.03125 0-.25.140625-.25.421875 0 .296875.234375.46875.46875.46875.203125 0 .46875-.140625.46875-.484375s-.34375-.671875-.8125-.671875c-.796875 0-1.1875.734375-1.328125 1.203125zm0 0"/></symbol><symbol id="s" overflow="visible"><path d="m1.90625-4.703125v-1.265625c0-.953125.53125-1.484375 1-1.484375.03125 0 .203125 0 .359375.078125-.125.046875-.328125.1875-.328125.453125s.1875.46875.46875.46875c.328125 0 .484375-.203125.484375-.46875 0-.40625-.40625-.765625-.984375-.765625-.75 0-1.6875.578125-1.6875 1.734375v1.25h-.859375v.34375h.859375v3.53125c0 .484375-.125.484375-.84375.484375v.34375c.421875-.015625.9375-.03125 1.234375-.03125.4375 0 .953125 0 1.390625.03125v-.34375h-.234375c-.796875 0-.828125-.109375-.828125-.5v-3.515625h1.25v-.34375zm0 0"/></symbol><symbol id="t" overflow="visible"><path d="m1.875-4.09375v-.734375l-1.5625.125v.34375c.765625 0 .84375.0625.84375.546875v5.09375c0 .5-.125.5-.84375.5v.328125c.359375 0 .9375-.03125 1.21875-.03125.296875 0 .84375.03125 1.234375.03125v-.328125c-.734375 0-.859375 0-.859375-.5v-1.921875c.0625.171875.515625.765625 1.34375.765625 1.296875 0 2.4375-1.078125 2.4375-2.484375 0-1.375-1.0625-2.46875-2.28125-2.46875-.859375 0-1.3125.484375-1.53125.734375zm.03125 2.84375v-2.421875c.3125-.5625.859375-.875 1.40625-.875.796875 0 1.46875.953125 1.46875 2.1875 0 1.328125-.765625 2.234375-1.578125 2.234375-.4375 0-.84375-.21875-1.140625-.65625-.15625-.234375-.15625-.25-.15625-.46875zm0 0"/></symbol><symbol id="u" overflow="visible"><path d="m4.53125-3.625c.109375-.25.296875-.734375 1.015625-.734375v-.34375c-.25.03125-.578125.03125-.828125.03125-.265625 0-.765625-.015625-.9375-.03125v.34375c.390625 0 .515625.265625.515625.46875 0 .09375-.015625.140625-.0625.265625l-1.109375 2.78125-1.234375-3.046875c-.0625-.140625-.0625-.171875-.0625-.1875 0-.28125.421875-.28125.625-.28125v-.34375c-.328125.015625-.9375.03125-1.1875.03125-.296875 0-.734375 0-1.0625-.03125v.34375c.6875 0 .734375.0625.875.40625l1.578125 3.859375c.0625.15625.078125.21875.21875.21875s.1875-.109375.234375-.21875zm0 0"/></symbol><symbol id="v" overflow="visible"><path d="m1.875-4.109375v-3.453125l-1.5625.109375v.34375c.75 0 .84375.078125.84375.609375v6.5h.265625c.015625-.015625.109375-.15625.40625-.671875.15625.25.609375.796875 1.421875.796875 1.296875 0 2.4375-1.078125 2.4375-2.484375 0-1.375-1.078125-2.46875-2.3125-2.46875-.859375 0-1.328125.515625-1.5.71875zm.03125 2.859375v-2.234375c0-.21875 0-.21875.125-.390625.421875-.625 1.015625-.703125 1.28125-.703125.5 0 .890625.28125 1.140625.703125.296875.4375.328125 1.0625.328125 1.515625 0 .390625-.03125 1.046875-.34375 1.546875-.234375.328125-.640625.6875-1.234375.6875-.484375 0-.875-.25-1.140625-.65625-.15625-.234375-.15625-.265625-.15625-.46875zm0 0"/></symbol><symbol id="w" overflow="visible"><path d="m2.09375-.578125c0-.3125-.265625-.578125-.578125-.578125s-.578125.265625-.578125.578125.265625.578125.578125.578125.578125-.265625.578125-.578125zm0 0"/></symbol><symbol id="x" overflow="visible"><path d="m7.265625-7.390625h-6.671875l-.203125 2.46875h.28125c.140625-1.765625.3125-2.125 1.953125-2.125.203125 0 .484375 0 .59375.015625.234375.046875.234375.171875.234375.421875v5.75c0 .375 0 .515625-1.15625.515625h-.4375v.34375c.453125-.03125 1.5625-.03125 2.0625-.03125s1.625 0 2.078125.03125v-.34375h-.4375c-1.140625 0-1.140625-.140625-1.140625-.515625v-5.75c0-.21875 0-.375.1875-.421875.125-.015625.421875-.015625.625-.015625 1.640625 0 1.8125.359375 1.96875 2.125h.265625zm0 0"/></symbol><symbol id="y" overflow="visible"><path d="m1.203125-3.75v2.921875c0 .484375-.125.484375-.859375.484375v.34375c.390625-.015625.9375-.03125 1.234375-.03125.28125 0 .859375.015625 1.21875.03125v-.34375c-.71875 0-.84375 0-.84375-.484375v-2c0-1.140625.765625-1.75 1.46875-1.75.6875 0 .8125.59375.8125 1.203125v2.546875c0 .484375-.125.484375-.859375.484375v.34375c.390625-.015625.9375-.03125 1.234375-.03125.28125 0 .859375.015625 1.21875.03125v-.34375c-.71875 0-.84375 0-.84375-.484375v-2c0-1.140625.78125-1.75 1.46875-1.75s.8125.59375.8125 1.203125v2.546875c0 .484375-.125.484375-.859375.484375v.34375c.390625-.015625.9375-.03125 1.234375-.03125.28125 0 .859375.015625 1.21875.03125v-.34375c-.5625 0-.828125 0-.84375-.328125v-2.078125c0-.9375 0-1.28125-.34375-1.671875-.140625-.1875-.5-.40625-1.140625-.40625-.921875 0-1.390625.65625-1.578125 1.078125-.15625-.953125-.96875-1.078125-1.453125-1.078125-.796875 0-1.3125.46875-1.609375 1.15625v-1.15625l-1.546875.125v.34375c.765625 0 .859375.078125.859375.609375zm0 0"/></symbol><symbol id="z" overflow="visible"><path d="m6.75-3.671875c.203125-.53125.53125-.6875.921875-.6875v-.34375c-.25.03125-.5625.03125-.796875.03125-.328125 0-.8125-.015625-1.015625-.03125v.34375c.390625 0 .625.203125.625.515625 0 .0625 0 .09375-.046875.234375l-1 2.796875-1.078125-3.046875c-.046875-.125-.046875-.15625-.046875-.203125 0-.296875.421875-.296875.640625-.296875v-.34375c-.3125.015625-.875.03125-1.140625.03125-.328125 0-.640625 0-.96875-.03125v.34375c.40625 0 .578125.015625.6875.15625.0625.0625.171875.390625.25.609375l-.9375 2.640625-1.03125-2.921875c-.0625-.125-.0625-.15625-.0625-.1875 0-.296875.4375-.296875.65625-.296875v-.34375c-.328125.015625-.9375.03125-1.203125.03125-.03125 0-.609375 0-1-.03125v.34375c.53125 0 .671875.03125.796875.375l1.375 3.859375c.0625.15625.09375.25.234375.25s.15625-.078125.21875-.21875l1.09375-3.09375 1.109375 3.09375c.046875.125.078125.21875.21875.21875.15625 0 .1875-.109375.21875-.21875zm0 0"/></symbol><symbol id="A" overflow="visible"><path d="m4.25-4.375c.109375-.125.109375-.140625.109375-.1875 0-.140625-.09375-.140625-.296875-.140625h-3.484375l-.125 1.765625h.28125c.0625-1.125.265625-1.515625 1.46875-1.515625h1.25l-3.046875 4.109375c-.09375.109375-.09375.140625-.09375.1875 0 .15625.0625.15625.28125.15625h3.59375l.1875-2.046875h-.28125c-.09375 1.296875-.3125 1.78125-1.578125 1.78125h-1.296875zm0 0"/></symbol><symbol id="B" overflow="visible"><path d="m2.296875-4.828125-1.671875.125v.34375c.84375 0 .953125.078125.953125.609375v4.3125c0 .5-.109375 1.4375-.796875 1.4375-.0625 0-.3125 0-.59375-.140625.15625-.046875.375-.203125.375-.5 0-.28125-.1875-.5-.5-.5-.296875 0-.5.21875-.5.5 0 .578125.609375.875 1.234375.875.8125 0 1.5-.703125 1.5-1.6875zm0-1.890625c0-.3125-.265625-.578125-.578125-.578125-.328125 0-.578125.265625-.578125.578125s.25.578125.578125.578125c.3125 0 .578125-.265625.578125-.578125zm0 0"/></symbol><symbol id="C" overflow="visible"><path d="m4.53125-3.671875c.28125-.6875.828125-.6875 1.015625-.6875v-.34375c-.25.03125-.578125.03125-.828125.03125-.1875 0-.703125-.015625-.9375-.03125v.34375c.328125 0 .5.1875.5.46875 0 .109375 0 .125-.0625.265625l-1.09375 2.671875-1.21875-2.921875c-.046875-.109375-.0625-.15625-.0625-.203125 0-.28125.40625-.28125.609375-.28125v-.34375c-.28125.015625-1 .03125-1.1875.03125-.296875 0-.734375 0-1.0625-.03125v.34375c.53125 0 .734375 0 .890625.375l1.625 3.984375c-.046875.140625-.203125.5-.265625.640625-.234375.609375-.546875 1.359375-1.25 1.359375-.046875 0-.296875 0-.5-.203125.328125-.046875.421875-.28125.421875-.453125 0-.28125-.203125-.453125-.453125-.453125-.21875 0-.46875.140625-.46875.46875 0 .484375.46875.875 1 .875.6875 0 1.140625-.625 1.40625-1.234375zm0 0"/></symbol><symbol id="D" overflow="visible"><path d="m1.484375-.84375c0 .390625-.015625.5-.859375.5h-.265625v.34375h6.296875l.453125-2.8125h-.265625c-.28125 1.671875-.53125 2.46875-2.40625 2.46875h-1.453125c-.515625 0-.53125-.078125-.53125-.4375v-2.90625h.984375c1.0625 0 1.171875.34375 1.171875 1.28125h.28125v-2.890625h-.28125c0 .9375-.109375 1.265625-1.171875 1.265625h-.984375v-2.609375c0-.359375.015625-.4375.53125-.4375h1.40625c1.671875 0 1.96875.59375 2.140625 2.109375h.28125l-.3125-2.453125h-6.140625v.34375h.265625c.84375 0 .859375.125.859375.515625zm0 0"/></symbol><symbol id="E" overflow="visible"><path d="m4.265625-4.078125c-.3125.015625-.53125.25-.53125.484375 0 .15625.109375.328125.34375.328125s.5-.1875.5-.609375c0-.5-.46875-.953125-1.296875-.953125-1.4375 0-1.84375 1.125-1.84375 1.59375 0 .859375.8125 1.015625 1.125 1.078125.5625.109375 1.140625.234375 1.140625.84375 0 .28125-.25 1.1875-1.5625 1.1875-.15625 0-1 0-1.25-.578125.421875.0625.6875-.265625.6875-.578125 0-.25-.171875-.375-.40625-.375-.28125 0-.609375.234375-.609375.71875 0 .625.625 1.0625 1.5625 1.0625 1.765625 0 2.1875-1.328125 2.1875-1.8125 0-.390625-.203125-.671875-.328125-.796875-.296875-.3125-.609375-.359375-1.09375-.453125-.390625-.09375-.828125-.171875-.828125-.65625 0-.328125.265625-.984375 1.21875-.984375.28125 0 .8125.078125.984375.5zm0 0"/></symbol><symbol id="F" overflow="visible"><path d="m3.453125-6.375c-.109375-.40625-.25-.421875-.59375-.421875-.3125 0-.5 0-.59375.421875l-1.3125 5.703125c-.15625 0-.40625 0-.46875.03125-.125.0625-.1875.171875-.1875.3125 0 .328125.28125.328125.46875.328125h1.109375c.203125 0 .453125 0 .453125-.328125 0-.34375-.21875-.34375-.609375-.34375l.25-1.125h1.765625l.25 1.125c-.390625 0-.609375 0-.609375.34375 0 .328125.265625.328125.46875.328125h1.109375c.1875 0 .46875 0 .46875-.328125 0-.140625-.0625-.25-.1875-.296875-.0625-.046875-.3125-.046875-.46875-.046875zm-.59375.46875h.015625l.703125 3.4375h-1.4375zm0 0"/></symbol><symbol id="G" overflow="visible"><path d="m2.078125-6.265625c-.140625-.359375-.296875-.390625-.59375-.390625h-.75c-.15625 0-.421875 0-.421875.3125 0 .34375.25.34375.421875.34375h.28125v5.328125h-.28125c-.15625 0-.421875 0-.421875.328125 0 .34375.25.34375.421875.34375h1.15625c.171875 0 .4375 0 .4375-.328125 0-.34375-.25-.34375-.4375-.34375h-.265625v-5.171875h.015625l2 5.453125c.140625.375.3125.390625.609375.390625.3125 0 .453125-.03125.453125-.453125v-5.546875h.265625c.171875 0 .4375 0 .4375-.328125s-.265625-.328125-.4375-.328125h-1.15625c-.171875 0-.4375 0-.4375.328125s.28125.328125.4375.328125h.28125v5.1875h-.015625zm0 0"/></symbol><symbol id="H" overflow="visible"><path d="m4.890625-2.28125c.265625 0 .515625 0 .515625-.34375 0-.3125-.28125-.3125-.4375-.3125h-1.296875c-.171875 0-.4375 0-.4375.3125 0 .34375.25.34375.4375.34375h.453125c-.140625 1.21875-.671875 1.734375-1.25 1.734375-.875 0-1.703125-1.171875-1.703125-2.78125 0-1.671875.875-2.796875 1.71875-2.796875.375 0 1.0625.25 1.25 1.4375.03125.1875.09375.3125.375.3125.375 0 .375-.234375.375-.453125v-1.515625c0-.171875 0-.4375-.328125-.4375-.21875 0-.28125.125-.4375.484375-.390625-.328125-.828125-.484375-1.28125-.484375-1.3125 0-2.421875 1.46875-2.421875 3.4375 0 2.015625 1.125 3.46875 2.421875 3.46875.625 0 1.078125-.328125 1.296875-.578125 0 .234375 0 .453125.390625.453125.359375 0 .359375-.234375.359375-.453125zm0 0"/></symbol><symbol id="I" overflow="visible"><path d="m1.9375-6h.609375c.15625 0 .453125 0 .453125-.328125s-.28125-.328125-.453125-.328125h-1.765625c-.171875 0-.4375 0-.4375.328125s.28125.328125.4375.328125h.40625v5.328125h-.40625c-.171875 0-.4375 0-.4375.34375 0 .328125.28125.328125.4375.328125h4.109375c.359375 0 .4375-.09375.4375-.453125v-.96875c0-.21875 0-.4375-.375-.4375-.390625 0-.390625.21875-.390625.4375v.75h-2.625zm0 0"/></symbol><symbol id="J" overflow="visible"><path d="m1.0625-.671875h-.328125c-.171875 0-.453125 0-.453125.34375 0 .328125.28125.328125.453125.328125h4.296875c.375 0 .4375-.09375.4375-.453125v-.96875c0-.203125 0-.4375-.359375-.4375-.390625 0-.390625.21875-.390625.4375v.75h-2.90625v-2.453125h1.421875c0 .453125 0 .625.390625.625.359375 0 .359375-.234375.359375-.4375v-1.015625c0-.21875 0-.453125-.359375-.453125-.390625 0-.390625.171875-.390625.625h-1.421875v-2.21875h2.671875v.578125c0 .203125 0 .453125.375.453125s.375-.234375.375-.453125v-.796875c0-.328125-.0625-.4375-.4375-.4375h-4.0625c-.171875 0-.453125 0-.453125.3125 0 .34375.28125.34375.453125.34375h.328125zm0 0"/></symbol><symbol id="K" overflow="visible"><path d="m1.75-6h1.359375c.921875 0 1.171875.671875 1.171875 1.03125 0 .453125-.359375 1.171875-1.40625 1.171875h-1.125zm2.09375 2.515625c.703125-.25 1.1875-.8125 1.1875-1.484375 0-.796875-.671875-1.6875-1.875-1.6875h-2.46875c-.15625 0-.4375 0-.4375.3125 0 .34375.28125.34375.453125.34375h.296875v5.328125h-.296875c-.171875 0-.453125 0-.453125.34375 0 .328125.28125.328125.4375.328125h2.6875c1.234375 0 1.875-.96875 1.875-1.828125 0-.75-.515625-1.453125-1.40625-1.65625zm-.71875 2.8125h-1.375v-2.453125h1.5c.921875 0 1.25.796875 1.25 1.28125 0 .53125-.421875 1.171875-1.375 1.171875zm0 0"/></symbol><symbol id="L" overflow="visible"><path d="m.65625-6.65625c-.171875 0-.453125 0-.453125.328125s.28125.328125.453125.328125h.234375v5.328125h-.234375c-.171875 0-.453125 0-.453125.34375 0 .328125.28125.328125.453125.328125h2.25c1.421875 0 2.390625-1.53125 2.390625-3.28125s-.9375-3.375-2.390625-3.375zm.984375 5.984375v-5.328125h1.046875c1.234375 0 1.84375 1.453125 1.84375 2.71875 0 1.28125-.625 2.609375-1.84375 2.609375zm0 0"/></symbol><symbol id="M" overflow="visible"><path d="m3.15625-4.03125c-.125.40625-.21875.71875-.28125 1.03125h-.015625c-.109375-.515625-1.078125-3.34375-1.09375-3.40625-.109375-.25-.375-.25-.53125-.25h-.609375c-.171875 0-.4375 0-.4375.3125 0 .34375.234375.34375.578125.34375v5.328125c-.34375 0-.578125 0-.578125.34375 0 .328125.265625.328125.4375.328125h.890625c.15625 0 .4375 0 .4375-.328125 0-.34375-.234375-.34375-.578125-.34375v-5.203125h.015625c.109375.515625.8125 2.609375.859375 2.75.078125.25.21875.65625.28125.734375.0625.09375.1875.171875.328125.171875s.296875-.09375.375-.25c.03125-.0625.96875-2.828125 1.09375-3.40625h.015625v5.203125c-.359375 0-.578125 0-.578125.34375 0 .328125.265625.328125.4375.328125h.890625c.15625 0 .4375 0 .4375-.328125 0-.34375-.234375-.34375-.578125-.34375v-5.328125c.34375 0 .578125 0 .578125-.34375 0-.3125-.28125-.3125-.4375-.3125h-.609375c-.453125 0-.5.140625-.59375.421875zm0 0"/></symbol><symbol id="N" overflow="visible"><path d="m4.890625-6h.328125c.1875 0 .453125 0 .453125-.34375 0-.3125-.28125-.3125-.453125-.3125h-1.40625c-.15625 0-.4375 0-.4375.3125 0 .34375.28125.34375.4375.34375h.328125v3.71875c0 1.171875-.71875 1.734375-1.28125 1.734375-.578125 0-1.28125-.5625-1.28125-1.734375v-3.71875h.3125c.171875 0 .453125 0 .453125-.34375 0-.3125-.28125-.3125-.453125-.3125h-1.40625c-.15625 0-.4375 0-.4375.3125 0 .34375.28125.34375.4375.34375h.328125v3.78125c0 1.328125.953125 2.34375 2.046875 2.34375s2.03125-1.015625 2.03125-2.34375zm0 0"/></symbol><symbol id="O" overflow="visible"><path d="m3.234375-6h1.4375v.578125c0 .203125 0 .453125.375.453125.390625 0 .390625-.234375.390625-.453125v-.796875c0-.328125-.078125-.4375-.4375-.4375h-4.265625c-.359375 0-.453125.078125-.453125.4375v.796875c0 .203125 0 .453125.375.453125s.375-.234375.375-.453125v-.578125h1.453125v5.328125h-.5625c-.171875 0-.4375 0-.4375.328125 0 .34375.265625.34375.4375.34375h1.890625c.15625 0 .4375 0 .4375-.328125 0-.34375-.265625-.34375-.4375-.34375h-.578125zm0 0"/></symbol><symbol id="P" overflow="visible"><path d="m3.234375-2.984375c.296875.0625 1.203125.28125 1.203125 1.234375 0 .5625-.46875 1.203125-1.328125 1.203125-.3125 0-.84375-.046875-1.28125-.34375-.453125-.28125-.5-.75-.515625-.9375 0-.1875-.015625-.390625-.359375-.390625-.390625 0-.390625.234375-.390625.453125v1.4375c0 .171875 0 .453125.328125.453125.25 0 .3125-.15625.40625-.5.4375.328125 1.109375.5 1.796875.5 1.265625 0 2.046875-.96875 2.046875-1.9375 0-.703125-.390625-1.15625-.515625-1.296875-.453125-.4375-.75-.515625-1.59375-.703125l-.875-.203125c-.46875-.125-.875-.515625-.875-1.015625 0-.5625.53125-1.09375 1.296875-1.09375 1.296875 0 1.453125 1.03125 1.515625 1.375.046875.234375.15625.296875.375.296875.390625 0 .390625-.21875.390625-.4375v-1.453125c0-.171875 0-.4375-.328125-.4375-.265625 0-.328125.1875-.40625.515625-.453125-.390625-1.03125-.515625-1.53125-.515625-1.203125 0-2.03125.859375-2.03125 1.78125 0 .734375.5 1.453125 1.40625 1.71875.046875.015625 1.109375.265625 1.265625.296875zm0 0"/></symbol><symbol id="Q" overflow="visible"><path d="m5.109375-3.328125c0-3.15625-.234375-3.453125-2.25-3.453125s-2.25.296875-2.25 3.453125.234375 3.453125 2.25 3.453125c2 0 2.25-.296875 2.25-3.453125zm-2.25 2.78125c-.96875 0-1.234375-.234375-1.359375-.765625-.140625-.5625-.140625-1.515625-.140625-2.109375 0-.671875 0-1.421875.125-1.921875.140625-.640625.484375-.78125 1.375-.78125.8125 0 1.203125.109375 1.359375.703125.140625.515625.140625 1.328125.140625 2s0 1.453125-.125 2.03125c-.125.609375-.40625.84375-1.375.84375zm0 0"/></symbol><symbol id="R" overflow="visible"><path d="m5.28125-6.34375c0-.171875 0-.4375-.328125-.4375-.203125 0-.25.109375-.3125.1875-.015625.046875-.015625.0625-.15625.328125-.359375-.296875-.859375-.515625-1.421875-.515625-1.40625 0-2.625 1.453125-2.625 3.4375 0 2 1.21875 3.46875 2.640625 3.46875 1.265625 0 2.203125-.96875 2.203125-1.953125 0-.359375-.265625-.359375-.390625-.359375-.09375 0-.34375 0-.359375.3125-.078125 1.0625-.96875 1.328125-1.40625 1.328125-1 0-1.9375-1.15625-1.9375-2.796875 0-1.625.953125-2.78125 1.921875-2.78125.65625 0 1.25.515625 1.40625 1.390625.03125.1875.046875.359375.375.359375.390625 0 .390625-.234375.390625-.453125zm0 0"/></symbol><symbol id="S" overflow="visible"><path d="m1.703125-6h.78125c1 0 1.484375.640625 1.484375 1.171875s-.484375 1.15625-1.484375 1.15625h-.78125zm2.09375 2.6875c.71875-.40625.921875-1.078125.921875-1.515625 0-.9375-.828125-1.828125-2.109375-1.828125h-1.9375c-.171875 0-.4375 0-.4375.328125s.28125.328125.4375.328125h.28125v5.328125h-.28125c-.171875 0-.4375 0-.4375.34375 0 .328125.28125.328125.4375.328125h1.296875c.171875 0 .4375 0 .4375-.328125 0-.34375-.25-.34375-.4375-.34375h-.265625v-2.328125h.84375c.21875 0 .546875 0 .890625.3125.234375.21875.234375.46875.234375.921875 0 .703125 0 1.03125.203125 1.390625.1875.328125.5.5.875.5.6875 0 .9375-.71875.9375-1.140625 0-.34375-.25-.34375-.375-.34375-.109375 0-.359375 0-.375.328125 0 .078125-.015625.484375-.203125.484375-.3125 0-.3125-.5-.3125-1.078125 0-.6875 0-.78125-.09375-1.03125-.125-.3125-.375-.546875-.53125-.65625zm0 0"/></symbol><g><use x="19.735" xlink:href="#a" y="11.152"/><use x="25.796096" xlink:href="#b" y="11.152"/><use x="33.977921" xlink:href="#c" y="11.152"/></g><g><use x="45.944113" xlink:href="#d" y="11.152"/><use x="52.005209" xlink:href="#e" y="11.152"/><use x="56.307758" xlink:href="#f" y="11.152"/><use x="61.155762" xlink:href="#e" y="11.152"/></g><use x="69.095" xlink:href="#E" y="11.152"/><use x="74.209" xlink:href="#g" y="11.152"/><g><use x="80.872278" xlink:href="#h" y="11.152"/><use x="85.114827" xlink:href="#i" y="11.152"/><use x="91.175923" xlink:href="#f" y="11.152"/></g><g><use x="99.656658" xlink:href="#j" y="11.152"/><use x="105.717754" xlink:href="#k" y="11.152"/><use x="108.748302" xlink:href="#e" y="11.152"/><use x="113.050851" xlink:href="#h" y="11.152"/><use x="117.2934" xlink:href="#l" y="11.152"/><use x="122.74795" xlink:href="#m" y="11.152"/><use x="128.809045" xlink:href="#n" y="11.152"/><use x="133.65705" xlink:href="#f" y="11.152"/></g><g><use x="142.148693" xlink:href="#l" y="11.152"/><use x="147.603243" xlink:href="#o" y="11.152"/><use x="150.633791" xlink:href="#p" y="11.152"/><use x="156.088341" xlink:href="#m" y="11.152"/></g><use x="162.138528" xlink:href="#q" y="11.152"/><use x="171.236717" xlink:href="#l" y="11.152"/><g><use x="180.323998" xlink:href="#r" y="11.152"/><use x="184.597092" xlink:href="#f" y="11.152"/><use x="189.445096" xlink:href="#s" y="11.152"/><use x="192.778917" xlink:href="#f" y="11.152"/><use x="197.626921" xlink:href="#r" y="11.152"/><use x="201.900015" xlink:href="#f" y="11.152"/><use x="206.74802" xlink:href="#m" y="11.152"/><use x="212.809115" xlink:href="#n" y="11.152"/><use x="217.65712" xlink:href="#f" y="11.152"/></g><g><use x="226.137854" xlink:href="#o" y="11.152"/><use x="229.168402" xlink:href="#k" y="11.152"/><use x="232.19895" xlink:href="#m" y="11.152"/><use x="238.260046" xlink:href="#f" y="11.152"/></g><g><use x="246.74078" xlink:href="#l" y="11.152"/><use x="252.19533" xlink:href="#e" y="11.152"/></g><g><use x="260.130609" xlink:href="#h" y="11.152"/><use x="264.373158" xlink:href="#i" y="11.152"/><use x="270.434254" xlink:href="#f" y="11.152"/></g><g><use x="278.925898" xlink:href="#k" y="11.152"/><use x="281.956446" xlink:href="#m" y="11.152"/><use x="288.017542" xlink:href="#j" y="11.152"/><use x="294.078638" xlink:href="#f" y="11.152"/><use x="298.926642" xlink:href="#t" y="11.152"/></g><g><use x="305.282283" xlink:href="#f" y="11.152"/><use x="310.130288" xlink:href="#m" y="11.152"/><use x="316.191383" xlink:href="#j" y="11.152"/><use x="322.252479" xlink:href="#f" y="11.152"/><use x="327.100483" xlink:href="#m" y="11.152"/></g><use x="332.856125" xlink:href="#h" y="11.152"/><use x="340.742313" xlink:href="#u" y="11.152"/><g><use x="345.889226" xlink:href="#l" y="11.152"/><use x="351.343776" xlink:href="#r" y="11.152"/><use x="355.616871" xlink:href="#k" y="11.152"/><use x="358.647419" xlink:href="#l" y="11.152"/><use x="364.101969" xlink:href="#v" y="11.152"/><use x="370.163065" xlink:href="#o" y="11.152"/><use x="373.193613" xlink:href="#f" y="11.152"/><use x="378.041617" xlink:href="#w" y="11.152"/></g><g><use x="385.915805" xlink:href="#x" y="11.152"/><use x="393.794357" xlink:href="#i" y="11.152"/><use x="399.855453" xlink:href="#f" y="11.152"/></g><g><use x="408.347097" xlink:href="#r" y="11.152"/><use x="412.620191" xlink:href="#f" y="11.152"/><use x="417.468195" xlink:href="#s" y="11.152"/><use x="420.802016" xlink:href="#f" y="11.152"/><use x="425.65002" xlink:href="#r" y="11.152"/><use x="429.923115" xlink:href="#f" y="11.152"/><use x="434.771119" xlink:href="#m" y="11.152"/><use x="440.832215" xlink:href="#n" y="11.152"/><use x="445.680219" xlink:href="#f" y="11.152"/></g><g><use x="454.160953" xlink:href="#o" y="11.152"/><use x="457.191501" xlink:href="#k" y="11.152"/><use x="460.222049" xlink:href="#m" y="11.152"/><use x="466.283145" xlink:href="#f" y="11.152"/></g><g><use x="474.763879" xlink:href="#k" y="11.152"/><use x="477.794427" xlink:href="#e" y="11.152"/></g><g><use x="485.729707" xlink:href="#f" y="11.152"/><use x="490.577711" xlink:href="#k" y="11.152"/><use x="493.608259" xlink:href="#h" y="11.152"/><use x="497.850808" xlink:href="#i" y="11.152"/><use x="503.911904" xlink:href="#f" y="11.152"/><use x="508.759908" xlink:href="#r" y="11.152"/></g><use x="2.798" xlink:href="#l" y="24.701"/><g><use x="12.485281" xlink:href="#e" y="24.701"/><use x="16.78783" xlink:href="#h" y="24.701"/><use x="21.030379" xlink:href="#r" y="24.701"/><use x="25.303473" xlink:href="#l" y="24.701"/><use x="30.758023" xlink:href="#k" y="24.701"/><use x="33.788571" xlink:href="#q" y="24.701"/><use x="39.243121" xlink:href="#i" y="24.701"/></g><use x="44.998762" xlink:href="#h" y="24.701"/><g><use x="53.474042" xlink:href="#o" y="24.701"/><use x="56.50459" xlink:href="#k" y="24.701"/><use x="59.535138" xlink:href="#m" y="24.701"/><use x="65.596234" xlink:href="#f" y="24.701"/></g><g><use x="74.676969" xlink:href="#p" y="24.701"/><use x="80.131519" xlink:href="#r" y="24.701"/></g><g><use x="88.637344" xlink:href="#l" y="24.701"/><use x="94.091894" xlink:href="#m" y="24.701"/></g><g><use x="104.385721" xlink:href="#l" y="24.701"/><use x="109.840271" xlink:href="#r" y="24.701"/><use x="114.113365" xlink:href="#n" y="24.701"/></g><g><use x="123.1941" xlink:href="#h" y="24.701"/><use x="127.436649" xlink:href="#i" y="24.701"/><use x="133.497745" xlink:href="#r" y="24.701"/><use x="137.77084" xlink:href="#p" y="24.701"/><use x="143.22539" xlink:href="#d" y="24.701"/><use x="149.286486" xlink:href="#q" y="24.701"/><use x="154.741036" xlink:href="#i" y="24.701"/></g><g><use x="165.034862" xlink:href="#l" y="24.701"/><use x="170.489412" xlink:href="#m" y="24.701"/></g><g><use x="180.783239" xlink:href="#f" y="24.701"/><use x="185.631243" xlink:href="#o" y="24.701"/><use x="188.661791" xlink:href="#f" y="24.701"/><use x="193.509795" xlink:href="#y" y="24.701"/></g><g><use x="202.611257" xlink:href="#f" y="24.701"/><use x="207.459261" xlink:href="#m" y="24.701"/></g><g><use x="213.214903" xlink:href="#h" y="24.701"/><use x="217.457452" xlink:href="#w" y="24.701"/></g><g><use x="227.120732" xlink:href="#x" y="24.701"/><use x="234.999284" xlink:href="#i" y="24.701"/><use x="241.06038" xlink:href="#f" y="24.701"/></g><g><use x="250.141115" xlink:href="#l" y="24.701"/><use x="255.595665" xlink:href="#r" y="24.701"/><use x="259.86876" xlink:href="#n" y="24.701"/></g><g><use x="268.960404" xlink:href="#k" y="24.701"/><use x="271.990952" xlink:href="#e" y="24.701"/></g><use x="280.526231" xlink:href="#n" y="24.701"/><g><use x="285.068781" xlink:href="#i" y="24.701"/><use x="291.129877" xlink:href="#p" y="24.701"/><use x="296.584427" xlink:href="#e" y="24.701"/><use x="300.886976" xlink:href="#f" y="24.701"/><use x="305.73498" xlink:href="#m" y="24.701"/></g><g><use x="316.028806" xlink:href="#s" y="24.701"/><use x="319.362627" xlink:href="#p" y="24.701"/><use x="324.817177" xlink:href="#r" y="24.701"/></g><g><use x="333.323003" xlink:href="#f" y="24.701"/><use x="338.171007" xlink:href="#o" y="24.701"/><use x="341.201555" xlink:href="#f" y="24.701"/><use x="346.049559" xlink:href="#y" y="24.701"/><use x="355.140112" xlink:href="#f" y="24.701"/><use x="359.988116" xlink:href="#m" y="24.701"/></g><g><use x="365.743757" xlink:href="#h" y="24.701"/><use x="369.986306" xlink:href="#e" y="24.701"/></g><g><use x="378.521586" xlink:href="#z" y="24.701"/><use x="386.400138" xlink:href="#k" y="24.701"/><use x="389.430686" xlink:href="#h" y="24.701"/><use x="393.673235" xlink:href="#i" y="24.701"/></g><g><use x="403.967062" xlink:href="#m" y="24.701"/><use x="410.028158" xlink:href="#p" y="24.701"/><use x="415.482708" xlink:href="#m" y="24.701"/><use x="421.543803" xlink:href="#A" y="24.701"/><use x="426.391808" xlink:href="#f" y="24.701"/><use x="431.239812" xlink:href="#r" y="24.701"/><use x="435.512906" xlink:href="#p" y="24.701"/></g><g><use x="445.205" xlink:href="#F" y="24.701"/><use x="450.932277" xlink:href="#G" y="24.701"/><use x="456.659555" xlink:href="#H" y="24.701"/><use x="462.386832" xlink:href="#I" y="24.701"/><use x="468.11411" xlink:href="#J" y="24.701"/></g><g><use x="478.074" xlink:href="#e" y="24.701"/><use x="482.376549" xlink:href="#d" y="24.701"/><use x="488.437645" xlink:href="#n" y="24.701"/></g><use x="492.980194" xlink:href="#i" y="24.701"/><g><use x="503.274021" xlink:href="#l" y="24.701"/><use x="508.728571" xlink:href="#e" y="24.701"/></g><g><use x="2.798" xlink:href="#K" y="38.25"/><use x="8.525278" xlink:href="#J" y="38.25"/><use x="14.252555" xlink:href="#G" y="38.25"/><use x="19.979833" xlink:href="#L" y="38.25"/></g><g><use x="30.023" xlink:href="#l" y="38.25"/><use x="35.47755" xlink:href="#m" y="38.25"/><use x="41.538646" xlink:href="#j" y="38.25"/></g><g><use x="51.915" xlink:href="#M" y="38.25"/><use x="57.642278" xlink:href="#N" y="38.25"/><use x="63.369555" xlink:href="#I" y="38.25"/><use x="69.096833" xlink:href="#O" y="38.25"/></g><use x="74.824" xlink:href="#g" y="38.25"/><g><use x="82.174552" xlink:href="#p" y="38.25"/><use x="87.629102" xlink:href="#h" y="38.25"/><use x="91.871651" xlink:href="#i" y="38.25"/><use x="97.932747" xlink:href="#f" y="38.25"/><use x="102.780751" xlink:href="#r" y="38.25"/><use x="107.053845" xlink:href="#z" y="38.25"/><use x="114.932397" xlink:href="#k" y="38.25"/><use x="117.962945" xlink:href="#e" y="38.25"/><use x="122.265494" xlink:href="#f" y="38.25"/></g><g><use x="131.422593" xlink:href="#h" y="38.25"/><use x="135.665142" xlink:href="#i" y="38.25"/><use x="141.726238" xlink:href="#f" y="38.25"/></g><g><use x="150.894245" xlink:href="#r" y="38.25"/><use x="155.16734" xlink:href="#f" y="38.25"/><use x="160.015344" xlink:href="#s" y="38.25"/><use x="163.349165" xlink:href="#f" y="38.25"/><use x="168.197169" xlink:href="#r" y="38.25"/><use x="172.470263" xlink:href="#f" y="38.25"/><use x="177.318267" xlink:href="#m" y="38.25"/><use x="183.379363" xlink:href="#n" y="38.25"/><use x="188.227367" xlink:href="#f" y="38.25"/></g><g><use x="197.395375" xlink:href="#o" y="38.25"/><use x="200.425923" xlink:href="#k" y="38.25"/><use x="203.456471" xlink:href="#m" y="38.25"/><use x="209.517567" xlink:href="#f" y="38.25"/></g><g><use x="218.674665" xlink:href="#k" y="38.25"/><use x="221.705213" xlink:href="#e" y="38.25"/></g><use x="230.327766" xlink:href="#l" y="38.25"/><g><use x="240.10232" xlink:href="#e" y="38.25"/><use x="244.404869" xlink:href="#h" y="38.25"/><use x="248.647418" xlink:href="#r" y="38.25"/><use x="252.920512" xlink:href="#l" y="38.25"/><use x="258.375062" xlink:href="#k" y="38.25"/><use x="261.40561" xlink:href="#q" y="38.25"/><use x="266.86016" xlink:href="#i" y="38.25"/></g><use x="272.615801" xlink:href="#h" y="38.25"/><g><use x="281.178354" xlink:href="#o" y="38.25"/><use x="284.208902" xlink:href="#k" y="38.25"/><use x="287.23945" xlink:href="#m" y="38.25"/></g><use x="293.289637" xlink:href="#f" y="38.25"/><use x="298.14855" xlink:href="#w" y="38.25"/><g><use x="308.06274" xlink:href="#x" y="38.25"/><use x="315.941292" xlink:href="#i" y="38.25"/><use x="322.002388" xlink:href="#f" y="38.25"/></g><g><use x="331.170395" xlink:href="#r" y="38.25"/><use x="335.44349" xlink:href="#f" y="38.25"/><use x="340.291494" xlink:href="#s" y="38.25"/><use x="343.625315" xlink:href="#f" y="38.25"/><use x="348.473319" xlink:href="#r" y="38.25"/><use x="352.746413" xlink:href="#f" y="38.25"/><use x="357.594417" xlink:href="#m" y="38.25"/><use x="363.655513" xlink:href="#n" y="38.25"/><use x="368.503517" xlink:href="#f" y="38.25"/></g><g><use x="377.660616" xlink:href="#o" y="38.25"/><use x="380.691164" xlink:href="#k" y="38.25"/><use x="383.721712" xlink:href="#m" y="38.25"/><use x="389.782808" xlink:href="#f" y="38.25"/></g><g><use x="398.950816" xlink:href="#k" y="38.25"/><use x="401.981364" xlink:href="#e" y="38.25"/></g><g><use x="410.603916" xlink:href="#l" y="38.25"/><use x="416.058466" xlink:href="#m" y="38.25"/></g><g><use x="426.428657" xlink:href="#l" y="38.25"/><use x="431.883207" xlink:href="#v" y="38.25"/><use x="437.944303" xlink:href="#e" y="38.25"/><use x="442.246852" xlink:href="#h" y="38.25"/><use x="446.489401" xlink:href="#r" y="38.25"/><use x="450.762495" xlink:href="#l" y="38.25"/><use x="456.217045" xlink:href="#n" y="38.25"/><use x="461.065049" xlink:href="#h" y="38.25"/></g><g><use x="469.627602" xlink:href="#p" y="38.25"/><use x="475.082152" xlink:href="#v" y="38.25"/></g><use x="481.754157" xlink:href="#B" y="38.25"/><use x="485.077069" xlink:href="#f" y="38.25"/><g><use x="489.935982" xlink:href="#n" y="38.25"/><use x="494.783986" xlink:href="#h" y="38.25"/></g><g><use x="503.33563" xlink:href="#h" y="38.25"/><use x="507.578179" xlink:href="#p" y="38.25"/></g><g><use x="2.798" xlink:href="#j" y="51.799"/><use x="8.859096" xlink:href="#f" y="51.799"/><use x="13.7071" xlink:href="#e" y="51.799"/><use x="18.009649" xlink:href="#n" y="51.799"/><use x="22.857653" xlink:href="#r" y="51.799"/><use x="27.130748" xlink:href="#k" y="51.799"/><use x="30.161296" xlink:href="#v" y="51.799"/></g><use x="36.527846" xlink:href="#f" y="51.799"/><g><use x="45.281308" xlink:href="#h" y="51.799"/><use x="49.523857" xlink:href="#i" y="51.799"/><use x="55.584953" xlink:href="#f" y="51.799"/></g><g><use x="64.327506" xlink:href="#y" y="51.799"/><use x="73.418059" xlink:href="#p" y="51.799"/><use x="78.872609" xlink:href="#h" y="51.799"/><use x="83.115158" xlink:href="#k" y="51.799"/><use x="86.145706" xlink:href="#p" y="51.799"/><use x="91.600256" xlink:href="#m" y="51.799"/></g><g><use x="101.56681" xlink:href="#p" y="51.799"/><use x="107.02136" xlink:href="#s" y="51.799"/></g><g><use x="114.260638" xlink:href="#t" y="51.799"/><use x="120.321734" xlink:href="#l" y="51.799"/><use x="125.776284" xlink:href="#r" y="51.799"/><use x="130.049379" xlink:href="#h" y="51.799"/><use x="134.291928" xlink:href="#k" y="51.799"/><use x="137.322476" xlink:href="#n" y="51.799"/><use x="142.17048" xlink:href="#o" y="51.799"/><use x="145.201028" xlink:href="#f" y="51.799"/><use x="150.049032" xlink:href="#e" y="51.799"/><use x="154.351581" xlink:href="#g" y="51.799"/></g><g><use x="161.353041" xlink:href="#l" y="51.799"/><use x="166.807591" xlink:href="#m" y="51.799"/><use x="172.868687" xlink:href="#j" y="51.799"/></g><g><use x="182.824332" xlink:href="#m" y="51.799"/><use x="188.885428" xlink:href="#p" y="51.799"/><use x="194.339978" xlink:href="#h" y="51.799"/></g><g><use x="202.487985" xlink:href="#m" y="51.799"/><use x="208.549081" xlink:href="#f" y="51.799"/><use x="213.397085" xlink:href="#n" y="51.799"/><use x="218.245089" xlink:href="#f" y="51.799"/><use x="223.093093" xlink:href="#e" y="51.799"/><use x="227.395642" xlink:href="#e" y="51.799"/><use x="231.698191" xlink:href="#l" y="51.799"/><use x="237.152741" xlink:href="#r" y="51.799"/><use x="241.425835" xlink:href="#k" y="51.799"/><use x="244.456383" xlink:href="#o" y="51.799"/><use x="247.486931" xlink:href="#C" y="51.799"/></g><g><use x="257.150212" xlink:href="#h" y="51.799"/><use x="261.392761" xlink:href="#p" y="51.799"/></g><use x="270.752769" xlink:href="#v" y="51.799"/><use x="277.10841" xlink:href="#f" y="51.799"/><g><use x="285.861872" xlink:href="#l" y="51.799"/><use x="291.316422" xlink:href="#m" y="51.799"/></g><g><use x="301.282976" xlink:href="#p" y="51.799"/><use x="306.737526" xlink:href="#r" y="51.799"/><use x="311.01062" xlink:href="#v" y="51.799"/><use x="317.071716" xlink:href="#k" y="51.799"/><use x="320.102264" xlink:href="#h" y="51.799"/></g><g><use x="328.239362" xlink:href="#p" y="51.799"/><use x="333.693912" xlink:href="#s" y="51.799"/></g><use x="340.933191" xlink:href="#l" y="51.799"/><g><use x="350.293199" xlink:href="#t" y="51.799"/><use x="356.354295" xlink:href="#l" y="51.799"/><use x="361.808845" xlink:href="#r" y="51.799"/><use x="366.081939" xlink:href="#h" y="51.799"/><use x="370.324488" xlink:href="#k" y="51.799"/><use x="373.355036" xlink:href="#n" y="51.799"/><use x="378.20304" xlink:href="#o" y="51.799"/><use x="381.233588" xlink:href="#f" y="51.799"/><use x="386.081592" xlink:href="#w" y="51.799"/></g><g><use x="394.752145" xlink:href="#D" y="51.799"/><use x="402.176878" xlink:href="#u" y="51.799"/></g><g><use x="407.640156" xlink:href="#f" y="51.799"/><use x="412.48816" xlink:href="#m" y="51.799"/></g><g><use x="422.443804" xlink:href="#h" y="51.799"/><use x="426.686353" xlink:href="#i" y="51.799"/><use x="432.747449" xlink:href="#f" y="51.799"/></g><g><use x="441.500911" xlink:href="#p" y="51.799"/><use x="446.955461" xlink:href="#r" y="51.799"/><use x="451.228556" xlink:href="#v" y="51.799"/><use x="457.289651" xlink:href="#k" y="51.799"/><use x="460.320199" xlink:href="#h" y="51.799"/></g><g><use x="468.468206" xlink:href="#k" y="51.799"/><use x="471.498754" xlink:href="#e" y="51.799"/></g><use x="479.706761" xlink:href="#i" y="51.799"/><use x="485.756948" xlink:href="#f" y="51.799"/><g><use x="490.615861" xlink:href="#o" y="51.799"/><use x="493.646409" xlink:href="#k" y="51.799"/><use x="496.676957" xlink:href="#n" y="51.799"/><use x="501.524961" xlink:href="#l" y="51.799"/><use x="506.979511" xlink:href="#o" y="51.799"/><use x="510.010059" xlink:href="#g" y="51.799"/></g><g><use x="2.798" xlink:href="#s" y="65.348"/><use x="6.131821" xlink:href="#p" y="65.348"/><use x="11.586371" xlink:href="#r" y="65.348"/></g><g><use x="19.492196" xlink:href="#k" y="65.348"/><use x="22.522744" xlink:href="#m" y="65.348"/><use x="28.58384" xlink:href="#e" y="65.348"/><use x="32.886389" xlink:href="#h" y="65.348"/><use x="37.128938" xlink:href="#l" y="65.348"/><use x="42.583488" xlink:href="#m" y="65.348"/><use x="48.644584" xlink:href="#n" y="65.348"/><use x="53.492588" xlink:href="#f" y="65.348"/></g><g><use x="61.984231" xlink:href="#k" y="65.348"/><use x="65.014779" xlink:href="#m" y="65.348"/></g><use x="74.708605" xlink:href="#l" y="65.348"/><g><use x="83.795886" xlink:href="#e" y="65.348"/><use x="88.098435" xlink:href="#p" y="65.348"/><use x="93.552985" xlink:href="#o" y="65.348"/><use x="96.583533" xlink:href="#f" y="65.348"/><use x="101.431537" xlink:href="#m" y="65.348"/><use x="107.492633" xlink:href="#p" y="65.348"/><use x="112.947183" xlink:href="#k" y="65.348"/><use x="115.977731" xlink:href="#j" y="65.348"/><use x="122.038827" xlink:href="#g" y="65.348"/></g><use x="128.713014" xlink:href="#h" y="65.348"/><g><use x="132.944654" xlink:href="#i" y="65.348"/><use x="139.00575" xlink:href="#f" y="65.348"/></g><g><use x="147.497393" xlink:href="#r" y="65.348"/><use x="151.770488" xlink:href="#f" y="65.348"/><use x="156.618492" xlink:href="#s" y="65.348"/><use x="159.952313" xlink:href="#f" y="65.348"/><use x="164.800317" xlink:href="#r" y="65.348"/><use x="169.073411" xlink:href="#f" y="65.348"/><use x="173.921415" xlink:href="#m" y="65.348"/><use x="179.982511" xlink:href="#n" y="65.348"/><use x="184.830515" xlink:href="#f" y="65.348"/></g><g><use x="193.31125" xlink:href="#o" y="65.348"/><use x="196.341798" xlink:href="#k" y="65.348"/><use x="199.372346" xlink:href="#m" y="65.348"/><use x="205.433442" xlink:href="#f" y="65.348"/></g><g><use x="213.925085" xlink:href="#k" y="65.348"/><use x="216.955633" xlink:href="#e" y="65.348"/></g><g><use x="224.890912" xlink:href="#e" y="65.348"/><use x="229.193461" xlink:href="#h" y="65.348"/><use x="233.43601" xlink:href="#r" y="65.348"/><use x="237.709105" xlink:href="#l" y="65.348"/><use x="243.163655" xlink:href="#k" y="65.348"/><use x="246.194203" xlink:href="#q" y="65.348"/><use x="251.648753" xlink:href="#i" y="65.348"/></g><g><use x="257.404394" xlink:href="#h" y="65.348"/><use x="261.646943" xlink:href="#w" y="65.348"/></g><g><use x="269.521131" xlink:href="#b" y="65.348"/><use x="277.702956" xlink:href="#m" y="65.348"/></g><g><use x="287.407692" xlink:href="#l" y="65.348"/><use x="292.862242" xlink:href="#r" y="65.348"/><use x="297.135336" xlink:href="#n" y="65.348"/></g><g><use x="305.616071" xlink:href="#k" y="65.348"/><use x="308.646619" xlink:href="#e" y="65.348"/></g><g><use x="316.581898" xlink:href="#l" y="65.348"/><use x="322.036448" xlink:href="#o" y="65.348"/><use x="325.066996" xlink:href="#z" y="65.348"/></g><use x="332.651002" xlink:href="#l" y="65.348"/><g><use x="337.800097" xlink:href="#C" y="65.348"/><use x="343.55792" xlink:href="#e" y="65.348"/></g><use x="351.4932" xlink:href="#v" y="65.348"/><g><use x="357.85975" xlink:href="#f" y="65.348"/><use x="362.707754" xlink:href="#m" y="65.348"/></g><use x="368.463396" xlink:href="#h" y="65.348"/><g><use x="376.349584" xlink:href="#o" y="65.348"/><use x="379.380132" xlink:href="#p" y="65.348"/></g><g><use x="385.129228" xlink:href="#n" y="65.348"/><use x="389.977232" xlink:href="#l" y="65.348"/><use x="395.431782" xlink:href="#o" y="65.348"/><use x="398.46233" xlink:href="#o" y="65.348"/><use x="401.492878" xlink:href="#C" y="65.348"/></g><g><use x="410.89434" xlink:href="#i" y="65.348"/><use x="416.955436" xlink:href="#p" y="65.348"/><use x="422.409986" xlink:href="#r" y="65.348"/><use x="426.683081" xlink:href="#k" y="65.348"/><use x="429.713628" xlink:href="#A" y="65.348"/><use x="434.561633" xlink:href="#p" y="65.348"/><use x="440.016183" xlink:href="#m" y="65.348"/></g><g><use x="445.771824" xlink:href="#h" y="65.348"/><use x="450.014373" xlink:href="#l" y="65.348"/><use x="455.468923" xlink:href="#o" y="65.348"/><use x="458.499471" xlink:href="#o" y="65.348"/><use x="461.530019" xlink:href="#C" y="65.348"/></g><use x="466.371477" xlink:href="#w" y="65.348"/><g><use x="2.798" xlink:href="#a" y="78.898"/><use x="8.859096" xlink:href="#d" y="78.898"/><use x="14.920192" xlink:href="#n" y="78.898"/></g><use x="19.462741" xlink:href="#i" y="78.898"/><g><use x="30.072932" xlink:href="#r" y="78.898"/><use x="34.346026" xlink:href="#f" y="78.898"/><use x="39.19403" xlink:href="#s" y="78.898"/><use x="42.527851" xlink:href="#f" y="78.898"/><use x="47.375855" xlink:href="#r" y="78.898"/><use x="51.64895" xlink:href="#f" y="78.898"/><use x="56.496954" xlink:href="#m" y="78.898"/><use x="62.55805" xlink:href="#n" y="78.898"/><use x="67.406054" xlink:href="#f" y="78.898"/></g><g><use x="76.814062" xlink:href="#o" y="78.898"/><use x="79.84461" xlink:href="#k" y="78.898"/><use x="82.875158" xlink:href="#m" y="78.898"/><use x="88.936254" xlink:href="#f" y="78.898"/><use x="93.784258" xlink:href="#e" y="78.898"/></g><g><use x="102.635901" xlink:href="#n" y="78.898"/><use x="107.483905" xlink:href="#l" y="78.898"/><use x="112.938455" xlink:href="#m" y="78.898"/></g><use x="123.548646" xlink:href="#v" y="78.898"/><use x="129.915197" xlink:href="#f" y="78.898"/><g><use x="139.312296" xlink:href="#j" y="78.898"/><use x="145.373392" xlink:href="#k" y="78.898"/><use x="148.40394" xlink:href="#e" y="78.898"/><use x="152.706489" xlink:href="#n" y="78.898"/><use x="157.554493" xlink:href="#p" y="78.898"/><use x="163.009043" xlink:href="#m" y="78.898"/></g><use x="168.775593" xlink:href="#h" y="78.898"/><g><use x="173.007233" xlink:href="#k" y="78.898"/><use x="176.037781" xlink:href="#m" y="78.898"/></g><g><use x="181.804331" xlink:href="#d" y="78.898"/><use x="187.865427" xlink:href="#p" y="78.898"/><use x="193.319977" xlink:href="#d" y="78.898"/><use x="199.381073" xlink:href="#e" y="78.898"/></g><g><use x="208.232717" xlink:href="#l" y="78.898"/><use x="213.687267" xlink:href="#h" y="78.898"/></g><g><use x="222.47891" xlink:href="#e" y="78.898"/><use x="226.781459" xlink:href="#p" y="78.898"/><use x="232.236009" xlink:href="#y" y="78.898"/><use x="241.326562" xlink:href="#f" y="78.898"/></g><g><use x="250.723661" xlink:href="#o" y="78.898"/><use x="253.754209" xlink:href="#p" y="78.898"/></g><g><use x="259.514214" xlink:href="#n" y="78.898"/><use x="264.362218" xlink:href="#l" y="78.898"/><use x="269.816768" xlink:href="#h" y="78.898"/><use x="274.059317" xlink:href="#k" y="78.898"/><use x="277.089865" xlink:href="#p" y="78.898"/><use x="282.544415" xlink:href="#m" y="78.898"/><use x="288.605511" xlink:href="#e" y="78.898"/></g><g><use x="297.468064" xlink:href="#e" y="78.898"/><use x="301.770613" xlink:href="#d" y="78.898"/><use x="307.831709" xlink:href="#n" y="78.898"/></g><use x="312.374258" xlink:href="#i" y="78.898"/><g><use x="322.984449" xlink:href="#l" y="78.898"/><use x="328.438999" xlink:href="#e" y="78.898"/></g><g><use x="337.290642" xlink:href="#l" y="78.898"/><use x="342.745192" xlink:href="#m" y="78.898"/></g><g><use x="353.366292" xlink:href="#f" y="78.898"/><use x="358.214296" xlink:href="#m" y="78.898"/><use x="364.275392" xlink:href="#j" y="78.898"/></g><g><use x="374.885583" xlink:href="#p" y="78.898"/><use x="380.340133" xlink:href="#s" y="78.898"/></g><g><use x="388.223048" xlink:href="#h" y="78.898"/><use x="392.465597" xlink:href="#k" y="78.898"/><use x="395.496145" xlink:href="#o" y="78.898"/><use x="398.526693" xlink:href="#h" y="78.898"/><use x="402.769242" xlink:href="#f" y="78.898"/><use x="407.617246" xlink:href="#j" y="78.898"/></g><g><use x="418.229" xlink:href="#P" y="78.898"/><use x="423.956277" xlink:href="#Q" y="78.898"/><use x="429.683555" xlink:href="#I" y="78.898"/></g><g><use x="439.961" xlink:href="#p" y="78.898"/><use x="445.41555" xlink:href="#r" y="78.898"/></g><g><use x="454.24" xlink:href="#R" y="78.898"/><use x="459.967277" xlink:href="#Q" y="78.898"/><use x="465.694555" xlink:href="#Q" y="78.898"/><use x="471.421832" xlink:href="#S" y="78.898"/><use x="477.14911" xlink:href="#L" y="78.898"/></g><use x="482.876" xlink:href="#w" y="78.898"/><g><use x="490.455643" xlink:href="#a" y="78.898"/><use x="496.516739" xlink:href="#b" y="78.898"/><use x="504.698564" xlink:href="#c" y="78.898"/></g><g><use x="2.798" xlink:href="#l" y="92.447"/><use x="8.25255" xlink:href="#d" y="92.447"/><use x="14.313646" xlink:href="#h" y="92.447"/><use x="18.556195" xlink:href="#p" y="92.447"/><use x="24.010745" xlink:href="#y" y="92.447"/><use x="33.101298" xlink:href="#l" y="92.447"/><use x="38.555848" xlink:href="#h" y="92.447"/><use x="42.798397" xlink:href="#k" y="92.447"/><use x="45.828945" xlink:href="#n" y="92.447"/><use x="50.676949" xlink:href="#l" y="92.447"/><use x="56.131499" xlink:href="#o" y="92.447"/><use x="59.162047" xlink:href="#o" y="92.447"/><use x="62.192595" xlink:href="#C" y="92.447"/></g><g><use x="71.583148" xlink:href="#n" y="92.447"/><use x="76.431152" xlink:href="#l" y="92.447"/><use x="81.885702" xlink:href="#o" y="92.447"/><use x="84.91625" xlink:href="#n" y="92.447"/><use x="89.764254" xlink:href="#d" y="92.447"/><use x="95.82535" xlink:href="#o" y="92.447"/><use x="98.855898" xlink:href="#l" y="92.447"/><use x="104.310448" xlink:href="#h" y="92.447"/><use x="108.552997" xlink:href="#f" y="92.447"/><use x="113.401001" xlink:href="#e" y="92.447"/></g><g><use x="121.34719" xlink:href="#h" y="92.447"/><use x="125.589739" xlink:href="#r" y="92.447"/><use x="129.862833" xlink:href="#l" y="92.447"/><use x="135.317383" xlink:href="#m" y="92.447"/><use x="141.378479" xlink:href="#e" y="92.447"/><use x="145.681028" xlink:href="#s" y="92.447"/><use x="149.014849" xlink:href="#p" y="92.447"/><use x="154.469399" xlink:href="#r" y="92.447"/><use x="158.742494" xlink:href="#y" y="92.447"/><use x="167.833047" xlink:href="#l" y="92.447"/><use x="173.287597" xlink:href="#h" y="92.447"/><use x="177.530146" xlink:href="#k" y="92.447"/><use x="180.560694" xlink:href="#p" y="92.447"/><use x="186.015244" xlink:href="#m" y="92.447"/></g><g><use x="195.70907" xlink:href="#p" y="92.447"/><use x="201.16362" xlink:href="#s" y="92.447"/></g><use x="208.130171" xlink:href="#u" y="92.447"/><g><use x="213.287994" xlink:href="#l" y="92.447"/><use x="218.742544" xlink:href="#r" y="92.447"/><use x="223.015638" xlink:href="#k" y="92.447"/><use x="226.046186" xlink:href="#l" y="92.447"/><use x="231.500736" xlink:href="#v" y="92.447"/><use x="237.561832" xlink:href="#o" y="92.447"/></g><use x="240.581471" xlink:href="#f" y="92.447"/><use x="245.440384" xlink:href="#e" y="92.447"/><g><use x="253.375663" xlink:href="#l" y="92.447"/><use x="258.830213" xlink:href="#h" y="92.447"/></g><g><use x="266.705493" xlink:href="#e" y="92.447"/><use x="271.008042" xlink:href="#d" y="92.447"/><use x="277.069138" xlink:href="#n" y="92.447"/></g><use x="281.611687" xlink:href="#i" y="92.447"/><g><use x="291.316422" xlink:href="#o" y="92.447"/><use x="294.34697" xlink:href="#p" y="92.447"/></g><g><use x="300.106975" xlink:href="#n" y="92.447"/><use x="304.954979" xlink:href="#l" y="92.447"/><use x="310.409529" xlink:href="#h" y="92.447"/><use x="314.652078" xlink:href="#k" y="92.447"/><use x="317.682626" xlink:href="#p" y="92.447"/><use x="323.137176" xlink:href="#m" y="92.447"/><use x="329.198272" xlink:href="#e" y="92.447"/><use x="333.500821" xlink:href="#w" y="92.447"/></g></svg>