<svg height="97pt" viewBox="0 0 368 97" width="368pt" xmlns="http://www.w3.org/2000/svg" xmlns:xlink="http://www.w3.org/1999/xlink"><symbol id="a" overflow="visible"><path d="m3.640625-3.296875c.0625-.28125.3125-1.28125 1.078125-1.28125.0625 0 .3125 0 .546875.140625-.296875.046875-.515625.328125-.515625.59375 0 .171875.109375.375.40625.375.25 0 .59375-.203125.59375-.625 0-.578125-.640625-.734375-1.015625-.734375-.640625 0-1.015625.578125-1.140625.84375-.28125-.734375-.875-.84375-1.1875-.84375-1.125 0-1.75 1.421875-1.75 1.6875 0 .109375.109375.109375.125.109375.09375 0 .125-.015625.140625-.125.375-1.15625 1.09375-1.421875 1.46875-1.421875.203125 0 .59375.09375.59375.734375 0 .328125-.1875 1.0625-.59375 2.59375-.171875.671875-.5625 1.125-1.03125 1.125-.078125 0-.328125 0-.546875-.140625.265625-.046875.5-.28125.5-.578125s-.234375-.390625-.390625-.390625c-.328125 0-.609375.28125-.609375.640625 0 .5.546875.71875 1.03125.71875.71875 0 1.109375-.765625 1.140625-.828125.140625.390625.53125.828125 1.1875.828125 1.109375 0 1.734375-1.40625 1.734375-1.6875 0-.109375-.09375-.109375-.125-.109375-.09375 0-.125.046875-.140625.125-.359375 1.171875-1.109375 1.421875-1.453125 1.421875-.421875 0-.59375-.34375-.59375-.71875 0-.234375.0625-.46875.171875-.953125zm0 0"/></symbol><symbol id="b" overflow="visible"><path d="m5.296875-4.15625c.046875-.15625.046875-.171875.046875-.25 0-.203125-.15625-.296875-.3125-.296875-.109375 0-.28125.0625-.390625.234375-.015625.046875-.109375.390625-.140625.59375-.078125.28125-.15625.578125-.21875.859375l-.5 1.96875c-.046875.15625-.515625.921875-1.234375.921875-.546875 0-.671875-.46875-.671875-.875 0-.5.1875-1.1875.5625-2.140625.171875-.453125.21875-.5625.21875-.78125 0-.5-.359375-.90625-.90625-.90625-1.03125 0-1.4375 1.59375-1.4375 1.6875 0 .109375.109375.109375.140625.109375.109375 0 .109375-.015625.171875-.203125.296875-1.015625.734375-1.34375 1.09375-1.34375.09375 0 .28125 0 .28125.34375 0 .28125-.109375.5625-.1875.765625-.4375 1.15625-.640625 1.78125-.640625 2.296875 0 .96875.6875 1.296875 1.34375 1.296875.421875 0 .78125-.1875 1.09375-.5-.140625.578125-.265625 1.109375-.703125 1.6875-.28125.359375-.703125.6875-1.203125.6875-.15625 0-.640625-.03125-.828125-.46875.171875 0 .3125 0 .46875-.125.109375-.09375.21875-.234375.21875-.453125 0-.328125-.296875-.375-.40625-.375-.25 0-.609375.171875-.609375.703125 0 .546875.484375.953125 1.15625.953125 1.125 0 2.25-.984375 2.546875-2.21875zm0 0"/></symbol><symbol id="c" overflow="visible"><path d="m.359375 1.890625c-.03125.125-.03125.15625-.03125.171875 0 .15625.125.296875.296875.296875.234375 0 .375-.203125.390625-.234375.046875-.09375.40625-1.5625.703125-2.734375.21875.4375.5625.734375 1.078125.734375 1.265625 0 2.671875-1.546875 2.671875-3.171875 0-1.15625-.71875-1.78125-1.515625-1.78125-1.046875 0-2.203125 1.09375-2.53125 2.421875zm2.421875-2.015625c-.765625 0-.9375-.875-.9375-.96875 0-.046875.046875-.265625.09375-.40625.296875-1.21875.40625-1.609375.640625-2.046875.46875-.796875 1.015625-1.03125 1.359375-1.03125.40625 0 .75.3125.75 1.0625 0 .609375-.3125 1.828125-.609375 2.359375-.359375.6875-.875 1.03125-1.296875 1.03125zm0 0"/></symbol><symbol id="d" overflow="visible"><path d="m.484375 1.328125c-.078125.375-.109375.453125-.578125.453125-.140625 0-.25 0-.25.203125 0 .09375.046875.125.140625.125.296875 0 .609375-.03125.90625-.03125.359375 0 .734375.03125 1.078125.03125.0625 0 .203125 0 .203125-.21875 0-.109375-.109375-.109375-.265625-.109375-.546875 0-.546875-.078125-.546875-.171875 0-.140625.46875-1.921875.546875-2.1875.140625.3125.4375.703125 1 .703125 1.265625 0 2.625-1.59375 2.625-3.203125 0-1.015625-.625-1.75-1.453125-1.75-.546875 0-1.0625.40625-1.421875.828125-.109375-.59375-.578125-.828125-.984375-.828125-.5 0-.703125.4375-.8125.625-.1875.375-.328125 1.03125-.328125 1.0625 0 .109375.109375.109375.125.109375.109375 0 .125-.015625.1875-.25.1875-.78125.40625-1.296875.796875-1.296875.1875 0 .328125.078125.328125.5 0 .25-.03125.375-.0625.5625zm1.921875-4.734375c.078125-.296875.375-.59375.578125-.765625.375-.328125.6875-.40625.875-.40625.4375 0 .703125.375.703125 1.015625 0 .65625-.359375 1.90625-.5625 2.3125-.375.765625-.890625 1.125-1.296875 1.125-.71875 0-.859375-.90625-.859375-.96875 0-.015625 0-.046875.03125-.171875zm0 0"/></symbol><symbol id="e" overflow="visible"><path d="m2.21875-.015625c0-.71875-.28125-1.140625-.703125-1.140625-.359375 0-.578125.265625-.578125.578125 0 .296875.21875.578125.578125.578125.125 0 .265625-.046875.375-.140625.046875-.015625.046875-.03125.0625-.03125s.015625.015625.015625.15625c0 .8125-.375 1.46875-.734375 1.828125-.125.125-.125.140625-.125.171875 0 .078125.0625.125.109375.125.125 0 1-.84375 1-2.125zm0 0"/></symbol><symbol id="f" overflow="visible"><path d="m1.453125-.90625c.59375-.625.90625-.90625 1.296875-1.25 0 0 .671875-.578125 1.0625-.96875 1.046875-1.015625 1.28125-1.546875 1.28125-1.59375 0-.109375-.09375-.109375-.125-.109375-.078125 0-.109375.03125-.15625.125-.328125.53125-.5625.703125-.828125.703125-.25 0-.390625-.171875-.546875-.359375-.203125-.25-.390625-.46875-.75-.46875-.828125 0-1.328125 1.015625-1.328125 1.25 0 .0625.03125.125.140625.125.09375 0 .109375-.0625.140625-.125.203125-.5.828125-.515625.921875-.515625.234375 0 .4375.078125.6875.171875.4375.15625.5625.15625.84375.15625-.390625.46875-1.3125 1.25-1.515625 1.4375l-.984375.90625c-.75.734375-1.125 1.359375-1.125 1.4375 0 .109375.109375.109375.125.109375.09375 0 .109375-.03125.1875-.140625.25-.390625.578125-.6875.921875-.6875.25 0 .359375.109375.625.421875.1875.234375.390625.40625.703125.40625 1.078125 0 1.71875-1.390625 1.71875-1.6875 0-.046875-.046875-.109375-.140625-.109375s-.109375.0625-.15625.140625c-.25.71875-.9375.921875-1.296875.921875-.21875 0-.421875-.0625-.640625-.140625-.375-.140625-.546875-.1875-.765625-.1875-.03125 0-.203125 0-.296875.03125zm0 0"/></symbol><symbol id="g" overflow="visible"><path d="m2.09375-.578125c0-.3125-.265625-.578125-.578125-.578125s-.578125.265625-.578125.578125.265625.578125.578125.578125.578125-.265625.578125-.578125zm0 0"/></symbol><symbol id="h" overflow="visible"><path d="m2.25-1.625c.125-.125.453125-.390625.59375-.5.484375-.453125.953125-.890625.953125-1.609375 0-.953125-.796875-1.5625-1.78125-1.5625-.96875 0-1.59375.71875-1.59375 1.4375 0 .390625.3125.4375.421875.4375.171875 0 .421875-.109375.421875-.421875 0-.40625-.40625-.40625-.5-.40625.234375-.59375.765625-.78125 1.15625-.78125.734375 0 1.125.625 1.125 1.296875 0 .828125-.578125 1.4375-1.53125 2.390625l-1 1.046875c-.09375.078125-.09375.09375-.09375.296875h3.140625l.234375-1.421875h-.25c-.015625.15625-.078125.546875-.171875.703125-.046875.0625-.65625.0625-.78125.0625h-1.421875zm0 0"/></symbol><symbol id="i" overflow="visible"><path d="m2.5-5.078125c0-.21875-.015625-.21875-.234375-.21875-.328125.3125-.75.5-1.5.5v.265625c.21875 0 .640625 0 1.109375-.203125v4.078125c0 .296875-.03125.390625-.78125.390625h-.28125v.265625c.328125-.03125 1.015625-.03125 1.375-.03125s1.046875 0 1.375.03125v-.265625h-.28125c-.75 0-.78125-.09375-.78125-.390625zm0 0"/></symbol><symbol id="j" overflow="visible"><path d="m2.015625-2.65625c.625 0 1.03125.453125 1.03125 1.296875 0 1-.5625 1.28125-.984375 1.28125-.4375 0-1.046875-.15625-1.328125-.578125.296875 0 .5-.1875.5-.4375 0-.265625-.1875-.4375-.453125-.4375-.203125 0-.4375.125-.4375.453125 0 .75.8125 1.25 1.734375 1.25 1.046875 0 1.796875-.734375 1.796875-1.53125 0-.671875-.53125-1.265625-1.34375-1.453125.625-.21875 1.109375-.75 1.109375-1.390625s-.71875-1.09375-1.546875-1.09375c-.859375 0-1.5.453125-1.5 1.0625 0 .296875.1875.421875.40625.421875.25 0 .40625-.171875.40625-.40625 0-.296875-.265625-.40625-.4375-.40625.34375-.4375.953125-.46875 1.09375-.46875.203125 0 .8125.0625.8125.890625 0 .546875-.234375.890625-.34375 1.015625-.234375.25-.421875.265625-.90625.296875-.15625 0-.21875.015625-.21875.125s.078125.109375.21875.109375zm0 0"/></symbol><symbol id="k" overflow="visible"><path d="m7.5-3.5625c.15625 0 .359375 0 .359375-.21875s-.203125-.21875-.359375-.21875h-6.53125c-.15625 0-.359375 0-.359375.21875s.203125.21875.375.21875zm0 2.109375c.15625 0 .359375 0 .359375-.21875s-.203125-.21875-.359375-.21875h-6.515625c-.171875 0-.375 0-.375.21875s.203125.21875.359375.21875zm0 0"/></symbol><symbol id="l" overflow="visible"><path d="m4.453125-2.515625h3.046875c.15625 0 .359375 0 .359375-.203125 0-.21875-.203125-.21875-.359375-.21875h-3.046875v-3.0625c0-.15625 0-.359375-.203125-.359375-.21875 0-.21875.203125-.21875.359375v3.0625h-3.0625c-.15625 0-.359375 0-.359375.21875 0 .203125.203125.203125.359375.203125h3.0625v3.0625c0 .15625 0 .359375.21875.359375.203125 0 .203125-.203125.203125-.359375zm0 0"/></symbol><symbol id="m" overflow="visible"><path d="m3.609375 2.625c0-.046875 0-.0625-.1875-.25-1.359375-1.375-1.703125-3.4375-1.703125-5.09375 0-1.90625.40625-3.796875 1.75-5.171875.140625-.125.140625-.140625.140625-.1875 0-.0625-.046875-.09375-.109375-.09375-.109375 0-1.09375.734375-1.734375 2.125-.5625 1.1875-.6875 2.40625-.6875 3.328125 0 .84375.125 2.15625.71875 3.390625.65625 1.34375 1.59375 2.046875 1.703125 2.046875.0625 0 .109375-.03125.109375-.09375zm0 0"/></symbol><symbol id="n" overflow="visible"><path d="m3.203125-6.984375c0-.25 0-.28125-.25-.28125-.671875.703125-1.640625.703125-1.984375.703125v.328125c.21875 0 .859375 0 1.4375-.28125v5.65625c0 .390625-.046875.515625-1.015625.515625h-.359375v.34375c.390625-.03125 1.328125-.03125 1.765625-.03125s1.390625 0 1.765625.03125v-.34375h-.34375c-.984375 0-1.015625-.109375-1.015625-.515625zm0 0"/></symbol><symbol id="o" overflow="visible"><path d="m1.390625-.84375 1.15625-1.125c1.703125-1.5 2.34375-2.09375 2.34375-3.171875 0-1.25-.96875-2.125-2.3125-2.125-1.21875 0-2.03125 1-2.03125 1.96875 0 .625.546875.625.578125.625.1875 0 .5625-.140625.5625-.578125 0-.296875-.1875-.578125-.578125-.578125-.078125 0-.109375 0-.140625.015625.25-.703125.84375-1.109375 1.46875-1.109375 1 0 1.46875.875 1.46875 1.78125 0 .859375-.546875 1.734375-1.140625 2.40625l-2.09375 2.328125c-.125.125-.125.140625-.125.40625h4.046875l.296875-1.890625h-.265625c-.0625.3125-.125.796875-.234375.96875-.078125.078125-.796875.078125-1.046875.078125zm0 0"/></symbol><symbol id="p" overflow="visible"><path d="m3.15625-2.71875c0-.859375-.125-2.171875-.71875-3.40625-.65625-1.34375-1.59375-2.046875-1.703125-2.046875-.0625 0-.109375.03125-.109375.09375 0 .046875 0 .0625.203125.265625 1.0625 1.078125 1.6875 2.8125 1.6875 5.09375 0 1.859375-.40625 3.78125-1.75 5.15625-.140625.125-.140625.140625-.140625.1875 0 .0625.046875.09375.109375.09375.109375 0 1.09375-.734375 1.734375-2.125.546875-1.1875.6875-2.40625.6875-3.3125zm0 0"/></symbol><symbol id="q" overflow="visible"><path d="m1.4375-3.578125v-.265625c0-2.75 1.359375-3.140625 1.90625-3.140625.265625 0 .71875.0625.96875.4375-.171875 0-.609375 0-.609375.484375 0 .34375.265625.5.5.5.1875 0 .515625-.09375.515625-.515625 0-.65625-.484375-1.1875-1.390625-1.1875-1.390625 0-2.875 1.40625-2.875 3.8125 0 2.921875 1.265625 3.6875 2.28125 3.6875 1.21875 0 2.25-1.015625 2.25-2.453125 0-1.390625-.96875-2.4375-2.1875-2.4375-.734375 0-1.140625.5625-1.359375 1.078125zm1.296875 3.515625c-.6875 0-1.015625-.65625-1.078125-.828125-.1875-.5-.1875-1.375-.1875-1.578125 0-.84375.34375-1.9375 1.328125-1.9375.171875 0 .671875 0 1.015625.671875.1875.40625.1875.96875.1875 1.5 0 .515625 0 1.0625-.1875 1.453125-.328125.65625-.828125.71875-1.078125.71875zm0 0"/></symbol><symbol id="r" overflow="visible"><path d="m4-3.46875v.34375c0 2.5625-1.125 3.0625-1.765625 3.0625-.1875 0-.765625-.03125-1.0625-.390625.46875 0 .5625-.328125.5625-.5 0-.34375-.265625-.515625-.5-.515625-.171875 0-.5.109375-.5.53125 0 .734375.578125 1.171875 1.515625 1.171875 1.40625 0 2.734375-1.484375 2.734375-3.828125 0-2.921875-1.25-3.671875-2.21875-3.671875-.609375 0-1.140625.203125-1.609375.6875-.453125.5-.703125.953125-.703125 1.765625 0 1.359375.96875 2.4375 2.1875 2.4375.65625 0 1.109375-.453125 1.359375-1.09375zm-1.34375.84375c-.1875 0-.6875 0-1.015625-.6875-.203125-.40625-.203125-.953125-.203125-1.484375 0-.59375 0-1.109375.234375-1.5.296875-.546875.703125-.6875 1.09375-.6875.5 0 .859375.359375 1.046875.859375.125.34375.171875 1.03125.171875 1.53125 0 .90625-.375 1.96875-1.328125 1.96875zm0 0"/></symbol><symbol id="s" overflow="visible"><path d="m4.890625-2.1875c0-1.296875-.890625-2.390625-2.0625-2.390625-.53125 0-1 .171875-1.390625.546875v-2.125c.21875.078125.578125.140625.921875.140625 1.34375 0 2.109375-.984375 2.109375-1.125 0-.0625-.03125-.125-.109375-.125 0 0-.03125 0-.078125.03125-.21875.109375-.765625.3125-1.484375.3125-.4375 0-.9375-.0625-1.453125-.296875-.09375-.03125-.109375-.03125-.140625-.03125-.109375 0-.109375.078125-.109375.265625v3.21875c0 .203125 0 .28125.15625.28125.078125 0 .109375-.03125.140625-.09375.125-.171875.53125-.765625 1.40625-.765625.578125 0 .84375.5.9375.703125.171875.40625.1875.828125.1875 1.375 0 .375 0 1.03125-.25 1.484375-.265625.4375-.671875.71875-1.171875.71875-.796875 0-1.421875-.578125-1.609375-1.21875.03125 0 .0625.015625.1875.015625.359375 0 .546875-.265625.546875-.53125s-.1875-.53125-.546875-.53125c-.15625 0-.53125.078125-.53125.578125 0 .9375.75 1.984375 1.96875 1.984375 1.265625 0 2.375-1.046875 2.375-2.421875zm0 0"/></symbol><symbol id="t" overflow="visible"><path d="m7.1875-2.515625c.1875 0 .375 0 .375-.203125 0-.21875-.1875-.21875-.375-.21875h-5.90625c-.1875 0-.375 0-.375.21875 0 .203125.1875.203125.375.203125zm0 0"/></symbol><symbol id="u" overflow="visible"><path d="m1.9375-5.296875c.015625-.015625.03125-.109375.03125-.125 0-.03125-.03125-.109375-.125-.109375-.03125 0-.28125.03125-.453125.046875l-.453125.03125c-.171875.015625-.25.015625-.25.15625 0 .125.109375.125.203125.125.390625 0 .390625.046875.390625.109375 0 .046875-.09375.375-.140625.546875l-.6875 2.78125c-.0625.265625-.0625.390625-.0625.515625 0 .828125.5 1.296875 1.109375 1.296875.984375 0 2-1.125 2-2.28125 0-.796875-.5-1.3125-1.140625-1.3125-.453125 0-.796875.28125-.96875.4375zm-.4375 5.15625c-.28125 0-.5625-.21875-.5625-.8125 0-.203125.03125-.40625.125-.796875.046875-.21875.109375-.453125.171875-.6875.046875-.140625.046875-.15625.140625-.265625.265625-.34375.625-.59375.953125-.59375.40625 0 .5625.390625.5625.75 0 .296875-.1875 1.15625-.421875 1.625-.203125.421875-.59375.78125-.96875.78125zm0 0"/></symbol><symbol id="v" overflow="visible"><path d="m4-3.171875c-.359375.078125-.375.390625-.375.421875 0 .171875.140625.296875.3125.296875s.4375-.140625.4375-.484375c0-.453125-.5-.578125-.796875-.578125-.359375 0-.671875.265625-.859375.578125-.171875-.421875-.578125-.578125-.90625-.578125-.875 0-1.359375 1-1.359375 1.21875 0 .078125.0625.109375.125.109375.09375 0 .109375-.046875.125-.140625.1875-.578125.671875-.96875 1.078125-.96875.3125 0 .46875.234375.46875.515625 0 .15625-.09375.53125-.15625.78125-.0625.234375-.234375.9375-.28125 1.09375-.109375.421875-.390625.765625-.75.765625-.03125 0-.234375 0-.40625-.109375.359375-.09375.359375-.421875.359375-.4375 0-.1875-.140625-.296875-.3125-.296875-.21875 0-.453125.1875-.453125.484375 0 .375.390625.578125.796875.578125.421875 0 .71875-.3125.859375-.578125.1875.390625.546875.578125.9375.578125.859375 0 1.34375-1 1.34375-1.21875 0-.078125-.0625-.109375-.125-.109375-.09375 0-.109375.0625-.140625.140625-.15625.53125-.609375.96875-1.0625.96875-.265625 0-.453125-.171875-.453125-.515625 0-.15625.046875-.34375.15625-.78125.046875-.25.21875-.9375.265625-1.09375.109375-.421875.390625-.765625.75-.765625.046875 0 .25 0 .421875.125zm0 0"/></symbol><symbol id="w" overflow="visible"><path d="m3.703125-5.640625c.046875-.109375.046875-.125.046875-.15625 0-.09375-.078125-.171875-.1875-.171875-.125 0-.15625.09375-.1875.171875l-2.859375 7.453125c-.046875.109375-.046875.125-.046875.15625 0 .09375.078125.171875.1875.171875.125 0 .15625-.09375.1875-.171875zm0 0"/></symbol><symbol id="x" overflow="visible"><path d="m4.125-3c.03125-.109375.03125-.125.03125-.1875 0-.203125-.15625-.25-.25-.25-.046875 0-.21875.015625-.328125.21875-.015625.046875-.09375.328125-.125.5l-.484375 1.90625c0 .03125-.34375.671875-.921875.671875-.390625 0-.53125-.296875-.53125-.640625 0-.46875.265625-1.171875.453125-1.640625.078125-.203125.109375-.265625.109375-.421875 0-.4375-.359375-.671875-.71875-.671875-.796875 0-1.125 1.125-1.125 1.21875 0 .078125.0625.109375.125.109375.109375 0 .109375-.046875.140625-.125.203125-.703125.546875-.984375.828125-.984375.125 0 .1875.078125.1875.265625 0 .171875-.0625.359375-.109375.5-.328125.84375-.46875 1.25-.46875 1.625 0 .78125.59375.984375 1.0625.984375.375 0 .640625-.171875.84375-.34375-.125.4375-.203125.75-.5 1.140625-.265625.3125-.578125.53125-.9375.53125-.140625 0-.4375-.03125-.59375-.265625.421875-.03125.453125-.390625.453125-.4375 0-.1875-.15625-.296875-.3125-.296875-.1875 0-.453125.140625-.453125.53125 0 .375.34375.6875.90625.6875.8125 0 1.71875-.65625 1.96875-1.609375zm0 0"/></symbol><symbol id="y" overflow="visible"><path d="m4.625 12.65625c.34375 0 .34375-.015625.453125-.21875l5.96875-12.453125c.078125-.140625.078125-.171875.078125-.203125 0-.125-.09375-.21875-.21875-.21875-.140625 0-.1875.09375-.234375.21875l-5.640625 11.734375-2.3125-5.40625-1.515625 1.171875.15625.171875.78125-.59375zm0 0"/></symbol><use x="8" xlink:href="#a" y="20.582"/><use x="14.235" xlink:href="#h" y="22.218"/><use x="21.998" xlink:href="#k" y="20.582"/><use x="33.513" xlink:href="#a" y="20.582"/><use x="39.748" xlink:href="#i" y="22.218"/><use x="46.904" xlink:href="#l" y="20.582"/><use x="57.813" xlink:href="#b" y="20.582"/><use x="63.553" xlink:href="#h" y="16.078"/><use x="63.162" xlink:href="#i" y="23.279"/><g><use x="68.286" xlink:href="#m" y="20.582"/><use x="72.528549" xlink:href="#n" y="20.582"/></g><use x="80.407" xlink:href="#t" y="20.582"/><use x="97.916" xlink:href="#b" y="13.202"/><use x="103.656" xlink:href="#h" y="9.243"/><use x="103.265" xlink:href="#i" y="16.125"/><path d="m.00071875-.00046875h21.28125025" fill="none" stroke="#000" stroke-miterlimit="10" stroke-width=".436" transform="matrix(1 0 0 -1 92.511 17.855)"/><g><use x="92.511" xlink:href="#n" y="28.276"/><use x="97.96555" xlink:href="#o" y="28.276"/></g><use x="103.42" xlink:href="#c" y="28.276"/><use x="109.061" xlink:href="#h" y="24.518"/><use x="109.061" xlink:href="#u" y="31.798"/><use x="114.988" xlink:href="#p" y="20.582"/><use x="153.037" xlink:href="#d" y="13.202"/><use x="158.526" xlink:href="#h" y="9.243"/><use x="158.526" xlink:href="#i" y="16.125"/><path d="m-.00021875-.00046875h75.44140675" fill="none" stroke="#000" stroke-miterlimit="10" stroke-width=".436" transform="matrix(1 0 0 -1 120.426 17.855)"/><use x="120.426" xlink:href="#o" y="28.526"/><use x="125.881" xlink:href="#c" y="28.526"/><use x="131.521" xlink:href="#u" y="30.304"/><use x="135.642" xlink:href="#m" y="28.526"/><use x="139.884" xlink:href="#d" y="28.526"/><use x="145.373" xlink:href="#h" y="24.769"/><use x="145.373" xlink:href="#i" y="31.65"/><use x="152.529" xlink:href="#t" y="28.526"/><use x="163.438" xlink:href="#d" y="28.526"/><use x="168.927" xlink:href="#h" y="24.769"/><use x="168.927" xlink:href="#v" y="31.65"/><use x="173.694" xlink:href="#i" y="31.65"/><use x="178.426" xlink:href="#p" y="28.526"/><use x="182.669" xlink:href="#j" y="25.36"/><use x="186.903" xlink:href="#w" y="25.36"/><use x="191.137" xlink:href="#h" y="25.36"/><use x="200.701" xlink:href="#e" y="20.582"/><use x="4.275" xlink:href="#d" y="52.259"/><use x="9.763" xlink:href="#x" y="53.895"/><use x="14.235" xlink:href="#h" y="53.895"/><use x="21.998" xlink:href="#k" y="52.259"/><use x="33.513" xlink:href="#d" y="52.259"/><use x="39.001" xlink:href="#x" y="53.895"/><use x="43.473" xlink:href="#i" y="53.895"/><use x="50.63" xlink:href="#t" y="52.259"/><use x="61.539" xlink:href="#d" y="52.259"/><use x="67.027" xlink:href="#v" y="53.895"/><use x="71.794" xlink:href="#i" y="53.895"/><g><use x="76.527" xlink:href="#m" y="52.259"/><use x="80.769549" xlink:href="#n" y="52.259"/></g><use x="88.648" xlink:href="#t" y="52.259"/><use x="103.43" xlink:href="#b" y="44.879"/><use x="109.17" xlink:href="#h" y="40.92"/><use x="108.778" xlink:href="#i" y="47.802"/><path d="m.00190625-.00025h15.82421875" fill="none" stroke="#000" stroke-miterlimit="10" stroke-width=".436" transform="matrix(1 0 0 -1 100.752 49.531)"/><use x="100.752" xlink:href="#q" y="59.953"/><use x="106.207" xlink:href="#c" y="59.953"/><use x="111.847" xlink:href="#h" y="56.195"/><use x="111.847" xlink:href="#u" y="63.475"/><use x="117.775" xlink:href="#p" y="52.259"/><use x="152.889" xlink:href="#b" y="44.879"/><use x="158.238" xlink:href="#i" y="46.515"/><path d="m.00184375-.00025h69.42968725" fill="none" stroke="#000" stroke-miterlimit="10" stroke-width=".436" transform="matrix(1 0 0 -1 123.213 49.531)"/><use x="123.213" xlink:href="#d" y="61.416"/><use x="128.702" xlink:href="#i" y="63.053"/><use x="133.434" xlink:href="#c" y="61.416"/><use x="139.074" xlink:href="#u" y="63.194"/><use x="143.195" xlink:href="#y" y="51.931"/><path d="m.00146875-.00184375h38.53906225" fill="none" stroke="#000" stroke-miterlimit="10" stroke-width=".436" transform="matrix(1 0 0 -1 154.104 51.713)"/><use x="154.104" xlink:href="#d" y="61.416"/><use x="159.593" xlink:href="#h" y="57.659"/><use x="159.593" xlink:href="#i" y="64.54"/><use x="166.749" xlink:href="#t" y="61.416"/><use x="177.658" xlink:href="#d" y="61.416"/><use x="183.147" xlink:href="#h" y="57.659"/><use x="183.147" xlink:href="#v" y="64.54"/><use x="187.914" xlink:href="#i" y="64.54"/><use x="197.478" xlink:href="#e" y="52.259"/><use x="9.162" xlink:href="#f" y="85.046"/><use x="14.235" xlink:href="#h" y="86.683"/><use x="21.998" xlink:href="#k" y="85.046"/><use x="33.513" xlink:href="#f" y="85.046"/><use x="38.586" xlink:href="#i" y="86.683"/><use x="45.743" xlink:href="#t" y="85.046"/><use x="56.652" xlink:href="#d" y="85.046"/><use x="62.14" xlink:href="#v" y="86.683"/><use x="66.907" xlink:href="#i" y="86.683"/><use x="71.64" xlink:href="#b" y="85.046"/><use x="77.38" xlink:href="#h" y="80.542"/><use x="76.988" xlink:href="#i" y="87.743"/><g><use x="82.112" xlink:href="#m" y="85.046"/><use x="86.354549" xlink:href="#n" y="85.046"/></g><use x="94.233" xlink:href="#t" y="85.046"/><use x="111.742" xlink:href="#b" y="77.666"/><use x="117.482" xlink:href="#h" y="73.707"/><use x="117.091" xlink:href="#i" y="80.589"/><path d="m.00184375-.0013125h21.28125025" fill="none" stroke="#000" stroke-miterlimit="10" stroke-width=".436" transform="matrix(1 0 0 -1 106.338 82.319)"/><g><use x="106.338" xlink:href="#n" y="92.74"/><use x="111.79255" xlink:href="#o" y="92.74"/></g><use x="117.247" xlink:href="#c" y="92.74"/><use x="122.887" xlink:href="#h" y="88.983"/><use x="122.887" xlink:href="#u" y="96.263"/><use x="128.815" xlink:href="#p" y="85.046"/><use x="166.864" xlink:href="#d" y="77.666"/><use x="172.352" xlink:href="#i" y="79.303"/><path d="m.00090625-.0013125h75.44140675" fill="none" stroke="#000" stroke-miterlimit="10" stroke-width=".436" transform="matrix(1 0 0 -1 134.253 82.319)"/><use x="134.253" xlink:href="#o" y="92.991"/><use x="139.707" xlink:href="#c" y="92.991"/><use x="145.347" xlink:href="#u" y="94.768"/><use x="149.468" xlink:href="#m" y="92.991"/><use x="153.71" xlink:href="#d" y="92.991"/><use x="159.199" xlink:href="#h" y="89.233"/><use x="159.199" xlink:href="#i" y="96.115"/><use x="166.356" xlink:href="#t" y="92.991"/><use x="177.265" xlink:href="#d" y="92.991"/><use x="182.753" xlink:href="#h" y="89.233"/><use x="182.753" xlink:href="#v" y="96.115"/><use x="187.52" xlink:href="#i" y="96.115"/><use x="192.253" xlink:href="#p" y="92.991"/><use x="196.495" xlink:href="#j" y="89.824"/><use x="200.729" xlink:href="#w" y="89.824"/><use x="204.963" xlink:href="#h" y="89.824"/><use x="214.528" xlink:href="#g" y="85.046"/><g><use x="346.64" xlink:href="#m" y="52.912"/><use x="350.882549" xlink:href="#r" y="52.912"/><use x="356.337099" xlink:href="#s" y="52.912"/><use x="361.791649" xlink:href="#p" y="52.912"/></g></svg>