<svg height="23pt" viewBox="0 0 388 23" width="388pt" xmlns="http://www.w3.org/2000/svg" xmlns:xlink="http://www.w3.org/1999/xlink"><symbol id="a" overflow="visible"><path d="m8.328125-6.609375c.09375-.390625.109375-.5.90625-.5.28125 0 .375 0 .375-.21875 0-.125-.125-.125-.15625-.125-.296875 0-1.09375.03125-1.390625.03125-.3125 0-1.09375-.03125-1.40625-.03125-.09375 0-.203125 0-.203125.21875 0 .125.09375.125.296875.125.015625 0 .234375 0 .421875.015625.1875.03125.28125.03125.28125.171875 0 .046875 0 .078125-.03125.21875l-.65625 2.65625h-3.328125l.640625-2.5625c.09375-.390625.125-.5.921875-.5.28125 0 .359375 0 .359375-.21875 0-.125-.109375-.125-.140625-.125-.3125 0-1.09375.03125-1.40625.03125s-1.09375-.03125-1.40625-.03125c-.078125 0-.203125 0-.203125.21875 0 .125.09375.125.3125.125.015625 0 .21875 0 .40625.015625.203125.03125.296875.03125.296875.171875 0 .046875-.015625.078125-.046875.21875l-1.453125 5.859375c-.109375.421875-.140625.5-1 .5-.1875 0-.296875 0-.296875.21875 0 .125.140625.125.15625.125.3125 0 1.078125-.03125 1.390625-.03125.21875 0 .46875.015625.6875.015625.25 0 .484375.015625.71875.015625.078125 0 .21875 0 .21875-.21875 0-.125-.109375-.125-.3125-.125-.40625 0-.703125 0-.703125-.1875 0-.0625.015625-.125.03125-.1875l.734375-2.984375h3.328125c-.453125 1.8125-.703125 2.84375-.75 3-.109375.359375-.3125.359375-1 .359375-.15625 0-.25 0-.25.21875 0 .125.125.125.15625.125.296875 0 1.078125-.03125 1.375-.03125.234375 0 .46875.015625.703125.015625s.484375.015625.703125.015625c.09375 0 .21875 0 .21875-.21875 0-.125-.09375-.125-.296875-.125-.40625 0-.71875 0-.71875-.1875 0-.0625.03125-.125.03125-.1875zm0 0"/></symbol><symbol id="b" overflow="visible"><path d="m3.640625-3.296875c.0625-.28125.3125-1.28125 1.078125-1.28125.0625 0 .3125 0 .546875.140625-.296875.046875-.515625.328125-.515625.59375 0 .171875.109375.375.40625.375.25 0 .59375-.203125.59375-.625 0-.578125-.640625-.734375-1.015625-.734375-.640625 0-1.015625.578125-1.140625.84375-.28125-.734375-.875-.84375-1.1875-.84375-1.125 0-1.75 1.421875-1.75 1.6875 0 .109375.109375.109375.125.109375.09375 0 .125-.015625.140625-.125.375-1.15625 1.09375-1.421875 1.46875-1.421875.203125 0 .59375.09375.59375.734375 0 .328125-.1875 1.0625-.59375 2.59375-.171875.671875-.5625 1.125-1.03125 1.125-.078125 0-.328125 0-.546875-.140625.265625-.046875.5-.28125.5-.578125s-.234375-.390625-.390625-.390625c-.328125 0-.609375.28125-.609375.640625 0 .5.546875.71875 1.03125.71875.71875 0 1.109375-.765625 1.140625-.828125.140625.390625.53125.828125 1.1875.828125 1.109375 0 1.734375-1.40625 1.734375-1.6875 0-.109375-.09375-.109375-.125-.109375-.09375 0-.125.046875-.140625.125-.359375 1.171875-1.109375 1.421875-1.453125 1.421875-.421875 0-.59375-.34375-.59375-.71875 0-.234375.0625-.46875.171875-.953125zm0 0"/></symbol><symbol id="c" overflow="visible"><path d="m2.21875-.015625c0-.71875-.28125-1.140625-.703125-1.140625-.359375 0-.578125.265625-.578125.578125 0 .296875.21875.578125.578125.578125.125 0 .265625-.046875.375-.140625.046875-.015625.046875-.03125.0625-.03125s.015625.015625.015625.15625c0 .8125-.375 1.46875-.734375 1.828125-.125.125-.125.140625-.125.171875 0 .078125.0625.125.109375.125.125 0 1-.84375 1-2.125zm0 0"/></symbol><symbol id="d" overflow="visible"><path d="m.484375 1.328125c-.078125.375-.109375.453125-.578125.453125-.140625 0-.25 0-.25.203125 0 .09375.046875.125.140625.125.296875 0 .609375-.03125.90625-.03125.359375 0 .734375.03125 1.078125.03125.0625 0 .203125 0 .203125-.21875 0-.109375-.109375-.109375-.265625-.109375-.546875 0-.546875-.078125-.546875-.171875 0-.140625.46875-1.921875.546875-2.1875.140625.3125.4375.703125 1 .703125 1.265625 0 2.625-1.59375 2.625-3.203125 0-1.015625-.625-1.75-1.453125-1.75-.546875 0-1.0625.40625-1.421875.828125-.109375-.59375-.578125-.828125-.984375-.828125-.5 0-.703125.4375-.8125.625-.1875.375-.328125 1.03125-.328125 1.0625 0 .109375.109375.109375.125.109375.109375 0 .125-.015625.1875-.25.1875-.78125.40625-1.296875.796875-1.296875.1875 0 .328125.078125.328125.5 0 .25-.03125.375-.0625.5625zm1.921875-4.734375c.078125-.296875.375-.59375.578125-.765625.375-.328125.6875-.40625.875-.40625.4375 0 .703125.375.703125 1.015625 0 .65625-.359375 1.90625-.5625 2.3125-.375.765625-.890625 1.125-1.296875 1.125-.71875 0-.859375-.90625-.859375-.96875 0-.015625 0-.046875.03125-.171875zm0 0"/></symbol><symbol id="e" overflow="visible"><path d="m5.296875-4.15625c.046875-.15625.046875-.171875.046875-.25 0-.203125-.15625-.296875-.3125-.296875-.109375 0-.28125.0625-.390625.234375-.015625.046875-.109375.390625-.140625.59375-.078125.28125-.15625.578125-.21875.859375l-.5 1.96875c-.046875.15625-.515625.921875-1.234375.921875-.546875 0-.671875-.46875-.671875-.875 0-.5.1875-1.1875.5625-2.140625.171875-.453125.21875-.5625.21875-.78125 0-.5-.359375-.90625-.90625-.90625-1.03125 0-1.4375 1.59375-1.4375 1.6875 0 .109375.109375.109375.140625.109375.109375 0 .109375-.015625.171875-.203125.296875-1.015625.734375-1.34375 1.09375-1.34375.09375 0 .28125 0 .28125.34375 0 .28125-.109375.5625-.1875.765625-.4375 1.15625-.640625 1.78125-.640625 2.296875 0 .96875.6875 1.296875 1.34375 1.296875.421875 0 .78125-.1875 1.09375-.5-.140625.578125-.265625 1.109375-.703125 1.6875-.28125.359375-.703125.6875-1.203125.6875-.15625 0-.640625-.03125-.828125-.46875.171875 0 .3125 0 .46875-.125.109375-.09375.21875-.234375.21875-.453125 0-.328125-.296875-.375-.40625-.375-.25 0-.609375.171875-.609375.703125 0 .546875.484375.953125 1.15625.953125 1.125 0 2.25-.984375 2.546875-2.21875zm0 0"/></symbol><symbol id="f" overflow="visible"><path d="m1.453125-.90625c.59375-.625.90625-.90625 1.296875-1.25 0 0 .671875-.578125 1.0625-.96875 1.046875-1.015625 1.28125-1.546875 1.28125-1.59375 0-.109375-.09375-.109375-.125-.109375-.078125 0-.109375.03125-.15625.125-.328125.53125-.5625.703125-.828125.703125-.25 0-.390625-.171875-.546875-.359375-.203125-.25-.390625-.46875-.75-.46875-.828125 0-1.328125 1.015625-1.328125 1.25 0 .0625.03125.125.140625.125.09375 0 .109375-.0625.140625-.125.203125-.5.828125-.515625.921875-.515625.234375 0 .4375.078125.6875.171875.4375.15625.5625.15625.84375.15625-.390625.46875-1.3125 1.25-1.515625 1.4375l-.984375.90625c-.75.734375-1.125 1.359375-1.125 1.4375 0 .109375.109375.109375.125.109375.09375 0 .109375-.03125.1875-.140625.25-.390625.578125-.6875.921875-.6875.25 0 .359375.109375.625.421875.1875.234375.390625.40625.703125.40625 1.078125 0 1.71875-1.390625 1.71875-1.6875 0-.046875-.046875-.109375-.140625-.109375s-.109375.0625-.15625.140625c-.25.71875-.9375.921875-1.296875.921875-.21875 0-.421875-.0625-.640625-.140625-.375-.140625-.546875-.1875-.765625-.1875-.03125 0-.203125 0-.296875.03125zm0 0"/></symbol><symbol id="g" overflow="visible"><path d="m7.71875-2.546875c.03125-.046875.0625-.125.0625-.140625s0-.125-.140625-.125c-.09375 0-.109375.0625-.140625.125-.703125 1.625-1.109375 2.34375-2.96875 2.34375h-1.59375c-.15625 0-.171875 0-.25 0-.109375-.015625-.140625-.03125-.140625-.109375 0-.03125 0-.0625.0625-.25l.734375-2.984375h1.078125c.9375 0 .9375.234375.9375.5 0 .078125 0 .203125-.078125.53125-.03125.0625-.03125.09375-.03125.125 0 .0625.046875.125.140625.125.078125 0 .109375-.0625.15625-.21875l.625-2.5625c0-.0625-.046875-.109375-.125-.109375-.109375 0-.125.0625-.15625.1875-.234375.828125-.421875 1.078125-1.4375 1.078125h-1.015625l.65625-2.625c.09375-.375.109375-.421875.578125-.421875h1.546875c1.328125 0 1.65625.3125 1.65625 1.203125 0 .265625 0 .296875-.046875.578125 0 .078125-.015625.15625-.015625.203125 0 .0625.046875.125.140625.125.125 0 .125-.0625.15625-.265625l.21875-1.890625c.03125-.296875-.03125-.296875-.296875-.296875h-5.515625c-.21875 0-.328125 0-.328125.21875 0 .125.109375.125.3125.125.40625 0 .703125 0 .703125.203125 0 .03125 0 .0625-.046875.25l-1.4375 5.78125c-.109375.421875-.140625.5-1 .5-.1875 0-.296875 0-.296875.21875 0 .125.09375.125.296875.125h5.65625c.25 0 .265625-.015625.34375-.1875zm0 0"/></symbol><symbol id="h" overflow="visible"><path d="m4.78125-7.765625c.0625-.140625.0625-.1875.0625-.203125 0-.109375-.09375-.203125-.21875-.203125-.078125 0-.15625.03125-.1875.09375l-3.78125 10.390625c-.0625.140625-.0625.1875-.0625.203125 0 .109375.109375.203125.21875.203125.140625 0 .1875-.0625.25-.25zm0 0"/></symbol><symbol id="i" overflow="visible"><path d="m5.109375-4.0625c0-.578125-.28125-.765625-.484375-.765625-.265625 0-.53125.296875-.53125.53125 0 .140625.046875.203125.171875.328125.234375.21875.375.5.375.890625 0 .453125-.671875 2.953125-1.953125 2.953125-.546875 0-.796875-.375-.796875-.9375 0-.609375.296875-1.40625.625-2.3125.078125-.1875.140625-.34375.140625-.546875 0-.5-.359375-.90625-.90625-.90625-1.015625 0-1.4375 1.59375-1.4375 1.6875 0 .109375.109375.109375.140625.109375.109375 0 .109375-.015625.171875-.203125.3125-1.09375.78125-1.34375 1.09375-1.34375.09375 0 .28125 0 .28125.34375 0 .28125-.109375.5625-.1875.765625-.484375 1.265625-.625 1.765625-.625 2.234375 0 1.1875.96875 1.359375 1.46875 1.359375 1.828125 0 2.453125-3.609375 2.453125-4.1875zm0 0"/></symbol><symbol id="j" overflow="visible"><path d="m2.09375-.578125c0-.3125-.265625-.578125-.578125-.578125s-.578125.265625-.578125.578125.265625.578125.578125.578125.578125-.265625.578125-.578125zm0 0"/></symbol><symbol id="k" overflow="visible"><path d="m3.609375 2.625c0-.046875 0-.0625-.1875-.25-1.359375-1.375-1.703125-3.4375-1.703125-5.09375 0-1.90625.40625-3.796875 1.75-5.171875.140625-.125.140625-.140625.140625-.1875 0-.0625-.046875-.09375-.109375-.09375-.109375 0-1.09375.734375-1.734375 2.125-.5625 1.1875-.6875 2.40625-.6875 3.328125 0 .84375.125 2.15625.71875 3.390625.65625 1.34375 1.59375 2.046875 1.703125 2.046875.0625 0 .109375-.03125.109375-.09375zm0 0"/></symbol><symbol id="l" overflow="visible"><path d="m3.15625-2.71875c0-.859375-.125-2.171875-.71875-3.40625-.65625-1.34375-1.59375-2.046875-1.703125-2.046875-.0625 0-.109375.03125-.109375.09375 0 .046875 0 .0625.203125.265625 1.0625 1.078125 1.6875 2.8125 1.6875 5.09375 0 1.859375-.40625 3.78125-1.75 5.15625-.140625.125-.140625.140625-.140625.1875 0 .0625.046875.09375.109375.09375.109375 0 1.09375-.734375 1.734375-2.125.546875-1.1875.6875-2.40625.6875-3.3125zm0 0"/></symbol><symbol id="m" overflow="visible"><path d="m7.5-3.5625c.15625 0 .359375 0 .359375-.21875s-.203125-.21875-.359375-.21875h-6.53125c-.15625 0-.359375 0-.359375.21875s.203125.21875.375.21875zm0 2.109375c.15625 0 .359375 0 .359375-.21875s-.203125-.21875-.359375-.21875h-6.515625c-.171875 0-.375 0-.375.21875s.203125.21875.359375.21875zm0 0"/></symbol><symbol id="n" overflow="visible"><path d="m4.453125-2.515625h3.046875c.15625 0 .359375 0 .359375-.203125 0-.21875-.203125-.21875-.359375-.21875h-3.046875v-3.0625c0-.15625 0-.359375-.203125-.359375-.21875 0-.21875.203125-.21875.359375v3.0625h-3.0625c-.15625 0-.359375 0-.359375.21875 0 .203125.203125.203125.359375.203125h3.0625v3.0625c0 .15625 0 .359375.21875.359375.203125 0 .203125-.203125.203125-.359375zm0 0"/></symbol><symbol id="o" overflow="visible"><path d="m3.203125-6.984375c0-.25 0-.28125-.25-.28125-.671875.703125-1.640625.703125-1.984375.703125v.328125c.21875 0 .859375 0 1.4375-.28125v5.65625c0 .390625-.046875.515625-1.015625.515625h-.359375v.34375c.390625-.03125 1.328125-.03125 1.765625-.03125s1.390625 0 1.765625.03125v-.34375h-.34375c-.984375 0-1.015625-.109375-1.015625-.515625zm0 0"/></symbol><symbol id="p" overflow="visible"><path d="m3.15625-3.84375c.90625-.296875 1.53125-1.046875 1.53125-1.921875 0-.890625-.953125-1.5-2-1.5-1.109375 0-1.9375.65625-1.9375 1.484375 0 .359375.25.5625.5625.5625.328125 0 .546875-.234375.546875-.546875 0-.546875-.5-.546875-.671875-.546875.34375-.53125 1.0625-.671875 1.453125-.671875.453125 0 1.046875.234375 1.046875 1.21875 0 .125-.015625.765625-.3125 1.234375-.328125.53125-.6875.5625-.96875.578125-.078125 0-.34375.03125-.421875.03125-.09375 0-.15625.015625-.15625.125 0 .125.0625.125.25.125h.484375c.890625 0 1.296875.734375 1.296875 1.8125 0 1.484375-.75 1.796875-1.234375 1.796875-.46875 0-1.28125-.1875-1.671875-.828125.390625.046875.71875-.1875.71875-.609375 0-.390625-.28125-.609375-.609375-.609375-.25 0-.609375.15625-.609375.640625 0 .984375 1.015625 1.703125 2.203125 1.703125 1.328125 0 2.328125-.984375 2.328125-2.09375 0-.90625-.6875-1.75-1.828125-1.984375zm0 0"/></symbol><symbol id="q" overflow="visible"><path d="m4-3.171875c-.359375.078125-.375.390625-.375.421875 0 .171875.140625.296875.3125.296875s.4375-.140625.4375-.484375c0-.453125-.5-.578125-.796875-.578125-.359375 0-.671875.265625-.859375.578125-.171875-.421875-.578125-.578125-.90625-.578125-.875 0-1.359375 1-1.359375 1.21875 0 .078125.0625.109375.125.109375.09375 0 .109375-.046875.125-.140625.1875-.578125.671875-.96875 1.078125-.96875.3125 0 .46875.234375.46875.515625 0 .15625-.09375.53125-.15625.78125-.0625.234375-.234375.9375-.28125 1.09375-.109375.421875-.390625.765625-.75.765625-.03125 0-.234375 0-.40625-.109375.359375-.09375.359375-.421875.359375-.4375 0-.1875-.140625-.296875-.3125-.296875-.21875 0-.453125.1875-.453125.484375 0 .375.390625.578125.796875.578125.421875 0 .71875-.3125.859375-.578125.1875.390625.546875.578125.9375.578125.859375 0 1.34375-1 1.34375-1.21875 0-.078125-.0625-.109375-.125-.109375-.09375 0-.109375.0625-.140625.140625-.15625.53125-.609375.96875-1.0625.96875-.265625 0-.453125-.171875-.453125-.515625 0-.15625.046875-.34375.15625-.78125.046875-.25.21875-.9375.265625-1.09375.109375-.421875.390625-.765625.75-.765625.046875 0 .25 0 .421875.125zm0 0"/></symbol><symbol id="r" overflow="visible"><path d="m4.125-3c.03125-.109375.03125-.125.03125-.1875 0-.203125-.15625-.25-.25-.25-.046875 0-.21875.015625-.328125.21875-.015625.046875-.09375.328125-.125.5l-.484375 1.90625c0 .03125-.34375.671875-.921875.671875-.390625 0-.53125-.296875-.53125-.640625 0-.46875.265625-1.171875.453125-1.640625.078125-.203125.109375-.265625.109375-.421875 0-.4375-.359375-.671875-.71875-.671875-.796875 0-1.125 1.125-1.125 1.21875 0 .078125.0625.109375.125.109375.109375 0 .109375-.046875.140625-.125.203125-.703125.546875-.984375.828125-.984375.125 0 .1875.078125.1875.265625 0 .171875-.0625.359375-.109375.5-.328125.84375-.46875 1.25-.46875 1.625 0 .78125.59375.984375 1.0625.984375.375 0 .640625-.171875.84375-.34375-.125.4375-.203125.75-.5 1.140625-.265625.3125-.578125.53125-.9375.53125-.140625 0-.4375-.03125-.59375-.265625.421875-.03125.453125-.390625.453125-.4375 0-.1875-.15625-.296875-.3125-.296875-.1875 0-.453125.140625-.453125.53125 0 .375.34375.6875.90625.6875.8125 0 1.71875-.65625 1.96875-1.609375zm0 0"/></symbol><symbol id="s" overflow="visible"><path d="m7.1875-2.515625c.1875 0 .375 0 .375-.203125 0-.21875-.1875-.21875-.375-.21875h-5.90625c-.1875 0-.375 0-.375.21875 0 .203125.1875.203125.375.203125zm0 0"/></symbol><symbol id="t" overflow="visible"><path d="m5.0625 17.5625-2.34375-8.1875-1.515625 1.78125.171875.171875.734375-.875 2.515625 8.734375c.359375 0 .375 0 .453125-.25l5.984375-18.9375c.0625-.15625.0625-.203125.0625-.21875 0-.125-.09375-.21875-.21875-.21875-.15625 0-.203125.140625-.25.28125zm0 0"/></symbol><symbol id="u" overflow="visible"><path d="m2.25-1.625c.125-.125.453125-.390625.59375-.5.484375-.453125.953125-.890625.953125-1.609375 0-.953125-.796875-1.5625-1.78125-1.5625-.96875 0-1.59375.71875-1.59375 1.4375 0 .390625.3125.4375.421875.4375.171875 0 .421875-.109375.421875-.421875 0-.40625-.40625-.40625-.5-.40625.234375-.59375.765625-.78125 1.15625-.78125.734375 0 1.125.625 1.125 1.296875 0 .828125-.578125 1.4375-1.53125 2.390625l-1 1.046875c-.09375.078125-.09375.09375-.09375.296875h3.140625l.234375-1.421875h-.25c-.015625.15625-.078125.546875-.171875.703125-.046875.0625-.65625.0625-.78125.0625h-1.421875zm0 0"/></symbol><symbol id="v" overflow="visible"><path d="m3.890625-2.546875c0-.84375-.078125-1.359375-.34375-1.875-.34375-.703125-1-.875-1.4375-.875-1 0-1.375.75-1.484375.96875-.28125.578125-.296875 1.375-.296875 1.78125 0 .53125.015625 1.328125.40625 1.96875.359375.59375.953125.75 1.375.75.390625 0 1.0625-.125 1.46875-.90625.296875-.578125.3125-1.296875.3125-1.8125zm-1.78125 2.484375c-.265625 0-.8125-.125-.984375-.953125-.09375-.453125-.09375-1.203125-.09375-1.625 0-.546875 0-1.109375.09375-1.546875.171875-.8125.78125-.890625.984375-.890625.265625 0 .828125.140625.984375.859375.09375.4375.09375 1.046875.09375 1.578125 0 .46875 0 1.1875-.09375 1.640625-.171875.828125-.71875.9375-.984375.9375zm0 0"/></symbol><symbol id="w" overflow="visible"><path d="m1.9375-6h.609375c.15625 0 .453125 0 .453125-.328125s-.28125-.328125-.453125-.328125h-1.765625c-.171875 0-.4375 0-.4375.328125s.28125.328125.4375.328125h.40625v5.328125h-.40625c-.171875 0-.4375 0-.4375.34375 0 .328125.28125.328125.4375.328125h4.109375c.359375 0 .4375-.09375.4375-.453125v-.96875c0-.21875 0-.4375-.375-.4375-.390625 0-.390625.21875-.390625.4375v.75h-2.625zm0 0"/></symbol><use x="2.864" xlink:href="#a" y="16.195"/><use x="12.818" xlink:href="#k" y="16.195"/><g><use x="17.06" xlink:href="#b" y="16.195"/><use x="23.294551" xlink:href="#c" y="16.195"/></g><use x="28.146918" xlink:href="#d" y="16.195"/><use x="33.632" xlink:href="#q" y="17.831"/><use x="38.897" xlink:href="#c" y="16.195"/><use x="43.749368" xlink:href="#e" y="16.195"/><use x="49.490827" xlink:href="#c" y="16.195"/><use x="54.332286" xlink:href="#d" y="16.195"/><use x="59.823" xlink:href="#r" y="17.831"/><use x="64.793" xlink:href="#c" y="16.195"/><use x="69.645368" xlink:href="#f" y="16.195"/><use x="75.1981" xlink:href="#c" y="16.195"/><use x="80.039558" xlink:href="#d" y="16.195"/><use x="85.531" xlink:href="#l" y="16.195"/><use x="92.806279" xlink:href="#m" y="16.195"/><use x="104.324107" xlink:href="#k" y="16.195"/><use x="108.562" xlink:href="#s" y="16.195"/><use x="117.046" xlink:href="#t" y="3.769"/><path d="m.00103125.00021875h58.09765675" fill="none" stroke="#000" stroke-miterlimit="10" stroke-width=".436" transform="matrix(1 0 0 -1 127.956 3.551)"/><use x="127.956" xlink:href="#d" y="16.195"/><use x="133.444" xlink:href="#u" y="13.043"/><use x="140.601" xlink:href="#s" y="16.195"/><use x="151.51" xlink:href="#d" y="16.195"/><use x="156.998" xlink:href="#u" y="13.043"/><use x="156.998" xlink:href="#q" y="18.892"/><use x="164.688" xlink:href="#s" y="16.195"/><use x="175.597" xlink:href="#d" y="16.195"/><use x="181.085" xlink:href="#u" y="13.043"/><use x="181.085" xlink:href="#r" y="18.892"/><use x="188.479" xlink:href="#n" y="16.195"/><use x="199.385918" xlink:href="#o" y="16.195"/><use x="207.267" xlink:href="#s" y="16.195"/><use x="218.176" xlink:href="#g" y="16.195"/><g><use x="226.861825" xlink:href="#h" y="16.195"/><use x="232.316375" xlink:href="#i" y="16.195"/></g><use x="237.601" xlink:href="#v" y="17.831"/><use x="242.333" xlink:href="#l" y="16.195"/><use x="246.575" xlink:href="#w" y="16.195"/><use x="255.939" xlink:href="#j" y="16.195"/><g><use x="361.186" xlink:href="#k" y="15.66"/><use x="365.428549" xlink:href="#o" y="15.66"/><use x="370.883099" xlink:href="#o" y="15.66"/><use x="376.337649" xlink:href="#p" y="15.66"/><use x="381.792199" xlink:href="#l" y="15.66"/></g></svg>