<svg height="30pt" viewBox="0 0 356 30" width="356pt" xmlns="http://www.w3.org/2000/svg" xmlns:xlink="http://www.w3.org/1999/xlink"><symbol id="a" overflow="visible"><path d="m3.203125-6.984375c0-.25 0-.28125-.25-.28125-.671875.703125-1.640625.703125-1.984375.703125v.328125c.21875 0 .859375 0 1.4375-.28125v5.65625c0 .390625-.046875.515625-1.015625.515625h-.359375v.34375c.390625-.03125 1.328125-.03125 1.765625-.03125s1.390625 0 1.765625.03125v-.34375h-.34375c-.984375 0-1.015625-.109375-1.015625-.515625zm0 0"/></symbol><symbol id="b" overflow="visible"><path d="m7.5-3.5625c.15625 0 .359375 0 .359375-.21875s-.203125-.21875-.359375-.21875h-6.53125c-.15625 0-.359375 0-.359375.21875s.203125.21875.375.21875zm0 2.109375c.15625 0 .359375 0 .359375-.21875s-.203125-.21875-.359375-.21875h-6.515625c-.171875 0-.375 0-.375.21875s.203125.21875.359375.21875zm0 0"/></symbol><symbol id="c" overflow="visible"><path d="m1.390625-.84375 1.15625-1.125c1.703125-1.5 2.34375-2.09375 2.34375-3.171875 0-1.25-.96875-2.125-2.3125-2.125-1.21875 0-2.03125 1-2.03125 1.96875 0 .625.546875.625.578125.625.1875 0 .5625-.140625.5625-.578125 0-.296875-.1875-.578125-.578125-.578125-.078125 0-.109375 0-.140625.015625.25-.703125.84375-1.109375 1.46875-1.109375 1 0 1.46875.875 1.46875 1.78125 0 .859375-.546875 1.734375-1.140625 2.40625l-2.09375 2.328125c-.125.125-.125.140625-.125.40625h4.046875l.296875-1.890625h-.265625c-.0625.3125-.125.796875-.234375.96875-.078125.078125-.796875.078125-1.046875.078125zm0 0"/></symbol><symbol id="d" overflow="visible"><path d="m5.015625-3.484375c0-.875-.046875-1.75-.4375-2.5625-.5-1.046875-1.390625-1.21875-1.859375-1.21875-.640625 0-1.4375.28125-1.890625 1.296875-.34375.75-.40625 1.609375-.40625 2.484375 0 .8125.046875 1.796875.5 2.625.46875.875 1.265625 1.09375 1.796875 1.09375.578125 0 1.421875-.21875 1.890625-1.265625.359375-.75.40625-1.59375.40625-2.453125zm-2.296875 3.484375c-.421875 0-1.078125-.265625-1.265625-1.3125-.125-.65625-.125-1.671875-.125-2.3125 0-.6875 0-1.40625.09375-2 .203125-1.296875 1.015625-1.40625 1.296875-1.40625.359375 0 1.078125.203125 1.28125 1.28125.109375.609375.109375 1.4375.109375 2.125 0 .828125 0 1.5625-.125 2.265625-.15625 1.03125-.78125 1.359375-1.265625 1.359375zm0 0"/></symbol><symbol id="e" overflow="visible"><path d="m3.609375 2.625c0-.046875 0-.0625-.1875-.25-1.359375-1.375-1.703125-3.4375-1.703125-5.09375 0-1.90625.40625-3.796875 1.75-5.171875.140625-.125.140625-.140625.140625-.1875 0-.0625-.046875-.09375-.109375-.09375-.109375 0-1.09375.734375-1.734375 2.125-.5625 1.1875-.6875 2.40625-.6875 3.328125 0 .84375.125 2.15625.71875 3.390625.65625 1.34375 1.59375 2.046875 1.703125 2.046875.0625 0 .109375-.03125.109375-.09375zm0 0"/></symbol><symbol id="f" overflow="visible"><path d="m1.4375-3.578125v-.265625c0-2.75 1.359375-3.140625 1.90625-3.140625.265625 0 .71875.0625.96875.4375-.171875 0-.609375 0-.609375.484375 0 .34375.265625.5.5.5.1875 0 .515625-.09375.515625-.515625 0-.65625-.484375-1.1875-1.390625-1.1875-1.390625 0-2.875 1.40625-2.875 3.8125 0 2.921875 1.265625 3.6875 2.28125 3.6875 1.21875 0 2.25-1.015625 2.25-2.453125 0-1.390625-.96875-2.4375-2.1875-2.4375-.734375 0-1.140625.5625-1.359375 1.078125zm1.296875 3.515625c-.6875 0-1.015625-.65625-1.078125-.828125-.1875-.5-.1875-1.375-.1875-1.578125 0-.84375.34375-1.9375 1.328125-1.9375.171875 0 .671875 0 1.015625.671875.1875.40625.1875.96875.1875 1.5 0 .515625 0 1.0625-.1875 1.453125-.328125.65625-.828125.71875-1.078125.71875zm0 0"/></symbol><symbol id="g" overflow="visible"><path d="m3.15625-2.71875c0-.859375-.125-2.171875-.71875-3.40625-.65625-1.34375-1.59375-2.046875-1.703125-2.046875-.0625 0-.109375.03125-.109375.09375 0 .046875 0 .0625.203125.265625 1.0625 1.078125 1.6875 2.8125 1.6875 5.09375 0 1.859375-.40625 3.78125-1.75 5.15625-.140625.125-.140625.140625-.140625.1875 0 .0625.046875.09375.109375.09375.109375 0 1.09375-.734375 1.734375-2.125.546875-1.1875.6875-2.40625.6875-3.3125zm0 0"/></symbol><symbol id="h" overflow="visible"><path d="m5.203125-2.578125c0-1.703125-1.015625-2.25-1.828125-2.25-1.484375 0-2.921875 1.5625-2.921875 3.109375 0 1.015625.640625 1.84375 1.765625 1.84375.6875 0 1.46875-.25 2.296875-.921875.140625.578125.5.921875.984375.921875.578125 0 .921875-.609375.921875-.78125 0-.078125-.0625-.109375-.125-.109375-.078125 0-.109375.03125-.140625.109375-.203125.53125-.59375.53125-.609375.53125-.34375 0-.34375-.84375-.34375-1.109375 0-.234375 0-.25.109375-.375 1.03125-1.296875 1.25-2.5625 1.25-2.5625 0-.03125-.015625-.109375-.125-.109375s-.109375.03125-.171875.21875c-.1875.6875-.546875 1.515625-1.0625 2.171875zm-.734375 1.5c-.953125.84375-1.796875.953125-2.234375.953125-.65625 0-.984375-.484375-.984375-1.1875 0-.53125.28125-1.703125.640625-2.265625.515625-.796875 1.09375-1 1.484375-1 1.078125 0 1.078125 1.421875 1.078125 2.28125 0 .40625 0 1.03125.015625 1.21875zm0 0"/></symbol><symbol id="i" overflow="visible"><path d="m6.734375-7.546875c-.046875-.21875-.0625-.265625-.25-.265625-.109375 0-.1875 0-.34375.203125l-5.515625 7.390625c-.09375.109375-.09375.125-.09375.15625 0 .046875.015625.0625.25.0625h7.515625c.1875 0 .28125 0 .28125-.109375 0-.046875 0-.109375-.015625-.15625zm-.828125.765625 1.5 6h-5.984375zm0 0"/></symbol><symbol id="j" overflow="visible"><path d="m4-4.359375h.9375c.21875 0 .328125 0 .328125-.21875 0-.125-.109375-.125-.296875-.125h-.90625l.234375-1.234375c.046875-.234375.203125-1.015625.265625-1.140625.09375-.203125.28125-.375.515625-.375.03125 0 .328125 0 .53125.203125-.484375.046875-.59375.421875-.59375.59375 0 .25.203125.375.40625.375.28125 0 .59375-.234375.59375-.65625 0-.5-.5-.75-.9375-.75-.375 0-1.0625.1875-1.390625 1.28125-.0625.21875-.09375.328125-.359375 1.703125h-.75c-.21875 0-.328125 0-.328125.203125 0 .140625.09375.140625.296875.140625h.71875l-.8125 4.3125c-.203125 1.046875-.375 2.046875-.953125 2.046875-.03125 0-.3125 0-.515625-.203125.5-.03125.59375-.421875.59375-.59375 0-.25-.1875-.375-.40625-.375-.28125 0-.59375.234375-.59375.65625 0 .484375.484375.75.921875.75.609375 0 1.046875-.640625 1.234375-1.0625.359375-.6875.609375-2 .609375-2.078125zm0 0"/></symbol><symbol id="k" overflow="visible"><path d="m2.21875-.015625c0-.71875-.28125-1.140625-.703125-1.140625-.359375 0-.578125.265625-.578125.578125 0 .296875.21875.578125.578125.578125.125 0 .265625-.046875.375-.140625.046875-.015625.046875-.03125.0625-.03125s.015625.015625.015625.15625c0 .8125-.375 1.46875-.734375 1.828125-.125.125-.125.140625-.125.171875 0 .078125.0625.125.109375.125.125 0 1-.84375 1-2.125zm0 0"/></symbol><symbol id="l" overflow="visible"><path d="m4.78125-7.765625c.0625-.140625.0625-.1875.0625-.203125 0-.109375-.09375-.203125-.21875-.203125-.078125 0-.15625.03125-.1875.09375l-3.78125 10.390625c-.0625.140625-.0625.1875-.0625.203125 0 .109375.109375.203125.21875.203125.140625 0 .1875-.0625.25-.25zm0 0"/></symbol><symbol id="m" overflow="visible"><path d="m.421875.96875c-.078125.25-.09375.3125-.40625.3125-.109375 0-.203125 0-.203125.15625 0 .0625.0625.109375.109375.109375.078125 0 .109375-.03125.703125-.03125.5625 0 .734375.03125.796875.03125.03125 0 .140625 0 .140625-.15625 0-.109375-.109375-.109375-.203125-.109375-.375 0-.375-.046875-.375-.125 0-.046875.140625-.609375.375-1.546875.109375.1875.359375.46875.78125.46875.984375 0 2-1.125 2-2.28125 0-.796875-.5-1.3125-1.140625-1.3125-.484375 0-.859375.328125-1.09375.5625-.171875-.5625-.703125-.5625-.78125-.5625-.28125 0-.484375.1875-.609375.4375-.1875.359375-.28125.765625-.28125.78125 0 .078125.0625.109375.125.109375.109375 0 .109375-.03125.171875-.25.09375-.40625.234375-.859375.5625-.859375.203125 0 .265625.1875.265625.375 0 .078125-.03125.28125-.046875.34375zm1.453125-3.421875c.046875-.140625.046875-.15625.171875-.296875.296875-.359375.640625-.546875.921875-.546875.40625 0 .546875.390625.546875.75 0 .296875-.171875 1.15625-.40625 1.625-.203125.421875-.59375.78125-.96875.78125-.53125 0-.671875-.625-.671875-.6875 0-.015625.015625-.09375.03125-.125zm0 0"/></symbol><symbol id="n" overflow="visible"><path d="m1.46875-1.8125c0-.609375.25-1.46875 1.015625-1.484375-.046875.03125-.140625.09375-.140625.28125 0 .25.203125.359375.359375.359375.1875 0 .359375-.125.359375-.359375 0-.28125-.25-.5-.609375-.5-.515625 0-.875.390625-1.03125.84375h-.015625v-.84375l-1.125.09375v.265625c.546875 0 .609375.046875.609375.4375v2.09375c0 .359375-.109375.359375-.609375.359375v.265625c.3125-.03125.75-.03125.9375-.03125.46875 0 .484375 0 1 .03125v-.265625h-.15625c-.578125 0-.59375-.078125-.59375-.375zm0 0"/></symbol><symbol id="o" overflow="visible"><path d="m1.515625-3.171875h.96875v-.265625h-.984375v-.890625c0-.703125.390625-1.0625.734375-1.0625.125 0 .203125.03125.234375.046875-.140625.0625-.1875.203125-.1875.3125 0 .203125.15625.359375.359375.359375.21875 0 .359375-.15625.359375-.359375 0-.34375-.328125-.578125-.75-.578125-.59375 0-1.3125.4375-1.3125 1.28125v.890625h-.65625v.265625h.65625v2.546875c0 .359375-.09375.359375-.609375.359375v.265625c.3125-.03125.75-.03125.953125-.03125.46875 0 .484375 0 1 .03125v-.265625h-.15625c-.59375 0-.609375-.078125-.609375-.375zm0 0"/></symbol><symbol id="p" overflow="visible"><path d="m7.1875-2.515625c.1875 0 .375 0 .375-.203125 0-.21875-.1875-.21875-.375-.21875h-5.90625c-.1875 0-.375 0-.375.21875 0 .203125.1875.203125.375.203125zm0 0"/></symbol><symbol id="q" overflow="visible"><path d="m1.734375-7.78125c0-.203125 0-.390625-.21875-.390625s-.21875.1875-.21875.390625v10.109375c0 .203125 0 .390625.21875.390625s.21875-.1875.21875-.390625zm0 0"/></symbol><symbol id="r" overflow="visible"><path d="m.65625-6.65625c-.171875 0-.453125 0-.453125.328125s.28125.328125.453125.328125h.234375v5.328125h-.234375c-.171875 0-.453125 0-.453125.34375 0 .328125.28125.328125.453125.328125h2.25c1.421875 0 2.390625-1.53125 2.390625-3.28125s-.9375-3.375-2.390625-3.375zm.984375 5.984375v-5.328125h1.046875c1.234375 0 1.84375 1.453125 1.84375 2.71875 0 1.28125-.625 2.609375-1.84375 2.609375zm0 0"/></symbol><symbol id="s" overflow="visible"><path d="m1.8125-2.671875h1.359375c1.265625 0 2.0625-.984375 2.0625-2s-.8125-1.984375-2.0625-1.984375h-2.4375c-.171875 0-.453125 0-.453125.3125 0 .34375.28125.34375.453125.34375h.328125v5.328125h-.328125c-.171875 0-.453125 0-.453125.34375 0 .328125.28125.328125.453125.328125h1.40625c.15625 0 .4375 0 .4375-.328125 0-.34375-.28125-.34375-.4375-.34375h-.328125zm0-3.328125h1.15625c1.046875 0 1.515625.75 1.515625 1.328125s-.46875 1.328125-1.515625 1.328125h-1.15625zm0 0"/></symbol><use x="6.816" xlink:href="#a" y="11.683"/><path d="m-.001125-.0009375h11.738281" fill="none" stroke="#000" stroke-miterlimit="10" stroke-width=".436" transform="matrix(1 0 0 -1 3.673 16.335)"/><use x="3.673" xlink:href="#h" y="26.546"/><use x="10.652" xlink:href="#m" y="28.182"/><g><use x="17.804" xlink:href="#i" y="11.683"/><use x="26.894553" xlink:href="#j" y="11.683"/></g><g><use x="32.236" xlink:href="#n" y="13.46"/><use x="35.536418" xlink:href="#o" y="13.46"/></g><path d="m.0006875-.0009375h21.4453125" fill="none" stroke="#000" stroke-miterlimit="10" stroke-width=".436" transform="matrix(1 0 0 -1 17.804 16.335)"/><use x="22.349" xlink:href="#j" y="26.546"/><g><use x="27.69" xlink:href="#n" y="28.323"/><use x="30.990418" xlink:href="#o" y="28.323"/></g><use x="43.477" xlink:href="#b" y="19.063"/><g><use x="54.992" xlink:href="#p" y="19.063"/><use x="63.477098" xlink:href="#q" y="19.063"/></g><g><use x="66.507" xlink:href="#r" y="19.063"/><use x="72.234278" xlink:href="#s" y="19.063"/></g><use x="77.961" xlink:href="#q" y="19.063"/><use x="80.992" xlink:href="#k" y="19.063"/><g><use x="85.84" xlink:href="#p" y="19.063"/><use x="94.325098" xlink:href="#q" y="19.063"/></g><g><use x="97.355" xlink:href="#r" y="19.063"/><use x="103.082278" xlink:href="#s" y="19.063"/></g><use x="108.81" xlink:href="#q" y="19.063"/><use x="111.84" xlink:href="#l" y="19.063"/><use x="117.295" xlink:href="#c" y="19.063"/><use x="122.749" xlink:href="#k" y="19.063"/><use x="127.598" xlink:href="#d" y="19.063"/><use x="133.052" xlink:href="#k" y="19.063"/><use x="137.901" xlink:href="#q" y="19.063"/><g><use x="140.931" xlink:href="#r" y="19.063"/><use x="146.658277" xlink:href="#s" y="19.063"/></g><use x="152.385" xlink:href="#q" y="19.063"/><use x="155.416" xlink:href="#l" y="19.063"/><use x="160.87" xlink:href="#c" y="19.063"/><use x="166.325" xlink:href="#k" y="19.063"/><use x="171.173" xlink:href="#q" y="19.063"/><g><use x="174.204" xlink:href="#r" y="19.063"/><use x="179.931277" xlink:href="#s" y="19.063"/></g><use x="185.658" xlink:href="#q" y="19.063"/><use x="192.325" xlink:href="#k" y="19.063"/><g><use x="329.186" xlink:href="#e" y="19.647"/><use x="333.428549" xlink:href="#a" y="19.647"/><use x="338.883099" xlink:href="#f" y="19.647"/><use x="344.337649" xlink:href="#d" y="19.647"/><use x="349.792199" xlink:href="#g" y="19.647"/></g></svg>