<svg height="15pt" viewBox="0 0 287 15" width="287pt" xmlns="http://www.w3.org/2000/svg" xmlns:xlink="http://www.w3.org/1999/xlink"><symbol id="a" overflow="visible"><path d="m1.21875-2.75c.0625-1.625.984375-1.890625 1.359375-1.890625 1.125 0 1.234375 1.46875 1.234375 1.890625zm-.015625.234375h3.046875c.25 0 .28125 0 .28125-.234375 0-1.078125-.59375-2.140625-1.953125-2.140625-1.265625 0-2.265625 1.125-2.265625 2.484375 0 1.46875 1.140625 2.53125 2.390625 2.53125 1.328125 0 1.828125-1.21875 1.828125-1.421875 0-.109375-.09375-.125-.140625-.125-.109375 0-.125.0625-.140625.140625-.390625 1.125-1.375 1.125-1.484375 1.125-.546875 0-.984375-.328125-1.234375-.734375-.328125-.515625-.328125-1.234375-.328125-1.625zm0 0"/></symbol><symbol id="b" overflow="visible"><path d="m3.125-2.5625c.328125-.421875.75-.953125 1.015625-1.234375.328125-.390625.78125-.5625 1.296875-.5625v-.34375c-.296875.03125-.609375.03125-.90625.03125-.328125 0-.90625-.015625-1.046875-.03125v.34375c.234375.015625.328125.15625.328125.328125 0 .1875-.109375.328125-.171875.390625l-.671875.84375-.859375-1.09375c-.09375-.109375-.09375-.140625-.09375-.203125 0-.15625.171875-.265625.390625-.265625v-.34375c-.296875.015625-1.015625.03125-1.1875.03125-.21875 0-.734375 0-1.03125-.03125v.34375c.765625 0 .765625 0 1.28125.65625l1.078125 1.40625-1.015625 1.296875c-.53125.640625-1.171875.65625-1.40625.65625v.34375c.296875-.015625.625-.03125.90625-.03125.328125 0 .78125.015625 1.046875.03125v-.34375c-.25-.03125-.328125-.171875-.328125-.328125 0-.25.328125-.609375.984375-1.390625l.828125 1.09375c.09375.125.234375.296875.234375.359375 0 .09375-.09375.265625-.390625.265625v.34375c.328125-.015625.9375-.03125 1.171875-.03125.296875 0 .71875.015625 1.046875.03125v-.34375c-.59375 0-.78125-.015625-1.03125-.328125zm0 0"/></symbol><symbol id="c" overflow="visible"><path d="m1.875-4.09375v-.734375l-1.5625.125v.34375c.765625 0 .84375.0625.84375.546875v5.09375c0 .5-.125.5-.84375.5v.328125c.359375 0 .9375-.03125 1.21875-.03125.296875 0 .84375.03125 1.234375.03125v-.328125c-.734375 0-.859375 0-.859375-.5v-1.921875c.0625.171875.515625.765625 1.34375.765625 1.296875 0 2.4375-1.078125 2.4375-2.484375 0-1.375-1.0625-2.46875-2.28125-2.46875-.859375 0-1.3125.484375-1.53125.734375zm.03125 2.84375v-2.421875c.3125-.5625.859375-.875 1.40625-.875.796875 0 1.46875.953125 1.46875 2.1875 0 1.328125-.765625 2.234375-1.578125 2.234375-.4375 0-.84375-.21875-1.140625-.65625-.15625-.234375-.15625-.25-.15625-.46875zm0 0"/></symbol><symbol id="d" overflow="visible"><path d="m3.609375 2.625c0-.046875 0-.0625-.1875-.25-1.359375-1.375-1.703125-3.4375-1.703125-5.09375 0-1.90625.40625-3.796875 1.75-5.171875.140625-.125.140625-.140625.140625-.1875 0-.0625-.046875-.09375-.109375-.09375-.109375 0-1.09375.734375-1.734375 2.125-.5625 1.1875-.6875 2.40625-.6875 3.328125 0 .84375.125 2.15625.71875 3.390625.65625 1.34375 1.59375 2.046875 1.703125 2.046875.0625 0 .109375-.03125.109375-.09375zm0 0"/></symbol><symbol id="e" overflow="visible"><path d="m2.09375-4.125c0-.3125-.265625-.578125-.578125-.578125s-.578125.265625-.578125.578125.265625.578125.578125.578125.578125-.265625.578125-.578125zm0 3.546875c0-.3125-.265625-.578125-.578125-.578125s-.578125.265625-.578125.578125.265625.578125.578125.578125.578125-.265625.578125-.578125zm0 0"/></symbol><symbol id="f" overflow="visible"><path d="m3.15625-2.71875c0-.859375-.125-2.171875-.71875-3.40625-.65625-1.34375-1.59375-2.046875-1.703125-2.046875-.0625 0-.109375.03125-.109375.09375 0 .046875 0 .0625.203125.265625 1.0625 1.078125 1.6875 2.8125 1.6875 5.09375 0 1.859375-.40625 3.78125-1.75 5.15625-.140625.125-.140625.140625-.140625.1875 0 .0625.046875.09375.109375.09375.109375 0 1.09375-.734375 1.734375-2.125.546875-1.1875.6875-2.40625.6875-3.3125zm0 0"/></symbol><symbol id="g" overflow="visible"><path d="m3.203125-6.984375c0-.25 0-.28125-.25-.28125-.671875.703125-1.640625.703125-1.984375.703125v.328125c.21875 0 .859375 0 1.4375-.28125v5.65625c0 .390625-.046875.515625-1.015625.515625h-.359375v.34375c.390625-.03125 1.328125-.03125 1.765625-.03125s1.390625 0 1.765625.03125v-.34375h-.34375c-.984375 0-1.015625-.109375-1.015625-.515625zm0 0"/></symbol><symbol id="h" overflow="visible"><path d="m1.390625-.84375 1.15625-1.125c1.703125-1.5 2.34375-2.09375 2.34375-3.171875 0-1.25-.96875-2.125-2.3125-2.125-1.21875 0-2.03125 1-2.03125 1.96875 0 .625.546875.625.578125.625.1875 0 .5625-.140625.5625-.578125 0-.296875-.1875-.578125-.578125-.578125-.078125 0-.109375 0-.140625.015625.25-.703125.84375-1.109375 1.46875-1.109375 1 0 1.46875.875 1.46875 1.78125 0 .859375-.546875 1.734375-1.140625 2.40625l-2.09375 2.328125c-.125.125-.125.140625-.125.40625h4.046875l.296875-1.890625h-.265625c-.0625.3125-.125.796875-.234375.96875-.078125.078125-.796875.078125-1.046875.078125zm0 0"/></symbol><symbol id="i" overflow="visible"><path d="m8.328125-6.609375c.09375-.390625.109375-.5.90625-.5.28125 0 .375 0 .375-.21875 0-.125-.125-.125-.15625-.125-.296875 0-1.09375.03125-1.390625.03125-.3125 0-1.09375-.03125-1.40625-.03125-.09375 0-.203125 0-.203125.21875 0 .125.09375.125.296875.125.015625 0 .234375 0 .421875.015625.1875.03125.28125.03125.28125.171875 0 .046875 0 .078125-.03125.21875l-.65625 2.65625h-3.328125l.640625-2.5625c.09375-.390625.125-.5.921875-.5.28125 0 .359375 0 .359375-.21875 0-.125-.109375-.125-.140625-.125-.3125 0-1.09375.03125-1.40625.03125s-1.09375-.03125-1.40625-.03125c-.078125 0-.203125 0-.203125.21875 0 .125.09375.125.3125.125.015625 0 .21875 0 .40625.015625.203125.03125.296875.03125.296875.171875 0 .046875-.015625.078125-.046875.21875l-1.453125 5.859375c-.109375.421875-.140625.5-1 .5-.1875 0-.296875 0-.296875.21875 0 .125.140625.125.15625.125.3125 0 1.078125-.03125 1.390625-.03125.21875 0 .46875.015625.6875.015625.25 0 .484375.015625.71875.015625.078125 0 .21875 0 .21875-.21875 0-.125-.109375-.125-.3125-.125-.40625 0-.703125 0-.703125-.1875 0-.0625.015625-.125.03125-.1875l.734375-2.984375h3.328125c-.453125 1.8125-.703125 2.84375-.75 3-.109375.359375-.3125.359375-1 .359375-.15625 0-.25 0-.25.21875 0 .125.125.125.15625.125.296875 0 1.078125-.03125 1.375-.03125.234375 0 .46875.015625.703125.015625s.484375.015625.703125.015625c.09375 0 .21875 0 .21875-.21875 0-.125-.09375-.125-.296875-.125-.40625 0-.71875 0-.71875-.1875 0-.0625.03125-.125.03125-.1875zm0 0"/></symbol><symbol id="j" overflow="visible"><path d="m2.09375-.578125c0-.3125-.265625-.578125-.578125-.578125s-.578125.265625-.578125.578125.265625.578125.578125.578125.578125-.265625.578125-.578125zm0 0"/></symbol><g><use x="2.969" xlink:href="#a" y="11.642"/><use x="7.817004" xlink:href="#b" y="11.642"/><use x="13.574827" xlink:href="#c" y="11.642"/><use x="19.635923" xlink:href="#d" y="11.642"/><use x="23.878472" xlink:href="#e" y="11.642"/></g><use x="29.939" xlink:href="#i" y="11.642"/><g><use x="42.924" xlink:href="#e" y="11.642"/><use x="45.954548" xlink:href="#f" y="11.642"/></g><use x="53.833" xlink:href="#j" y="11.642"/><g><use x="260.186" xlink:href="#d" y="11.66"/><use x="264.428549" xlink:href="#g" y="11.66"/><use x="269.883099" xlink:href="#g" y="11.66"/><use x="275.337649" xlink:href="#h" y="11.66"/><use x="280.792199" xlink:href="#f" y="11.66"/></g></svg>