<svg height="245pt" viewBox="0 0 432 245" width="432pt" xmlns="http://www.w3.org/2000/svg" xmlns:xlink="http://www.w3.org/1999/xlink"><symbol id="a" overflow="visible"><path d="m2.46875-3.453125h1.84375c1.3125 0 2.5-.875 2.5-1.96875 0-1.0625-1.09375-2.03125-2.578125-2.03125h-3.859375v.34375h.265625c.84375 0 .859375.125.859375.515625v5.75c0 .390625-.015625.5-.859375.5h-.265625v.34375c.390625-.03125 1.203125-.03125 1.609375-.03125.421875 0 1.234375 0 1.609375.03125v-.34375h-.25c-.84375 0-.875-.109375-.875-.5zm-.03125-.28125v-2.9375c0-.359375.03125-.4375.546875-.4375h.96875c1.734375 0 1.734375 1.15625 1.734375 1.6875 0 .515625 0 1.6875-1.734375 1.6875zm0 0"/></symbol><symbol id="b" overflow="visible"><path d="m1.203125-.828125c0 .484375-.125.484375-.859375.484375v.34375c.390625-.015625.9375-.03125 1.234375-.03125.28125 0 .859375.015625 1.21875.03125v-.34375c-.71875 0-.84375 0-.84375-.484375v-2c0-1.140625.765625-1.75 1.46875-1.75.6875 0 .8125.59375.8125 1.203125v2.546875c0 .484375-.125.484375-.859375.484375v.34375c.390625-.015625.9375-.03125 1.234375-.03125.28125 0 .859375.015625 1.21875.03125v-.34375c-.5625 0-.828125 0-.84375-.328125v-2.078125c0-.9375 0-1.28125-.34375-1.671875-.140625-.1875-.5-.40625-1.140625-.40625-.921875 0-1.390625.65625-1.578125 1.078125v-3.8125l-1.578125.109375v.34375c.765625 0 .859375.078125.859375.609375zm0 0"/></symbol><symbol id="c" overflow="visible"><path d="m4.53125-3.671875c.28125-.6875.828125-.6875 1.015625-.6875v-.34375c-.25.03125-.578125.03125-.828125.03125-.1875 0-.703125-.015625-.9375-.03125v.34375c.328125 0 .5.1875.5.46875 0 .109375 0 .125-.0625.265625l-1.09375 2.671875-1.21875-2.921875c-.046875-.109375-.0625-.15625-.0625-.203125 0-.28125.40625-.28125.609375-.28125v-.34375c-.28125.015625-1 .03125-1.1875.03125-.296875 0-.734375 0-1.0625-.03125v.34375c.53125 0 .734375 0 .890625.375l1.625 3.984375c-.046875.140625-.203125.5-.265625.640625-.234375.609375-.546875 1.359375-1.25 1.359375-.046875 0-.296875 0-.5-.203125.328125-.046875.421875-.28125.421875-.453125 0-.28125-.203125-.453125-.453125-.453125-.21875 0-.46875.140625-.46875.46875 0 .484375.46875.875 1 .875.6875 0 1.140625-.625 1.40625-1.234375zm0 0"/></symbol><symbol id="d" overflow="visible"><path d="m2.265625-2.109375c.25.03125 1.140625.21875 1.140625 1 0 .546875-.390625.984375-1.234375.984375-.921875 0-1.3125-.609375-1.515625-1.546875-.03125-.140625-.046875-.1875-.15625-.1875-.140625 0-.140625.078125-.140625.28125v1.4375c0 .1875 0 .265625.125.265625.046875 0 .0625-.015625.265625-.21875.03125-.03125.03125-.046875.21875-.25.484375.453125.96875.46875 1.203125.46875 1.25 0 1.75-.734375 1.75-1.515625 0-.578125-.328125-.90625-.453125-1.046875-.359375-.34375-.78125-.4375-1.25-.515625-.609375-.125-1.328125-.265625-1.328125-.890625 0-.390625.28125-.828125 1.21875-.828125 1.1875 0 1.25.96875 1.265625 1.3125.015625.09375.109375.09375.140625.09375.140625 0 .140625-.046875.140625-.25v-1.109375c0-.1875 0-.265625-.125-.265625-.046875 0-.078125 0-.21875.140625-.03125.03125-.140625.140625-.1875.171875-.40625-.3125-.859375-.3125-1.015625-.3125-1.328125 0-1.75.734375-1.75 1.34375 0 .390625.171875.6875.46875.921875.34375.296875.65625.359375 1.4375.515625zm0 0"/></symbol><symbol id="e" overflow="visible"><path d="m1.9375-4.828125-1.53125.125v.34375c.703125 0 .796875.0625.796875.59375v2.9375c0 .484375-.109375.484375-.84375.484375v.34375c.34375-.015625.9375-.03125 1.203125-.03125.375 0 .765625.015625 1.125.03125v-.34375c-.71875 0-.75-.046875-.75-.46875zm.03125-1.890625c0-.34375-.265625-.578125-.578125-.578125-.328125 0-.578125.296875-.578125.578125 0 .296875.25.578125.578125.578125.3125 0 .578125-.234375.578125-.578125zm0 0"/></symbol><symbol id="f" overflow="visible"><path d="m1.28125-2.375c0-1.78125.890625-2.234375 1.46875-2.234375.09375 0 .78125 0 1.171875.40625-.453125.03125-.515625.359375-.515625.5 0 .28125.1875.5.5.5.28125 0 .5-.1875.5-.515625 0-.734375-.828125-1.171875-1.671875-1.171875-1.359375 0-2.359375 1.1875-2.359375 2.53125 0 1.40625 1.078125 2.484375 2.34375 2.484375 1.453125 0 1.8125-1.3125 1.8125-1.421875s-.109375-.109375-.140625-.109375c-.109375 0-.125.046875-.140625.109375-.328125 1.015625-1.03125 1.140625-1.4375 1.140625-.578125 0-1.53125-.46875-1.53125-2.21875zm0 0"/></symbol><symbol id="g" overflow="visible"><path d="m3.625-.828125c.046875.4375.34375.890625.859375.890625.234375 0 .890625-.15625.890625-1.03125v-.609375h-.265625v.609375c0 .625-.28125.703125-.390625.703125-.359375 0-.40625-.5-.40625-.546875v-2.1875c0-.453125 0-.875-.390625-1.28125-.4375-.4375-.984375-.609375-1.5-.609375-.890625 0-1.640625.515625-1.640625 1.234375 0 .328125.21875.515625.5.515625.296875 0 .5-.21875.5-.5 0-.140625-.0625-.5-.5625-.5.296875-.390625.828125-.5 1.1875-.5.53125 0 1.15625.421875 1.15625 1.390625v.40625c-.5625.03125-1.328125.0625-2.015625.390625-.8125.375-1.09375.9375-1.09375 1.421875 0 .875 1.0625 1.15625 1.75 1.15625.71875 0 1.21875-.4375 1.421875-.953125zm-.0625-1.796875v1.09375c0 1.046875-.796875 1.40625-1.28125 1.40625-.53125 0-.984375-.375-.984375-.921875 0-.59375.453125-1.5 2.265625-1.578125zm0 0"/></symbol><symbol id="h" overflow="visible"><path d="m1.9375-7.5625-1.578125.109375v.34375c.765625 0 .84375.078125.84375.609375v5.671875c0 .484375-.109375.484375-.84375.484375v.34375c.359375-.015625.9375-.03125 1.21875-.03125.265625 0 .796875.015625 1.203125.03125v-.34375c-.734375 0-.84375 0-.84375-.484375zm0 0"/></symbol><symbol id="i" overflow="visible"><path d="m5.140625-2.328125c0-1.40625-1.09375-2.5625-2.421875-2.5625-1.359375 0-2.40625 1.1875-2.40625 2.5625 0 1.40625 1.125 2.453125 2.40625 2.453125 1.3125 0 2.421875-1.078125 2.421875-2.453125zm-2.421875 2.171875c-.46875 0-.9375-.21875-1.234375-.734375-.28125-.46875-.28125-1.140625-.28125-1.53125 0-.421875 0-1.015625.265625-1.5.296875-.5.8125-.71875 1.25-.71875.484375 0 .953125.234375 1.234375.703125s.28125 1.109375.28125 1.515625c0 .390625 0 .984375-.25 1.46875-.234375.484375-.71875.796875-1.265625.796875zm0 0"/></symbol><symbol id="j" overflow="visible"><path d="m1.203125-3.75v2.921875c0 .484375-.125.484375-.859375.484375v.34375c.390625-.015625.9375-.03125 1.234375-.03125.28125 0 .859375.015625 1.21875.03125v-.34375c-.71875 0-.84375 0-.84375-.484375v-2c0-1.140625.765625-1.75 1.46875-1.75.6875 0 .8125.59375.8125 1.203125v2.546875c0 .484375-.125.484375-.859375.484375v.34375c.390625-.015625.9375-.03125 1.234375-.03125.28125 0 .859375.015625 1.21875.03125v-.34375c-.5625 0-.828125 0-.84375-.328125v-2.078125c0-.9375 0-1.28125-.34375-1.671875-.140625-.1875-.5-.40625-1.140625-.40625-.796875 0-1.3125.46875-1.609375 1.15625v-1.15625l-1.546875.125v.34375c.765625 0 .859375.078125.859375.609375zm0 0"/></symbol><symbol id="k" overflow="visible"><path d="m1.890625-4.359375h1.5625v-.34375h-1.5625v-2h-.28125c0 .890625-.328125 2.0625-1.40625 2.09375v.25h.9375v3c0 1.34375 1.015625 1.484375 1.40625 1.484375.765625 0 1.078125-.78125 1.078125-1.484375v-.609375h-.28125v.59375c0 .8125-.328125 1.21875-.71875 1.21875-.734375 0-.734375-.984375-.734375-1.171875zm0 0"/></symbol><symbol id="l" overflow="visible"><path d="m4.53125-3.625c.109375-.25.296875-.734375 1.015625-.734375v-.34375c-.25.03125-.578125.03125-.828125.03125-.265625 0-.765625-.015625-.9375-.03125v.34375c.390625 0 .515625.265625.515625.46875 0 .09375-.015625.140625-.0625.265625l-1.109375 2.78125-1.234375-3.046875c-.0625-.140625-.0625-.171875-.0625-.1875 0-.28125.421875-.28125.625-.28125v-.34375c-.328125.015625-.9375.03125-1.1875.03125-.296875 0-.734375 0-1.0625-.03125v.34375c.6875 0 .734375.0625.875.40625l1.578125 3.859375c.0625.15625.078125.21875.21875.21875s.1875-.109375.234375-.21875zm0 0"/></symbol><symbol id="m" overflow="visible"><path d="m1.875-4.109375v-3.453125l-1.5625.109375v.34375c.75 0 .84375.078125.84375.609375v6.5h.265625c.015625-.015625.109375-.15625.40625-.671875.15625.25.609375.796875 1.421875.796875 1.296875 0 2.4375-1.078125 2.4375-2.484375 0-1.375-1.078125-2.46875-2.3125-2.46875-.859375 0-1.328125.515625-1.5.71875zm.03125 2.859375v-2.234375c0-.21875 0-.21875.125-.390625.421875-.625 1.015625-.703125 1.28125-.703125.5 0 .890625.28125 1.140625.703125.296875.4375.328125 1.0625.328125 1.515625 0 .390625-.03125 1.046875-.34375 1.546875-.234375.328125-.640625.6875-1.234375.6875-.484375 0-.875-.25-1.140625-.65625-.15625-.234375-.15625-.265625-.15625-.46875zm0 0"/></symbol><symbol id="n" overflow="visible"><path d="m1.21875-2.75c.0625-1.625.984375-1.890625 1.359375-1.890625 1.125 0 1.234375 1.46875 1.234375 1.890625zm-.015625.234375h3.046875c.25 0 .28125 0 .28125-.234375 0-1.078125-.59375-2.140625-1.953125-2.140625-1.265625 0-2.265625 1.125-2.265625 2.484375 0 1.46875 1.140625 2.53125 2.390625 2.53125 1.328125 0 1.828125-1.21875 1.828125-1.421875 0-.109375-.09375-.125-.140625-.125-.109375 0-.125.0625-.140625.140625-.390625 1.125-1.375 1.125-1.484375 1.125-.546875 0-.984375-.328125-1.234375-.734375-.328125-.515625-.328125-1.234375-.328125-1.625zm0 0"/></symbol><symbol id="o" overflow="visible"><path d="m6.34375-7.421875h-5.984375v.34375h.265625c.84375 0 .859375.125.859375.515625v5.71875c0 .390625-.015625.5-.859375.5h-.265625v.34375c.375-.03125 1.234375-.03125 1.65625-.03125.453125 0 1.4375 0 1.828125.03125v-.34375h-.359375c-1.03125 0-1.03125-.140625-1.03125-.515625v-2.6875h.9375c1.046875 0 1.15625.34375 1.15625 1.28125h.28125v-2.890625h-.28125c0 .90625-.109375 1.28125-1.15625 1.28125h-.9375v-2.765625c0-.359375.015625-.4375.53125-.4375h1.3125c1.640625 0 1.90625.609375 2.078125 2.109375h.28125zm0 0"/></symbol><symbol id="p" overflow="visible"><path d="m3.8125-4.234375-1.40625-.328125c-.671875-.171875-1.09375-.765625-1.09375-1.390625 0-.765625.578125-1.4375 1.4375-1.4375 1.8125 0 2.0625 1.796875 2.125 2.28125.015625.078125.015625.140625.125.140625.140625 0 .140625-.0625.140625-.265625v-2.1875c0-.1875 0-.265625-.109375-.265625-.078125 0-.09375.015625-.171875.140625l-.375.625c-.328125-.3125-.78125-.765625-1.75-.765625-1.203125 0-2.125.953125-2.125 2.109375 0 .90625.578125 1.703125 1.4375 2 .109375.046875.671875.171875 1.4375.359375.296875.078125.609375.15625.921875.5625.234375.28125.34375.640625.34375 1 0 .765625-.546875 1.5625-1.46875 1.5625-.3125 0-1.140625-.0625-1.71875-.59375-.640625-.59375-.671875-1.28125-.671875-1.671875-.015625-.109375-.109375-.109375-.140625-.109375-.140625 0-.140625.0625-.140625.265625v2.1875c0 .171875 0 .25.125.25.078125 0 .078125-.015625.15625-.140625 0 0 .03125-.046875.390625-.625.34375.375 1.046875.765625 2.015625.765625 1.265625 0 2.140625-1.0625 2.140625-2.265625 0-1.09375-.71875-1.984375-1.625-2.203125zm0 0"/></symbol><symbol id="q" overflow="visible"><path d="m1.828125-3.625v-1.203125l-1.515625.125v.34375c.75 0 .84375.078125.84375.609375v2.921875c0 .484375-.125.484375-.84375.484375v.34375c.421875-.015625.9375-.03125 1.234375-.03125.4375 0 .953125 0 1.390625.03125v-.34375h-.234375c-.8125 0-.828125-.109375-.828125-.5v-1.6875c0-1.078125.453125-2.046875 1.28125-2.046875.078125 0 .109375 0 .125.015625-.03125 0-.25.140625-.25.421875 0 .296875.234375.46875.46875.46875.203125 0 .46875-.140625.46875-.484375s-.34375-.671875-.8125-.671875c-.796875 0-1.1875.734375-1.328125 1.203125zm0 0"/></symbol><symbol id="r" overflow="visible"><path d="m2.09375-4.125c0-.3125-.265625-.578125-.578125-.578125s-.578125.265625-.578125.578125.265625.578125.578125.578125.578125-.265625.578125-.578125zm0 3.546875c0-.3125-.265625-.578125-.578125-.578125s-.578125.265625-.578125.578125.265625.578125.578125.578125.578125-.265625.578125-.578125zm0 0"/></symbol><symbol id="s" overflow="visible"><path d="m1.390625-.84375 1.15625-1.125c1.703125-1.5 2.34375-2.09375 2.34375-3.171875 0-1.25-.96875-2.125-2.3125-2.125-1.21875 0-2.03125 1-2.03125 1.96875 0 .625.546875.625.578125.625.1875 0 .5625-.140625.5625-.578125 0-.296875-.1875-.578125-.578125-.578125-.078125 0-.109375 0-.140625.015625.25-.703125.84375-1.109375 1.46875-1.109375 1 0 1.46875.875 1.46875 1.78125 0 .859375-.546875 1.734375-1.140625 2.40625l-2.09375 2.328125c-.125.125-.125.140625-.125.40625h4.046875l.296875-1.890625h-.265625c-.0625.3125-.125.796875-.234375.96875-.078125.078125-.796875.078125-1.046875.078125zm0 0"/></symbol><symbol id="t" overflow="visible"><path d="m4-3.46875v.34375c0 2.5625-1.125 3.0625-1.765625 3.0625-.1875 0-.765625-.03125-1.0625-.390625.46875 0 .5625-.328125.5625-.5 0-.34375-.265625-.515625-.5-.515625-.171875 0-.5.109375-.5.53125 0 .734375.578125 1.171875 1.515625 1.171875 1.40625 0 2.734375-1.484375 2.734375-3.828125 0-2.921875-1.25-3.671875-2.21875-3.671875-.609375 0-1.140625.203125-1.609375.6875-.453125.5-.703125.953125-.703125 1.765625 0 1.359375.96875 2.4375 2.1875 2.4375.65625 0 1.109375-.453125 1.359375-1.09375zm-1.34375.84375c-.1875 0-.6875 0-1.015625-.6875-.203125-.40625-.203125-.953125-.203125-1.484375 0-.59375 0-1.109375.234375-1.5.296875-.546875.703125-.6875 1.09375-.6875.5 0 .859375.359375 1.046875.859375.125.34375.171875 1.03125.171875 1.53125 0 .90625-.375 1.96875-1.328125 1.96875zm0 0"/></symbol><symbol id="u" overflow="visible"><path d="m5.1875-6.640625c.109375-.125.109375-.15625.109375-.390625h-2.65625c-1.328125 0-1.359375-.140625-1.390625-.34375h-.28125l-.359375 2.25h.28125c.03125-.171875.125-.859375.265625-1 .078125-.0625.921875-.0625 1.0625-.0625h2.265625c-.125.171875-.984375 1.359375-1.21875 1.734375-.984375 1.46875-1.34375 2.984375-1.34375 4.09375 0 .109375 0 .59375.5.59375s.5-.484375.5-.59375v-.5625c0-.59375.03125-1.1875.125-1.78125.046875-.25.1875-1.1875.671875-1.859375zm0 0"/></symbol><symbol id="v" overflow="visible"><path d="m3.203125-1.796875v.953125c0 .390625-.015625.5-.828125.5h-.21875v.34375c.4375-.03125 1-.03125 1.46875-.03125.453125 0 1.03125 0 1.484375.03125v-.34375h-.234375c-.8125 0-.828125-.109375-.828125-.5v-.953125h1.09375v-.34375h-1.09375v-4.953125c0-.21875 0-.296875-.171875-.296875-.09375 0-.140625 0-.21875.140625l-3.34375 5.109375v.34375zm.0625-.34375h-2.65625l2.65625-4.0625zm0 0"/></symbol><symbol id="w" overflow="visible"><path d="m4.890625-2.1875c0-1.296875-.890625-2.390625-2.0625-2.390625-.53125 0-1 .171875-1.390625.546875v-2.125c.21875.078125.578125.140625.921875.140625 1.34375 0 2.109375-.984375 2.109375-1.125 0-.0625-.03125-.125-.109375-.125 0 0-.03125 0-.078125.03125-.21875.109375-.765625.3125-1.484375.3125-.4375 0-.9375-.0625-1.453125-.296875-.09375-.03125-.109375-.03125-.140625-.03125-.109375 0-.109375.078125-.109375.265625v3.21875c0 .203125 0 .28125.15625.28125.078125 0 .109375-.03125.140625-.09375.125-.171875.53125-.765625 1.40625-.765625.578125 0 .84375.5.9375.703125.171875.40625.1875.828125.1875 1.375 0 .375 0 1.03125-.25 1.484375-.265625.4375-.671875.71875-1.171875.71875-.796875 0-1.421875-.578125-1.609375-1.21875.03125 0 .0625.015625.1875.015625.359375 0 .546875-.265625.546875-.53125s-.1875-.53125-.546875-.53125c-.15625 0-.53125.078125-.53125.578125 0 .9375.75 1.984375 1.96875 1.984375 1.265625 0 2.375-1.046875 2.375-2.421875zm0 0"/></symbol><symbol id="x" overflow="visible"><path d="m1.78125-4.984375c-.5-.328125-.546875-.703125-.546875-.890625 0-.65625.703125-1.109375 1.484375-1.109375.796875 0 1.484375.5625 1.484375 1.34375 0 .625-.421875 1.140625-1.078125 1.53125zm1.59375 1.03125c.78125-.40625 1.3125-.96875 1.3125-1.6875 0-1-.96875-1.625-1.96875-1.625-1.078125 0-1.96875.8125-1.96875 1.828125 0 .1875.03125.6875.484375 1.1875.125.140625.515625.40625.796875.59375-.640625.3125-1.578125.9375-1.578125 2.015625 0 1.15625 1.125 1.875 2.265625 1.875 1.234375 0 2.265625-.90625 2.265625-2.0625 0-.390625-.125-.890625-.53125-1.34375-.203125-.234375-.390625-.34375-1.078125-.78125zm-1.09375.46875 1.34375.84375c.296875.203125.8125.53125.8125 1.203125 0 .8125-.8125 1.375-1.71875 1.375-.9375 0-1.71875-.671875-1.71875-1.578125 0-.640625.359375-1.34375 1.28125-1.84375zm0 0"/></symbol><symbol id="y" overflow="visible"><path d="m1.203125-3.75v2.921875c0 .484375-.125.484375-.859375.484375v.34375c.390625-.015625.9375-.03125 1.234375-.03125.28125 0 .859375.015625 1.21875.03125v-.34375c-.71875 0-.84375 0-.84375-.484375v-2c0-1.140625.765625-1.75 1.46875-1.75.6875 0 .8125.59375.8125 1.203125v2.546875c0 .484375-.125.484375-.859375.484375v.34375c.390625-.015625.9375-.03125 1.234375-.03125.28125 0 .859375.015625 1.21875.03125v-.34375c-.71875 0-.84375 0-.84375-.484375v-2c0-1.140625.78125-1.75 1.46875-1.75s.8125.59375.8125 1.203125v2.546875c0 .484375-.125.484375-.859375.484375v.34375c.390625-.015625.9375-.03125 1.234375-.03125.28125 0 .859375.015625 1.21875.03125v-.34375c-.5625 0-.828125 0-.84375-.328125v-2.078125c0-.9375 0-1.28125-.34375-1.671875-.140625-.1875-.5-.40625-1.140625-.40625-.921875 0-1.390625.65625-1.578125 1.078125-.15625-.953125-.96875-1.078125-1.453125-1.078125-.796875 0-1.3125.46875-1.609375 1.15625v-1.15625l-1.546875.125v.34375c.765625 0 .859375.078125.859375.609375zm0 0"/></symbol><symbol id="z" overflow="visible"><path d="m1.4375-3.578125v-.265625c0-2.75 1.359375-3.140625 1.90625-3.140625.265625 0 .71875.0625.96875.4375-.171875 0-.609375 0-.609375.484375 0 .34375.265625.5.5.5.1875 0 .515625-.09375.515625-.515625 0-.65625-.484375-1.1875-1.390625-1.1875-1.390625 0-2.875 1.40625-2.875 3.8125 0 2.921875 1.265625 3.6875 2.28125 3.6875 1.21875 0 2.25-1.015625 2.25-2.453125 0-1.390625-.96875-2.4375-2.1875-2.4375-.734375 0-1.140625.5625-1.359375 1.078125zm1.296875 3.515625c-.6875 0-1.015625-.65625-1.078125-.828125-.1875-.5-.1875-1.375-.1875-1.578125 0-.84375.34375-1.9375 1.328125-1.9375.171875 0 .671875 0 1.015625.671875.1875.40625.1875.96875.1875 1.5 0 .515625 0 1.0625-.1875 1.453125-.328125.65625-.828125.71875-1.078125.71875zm0 0"/></symbol><symbol id="A" overflow="visible"><path d="m5.015625-3.484375c0-.875-.046875-1.75-.4375-2.5625-.5-1.046875-1.390625-1.21875-1.859375-1.21875-.640625 0-1.4375.28125-1.890625 1.296875-.34375.75-.40625 1.609375-.40625 2.484375 0 .8125.046875 1.796875.5 2.625.46875.875 1.265625 1.09375 1.796875 1.09375.578125 0 1.421875-.21875 1.890625-1.265625.359375-.75.40625-1.59375.40625-2.453125zm-2.296875 3.484375c-.421875 0-1.078125-.265625-1.265625-1.3125-.125-.65625-.125-1.671875-.125-2.3125 0-.6875 0-1.40625.09375-2 .203125-1.296875 1.015625-1.40625 1.296875-1.40625.359375 0 1.078125.203125 1.28125 1.28125.109375.609375.109375 1.4375.109375 2.125 0 .828125 0 1.5625-.125 2.265625-.15625 1.03125-.78125 1.359375-1.265625 1.359375zm0 0"/></symbol><symbol id="B" overflow="visible"><path d="m3.203125-6.984375c0-.25 0-.28125-.25-.28125-.671875.703125-1.640625.703125-1.984375.703125v.328125c.21875 0 .859375 0 1.4375-.28125v5.65625c0 .390625-.046875.515625-1.015625.515625h-.359375v.34375c.390625-.03125 1.328125-.03125 1.765625-.03125s1.390625 0 1.765625.03125v-.34375h-.34375c-.984375 0-1.015625-.109375-1.015625-.515625zm0 0"/></symbol><symbol id="C" overflow="visible"><path d="m3.296875-1.609375c0 1-.546875 1.609375-1.125 1.609375-.0625 0-.8125 0-1.203125-.625.5625 0 .703125-.328125.703125-.625 0-.390625-.3125-.609375-.609375-.609375-.25 0-.609375.15625-.609375.640625 0 .796875.765625 1.453125 1.734375 1.453125 1.109375 0 1.90625-.765625 2.03125-1.578125.015625-.078125.015625-.109375.015625-.484375v-4.828125c0-.453125.15625-.453125.84375-.453125v-.34375c-.484375.03125-.90625.03125-1.40625.03125-.46875 0-1.421875 0-1.84375-.03125v.34375h.390625c1.078125 0 1.078125.140625 1.078125.515625zm0 0"/></symbol><symbol id="D" overflow="visible"><path d="m3.609375 2.625c0-.046875 0-.0625-.1875-.25-1.359375-1.375-1.703125-3.4375-1.703125-5.09375 0-1.90625.40625-3.796875 1.75-5.171875.140625-.125.140625-.140625.140625-.1875 0-.0625-.046875-.09375-.109375-.09375-.109375 0-1.09375.734375-1.734375 2.125-.5625 1.1875-.6875 2.40625-.6875 3.328125 0 .84375.125 2.15625.71875 3.390625.65625 1.34375 1.59375 2.046875 1.703125 2.046875.0625 0 .109375-.03125.109375-.09375zm0 0"/></symbol><symbol id="E" overflow="visible"><path d="m3.15625-2.71875c0-.859375-.125-2.171875-.71875-3.40625-.65625-1.34375-1.59375-2.046875-1.703125-2.046875-.0625 0-.109375.03125-.109375.09375 0 .046875 0 .0625.203125.265625 1.0625 1.078125 1.6875 2.8125 1.6875 5.09375 0 1.859375-.40625 3.78125-1.75 5.15625-.140625.125-.140625.140625-.140625.1875 0 .0625.046875.09375.109375.09375.109375 0 1.09375-.734375 1.734375-2.125.546875-1.1875.6875-2.40625.6875-3.3125zm0 0"/></symbol><symbol id="F" overflow="visible"><path d="m3.15625-3.84375c.90625-.296875 1.53125-1.046875 1.53125-1.921875 0-.890625-.953125-1.5-2-1.5-1.109375 0-1.9375.65625-1.9375 1.484375 0 .359375.25.5625.5625.5625.328125 0 .546875-.234375.546875-.546875 0-.546875-.5-.546875-.671875-.546875.34375-.53125 1.0625-.671875 1.453125-.671875.453125 0 1.046875.234375 1.046875 1.21875 0 .125-.015625.765625-.3125 1.234375-.328125.53125-.6875.5625-.96875.578125-.078125 0-.34375.03125-.421875.03125-.09375 0-.15625.015625-.15625.125 0 .125.0625.125.25.125h.484375c.890625 0 1.296875.734375 1.296875 1.8125 0 1.484375-.75 1.796875-1.234375 1.796875-.46875 0-1.28125-.1875-1.671875-.828125.390625.046875.71875-.1875.71875-.609375 0-.390625-.28125-.609375-.609375-.609375-.25 0-.609375.15625-.609375.640625 0 .984375 1.015625 1.703125 2.203125 1.703125 1.328125 0 2.328125-.984375 2.328125-2.09375 0-.90625-.6875-1.75-1.828125-1.984375zm0 0"/></symbol><symbol id="G" overflow="visible"><path d="m.609375-3.734375c0 2.265625 1.765625 3.96875 3.796875 3.96875 1.78125 0 2.84375-1.515625 2.84375-2.78125 0-.109375 0-.171875-.140625-.171875-.125 0-.125.0625-.125.171875-.09375 1.546875-1.265625 2.453125-2.453125 2.453125-.65625 0-2.796875-.375-2.796875-3.625 0-3.265625 2.125-3.625 2.796875-3.625 1.1875 0 2.15625.984375 2.375 2.578125.015625.15625.015625.1875.171875.1875.171875 0 .171875-.03125.171875-.265625v-2.578125c0-.1875 0-.265625-.125-.265625-.03125 0-.078125 0-.171875.125l-.546875.8125c-.390625-.390625-.953125-.9375-2-.9375-2.046875 0-3.796875 1.734375-3.796875 3.953125zm0 0"/></symbol><symbol id="H" overflow="visible"><path d="m7.5-3.5625c.15625 0 .359375 0 .359375-.21875s-.203125-.21875-.359375-.21875h-6.53125c-.15625 0-.359375 0-.359375.21875s.203125.21875.375.21875zm0 2.109375c.15625 0 .359375 0 .359375-.21875s-.203125-.21875-.359375-.21875h-6.515625c-.171875 0-.375 0-.375.21875s.203125.21875.359375.21875zm0 0"/></symbol><symbol id="I" overflow="visible"><path d="m6.765625-6.375c.15625-.40625.453125-.71875 1.203125-.734375v-.34375c-.34375.03125-.78125.03125-1.0625.03125-.328125 0-.96875-.015625-1.25-.03125v.34375c.578125.015625.796875.296875.796875.546875 0 .078125-.03125.15625-.046875.21875l-2 5.25-2.078125-5.5c-.078125-.15625-.078125-.171875-.078125-.203125 0-.3125.625-.3125.90625-.3125v-.34375c-.390625.03125-1.15625.03125-1.5625.03125-.53125 0-1-.015625-1.390625-.03125v.34375c.71875 0 .921875 0 1.078125.40625l2.53125 6.703125c.0625.203125.125.234375.265625.234375.1875 0 .203125-.046875.265625-.203125zm0 0"/></symbol><symbol id="J" overflow="visible"><path d="m4.140625-.59375v.71875l1.609375-.125v-.34375c-.765625 0-.859375-.078125-.859375-.609375v-6.609375l-1.5625.109375v.34375c.765625 0 .84375.078125.84375.609375v2.359375c-.3125-.390625-.78125-.6875-1.375-.6875-1.28125 0-2.421875 1.078125-2.421875 2.484375 0 1.390625 1.0625 2.46875 2.3125 2.46875.6875 0 1.1875-.375 1.453125-.71875zm0-2.921875v2.234375c0 .1875 0 .21875-.109375.390625-.328125.53125-.828125.765625-1.296875.765625-.484375 0-.875-.28125-1.140625-.6875-.28125-.453125-.3125-1.078125-.3125-1.515625 0-.40625.015625-1.0625.328125-1.546875.234375-.34375.640625-.703125 1.234375-.703125.390625 0 .84375.15625 1.1875.65625.109375.1875.109375.203125.109375.40625zm0 0"/></symbol><symbol id="K" overflow="visible"><path d="m4.265625-.859375v.984375l1.5625-.125v-.34375c-.75 0-.84375-.078125-.84375-.609375v-3.875l-1.609375.125v.34375c.765625 0 .859375.078125.859375.609375v1.9375c0 .953125-.53125 1.6875-1.328125 1.6875-.90625 0-.953125-.5-.953125-1.078125v-3.625l-1.609375.125v.34375c.859375 0 .859375.03125.859375 1v1.640625c0 .84375 0 1.84375 1.65625 1.84375.609375 0 1.09375-.3125 1.40625-.984375zm0 0"/></symbol><symbol id="L" overflow="visible"><path d="m1.90625-4.703125v-1.265625c0-.953125.53125-1.484375 1-1.484375.03125 0 .203125 0 .359375.078125-.125.046875-.328125.1875-.328125.453125s.1875.46875.46875.46875c.328125 0 .484375-.203125.484375-.46875 0-.40625-.40625-.765625-.984375-.765625-.75 0-1.6875.578125-1.6875 1.734375v1.25h-.859375v.34375h.859375v3.53125c0 .484375-.125.484375-.84375.484375v.34375c.421875-.015625.9375-.03125 1.234375-.03125.4375 0 .953125 0 1.390625.03125v-.34375h-.234375c-.796875 0-.828125-.109375-.828125-.5v-3.515625h1.25v-.34375zm0 0"/></symbol><symbol id="M" overflow="visible"><path d="m1.875-4.09375v-.734375l-1.5625.125v.34375c.765625 0 .84375.0625.84375.546875v5.09375c0 .5-.125.5-.84375.5v.328125c.359375 0 .9375-.03125 1.21875-.03125.296875 0 .84375.03125 1.234375.03125v-.328125c-.734375 0-.859375 0-.859375-.5v-1.921875c.0625.171875.515625.765625 1.34375.765625 1.296875 0 2.4375-1.078125 2.4375-2.484375 0-1.375-1.0625-2.46875-2.28125-2.46875-.859375 0-1.3125.484375-1.53125.734375zm.03125 2.84375v-2.421875c.3125-.5625.859375-.875 1.40625-.875.796875 0 1.46875.953125 1.46875 2.1875 0 1.328125-.765625 2.234375-1.578125 2.234375-.4375 0-.84375-.21875-1.140625-.65625-.15625-.234375-.15625-.25-.15625-.46875zm0 0"/></symbol><symbol id="N" overflow="visible"><path d="m4.359375-4.5625 1.96875-1.890625c.078125-.09375.65625-.640625 1.546875-.65625v-.34375c-.28125.03125-.640625.03125-.921875.03125-.40625 0-1.015625 0-1.390625-.03125v.34375c.4375.015625.5.265625.5.359375 0 .171875-.109375.28125-.1875.359375l-3.421875 3.265625v-3.46875c0-.390625.015625-.515625.859375-.515625h.265625v-.34375c-.375.03125-1.1875.03125-1.609375.03125-.40625 0-1.234375 0-1.609375-.03125v.34375h.265625c.84375 0 .859375.125.859375.515625v5.75c0 .390625-.015625.5-.859375.5h-.265625v.34375c.375-.03125 1.1875-.03125 1.609375-.03125.40625 0 1.234375 0 1.609375.03125v-.34375h-.265625c-.84375 0-.859375-.109375-.859375-.5v-1.921875l1.265625-1.1875 1.96875 2.921875c.078125.09375.171875.234375.171875.359375 0 .328125-.421875.328125-.640625.328125v.34375c.375-.03125 1.140625-.03125 1.546875-.03125.390625 0 .796875.015625 1.265625.03125v-.34375c-.59375 0-.828125-.03125-1.15625-.515625zm0 0"/></symbol><symbol id="O" overflow="visible"><path d="m3.234375-2.984375c.296875.0625 1.203125.28125 1.203125 1.234375 0 .5625-.46875 1.203125-1.328125 1.203125-.3125 0-.84375-.046875-1.28125-.34375-.453125-.28125-.5-.75-.515625-.9375 0-.1875-.015625-.390625-.359375-.390625-.390625 0-.390625.234375-.390625.453125v1.4375c0 .171875 0 .453125.328125.453125.25 0 .3125-.15625.40625-.5.4375.328125 1.109375.5 1.796875.5 1.265625 0 2.046875-.96875 2.046875-1.9375 0-.703125-.390625-1.15625-.515625-1.296875-.453125-.4375-.75-.515625-1.59375-.703125l-.875-.203125c-.46875-.125-.875-.515625-.875-1.015625 0-.5625.53125-1.09375 1.296875-1.09375 1.296875 0 1.453125 1.03125 1.515625 1.375.046875.234375.15625.296875.375.296875.390625 0 .390625-.21875.390625-.4375v-1.453125c0-.171875 0-.4375-.328125-.4375-.265625 0-.328125.1875-.40625.515625-.453125-.390625-1.03125-.515625-1.53125-.515625-1.203125 0-2.03125.859375-2.03125 1.78125 0 .734375.5 1.453125 1.40625 1.71875.046875.015625 1.109375.265625 1.265625.296875zm0 0"/></symbol><symbol id="P" overflow="visible"><path d="m1.8125-2.875c0-.640625.625-1.21875 1.3125-1.21875.8125 0 1.4375.796875 1.4375 1.734375 0 1.046875-.75 1.765625-1.515625 1.765625-.859375 0-1.234375-.96875-1.234375-1.484375zm0 2.390625c.4375.453125.90625.546875 1.265625.546875 1.1875 0 2.25-1.03125 2.25-2.421875 0-1.34375-.96875-2.40625-2.125-2.40625-.53125 0-1.015625.203125-1.390625.53125 0-.3125-.03125-.46875-.4375-.46875h-.796875c-.171875 0-.453125 0-.453125.34375 0 .328125.296875.328125.4375.328125h.5v5.78125h-.484375c-.171875 0-.453125 0-.453125.34375 0 .328125.296875.328125.4375.328125h1.734375c.15625 0 .4375 0 .4375-.328125 0-.34375-.265625-.34375-.4375-.34375h-.484375zm0 0"/></symbol><symbol id="Q" overflow="visible"><path d="m4.625-2.078125c.234375 0 .4375 0 .4375-.40625 0-1.25-.703125-2.3125-2.125-2.3125-1.296875 0-2.34375 1.09375-2.34375 2.4375 0 1.328125 1.109375 2.421875 2.515625 2.421875 1.4375 0 1.953125-.984375 1.953125-1.25 0-.3125-.3125-.3125-.390625-.3125-.1875 0-.28125.03125-.359375.25-.234375.546875-.828125.65625-1.125.65625-.828125 0-1.640625-.546875-1.8125-1.484375zm-3.234375-.65625c.140625-.796875.796875-1.40625 1.546875-1.40625.578125 0 1.25.28125 1.34375 1.40625zm0 0"/></symbol><symbol id="R" overflow="visible"><path d="m3.90625-.546875c0 .390625 0 .546875.4375.546875h.796875c.171875 0 .4375 0 .4375-.34375 0-.328125-.28125-.328125-.4375-.328125h-.484375v-5.546875c0-.328125-.0625-.4375-.4375-.4375h-.796875c-.171875 0-.4375 0-.4375.328125s.28125.328125.421875.328125h.5v1.71875c-.359375-.3125-.8125-.484375-1.28125-.484375-1.1875 0-2.234375 1.03125-2.234375 2.421875 0 1.34375.984375 2.40625 2.140625 2.40625.609375 0 1.0625-.296875 1.375-.609375zm0-2.34375v.78125c0 .609375-.5 1.515625-1.328125 1.515625-.78125 0-1.4375-.78125-1.4375-1.75 0-1.046875.765625-1.75 1.53125-1.75.703125 0 1.234375.609375 1.234375 1.203125zm0 0"/></symbol><symbol id="S" overflow="visible"><path d="m5.109375-3.328125c0-3.15625-.234375-3.453125-2.25-3.453125s-2.25.296875-2.25 3.453125.234375 3.453125 2.25 3.453125c2 0 2.25-.296875 2.25-3.453125zm-2.25 2.78125c-.96875 0-1.234375-.234375-1.359375-.765625-.140625-.5625-.140625-1.515625-.140625-2.109375 0-.671875 0-1.421875.125-1.921875.140625-.640625.484375-.78125 1.375-.78125.8125 0 1.203125.109375 1.359375.703125.140625.515625.140625 1.328125.140625 2s0 1.453125-.125 2.03125c-.125.609375-.40625.84375-1.375.84375zm0 0"/></symbol><symbol id="T" overflow="visible"><path d="m2.765625-4.03125h1.328125c.15625 0 .4375 0 .4375-.328125 0-.34375-.265625-.34375-.4375-.34375h-1.328125v-.515625c0-.84375.71875-.84375 1.046875-.84375 0 .046875.109375.46875.484375.46875.21875 0 .46875-.171875.46875-.484375 0-.65625-.875-.65625-1.046875-.65625-.875 0-1.71875.5-1.71875 1.453125v.578125h-1.078125c-.1875 0-.453125 0-.453125.34375 0 .328125.265625.328125.4375.328125h1.09375v3.359375h-1.09375c-.171875 0-.453125 0-.453125.328125 0 .34375.28125.34375.453125.34375h2.953125c.171875 0 .453125 0 .453125-.328125 0-.34375-.28125-.34375-.453125-.34375h-1.09375zm0 0"/></symbol><symbol id="U" overflow="visible"><path d="m1.9375-6h.609375c.15625 0 .453125 0 .453125-.328125s-.28125-.328125-.453125-.328125h-1.765625c-.171875 0-.4375 0-.4375.328125s.28125.328125.4375.328125h.40625v5.328125h-.40625c-.171875 0-.4375 0-.4375.34375 0 .328125.28125.328125.4375.328125h4.109375c.359375 0 .4375-.09375.4375-.453125v-.96875c0-.21875 0-.4375-.375-.4375-.390625 0-.390625.21875-.390625.4375v.75h-2.625zm0 0"/></symbol><symbol id="V" overflow="visible"><path d="m3.375-4.25c0-.34375-.078125-.453125-.4375-.453125h-1.546875c-.171875 0-.453125 0-.453125.328125 0 .34375.28125.34375.453125.34375h1.234375v3.359375h-1.328125c-.171875 0-.453125 0-.453125.34375 0 .328125.296875.328125.453125.328125h3.21875c.15625 0 .453125 0 .453125-.328125 0-.34375-.296875-.34375-.453125-.34375h-1.140625zm0-1.875c0-.3125-.25-.546875-.546875-.546875-.3125 0-.546875.234375-.546875.546875 0 .296875.234375.546875.546875.546875.296875 0 .546875-.25.546875-.546875zm0 0"/></symbol><symbol id="W" overflow="visible"><path d="m2.546875-1.921875c-.59375 0-1.046875-.515625-1.046875-1.09375 0-.609375.46875-1.09375 1.046875-1.09375s1.046875.515625 1.046875 1.09375c0 .609375-.484375 1.09375-1.046875 1.09375zm-.984375.390625c.03125.015625.4375.265625.984375.265625 1 0 1.796875-.78125 1.796875-1.75 0-.328125-.09375-.65625-.28125-.953125.21875-.125.484375-.171875.625-.1875.0625.296875.3125.375.421875.375.1875 0 .4375-.140625.4375-.453125 0-.25-.203125-.59375-.796875-.59375-.109375 0-.65625.015625-1.15625.390625-.171875-.125-.546875-.328125-1.046875-.328125-1.03125 0-1.8125.8125-1.8125 1.75 0 .46875.1875.828125.359375 1.03125-.125.171875-.21875.40625-.21875.734375 0 .390625.15625.65625.25.796875-.8125.484375-.8125 1.234375-.8125 1.34375 0 .9375 1.15625 1.609375 2.546875 1.609375s2.546875-.671875 2.546875-1.609375c0-.40625-.203125-.9375-.765625-1.234375-.140625-.078125-.59375-.328125-1.578125-.328125h-.765625c-.078125 0-.21875 0-.3125-.015625-.15625 0-.234375 0-.359375-.15625s-.125-.359375-.125-.390625c0-.046875.015625-.1875.0625-.296875zm1.296875 3.375c-1.09375 0-1.90625-.46875-1.90625-.953125 0-.1875.09375-.546875.4375-.765625.28125-.171875.375-.171875 1.171875-.171875.96875 0 2.203125 0 2.203125.9375 0 .484375-.8125.953125-1.90625.953125zm0 0"/></symbol><symbol id="X" overflow="visible"><path d="m4.65625-3.203125c0-1.09375-.5625-1.5625-1.421875-1.5625-.71875 0-1.21875.375-1.421875.578125v-2.03125c0-.328125-.0625-.4375-.4375-.4375h-.796875c-.171875 0-.453125 0-.453125.328125s.296875.328125.4375.328125h.5v5.328125h-.484375c-.171875 0-.453125 0-.453125.34375 0 .328125.296875.328125.4375.328125h1.734375c.15625 0 .4375 0 .4375-.328125 0-.34375-.265625-.34375-.4375-.34375h-.484375v-1.921875c0-1.09375.8125-1.5 1.359375-1.5.578125 0 .734375.296875.734375.953125v2.46875h-.421875c-.1875 0-.453125 0-.453125.34375 0 .328125.296875.328125.453125.328125h1.65625c.15625 0 .4375 0 .4375-.328125 0-.34375-.265625-.34375-.4375-.34375h-.484375zm0 0"/></symbol><symbol id="Y" overflow="visible"><path d="m2.421875-4.03125h1.78125c.171875 0 .4375 0 .4375-.328125 0-.34375-.25-.34375-.4375-.34375h-1.78125v-.890625c0-.203125 0-.453125-.375-.453125s-.375.234375-.375.453125v.890625h-.953125c-.171875 0-.453125 0-.453125.34375 0 .328125.28125.328125.4375.328125h.96875v2.65625c0 1.046875.734375 1.4375 1.53125 1.4375.8125 0 1.6875-.46875 1.6875-1.4375 0-.203125 0-.421875-.375-.421875-.359375 0-.375.21875-.375.40625 0 .6875-.625.796875-.875.796875-.84375 0-.84375-.578125-.84375-.84375zm0 0"/></symbol><symbol id="Z" overflow="visible"><path d="m1.8125-2.671875h1.359375c1.265625 0 2.0625-.984375 2.0625-2s-.8125-1.984375-2.0625-1.984375h-2.4375c-.171875 0-.453125 0-.453125.3125 0 .34375.28125.34375.453125.34375h.328125v5.328125h-.328125c-.171875 0-.453125 0-.453125.34375 0 .328125.28125.328125.453125.328125h1.40625c.15625 0 .4375 0 .4375-.328125 0-.34375-.28125-.34375-.4375-.34375h-.328125zm0-3.328125h1.15625c1.046875 0 1.515625.75 1.515625 1.328125s-.46875 1.328125-1.515625 1.328125h-1.15625zm0 0"/></symbol><symbol id="aa" overflow="visible"><path d="m3.234375-6.21875c0-.328125-.0625-.4375-.4375-.4375h-1.71875c-.171875 0-.453125 0-.453125.328125s.296875.328125.4375.328125h1.421875v5.328125h-1.40625c-.171875 0-.453125 0-.453125.34375 0 .328125.296875.328125.4375.328125h3.59375c.171875 0 .4375 0 .4375-.328125 0-.34375-.265625-.34375-.4375-.34375h-1.421875zm0 0"/></symbol><symbol id="ab" overflow="visible"><path d="m3.984375-.34375c.25.328125.765625.34375 1.1875.34375.296875 0 .546875 0 .546875-.34375 0-.328125-.28125-.328125-.4375-.328125-.453125 0-.5625-.046875-.65625-.078125v-2.359375c0-.765625-.59375-1.6875-2.15625-1.6875-.46875 0-1.578125 0-1.578125.796875 0 .328125.21875.5.484375.5.15625 0 .46875-.09375.484375-.5 0-.09375 0-.09375.21875-.125.15625-.015625.296875-.015625.390625-.015625.828125 0 1.40625.34375 1.40625 1.125-1.9375.03125-3.28125.578125-3.28125 1.625 0 .75.6875 1.453125 1.8125 1.453125.390625 0 1.078125-.078125 1.578125-.40625zm-.109375-2.03125v.90625c0 .265625 0 .484375-.421875.6875-.40625.1875-.890625.1875-.984375.1875-.671875 0-1.109375-.375-1.109375-.796875 0-.546875.9375-.9375 2.515625-.984375zm0 0"/></symbol><symbol id="ac" overflow="visible"><path d="m1.8125-4.1875c0-.34375 0-.515625-.4375-.515625h-.796875c-.171875 0-.453125 0-.453125.34375 0 .328125.296875.328125.4375.328125h.5v3.359375h-.484375c-.171875 0-.453125 0-.453125.34375 0 .328125.296875.328125.4375.328125h1.734375c.15625 0 .4375 0 .4375-.328125 0-.34375-.265625-.34375-.4375-.34375h-.484375v-1.921875c0-1.09375.8125-1.5 1.359375-1.5.578125 0 .734375.296875.734375.953125v2.46875h-.421875c-.1875 0-.453125 0-.453125.34375 0 .328125.296875.328125.453125.328125h1.65625c.15625 0 .4375 0 .4375-.328125 0-.34375-.265625-.34375-.4375-.34375h-.484375v-2.53125c0-1.09375-.5625-1.5625-1.421875-1.5625-.71875 0-1.21875.375-1.421875.578125zm0 0"/></symbol><symbol id="ad" overflow="visible"><path d="m5.078125-1.1875c0-.3125-.3125-.3125-.375-.3125-.171875 0-.28125.03125-.359375.25-.0625.140625-.28125.65625-1.078125.65625-.9375 0-1.71875-.765625-1.71875-1.765625 0-.515625.3125-1.78125 1.78125-1.78125.234375 0 .65625 0 .65625.109375 0 .375.21875.53125.46875.53125.265625 0 .5-.1875.5-.5 0-.796875-1.140625-.796875-1.625-.796875-1.875 0-2.53125 1.484375-2.53125 2.4375 0 1.3125 1.03125 2.421875 2.40625 2.421875 1.515625 0 1.875-1.0625 1.875-1.25zm0 0"/></symbol><symbol id="ae" overflow="visible"><path d="m3.125-2.78125 1.34375-1.25h.390625c.15625 0 .4375 0 .4375-.328125 0-.34375-.28125-.34375-.4375-.34375h-1.6875c-.171875 0-.4375 0-.4375.34375 0 .328125.28125.328125.4375.328125h.40625l-1.765625 1.65625v-3.84375c0-.328125-.0625-.4375-.4375-.4375h-.703125c-.171875 0-.4375 0-.4375.3125 0 .34375.25.34375.4375.34375h.53125v5.328125h-.53125c-.171875 0-.4375 0-.4375.328125 0 .34375.25.34375.4375.34375h1.671875c.171875 0 .4375 0 .4375-.328125 0-.34375-.265625-.34375-.4375-.34375h-.53125v-.875l.875-.8125 1.296875 1.6875c-.390625 0-.609375 0-.609375.34375 0 .328125.265625.328125.4375.328125h1.28125c.15625 0 .453125 0 .453125-.328125 0-.34375-.296875-.34375-.453125-.34375h-.34375zm0 0"/></symbol><symbol id="af" overflow="visible"><path d="m5.28125-6.34375c0-.171875 0-.4375-.328125-.4375-.203125 0-.25.109375-.3125.1875-.015625.046875-.015625.0625-.15625.328125-.359375-.296875-.859375-.515625-1.421875-.515625-1.40625 0-2.625 1.453125-2.625 3.4375 0 2 1.21875 3.46875 2.640625 3.46875 1.265625 0 2.203125-.96875 2.203125-1.953125 0-.359375-.265625-.359375-.390625-.359375-.09375 0-.34375 0-.359375.3125-.078125 1.0625-.96875 1.328125-1.40625 1.328125-1 0-1.9375-1.15625-1.9375-2.796875 0-1.625.953125-2.78125 1.921875-2.78125.65625 0 1.25.515625 1.40625 1.390625.03125.1875.046875.359375.375.359375.390625 0 .390625-.234375.390625-.453125zm0 0"/></symbol><symbol id="ag" overflow="visible"><path d="m5.09375-2.359375c0-1.359375-1.015625-2.4375-2.234375-2.4375s-2.234375 1.078125-2.234375 2.4375c0 1.390625 1.03125 2.421875 2.234375 2.421875s2.234375-1.046875 2.234375-2.421875zm-2.234375 1.765625c-.8125 0-1.484375-.828125-1.484375-1.84375 0-.984375.703125-1.703125 1.484375-1.703125s1.484375.71875 1.484375 1.703125c0 1.015625-.671875 1.84375-1.484375 1.84375zm0 0"/></symbol><symbol id="ah" overflow="visible"><path d="m3.25-2.78125c-.25-.046875-.46875-.078125-.734375-.125-.328125-.046875-1.0625-.1875-1.0625-.609375 0-.28125.34375-.625 1.375-.625.90625 0 1.0625.328125 1.09375.625.015625.171875.03125.359375.375.359375.375 0 .375-.21875.375-.4375v-.765625c0-.171875 0-.4375-.3125-.4375-.265625 0-.3125.15625-.328125.234375-.484375-.234375-.96875-.234375-1.171875-.234375-1.828125 0-2.078125.890625-2.078125 1.28125 0 1 1.15625 1.1875 2.15625 1.34375.53125.09375 1.40625.234375 1.40625.8125 0 .40625-.40625.765625-1.40625.765625-.5 0-1.109375-.125-1.390625-.984375-.046875-.1875-.09375-.3125-.375-.3125-.390625 0-.390625.234375-.390625.453125v1.0625c0 .171875 0 .4375.328125.4375.09375 0 .28125-.015625.40625-.40625.53125.390625 1.109375.40625 1.421875.40625 1.71875 0 2.0625-.90625 2.0625-1.421875 0-1.140625-1.40625-1.359375-1.75-1.421875zm0 0"/></symbol><symbol id="ai" overflow="visible"><path d="m4.765625-6h.265625c.171875 0 .4375 0 .4375-.328125s-.25-.328125-.4375-.328125h-1.296875c-.15625 0-.4375 0-.4375.3125 0 .34375.265625.34375.4375.34375h.28125v2.203125h-2.3125v-2.203125h.265625c.171875 0 .4375 0 .4375-.328125s-.25-.328125-.4375-.328125h-1.296875c-.171875 0-.4375 0-.4375.328125s.28125.328125.4375.328125h.28125v5.328125h-.28125c-.171875 0-.4375 0-.4375.34375 0 .328125.28125.328125.4375.328125h1.296875c.171875 0 .4375 0 .4375-.328125 0-.34375-.25-.34375-.4375-.34375h-.265625v-2.453125h2.3125v2.453125h-.28125c-.15625 0-.4375 0-.4375.328125 0 .34375.265625.34375.4375.34375h1.296875c.171875 0 .4375 0 .4375-.328125 0-.34375-.25-.34375-.4375-.34375h-.265625zm0 0"/></symbol><symbol id="aj" overflow="visible"><path d="m1.8125-4.234375v-1.984375c0-.328125-.0625-.4375-.4375-.4375h-.796875c-.171875 0-.453125 0-.453125.328125s.296875.328125.4375.328125h.5v5.546875c0 .21875 0 .453125.375.453125s.375-.21875.375-.484375c.4375.453125.90625.546875 1.265625.546875 1.1875 0 2.25-1.03125 2.25-2.421875 0-1.34375-.96875-2.40625-2.125-2.40625-.53125 0-1.015625.203125-1.390625.53125zm0 2.15625v-.796875c0-.640625.625-1.21875 1.3125-1.21875.8125 0 1.4375.796875 1.4375 1.734375 0 1.046875-.75 1.765625-1.515625 1.765625-.859375 0-1.234375-.96875-1.234375-1.484375zm0 0"/></symbol><symbol id="ak" overflow="visible"><path d="m2.421875-2.03125c0-1.015625.640625-2.0625 1.96875-2.0625 0 .25.1875.46875.46875.46875.234375 0 .453125-.171875.453125-.46875 0-.21875-.125-.671875-1.03125-.671875-.5625 0-1.265625.203125-1.859375.890625v-.375c0-.34375-.0625-.453125-.4375-.453125h-1.203125c-.15625 0-.4375 0-.4375.328125 0 .34375.265625.34375.4375.34375h.890625v3.359375h-.890625c-.15625 0-.4375 0-.4375.328125 0 .34375.265625.34375.4375.34375h2.84375c.171875 0 .453125 0 .453125-.328125 0-.34375-.28125-.34375-.453125-.34375h-1.203125zm0 0"/></symbol><symbol id="al" overflow="visible"><path d="m1.0625-.671875h-.328125c-.171875 0-.453125 0-.453125.34375 0 .328125.28125.328125.453125.328125h4.296875c.375 0 .4375-.09375.4375-.453125v-.96875c0-.203125 0-.4375-.359375-.4375-.390625 0-.390625.21875-.390625.4375v.75h-2.90625v-2.453125h1.421875c0 .453125 0 .625.390625.625.359375 0 .359375-.234375.359375-.4375v-1.015625c0-.21875 0-.453125-.359375-.453125-.390625 0-.390625.171875-.390625.625h-1.421875v-2.21875h2.671875v.578125c0 .203125 0 .453125.375.453125s.375-.234375.375-.453125v-.796875c0-.328125-.0625-.4375-.4375-.4375h-4.0625c-.171875 0-.453125 0-.453125.3125 0 .34375.28125.34375.453125.34375h.328125zm0 0"/></symbol><symbol id="am" overflow="visible"><path d="m1.859375-3h1.484375c0 .453125 0 .625.390625.625.359375 0 .359375-.25.359375-.453125v-1.015625c0-.203125 0-.4375-.359375-.4375-.390625 0-.390625.171875-.390625.609375h-1.484375v-2.328125h2.734375v.578125c0 .203125 0 .453125.375.453125s.375-.234375.375-.453125v-.796875c0-.328125-.0625-.4375-.4375-.4375h-4.15625c-.171875 0-.4375 0-.4375.328125s.28125.328125.4375.328125h.359375v5.328125h-.359375c-.171875 0-.4375 0-.4375.34375 0 .328125.28125.328125.4375.328125h1.6875c.15625 0 .4375 0 .4375-.328125 0-.34375-.265625-.34375-.4375-.34375h-.578125zm0 0"/></symbol><symbol id="an" overflow="visible"><path d="m3.90625-.34375c.015625.34375.234375.34375.4375.34375h.796875c.171875 0 .4375 0 .4375-.34375 0-.328125-.28125-.328125-.4375-.328125h-.484375v-3.578125c0-.34375-.0625-.453125-.4375-.453125h-.796875c-.171875 0-.4375 0-.4375.34375 0 .328125.28125.328125.421875.328125h.5v2.3125c0 .984375-.890625 1.125-1.234375 1.125-.859375 0-.859375-.359375-.859375-.71875v-2.9375c0-.34375-.0625-.453125-.4375-.453125h-.796875c-.171875 0-.453125 0-.453125.34375 0 .328125.296875.328125.4375.328125h.5v2.78125c0 1.046875.75 1.3125 1.546875 1.3125.4375 0 .890625-.109375 1.296875-.40625zm0 0"/></symbol><symbol id="ao" overflow="visible"><path d="m3.15625-4.03125c-.125.40625-.21875.71875-.28125 1.03125h-.015625c-.109375-.515625-1.078125-3.34375-1.09375-3.40625-.109375-.25-.375-.25-.53125-.25h-.609375c-.171875 0-.4375 0-.4375.3125 0 .34375.234375.34375.578125.34375v5.328125c-.34375 0-.578125 0-.578125.34375 0 .328125.265625.328125.4375.328125h.890625c.15625 0 .4375 0 .4375-.328125 0-.34375-.234375-.34375-.578125-.34375v-5.203125h.015625c.109375.515625.8125 2.609375.859375 2.75.078125.25.21875.65625.28125.734375.0625.09375.1875.171875.328125.171875s.296875-.09375.375-.25c.03125-.0625.96875-2.828125 1.09375-3.40625h.015625v5.203125c-.359375 0-.578125 0-.578125.34375 0 .328125.265625.328125.4375.328125h.890625c.15625 0 .4375 0 .4375-.328125 0-.34375-.234375-.34375-.578125-.34375v-5.328125c.34375 0 .578125 0 .578125-.34375 0-.3125-.28125-.3125-.4375-.3125h-.609375c-.453125 0-.5.140625-.59375.421875zm0 0"/></symbol><symbol id="ap" overflow="visible"><path d="m1.703125-6h.78125c1 0 1.484375.640625 1.484375 1.171875s-.484375 1.15625-1.484375 1.15625h-.78125zm2.09375 2.6875c.71875-.40625.921875-1.078125.921875-1.515625 0-.9375-.828125-1.828125-2.109375-1.828125h-1.9375c-.171875 0-.4375 0-.4375.328125s.28125.328125.4375.328125h.28125v5.328125h-.28125c-.171875 0-.4375 0-.4375.34375 0 .328125.28125.328125.4375.328125h1.296875c.171875 0 .4375 0 .4375-.328125 0-.34375-.25-.34375-.4375-.34375h-.265625v-2.328125h.84375c.21875 0 .546875 0 .890625.3125.234375.21875.234375.46875.234375.921875 0 .703125 0 1.03125.203125 1.390625.1875.328125.5.5.875.5.6875 0 .9375-.71875.9375-1.140625 0-.34375-.25-.34375-.375-.34375-.109375 0-.359375 0-.375.328125 0 .078125-.015625.484375-.203125.484375-.3125 0-.3125-.5-.3125-1.078125 0-.6875 0-.78125-.09375-1.03125-.125-.3125-.375-.546875-.53125-.65625zm0 0"/></symbol><symbol id="aq" overflow="visible"><path d="m3.234375-6h1.1875c.15625 0 .4375 0 .4375-.328125s-.28125-.328125-.4375-.328125h-3.109375c-.171875 0-.453125 0-.453125.3125 0 .34375.28125.34375.453125.34375h1.171875v5.328125h-1.171875c-.171875 0-.453125 0-.453125.328125 0 .34375.28125.34375.453125.34375h3.109375c.15625 0 .4375 0 .4375-.328125 0-.34375-.28125-.34375-.4375-.34375h-1.1875zm0 0"/></symbol><symbol id="ar" overflow="visible"><path d="m5.171875-3.328125c0-2.03125-1.109375-3.453125-2.3125-3.453125-1.21875 0-2.3125 1.453125-2.3125 3.4375 0 2.03125 1.109375 3.46875 2.3125 3.46875 1.21875 0 2.3125-1.46875 2.3125-3.453125zm-2.3125 2.78125c-.859375 0-1.5625-1.28125-1.5625-2.90625 0-1.578125.75-2.671875 1.5625-2.671875.796875 0 1.5625 1.078125 1.5625 2.671875 0 1.625-.71875 2.90625-1.5625 2.90625zm0 0"/></symbol><symbol id="as" overflow="visible"><path d="m4.890625-2.28125c.265625 0 .515625 0 .515625-.34375 0-.3125-.28125-.3125-.4375-.3125h-1.296875c-.171875 0-.4375 0-.4375.3125 0 .34375.25.34375.4375.34375h.453125c-.140625 1.21875-.671875 1.734375-1.25 1.734375-.875 0-1.703125-1.171875-1.703125-2.78125 0-1.671875.875-2.796875 1.71875-2.796875.375 0 1.0625.25 1.25 1.4375.03125.1875.09375.3125.375.3125.375 0 .375-.234375.375-.453125v-1.515625c0-.171875 0-.4375-.328125-.4375-.21875 0-.28125.125-.4375.484375-.390625-.328125-.828125-.484375-1.28125-.484375-1.3125 0-2.421875 1.46875-2.421875 3.4375 0 2.015625 1.125 3.46875 2.421875 3.46875.625 0 1.078125-.328125 1.296875-.578125 0 .234375 0 .453125.390625.453125.359375 0 .359375-.234375.359375-.453125zm0 0"/></symbol><symbol id="at" overflow="visible"><path d="m1.1875-4.375c-.015625-.328125-.234375-.328125-.4375-.328125h-.34375c-.171875 0-.453125 0-.453125.328125 0 .34375.234375.34375.625.34375v3.359375c-.390625 0-.625 0-.625.34375 0 .328125.296875.328125.453125.328125h.953125c.171875 0 .453125 0 .453125-.328125 0-.34375-.234375-.34375-.625-.34375v-1.953125c0-.96875.453125-1.46875.890625-1.46875.25 0 .40625.171875.40625.890625v2.53125c-.203125 0-.484375 0-.484375.34375 0 .328125.296875.328125.453125.328125h.8125c.171875 0 .453125 0 .453125-.328125 0-.34375-.234375-.34375-.625-.34375v-1.953125c0-.96875.453125-1.46875.890625-1.46875.265625 0 .40625.171875.40625.890625v2.53125c-.203125 0-.46875 0-.46875.34375 0 .328125.28125.328125.4375.328125h.828125c.15625 0 .4375 0 .4375-.328125 0-.34375-.21875-.34375-.625-.34375v-2.625c0-.21875 0-1.46875-.96875-1.46875-.328125 0-.765625.140625-1.078125.5625-.15625-.359375-.46875-.5625-.828125-.5625-.34375 0-.671875.15625-.9375.390625zm0 0"/></symbol><symbol id="au" overflow="visible"><path d="m.734375-.625c-.109375.078125-.171875.140625-.171875.28125 0 .34375.28125.34375.453125.34375h3.703125c.359375 0 .421875-.09375.421875-.453125v-.28125c0-.203125 0-.4375-.359375-.4375-.390625 0-.390625.203125-.390625.5h-2.59375c.640625-.546875 1.6875-1.375 2.15625-1.796875.6875-.625 1.1875-1.3125 1.1875-2.1875 0-1.3125-1.09375-2.125-2.421875-2.125-1.296875 0-2.15625.890625-2.15625 1.8125 0 .40625.3125.53125.5.53125.21875 0 .46875-.1875.46875-.484375 0-.140625-.046875-.28125-.140625-.359375.15625-.5.671875-.84375 1.265625-.84375.90625 0 1.734375.515625 1.734375 1.46875 0 .765625-.53125 1.390625-1.25 2zm0 0"/></symbol><symbol id="av" overflow="visible"><path d="m4.6875-4.03125h.328125c.171875 0 .4375 0 .4375-.328125 0-.34375-.265625-.34375-.4375-.34375h-1.28125c-.15625 0-.4375 0-.4375.328125 0 .34375.265625.34375.4375.34375h.3125l-1.1875 3.5-1.1875-3.5h.296875c.171875 0 .4375 0 .4375-.328125 0-.34375-.25-.34375-.4375-.34375h-1.265625c-.171875 0-.4375 0-.4375.34375 0 .328125.265625.328125.4375.328125h.328125l1.25 3.703125c.125.375.34375.375.578125.375.203125 0 .453125 0 .578125-.359375zm0 0"/></symbol><symbol id="aw" overflow="visible"><path d="m1.75-6h1.359375c.921875 0 1.171875.671875 1.171875 1.03125 0 .453125-.359375 1.171875-1.40625 1.171875h-1.125zm2.09375 2.515625c.703125-.25 1.1875-.8125 1.1875-1.484375 0-.796875-.671875-1.6875-1.875-1.6875h-2.46875c-.15625 0-.4375 0-.4375.3125 0 .34375.28125.34375.453125.34375h.296875v5.328125h-.296875c-.171875 0-.453125 0-.453125.34375 0 .328125.28125.328125.4375.328125h2.6875c1.234375 0 1.875-.96875 1.875-1.828125 0-.75-.515625-1.453125-1.40625-1.65625zm-.71875 2.8125h-1.375v-2.453125h1.5c.921875 0 1.25.796875 1.25 1.28125 0 .53125-.421875 1.171875-1.375 1.171875zm0 0"/></symbol><symbol id="ax" overflow="visible"><path d="m4.890625-3.890625c.234375-.21875.25-.25.25-.4375 0-.375-.25-.375-.453125-.375h-3.703125c-.359375 0-.453125.09375-.453125.453125v.5c0 .203125 0 .453125.375.453125s.375-.234375.375-.453125v-.28125h2.71875l-3.40625 3.21875c-.21875.21875-.234375.25-.234375.4375 0 .375.234375.375.453125.375h4.125c.25-.0625.25-.28125.25-.453125v-.625c0-.203125 0-.453125-.375-.453125-.390625 0-.390625.234375-.390625.453125v.40625h-2.921875zm0 0"/></symbol><symbol id="ay" overflow="visible"><path d="m4.3125-4.140625c-.171875 0-.328125 0-.46875.15625-.171875.15625-.203125.34375-.203125.421875 0 .265625.203125.375.40625.375.3125 0 .609375-.265625.609375-.6875 0-.546875-.515625-.953125-1.28125-.953125-1.484375 0-2.921875 1.5625-2.921875 3.109375 0 .984375.625 1.84375 1.765625 1.84375 1.5625 0 2.46875-1.15625 2.46875-1.296875 0-.0625-.0625-.140625-.125-.140625s-.078125.03125-.140625.109375c-.859375 1.078125-2.0625 1.078125-2.1875 1.078125-.6875 0-.984375-.53125-.984375-1.1875 0-.4375.21875-1.5.59375-2.171875.34375-.625.9375-1.09375 1.53125-1.09375.375 0 .796875.140625.9375.4375zm0 0"/></symbol><symbol id="az" overflow="visible"><path d="m4.78125-7.765625c.0625-.140625.0625-.1875.0625-.203125 0-.109375-.09375-.203125-.21875-.203125-.078125 0-.15625.03125-.1875.09375l-3.78125 10.390625c-.0625.140625-.0625.1875-.0625.203125 0 .109375.109375.203125.21875.203125.140625 0 .1875-.0625.25-.25zm0 0"/></symbol><symbol id="aA" overflow="visible"><path d="m3.125-7.453125s0-.109375-.140625-.109375c-.25 0-1.046875.078125-1.328125.109375-.078125 0-.203125.015625-.203125.21875 0 .125.09375.125.265625.125.515625 0 .53125.078125.53125.1875l-.03125.21875-1.578125 6.28125c-.046875.15625-.046875.171875-.046875.234375 0 .25.21875.3125.328125.3125.171875 0 .34375-.140625.390625-.28125l.21875-.84375.234375-.96875c.0625-.25.125-.484375.1875-.734375.015625-.0625.109375-.421875.125-.5.03125-.09375.359375-.703125.734375-1 .234375-.171875.578125-.375 1.046875-.375s.59375.375.59375.765625c0 .578125-.421875 1.765625-.671875 2.4375-.09375.25-.15625.375-.15625.59375 0 .515625.390625.90625.90625.90625 1.015625 0 1.421875-1.59375 1.421875-1.6875 0-.109375-.09375-.109375-.125-.109375-.109375 0-.109375.03125-.171875.203125-.15625.578125-.515625 1.34375-1.109375 1.34375-.1875 0-.265625-.109375-.265625-.359375 0-.265625.109375-.53125.203125-.765625.171875-.46875.65625-1.765625.65625-2.40625 0-.703125-.421875-1.171875-1.25-1.171875-.6875 0-1.203125.34375-1.609375.84375zm0 0"/></symbol><symbol id="aB" overflow="visible"><path d="m2.09375-.578125c0-.3125-.265625-.578125-.578125-.578125s-.578125.265625-.578125.578125.265625.578125.578125.578125.578125-.265625.578125-.578125zm0 0"/></symbol><symbol id="aC" overflow="visible"><path d="m2.890625-4.0625h1.234375c-.359375 1.609375-.453125 2.078125-.453125 2.8125 0 .15625 0 .453125.078125.828125.109375.46875.234375.546875.390625.546875.21875 0 .453125-.203125.453125-.421875 0-.0625 0-.078125-.0625-.234375-.328125-.78125-.328125-1.5-.328125-1.796875 0-.578125.078125-1.171875.203125-1.734375h1.25c.140625 0 .53125 0 .53125-.375 0-.265625-.234375-.265625-.4375-.265625h-3.65625c-.234375 0-.65625 0-1.140625.515625-.375.421875-.65625.921875-.65625.984375 0 0 0 .109375.125.109375.09375 0 .109375-.046875.171875-.140625.546875-.828125 1.171875-.828125 1.390625-.828125h.625c-.359375 1.3125-.9375 2.640625-1.40625 3.625-.078125.171875-.078125.1875-.078125.265625 0 .203125.171875.296875.3125.296875.328125 0 .421875-.3125.546875-.71875.15625-.5.15625-.515625.296875-1.0625zm0 0"/></symbol><symbol id="aD" overflow="visible"><path d="m2.046875-2.515625c.3125 0 1.109375-.03125 1.65625-.25.765625-.328125.828125-.96875.828125-1.125 0-.484375-.421875-.9375-1.171875-.9375-1.203125 0-2.859375 1.0625-2.859375 2.96875 0 1.125.640625 1.984375 1.71875 1.984375 1.5625 0 2.46875-1.15625 2.46875-1.296875 0-.0625-.0625-.140625-.125-.140625s-.078125.03125-.140625.109375c-.859375 1.078125-2.0625 1.078125-2.1875 1.078125-.84375 0-.953125-.90625-.953125-1.265625 0-.125.015625-.46875.1875-1.125zm-.515625-.25c.421875-1.65625 1.546875-1.8125 1.828125-1.8125.515625 0 .8125.3125.8125.6875 0 1.125-1.75 1.125-2.203125 1.125zm0 0"/></symbol><symbol id="aE" overflow="visible"><path d="m5.203125-2.578125c0-1.703125-1.015625-2.25-1.828125-2.25-1.484375 0-2.921875 1.5625-2.921875 3.109375 0 1.015625.640625 1.84375 1.765625 1.84375.6875 0 1.46875-.25 2.296875-.921875.140625.578125.5.921875.984375.921875.578125 0 .921875-.609375.921875-.78125 0-.078125-.0625-.109375-.125-.109375-.078125 0-.109375.03125-.140625.109375-.203125.53125-.59375.53125-.609375.53125-.34375 0-.34375-.84375-.34375-1.109375 0-.234375 0-.25.109375-.375 1.03125-1.296875 1.25-2.5625 1.25-2.5625 0-.03125-.015625-.109375-.125-.109375s-.109375.03125-.171875.21875c-.1875.6875-.546875 1.515625-1.0625 2.171875zm-.734375 1.5c-.953125.84375-1.796875.953125-2.234375.953125-.65625 0-.984375-.484375-.984375-1.1875 0-.53125.28125-1.703125.640625-2.265625.515625-.796875 1.09375-1 1.484375-1 1.078125 0 1.078125 1.421875 1.078125 2.28125 0 .40625 0 1.03125.015625 1.21875zm0 0"/></symbol><symbol id="aF" overflow="visible"><path d="m.953125-.640625c-.03125.15625-.09375.40625-.09375.46875 0 .1875.15625.296875.3125.296875.140625 0 .328125-.09375.40625-.3125.015625-.015625.140625-.53125.203125-.8125l.25-.96875c.0625-.25.125-.484375.1875-.734375.03125-.1875.125-.5.140625-.546875.15625-.34375.734375-1.328125 1.78125-1.328125.484375 0 .578125.40625.578125.765625 0 .265625-.078125.578125-.15625.90625l-.3125 1.265625-.21875.828125c-.046875.21875-.140625.578125-.140625.640625 0 .1875.15625.296875.3125.296875.34375 0 .40625-.28125.5-.625.15625-.609375.546875-2.203125.65625-2.625.03125-.140625.609375-1.453125 1.796875-1.453125.46875 0 .59375.375.59375.765625 0 .609375-.46875 1.859375-.6875 2.4375-.09375.265625-.140625.375-.140625.59375 0 .515625.390625.90625.890625.90625 1.03125 0 1.4375-1.59375 1.4375-1.6875 0-.109375-.09375-.109375-.125-.109375-.109375 0-.109375.03125-.171875.203125-.15625.578125-.515625 1.34375-1.109375 1.34375-.1875 0-.265625-.109375-.265625-.359375 0-.265625.09375-.53125.203125-.765625.203125-.578125.65625-1.78125.65625-2.40625 0-.703125-.4375-1.171875-1.25-1.171875s-1.375.484375-1.78125 1.0625c0-.140625-.046875-.515625-.34375-.765625-.28125-.234375-.625-.296875-.890625-.296875-.984375 0-1.515625.703125-1.703125.953125-.0625-.625-.515625-.953125-1-.953125-.515625 0-.71875.4375-.8125.625-.203125.390625-.34375 1.03125-.34375 1.0625 0 .109375.109375.109375.140625.109375.109375 0 .109375-.015625.171875-.25.1875-.78125.40625-1.296875.796875-1.296875.1875 0 .34375.078125.34375.5 0 .234375-.03125.34375-.171875.921875zm0 0"/></symbol><symbol id="aG" overflow="visible"><path d="m2.21875-.015625c0-.71875-.28125-1.140625-.703125-1.140625-.359375 0-.578125.265625-.578125.578125 0 .296875.21875.578125.578125.578125.125 0 .265625-.046875.375-.140625.046875-.015625.046875-.03125.0625-.03125s.015625.015625.015625.15625c0 .8125-.375 1.46875-.734375 1.828125-.125.125-.125.140625-.125.171875 0 .078125.0625.125.109375.125.125 0 1-.84375 1-2.125zm0 0"/></symbol><symbol id="aH" overflow="visible"><path d="m.953125-.640625c-.03125.15625-.09375.40625-.09375.46875 0 .1875.15625.296875.3125.296875.140625 0 .328125-.09375.40625-.3125.03125-.046875.390625-1.53125.4375-1.71875.09375-.359375.28125-1.125.34375-1.421875.046875-.140625.359375-.65625.625-.890625.078125-.078125.390625-.359375.859375-.359375.296875 0 .453125.125.46875.125-.328125.0625-.578125.3125-.578125.609375 0 .171875.125.375.421875.375s.59375-.25.59375-.640625-.34375-.71875-.90625-.71875c-.703125 0-1.1875.546875-1.390625.84375-.09375-.484375-.484375-.84375-.984375-.84375-.515625 0-.71875.4375-.8125.625-.203125.375-.34375 1.03125-.34375 1.0625 0 .109375.109375.109375.140625.109375.109375 0 .109375-.015625.171875-.25.1875-.78125.40625-1.296875.796875-1.296875.1875 0 .34375.078125.34375.5 0 .234375-.03125.34375-.171875.921875zm0 0"/></symbol><symbol id="aI" overflow="visible"><path d="m2.515625-3.828125c.0625-.234375.171875-.640625.171875-.703125 0-.1875-.140625-.296875-.328125-.296875-.03125 0-.328125.015625-.421875.40625l-1.578125 6.3125c-.03125.125-.03125.15625-.03125.171875 0 .15625.125.296875.296875.296875.234375 0 .375-.203125.390625-.234375.046875-.09375.1875-.65625.59375-2.34375.359375.296875.84375.34375 1.0625.34375.765625 0 1.1875-.5 1.453125-.796875.09375.484375.5.796875.984375.796875.375 0 .625-.25.796875-.609375.1875-.390625.328125-1.046875.328125-1.078125 0-.109375-.09375-.109375-.125-.109375-.109375 0-.125.046875-.15625.203125-.1875.703125-.375 1.34375-.828125 1.34375-.296875 0-.328125-.28125-.328125-.5 0-.234375.125-.75.21875-1.125l.3125-1.1875c.03125-.15625.140625-.578125.171875-.734375.0625-.25.171875-.671875.171875-.734375 0-.203125-.15625-.296875-.3125-.296875-.0625 0-.34375.015625-.4375.390625l-.5 2.03125c-.140625.546875-.25 1-.28125 1.109375-.015625.0625-.546875 1.046875-1.421875 1.046875-.546875 0-.8125-.359375-.8125-.9375 0-.328125.078125-.625.15625-.9375zm0 0"/></symbol><symbol id="aJ" overflow="visible"><path d="m1.53125-2.46875c.359375.140625.6875.140625.9375.140625.296875 0 .890625 0 .890625-.328125 0-.265625-.375-.296875-.796875-.296875-.234375 0-.609375.015625-1.015625.203125-.25-.125-.4375-.34375-.4375-.625 0-.671875 1.078125-1.0625 2.046875-1.0625.1875 0 .578125 0 1.015625.296875.109375.09375.140625.109375.21875.109375.140625 0 .28125-.140625.28125-.28125 0-.21875-.65625-.625-1.40625-.625-1.25 0-2.421875.734375-2.421875 1.5625 0 .46875.390625.734375.4375.765625-.65625.359375-1 .96875-1 1.46875 0 .71875.625 1.375 1.78125 1.375 1.4375 0 2.046875-.953125 2.046875-1.125 0-.0625-.046875-.109375-.125-.109375-.046875 0-.078125.046875-.109375.078125-.140625.25-.40625.65625-1.71875.65625-.65625 0-1.59375-.15625-1.59375-.9375 0-.375.3125-.953125.96875-1.265625zm.359375-.15625c.265625-.078125.484375-.09375.671875-.09375.265625 0 .3125.015625.515625.0625-.171875.078125-.1875.09375-.609375.09375-.234375 0-.359375 0-.578125-.0625zm0 0"/></symbol><symbol id="aK" overflow="visible"><path d="m5.140625-4.109375c0-.0625.03125-.125.03125-.203125 0-.1875-.140625-.296875-.3125-.296875-.109375 0-.40625.078125-.453125.46875-.203125-.390625-.578125-.6875-1.015625-.6875-1.234375 0-2.59375 1.53125-2.59375 3.109375 0 1.078125.671875 1.71875 1.453125 1.71875.640625 0 1.15625-.515625 1.265625-.625-.21875.96875-.359375 1.421875-.359375 1.4375-.03125.109375-.40625 1.1875-1.5625 1.1875-.203125 0-.5625-.015625-.875-.109375.328125-.109375.453125-.390625.453125-.578125 0-.171875-.125-.375-.421875-.375-.234375 0-.59375.203125-.59375.640625s.40625.65625 1.453125.65625c1.375 0 2.15625-.84375 2.3125-1.5zm-1.421875 2.71875c-.0625.28125-.3125.546875-.5625.765625-.21875.1875-.5625.390625-.875.390625-.546875 0-.703125-.578125-.703125-1.015625 0-.515625.3125-1.796875.609375-2.359375.28125-.53125.75-.96875 1.21875-.96875.71875 0 .875.875.875.9375 0 .046875-.03125.125-.03125.15625zm0 0"/></symbol><symbol id="aL" overflow="visible"><path d="m7.484375-4.625c.1875 0 .390625 0 .390625-.21875s-.203125-.21875-.375-.21875h-6.515625c-.1875 0-.390625 0-.390625.21875s.21875.21875.40625.21875zm.015625 4.234375c.171875 0 .375 0 .375-.21875s-.203125-.21875-.390625-.21875h-6.484375c-.1875 0-.40625 0-.40625.21875s.203125.21875.390625.21875zm0-2.125c.171875 0 .375 0 .375-.203125 0-.21875-.203125-.21875-.375-.21875h-6.515625c-.1875 0-.390625 0-.390625.21875 0 .203125.203125.203125.390625.203125zm0 0"/></symbol><symbol id="aM" overflow="visible"><path d="m4.25-3.03125-2.1875-2.171875c-.125-.125-.15625-.15625-.234375-.15625-.109375 0-.21875.109375-.21875.21875 0 .078125.015625.109375.140625.21875l2.171875 2.203125-2.171875 2.1875c-.125.109375-.140625.140625-.140625.21875 0 .109375.109375.21875.21875.21875.078125 0 .109375-.03125.234375-.15625l2.171875-2.171875 2.25 2.265625c.03125 0 .109375.0625.171875.0625.125 0 .21875-.109375.21875-.21875 0-.03125 0-.0625-.03125-.125-.015625-.015625-1.75-1.734375-2.296875-2.28125l2-2c.046875-.0625.21875-.203125.265625-.28125.015625-.015625.0625-.0625.0625-.140625 0-.109375-.09375-.21875-.21875-.21875-.09375 0-.140625.046875-.25.171875zm0 0"/></symbol><symbol id="aN" overflow="visible"><path d="m7.1875-2.515625c.1875 0 .375 0 .375-.203125 0-.21875-.1875-.21875-.375-.21875h-5.90625c-.1875 0-.375 0-.375.21875 0 .203125.1875.203125.375.203125zm0 0"/></symbol><symbol id="aO" overflow="visible"><path d="m5.5625-1.8125c.140625 0 .3125 0 .3125-.171875 0-.1875-.171875-.1875-.3125-.1875h-4.5625c-.125 0-.296875 0-.296875.1875 0 .171875.171875.171875.296875.171875zm0 0"/></symbol><symbol id="aP" overflow="visible"><path d="m2.015625-2.65625c.625 0 1.03125.453125 1.03125 1.296875 0 1-.5625 1.28125-.984375 1.28125-.4375 0-1.046875-.15625-1.328125-.578125.296875 0 .5-.1875.5-.4375 0-.265625-.1875-.4375-.453125-.4375-.203125 0-.4375.125-.4375.453125 0 .75.8125 1.25 1.734375 1.25 1.046875 0 1.796875-.734375 1.796875-1.53125 0-.671875-.53125-1.265625-1.34375-1.453125.625-.21875 1.109375-.75 1.109375-1.390625s-.71875-1.09375-1.546875-1.09375c-.859375 0-1.5.453125-1.5 1.0625 0 .296875.1875.421875.40625.421875.25 0 .40625-.171875.40625-.40625 0-.296875-.265625-.40625-.4375-.40625.34375-.4375.953125-.46875 1.09375-.46875.203125 0 .8125.0625.8125.890625 0 .546875-.234375.890625-.34375 1.015625-.234375.25-.421875.265625-.90625.296875-.15625 0-.21875.015625-.21875.125s.078125.109375.21875.109375zm0 0"/></symbol><symbol id="aQ" overflow="visible"><path d="m3.140625-5.15625c0-.15625 0-.21875-.171875-.21875-.09375 0-.109375 0-.1875.109375l-2.546875 3.703125v.25h2.25v.671875c0 .296875-.015625.375-.640625.375h-.171875v.265625c.671875-.03125.6875-.03125 1.140625-.03125s.46875 0 1.140625.03125v-.265625h-.171875c-.625 0-.640625-.078125-.640625-.375v-.671875h.84375v-.25h-.84375zm-.59375.640625v2.953125h-2.03125zm0 0"/></symbol><symbol id="aR" overflow="visible"><path d="m2.5-5.078125c0-.21875-.015625-.21875-.234375-.21875-.328125.3125-.75.5-1.5.5v.265625c.21875 0 .640625 0 1.109375-.203125v4.078125c0 .296875-.03125.390625-.78125.390625h-.28125v.265625c.328125-.03125 1.015625-.03125 1.375-.03125s1.046875 0 1.375.03125v-.265625h-.28125c-.75 0-.78125-.09375-.78125-.390625zm0 0"/></symbol><symbol id="aS" overflow="visible"><path d="m3.125-2.34375c0 1.9375-.921875 2.265625-1.390625 2.265625-.171875 0-.578125-.015625-.796875-.265625.359375-.03125.375-.296875.375-.375 0-.234375-.1875-.375-.375-.375-.140625 0-.375.09375-.375.390625 0 .546875.453125.875 1.1875.875 1.09375 0 2.125-1.09375 2.125-2.796875 0-2.0625-.921875-2.671875-1.734375-2.671875-.953125 0-1.796875.734375-1.796875 1.78125 0 1.015625.78125 1.765625 1.6875 1.765625.5625 0 .90625-.359375 1.09375-.765625zm-1.0625.375c-.375 0-.609375-.171875-.78125-.46875-.1875-.28125-.1875-.671875-.1875-1.078125 0-.46875 0-.796875.21875-1.125.203125-.296875.453125-.453125.828125-.453125.53125 0 .765625.53125.796875.5625.15625.390625.171875 1.015625.171875 1.171875 0 .640625-.34375 1.390625-1.046875 1.390625zm0 0"/></symbol><symbol id="aT" overflow="visible"><path d="m1.09375-2.640625c0-.65625.0625-1.234375.34375-1.71875.25-.40625.65625-.734375 1.15625-.734375.15625 0 .515625.03125.703125.296875-.359375.03125-.390625.296875-.390625.375 0 .25.1875.375.375.375.140625 0 .375-.078125.375-.390625 0-.46875-.359375-.859375-1.078125-.859375-1.109375 0-2.234375 1.046875-2.234375 2.765625 0 2.171875 1.015625 2.703125 1.78125 2.703125.390625 0 .796875-.109375 1.15625-.453125.328125-.3125.59375-.640625.59375-1.34375 0-1.03125-.796875-1.765625-1.671875-1.765625-.578125 0-.921875.359375-1.109375.75zm1.03125 2.5625c-.421875 0-.6875-.28125-.796875-.515625-.1875-.359375-.203125-.890625-.203125-1.203125 0-.78125.421875-1.375 1.046875-1.375.390625 0 .640625.203125.78125.484375.171875.296875.171875.65625.171875 1.0625s0 .75-.15625 1.046875c-.21875.359375-.484375.5-.84375.5zm0 0"/></symbol><symbol id="aU" overflow="visible"><path d="m3.890625-2.546875c0-.84375-.078125-1.359375-.34375-1.875-.34375-.703125-1-.875-1.4375-.875-1 0-1.375.75-1.484375.96875-.28125.578125-.296875 1.375-.296875 1.78125 0 .53125.015625 1.328125.40625 1.96875.359375.59375.953125.75 1.375.75.390625 0 1.0625-.125 1.46875-.90625.296875-.578125.3125-1.296875.3125-1.8125zm-1.78125 2.484375c-.265625 0-.8125-.125-.984375-.953125-.09375-.453125-.09375-1.203125-.09375-1.625 0-.546875 0-1.109375.09375-1.546875.171875-.8125.78125-.890625.984375-.890625.265625 0 .828125.140625.984375.859375.09375.4375.09375 1.046875.09375 1.578125 0 .46875 0 1.1875-.09375 1.640625-.171875.828125-.71875.9375-.984375.9375zm0 0"/></symbol><symbol id="aV" overflow="visible"><path d="m2.25-1.625c.125-.125.453125-.390625.59375-.5.484375-.453125.953125-.890625.953125-1.609375 0-.953125-.796875-1.5625-1.78125-1.5625-.96875 0-1.59375.71875-1.59375 1.4375 0 .390625.3125.4375.421875.4375.171875 0 .421875-.109375.421875-.421875 0-.40625-.40625-.40625-.5-.40625.234375-.59375.765625-.78125 1.15625-.78125.734375 0 1.125.625 1.125 1.296875 0 .828125-.578125 1.4375-1.53125 2.390625l-1 1.046875c-.09375.078125-.09375.09375-.09375.296875h3.140625l.234375-1.421875h-.25c-.015625.15625-.078125.546875-.171875.703125-.046875.0625-.65625.0625-.78125.0625h-1.421875zm0 0"/></symbol><symbol id="aW" overflow="visible"><path d="m2.78125-6h2.109375c.1875 0 .3125 0 .3125-.125 0-.140625-.125-.140625-.34375-.140625h-2.015625c.078125-.28125.078125-.296875.140625-.578125.0625-.1875.15625-.578125.15625-.59375 0-.09375-.0625-.125-.15625-.125-.203125 0-1.0625.078125-1.328125.109375-.078125 0-.203125.015625-.203125.21875 0 .125.109375.125.265625.125.515625 0 .53125.078125.53125.1875 0 .078125-.09375.4375-.140625.65625h-.609375c-.21875 0-.34375 0-.34375.140625 0 .125.09375.125.3125.125h.578125l-1.40625 5.5625c-.046875.171875-.046875.1875-.046875.25 0 .234375.1875.3125.328125.3125.203125 0 .359375-.15625.390625-.296875.03125-.0625.15625-.546875.21875-.828125l.25-.96875c.03125-.15625.140625-.578125.171875-.734375.046875-.171875.125-.515625.140625-.546875.09375-.1875.671875-1.328125 1.765625-1.328125.484375 0 .59375.390625.59375.75 0 .671875-.5 2-.703125 2.515625-.0625.171875-.125.3125-.125.53125 0 .5625.40625.90625.90625.90625 1.046875 0 1.421875-1.625 1.421875-1.6875 0-.109375-.09375-.109375-.125-.109375-.109375 0-.109375.03125-.171875.203125-.3125 1.109375-.796875 1.34375-1.09375 1.34375-.203125 0-.28125-.125-.28125-.359375 0-.265625.125-.578125.1875-.765625.1875-.46875.671875-1.78125.671875-2.390625 0-.796875-.5-1.1875-1.25-1.1875-.328125 0-.984375.078125-1.609375.84375zm0 0"/></symbol><symbol id="aX" overflow="visible"><path d="m1.609375-1.8125c.171875 0 .765625-.015625 1.1875-.15625.6875-.25.71875-.71875.71875-.84375 0-.453125-.421875-.703125-.9375-.703125-.90625 0-2.1875.703125-2.1875 2.125 0 .8125.5 1.46875 1.375 1.46875 1.234375 0 1.90625-.796875 1.90625-.90625 0-.078125-.078125-.125-.125-.125s-.078125.015625-.109375.0625c-.625.75-1.53125.75-1.65625.75-.59375 0-.765625-.5-.765625-.9375 0-.25.078125-.609375.109375-.734375zm-.421875-.234375c.25-.96875.984375-1.25 1.390625-1.25.3125 0 .625.171875.625.484375 0 .765625-1.3125.765625-1.65625.765625zm0 0"/></symbol><symbol id="aY" overflow="visible"><path d="m.421875.96875c-.078125.25-.09375.3125-.40625.3125-.109375 0-.203125 0-.203125.15625 0 .0625.0625.109375.109375.109375.078125 0 .109375-.03125.703125-.03125.5625 0 .734375.03125.796875.03125.03125 0 .140625 0 .140625-.15625 0-.109375-.109375-.109375-.203125-.109375-.375 0-.375-.046875-.375-.125 0-.046875.140625-.609375.375-1.546875.109375.1875.359375.46875.78125.46875.984375 0 2-1.125 2-2.28125 0-.796875-.5-1.3125-1.140625-1.3125-.484375 0-.859375.328125-1.09375.5625-.171875-.5625-.703125-.5625-.78125-.5625-.28125 0-.484375.1875-.609375.4375-.1875.359375-.28125.765625-.28125.78125 0 .078125.0625.109375.125.109375.109375 0 .109375-.03125.171875-.25.09375-.40625.234375-.859375.5625-.859375.203125 0 .265625.1875.265625.375 0 .078125-.03125.28125-.046875.34375zm1.453125-3.421875c.046875-.140625.046875-.15625.171875-.296875.296875-.359375.640625-.546875.921875-.546875.40625 0 .546875.390625.546875.75 0 .296875-.171875 1.15625-.40625 1.625-.203125.421875-.59375.78125-.96875.78125-.53125 0-.671875-.625-.671875-.6875 0-.015625.015625-.09375.03125-.125zm0 0"/></symbol><g><use x="3.735" xlink:href="#a" y="11.152"/><use x="11.159733" xlink:href="#b" y="11.152"/></g><g><use x="16.915375" xlink:href="#c" y="11.152"/><use x="22.673198" xlink:href="#d" y="11.152"/><use x="26.975747" xlink:href="#e" y="11.152"/><use x="30.006295" xlink:href="#f" y="11.152"/><use x="34.854299" xlink:href="#g" y="11.152"/><use x="40.308849" xlink:href="#h" y="11.152"/></g><use x="46.972127" xlink:href="#f" y="11.152"/><g><use x="51.83104" xlink:href="#i" y="11.152"/><use x="57.28559" xlink:href="#j" y="11.152"/></g><use x="63.335777" xlink:href="#d" y="11.152"/><g><use x="67.649235" xlink:href="#k" y="11.152"/><use x="71.891784" xlink:href="#g" y="11.152"/><use x="77.346334" xlink:href="#j" y="11.152"/></g><g><use x="83.101975" xlink:href="#k" y="11.152"/><use x="87.344524" xlink:href="#d" y="11.152"/></g><use x="95.279804" xlink:href="#g" y="11.152"/><use x="100.428899" xlink:href="#l" y="11.152"/><g><use x="105.586721" xlink:href="#g" y="11.152"/><use x="111.041271" xlink:href="#e" y="11.152"/><use x="114.071819" xlink:href="#h" y="11.152"/><use x="117.102367" xlink:href="#g" y="11.152"/><use x="122.556917" xlink:href="#m" y="11.152"/><use x="128.618013" xlink:href="#h" y="11.152"/><use x="131.648561" xlink:href="#n" y="11.152"/></g><g><use x="140.129295" xlink:href="#e" y="11.152"/><use x="143.159843" xlink:href="#j" y="11.152"/></g><g><use x="152.85367" xlink:href="#o" y="11.152"/><use x="159.97513" xlink:href="#o" y="11.152"/><use x="167.096591" xlink:href="#p" y="11.152"/></g><g><use x="176.790417" xlink:href="#g" y="11.152"/><use x="182.244967" xlink:href="#q" y="11.152"/><use x="186.518061" xlink:href="#n" y="11.152"/><use x="191.366065" xlink:href="#r" y="11.152"/></g><g><use x="105.867" xlink:href="#O" y="35.66"/><use x="111.594277" xlink:href="#P" y="35.66"/><use x="117.321555" xlink:href="#Q" y="35.66"/><use x="123.048833" xlink:href="#Q" y="35.66"/><use x="128.77611" xlink:href="#R" y="35.66"/><use x="134.503388" xlink:href="#S" y="35.66"/><use x="140.230665" xlink:href="#T" y="35.66"/><use x="145.957943" xlink:href="#U" y="35.66"/><use x="151.68522" xlink:href="#V" y="35.66"/><use x="157.412498" xlink:href="#W" y="35.66"/><use x="163.139775" xlink:href="#X" y="35.66"/><use x="168.867053" xlink:href="#Y" y="35.66"/></g><use x="196.412" xlink:href="#ay" y="35.66"/><use x="204.163" xlink:href="#aL" y="35.66"/><g><use x="215.678" xlink:href="#s" y="35.66"/><use x="221.13255" xlink:href="#t" y="35.66"/><use x="226.5871" xlink:href="#t" y="35.66"/><use x="232.04165" xlink:href="#u" y="35.66"/><use x="237.4962" xlink:href="#t" y="35.66"/><use x="242.95075" xlink:href="#s" y="35.66"/><use x="248.4053" xlink:href="#v" y="35.66"/><use x="253.85985" xlink:href="#w" y="35.66"/><use x="259.3144" xlink:href="#x" y="35.66"/></g><use x="268.40168" xlink:href="#y" y="35.66"/><use x="277.496" xlink:href="#az" y="35.66"/><use x="282.951" xlink:href="#d" y="35.66"/><g><use x="94.412" xlink:href="#Z" y="53.35"/><use x="100.139277" xlink:href="#aa" y="53.35"/><use x="105.866555" xlink:href="#ab" y="53.35"/><use x="111.593832" xlink:href="#ac" y="53.35"/><use x="117.32111" xlink:href="#ad" y="53.35"/><use x="123.048387" xlink:href="#ae" y="53.35"/><use x="128.775665" xlink:href="#af" y="53.35"/><use x="134.502943" xlink:href="#ag" y="53.35"/><use x="140.23022" xlink:href="#ac" y="53.35"/><use x="145.957498" xlink:href="#ah" y="53.35"/><use x="151.684775" xlink:href="#Y" y="53.35"/><use x="157.412053" xlink:href="#ab" y="53.35"/><use x="163.13933" xlink:href="#ac" y="53.35"/><use x="168.866608" xlink:href="#Y" y="53.35"/></g><use x="196.412" xlink:href="#aA" y="53.35"/><use x="205.727" xlink:href="#aL" y="53.35"/><use x="217.242" xlink:href="#z" y="53.35"/><use x="222.697" xlink:href="#aB" y="53.35"/><g><use x="225.727" xlink:href="#z" y="53.35"/><use x="231.18155" xlink:href="#s" y="53.35"/><use x="236.6361" xlink:href="#z" y="53.35"/><use x="242.09065" xlink:href="#A" y="53.35"/><use x="247.5452" xlink:href="#u" y="53.35"/><use x="252.99975" xlink:href="#A" y="53.35"/><use x="258.4543" xlink:href="#B" y="53.35"/><use x="263.90885" xlink:href="#w" y="53.35"/></g><use x="271.788" xlink:href="#aM" y="53.35"/><g><use x="282.697" xlink:href="#B" y="53.35"/><use x="288.15155" xlink:href="#A" y="53.35"/></g><use x="293.606" xlink:href="#aO" y="48.846"/><g><use x="300.193" xlink:href="#aP" y="48.846"/><use x="304.427514" xlink:href="#aQ" y="48.846"/></g><g><use x="312.795" xlink:href="#C" y="53.35"/><use x="318.401186" xlink:href="#d" y="53.35"/></g><g><use x="117.321" xlink:href="#Z" y="69.888"/><use x="123.048277" xlink:href="#aa" y="69.888"/><use x="128.775555" xlink:href="#ab" y="69.888"/><use x="134.502832" xlink:href="#ac" y="69.888"/><use x="140.23011" xlink:href="#ad" y="69.888"/><use x="145.957387" xlink:href="#ae" y="69.888"/><use x="151.684665" xlink:href="#ai" y="69.888"/><use x="157.411942" xlink:href="#aj" y="69.888"/><use x="163.13922" xlink:href="#ab" y="69.888"/><use x="168.866497" xlink:href="#ak" y="69.888"/></g><use x="196.412" xlink:href="#aW" y="69.888"/><use x="205.336" xlink:href="#aL" y="69.888"/><g><use x="216.851" xlink:href="#aA" y="69.888"/><use x="223.136823" xlink:href="#az" y="69.888"/></g><g><use x="228.591" xlink:href="#D" y="69.888"/><use x="232.833549" xlink:href="#s" y="69.888"/></g><use x="238.288" xlink:href="#aC" y="69.888"/><use x="244.898" xlink:href="#E" y="69.888"/><g><use x="94.413" xlink:href="#al" y="87.579"/><use x="100.140277" xlink:href="#aa" y="87.579"/><use x="105.867555" xlink:href="#Q" y="87.579"/><use x="111.594832" xlink:href="#ad" y="87.579"/><use x="117.32211" xlink:href="#Y" y="87.579"/><use x="123.049387" xlink:href="#ak" y="87.579"/><use x="128.776665" xlink:href="#ag" y="87.579"/><use x="134.503942" xlink:href="#ac" y="87.579"/><use x="140.23122" xlink:href="#af" y="87.579"/><use x="145.958497" xlink:href="#X" y="87.579"/><use x="151.685775" xlink:href="#ab" y="87.579"/><use x="157.413052" xlink:href="#ak" y="87.579"/><use x="163.14033" xlink:href="#W" y="87.579"/><use x="168.867607" xlink:href="#Q" y="87.579"/></g><use x="196.412" xlink:href="#aD" y="87.579"/><use x="201.491" xlink:href="#aX" y="89.215"/><use x="208.948" xlink:href="#aL" y="87.579"/><use x="220.463" xlink:href="#B" y="87.579"/><use x="225.918" xlink:href="#aB" y="87.579"/><g><use x="228.948" xlink:href="#z" y="87.579"/><use x="234.40255" xlink:href="#A" y="87.579"/><use x="239.8571" xlink:href="#s" y="87.579"/><use x="245.31165" xlink:href="#B" y="87.579"/><use x="250.7662" xlink:href="#u" y="87.579"/><use x="256.22075" xlink:href="#z" y="87.579"/><use x="261.6753" xlink:href="#z" y="87.579"/><use x="267.12985" xlink:href="#F" y="87.579"/><use x="272.5844" xlink:href="#v" y="87.579"/></g><use x="280.463" xlink:href="#aM" y="87.579"/><g><use x="291.372" xlink:href="#B" y="87.579"/><use x="296.82655" xlink:href="#A" y="87.579"/></g><use x="302.281" xlink:href="#aO" y="83.074"/><g><use x="308.868" xlink:href="#aR" y="83.074"/><use x="313.102514" xlink:href="#aS" y="83.074"/></g><use x="321.471" xlink:href="#G" y="87.579"/><g><use x="54.322" xlink:href="#am" y="104.117"/><use x="60.049277" xlink:href="#V" y="104.117"/><use x="65.776555" xlink:href="#ac" y="104.117"/><use x="71.503832" xlink:href="#Q" y="104.117"/><use x="77.23111" xlink:href="#O" y="104.117"/><use x="82.958387" xlink:href="#Y" y="104.117"/><use x="88.685665" xlink:href="#ak" y="104.117"/><use x="94.412942" xlink:href="#an" y="104.117"/><use x="100.14022" xlink:href="#ad" y="104.117"/><use x="105.867497" xlink:href="#Y" y="104.117"/><use x="111.594775" xlink:href="#an" y="104.117"/><use x="117.322052" xlink:href="#ak" y="104.117"/><use x="123.04933" xlink:href="#Q" y="104.117"/><use x="128.776607" xlink:href="#af" y="104.117"/><use x="134.503885" xlink:href="#ag" y="104.117"/><use x="140.231162" xlink:href="#ac" y="104.117"/><use x="145.95844" xlink:href="#ah" y="104.117"/><use x="151.685717" xlink:href="#Y" y="104.117"/><use x="157.412995" xlink:href="#ab" y="104.117"/><use x="163.140272" xlink:href="#ac" y="104.117"/><use x="168.86755" xlink:href="#Y" y="104.117"/></g><use x="196.412" xlink:href="#aE" y="104.117"/><use x="206.461" xlink:href="#H" y="104.117"/><use x="217.978828" xlink:href="#B" y="104.117"/><use x="223.431" xlink:href="#az" y="104.117"/><g><use x="228.885" xlink:href="#B" y="104.117"/><use x="234.33955" xlink:href="#F" y="104.117"/><use x="239.7941" xlink:href="#u" y="104.117"/></g><use x="245.249" xlink:href="#aB" y="104.117"/><g><use x="248.279" xlink:href="#A" y="104.117"/><use x="253.73355" xlink:href="#F" y="104.117"/><use x="259.1881" xlink:href="#w" y="104.117"/><use x="264.64265" xlink:href="#t" y="104.117"/><use x="270.0972" xlink:href="#t" y="104.117"/><use x="275.55175" xlink:href="#t" y="104.117"/><use x="281.0063" xlink:href="#A" y="104.117"/><use x="286.46085" xlink:href="#x" y="104.117"/><use x="291.9154" xlink:href="#v" y="104.117"/></g><g><use x="105.867" xlink:href="#al" y="121.807"/><use x="111.594277" xlink:href="#aa" y="121.807"/><use x="117.321555" xlink:href="#Q" y="121.807"/><use x="123.048832" xlink:href="#ad" y="121.807"/><use x="128.77611" xlink:href="#Y" y="121.807"/><use x="134.503387" xlink:href="#ak" y="121.807"/><use x="140.230665" xlink:href="#ag" y="121.807"/><use x="145.957942" xlink:href="#ac" y="121.807"/><use x="151.68522" xlink:href="#ao" y="121.807"/><use x="157.412497" xlink:href="#ab" y="121.807"/><use x="163.139775" xlink:href="#ah" y="121.807"/><use x="168.867052" xlink:href="#ah" y="121.807"/></g><use x="196.412" xlink:href="#aF" y="121.807"/><use x="205.99" xlink:href="#aX" y="123.443"/><use x="213.447" xlink:href="#H" y="121.807"/><use x="224.964828" xlink:href="#A" y="121.807"/><use x="230.416" xlink:href="#aB" y="121.807"/><g><use x="233.447" xlink:href="#w" y="121.807"/><use x="238.90155" xlink:href="#B" y="121.807"/><use x="244.3561" xlink:href="#A" y="121.807"/><use x="249.81065" xlink:href="#t" y="121.807"/><use x="255.2652" xlink:href="#t" y="121.807"/><use x="260.71975" xlink:href="#x" y="121.807"/><use x="266.1743" xlink:href="#t" y="121.807"/><use x="271.62885" xlink:href="#w" y="121.807"/><use x="277.0834" xlink:href="#A" y="121.807"/><use x="282.53795" xlink:href="#A" y="121.807"/><use x="287.9925" xlink:href="#A" y="121.807"/></g><use x="295.871" xlink:href="#aM" y="121.807"/><g><use x="306.78" xlink:href="#B" y="121.807"/><use x="312.23455" xlink:href="#A" y="121.807"/></g><use x="317.689" xlink:href="#aT" y="117.303"/><g><use x="326.058" xlink:href="#n" y="121.807"/><use x="330.906004" xlink:href="#I" y="121.807"/></g><g><use x="94.413" xlink:href="#al" y="138.345"/><use x="100.140277" xlink:href="#aa" y="138.345"/><use x="105.867555" xlink:href="#Q" y="138.345"/><use x="111.594832" xlink:href="#ad" y="138.345"/><use x="117.32211" xlink:href="#Y" y="138.345"/><use x="123.049387" xlink:href="#ak" y="138.345"/><use x="128.776665" xlink:href="#ag" y="138.345"/><use x="134.503942" xlink:href="#ac" y="138.345"/><use x="140.23122" xlink:href="#ap" y="138.345"/><use x="145.958497" xlink:href="#ab" y="138.345"/><use x="151.685775" xlink:href="#R" y="138.345"/><use x="157.413052" xlink:href="#V" y="138.345"/><use x="163.14033" xlink:href="#an" y="138.345"/><use x="168.867607" xlink:href="#ah" y="138.345"/></g><g><use x="196.412" xlink:href="#f" y="138.345"/><use x="201.260004" xlink:href="#h" y="138.345"/><use x="204.290552" xlink:href="#g" y="138.345"/><use x="209.745102" xlink:href="#d" y="138.345"/><use x="214.047651" xlink:href="#d" y="138.345"/><use x="218.3502" xlink:href="#e" y="138.345"/><use x="221.380748" xlink:href="#f" y="138.345"/><use x="226.228752" xlink:href="#g" y="138.345"/><use x="231.683302" xlink:href="#h" y="138.345"/></g><g><use x="238.34658" xlink:href="#q" y="138.345"/><use x="242.619675" xlink:href="#g" y="138.345"/><use x="248.074225" xlink:href="#J" y="138.345"/><use x="254.135321" xlink:href="#e" y="138.345"/><use x="257.165869" xlink:href="#K" y="138.345"/><use x="263.226965" xlink:href="#d" y="138.345"/></g><g><use x="271.173153" xlink:href="#i" y="138.345"/><use x="276.627703" xlink:href="#L" y="138.345"/></g><g><use x="284.445164" xlink:href="#n" y="138.345"/><use x="289.293168" xlink:href="#h" y="138.345"/><use x="292.323716" xlink:href="#n" y="138.345"/><use x="297.17172" xlink:href="#f" y="138.345"/><use x="302.019724" xlink:href="#k" y="138.345"/><use x="306.262273" xlink:href="#q" y="138.345"/><use x="310.535368" xlink:href="#i" y="138.345"/><use x="315.989918" xlink:href="#j" y="138.345"/></g><g><use x="325.683744" xlink:href="#e" y="138.345"/><use x="328.714292" xlink:href="#j" y="138.345"/></g><use x="338.408118" xlink:href="#y" y="138.345"/><g><use x="347.503" xlink:href="#aG" y="138.345"/><use x="350.533548" xlink:href="#aH" y="138.345"/></g><use x="355.455" xlink:href="#aX" y="139.981"/><use x="362.912" xlink:href="#aL" y="138.345"/><use x="374.427" xlink:href="#aE" y="138.345"/><use x="381.446" xlink:href="#aW" y="138.345"/><g><use x="387.34" xlink:href="#ay" y="138.345"/><use x="392.061458" xlink:href="#az" y="138.345"/></g><use x="397.515" xlink:href="#D" y="138.345"/><use x="401.758" xlink:href="#aD" y="138.345"/><use x="406.837" xlink:href="#aX" y="139.981"/><use x="411.264" xlink:href="#aF" y="138.345"/><use x="420.842" xlink:href="#aX" y="139.981"/><use x="425.269" xlink:href="#E" y="138.345"/><g><use x="117.321" xlink:href="#Z" y="156.035"/><use x="123.048277" xlink:href="#ak" y="156.035"/><use x="128.775555" xlink:href="#ag" y="156.035"/><use x="134.502832" xlink:href="#Y" y="156.035"/><use x="140.23011" xlink:href="#ag" y="156.035"/><use x="145.957387" xlink:href="#ac" y="156.035"/><use x="151.684665" xlink:href="#ao" y="156.035"/><use x="157.411942" xlink:href="#ab" y="156.035"/><use x="163.13922" xlink:href="#ah" y="156.035"/><use x="168.866497" xlink:href="#ah" y="156.035"/></g><use x="196.412" xlink:href="#aF" y="156.035"/><use x="205.99" xlink:href="#aY" y="157.672"/><use x="213.781" xlink:href="#H" y="156.035"/><g><use x="225.298828" xlink:href="#t" y="156.035"/><use x="230.753378" xlink:href="#F" y="156.035"/><use x="236.207928" xlink:href="#x" y="156.035"/></g><use x="241.66" xlink:href="#aB" y="156.035"/><g><use x="244.69" xlink:href="#s" y="156.035"/><use x="250.14455" xlink:href="#u" y="156.035"/><use x="255.5991" xlink:href="#s" y="156.035"/><use x="261.05365" xlink:href="#A" y="156.035"/><use x="266.5082" xlink:href="#x" y="156.035"/><use x="271.96275" xlink:href="#x" y="156.035"/><use x="277.4173" xlink:href="#B" y="156.035"/><use x="282.87185" xlink:href="#z" y="156.035"/></g><use x="290.751" xlink:href="#aM" y="156.035"/><g><use x="301.66" xlink:href="#B" y="156.035"/><use x="307.11455" xlink:href="#A" y="156.035"/></g><use x="312.569" xlink:href="#aT" y="151.531"/><g><use x="320.938" xlink:href="#n" y="156.035"/><use x="325.786004" xlink:href="#I" y="156.035"/></g><g><use x="105.867" xlink:href="#Z" y="172.573"/><use x="111.594277" xlink:href="#ak" y="172.573"/><use x="117.321555" xlink:href="#ag" y="172.573"/><use x="123.048832" xlink:href="#Y" y="172.573"/><use x="128.77611" xlink:href="#ag" y="172.573"/><use x="134.503387" xlink:href="#ac" y="172.573"/><use x="140.230665" xlink:href="#ap" y="172.573"/><use x="145.957942" xlink:href="#ab" y="172.573"/><use x="151.68522" xlink:href="#R" y="172.573"/><use x="157.412497" xlink:href="#V" y="172.573"/><use x="163.139775" xlink:href="#an" y="172.573"/><use x="168.867052" xlink:href="#ah" y="172.573"/></g><g><use x="196.412" xlink:href="#f" y="172.573"/><use x="201.260004" xlink:href="#h" y="172.573"/><use x="204.290552" xlink:href="#g" y="172.573"/><use x="209.745102" xlink:href="#d" y="172.573"/><use x="214.047651" xlink:href="#d" y="172.573"/><use x="218.3502" xlink:href="#e" y="172.573"/><use x="221.380748" xlink:href="#f" y="172.573"/><use x="226.228752" xlink:href="#g" y="172.573"/><use x="231.683302" xlink:href="#h" y="172.573"/></g><g><use x="238.34658" xlink:href="#q" y="172.573"/><use x="242.619675" xlink:href="#g" y="172.573"/><use x="248.074225" xlink:href="#J" y="172.573"/><use x="254.135321" xlink:href="#e" y="172.573"/><use x="257.165869" xlink:href="#K" y="172.573"/><use x="263.226965" xlink:href="#d" y="172.573"/></g><g><use x="271.173153" xlink:href="#i" y="172.573"/><use x="276.627703" xlink:href="#L" y="172.573"/></g><g><use x="284.445164" xlink:href="#M" y="172.573"/><use x="290.50626" xlink:href="#q" y="172.573"/><use x="294.779355" xlink:href="#i" y="172.573"/><use x="300.233905" xlink:href="#k" y="172.573"/><use x="304.476454" xlink:href="#i" y="172.573"/><use x="309.931004" xlink:href="#j" y="172.573"/></g><g><use x="319.62483" xlink:href="#e" y="172.573"/><use x="322.655378" xlink:href="#j" y="172.573"/></g><use x="332.349204" xlink:href="#y" y="172.573"/><g><use x="145.957" xlink:href="#O" y="190.264"/><use x="151.684277" xlink:href="#aq" y="190.264"/><use x="157.411555" xlink:href="#ao" y="190.264"/><use x="163.138832" xlink:href="#an" y="190.264"/><use x="168.86611" xlink:href="#ar" y="190.264"/></g><use x="196.412" xlink:href="#aI" y="190.264"/><use x="202.985" xlink:href="#aU" y="191.9"/><use x="210.748" xlink:href="#aL" y="190.264"/><use x="222.263" xlink:href="#s" y="190.264"/><use x="227.717" xlink:href="#aE" y="190.264"/><g><use x="234.739188" xlink:href="#aA" y="190.264"/><use x="241.025011" xlink:href="#az" y="190.264"/></g><use x="246.476" xlink:href="#D" y="190.264"/><g><use x="250.719" xlink:href="#ay" y="190.264"/><use x="255.440458" xlink:href="#aD" y="190.264"/></g><use x="260.519" xlink:href="#aV" y="185.76"/><use x="260.519" xlink:href="#aX" y="192.961"/><use x="265.251" xlink:href="#E" y="190.264"/><g><use x="117.321" xlink:href="#O" y="207.954"/><use x="123.048277" xlink:href="#aq" y="207.954"/><use x="128.775555" xlink:href="#al" y="207.954"/><use x="134.502832" xlink:href="#P" y="207.954"/><use x="140.23011" xlink:href="#ah" y="207.954"/><use x="145.957387" xlink:href="#V" y="207.954"/><use x="151.684665" xlink:href="#aa" y="207.954"/><use x="157.411942" xlink:href="#ag" y="207.954"/><use x="163.13922" xlink:href="#ac" y="207.954"/><use x="168.866497" xlink:href="#ar" y="207.954"/></g><use x="196.412" xlink:href="#aJ" y="207.954"/><use x="201.499" xlink:href="#aU" y="209.591"/><use x="209.261" xlink:href="#aL" y="207.954"/><use x="220.777" xlink:href="#B" y="207.954"/><use x="226.231" xlink:href="#az" y="207.954"/><use x="231.686" xlink:href="#D" y="207.954"/><use x="235.928" xlink:href="#aI" y="207.954"/><use x="242.501" xlink:href="#aU" y="209.591"/><use x="247.234" xlink:href="#ay" y="207.954"/><use x="251.955" xlink:href="#aV" y="203.45"/><use x="256.687" xlink:href="#E" y="207.954"/><g><use x="60.049" xlink:href="#al" y="224.492"/><use x="65.776277" xlink:href="#aa" y="224.492"/><use x="71.503555" xlink:href="#Q" y="224.492"/><use x="77.230832" xlink:href="#ad" y="224.492"/><use x="82.95811" xlink:href="#Y" y="224.492"/><use x="88.685387" xlink:href="#ak" y="224.492"/><use x="94.412665" xlink:href="#ag" y="224.492"/><use x="100.139942" xlink:href="#ac" y="224.492"/><use x="105.86722" xlink:href="#as" y="224.492"/><use x="111.594497" xlink:href="#at" y="224.492"/><use x="117.321775" xlink:href="#V" y="224.492"/><use x="123.049052" xlink:href="#ac" y="224.492"/><use x="128.77633" xlink:href="#an" y="224.492"/><use x="134.503607" xlink:href="#ah" y="224.492"/><use x="140.230885" xlink:href="#au" y="224.492"/><use x="145.958162" xlink:href="#ag" y="224.492"/><use x="151.68544" xlink:href="#av" y="224.492"/><use x="157.412717" xlink:href="#Q" y="224.492"/><use x="163.139995" xlink:href="#ak" y="224.492"/><use x="168.867272" xlink:href="#au" y="224.492"/></g><use x="196.412" xlink:href="#D" y="224.492"/><use x="200.654" xlink:href="#aK" y="224.492"/><use x="208.673" xlink:href="#aN" y="224.492"/><g><use x="219.582" xlink:href="#s" y="224.492"/><use x="225.03655" xlink:href="#E" y="224.492"/></g><use x="229.279" xlink:href="#az" y="224.492"/><use x="234.734" xlink:href="#s" y="224.492"/><g><use x="243.82128" xlink:href="#i" y="224.492"/><use x="249.27583" xlink:href="#L" y="224.492"/></g><g><use x="257.093291" xlink:href="#n" y="224.492"/><use x="261.941295" xlink:href="#h" y="224.492"/><use x="264.971843" xlink:href="#n" y="224.492"/><use x="269.819847" xlink:href="#f" y="224.492"/><use x="274.667851" xlink:href="#k" y="224.492"/><use x="278.9104" xlink:href="#q" y="224.492"/><use x="283.183495" xlink:href="#i" y="224.492"/><use x="288.638045" xlink:href="#j" y="224.492"/></g><use x="297.731871" xlink:href="#H" y="224.492"/><use x="309.249698" xlink:href="#A" y="224.492"/><use x="314.703" xlink:href="#aB" y="224.492"/><g><use x="317.734" xlink:href="#A" y="224.492"/><use x="323.18855" xlink:href="#A" y="224.492"/><use x="328.6431" xlink:href="#B" y="224.492"/><use x="334.09765" xlink:href="#B" y="224.492"/><use x="339.5522" xlink:href="#w" y="224.492"/><use x="345.00675" xlink:href="#t" y="224.492"/><use x="350.4613" xlink:href="#z" y="224.492"/><use x="355.91585" xlink:href="#w" y="224.492"/><use x="361.3704" xlink:href="#s" y="224.492"/><use x="366.82495" xlink:href="#B" y="224.492"/><use x="372.2795" xlink:href="#x" y="224.492"/><use x="377.73405" xlink:href="#B" y="224.492"/><use x="383.1886" xlink:href="#s" y="224.492"/><use x="388.64315" xlink:href="#x" y="224.492"/><use x="394.0977" xlink:href="#A" y="224.492"/><use x="399.55225" xlink:href="#A" y="224.492"/><use x="405.0068" xlink:href="#A" y="224.492"/><use x="410.46135" xlink:href="#s" y="224.492"/></g><g><use x="77.231" xlink:href="#aw" y="242.183"/><use x="82.958277" xlink:href="#ag" y="242.183"/><use x="88.685555" xlink:href="#aa" y="242.183"/><use x="94.412832" xlink:href="#Y" y="242.183"/><use x="100.14011" xlink:href="#ax" y="242.183"/><use x="105.867387" xlink:href="#at" y="242.183"/><use x="111.594665" xlink:href="#ab" y="242.183"/><use x="117.321942" xlink:href="#ac" y="242.183"/><use x="123.04922" xlink:href="#ac" y="242.183"/><use x="128.776497" xlink:href="#af" y="242.183"/><use x="134.503775" xlink:href="#ag" y="242.183"/><use x="140.231052" xlink:href="#ac" y="242.183"/><use x="145.95833" xlink:href="#ah" y="242.183"/><use x="151.685607" xlink:href="#Y" y="242.183"/><use x="157.412885" xlink:href="#ab" y="242.183"/><use x="163.140162" xlink:href="#ac" y="242.183"/><use x="168.86744" xlink:href="#Y" y="242.183"/></g><use x="196.412" xlink:href="#B" y="242.183"/><use x="201.866" xlink:href="#aB" y="242.183"/><g><use x="204.897" xlink:href="#F" y="242.183"/><use x="210.35155" xlink:href="#x" y="242.183"/><use x="215.8061" xlink:href="#A" y="242.183"/><use x="221.26065" xlink:href="#z" y="242.183"/><use x="226.7152" xlink:href="#v" y="242.183"/><use x="232.16975" xlink:href="#t" y="242.183"/></g><use x="240.048" xlink:href="#aM" y="242.183"/><g><use x="250.957" xlink:href="#B" y="242.183"/><use x="256.41155" xlink:href="#A" y="242.183"/></g><use x="261.866" xlink:href="#aO" y="237.678"/><g><use x="268.453" xlink:href="#aV" y="237.678"/><use x="272.687514" xlink:href="#aP" y="237.678"/></g><use x="281.056" xlink:href="#C" y="242.183"/><use x="286.662" xlink:href="#az" y="242.183"/><use x="292.116" xlink:href="#N" y="242.183"/><use x="300.601" xlink:href="#aB" y="242.183"/></svg>