<svg height="559pt" viewBox="0 0 517 559" width="517pt" xmlns="http://www.w3.org/2000/svg" xmlns:xlink="http://www.w3.org/1999/xlink"><symbol id="a" overflow="visible"><path d="m7.265625-7.390625h-6.671875l-.203125 2.46875h.28125c.140625-1.765625.3125-2.125 1.953125-2.125.203125 0 .484375 0 .59375.015625.234375.046875.234375.171875.234375.421875v5.75c0 .375 0 .515625-1.15625.515625h-.4375v.34375c.453125-.03125 1.5625-.03125 2.0625-.03125s1.625 0 2.078125.03125v-.34375h-.4375c-1.140625 0-1.140625-.140625-1.140625-.515625v-5.75c0-.21875 0-.375.1875-.421875.125-.015625.421875-.015625.625-.015625 1.640625 0 1.8125.359375 1.96875 2.125h.265625zm0 0"/></symbol><symbol id="b" overflow="visible"><path d="m1.203125-.828125c0 .484375-.125.484375-.859375.484375v.34375c.390625-.015625.9375-.03125 1.234375-.03125.28125 0 .859375.015625 1.21875.03125v-.34375c-.71875 0-.84375 0-.84375-.484375v-2c0-1.140625.765625-1.75 1.46875-1.75.6875 0 .8125.59375.8125 1.203125v2.546875c0 .484375-.125.484375-.859375.484375v.34375c.390625-.015625.9375-.03125 1.234375-.03125.28125 0 .859375.015625 1.21875.03125v-.34375c-.5625 0-.828125 0-.84375-.328125v-2.078125c0-.9375 0-1.28125-.34375-1.671875-.140625-.1875-.5-.40625-1.140625-.40625-.921875 0-1.390625.65625-1.578125 1.078125v-3.8125l-1.578125.109375v.34375c.765625 0 .859375.078125.859375.609375zm0 0"/></symbol><symbol id="c" overflow="visible"><path d="m1.21875-2.75c.0625-1.625.984375-1.890625 1.359375-1.890625 1.125 0 1.234375 1.46875 1.234375 1.890625zm-.015625.234375h3.046875c.25 0 .28125 0 .28125-.234375 0-1.078125-.59375-2.140625-1.953125-2.140625-1.265625 0-2.265625 1.125-2.265625 2.484375 0 1.46875 1.140625 2.53125 2.390625 2.53125 1.328125 0 1.828125-1.21875 1.828125-1.421875 0-.109375-.09375-.125-.140625-.125-.109375 0-.125.0625-.140625.140625-.390625 1.125-1.375 1.125-1.484375 1.125-.546875 0-.984375-.328125-1.234375-.734375-.328125-.515625-.328125-1.234375-.328125-1.625zm0 0"/></symbol><symbol id="d" overflow="visible"><path d="m1.890625-4.359375h1.5625v-.34375h-1.5625v-2h-.28125c0 .890625-.328125 2.0625-1.40625 2.09375v.25h.9375v3c0 1.34375 1.015625 1.484375 1.40625 1.484375.765625 0 1.078125-.78125 1.078125-1.484375v-.609375h-.28125v.59375c0 .8125-.328125 1.21875-.71875 1.21875-.734375 0-.734375-.984375-.734375-1.171875zm0 0"/></symbol><symbol id="e" overflow="visible"><path d="m1.828125-3.625v-1.203125l-1.515625.125v.34375c.75 0 .84375.078125.84375.609375v2.921875c0 .484375-.125.484375-.84375.484375v.34375c.421875-.015625.9375-.03125 1.234375-.03125.4375 0 .953125 0 1.390625.03125v-.34375h-.234375c-.8125 0-.828125-.109375-.828125-.5v-1.6875c0-1.078125.453125-2.046875 1.28125-2.046875.078125 0 .109375 0 .125.015625-.03125 0-.25.140625-.25.421875 0 .296875.234375.46875.46875.46875.203125 0 .46875-.140625.46875-.484375s-.34375-.671875-.8125-.671875c-.796875 0-1.1875.734375-1.328125 1.203125zm0 0"/></symbol><symbol id="f" overflow="visible"><path d="m3.625-.828125c.046875.4375.34375.890625.859375.890625.234375 0 .890625-.15625.890625-1.03125v-.609375h-.265625v.609375c0 .625-.28125.703125-.390625.703125-.359375 0-.40625-.5-.40625-.546875v-2.1875c0-.453125 0-.875-.390625-1.28125-.4375-.4375-.984375-.609375-1.5-.609375-.890625 0-1.640625.515625-1.640625 1.234375 0 .328125.21875.515625.5.515625.296875 0 .5-.21875.5-.5 0-.140625-.0625-.5-.5625-.5.296875-.390625.828125-.5 1.1875-.5.53125 0 1.15625.421875 1.15625 1.390625v.40625c-.5625.03125-1.328125.0625-2.015625.390625-.8125.375-1.09375.9375-1.09375 1.421875 0 .875 1.0625 1.15625 1.75 1.15625.71875 0 1.21875-.4375 1.421875-.953125zm-.0625-1.796875v1.09375c0 1.046875-.796875 1.40625-1.28125 1.40625-.53125 0-.984375-.375-.984375-.921875 0-.59375.453125-1.5 2.265625-1.578125zm0 0"/></symbol><symbol id="g" overflow="visible"><path d="m1.203125-3.75v2.921875c0 .484375-.125.484375-.859375.484375v.34375c.390625-.015625.9375-.03125 1.234375-.03125.28125 0 .859375.015625 1.21875.03125v-.34375c-.71875 0-.84375 0-.84375-.484375v-2c0-1.140625.765625-1.75 1.46875-1.75.6875 0 .8125.59375.8125 1.203125v2.546875c0 .484375-.125.484375-.859375.484375v.34375c.390625-.015625.9375-.03125 1.234375-.03125.28125 0 .859375.015625 1.21875.03125v-.34375c-.5625 0-.828125 0-.84375-.328125v-2.078125c0-.9375 0-1.28125-.34375-1.671875-.140625-.1875-.5-.40625-1.140625-.40625-.796875 0-1.3125.46875-1.609375 1.15625v-1.15625l-1.546875.125v.34375c.765625 0 .859375.078125.859375.609375zm0 0"/></symbol><symbol id="h" overflow="visible"><path d="m2.265625-2.109375c.25.03125 1.140625.21875 1.140625 1 0 .546875-.390625.984375-1.234375.984375-.921875 0-1.3125-.609375-1.515625-1.546875-.03125-.140625-.046875-.1875-.15625-.1875-.140625 0-.140625.078125-.140625.28125v1.4375c0 .1875 0 .265625.125.265625.046875 0 .0625-.015625.265625-.21875.03125-.03125.03125-.046875.21875-.25.484375.453125.96875.46875 1.203125.46875 1.25 0 1.75-.734375 1.75-1.515625 0-.578125-.328125-.90625-.453125-1.046875-.359375-.34375-.78125-.4375-1.25-.515625-.609375-.125-1.328125-.265625-1.328125-.890625 0-.390625.28125-.828125 1.21875-.828125 1.1875 0 1.25.96875 1.265625 1.3125.015625.09375.109375.09375.140625.09375.140625 0 .140625-.046875.140625-.25v-1.109375c0-.1875 0-.265625-.125-.265625-.046875 0-.078125 0-.21875.140625-.03125.03125-.140625.140625-.1875.171875-.40625-.3125-.859375-.3125-1.015625-.3125-1.328125 0-1.75.734375-1.75 1.34375 0 .390625.171875.6875.46875.921875.34375.296875.65625.359375 1.4375.515625zm0 0"/></symbol><symbol id="i" overflow="visible"><path d="m1.90625-4.703125v-1.265625c0-.953125.53125-1.484375 1-1.484375.03125 0 .203125 0 .359375.078125-.125.046875-.328125.1875-.328125.453125s.1875.46875.46875.46875c.328125 0 .484375-.203125.484375-.46875 0-.40625-.40625-.765625-.984375-.765625-.75 0-1.6875.578125-1.6875 1.734375v1.25h-.859375v.34375h.859375v3.53125c0 .484375-.125.484375-.84375.484375v.34375c.421875-.015625.9375-.03125 1.234375-.03125.4375 0 .953125 0 1.390625.03125v-.34375h-.234375c-.796875 0-.828125-.109375-.828125-.5v-3.515625h1.25v-.34375zm0 0"/></symbol><symbol id="j" overflow="visible"><path d="m5.140625-2.328125c0-1.40625-1.09375-2.5625-2.421875-2.5625-1.359375 0-2.40625 1.1875-2.40625 2.5625 0 1.40625 1.125 2.453125 2.40625 2.453125 1.3125 0 2.421875-1.078125 2.421875-2.453125zm-2.421875 2.171875c-.46875 0-.9375-.21875-1.234375-.734375-.28125-.46875-.28125-1.140625-.28125-1.53125 0-.421875 0-1.015625.265625-1.5.296875-.5.8125-.71875 1.25-.71875.484375 0 .953125.234375 1.234375.703125s.28125 1.109375.28125 1.515625c0 .390625 0 .984375-.25 1.46875-.234375.484375-.71875.796875-1.265625.796875zm0 0"/></symbol><symbol id="k" overflow="visible"><path d="m1.203125-3.75v2.921875c0 .484375-.125.484375-.859375.484375v.34375c.390625-.015625.9375-.03125 1.234375-.03125.28125 0 .859375.015625 1.21875.03125v-.34375c-.71875 0-.84375 0-.84375-.484375v-2c0-1.140625.765625-1.75 1.46875-1.75.6875 0 .8125.59375.8125 1.203125v2.546875c0 .484375-.125.484375-.859375.484375v.34375c.390625-.015625.9375-.03125 1.234375-.03125.28125 0 .859375.015625 1.21875.03125v-.34375c-.71875 0-.84375 0-.84375-.484375v-2c0-1.140625.78125-1.75 1.46875-1.75s.8125.59375.8125 1.203125v2.546875c0 .484375-.125.484375-.859375.484375v.34375c.390625-.015625.9375-.03125 1.234375-.03125.28125 0 .859375.015625 1.21875.03125v-.34375c-.5625 0-.828125 0-.84375-.328125v-2.078125c0-.9375 0-1.28125-.34375-1.671875-.140625-.1875-.5-.40625-1.140625-.40625-.921875 0-1.390625.65625-1.578125 1.078125-.15625-.953125-.96875-1.078125-1.453125-1.078125-.796875 0-1.3125.46875-1.609375 1.15625v-1.15625l-1.546875.125v.34375c.765625 0 .859375.078125.859375.609375zm0 0"/></symbol><symbol id="l" overflow="visible"><path d="m1.9375-4.828125-1.53125.125v.34375c.703125 0 .796875.0625.796875.59375v2.9375c0 .484375-.109375.484375-.84375.484375v.34375c.34375-.015625.9375-.03125 1.203125-.03125.375 0 .765625.015625 1.125.03125v-.34375c-.71875 0-.75-.046875-.75-.46875zm.03125-1.890625c0-.34375-.265625-.578125-.578125-.578125-.328125 0-.578125.296875-.578125.578125 0 .296875.25.578125.578125.578125.3125 0 .578125-.234375.578125-.578125zm0 0"/></symbol><symbol id="m" overflow="visible"><path d="m3.125-2.5625c.328125-.421875.75-.953125 1.015625-1.234375.328125-.390625.78125-.5625 1.296875-.5625v-.34375c-.296875.03125-.609375.03125-.90625.03125-.328125 0-.90625-.015625-1.046875-.03125v.34375c.234375.015625.328125.15625.328125.328125 0 .1875-.109375.328125-.171875.390625l-.671875.84375-.859375-1.09375c-.09375-.109375-.09375-.140625-.09375-.203125 0-.15625.171875-.265625.390625-.265625v-.34375c-.296875.015625-1.015625.03125-1.1875.03125-.21875 0-.734375 0-1.03125-.03125v.34375c.765625 0 .765625 0 1.28125.65625l1.078125 1.40625-1.015625 1.296875c-.53125.640625-1.171875.65625-1.40625.65625v.34375c.296875-.015625.625-.03125.90625-.03125.328125 0 .78125.015625 1.046875.03125v-.34375c-.25-.03125-.328125-.171875-.328125-.328125 0-.25.328125-.609375.984375-1.390625l.828125 1.09375c.09375.125.234375.296875.234375.359375 0 .09375-.09375.265625-.390625.265625v.34375c.328125-.015625.9375-.03125 1.171875-.03125.296875 0 .71875.015625 1.046875.03125v-.34375c-.59375 0-.78125-.015625-1.03125-.328125zm0 0"/></symbol><symbol id="n" overflow="visible"><path d="m1.875-4.09375v-.734375l-1.5625.125v.34375c.765625 0 .84375.0625.84375.546875v5.09375c0 .5-.125.5-.84375.5v.328125c.359375 0 .9375-.03125 1.21875-.03125.296875 0 .84375.03125 1.234375.03125v-.328125c-.734375 0-.859375 0-.859375-.5v-1.921875c.0625.171875.515625.765625 1.34375.765625 1.296875 0 2.4375-1.078125 2.4375-2.484375 0-1.375-1.0625-2.46875-2.28125-2.46875-.859375 0-1.3125.484375-1.53125.734375zm.03125 2.84375v-2.421875c.3125-.5625.859375-.875 1.40625-.875.796875 0 1.46875.953125 1.46875 2.1875 0 1.328125-.765625 2.234375-1.578125 2.234375-.4375 0-.84375-.21875-1.140625-.65625-.15625-.234375-.15625-.25-.15625-.46875zm0 0"/></symbol><symbol id="o" overflow="visible"><path d="m4.53125-3.671875c.28125-.6875.828125-.6875 1.015625-.6875v-.34375c-.25.03125-.578125.03125-.828125.03125-.1875 0-.703125-.015625-.9375-.03125v.34375c.328125 0 .5.1875.5.46875 0 .109375 0 .125-.0625.265625l-1.09375 2.671875-1.21875-2.921875c-.046875-.109375-.0625-.15625-.0625-.203125 0-.28125.40625-.28125.609375-.28125v-.34375c-.28125.015625-1 .03125-1.1875.03125-.296875 0-.734375 0-1.0625-.03125v.34375c.53125 0 .734375 0 .890625.375l1.625 3.984375c-.046875.140625-.203125.5-.265625.640625-.234375.609375-.546875 1.359375-1.25 1.359375-.046875 0-.296875 0-.5-.203125.328125-.046875.421875-.28125.421875-.453125 0-.28125-.203125-.453125-.453125-.453125-.21875 0-.46875.140625-.46875.46875 0 .484375.46875.875 1 .875.6875 0 1.140625-.625 1.40625-1.234375zm0 0"/></symbol><symbol id="p" overflow="visible"><path d="m1.28125-2.375c0-1.78125.890625-2.234375 1.46875-2.234375.09375 0 .78125 0 1.171875.40625-.453125.03125-.515625.359375-.515625.5 0 .28125.1875.5.5.5.28125 0 .5-.1875.5-.515625 0-.734375-.828125-1.171875-1.671875-1.171875-1.359375 0-2.359375 1.1875-2.359375 2.53125 0 1.40625 1.078125 2.484375 2.34375 2.484375 1.453125 0 1.8125-1.3125 1.8125-1.421875s-.109375-.109375-.140625-.109375c-.109375 0-.125.046875-.140625.109375-.328125 1.015625-1.03125 1.140625-1.4375 1.140625-.578125 0-1.53125-.46875-1.53125-2.21875zm0 0"/></symbol><symbol id="q" overflow="visible"><path d="m1.9375-7.5625-1.578125.109375v.34375c.765625 0 .84375.078125.84375.609375v5.671875c0 .484375-.109375.484375-.84375.484375v.34375c.359375-.015625.9375-.03125 1.21875-.03125.265625 0 .796875.015625 1.203125.03125v-.34375c-.734375 0-.84375 0-.84375-.484375zm0 0"/></symbol><symbol id="r" overflow="visible"><path d="m4.140625-.59375v.71875l1.609375-.125v-.34375c-.765625 0-.859375-.078125-.859375-.609375v-6.609375l-1.5625.109375v.34375c.765625 0 .84375.078125.84375.609375v2.359375c-.3125-.390625-.78125-.6875-1.375-.6875-1.28125 0-2.421875 1.078125-2.421875 2.484375 0 1.390625 1.0625 2.46875 2.3125 2.46875.6875 0 1.1875-.375 1.453125-.71875zm0-2.921875v2.234375c0 .1875 0 .21875-.109375.390625-.328125.53125-.828125.765625-1.296875.765625-.484375 0-.875-.28125-1.140625-.6875-.28125-.453125-.3125-1.078125-.3125-1.515625 0-.40625.015625-1.0625.328125-1.546875.234375-.34375.640625-.703125 1.234375-.703125.390625 0 .84375.15625 1.1875.65625.109375.1875.109375.203125.109375.40625zm0 0"/></symbol><symbol id="s" overflow="visible"><path d="m3.609375 2.625c0-.046875 0-.0625-.1875-.25-1.359375-1.375-1.703125-3.4375-1.703125-5.09375 0-1.90625.40625-3.796875 1.75-5.171875.140625-.125.140625-.140625.140625-.1875 0-.0625-.046875-.09375-.109375-.09375-.109375 0-1.09375.734375-1.734375 2.125-.5625 1.1875-.6875 2.40625-.6875 3.328125 0 .84375.125 2.15625.71875 3.390625.65625 1.34375 1.59375 2.046875 1.703125 2.046875.0625 0 .109375-.03125.109375-.09375zm0 0"/></symbol><symbol id="t" overflow="visible"><path d="m3.15625-2.71875c0-.859375-.125-2.171875-.71875-3.40625-.65625-1.34375-1.59375-2.046875-1.703125-2.046875-.0625 0-.109375.03125-.109375.09375 0 .046875 0 .0625.203125.265625 1.0625 1.078125 1.6875 2.8125 1.6875 5.09375 0 1.859375-.40625 3.78125-1.75 5.15625-.140625.125-.140625.140625-.140625.1875 0 .0625.046875.09375.109375.09375.109375 0 1.09375-.734375 1.734375-2.125.546875-1.1875.6875-2.40625.6875-3.3125zm0 0"/></symbol><symbol id="u" overflow="visible"><path d="m3.015625-2.046875v-.625h-2.890625v.625zm0 0"/></symbol><symbol id="v" overflow="visible"><path d="m4.265625-.859375v.984375l1.5625-.125v-.34375c-.75 0-.84375-.078125-.84375-.609375v-3.875l-1.609375.125v.34375c.765625 0 .859375.078125.859375.609375v1.9375c0 .953125-.53125 1.6875-1.328125 1.6875-.90625 0-.953125-.5-.953125-1.078125v-3.625l-1.609375.125v.34375c.859375 0 .859375.03125.859375 1v1.640625c0 .84375 0 1.84375 1.65625 1.84375.609375 0 1.09375-.3125 1.40625-.984375zm0 0"/></symbol><symbol id="w" overflow="visible"><path d="m6.75-3.671875c.203125-.53125.53125-.6875.921875-.6875v-.34375c-.25.03125-.5625.03125-.796875.03125-.328125 0-.8125-.015625-1.015625-.03125v.34375c.390625 0 .625.203125.625.515625 0 .0625 0 .09375-.046875.234375l-1 2.796875-1.078125-3.046875c-.046875-.125-.046875-.15625-.046875-.203125 0-.296875.421875-.296875.640625-.296875v-.34375c-.3125.015625-.875.03125-1.140625.03125-.328125 0-.640625 0-.96875-.03125v.34375c.40625 0 .578125.015625.6875.15625.0625.0625.171875.390625.25.609375l-.9375 2.640625-1.03125-2.921875c-.0625-.125-.0625-.15625-.0625-.1875 0-.296875.4375-.296875.65625-.296875v-.34375c-.328125.015625-.9375.03125-1.203125.03125-.03125 0-.609375 0-1-.03125v.34375c.53125 0 .671875.03125.796875.375l1.375 3.859375c.0625.15625.09375.25.234375.25s.15625-.078125.21875-.21875l1.09375-3.09375 1.109375 3.09375c.046875.125.078125.21875.21875.21875.15625 0 .1875-.109375.21875-.21875zm0 0"/></symbol><symbol id="x" overflow="visible"><path d="m2.4375-3.84375v-2.828125c0-.25 0-.390625.25-.421875.109375-.015625.421875-.015625.640625-.015625.984375 0 2.203125.046875 2.203125 1.625 0 .75-.265625 1.640625-1.875 1.640625zm2.3125.140625c1.046875-.265625 1.90625-.9375 1.90625-1.78125 0-1.046875-1.25-1.96875-2.84375-1.96875h-3.4375v.34375h.265625c.84375 0 .859375.125.859375.515625v5.75c0 .390625-.015625.5-.859375.5h-.265625v.34375c.40625-.03125 1.171875-.03125 1.59375-.03125.4375 0 1.203125 0 1.59375.03125v-.34375h-.265625c-.828125 0-.859375-.109375-.859375-.5v-2.765625h1.265625c.171875 0 .625 0 1.015625.375.40625.390625.40625.71875.40625 1.453125 0 .71875 0 1.15625.453125 1.5625.4375.390625 1.046875.453125 1.375.453125.84375 0 1.03125-.890625 1.03125-1.1875 0-.078125 0-.1875-.140625-.1875-.125 0-.125.09375-.140625.171875-.0625.765625-.4375.96875-.71875.96875-.53125 0-.609375-.5625-.765625-1.578125l-.140625-.859375c-.203125-.703125-.734375-1.0625-1.328125-1.265625zm0 0"/></symbol><symbol id="y" overflow="visible"><path d="m7.5-3.5625c.15625 0 .359375 0 .359375-.21875s-.203125-.21875-.359375-.21875h-6.53125c-.15625 0-.359375 0-.359375.21875s.203125.21875.375.21875zm0 2.109375c.15625 0 .359375 0 .359375-.21875s-.203125-.21875-.359375-.21875h-6.515625c-.171875 0-.375 0-.375.21875s.203125.21875.359375.21875zm0 0"/></symbol><symbol id="z" overflow="visible"><path d="m2.453125-6.59375c0-.390625.03125-.515625.890625-.515625h.28125v-.34375c-.375.03125-1.234375.03125-1.65625.03125s-1.28125 0-1.65625-.03125v.34375h.28125c.859375 0 .890625.125.890625.515625v5.75c0 .390625-.03125.5-.890625.5h-.28125v.34375c.375-.03125 1.234375-.03125 1.65625-.03125s1.28125 0 1.65625.03125v-.34375h-.28125c-.859375 0-.890625-.109375-.890625-.5zm0 0"/></symbol><symbol id="A" overflow="visible"><path d="m3.296875-1.609375c0 1-.546875 1.609375-1.125 1.609375-.0625 0-.8125 0-1.203125-.625.5625 0 .703125-.328125.703125-.625 0-.390625-.3125-.609375-.609375-.609375-.25 0-.609375.15625-.609375.640625 0 .796875.765625 1.453125 1.734375 1.453125 1.109375 0 1.90625-.765625 2.03125-1.578125.015625-.078125.015625-.109375.015625-.484375v-4.828125c0-.453125.15625-.453125.84375-.453125v-.34375c-.484375.03125-.90625.03125-1.40625.03125-.46875 0-1.421875 0-1.84375-.03125v.34375h.390625c1.078125 0 1.078125.140625 1.078125.515625zm0 0"/></symbol><symbol id="B" overflow="visible"><path d="m1.4375-3.578125v-.265625c0-2.75 1.359375-3.140625 1.90625-3.140625.265625 0 .71875.0625.96875.4375-.171875 0-.609375 0-.609375.484375 0 .34375.265625.5.5.5.1875 0 .515625-.09375.515625-.515625 0-.65625-.484375-1.1875-1.390625-1.1875-1.390625 0-2.875 1.40625-2.875 3.8125 0 2.921875 1.265625 3.6875 2.28125 3.6875 1.21875 0 2.25-1.015625 2.25-2.453125 0-1.390625-.96875-2.4375-2.1875-2.4375-.734375 0-1.140625.5625-1.359375 1.078125zm1.296875 3.515625c-.6875 0-1.015625-.65625-1.078125-.828125-.1875-.5-.1875-1.375-.1875-1.578125 0-.84375.34375-1.9375 1.328125-1.9375.171875 0 .671875 0 1.015625.671875.1875.40625.1875.96875.1875 1.5 0 .515625 0 1.0625-.1875 1.453125-.328125.65625-.828125.71875-1.078125.71875zm0 0"/></symbol><symbol id="C" overflow="visible"><path d="m5.015625-3.484375c0-.875-.046875-1.75-.4375-2.5625-.5-1.046875-1.390625-1.21875-1.859375-1.21875-.640625 0-1.4375.28125-1.890625 1.296875-.34375.75-.40625 1.609375-.40625 2.484375 0 .8125.046875 1.796875.5 2.625.46875.875 1.265625 1.09375 1.796875 1.09375.578125 0 1.421875-.21875 1.890625-1.265625.359375-.75.40625-1.59375.40625-2.453125zm-2.296875 3.484375c-.421875 0-1.078125-.265625-1.265625-1.3125-.125-.65625-.125-1.671875-.125-2.3125 0-.6875 0-1.40625.09375-2 .203125-1.296875 1.015625-1.40625 1.296875-1.40625.359375 0 1.078125.203125 1.28125 1.28125.109375.609375.109375 1.4375.109375 2.125 0 .828125 0 1.5625-.125 2.265625-.15625 1.03125-.78125 1.359375-1.265625 1.359375zm0 0"/></symbol><symbol id="D" overflow="visible"><path d="m1.875-4.109375v-3.453125l-1.5625.109375v.34375c.75 0 .84375.078125.84375.609375v6.5h.265625c.015625-.015625.109375-.15625.40625-.671875.15625.25.609375.796875 1.421875.796875 1.296875 0 2.4375-1.078125 2.4375-2.484375 0-1.375-1.078125-2.46875-2.3125-2.46875-.859375 0-1.328125.515625-1.5.71875zm.03125 2.859375v-2.234375c0-.21875 0-.21875.125-.390625.421875-.625 1.015625-.703125 1.28125-.703125.5 0 .890625.28125 1.140625.703125.296875.4375.328125 1.0625.328125 1.515625 0 .390625-.03125 1.046875-.34375 1.546875-.234375.328125-.640625.6875-1.234375.6875-.484375 0-.875-.25-1.140625-.65625-.15625-.234375-.15625-.265625-.15625-.46875zm0 0"/></symbol><symbol id="E" overflow="visible"><path d="m3.203125-6.984375c0-.25 0-.28125-.25-.28125-.671875.703125-1.640625.703125-1.984375.703125v.328125c.21875 0 .859375 0 1.4375-.28125v5.65625c0 .390625-.046875.515625-1.015625.515625h-.359375v.34375c.390625-.03125 1.328125-.03125 1.765625-.03125s1.390625 0 1.765625.03125v-.34375h-.34375c-.984375 0-1.015625-.109375-1.015625-.515625zm0 0"/></symbol><symbol id="F" overflow="visible"><path d="m4.453125-2.515625h3.046875c.15625 0 .359375 0 .359375-.203125 0-.21875-.203125-.21875-.359375-.21875h-3.046875v-3.0625c0-.15625 0-.359375-.203125-.359375-.21875 0-.21875.203125-.21875.359375v3.0625h-3.0625c-.15625 0-.359375 0-.359375.21875 0 .203125.203125.203125.359375.203125h3.0625v3.0625c0 .15625 0 .359375.21875.359375.203125 0 .203125-.203125.203125-.359375zm0 0"/></symbol><symbol id="G" overflow="visible"><path d="m1.390625-.84375 1.15625-1.125c1.703125-1.5 2.34375-2.09375 2.34375-3.171875 0-1.25-.96875-2.125-2.3125-2.125-1.21875 0-2.03125 1-2.03125 1.96875 0 .625.546875.625.578125.625.1875 0 .5625-.140625.5625-.578125 0-.296875-.1875-.578125-.578125-.578125-.078125 0-.109375 0-.140625.015625.25-.703125.84375-1.109375 1.46875-1.109375 1 0 1.46875.875 1.46875 1.78125 0 .859375-.546875 1.734375-1.140625 2.40625l-2.09375 2.328125c-.125.125-.125.140625-.125.40625h4.046875l.296875-1.890625h-.265625c-.0625.3125-.125.796875-.234375.96875-.078125.078125-.796875.078125-1.046875.078125zm0 0"/></symbol><symbol id="H" overflow="visible"><path d="m3.15625-3.84375c.90625-.296875 1.53125-1.046875 1.53125-1.921875 0-.890625-.953125-1.5-2-1.5-1.109375 0-1.9375.65625-1.9375 1.484375 0 .359375.25.5625.5625.5625.328125 0 .546875-.234375.546875-.546875 0-.546875-.5-.546875-.671875-.546875.34375-.53125 1.0625-.671875 1.453125-.671875.453125 0 1.046875.234375 1.046875 1.21875 0 .125-.015625.765625-.3125 1.234375-.328125.53125-.6875.5625-.96875.578125-.078125 0-.34375.03125-.421875.03125-.09375 0-.15625.015625-.15625.125 0 .125.0625.125.25.125h.484375c.890625 0 1.296875.734375 1.296875 1.8125 0 1.484375-.75 1.796875-1.234375 1.796875-.46875 0-1.28125-.1875-1.671875-.828125.390625.046875.71875-.1875.71875-.609375 0-.390625-.28125-.609375-.609375-.609375-.25 0-.609375.15625-.609375.640625 0 .984375 1.015625 1.703125 2.203125 1.703125 1.328125 0 2.328125-.984375 2.328125-2.09375 0-.90625-.6875-1.75-1.828125-1.984375zm0 0"/></symbol><symbol id="I" overflow="visible"><path d="m3.203125-1.796875v.953125c0 .390625-.015625.5-.828125.5h-.21875v.34375c.4375-.03125 1-.03125 1.46875-.03125.453125 0 1.03125 0 1.484375.03125v-.34375h-.234375c-.8125 0-.828125-.109375-.828125-.5v-.953125h1.09375v-.34375h-1.09375v-4.953125c0-.21875 0-.296875-.171875-.296875-.09375 0-.140625 0-.21875.140625l-3.34375 5.109375v.34375zm.0625-.34375h-2.65625l2.65625-4.0625zm0 0"/></symbol><symbol id="J" overflow="visible"><path d="m4.53125-3.625c.109375-.25.296875-.734375 1.015625-.734375v-.34375c-.25.03125-.578125.03125-.828125.03125-.265625 0-.765625-.015625-.9375-.03125v.34375c.390625 0 .515625.265625.515625.46875 0 .09375-.015625.140625-.0625.265625l-1.109375 2.78125-1.234375-3.046875c-.0625-.140625-.0625-.171875-.0625-.1875 0-.28125.421875-.28125.625-.28125v-.34375c-.328125.015625-.9375.03125-1.1875.03125-.296875 0-.734375 0-1.0625-.03125v.34375c.6875 0 .734375.0625.875.40625l1.578125 3.859375c.0625.15625.078125.21875.21875.21875s.1875-.109375.234375-.21875zm0 0"/></symbol><symbol id="K" overflow="visible"><path d="m2.421875-1.875c-.953125 0-.953125-1.09375-.953125-1.34375 0-.296875.015625-.640625.171875-.921875.09375-.125.34375-.421875.78125-.421875.953125 0 .953125 1.078125.953125 1.328125 0 .296875-.015625.65625-.171875.921875-.09375.125-.34375.4375-.78125.4375zm-1.265625.421875c0-.046875 0-.296875.1875-.515625.421875.3125.875.34375 1.078125.34375 1.015625 0 1.765625-.75 1.765625-1.59375 0-.40625-.171875-.8125-.453125-1.0625.40625-.359375.796875-.421875.984375-.421875.03125 0 .078125 0 .109375.015625-.109375.046875-.171875.15625-.171875.296875 0 .1875.140625.3125.3125.3125.109375 0 .328125-.078125.328125-.328125 0-.1875-.140625-.53125-.5625-.53125-.21875 0-.703125.0625-1.15625.515625-.453125-.359375-.921875-.40625-1.15625-.40625-1.015625 0-1.765625.765625-1.765625 1.59375 0 .484375.234375.90625.515625 1.125-.140625.171875-.34375.53125-.34375.90625 0 .34375.140625.75.484375.96875-.65625.1875-1 .65625-1 1.09375 0 .78125 1.078125 1.390625 2.40625 1.390625 1.28125 0 2.421875-.5625 2.421875-1.40625 0-.390625-.15625-.9375-.71875-1.25-.578125-.296875-1.203125-.296875-1.875-.296875-.265625 0-.734375 0-.8125-.015625-.34375-.046875-.578125-.375-.578125-.734375zm1.5625 3.453125c-1.09375 0-1.84375-.5625-1.84375-1.140625 0-.5.40625-.90625.890625-.9375h.640625c.9375 0 2.15625 0 2.15625.9375 0 .59375-.765625 1.140625-1.84375 1.140625zm0 0"/></symbol><symbol id="L" overflow="visible"><path d="m2.09375-4.125c0-.3125-.265625-.578125-.578125-.578125s-.578125.265625-.578125.578125.265625.578125.578125.578125.578125-.265625.578125-.578125zm0 3.546875c0-.3125-.265625-.578125-.578125-.578125s-.578125.265625-.578125.578125.265625.578125.578125.578125.578125-.265625.578125-.578125zm0 0"/></symbol><symbol id="M" overflow="visible"><path d="m4.890625-2.1875c0-1.296875-.890625-2.390625-2.0625-2.390625-.53125 0-1 .171875-1.390625.546875v-2.125c.21875.078125.578125.140625.921875.140625 1.34375 0 2.109375-.984375 2.109375-1.125 0-.0625-.03125-.125-.109375-.125 0 0-.03125 0-.078125.03125-.21875.109375-.765625.3125-1.484375.3125-.4375 0-.9375-.0625-1.453125-.296875-.09375-.03125-.109375-.03125-.140625-.03125-.109375 0-.109375.078125-.109375.265625v3.21875c0 .203125 0 .28125.15625.28125.078125 0 .109375-.03125.140625-.09375.125-.171875.53125-.765625 1.40625-.765625.578125 0 .84375.5.9375.703125.171875.40625.1875.828125.1875 1.375 0 .375 0 1.03125-.25 1.484375-.265625.4375-.671875.71875-1.171875.71875-.796875 0-1.421875-.578125-1.609375-1.21875.03125 0 .0625.015625.1875.015625.359375 0 .546875-.265625.546875-.53125s-.1875-.53125-.546875-.53125c-.15625 0-.53125.078125-.53125.578125 0 .9375.75 1.984375 1.96875 1.984375 1.265625 0 2.375-1.046875 2.375-2.421875zm0 0"/></symbol><symbol id="N" overflow="visible"><path d="m2.09375-.578125c0-.3125-.265625-.578125-.578125-.578125s-.578125.265625-.578125.578125.265625.578125.578125.578125.578125-.265625.578125-.578125zm0 0"/></symbol><symbol id="O" overflow="visible"><path d="m4.140625-.671875v1.953125c0 .5-.109375.5-.84375.5v.328125c.375 0 .9375-.03125 1.21875-.03125.296875 0 .84375.03125 1.234375.03125v-.328125c-.734375 0-.859375 0-.859375-.5v-6.109375h-.234375l-.40625 1c-.15625-.3125-.59375-1-1.46875-1-1.265625 0-2.40625 1.0625-2.40625 2.484375 0 1.359375 1.046875 2.46875 2.3125 2.46875.765625 0 1.21875-.46875 1.453125-.796875zm.03125-2.34375v1.53125c0 .34375-.1875.65625-.4375.921875-.140625.140625-.484375.4375-1 .4375-.796875 0-1.453125-.96875-1.453125-2.21875 0-1.296875.765625-2.203125 1.5625-2.203125.875 0 1.328125.953125 1.328125 1.53125zm0 0"/></symbol><symbol id="P" overflow="visible"><path d="m6.34375-2.8125h-.265625c-.125 1.109375-.28125 2.46875-2.203125 2.46875h-.890625c-.515625 0-.53125-.078125-.53125-.4375v-5.8125c0-.359375 0-.515625 1.03125-.515625h.359375v-.34375c-.390625.03125-1.375.03125-1.828125.03125-.421875 0-1.28125 0-1.65625-.03125v.34375h.265625c.84375 0 .859375.125.859375.515625v5.75c0 .390625-.015625.5-.859375.5h-.265625v.34375h5.6875zm0 0"/></symbol><symbol id="Q" overflow="visible"><path d="m2.21875-.015625c0-.6875-.265625-1.140625-.703125-1.140625-.375 0-.578125.296875-.578125.578125s.1875.578125.578125.578125c.171875 0 .3125-.0625.421875-.15625l.015625-.015625c.015625 0 .015625.015625.015625.15625 0 .703125-.296875 1.375-.78125 1.875-.0625.078125-.078125.078125-.078125.125 0 .078125.0625.125.109375.125.140625 0 1-.859375 1-2.125zm0 0"/></symbol><symbol id="R" overflow="visible"><path d="m4.25-4.375c.109375-.125.109375-.140625.109375-.1875 0-.140625-.09375-.140625-.296875-.140625h-3.484375l-.125 1.765625h.28125c.0625-1.125.265625-1.515625 1.46875-1.515625h1.25l-3.046875 4.109375c-.09375.109375-.09375.140625-.09375.1875 0 .15625.0625.15625.28125.15625h3.59375l.1875-2.046875h-.28125c-.09375 1.296875-.3125 1.78125-1.578125 1.78125h-1.296875zm0 0"/></symbol><symbol id="S" overflow="visible"><path d="m3.59375-4.359375c.5 0 .578125.140625.578125.578125v2.953125c0 .484375-.109375.484375-.84375.484375v.34375c.359375-.015625.9375-.03125 1.203125-.03125.28125 0 .8125.015625 1.21875.03125v-.34375c-.734375 0-.859375 0-.859375-.484375v-4l-1.375.09375c-.171875.015625-.171875.015625-.1875.015625-.03125.015625-.046875.015625-.203125.015625h-1.28125v-1.234375c0-1.078125.9375-1.515625 1.609375-1.515625.328125 0 .71875.109375.9375.359375-.4375.03125-.515625.328125-.515625.5 0 .359375.296875.515625.5.515625.25 0 .5-.1875.5-.515625 0-.640625-.59375-1.09375-1.40625-1.09375-1.015625 0-2.3125.5625-2.3125 1.75v1.234375h-.859375v.34375h.859375v3.53125c0 .484375-.125.484375-.84375.484375v.34375c.359375-.015625.9375-.03125 1.203125-.03125s.8125.015625 1.203125.03125v-.34375c-.71875 0-.84375 0-.84375-.484375v-3.53125zm0 0"/></symbol><symbol id="T" overflow="visible"><path d="m5.1875-6.640625c.109375-.125.109375-.15625.109375-.390625h-2.65625c-1.328125 0-1.359375-.140625-1.390625-.34375h-.28125l-.359375 2.25h.28125c.03125-.171875.125-.859375.265625-1 .078125-.0625.921875-.0625 1.0625-.0625h2.265625c-.125.171875-.984375 1.359375-1.21875 1.734375-.984375 1.46875-1.34375 2.984375-1.34375 4.09375 0 .109375 0 .59375.5.59375s.5-.484375.5-.59375v-.5625c0-.59375.03125-1.1875.125-1.78125.046875-.25.1875-1.1875.671875-1.859375zm0 0"/></symbol><symbol id="U" overflow="visible"><path d="m3.640625-3.296875c.0625-.28125.3125-1.28125 1.078125-1.28125.0625 0 .3125 0 .546875.140625-.296875.046875-.515625.328125-.515625.59375 0 .171875.109375.375.40625.375.25 0 .59375-.203125.59375-.625 0-.578125-.640625-.734375-1.015625-.734375-.640625 0-1.015625.578125-1.140625.84375-.28125-.734375-.875-.84375-1.1875-.84375-1.125 0-1.75 1.421875-1.75 1.6875 0 .109375.109375.109375.125.109375.09375 0 .125-.015625.140625-.125.375-1.15625 1.09375-1.421875 1.46875-1.421875.203125 0 .59375.09375.59375.734375 0 .328125-.1875 1.0625-.59375 2.59375-.171875.671875-.5625 1.125-1.03125 1.125-.078125 0-.328125 0-.546875-.140625.265625-.046875.5-.28125.5-.578125s-.234375-.390625-.390625-.390625c-.328125 0-.609375.28125-.609375.640625 0 .5.546875.71875 1.03125.71875.71875 0 1.109375-.765625 1.140625-.828125.140625.390625.53125.828125 1.1875.828125 1.109375 0 1.734375-1.40625 1.734375-1.6875 0-.109375-.09375-.109375-.125-.109375-.09375 0-.125.046875-.140625.125-.359375 1.171875-1.109375 1.421875-1.453125 1.421875-.421875 0-.59375-.34375-.59375-.71875 0-.234375.0625-.46875.171875-.953125zm0 0"/></symbol><symbol id="V" overflow="visible"><path d="m2.21875-.015625c0-.71875-.28125-1.140625-.703125-1.140625-.359375 0-.578125.265625-.578125.578125 0 .296875.21875.578125.578125.578125.125 0 .265625-.046875.375-.140625.046875-.015625.046875-.03125.0625-.03125s.015625.015625.015625.15625c0 .8125-.375 1.46875-.734375 1.828125-.125.125-.125.140625-.125.171875 0 .078125.0625.125.109375.125.125 0 1-.84375 1-2.125zm0 0"/></symbol><symbol id="W" overflow="visible"><path d="m.484375 1.328125c-.078125.375-.109375.453125-.578125.453125-.140625 0-.25 0-.25.203125 0 .09375.046875.125.140625.125.296875 0 .609375-.03125.90625-.03125.359375 0 .734375.03125 1.078125.03125.0625 0 .203125 0 .203125-.21875 0-.109375-.109375-.109375-.265625-.109375-.546875 0-.546875-.078125-.546875-.171875 0-.140625.46875-1.921875.546875-2.1875.140625.3125.4375.703125 1 .703125 1.265625 0 2.625-1.59375 2.625-3.203125 0-1.015625-.625-1.75-1.453125-1.75-.546875 0-1.0625.40625-1.421875.828125-.109375-.59375-.578125-.828125-.984375-.828125-.5 0-.703125.4375-.8125.625-.1875.375-.328125 1.03125-.328125 1.0625 0 .109375.109375.109375.125.109375.109375 0 .125-.015625.1875-.25.1875-.78125.40625-1.296875.796875-1.296875.1875 0 .328125.078125.328125.5 0 .25-.03125.375-.0625.5625zm1.921875-4.734375c.078125-.296875.375-.59375.578125-.765625.375-.328125.6875-.40625.875-.40625.4375 0 .703125.375.703125 1.015625 0 .65625-.359375 1.90625-.5625 2.3125-.375.765625-.890625 1.125-1.296875 1.125-.71875 0-.859375-.90625-.859375-.96875 0-.015625 0-.046875.03125-.171875zm0 0"/></symbol><symbol id="X" overflow="visible"><path d="m5.296875-4.15625c.046875-.15625.046875-.171875.046875-.25 0-.203125-.15625-.296875-.3125-.296875-.109375 0-.28125.0625-.390625.234375-.015625.046875-.109375.390625-.140625.59375-.078125.28125-.15625.578125-.21875.859375l-.5 1.96875c-.046875.15625-.515625.921875-1.234375.921875-.546875 0-.671875-.46875-.671875-.875 0-.5.1875-1.1875.5625-2.140625.171875-.453125.21875-.5625.21875-.78125 0-.5-.359375-.90625-.90625-.90625-1.03125 0-1.4375 1.59375-1.4375 1.6875 0 .109375.109375.109375.140625.109375.109375 0 .109375-.015625.171875-.203125.296875-1.015625.734375-1.34375 1.09375-1.34375.09375 0 .28125 0 .28125.34375 0 .28125-.109375.5625-.1875.765625-.4375 1.15625-.640625 1.78125-.640625 2.296875 0 .96875.6875 1.296875 1.34375 1.296875.421875 0 .78125-.1875 1.09375-.5-.140625.578125-.265625 1.109375-.703125 1.6875-.28125.359375-.703125.6875-1.203125.6875-.15625 0-.640625-.03125-.828125-.46875.171875 0 .3125 0 .46875-.125.109375-.09375.21875-.234375.21875-.453125 0-.328125-.296875-.375-.40625-.375-.25 0-.609375.171875-.609375.703125 0 .546875.484375.953125 1.15625.953125 1.125 0 2.25-.984375 2.546875-2.21875zm0 0"/></symbol><symbol id="Y" overflow="visible"><path d="m5.296875-4.484375-.921875-2.171875c-.03125-.078125-.0625-.125-.0625-.140625 0-.0625.1875-.265625.65625-.3125.109375-.015625.21875-.015625.21875-.203125 0-.140625-.140625-.140625-.171875-.140625-.453125 0-.921875.03125-1.375.03125-.265625 0-.953125-.03125-1.21875-.03125-.0625 0-.203125 0-.203125.21875 0 .125.109375.125.25.125.65625 0 .734375.109375.828125.34375l1.28125 3.046875-2.296875 2.46875-.140625.125c-.53125.578125-1.046875.75-1.609375.78125-.140625.015625-.234375.015625-.234375.21875 0 .015625 0 .125.140625.125.328125 0 .6875-.03125 1.03125-.03125.390625 0 .828125.03125 1.21875.03125.0625 0 .1875 0 .1875-.21875 0-.109375-.109375-.125-.125-.125-.09375 0-.4375-.03125-.4375-.328125 0-.171875.15625-.359375.296875-.5l1.109375-1.171875.984375-1.0625 1.09375 2.59375c.046875.125.0625.140625.0625.15625 0 .09375-.203125.28125-.640625.3125-.109375.015625-.21875.03125-.21875.21875 0 .125.125.125.171875.125.296875 0 1.0625-.03125 1.375-.03125.265625 0 .9375.03125 1.203125.03125.078125 0 .21875 0 .21875-.203125 0-.140625-.109375-.140625-.203125-.140625-.734375 0-.75-.03125-.9375-.46875-.421875-1.015625-1.15625-2.71875-1.40625-3.375.734375-.765625 1.890625-2.0625 2.234375-2.359375.3125-.265625.734375-.53125 1.390625-.5625.140625-.015625.234375-.015625.234375-.21875 0-.015625 0-.125-.140625-.125-.328125 0-.6875.03125-1.03125.03125-.40625 0-.8125-.03125-1.203125-.03125-.0625 0-.203125 0-.203125.21875 0 .078125.046875.109375.125.125.09375.015625.4375.03125.4375.34375 0 .140625-.125.28125-.203125.390625zm0 0"/></symbol><symbol id="Z" overflow="visible"><path d="m3.296875-3.453125h1.859375c1.546875 0 3.0625-1.125 3.0625-2.34375 0-.84375-.71875-1.65625-2.140625-1.65625h-3.53125c-.21875 0-.328125 0-.328125.21875 0 .125.09375.125.3125.125.140625 0 .34375.015625.46875.015625.171875.03125.234375.0625.234375.171875 0 .046875 0 .078125-.03125.21875l-1.46875 5.859375c-.109375.421875-.125.5-1 .5-.171875 0-.296875 0-.296875.21875 0 .125.125.125.15625.125.3125 0 1.078125-.03125 1.390625-.03125.234375 0 .46875.015625.703125.015625s.46875.015625.703125.015625c.078125 0 .21875 0 .21875-.21875 0-.125-.09375-.125-.3125-.125-.390625 0-.703125 0-.703125-.1875 0-.0625.03125-.125.03125-.1875zm.796875-3.25c.09375-.375.109375-.40625.578125-.40625h1.046875c.90625 0 1.484375.296875 1.484375 1.046875 0 .421875-.21875 1.359375-.640625 1.75-.546875.5-1.203125.578125-1.671875.578125h-1.546875zm0 0"/></symbol><symbol id="aa" overflow="visible"><path d="m6.515625-6.203125.140625-.15625c.328125-.328125.6875-.703125 1.4375-.75.125-.015625.21875-.015625.21875-.203125 0-.09375-.0625-.140625-.140625-.140625-.28125 0-.609375.03125-.890625.03125-.359375 0-.75-.03125-1.09375-.03125-.0625 0-.203125 0-.203125.21875 0 .109375.09375.125.15625.125.078125 0 .390625.015625.390625.25 0 .1875-.25.46875-.296875.515625l-2.53125 2.921875-1.1875-3.234375c-.078125-.15625-.078125-.1875-.078125-.1875 0-.265625.546875-.265625.65625-.265625.140625 0 .25 0 .25-.21875 0-.125-.125-.125-.15625-.125-.3125 0-1.078125.03125-1.375.03125-.28125 0-.953125-.03125-1.21875-.03125-.0625 0-.21875 0-.21875.21875 0 .125.109375.125.25.125.65625 0 .703125.09375.796875.375l1.34375 3.578125c.015625.03125.046875.15625.046875.1875s-.4375 1.796875-.484375 1.984375c-.140625.609375-.15625.640625-1.03125.640625-.203125 0-.296875 0-.296875.21875 0 .125.140625.125.15625.125.3125 0 1.0625-.03125 1.375-.03125.296875 0 1.09375.03125 1.390625.03125.078125 0 .21875 0 .21875-.21875 0-.125-.109375-.125-.3125-.125-.015625 0-.234375 0-.421875-.015625-.21875-.015625-.28125-.046875-.28125-.171875 0-.078125.09375-.46875.140625-.6875l.390625-1.546875c.046875-.203125.0625-.234375.15625-.328125zm0 0"/></symbol><symbol id="ab" overflow="visible"><path d="m2.515625-3.828125c.0625-.234375.171875-.640625.171875-.703125 0-.1875-.140625-.296875-.328125-.296875-.03125 0-.328125.015625-.421875.40625l-1.578125 6.3125c-.03125.125-.03125.15625-.03125.171875 0 .15625.125.296875.296875.296875.234375 0 .375-.203125.390625-.234375.046875-.09375.1875-.65625.59375-2.34375.359375.296875.84375.34375 1.0625.34375.765625 0 1.1875-.5 1.453125-.796875.09375.484375.5.796875.984375.796875.375 0 .625-.25.796875-.609375.1875-.390625.328125-1.046875.328125-1.078125 0-.109375-.09375-.109375-.125-.109375-.109375 0-.125.046875-.15625.203125-.1875.703125-.375 1.34375-.828125 1.34375-.296875 0-.328125-.28125-.328125-.5 0-.234375.125-.75.21875-1.125l.3125-1.1875c.03125-.15625.140625-.578125.171875-.734375.0625-.25.171875-.671875.171875-.734375 0-.203125-.15625-.296875-.3125-.296875-.0625 0-.34375.015625-.4375.390625l-.5 2.03125c-.140625.546875-.25 1-.28125 1.109375-.015625.0625-.546875 1.046875-1.421875 1.046875-.546875 0-.8125-.359375-.8125-.9375 0-.328125.078125-.625.15625-.9375zm0 0"/></symbol><symbol id="ac" overflow="visible"><path d="m2.09375-.578125c0-.3125-.265625-.578125-.578125-.578125s-.578125.265625-.578125.578125.265625.578125.578125.578125.578125-.265625.578125-.578125zm0 0"/></symbol><symbol id="ad" overflow="visible"><path d="m4.0625-4.125c-.1875-.40625-.5-.703125-1-.703125-1.28125 0-2.625 1.609375-2.625 3.203125 0 1.03125.59375 1.75 1.453125 1.75.21875 0 .765625-.046875 1.40625-.828125.09375.46875.484375.828125 1 .828125.375 0 .625-.25.8125-.609375.1875-.390625.328125-1.046875.328125-1.078125 0-.109375-.109375-.109375-.140625-.109375-.109375 0-.109375.046875-.15625.203125-.171875.703125-.375 1.34375-.828125 1.34375-.28125 0-.328125-.28125-.328125-.5 0-.234375.03125-.328125.15625-.796875.109375-.46875.140625-.578125.234375-.984375l.390625-1.53125c.078125-.3125.078125-.328125.078125-.375 0-.1875-.125-.296875-.3125-.296875-.265625 0-.4375.25-.46875.484375zm-.703125 2.828125c-.0625.203125-.0625.21875-.21875.40625-.484375.59375-.921875.765625-1.234375.765625-.546875 0-.703125-.59375-.703125-1.015625 0-.546875.359375-1.890625.609375-2.390625.34375-.640625.828125-1.046875 1.265625-1.046875.703125 0 .859375.890625.859375.953125s-.015625.140625-.03125.1875zm0 0"/></symbol><symbol id="ae" overflow="visible"><path d="m7.359375-2.484375c.125-.0625.203125-.109375.203125-.234375 0-.140625-.078125-.1875-.203125-.25l-6.046875-2.84375c-.140625-.078125-.15625-.078125-.1875-.078125-.125 0-.21875.09375-.21875.21875 0 .09375.046875.171875.203125.234375l5.734375 2.71875-5.734375 2.703125c-.15625.0625-.203125.140625-.203125.234375 0 .125.09375.21875.21875.21875.03125 0 .046875 0 .1875-.078125zm0 0"/></symbol><symbol id="af" overflow="visible"><path d="m4-3.171875c-.359375.078125-.375.390625-.375.421875 0 .171875.140625.296875.3125.296875s.4375-.140625.4375-.484375c0-.453125-.5-.578125-.796875-.578125-.359375 0-.671875.265625-.859375.578125-.171875-.421875-.578125-.578125-.90625-.578125-.875 0-1.359375 1-1.359375 1.21875 0 .078125.0625.109375.125.109375.09375 0 .109375-.046875.125-.140625.1875-.578125.671875-.96875 1.078125-.96875.3125 0 .46875.234375.46875.515625 0 .15625-.09375.53125-.15625.78125-.0625.234375-.234375.9375-.28125 1.09375-.109375.421875-.390625.765625-.75.765625-.03125 0-.234375 0-.40625-.109375.359375-.09375.359375-.421875.359375-.4375 0-.1875-.140625-.296875-.3125-.296875-.21875 0-.453125.1875-.453125.484375 0 .375.390625.578125.796875.578125.421875 0 .71875-.3125.859375-.578125.1875.390625.546875.578125.9375.578125.859375 0 1.34375-1 1.34375-1.21875 0-.078125-.0625-.109375-.125-.109375-.09375 0-.109375.0625-.140625.140625-.15625.53125-.609375.96875-1.0625.96875-.265625 0-.453125-.171875-.453125-.515625 0-.15625.046875-.34375.15625-.78125.046875-.25.21875-.9375.265625-1.09375.109375-.421875.390625-.765625.75-.765625.046875 0 .25 0 .421875.125zm0 0"/></symbol><symbol id="ag" overflow="visible"><path d="m4.125-3c.03125-.109375.03125-.125.03125-.1875 0-.203125-.15625-.25-.25-.25-.046875 0-.21875.015625-.328125.21875-.015625.046875-.09375.328125-.125.5l-.484375 1.90625c0 .03125-.34375.671875-.921875.671875-.390625 0-.53125-.296875-.53125-.640625 0-.46875.265625-1.171875.453125-1.640625.078125-.203125.109375-.265625.109375-.421875 0-.4375-.359375-.671875-.71875-.671875-.796875 0-1.125 1.125-1.125 1.21875 0 .078125.0625.109375.125.109375.109375 0 .109375-.046875.140625-.125.203125-.703125.546875-.984375.828125-.984375.125 0 .1875.078125.1875.265625 0 .171875-.0625.359375-.109375.5-.328125.84375-.46875 1.25-.46875 1.625 0 .78125.59375.984375 1.0625.984375.375 0 .640625-.171875.84375-.34375-.125.4375-.203125.75-.5 1.140625-.265625.3125-.578125.53125-.9375.53125-.140625 0-.4375-.03125-.59375-.265625.421875-.03125.453125-.390625.453125-.4375 0-.1875-.15625-.296875-.3125-.296875-.1875 0-.453125.140625-.453125.53125 0 .375.34375.6875.90625.6875.8125 0 1.71875-.65625 1.96875-1.609375zm0 0"/></symbol><symbol id="ah" overflow="visible"><path d="m4.15625-3.046875c.390625-.390625 1.515625-1.546875 1.703125-1.703125.34375-.25.546875-.390625 1.109375-.421875.046875-.015625.109375-.0625.109375-.15625 0-.078125-.0625-.109375-.109375-.109375-.078125 0-.125.015625-.75.015625-.59375 0-.8125-.015625-.84375-.015625s-.15625 0-.15625.140625c0 .015625 0 .109375.109375.125.0625 0 .28125.015625.28125.203125 0 .046875-.046875.140625-.109375.203125l-.015625.046875c-.03125.015625-.03125.03125-.109375.109375l-1.328125 1.34375-.8125-1.6875c.109375-.1875.34375-.21875.453125-.21875.03125 0 .140625-.015625.140625-.15625 0-.0625-.046875-.109375-.125-.109375s-.375.015625-.453125.015625c-.046875 0-.34375 0-.515625 0-.75 0-.84375-.015625-.90625-.015625-.03125 0-.15625 0-.15625.140625 0 .125.09375.125.21875.125.40625 0 .46875.078125.546875.21875l1.0625 2.234375-1.640625 1.671875c-.46875.46875-.84375.75-1.40625.78125-.109375.015625-.203125.015625-.203125.15625 0 .046875.046875.109375.125.109375.0625 0 .140625-.03125.75-.03125.578125 0 .8125.03125.84375.03125.046875 0 .171875 0 .171875-.15625 0-.015625-.015625-.09375-.125-.109375-.15625 0-.265625-.0625-.265625-.203125 0-.125.09375-.234375.203125-.359375l.84375-.84375c.1875-.171875.625-.640625.8125-.8125l.921875 1.90625c.03125.078125.03125.078125.03125.09375 0 .0625-.15625.203125-.421875.21875-.0625 0-.171875.015625-.171875.15625 0 0 .015625.109375.140625.109375.078125 0 .375-.015625.453125-.03125h.515625c.734375 0 .84375.03125.921875.03125.03125 0 .140625 0 .140625-.15625 0-.109375-.09375-.109375-.21875-.109375-.4375 0-.484375-.09375-.53125-.21875zm0 0"/></symbol><symbol id="ai" overflow="visible"><path d="m5.0625-4.484375c.046875-.0625.125-.125.1875-.1875.296875-.28125.5625-.46875 1-.5.078125-.015625.171875-.03125.171875-.15625 0-.0625-.0625-.109375-.109375-.109375-.09375 0-.078125.015625-.65625.015625-.53125 0-.71875-.015625-.765625-.015625-.03125 0-.15625 0-.15625.140625 0 .078125.0625.109375.140625.125.234375.015625.234375.09375.234375.140625 0 .15625-.234375.40625-.234375.421875l-1.953125 2.09375-1-2.359375c-.015625-.03125-.046875-.109375-.046875-.140625 0-.15625.375-.15625.4375-.15625.09375 0 .203125 0 .203125-.15625 0-.046875-.03125-.109375-.140625-.109375s-.359375.015625-.484375.015625h-.5c-.734375 0-.84375-.015625-.90625-.015625-.140625 0-.15625.078125-.15625.140625 0 .125.109375.125.21875.125.421875 0 .46875.078125.53125.234375l1.171875 2.75-.359375 1.46875c-.109375.421875-.125.453125-.734375.453125-.125 0-.21875 0-.21875.15625 0 .03125.015625.109375.125.109375.15625 0 .328125-.015625.484375-.03125h1.015625c.125.015625.390625.03125.5.03125.046875 0 .171875 0 .171875-.15625 0-.109375-.109375-.109375-.25-.109375 0 0-.171875 0-.296875-.015625-.171875-.015625-.1875-.03125-.1875-.109375s.09375-.46875.15625-.6875c.09375-.390625.171875-.65625.25-.984375.015625-.109375.03125-.125.09375-.203125zm0 0"/></symbol><symbol id="aj" overflow="visible"><path d="m3.609375-4.828125c.0625-.28125.078125-.296875.40625-.296875h.59375c.828125 0 .921875.265625.921875.65625 0 .203125-.046875.546875-.046875.59375-.015625.078125-.03125.15625-.03125.171875 0 .09375.078125.125.125.125.09375 0 .125-.046875.140625-.203125l.21875-1.5c0-.109375-.09375-.109375-.234375-.109375h-4.703125c-.1875 0-.21875 0-.265625.171875l-.484375 1.375c-.015625.046875-.046875.109375-.046875.15625 0 .0625.0625.109375.125.109375.09375 0 .109375-.046875.15625-.171875.453125-1.28125.671875-1.375 1.890625-1.375h.3125c.234375 0 .25.015625.25.078125 0 .015625-.03125.171875-.046875.203125l-1.046875 4.1875c-.078125.3125-.09375.390625-.921875.390625-.265625 0-.34375 0-.34375.15625 0 0 0 .109375.140625.109375.21875 0 .765625-.03125.984375-.03125h.671875c.21875 0 .78125.03125 1 .03125.0625 0 .1875 0 .1875-.15625 0-.109375-.09375-.109375-.296875-.109375s-.265625 0-.46875-.015625c-.25-.015625-.28125-.046875-.28125-.15625 0-.03125 0-.0625.03125-.140625zm0 0"/></symbol><symbol id="ak" overflow="visible"><path d="m7.640625 25.625c0-.046875-.03125-.078125-.046875-.109375-.40625-.40625-1.140625-1.125-1.875-2.3125-1.75-2.8125-2.546875-6.359375-2.546875-10.546875 0-2.9375.390625-6.71875 2.1875-9.96875.875-1.546875 1.765625-2.453125 2.25-2.921875.03125-.03125.03125-.0625.03125-.09375 0-.109375-.078125-.109375-.234375-.109375s-.171875 0-.34375.171875c-3.65625 3.3125-4.796875 8.3125-4.796875 12.90625 0 4.28125.984375 8.609375 3.75 11.859375.21875.25.640625.703125 1.078125 1.09375.140625.140625.15625.140625.3125.140625s.234375 0 .234375-.109375zm0 0"/></symbol><symbol id="al" overflow="visible"><path d="m5.75 12.65625c0-4.296875-.984375-8.609375-3.75-11.875-.21875-.25-.640625-.6875-1.078125-1.09375-.140625-.125-.15625-.125-.3125-.125-.125 0-.234375 0-.234375.109375 0 .046875.046875.09375.078125.109375.375.390625 1.109375 1.125 1.84375 2.296875 1.75 2.8125 2.546875 6.359375 2.546875 10.5625 0 2.9375-.390625 6.71875-2.1875 9.96875-.875 1.546875-1.765625 2.453125-2.234375 2.90625-.015625.03125-.046875.078125-.046875.109375 0 .109375.109375.109375.234375.109375.15625 0 .171875 0 .34375-.171875 3.65625-3.328125 4.796875-8.3125 4.796875-12.90625zm0 0"/></symbol><symbol id="am" overflow="visible"><path d="m4.078125 19.296875c.234375 0 .3125 0 .3125-.140625.015625-7.65625.90625-14 4.71875-19.328125.078125-.09375.078125-.125.078125-.140625 0-.109375-.078125-.109375-.25-.109375-.1875 0-.203125 0-.21875.015625-.046875.03125-1.4375 1.625-2.53125 3.8125-1.4375 2.890625-2.34375 6.1875-2.75 10.15625-.03125.34375-.265625 2.609375-.265625 5.203125v.421875c.015625.109375.078125.109375.3125.109375zm0 0"/></symbol><symbol id="an" overflow="visible"><path d="m4.390625.1875c0-.28125-.015625-.296875-.3125-.296875h-.59375c-.296875 0-.3125.015625-.3125.296875v6.171875c0 .28125.015625.296875.3125.296875h.59375c.296875 0 .3125-.015625.3125-.296875zm0 0"/></symbol><symbol id="ao" overflow="visible"><path d="m3.484375-.546875c-.234375 0-.296875 0-.3125.125v.421875c0 6.65625 1.1875 10.5625 1.53125 11.671875.734375 2.421875 1.953125 4.96875 3.765625 7.21875.171875.1875.21875.25.25.265625s.03125.03125.21875.03125c.171875 0 .25 0 .25-.109375 0-.03125 0-.046875-.0625-.140625-3.640625-5.046875-4.734375-11.109375-4.734375-19.328125 0-.15625-.078125-.15625-.3125-.15625zm0 0"/></symbol><symbol id="ap" overflow="visible"><path d="m6.359375 18.765625c0-6.671875-1.1875-10.578125-1.53125-11.671875-.734375-2.421875-1.953125-4.984375-3.765625-7.21875-.171875-.203125-.21875-.25-.25-.28125-.03125-.015625-.03125-.015625-.21875-.015625-.15625 0-.25 0-.25.109375 0 .015625 0 .046875.140625.234375 3.796875 5.296875 4.65625 11.84375 4.65625 19.234375 0 .140625.078125.140625.3125.140625h.59375c.234375 0 .296875 0 .3125-.109375zm0 0"/></symbol><symbol id="aq" overflow="visible"><path d="m6.359375.1875c0-.28125-.015625-.296875-.3125-.296875h-.59375c-.296875 0-.3125.015625-.3125.296875v6.171875c0 .28125.015625.296875.3125.296875h.59375c.296875 0 .3125-.015625.3125-.296875zm0 0"/></symbol><symbol id="ar" overflow="visible"><path d="m6.359375-.421875c-.015625-.125-.078125-.125-.3125-.125h-.59375c-.234375 0-.3125 0-.3125.15625 0 1.125 0 3.71875-.28125 6.4375-.59375 5.640625-2.046875 9.53125-4.4375 12.890625-.078125.09375-.078125.109375-.078125.140625 0 .109375.09375.109375.25.109375.1875 0 .203125 0 .21875-.03125.046875-.03125 1.4375-1.625 2.53125-3.8125 1.4375-2.875 2.34375-6.1875 2.75-10.15625.03125-.328125.265625-2.609375.265625-5.1875zm0 0"/></symbol><symbol id="as" overflow="visible"><path d="m7.1875-2.515625c.1875 0 .375 0 .375-.203125 0-.21875-.1875-.21875-.375-.21875h-5.90625c-.1875 0-.375 0-.375.21875 0 .203125.1875.203125.375.203125zm0 0"/></symbol><symbol id="at" overflow="visible"><path d="m7.484375-4.625c.1875 0 .390625 0 .390625-.21875s-.203125-.21875-.375-.21875h-6.515625c-.1875 0-.390625 0-.390625.21875s.21875.21875.40625.21875zm.015625 4.234375c.171875 0 .375 0 .375-.21875s-.203125-.21875-.390625-.21875h-6.484375c-.1875 0-.40625 0-.40625.21875s.203125.21875.390625.21875zm0-2.125c.171875 0 .375 0 .375-.203125 0-.21875-.203125-.21875-.375-.21875h-6.515625c-.1875 0-.390625 0-.390625.21875 0 .203125.203125.203125.390625.203125zm0 0"/></symbol><symbol id="au" overflow="visible"><path d="m7.34375-3.53125c.15625-.0625.21875-.140625.21875-.25 0-.09375-.03125-.171875-.21875-.25l-6-2.828125c-.15625-.078125-.203125-.078125-.21875-.078125-.125 0-.21875.09375-.21875.21875s.09375.1875.203125.234375l5.734375 2.703125-5.703125 2.6875c-.21875.09375-.234375.1875-.234375.25 0 .125.09375.21875.21875.21875.03125 0 .046875 0 .1875-.078125zm-.15625 5.03125c.1875 0 .375 0 .375-.21875s-.21875-.21875-.390625-.21875h-5.875c-.15625 0-.390625 0-.390625.21875s.1875.21875.375.21875zm0 0"/></symbol><symbol id="av" overflow="visible"><path d="m1.703125-6h.78125c1 0 1.484375.640625 1.484375 1.171875s-.484375 1.15625-1.484375 1.15625h-.78125zm2.09375 2.6875c.71875-.40625.921875-1.078125.921875-1.515625 0-.9375-.828125-1.828125-2.109375-1.828125h-1.9375c-.171875 0-.4375 0-.4375.328125s.28125.328125.4375.328125h.28125v5.328125h-.28125c-.171875 0-.4375 0-.4375.34375 0 .328125.28125.328125.4375.328125h1.296875c.171875 0 .4375 0 .4375-.328125 0-.34375-.25-.34375-.4375-.34375h-.265625v-2.328125h.84375c.21875 0 .546875 0 .890625.3125.234375.21875.234375.46875.234375.921875 0 .703125 0 1.03125.203125 1.390625.1875.328125.5.5.875.5.6875 0 .9375-.71875.9375-1.140625 0-.34375-.25-.34375-.375-.34375-.109375 0-.359375 0-.375.328125 0 .078125-.015625.484375-.203125.484375-.3125 0-.3125-.5-.3125-1.078125 0-.6875 0-.78125-.09375-1.03125-.125-.3125-.375-.546875-.53125-.65625zm0 0"/></symbol><symbol id="aw" overflow="visible"><path d="m.421875-2.65625c-.109375.140625-.109375.15625-.109375.375 0 .359375.109375.4375.4375.4375h2.75v1.171875h-.671875c-.171875 0-.4375 0-.4375.34375 0 .328125.265625.328125.4375.328125h1.953125c.171875 0 .4375 0 .4375-.328125 0-.34375-.25-.34375-.4375-.34375h-.671875v-1.171875h.859375c.15625 0 .4375 0 .4375-.328125 0-.34375-.265625-.34375-.4375-.34375h-.859375v-3.828125c0-.359375-.078125-.453125-.4375-.453125h-.3125c-.265625 0-.3125.015625-.453125.234375zm.65625.140625 2.421875-3.796875v3.796875zm0 0"/></symbol><symbol id="ax" overflow="visible"><path d="m.734375-.625c-.109375.078125-.171875.140625-.171875.28125 0 .34375.28125.34375.453125.34375h3.703125c.359375 0 .421875-.09375.421875-.453125v-.28125c0-.203125 0-.4375-.359375-.4375-.390625 0-.390625.203125-.390625.5h-2.59375c.640625-.546875 1.6875-1.375 2.15625-1.796875.6875-.625 1.1875-1.3125 1.1875-2.1875 0-1.3125-1.09375-2.125-2.421875-2.125-1.296875 0-2.15625.890625-2.15625 1.8125 0 .40625.3125.53125.5.53125.21875 0 .46875-.1875.46875-.484375 0-.140625-.046875-.28125-.140625-.359375.15625-.5.671875-.84375 1.265625-.84375.90625 0 1.734375.515625 1.734375 1.46875 0 .765625-.53125 1.390625-1.25 2zm0 0"/></symbol><symbol id="ay" overflow="visible"><path d="m4-3.640625c.609375-.390625.921875-1.015625.921875-1.609375 0-.796875-.796875-1.53125-2.046875-1.53125-1.3125 0-2.078125.515625-2.078125 1.28125 0 .359375.265625.5.484375.5.234375 0 .484375-.1875.484375-.484375 0-.15625-.0625-.265625-.09375-.296875.328125-.34375 1.109375-.34375 1.203125-.34375.75 0 1.296875.40625 1.296875.890625 0 .328125-.171875.703125-.46875.953125-.34375.28125-.609375.296875-1.015625.328125-.609375.03125-.78125.03125-.78125.359375s.265625.328125.4375.328125h.5c1.078125 0 1.640625.734375 1.640625 1.375 0 .65625-.609375 1.34375-1.609375 1.34375-.4375 0-1.265625-.125-1.5625-.625.0625-.0625.140625-.125.140625-.34375 0-.265625-.203125-.484375-.484375-.484375-.25 0-.484375.171875-.484375.515625 0 .96875 1.046875 1.609375 2.390625 1.609375 1.4375 0 2.359375-1.015625 2.359375-2.015625 0-.78125-.515625-1.421875-1.234375-1.75zm0 0"/></symbol><symbol id="az" overflow="visible"><path d="m3.390625-6.34375c0-.171875 0-.4375-.328125-.4375-.203125 0-.265625.125-.328125.265625-.40625.921875-.984375 1.046875-1.1875 1.0625-.171875.015625-.40625.03125-.40625.34375 0 .265625.203125.328125.359375.328125.21875 0 .65625-.078125 1.140625-.484375v4.59375h-1c-.171875 0-.4375 0-.4375.34375 0 .328125.28125.328125.4375.328125h2.75c.15625 0 .4375 0 .4375-.328125 0-.34375-.265625-.34375-.4375-.34375h-1zm0 0"/></symbol><symbol id="aA" overflow="visible"><path d="m.65625-6.65625c-.171875 0-.453125 0-.453125.328125s.28125.328125.453125.328125h.234375v5.328125h-.234375c-.171875 0-.453125 0-.453125.34375 0 .328125.28125.328125.453125.328125h2.25c1.421875 0 2.390625-1.53125 2.390625-3.28125s-.9375-3.375-2.390625-3.375zm.984375 5.984375v-5.328125h1.046875c1.234375 0 1.84375 1.453125 1.84375 2.71875 0 1.28125-.625 2.609375-1.84375 2.609375zm0 0"/></symbol><symbol id="aB" overflow="visible"><path d="m1.0625-.671875h-.328125c-.171875 0-.453125 0-.453125.34375 0 .328125.28125.328125.453125.328125h4.296875c.375 0 .4375-.09375.4375-.453125v-.96875c0-.203125 0-.4375-.359375-.4375-.390625 0-.390625.21875-.390625.4375v.75h-2.90625v-2.453125h1.421875c0 .453125 0 .625.390625.625.359375 0 .359375-.234375.359375-.4375v-1.015625c0-.21875 0-.453125-.359375-.453125-.390625 0-.390625.171875-.390625.625h-1.421875v-2.21875h2.671875v.578125c0 .203125 0 .453125.375.453125s.375-.234375.375-.453125v-.796875c0-.328125-.0625-.4375-.4375-.4375h-4.0625c-.171875 0-.453125 0-.453125.3125 0 .34375.28125.34375.453125.34375h.328125zm0 0"/></symbol><symbol id="aC" overflow="visible"><path d="m3.234375-6h1.4375v.578125c0 .203125 0 .453125.375.453125.390625 0 .390625-.234375.390625-.453125v-.796875c0-.328125-.078125-.4375-.4375-.4375h-4.265625c-.359375 0-.453125.078125-.453125.4375v.796875c0 .203125 0 .453125.375.453125s.375-.234375.375-.453125v-.578125h1.453125v5.328125h-.5625c-.171875 0-.4375 0-.4375.328125 0 .34375.265625.34375.4375.34375h1.890625c.15625 0 .4375 0 .4375-.328125 0-.34375-.265625-.34375-.4375-.34375h-.578125zm0 0"/></symbol><symbol id="aD" overflow="visible"><path d="m2.25-1.625c.125-.125.453125-.390625.59375-.5.484375-.453125.953125-.890625.953125-1.609375 0-.953125-.796875-1.5625-1.78125-1.5625-.96875 0-1.59375.71875-1.59375 1.4375 0 .390625.3125.4375.421875.4375.171875 0 .421875-.109375.421875-.421875 0-.40625-.40625-.40625-.5-.40625.234375-.59375.765625-.78125 1.15625-.78125.734375 0 1.125.625 1.125 1.296875 0 .828125-.578125 1.4375-1.53125 2.390625l-1 1.046875c-.09375.078125-.09375.09375-.09375.296875h3.140625l.234375-1.421875h-.25c-.015625.15625-.078125.546875-.171875.703125-.046875.0625-.65625.0625-.78125.0625h-1.421875zm0 0"/></symbol><symbol id="aE" overflow="visible"><path d="m2.5-5.078125c0-.21875-.015625-.21875-.234375-.21875-.328125.3125-.75.5-1.5.5v.265625c.21875 0 .640625 0 1.109375-.203125v4.078125c0 .296875-.03125.390625-.78125.390625h-.28125v.265625c.328125-.03125 1.015625-.03125 1.375-.03125s1.046875 0 1.375.03125v-.265625h-.28125c-.75 0-.78125-.09375-.78125-.390625zm0 0"/></symbol><symbol id="aF" overflow="visible"><path d="m5.5625-1.8125c.140625 0 .3125 0 .3125-.171875 0-.1875-.171875-.1875-.3125-.1875h-4.5625c-.125 0-.296875 0-.296875.1875 0 .171875.171875.171875.296875.171875zm0 0"/></symbol><g><use x="20.735" xlink:href="#a" y="12.152"/><use x="28.613552" xlink:href="#b" y="12.152"/><use x="34.674648" xlink:href="#c" y="12.152"/></g><g><use x="43.886292" xlink:href="#d" y="12.152"/><use x="48.128841" xlink:href="#e" y="12.152"/><use x="52.401935" xlink:href="#f" y="12.152"/><use x="57.856485" xlink:href="#g" y="12.152"/><use x="63.917581" xlink:href="#h" y="12.152"/><use x="68.22013" xlink:href="#i" y="12.152"/><use x="71.553951" xlink:href="#j" y="12.152"/><use x="77.008501" xlink:href="#e" y="12.152"/><use x="81.281596" xlink:href="#k" y="12.152"/><use x="90.372149" xlink:href="#f" y="12.152"/><use x="95.826699" xlink:href="#d" y="12.152"/><use x="100.069248" xlink:href="#l" y="12.152"/><use x="103.099796" xlink:href="#j" y="12.152"/><use x="108.554346" xlink:href="#g" y="12.152"/></g><g><use x="118.979082" xlink:href="#k" y="12.152"/><use x="128.069635" xlink:href="#f" y="12.152"/><use x="133.524185" xlink:href="#d" y="12.152"/><use x="137.766734" xlink:href="#e" y="12.152"/><use x="142.039828" xlink:href="#l" y="12.152"/><use x="145.070376" xlink:href="#m" y="12.152"/></g><g><use x="155.191839" xlink:href="#i" y="12.152"/><use x="158.52566" xlink:href="#e" y="12.152"/><use x="162.798755" xlink:href="#j" y="12.152"/><use x="168.253305" xlink:href="#k" y="12.152"/></g><g><use x="181.707498" xlink:href="#d" y="12.152"/><use x="185.950047" xlink:href="#b" y="12.152"/><use x="192.011143" xlink:href="#c" y="12.152"/></g><g><use x="201.222787" xlink:href="#n" y="12.152"/><use x="207.283883" xlink:href="#b" y="12.152"/></g><use x="213.050433" xlink:href="#o" y="12.152"/><use x="218.797347" xlink:href="#h" y="12.152"/><g><use x="223.110805" xlink:href="#l" y="12.152"/><use x="226.141353" xlink:href="#p" y="12.152"/><use x="230.989357" xlink:href="#f" y="12.152"/><use x="236.443907" xlink:href="#q" y="12.152"/></g><g><use x="243.838095" xlink:href="#p" y="12.152"/><use x="248.686099" xlink:href="#j" y="12.152"/></g><g><use x="254.435195" xlink:href="#j" y="12.152"/><use x="259.889745" xlink:href="#e" y="12.152"/><use x="264.162839" xlink:href="#r" y="12.152"/><use x="270.223935" xlink:href="#l" y="12.152"/><use x="273.254483" xlink:href="#g" y="12.152"/><use x="279.315579" xlink:href="#f" y="12.152"/><use x="284.770129" xlink:href="#d" y="12.152"/><use x="289.012678" xlink:href="#c" y="12.152"/></g><use x="298.235231" xlink:href="#s" y="12.152"/><g><use x="302.472" xlink:href="#U" y="12.152"/><use x="308.706551" xlink:href="#V" y="12.152"/></g><use x="313.558918" xlink:href="#W" y="12.152"/><use x="319.044" xlink:href="#af" y="13.788"/><use x="324.309" xlink:href="#V" y="12.152"/><use x="329.161368" xlink:href="#X" y="12.152"/><use x="334.891918" xlink:href="#V" y="12.152"/><use x="339.744286" xlink:href="#W" y="12.152"/><use x="345.234" xlink:href="#ag" y="13.788"/><use x="350.204" xlink:href="#t" y="12.152"/><g><use x="358.810189" xlink:href="#d" y="12.152"/><use x="363.052738" xlink:href="#j" y="12.152"/></g><g><use x="372.870928" xlink:href="#d" y="12.152"/><use x="377.113477" xlink:href="#b" y="12.152"/><use x="383.174573" xlink:href="#c" y="12.152"/></g><use x="392.39" xlink:href="#U" y="12.152"/><use x="398.625" xlink:href="#u" y="12.152"/><use x="402.261" xlink:href="#X" y="12.152"/><g><use x="412.366" xlink:href="#r" y="12.152"/><use x="418.427096" xlink:href="#c" y="12.152"/><use x="423.2751" xlink:href="#p" y="12.152"/><use x="428.123104" xlink:href="#j" y="12.152"/><use x="433.577654" xlink:href="#v" y="12.152"/><use x="439.63875" xlink:href="#n" y="12.152"/><use x="445.699846" xlink:href="#q" y="12.152"/><use x="448.730394" xlink:href="#c" y="12.152"/><use x="453.578398" xlink:href="#r" y="12.152"/></g><g><use x="464.003134" xlink:href="#p" y="12.152"/><use x="468.851138" xlink:href="#j" y="12.152"/></g><g><use x="474.611143" xlink:href="#j" y="12.152"/><use x="480.065693" xlink:href="#e" y="12.152"/><use x="484.338787" xlink:href="#r" y="12.152"/><use x="490.399883" xlink:href="#l" y="12.152"/><use x="493.430431" xlink:href="#g" y="12.152"/><use x="499.491527" xlink:href="#f" y="12.152"/><use x="504.946077" xlink:href="#d" y="12.152"/><use x="509.188626" xlink:href="#c" y="12.152"/></g><use x="3.798" xlink:href="#s" y="25.701"/><use x="8.041" xlink:href="#Y" y="25.701"/><use x="17.330099" xlink:href="#V" y="25.701"/><use x="22.182466" xlink:href="#Z" y="25.701"/><use x="29.181" xlink:href="#ah" y="27.39"/><use x="37.266" xlink:href="#V" y="25.701"/><use x="42.118368" xlink:href="#aa" y="25.701"/><use x="49.052192" xlink:href="#V" y="25.701"/><use x="53.904559" xlink:href="#Z" y="25.701"/><use x="60.906" xlink:href="#ai" y="27.39"/><use x="68.194" xlink:href="#t" y="25.701"/><g><use x="76.069279" xlink:href="#l" y="25.701"/><use x="79.099827" xlink:href="#h" y="25.701"/></g><g><use x="87.046016" xlink:href="#w" y="25.701"/><use x="94.924568" xlink:href="#e" y="25.701"/><use x="99.197662" xlink:href="#l" y="25.701"/><use x="102.22821" xlink:href="#d" y="25.701"/><use x="106.470759" xlink:href="#d" y="25.701"/><use x="110.713308" xlink:href="#c" y="25.701"/><use x="115.561312" xlink:href="#g" y="25.701"/></g><g><use x="125.255138" xlink:href="#f" y="25.701"/><use x="130.709688" xlink:href="#h" y="25.701"/></g><use x="155.16" xlink:href="#x" y="70.209"/><use x="166.222918" xlink:href="#y" y="70.209"/><use x="177.736" xlink:href="#ak" y="54.827"/><use x="185.766" xlink:href="#ab" y="63.417"/><use x="192.339" xlink:href="#z" y="63.417"/><g><use x="206.238284" xlink:href="#A" y="63.417"/><use x="211.844471" xlink:href="#e" y="63.417"/></g><use x="216.12" xlink:href="#aj" y="59.458"/><use x="222.725" xlink:href="#A" y="63.417"/><use x="188.886" xlink:href="#e" y="76.966"/><use x="212.03" xlink:href="#ab" y="76.966"/><use x="218.603" xlink:href="#z" y="76.966"/><use x="228.331" xlink:href="#al" y="54.827"/><use x="239.391" xlink:href="#y" y="70.209"/><use x="250.906" xlink:href="#am" y="41.736"/><use x="250.906" xlink:href="#an" y="60.936"/><use x="250.906" xlink:href="#an" y="67.482"/><use x="250.906" xlink:href="#ao" y="74.464"/><use x="262.892" xlink:href="#ab" y="49.868"/><use x="286.079292" xlink:href="#ac" y="49.868"/><use x="303.286" xlink:href="#as" y="49.868"/><g><use x="311.771" xlink:href="#av" y="49.868"/><use x="317.498278" xlink:href="#aw" y="49.868"/></g><g><use x="337.429203" xlink:href="#av" y="49.868"/><use x="343.156481" xlink:href="#ax" y="49.868"/></g><use x="264.664" xlink:href="#ac" y="63.417"/><use x="284.309107" xlink:href="#ab" y="63.417"/><g><use x="307.528" xlink:href="#av" y="63.417"/><use x="313.255277" xlink:href="#ay" y="63.417"/></g><use x="333.188" xlink:href="#as" y="63.417"/><g><use x="341.673" xlink:href="#av" y="63.417"/><use x="347.400278" xlink:href="#az" y="63.417"/></g><g><use x="260.452" xlink:href="#av" y="76.966"/><use x="266.179278" xlink:href="#az" y="76.966"/></g><g><use x="281.866563" xlink:href="#av" y="76.966"/><use x="287.593841" xlink:href="#ax" y="76.966"/></g><use x="309.969" xlink:href="#ab" y="76.966"/><use x="341.643572" xlink:href="#ac" y="76.966"/><g><use x="260.452" xlink:href="#av" y="90.515"/><use x="266.179278" xlink:href="#ay" y="90.515"/></g><g><use x="281.866563" xlink:href="#av" y="90.515"/><use x="287.593841" xlink:href="#aw" y="90.515"/></g><use x="311.741" xlink:href="#ac" y="90.515"/><use x="339.873387" xlink:href="#ab" y="90.515"/><use x="353.127" xlink:href="#ap" y="41.736"/><use x="353.127" xlink:href="#aq" y="60.936"/><use x="353.127" xlink:href="#aq" y="67.482"/><use x="353.127" xlink:href="#ar" y="74.464"/><g><use x="494.641" xlink:href="#s" y="70.209"/><use x="498.883549" xlink:href="#B" y="70.209"/><use x="504.338099" xlink:href="#C" y="70.209"/><use x="509.792649" xlink:href="#t" y="70.209"/></g><g><use x="3.798" xlink:href="#w" y="114.111"/><use x="11.676552" xlink:href="#l" y="114.111"/><use x="14.7071" xlink:href="#d" y="114.111"/><use x="18.949649" xlink:href="#b" y="114.111"/></g><use x="28.643475" xlink:href="#f" y="114.111"/><g><use x="37.741665" xlink:href="#h" y="114.111"/><use x="42.044214" xlink:href="#v" y="114.111"/><use x="48.10531" xlink:href="#D" y="114.111"/><use x="54.166406" xlink:href="#k" y="114.111"/><use x="63.256959" xlink:href="#f" y="114.111"/><use x="68.711509" xlink:href="#d" y="114.111"/><use x="72.954058" xlink:href="#e" y="114.111"/><use x="77.227152" xlink:href="#l" y="114.111"/><use x="80.2577" xlink:href="#m" y="114.111"/></g><use x="220.799" xlink:href="#e" y="142.343"/><use x="228.104824" xlink:href="#y" y="142.343"/><use x="239.617" xlink:href="#ak" y="126.961"/><g><use x="247.647" xlink:href="#av" y="135.551"/><use x="253.374277" xlink:href="#az" y="135.551"/></g><g><use x="269.061563" xlink:href="#av" y="135.551"/><use x="274.788841" xlink:href="#ax" y="135.551"/></g><g><use x="247.647" xlink:href="#av" y="149.1"/><use x="253.374277" xlink:href="#ay" y="149.1"/></g><g><use x="269.061563" xlink:href="#av" y="149.1"/><use x="274.788841" xlink:href="#aw" y="149.1"/></g><use x="280.519" xlink:href="#al" y="126.961"/><use x="294.004" xlink:href="#V" y="142.343"/><g><use x="494.641" xlink:href="#s" y="142.343"/><use x="498.883549" xlink:href="#B" y="142.343"/><use x="504.338099" xlink:href="#E" y="142.343"/><use x="509.792649" xlink:href="#t" y="142.343"/></g><g><use x="3.798" xlink:href="#w" y="172.695"/><use x="11.676552" xlink:href="#b" y="172.695"/><use x="17.737648" xlink:href="#c" y="172.695"/><use x="22.585652" xlink:href="#e" y="172.695"/><use x="26.858746" xlink:href="#c" y="172.695"/></g><use x="221.127" xlink:href="#ab" y="197.204"/><use x="227.701" xlink:href="#aD" y="192.699"/><use x="234.857" xlink:href="#F" y="197.204"/><g><use x="245.763918" xlink:href="#r" y="197.204"/><use x="251.825014" xlink:href="#c" y="197.204"/><use x="256.673018" xlink:href="#d" y="197.204"/><use x="260.915567" xlink:href="#s" y="197.204"/><use x="265.158116" xlink:href="#e" y="197.204"/><use x="269.431211" xlink:href="#t" y="197.204"/></g><use x="276.706489" xlink:href="#y" y="197.204"/><use x="288.224317" xlink:href="#E" y="197.204"/><use x="293.675" xlink:href="#V" y="197.204"/><g><use x="494.641" xlink:href="#s" y="197.204"/><use x="498.883549" xlink:href="#B" y="197.204"/><use x="504.338099" xlink:href="#G" y="197.204"/><use x="509.792649" xlink:href="#t" y="197.204"/></g><use x="221.127" xlink:href="#z" y="221.53"/><use x="228.097" xlink:href="#at" y="221.53"/><use x="239.612" xlink:href="#ak" y="206.148"/><use x="247.642" xlink:href="#E" y="214.738"/><use x="263.056558" xlink:href="#C" y="214.738"/><use x="247.642" xlink:href="#C" y="228.287"/><use x="263.056558" xlink:href="#E" y="228.287"/><use x="268.514" xlink:href="#al" y="206.148"/><use x="281.999" xlink:href="#V" y="221.53"/><g><use x="494.641" xlink:href="#s" y="221.53"/><use x="498.883549" xlink:href="#B" y="221.53"/><use x="504.338099" xlink:href="#H" y="221.53"/><use x="509.792649" xlink:href="#t" y="221.53"/></g><use x="221.127" xlink:href="#A" y="252.613"/><use x="229.764" xlink:href="#at" y="252.613"/><use x="241.279" xlink:href="#ak" y="237.231"/><use x="253.551" xlink:href="#C" y="245.821"/><use x="273.209198" xlink:href="#E" y="245.821"/><use x="249.309" xlink:href="#as" y="259.37"/><use x="257.794" xlink:href="#E" y="259.37"/><use x="273.208558" xlink:href="#C" y="259.37"/><use x="278.666" xlink:href="#al" y="237.231"/><use x="292.15" xlink:href="#ac" y="252.613"/><g><use x="494.641" xlink:href="#s" y="252.613"/><use x="498.883549" xlink:href="#B" y="252.613"/><use x="504.338099" xlink:href="#I" y="252.613"/><use x="509.792649" xlink:href="#t" y="252.613"/></g><g><use x="3.798" xlink:href="#a" y="282.966"/><use x="11.676552" xlink:href="#b" y="282.966"/><use x="17.737648" xlink:href="#c" y="282.966"/></g><g><use x="26.218382" xlink:href="#l" y="282.966"/><use x="29.24893" xlink:href="#g" y="282.966"/></g><use x="35.015481" xlink:href="#J" y="282.966"/><g><use x="40.467849" xlink:href="#c" y="282.966"/><use x="45.315853" xlink:href="#e" y="282.966"/><use x="49.588947" xlink:href="#h" y="282.966"/><use x="53.891496" xlink:href="#c" y="282.966"/></g><g><use x="62.372231" xlink:href="#j" y="282.966"/><use x="67.826781" xlink:href="#i" y="282.966"/></g><use x="74.793332" xlink:href="#x" y="282.966"/><g><use x="86.46716" xlink:href="#l" y="282.966"/><use x="89.497708" xlink:href="#h" y="282.966"/></g><g><use x="97.432987" xlink:href="#j" y="282.966"/><use x="102.887537" xlink:href="#D" y="282.966"/><use x="108.948633" xlink:href="#d" y="282.966"/><use x="113.191182" xlink:href="#f" y="282.966"/><use x="118.645732" xlink:href="#l" y="282.966"/><use x="121.67628" xlink:href="#g" y="282.966"/><use x="127.737376" xlink:href="#c" y="282.966"/><use x="132.58538" xlink:href="#r" y="282.966"/></g><use x="142.279206" xlink:href="#D" y="282.966"/><use x="148.045757" xlink:href="#o" y="282.966"/><g><use x="157.43631" xlink:href="#e" y="282.966"/><use x="161.709404" xlink:href="#c" y="282.966"/><use x="166.557408" xlink:href="#J" y="282.966"/></g><g><use x="172.009777" xlink:href="#c" y="282.966"/><use x="176.857781" xlink:href="#e" y="282.966"/><use x="181.130875" xlink:href="#h" y="282.966"/><use x="185.433424" xlink:href="#l" y="282.966"/><use x="188.463972" xlink:href="#g" y="282.966"/><use x="194.525068" xlink:href="#K" y="282.966"/></g><g><use x="203.612348" xlink:href="#d" y="282.966"/><use x="207.854897" xlink:href="#b" y="282.966"/><use x="213.915993" xlink:href="#c" y="282.966"/></g><g><use x="222.407637" xlink:href="#h" y="282.966"/><use x="226.710186" xlink:href="#l" y="282.966"/><use x="229.740734" xlink:href="#K" y="282.966"/><use x="235.195284" xlink:href="#g" y="282.966"/></g><g><use x="244.88911" xlink:href="#j" y="282.966"/><use x="250.34366" xlink:href="#i" y="282.966"/></g><g><use x="257.310211" xlink:href="#e" y="282.966"/><use x="261.583306" xlink:href="#L" y="282.966"/></g><use x="135.651" xlink:href="#x" y="326.868"/><use x="143.681" xlink:href="#aF" y="322.364"/><use x="150.268" xlink:href="#aE" y="322.364"/><use x="158.03" xlink:href="#y" y="326.868"/><use x="169.545" xlink:href="#ak" y="311.486"/><use x="178.698" xlink:href="#ab" y="320.076"/><use x="185.271" xlink:href="#z" y="320.076"/><use x="200.296" xlink:href="#as" y="320.076"/><g><use x="208.781" xlink:href="#A" y="320.076"/><use x="214.387186" xlink:href="#e" y="320.076"/></g><use x="218.66" xlink:href="#aj" y="316.117"/><use x="225.264" xlink:href="#A" y="320.076"/><use x="177.576" xlink:href="#as" y="333.625"/><use x="186.061" xlink:href="#e" y="333.625"/><use x="210.327" xlink:href="#ab" y="333.625"/><use x="216.9" xlink:href="#z" y="333.625"/><use x="230.87" xlink:href="#al" y="311.486"/><use x="241.931" xlink:href="#y" y="326.868"/><use x="253.446" xlink:href="#am" y="298.395"/><use x="253.446" xlink:href="#an" y="317.595"/><use x="253.446" xlink:href="#an" y="324.141"/><use x="253.446" xlink:href="#ao" y="331.123"/><use x="269.674" xlink:href="#ab" y="306.527"/><use x="301.348572" xlink:href="#ac" y="306.527"/><g><use x="327.038" xlink:href="#av" y="306.527"/><use x="332.765277" xlink:href="#aw" y="306.527"/></g><use x="352.697" xlink:href="#as" y="306.527"/><g><use x="361.182" xlink:href="#av" y="306.527"/><use x="366.909277" xlink:href="#ax" y="306.527"/></g><use x="271.446" xlink:href="#ac" y="320.076"/><use x="299.578387" xlink:href="#ab" y="320.076"/><use x="322.795" xlink:href="#as" y="320.076"/><g><use x="331.28" xlink:href="#av" y="320.076"/><use x="337.007277" xlink:href="#ay" y="320.076"/></g><g><use x="356.938203" xlink:href="#av" y="320.076"/><use x="362.665481" xlink:href="#az" y="320.076"/></g><use x="262.991" xlink:href="#as" y="333.625"/><g><use x="271.476" xlink:href="#av" y="333.625"/><use x="277.203277" xlink:href="#az" y="333.625"/></g><use x="292.893" xlink:href="#as" y="333.625"/><g><use x="301.378" xlink:href="#av" y="333.625"/><use x="307.105277" xlink:href="#ax" y="333.625"/></g><use x="329.478" xlink:href="#ab" y="333.625"/><use x="361.152572" xlink:href="#ac" y="333.625"/><use x="262.991" xlink:href="#as" y="347.174"/><g><use x="271.476" xlink:href="#av" y="347.174"/><use x="277.203277" xlink:href="#ay" y="347.174"/></g><use x="292.893" xlink:href="#as" y="347.174"/><g><use x="301.378" xlink:href="#av" y="347.174"/><use x="307.105277" xlink:href="#aw" y="347.174"/></g><use x="331.25" xlink:href="#ac" y="347.174"/><use x="359.382387" xlink:href="#ab" y="347.174"/><use x="372.636" xlink:href="#ap" y="298.395"/><use x="372.636" xlink:href="#aq" y="317.595"/><use x="372.636" xlink:href="#aq" y="324.141"/><use x="372.636" xlink:href="#ar" y="331.123"/><g><use x="494.64" xlink:href="#s" y="326.868"/><use x="498.882549" xlink:href="#B" y="326.868"/><use x="504.337099" xlink:href="#M" y="326.868"/><use x="509.791649" xlink:href="#t" y="326.868"/></g><use x="7.435" xlink:href="#N" y="364.346"/><g><use x="20.735" xlink:href="#a" y="377.895"/><use x="28.613552" xlink:href="#b" y="377.895"/><use x="34.674648" xlink:href="#c" y="377.895"/></g><use x="43.155382" xlink:href="#J" y="377.895"/><g><use x="48.313205" xlink:href="#f" y="377.895"/><use x="53.767755" xlink:href="#q" y="377.895"/><use x="56.798303" xlink:href="#v" y="377.895"/><use x="62.859399" xlink:href="#c" y="377.895"/></g><g><use x="71.340133" xlink:href="#j" y="377.895"/><use x="76.794683" xlink:href="#i" y="377.895"/></g><g><use x="83.761234" xlink:href="#d" y="377.895"/><use x="88.003783" xlink:href="#b" y="377.895"/><use x="94.064879" xlink:href="#c" y="377.895"/></g><g><use x="102.556523" xlink:href="#i" y="377.895"/><use x="105.890344" xlink:href="#v" y="377.895"/><use x="111.95144" xlink:href="#g" y="377.895"/><use x="118.012536" xlink:href="#p" y="377.895"/><use x="122.86054" xlink:href="#d" y="377.895"/><use x="127.103089" xlink:href="#l" y="377.895"/><use x="130.133637" xlink:href="#j" y="377.895"/><use x="135.588187" xlink:href="#g" y="377.895"/></g><g><use x="145.28" xlink:href="#aA" y="377.895"/><use x="151.007278" xlink:href="#aB" y="377.895"/><use x="156.734555" xlink:href="#aC" y="377.895"/><use x="162.461833" xlink:href="#av" y="377.895"/></g><g><use x="171.825" xlink:href="#l" y="377.895"/><use x="174.855548" xlink:href="#h" y="377.895"/></g><g><use x="182.790827" xlink:href="#c" y="377.895"/><use x="187.638831" xlink:href="#O" y="377.895"/><use x="193.396654" xlink:href="#v" y="377.895"/><use x="199.45775" xlink:href="#f" y="377.895"/><use x="204.9123" xlink:href="#q" y="377.895"/></g><g><use x="211.586488" xlink:href="#d" y="377.895"/><use x="215.829037" xlink:href="#j" y="377.895"/></g><g><use x="224.916317" xlink:href="#r" y="377.895"/><use x="230.977413" xlink:href="#c" y="377.895"/><use x="235.825417" xlink:href="#d" y="377.895"/><use x="240.067966" xlink:href="#s" y="377.895"/><use x="244.310515" xlink:href="#e" y="377.895"/><use x="248.583609" xlink:href="#t" y="377.895"/></g><g><use x="256.458889" xlink:href="#l" y="377.895"/><use x="259.489437" xlink:href="#g" y="377.895"/></g><g><use x="269.194172" xlink:href="#d" y="377.895"/><use x="273.436721" xlink:href="#b" y="377.895"/><use x="279.497817" xlink:href="#l" y="377.895"/></g><use x="282.517456" xlink:href="#h" y="377.895"/><g><use x="290.463644" xlink:href="#p" y="377.895"/><use x="295.311648" xlink:href="#f" y="377.895"/><use x="300.766198" xlink:href="#h" y="377.895"/><use x="305.068747" xlink:href="#c" y="377.895"/><use x="309.916751" xlink:href="#N" y="377.895"/></g><g><use x="20.735" xlink:href="#P" y="391.444"/><use x="27.553188" xlink:href="#c" y="391.444"/><use x="32.401192" xlink:href="#d" y="391.444"/></g><use x="40.789199" xlink:href="#a" y="391.444"/><g><use x="52.813209" xlink:href="#h" y="391.444"/><use x="57.115758" xlink:href="#d" y="391.444"/><use x="61.358307" xlink:href="#f" y="391.444"/><use x="66.812857" xlink:href="#g" y="391.444"/><use x="72.873953" xlink:href="#r" y="391.444"/></g><g><use x="83.069597" xlink:href="#i" y="391.444"/><use x="86.403418" xlink:href="#j" y="391.444"/><use x="91.857968" xlink:href="#e" y="391.444"/></g><g><use x="100.276521" xlink:href="#d" y="391.444"/><use x="104.51907" xlink:href="#b" y="391.444"/><use x="110.580166" xlink:href="#c" y="391.444"/></g><g><use x="119.573628" xlink:href="#n" y="391.444"/><use x="125.634724" xlink:href="#b" y="391.444"/></g><g><use x="131.390365" xlink:href="#o" y="391.444"/><use x="137.148188" xlink:href="#h" y="391.444"/><use x="141.450737" xlink:href="#l" y="391.444"/><use x="144.481285" xlink:href="#p" y="391.444"/><use x="149.329289" xlink:href="#f" y="391.444"/><use x="154.783839" xlink:href="#q" y="391.444"/></g><g><use x="161.959845" xlink:href="#d" y="391.444"/><use x="166.202394" xlink:href="#e" y="391.444"/><use x="170.475488" xlink:href="#f" y="391.444"/><use x="175.930038" xlink:href="#g" y="391.444"/><use x="181.991134" xlink:href="#h" y="391.444"/><use x="186.293683" xlink:href="#i" y="391.444"/><use x="189.627504" xlink:href="#c" y="391.444"/><use x="194.475508" xlink:href="#e" y="391.444"/></g><g><use x="202.894061" xlink:href="#k" y="391.444"/><use x="211.984614" xlink:href="#f" y="391.444"/><use x="217.439164" xlink:href="#d" y="391.444"/><use x="221.681713" xlink:href="#e" y="391.444"/><use x="225.954807" xlink:href="#l" y="391.444"/><use x="228.985355" xlink:href="#m" y="391.444"/></g><g><use x="238.888636" xlink:href="#i" y="391.444"/><use x="242.222457" xlink:href="#e" y="391.444"/><use x="246.495552" xlink:href="#j" y="391.444"/><use x="251.950102" xlink:href="#k" y="391.444"/></g><g><use x="265.186113" xlink:href="#q" y="391.444"/><use x="268.216661" xlink:href="#j" y="391.444"/></g><g><use x="273.965756" xlink:href="#p" y="391.444"/><use x="278.813761" xlink:href="#f" y="391.444"/><use x="284.268311" xlink:href="#d" y="391.444"/><use x="288.51086" xlink:href="#l" y="391.444"/><use x="291.541407" xlink:href="#j" y="391.444"/><use x="296.995957" xlink:href="#g" y="391.444"/></g><use x="307.202511" xlink:href="#E" y="391.444"/><g><use x="316.802519" xlink:href="#d" y="391.444"/><use x="321.045068" xlink:href="#j" y="391.444"/></g><g><use x="330.645076" xlink:href="#q" y="391.444"/><use x="333.675624" xlink:href="#j" y="391.444"/></g><g><use x="339.435629" xlink:href="#p" y="391.444"/><use x="344.283633" xlink:href="#f" y="391.444"/><use x="349.738183" xlink:href="#d" y="391.444"/><use x="353.980732" xlink:href="#l" y="391.444"/><use x="357.01128" xlink:href="#j" y="391.444"/><use x="362.46583" xlink:href="#g" y="391.444"/></g><g><use x="372.661475" xlink:href="#G" y="391.444"/><use x="378.116025" xlink:href="#Q" y="391.444"/></g><g><use x="385.42294" xlink:href="#d" y="391.444"/><use x="389.665489" xlink:href="#b" y="391.444"/><use x="395.726585" xlink:href="#c" y="391.444"/><use x="400.574589" xlink:href="#g" y="391.444"/></g><g><use x="410.781143" xlink:href="#d" y="391.444"/><use x="415.023692" xlink:href="#b" y="391.444"/><use x="421.084788" xlink:href="#c" y="391.444"/></g><g><use x="430.067341" xlink:href="#d" y="391.444"/><use x="434.30989" xlink:href="#e" y="391.444"/><use x="438.582985" xlink:href="#f" y="391.444"/><use x="444.037535" xlink:href="#g" y="391.444"/><use x="450.098631" xlink:href="#h" y="391.444"/><use x="454.40118" xlink:href="#i" y="391.444"/><use x="457.735001" xlink:href="#j" y="391.444"/><use x="463.189551" xlink:href="#e" y="391.444"/><use x="467.462645" xlink:href="#k" y="391.444"/><use x="476.553198" xlink:href="#f" y="391.444"/><use x="482.007748" xlink:href="#d" y="391.444"/><use x="486.250297" xlink:href="#l" y="391.444"/><use x="489.280845" xlink:href="#j" y="391.444"/><use x="494.735395" xlink:href="#g" y="391.444"/></g><g><use x="504.941949" xlink:href="#l" y="391.444"/><use x="507.972497" xlink:href="#g" y="391.444"/></g><g><use x="3.798" xlink:href="#d" y="404.993"/><use x="8.040549" xlink:href="#b" y="404.993"/><use x="14.101645" xlink:href="#c" y="404.993"/></g><g><use x="22.582379" xlink:href="#r" y="404.993"/><use x="28.643475" xlink:href="#c" y="404.993"/><use x="33.491479" xlink:href="#p" y="404.993"/><use x="38.339483" xlink:href="#j" y="404.993"/><use x="43.794033" xlink:href="#v" y="404.993"/><use x="49.855129" xlink:href="#n" y="404.993"/><use x="55.916225" xlink:href="#q" y="404.993"/><use x="58.946773" xlink:href="#c" y="404.993"/><use x="63.794777" xlink:href="#r" y="404.993"/></g><g><use x="73.499513" xlink:href="#p" y="404.993"/><use x="78.347517" xlink:href="#j" y="404.993"/></g><g><use x="84.096612" xlink:href="#j" y="404.993"/><use x="89.551162" xlink:href="#e" y="404.993"/><use x="93.824257" xlink:href="#r" y="404.993"/><use x="99.885353" xlink:href="#l" y="404.993"/><use x="102.915901" xlink:href="#g" y="404.993"/><use x="108.976997" xlink:href="#f" y="404.993"/><use x="114.431547" xlink:href="#d" y="404.993"/><use x="118.674096" xlink:href="#c" y="404.993"/></g><g><use x="127.165739" xlink:href="#l" y="404.993"/><use x="130.196287" xlink:href="#h" y="404.993"/></g><g><use x="138.131566" xlink:href="#r" y="404.993"/><use x="144.192662" xlink:href="#l" y="404.993"/><use x="147.22321" xlink:href="#f" y="404.993"/><use x="152.67776" xlink:href="#K" y="404.993"/><use x="158.13231" xlink:href="#j" y="404.993"/><use x="163.58686" xlink:href="#g" y="404.993"/><use x="169.647956" xlink:href="#f" y="404.993"/><use x="175.102506" xlink:href="#q" y="404.993"/><use x="178.133054" xlink:href="#l" y="404.993"/><use x="181.163602" xlink:href="#R" y="404.993"/><use x="186.011606" xlink:href="#c" y="404.993"/><use x="190.85961" xlink:href="#r" y="404.993"/></g><g><use x="200.553437" xlink:href="#f" y="404.993"/><use x="206.007987" xlink:href="#h" y="404.993"/></g><use x="198.829" xlink:href="#x" y="435.346"/><use x="206.859" xlink:href="#aD" y="436.983"/><g><use x="211.592" xlink:href="#a" y="435.346"/><use x="219.470552" xlink:href="#x" y="435.346"/></g><use x="227.501" xlink:href="#aF" y="430.758"/><use x="234.087" xlink:href="#aE" y="430.758"/><use x="227.501" xlink:href="#aE" y="438.47"/><use x="241.85" xlink:href="#y" y="435.346"/><use x="253.365" xlink:href="#ak" y="419.964"/><use x="261.395" xlink:href="#a" y="428.554"/><use x="269.274" xlink:href="#ah" y="430.243"/><use x="292.178" xlink:href="#C" y="428.554"/><use x="266.65" xlink:href="#C" y="442.103"/><use x="287.322744" xlink:href="#a" y="442.103"/><use x="295.2" xlink:href="#ai" y="443.792"/><use x="302.489" xlink:href="#al" y="419.964"/><use x="315.973" xlink:href="#ac" y="435.346"/><g><use x="494.64" xlink:href="#s" y="435.346"/><use x="498.882549" xlink:href="#B" y="435.346"/><use x="504.337099" xlink:href="#B" y="435.346"/><use x="509.791649" xlink:href="#t" y="435.346"/></g><g><use x="20.735" xlink:href="#a" y="465.699"/><use x="28.613552" xlink:href="#b" y="465.699"/><use x="34.674648" xlink:href="#c" y="465.699"/></g><g><use x="43.155382" xlink:href="#a" y="465.699"/><use x="51.033934" xlink:href="#w" y="465.699"/><use x="58.912486" xlink:href="#l" y="465.699"/><use x="61.943034" xlink:href="#h" y="465.699"/><use x="66.245583" xlink:href="#h" y="465.699"/></g><g><use x="74.191772" xlink:href="#n" y="465.699"/><use x="80.252868" xlink:href="#f" y="465.699"/><use x="85.707418" xlink:href="#e" y="465.699"/><use x="89.980512" xlink:href="#f" y="465.699"/><use x="95.435062" xlink:href="#k" y="465.699"/><use x="104.525615" xlink:href="#c" y="465.699"/><use x="109.373619" xlink:href="#d" y="465.699"/><use x="113.616168" xlink:href="#c" y="465.699"/><use x="118.464172" xlink:href="#e" y="465.699"/><use x="122.737267" xlink:href="#h" y="465.699"/></g><g><use x="130.672546" xlink:href="#f" y="465.699"/><use x="136.127096" xlink:href="#e" y="465.699"/><use x="140.400191" xlink:href="#c" y="465.699"/></g><use x="148.891834" xlink:href="#r" y="465.699"/><use x="154.942021" xlink:href="#c" y="465.699"/><use x="159.800934" xlink:href="#S" y="465.699"/><g><use x="165.851121" xlink:href="#g" y="465.699"/><use x="171.912217" xlink:href="#c" y="465.699"/><use x="176.760221" xlink:href="#r" y="465.699"/></g><g><use x="186.464956" xlink:href="#i" y="465.699"/><use x="189.798777" xlink:href="#j" y="465.699"/><use x="195.253327" xlink:href="#e" y="465.699"/></g><g><use x="203.159152" xlink:href="#d" y="465.699"/><use x="207.401701" xlink:href="#b" y="465.699"/><use x="213.462797" xlink:href="#c" y="465.699"/></g><use x="221.943531" xlink:href="#G" y="465.699"/><use x="231.041721" xlink:href="#D" y="465.699"/><use x="236.797362" xlink:href="#o" y="465.699"/><use x="246.187915" xlink:href="#G" y="465.699"/><use x="255.275195" xlink:href="#k" y="465.699"/><g><use x="264.376658" xlink:href="#f" y="465.699"/><use x="269.831208" xlink:href="#d" y="465.699"/><use x="274.073757" xlink:href="#e" y="465.699"/></g><g><use x="278.335942" xlink:href="#l" y="465.699"/><use x="281.36649" xlink:href="#p" y="465.699"/></g><g><use x="286.225403" xlink:href="#c" y="465.699"/><use x="291.073407" xlink:href="#h" y="465.699"/></g><use x="299.008686" xlink:href="#a" y="465.699"/><use x="306.886" xlink:href="#ah" y="467.388"/><g><use x="318.608" xlink:href="#f" y="465.699"/><use x="324.06255" xlink:href="#g" y="465.699"/><use x="330.123646" xlink:href="#r" y="465.699"/></g><use x="339.817472" xlink:href="#a" y="465.699"/><use x="347.699" xlink:href="#ai" y="467.388"/><use x="354.987" xlink:href="#N" y="465.699"/><g><use x="20.735" xlink:href="#z" y="479.248"/><use x="24.674276" xlink:href="#i" y="479.248"/></g><g><use x="31.640827" xlink:href="#r" y="479.248"/><use x="37.701923" xlink:href="#c" y="479.248"/><use x="42.549927" xlink:href="#d" y="479.248"/><use x="46.792476" xlink:href="#s" y="479.248"/><use x="51.035025" xlink:href="#e" y="479.248"/><use x="55.30812" xlink:href="#t" y="479.248"/></g><use x="62.583" xlink:href="#au" y="479.248"/><g><use x="74.098" xlink:href="#E" y="479.248"/><use x="79.55255" xlink:href="#Q" y="479.248"/></g><g><use x="86.215828" xlink:href="#d" y="479.248"/><use x="90.458377" xlink:href="#b" y="479.248"/><use x="96.519473" xlink:href="#c" y="479.248"/></g><g><use x="105.011117" xlink:href="#f" y="479.248"/><use x="110.465667" xlink:href="#D" y="479.248"/></g><use x="116.821308" xlink:href="#j" y="479.248"/><use x="121.981313" xlink:href="#J" y="479.248"/><use x="127.433681" xlink:href="#c" y="479.248"/><g><use x="135.914415" xlink:href="#p" y="479.248"/><use x="140.762419" xlink:href="#j" y="479.248"/><use x="146.216969" xlink:href="#g" y="479.248"/><use x="152.278065" xlink:href="#r" y="479.248"/><use x="158.339161" xlink:href="#l" y="479.248"/><use x="161.369709" xlink:href="#d" y="479.248"/><use x="165.612258" xlink:href="#l" y="479.248"/><use x="168.642806" xlink:href="#j" y="479.248"/><use x="174.097356" xlink:href="#g" y="479.248"/></g><g><use x="183.791182" xlink:href="#i" y="479.248"/><use x="187.125003" xlink:href="#j" y="479.248"/><use x="192.579553" xlink:href="#e" y="479.248"/></g><use x="200.492" xlink:href="#ab" y="479.248"/><g><use x="210.702" xlink:href="#l" y="479.248"/><use x="213.732548" xlink:href="#h" y="479.248"/></g><g><use x="221.667827" xlink:href="#J" y="479.248"/><use x="227.42565" xlink:href="#l" y="479.248"/><use x="230.456198" xlink:href="#j" y="479.248"/><use x="235.910748" xlink:href="#q" y="479.248"/><use x="238.941296" xlink:href="#f" y="479.248"/><use x="244.395846" xlink:href="#d" y="479.248"/><use x="248.638395" xlink:href="#c" y="479.248"/><use x="253.486399" xlink:href="#r" y="479.248"/><use x="259.547495" xlink:href="#N" y="479.248"/></g><g><use x="267.432593" xlink:href="#z" y="479.248"/><use x="271.371869" xlink:href="#g" y="479.248"/></g><g><use x="281.065695" xlink:href="#h" y="479.248"/><use x="285.368244" xlink:href="#v" y="479.248"/><use x="291.42934" xlink:href="#p" y="479.248"/></g><use x="295.971889" xlink:href="#b" y="479.248"/><use x="305.676625" xlink:href="#f" y="479.248"/><g><use x="314.763905" xlink:href="#p" y="479.248"/><use x="319.611909" xlink:href="#f" y="479.248"/><use x="325.066459" xlink:href="#h" y="479.248"/><use x="329.369008" xlink:href="#c" y="479.248"/><use x="334.217012" xlink:href="#Q" y="479.248"/></g><g><use x="340.88029" xlink:href="#f" y="479.248"/><use x="346.33484" xlink:href="#g" y="479.248"/></g><g><use x="356.039576" xlink:href="#f" y="479.248"/><use x="361.494126" xlink:href="#q" y="479.248"/><use x="364.524674" xlink:href="#d" y="479.248"/><use x="368.767223" xlink:href="#c" y="479.248"/><use x="373.615227" xlink:href="#e" y="479.248"/><use x="377.888321" xlink:href="#g" y="479.248"/><use x="383.949417" xlink:href="#f" y="479.248"/><use x="389.403967" xlink:href="#d" y="479.248"/><use x="393.646516" xlink:href="#l" y="479.248"/><use x="396.677064" xlink:href="#J" y="479.248"/></g><use x="402.129432" xlink:href="#c" y="479.248"/><g><use x="410.610167" xlink:href="#i" y="479.248"/><use x="413.943988" xlink:href="#j" y="479.248"/><use x="419.398538" xlink:href="#e" y="479.248"/><use x="423.671632" xlink:href="#k" y="479.248"/></g><g><use x="436.394915" xlink:href="#j" y="479.248"/><use x="441.849465" xlink:href="#i" y="479.248"/></g><use x="448.826926" xlink:href="#x" y="479.248"/><g><use x="460.489845" xlink:href="#l" y="479.248"/><use x="463.520392" xlink:href="#h" y="479.248"/></g><g><use x="471.455672" xlink:href="#v" y="479.248"/><use x="477.516768" xlink:href="#h" y="479.248"/><use x="481.819317" xlink:href="#c" y="479.248"/><use x="486.667321" xlink:href="#r" y="479.248"/><use x="492.728417" xlink:href="#L" y="479.248"/></g><use x="214.073" xlink:href="#x" y="510.207"/><use x="225.135918" xlink:href="#y" y="510.207"/><use x="236.649" xlink:href="#ak" y="494.825"/><g><use x="244.679" xlink:href="#A" y="503.415"/><use x="250.285186" xlink:href="#e" y="503.415"/></g><use x="254.558" xlink:href="#aj" y="499.456"/><use x="261.163" xlink:href="#A" y="503.415"/><use x="276.731" xlink:href="#ab" y="503.415"/><use x="283.305" xlink:href="#z" y="503.415"/><use x="250.468" xlink:href="#ab" y="516.964"/><use x="257.041" xlink:href="#z" y="516.964"/><use x="279.853019" xlink:href="#e" y="516.964"/><use x="287.244" xlink:href="#al" y="494.825"/><use x="300.729" xlink:href="#V" y="510.207"/><g><use x="494.64" xlink:href="#s" y="510.207"/><use x="498.882549" xlink:href="#B" y="510.207"/><use x="504.337099" xlink:href="#T" y="510.207"/><use x="509.791649" xlink:href="#t" y="510.207"/></g><g><use x="3.798" xlink:href="#w" y="542.079"/><use x="11.676552" xlink:href="#b" y="542.079"/><use x="17.737648" xlink:href="#c" y="542.079"/><use x="22.585652" xlink:href="#e" y="542.079"/><use x="26.858746" xlink:href="#c" y="542.079"/></g><use x="35.057" xlink:href="#ab" y="542.079"/><use x="41.631" xlink:href="#aD" y="538.12"/><use x="48.215" xlink:href="#F" y="542.079"/><g><use x="58.554645" xlink:href="#r" y="542.079"/><use x="64.615741" xlink:href="#c" y="542.079"/><use x="69.463745" xlink:href="#d" y="542.079"/><use x="73.706294" xlink:href="#s" y="542.079"/><use x="77.948843" xlink:href="#e" y="542.079"/><use x="82.221937" xlink:href="#t" y="542.079"/></g><use x="89.486307" xlink:href="#y" y="542.079"/><g><use x="101.004135" xlink:href="#E" y="542.079"/><use x="106.458685" xlink:href="#N" y="542.079"/></g><g><use x="114.2456" xlink:href="#a" y="542.079"/><use x="122.124152" xlink:href="#b" y="542.079"/><use x="128.185248" xlink:href="#c" y="542.079"/></g><g><use x="136.382346" xlink:href="#i" y="542.079"/><use x="139.716167" xlink:href="#v" y="542.079"/><use x="145.777263" xlink:href="#g" y="542.079"/><use x="151.838359" xlink:href="#p" y="542.079"/><use x="156.686363" xlink:href="#d" y="542.079"/><use x="160.928912" xlink:href="#l" y="542.079"/><use x="163.95946" xlink:href="#j" y="542.079"/><use x="169.41401" xlink:href="#g" y="542.079"/></g><g><use x="178.823" xlink:href="#aA" y="542.079"/><use x="184.550277" xlink:href="#aB" y="542.079"/><use x="190.277555" xlink:href="#aC" y="542.079"/><use x="196.004833" xlink:href="#av" y="542.079"/></g><g><use x="205.082" xlink:href="#h" y="542.079"/><use x="209.384549" xlink:href="#b" y="542.079"/><use x="215.445645" xlink:href="#j" y="542.079"/></g><g><use x="220.59474" xlink:href="#w" y="542.079"/><use x="228.473292" xlink:href="#h" y="542.079"/></g><use x="236.124935" xlink:href="#f" y="542.079"/><use x="244.928579" xlink:href="#g" y="542.079"/><g><use x="250.695129" xlink:href="#v" y="542.079"/><use x="256.756225" xlink:href="#k" y="542.079"/></g><use x="265.541323" xlink:href="#D" y="542.079"/><g><use x="271.907874" xlink:href="#c" y="542.079"/><use x="276.755878" xlink:href="#e" y="542.079"/></g><use x="284.375" xlink:href="#ad" y="542.079"/><use x="291.993" xlink:href="#as" y="542.079"/><g><use x="302.33" xlink:href="#r" y="542.079"/><use x="308.391096" xlink:href="#c" y="542.079"/><use x="313.2391" xlink:href="#d" y="542.079"/><use x="317.481649" xlink:href="#s" y="542.079"/><use x="321.724198" xlink:href="#e" y="542.079"/><use x="325.997292" xlink:href="#t" y="542.079"/><use x="330.239841" xlink:href="#Q" y="542.079"/></g><g><use x="336.674029" xlink:href="#w" y="542.079"/><use x="344.552581" xlink:href="#b" y="542.079"/><use x="350.613677" xlink:href="#c" y="542.079"/><use x="355.461681" xlink:href="#e" y="542.079"/><use x="359.734775" xlink:href="#c" y="542.079"/></g><use x="367.936" xlink:href="#ad" y="542.079"/><use x="376.732" xlink:href="#y" y="542.079"/><use x="388.249828" xlink:href="#E" y="542.079"/><use x="393.702" xlink:href="#ac" y="542.079"/><g><use x="396.732" xlink:href="#H" y="542.079"/><use x="402.18655" xlink:href="#T" y="542.079"/><use x="407.6411" xlink:href="#M" y="542.079"/><use x="413.09565" xlink:href="#N" y="542.079"/></g><g><use x="420.882566" xlink:href="#d" y="542.079"/><use x="425.125115" xlink:href="#b" y="542.079"/></g><g><use x="430.880756" xlink:href="#v" y="542.079"/><use x="436.941852" xlink:href="#h" y="542.079"/></g><g><use x="444.593494" xlink:href="#d" y="542.079"/><use x="448.836043" xlink:href="#b" y="542.079"/><use x="454.897139" xlink:href="#c" y="542.079"/></g><g><use x="463.094237" xlink:href="#f" y="542.079"/><use x="468.548787" xlink:href="#q" y="542.079"/><use x="471.579335" xlink:href="#d" y="542.079"/><use x="475.821884" xlink:href="#c" y="542.079"/><use x="480.669888" xlink:href="#e" y="542.079"/><use x="484.942983" xlink:href="#g" y="542.079"/><use x="491.004079" xlink:href="#f" y="542.079"/><use x="496.458629" xlink:href="#d" y="542.079"/><use x="500.701178" xlink:href="#l" y="542.079"/><use x="503.731726" xlink:href="#J" y="542.079"/></g><use x="509.184094" xlink:href="#c" y="542.079"/><g><use x="3.798" xlink:href="#i" y="555.628"/><use x="7.131821" xlink:href="#j" y="555.628"/><use x="12.586371" xlink:href="#e" y="555.628"/><use x="16.859465" xlink:href="#k" y="555.628"/></g><g><use x="29.582749" xlink:href="#l" y="555.628"/><use x="32.613297" xlink:href="#h" y="555.628"/></g><g><use x="40.559485" xlink:href="#v" y="555.628"/><use x="46.620581" xlink:href="#h" y="555.628"/><use x="50.92313" xlink:href="#c" y="555.628"/><use x="55.771134" xlink:href="#r" y="555.628"/></g><g><use x="65.46496" xlink:href="#w" y="555.628"/><use x="73.343512" xlink:href="#b" y="555.628"/><use x="79.404608" xlink:href="#c" y="555.628"/><use x="84.252612" xlink:href="#g" y="555.628"/></g><g><use x="93.946439" xlink:href="#r" y="555.628"/><use x="100.007535" xlink:href="#c" y="555.628"/><use x="104.855539" xlink:href="#d" y="555.628"/><use x="109.098088" xlink:href="#s" y="555.628"/><use x="113.340637" xlink:href="#e" y="555.628"/><use x="117.613731" xlink:href="#t" y="555.628"/></g><use x="124.889" xlink:href="#ae" y="555.628"/><use x="133.374" xlink:href="#y" y="555.628"/><use x="144.891828" xlink:href="#C" y="555.628"/><use x="150.344" xlink:href="#ac" y="555.628"/><g><use x="153.374" xlink:href="#B" y="555.628"/><use x="158.82855" xlink:href="#G" y="555.628"/><use x="164.2831" xlink:href="#M" y="555.628"/><use x="169.73765" xlink:href="#N" y="555.628"/></g></svg>