<svg height="209pt" viewBox="0 0 517 209" width="517pt" xmlns="http://www.w3.org/2000/svg" xmlns:xlink="http://www.w3.org/1999/xlink"><symbol id="a" overflow="visible"><path d="m.375-7.453125v.34375h.265625c.84375 0 .859375.125.859375.515625v5.75c0 .390625-.015625.5-.859375.5h-.265625v.34375h4c1.828125 0 3.328125-1.609375 3.328125-3.671875s-1.46875-3.78125-3.328125-3.78125zm2.609375 7.109375c-.515625 0-.546875-.078125-.546875-.4375v-5.890625c0-.359375.03125-.4375.546875-.4375h1.078125c.6875 0 1.4375.234375 1.984375 1.015625.46875.640625.578125 1.578125.578125 2.421875 0 1.21875-.21875 1.875-.609375 2.40625-.21875.296875-.828125.921875-1.9375.921875zm0 0"/></symbol><symbol id="b" overflow="visible"><path d="m1.9375-4.828125-1.53125.125v.34375c.703125 0 .796875.0625.796875.59375v2.9375c0 .484375-.109375.484375-.84375.484375v.34375c.34375-.015625.9375-.03125 1.203125-.03125.375 0 .765625.015625 1.125.03125v-.34375c-.71875 0-.75-.046875-.75-.46875zm.03125-1.890625c0-.34375-.265625-.578125-.578125-.578125-.328125 0-.578125.296875-.578125.578125 0 .296875.25.578125.578125.578125.3125 0 .578125-.234375.578125-.578125zm0 0"/></symbol><symbol id="c" overflow="visible"><path d="m2.265625-2.109375c.25.03125 1.140625.21875 1.140625 1 0 .546875-.390625.984375-1.234375.984375-.921875 0-1.3125-.609375-1.515625-1.546875-.03125-.140625-.046875-.1875-.15625-.1875-.140625 0-.140625.078125-.140625.28125v1.4375c0 .1875 0 .265625.125.265625.046875 0 .0625-.015625.265625-.21875.03125-.03125.03125-.046875.21875-.25.484375.453125.96875.46875 1.203125.46875 1.25 0 1.75-.734375 1.75-1.515625 0-.578125-.328125-.90625-.453125-1.046875-.359375-.34375-.78125-.4375-1.25-.515625-.609375-.125-1.328125-.265625-1.328125-.890625 0-.390625.28125-.828125 1.21875-.828125 1.1875 0 1.25.96875 1.265625 1.3125.015625.09375.109375.09375.140625.09375.140625 0 .140625-.046875.140625-.25v-1.109375c0-.1875 0-.265625-.125-.265625-.046875 0-.078125 0-.21875.140625-.03125.03125-.140625.140625-.1875.171875-.40625-.3125-.859375-.3125-1.015625-.3125-1.328125 0-1.75.734375-1.75 1.34375 0 .390625.171875.6875.46875.921875.34375.296875.65625.359375 1.4375.515625zm0 0"/></symbol><symbol id="d" overflow="visible"><path d="m3.625-.828125c.046875.4375.34375.890625.859375.890625.234375 0 .890625-.15625.890625-1.03125v-.609375h-.265625v.609375c0 .625-.28125.703125-.390625.703125-.359375 0-.40625-.5-.40625-.546875v-2.1875c0-.453125 0-.875-.390625-1.28125-.4375-.4375-.984375-.609375-1.5-.609375-.890625 0-1.640625.515625-1.640625 1.234375 0 .328125.21875.515625.5.515625.296875 0 .5-.21875.5-.5 0-.140625-.0625-.5-.5625-.5.296875-.390625.828125-.5 1.1875-.5.53125 0 1.15625.421875 1.15625 1.390625v.40625c-.5625.03125-1.328125.0625-2.015625.390625-.8125.375-1.09375.9375-1.09375 1.421875 0 .875 1.0625 1.15625 1.75 1.15625.71875 0 1.21875-.4375 1.421875-.953125zm-.0625-1.796875v1.09375c0 1.046875-.796875 1.40625-1.28125 1.40625-.53125 0-.984375-.375-.984375-.921875 0-.59375.453125-1.5 2.265625-1.578125zm0 0"/></symbol><symbol id="e" overflow="visible"><path d="m1.875-4.109375v-3.453125l-1.5625.109375v.34375c.75 0 .84375.078125.84375.609375v6.5h.265625c.015625-.015625.109375-.15625.40625-.671875.15625.25.609375.796875 1.421875.796875 1.296875 0 2.4375-1.078125 2.4375-2.484375 0-1.375-1.078125-2.46875-2.3125-2.46875-.859375 0-1.328125.515625-1.5.71875zm.03125 2.859375v-2.234375c0-.21875 0-.21875.125-.390625.421875-.625 1.015625-.703125 1.28125-.703125.5 0 .890625.28125 1.140625.703125.296875.4375.328125 1.0625.328125 1.515625 0 .390625-.03125 1.046875-.34375 1.546875-.234375.328125-.640625.6875-1.234375.6875-.484375 0-.875-.25-1.140625-.65625-.15625-.234375-.15625-.265625-.15625-.46875zm0 0"/></symbol><symbol id="f" overflow="visible"><path d="m1.9375-7.5625-1.578125.109375v.34375c.765625 0 .84375.078125.84375.609375v5.671875c0 .484375-.109375.484375-.84375.484375v.34375c.359375-.015625.9375-.03125 1.21875-.03125.265625 0 .796875.015625 1.203125.03125v-.34375c-.734375 0-.84375 0-.84375-.484375zm0 0"/></symbol><symbol id="g" overflow="visible"><path d="m1.21875-2.75c.0625-1.625.984375-1.890625 1.359375-1.890625 1.125 0 1.234375 1.46875 1.234375 1.890625zm-.015625.234375h3.046875c.25 0 .28125 0 .28125-.234375 0-1.078125-.59375-2.140625-1.953125-2.140625-1.265625 0-2.265625 1.125-2.265625 2.484375 0 1.46875 1.140625 2.53125 2.390625 2.53125 1.328125 0 1.828125-1.21875 1.828125-1.421875 0-.109375-.09375-.125-.140625-.125-.109375 0-.125.0625-.140625.140625-.390625 1.125-1.375 1.125-1.484375 1.125-.546875 0-.984375-.328125-1.234375-.734375-.328125-.515625-.328125-1.234375-.328125-1.625zm0 0"/></symbol><symbol id="h" overflow="visible"><path d="m1.890625-4.359375h1.5625v-.34375h-1.5625v-2h-.28125c0 .890625-.328125 2.0625-1.40625 2.09375v.25h.9375v3c0 1.34375 1.015625 1.484375 1.40625 1.484375.765625 0 1.078125-.78125 1.078125-1.484375v-.609375h-.28125v.59375c0 .8125-.328125 1.21875-.71875 1.21875-.734375 0-.734375-.984375-.734375-1.171875zm0 0"/></symbol><symbol id="i" overflow="visible"><path d="m1.203125-.828125c0 .484375-.125.484375-.859375.484375v.34375c.390625-.015625.9375-.03125 1.234375-.03125.28125 0 .859375.015625 1.21875.03125v-.34375c-.71875 0-.84375 0-.84375-.484375v-2c0-1.140625.765625-1.75 1.46875-1.75.6875 0 .8125.59375.8125 1.203125v2.546875c0 .484375-.125.484375-.859375.484375v.34375c.390625-.015625.9375-.03125 1.234375-.03125.28125 0 .859375.015625 1.21875.03125v-.34375c-.5625 0-.828125 0-.84375-.328125v-2.078125c0-.9375 0-1.28125-.34375-1.671875-.140625-.1875-.5-.40625-1.140625-.40625-.921875 0-1.390625.65625-1.578125 1.078125v-3.8125l-1.578125.109375v.34375c.765625 0 .859375.078125.859375.609375zm0 0"/></symbol><symbol id="j" overflow="visible"><path d="m1.203125-3.75v2.921875c0 .484375-.125.484375-.859375.484375v.34375c.390625-.015625.9375-.03125 1.234375-.03125.28125 0 .859375.015625 1.21875.03125v-.34375c-.71875 0-.84375 0-.84375-.484375v-2c0-1.140625.765625-1.75 1.46875-1.75.6875 0 .8125.59375.8125 1.203125v2.546875c0 .484375-.125.484375-.859375.484375v.34375c.390625-.015625.9375-.03125 1.234375-.03125.28125 0 .859375.015625 1.21875.03125v-.34375c-.5625 0-.828125 0-.84375-.328125v-2.078125c0-.9375 0-1.28125-.34375-1.671875-.140625-.1875-.5-.40625-1.140625-.40625-.796875 0-1.3125.46875-1.609375 1.15625v-1.15625l-1.546875.125v.34375c.765625 0 .859375.078125.859375.609375zm0 0"/></symbol><symbol id="k" overflow="visible"><path d="m5.140625-2.328125c0-1.40625-1.09375-2.5625-2.421875-2.5625-1.359375 0-2.40625 1.1875-2.40625 2.5625 0 1.40625 1.125 2.453125 2.40625 2.453125 1.3125 0 2.421875-1.078125 2.421875-2.453125zm-2.421875 2.171875c-.46875 0-.9375-.21875-1.234375-.734375-.28125-.46875-.28125-1.140625-.28125-1.53125 0-.421875 0-1.015625.265625-1.5.296875-.5.8125-.71875 1.25-.71875.484375 0 .953125.234375 1.234375.703125s.28125 1.109375.28125 1.515625c0 .390625 0 .984375-.25 1.46875-.234375.484375-.71875.796875-1.265625.796875zm0 0"/></symbol><symbol id="l" overflow="visible"><path d="m1.828125-3.625v-1.203125l-1.515625.125v.34375c.75 0 .84375.078125.84375.609375v2.921875c0 .484375-.125.484375-.84375.484375v.34375c.421875-.015625.9375-.03125 1.234375-.03125.4375 0 .953125 0 1.390625.03125v-.34375h-.234375c-.8125 0-.828125-.109375-.828125-.5v-1.6875c0-1.078125.453125-2.046875 1.28125-2.046875.078125 0 .109375 0 .125.015625-.03125 0-.25.140625-.25.421875 0 .296875.234375.46875.46875.46875.203125 0 .46875-.140625.46875-.484375s-.34375-.671875-.8125-.671875c-.796875 0-1.1875.734375-1.328125 1.203125zm0 0"/></symbol><symbol id="m" overflow="visible"><path d="m1.90625-4.703125v-1.265625c0-.953125.53125-1.484375 1-1.484375.03125 0 .203125 0 .359375.078125-.125.046875-.328125.1875-.328125.453125s.1875.46875.46875.46875c.328125 0 .484375-.203125.484375-.46875 0-.40625-.40625-.765625-.984375-.765625-.75 0-1.6875.578125-1.6875 1.734375v1.25h-.859375v.34375h.859375v3.53125c0 .484375-.125.484375-.84375.484375v.34375c.421875-.015625.9375-.03125 1.234375-.03125.4375 0 .953125 0 1.390625.03125v-.34375h-.234375c-.796875 0-.828125-.109375-.828125-.5v-3.515625h1.25v-.34375zm0 0"/></symbol><symbol id="n" overflow="visible"><path d="m2.421875-1.875c-.953125 0-.953125-1.09375-.953125-1.34375 0-.296875.015625-.640625.171875-.921875.09375-.125.34375-.421875.78125-.421875.953125 0 .953125 1.078125.953125 1.328125 0 .296875-.015625.65625-.171875.921875-.09375.125-.34375.4375-.78125.4375zm-1.265625.421875c0-.046875 0-.296875.1875-.515625.421875.3125.875.34375 1.078125.34375 1.015625 0 1.765625-.75 1.765625-1.59375 0-.40625-.171875-.8125-.453125-1.0625.40625-.359375.796875-.421875.984375-.421875.03125 0 .078125 0 .109375.015625-.109375.046875-.171875.15625-.171875.296875 0 .1875.140625.3125.3125.3125.109375 0 .328125-.078125.328125-.328125 0-.1875-.140625-.53125-.5625-.53125-.21875 0-.703125.0625-1.15625.515625-.453125-.359375-.921875-.40625-1.15625-.40625-1.015625 0-1.765625.765625-1.765625 1.59375 0 .484375.234375.90625.515625 1.125-.140625.171875-.34375.53125-.34375.90625 0 .34375.140625.75.484375.96875-.65625.1875-1 .65625-1 1.09375 0 .78125 1.078125 1.390625 2.40625 1.390625 1.28125 0 2.421875-.5625 2.421875-1.40625 0-.390625-.15625-.9375-.71875-1.25-.578125-.296875-1.203125-.296875-1.875-.296875-.265625 0-.734375 0-.8125-.015625-.34375-.046875-.578125-.375-.578125-.734375zm1.5625 3.453125c-1.09375 0-1.84375-.5625-1.84375-1.140625 0-.5.40625-.90625.890625-.9375h.640625c.9375 0 2.15625 0 2.15625.9375 0 .59375-.765625 1.140625-1.84375 1.140625zm0 0"/></symbol><symbol id="o" overflow="visible"><path d="m4.140625-.59375v.71875l1.609375-.125v-.34375c-.765625 0-.859375-.078125-.859375-.609375v-6.609375l-1.5625.109375v.34375c.765625 0 .84375.078125.84375.609375v2.359375c-.3125-.390625-.78125-.6875-1.375-.6875-1.28125 0-2.421875 1.078125-2.421875 2.484375 0 1.390625 1.0625 2.46875 2.3125 2.46875.6875 0 1.1875-.375 1.453125-.71875zm0-2.921875v2.234375c0 .1875 0 .21875-.109375.390625-.328125.53125-.828125.765625-1.296875.765625-.484375 0-.875-.28125-1.140625-.6875-.28125-.453125-.3125-1.078125-.3125-1.515625 0-.40625.015625-1.0625.328125-1.546875.234375-.34375.640625-.703125 1.234375-.703125.390625 0 .84375.15625 1.1875.65625.109375.1875.109375.203125.109375.40625zm0 0"/></symbol><symbol id="p" overflow="visible"><path d="m4.25-4.375c.109375-.125.109375-.140625.109375-.1875 0-.140625-.09375-.140625-.296875-.140625h-3.484375l-.125 1.765625h.28125c.0625-1.125.265625-1.515625 1.46875-1.515625h1.25l-3.046875 4.109375c-.09375.109375-.09375.140625-.09375.1875 0 .15625.0625.15625.28125.15625h3.59375l.1875-2.046875h-.28125c-.09375 1.296875-.3125 1.78125-1.578125 1.78125h-1.296875zm0 0"/></symbol><symbol id="q" overflow="visible"><path d="m2.09375-.578125c0-.3125-.265625-.578125-.578125-.578125s-.578125.265625-.578125.578125.265625.578125.578125.578125.578125-.265625.578125-.578125zm0 0"/></symbol><symbol id="r" overflow="visible"><path d="m7.265625-7.390625h-6.671875l-.203125 2.46875h.28125c.140625-1.765625.3125-2.125 1.953125-2.125.203125 0 .484375 0 .59375.015625.234375.046875.234375.171875.234375.421875v5.75c0 .375 0 .515625-1.15625.515625h-.4375v.34375c.453125-.03125 1.5625-.03125 2.0625-.03125s1.625 0 2.078125.03125v-.34375h-.4375c-1.140625 0-1.140625-.140625-1.140625-.515625v-5.75c0-.21875 0-.375.1875-.421875.125-.015625.421875-.015625.625-.015625 1.640625 0 1.8125.359375 1.96875 2.125h.265625zm0 0"/></symbol><symbol id="s" overflow="visible"><path d="m4.265625-.859375v.984375l1.5625-.125v-.34375c-.75 0-.84375-.078125-.84375-.609375v-3.875l-1.609375.125v.34375c.765625 0 .859375.078125.859375.609375v1.9375c0 .953125-.53125 1.6875-1.328125 1.6875-.90625 0-.953125-.5-.953125-1.078125v-3.625l-1.609375.125v.34375c.859375 0 .859375.03125.859375 1v1.640625c0 .84375 0 1.84375 1.65625 1.84375.609375 0 1.09375-.3125 1.40625-.984375zm0 0"/></symbol><symbol id="t" overflow="visible"><path d="m5.015625-3.484375c0-.875-.046875-1.75-.4375-2.5625-.5-1.046875-1.390625-1.21875-1.859375-1.21875-.640625 0-1.4375.28125-1.890625 1.296875-.34375.75-.40625 1.609375-.40625 2.484375 0 .8125.046875 1.796875.5 2.625.46875.875 1.265625 1.09375 1.796875 1.09375.578125 0 1.421875-.21875 1.890625-1.265625.359375-.75.40625-1.59375.40625-2.453125zm-2.296875 3.484375c-.421875 0-1.078125-.265625-1.265625-1.3125-.125-.65625-.125-1.671875-.125-2.3125 0-.6875 0-1.40625.09375-2 .203125-1.296875 1.015625-1.40625 1.296875-1.40625.359375 0 1.078125.203125 1.28125 1.28125.109375.609375.109375 1.4375.109375 2.125 0 .828125 0 1.5625-.125 2.265625-.15625 1.03125-.78125 1.359375-1.265625 1.359375zm0 0"/></symbol><symbol id="u" overflow="visible"><path d="m1.203125-3.75v2.921875c0 .484375-.125.484375-.859375.484375v.34375c.390625-.015625.9375-.03125 1.234375-.03125.28125 0 .859375.015625 1.21875.03125v-.34375c-.71875 0-.84375 0-.84375-.484375v-2c0-1.140625.765625-1.75 1.46875-1.75.6875 0 .8125.59375.8125 1.203125v2.546875c0 .484375-.125.484375-.859375.484375v.34375c.390625-.015625.9375-.03125 1.234375-.03125.28125 0 .859375.015625 1.21875.03125v-.34375c-.71875 0-.84375 0-.84375-.484375v-2c0-1.140625.78125-1.75 1.46875-1.75s.8125.59375.8125 1.203125v2.546875c0 .484375-.125.484375-.859375.484375v.34375c.390625-.015625.9375-.03125 1.234375-.03125.28125 0 .859375.015625 1.21875.03125v-.34375c-.5625 0-.828125 0-.84375-.328125v-2.078125c0-.9375 0-1.28125-.34375-1.671875-.140625-.1875-.5-.40625-1.140625-.40625-.921875 0-1.390625.65625-1.578125 1.078125-.15625-.953125-.96875-1.078125-1.453125-1.078125-.796875 0-1.3125.46875-1.609375 1.15625v-1.15625l-1.546875.125v.34375c.765625 0 .859375.078125.859375.609375zm0 0"/></symbol><symbol id="v" overflow="visible"><path d="m3.125-2.5625c.328125-.421875.75-.953125 1.015625-1.234375.328125-.390625.78125-.5625 1.296875-.5625v-.34375c-.296875.03125-.609375.03125-.90625.03125-.328125 0-.90625-.015625-1.046875-.03125v.34375c.234375.015625.328125.15625.328125.328125 0 .1875-.109375.328125-.171875.390625l-.671875.84375-.859375-1.09375c-.09375-.109375-.09375-.140625-.09375-.203125 0-.15625.171875-.265625.390625-.265625v-.34375c-.296875.015625-1.015625.03125-1.1875.03125-.21875 0-.734375 0-1.03125-.03125v.34375c.765625 0 .765625 0 1.28125.65625l1.078125 1.40625-1.015625 1.296875c-.53125.640625-1.171875.65625-1.40625.65625v.34375c.296875-.015625.625-.03125.90625-.03125.328125 0 .78125.015625 1.046875.03125v-.34375c-.25-.03125-.328125-.171875-.328125-.328125 0-.25.328125-.609375.984375-1.390625l.828125 1.09375c.09375.125.234375.296875.234375.359375 0 .09375-.09375.265625-.390625.265625v.34375c.328125-.015625.9375-.03125 1.171875-.03125.296875 0 .71875.015625 1.046875.03125v-.34375c-.59375 0-.78125-.015625-1.03125-.328125zm0 0"/></symbol><symbol id="w" overflow="visible"><path d="m1.875-4.09375v-.734375l-1.5625.125v.34375c.765625 0 .84375.0625.84375.546875v5.09375c0 .5-.125.5-.84375.5v.328125c.359375 0 .9375-.03125 1.21875-.03125.296875 0 .84375.03125 1.234375.03125v-.328125c-.734375 0-.859375 0-.859375-.5v-1.921875c.0625.171875.515625.765625 1.34375.765625 1.296875 0 2.4375-1.078125 2.4375-2.484375 0-1.375-1.0625-2.46875-2.28125-2.46875-.859375 0-1.3125.484375-1.53125.734375zm.03125 2.84375v-2.421875c.3125-.5625.859375-.875 1.40625-.875.796875 0 1.46875.953125 1.46875 2.1875 0 1.328125-.765625 2.234375-1.578125 2.234375-.4375 0-.84375-.21875-1.140625-.65625-.15625-.234375-.15625-.25-.15625-.46875zm0 0"/></symbol><symbol id="x" overflow="visible"><path d="m4.53125-3.671875c.28125-.6875.828125-.6875 1.015625-.6875v-.34375c-.25.03125-.578125.03125-.828125.03125-.1875 0-.703125-.015625-.9375-.03125v.34375c.328125 0 .5.1875.5.46875 0 .109375 0 .125-.0625.265625l-1.09375 2.671875-1.21875-2.921875c-.046875-.109375-.0625-.15625-.0625-.203125 0-.28125.40625-.28125.609375-.28125v-.34375c-.28125.015625-1 .03125-1.1875.03125-.296875 0-.734375 0-1.0625-.03125v.34375c.53125 0 .734375 0 .890625.375l1.625 3.984375c-.046875.140625-.203125.5-.265625.640625-.234375.609375-.546875 1.359375-1.25 1.359375-.046875 0-.296875 0-.5-.203125.328125-.046875.421875-.28125.421875-.453125 0-.28125-.203125-.453125-.453125-.453125-.21875 0-.46875.140625-.46875.46875 0 .484375.46875.875 1 .875.6875 0 1.140625-.625 1.40625-1.234375zm0 0"/></symbol><symbol id="y" overflow="visible"><path d="m3.609375 2.625c0-.046875 0-.0625-.1875-.25-1.359375-1.375-1.703125-3.4375-1.703125-5.09375 0-1.90625.40625-3.796875 1.75-5.171875.140625-.125.140625-.140625.140625-.1875 0-.0625-.046875-.09375-.109375-.09375-.109375 0-1.09375.734375-1.734375 2.125-.5625 1.1875-.6875 2.40625-.6875 3.328125 0 .84375.125 2.15625.71875 3.390625.65625 1.34375 1.59375 2.046875 1.703125 2.046875.0625 0 .109375-.03125.109375-.09375zm0 0"/></symbol><symbol id="z" overflow="visible"><path d="m2.09375-4.125c0-.3125-.265625-.578125-.578125-.578125s-.578125.265625-.578125.578125.265625.578125.578125.578125.578125-.265625.578125-.578125zm0 3.546875c0-.3125-.265625-.578125-.578125-.578125s-.578125.265625-.578125.578125.265625.578125.578125.578125.578125-.265625.578125-.578125zm0 0"/></symbol><symbol id="A" overflow="visible"><path d="m3.15625-2.71875c0-.859375-.125-2.171875-.71875-3.40625-.65625-1.34375-1.59375-2.046875-1.703125-2.046875-.0625 0-.109375.03125-.109375.09375 0 .046875 0 .0625.203125.265625 1.0625 1.078125 1.6875 2.8125 1.6875 5.09375 0 1.859375-.40625 3.78125-1.75 5.15625-.140625.125-.140625.140625-.140625.1875 0 .0625.046875.09375.109375.09375.109375 0 1.09375-.734375 1.734375-2.125.546875-1.1875.6875-2.40625.6875-3.3125zm0 0"/></symbol><symbol id="B" overflow="visible"><path d="m7.5-3.5625c.15625 0 .359375 0 .359375-.21875s-.203125-.21875-.359375-.21875h-6.53125c-.15625 0-.359375 0-.359375.21875s.203125.21875.375.21875zm0 2.109375c.15625 0 .359375 0 .359375-.21875s-.203125-.21875-.359375-.21875h-6.515625c-.171875 0-.375 0-.375.21875s.203125.21875.359375.21875zm0 0"/></symbol><symbol id="C" overflow="visible"><path d="m1.78125-4.984375c-.5-.328125-.546875-.703125-.546875-.890625 0-.65625.703125-1.109375 1.484375-1.109375.796875 0 1.484375.5625 1.484375 1.34375 0 .625-.421875 1.140625-1.078125 1.53125zm1.59375 1.03125c.78125-.40625 1.3125-.96875 1.3125-1.6875 0-1-.96875-1.625-1.96875-1.625-1.078125 0-1.96875.8125-1.96875 1.828125 0 .1875.03125.6875.484375 1.1875.125.140625.515625.40625.796875.59375-.640625.3125-1.578125.9375-1.578125 2.015625 0 1.15625 1.125 1.875 2.265625 1.875 1.234375 0 2.265625-.90625 2.265625-2.0625 0-.390625-.125-.890625-.53125-1.34375-.203125-.234375-.390625-.34375-1.078125-.78125zm-1.09375.46875 1.34375.84375c.296875.203125.8125.53125.8125 1.203125 0 .8125-.8125 1.375-1.71875 1.375-.9375 0-1.71875-.671875-1.71875-1.578125 0-.640625.359375-1.34375 1.28125-1.84375zm0 0"/></symbol><symbol id="D" overflow="visible"><path d="m3.203125-6.984375c0-.25 0-.28125-.25-.28125-.671875.703125-1.640625.703125-1.984375.703125v.328125c.21875 0 .859375 0 1.4375-.28125v5.65625c0 .390625-.046875.515625-1.015625.515625h-.359375v.34375c.390625-.03125 1.328125-.03125 1.765625-.03125s1.390625 0 1.765625.03125v-.34375h-.34375c-.984375 0-1.015625-.109375-1.015625-.515625zm0 0"/></symbol><symbol id="E" overflow="visible"><path d="m1.390625-.84375 1.15625-1.125c1.703125-1.5 2.34375-2.09375 2.34375-3.171875 0-1.25-.96875-2.125-2.3125-2.125-1.21875 0-2.03125 1-2.03125 1.96875 0 .625.546875.625.578125.625.1875 0 .5625-.140625.5625-.578125 0-.296875-.1875-.578125-.578125-.578125-.078125 0-.109375 0-.140625.015625.25-.703125.84375-1.109375 1.46875-1.109375 1 0 1.46875.875 1.46875 1.78125 0 .859375-.546875 1.734375-1.140625 2.40625l-2.09375 2.328125c-.125.125-.125.140625-.125.40625h4.046875l.296875-1.890625h-.265625c-.0625.3125-.125.796875-.234375.96875-.078125.078125-.796875.078125-1.046875.078125zm0 0"/></symbol><symbol id="F" overflow="visible"><path d="m6.75-3.671875c.203125-.53125.53125-.6875.921875-.6875v-.34375c-.25.03125-.5625.03125-.796875.03125-.328125 0-.8125-.015625-1.015625-.03125v.34375c.390625 0 .625.203125.625.515625 0 .0625 0 .09375-.046875.234375l-1 2.796875-1.078125-3.046875c-.046875-.125-.046875-.15625-.046875-.203125 0-.296875.421875-.296875.640625-.296875v-.34375c-.3125.015625-.875.03125-1.140625.03125-.328125 0-.640625 0-.96875-.03125v.34375c.40625 0 .578125.015625.6875.15625.0625.0625.171875.390625.25.609375l-.9375 2.640625-1.03125-2.921875c-.0625-.125-.0625-.15625-.0625-.1875 0-.296875.4375-.296875.65625-.296875v-.34375c-.328125.015625-.9375.03125-1.203125.03125-.03125 0-.609375 0-1-.03125v.34375c.53125 0 .671875.03125.796875.375l1.375 3.859375c.0625.15625.09375.25.234375.25s.15625-.078125.21875-.21875l1.09375-3.09375 1.109375 3.09375c.046875.125.078125.21875.21875.21875.15625 0 .1875-.109375.21875-.21875zm0 0"/></symbol><symbol id="G" overflow="visible"><path d="m3.15625-3.84375c.90625-.296875 1.53125-1.046875 1.53125-1.921875 0-.890625-.953125-1.5-2-1.5-1.109375 0-1.9375.65625-1.9375 1.484375 0 .359375.25.5625.5625.5625.328125 0 .546875-.234375.546875-.546875 0-.546875-.5-.546875-.671875-.546875.34375-.53125 1.0625-.671875 1.453125-.671875.453125 0 1.046875.234375 1.046875 1.21875 0 .125-.015625.765625-.3125 1.234375-.328125.53125-.6875.5625-.96875.578125-.078125 0-.34375.03125-.421875.03125-.09375 0-.15625.015625-.15625.125 0 .125.0625.125.25.125h.484375c.890625 0 1.296875.734375 1.296875 1.8125 0 1.484375-.75 1.796875-1.234375 1.796875-.46875 0-1.28125-.1875-1.671875-.828125.390625.046875.71875-.1875.71875-.609375 0-.390625-.28125-.609375-.609375-.609375-.25 0-.609375.15625-.609375.640625 0 .984375 1.015625 1.703125 2.203125 1.703125 1.328125 0 2.328125-.984375 2.328125-2.09375 0-.90625-.6875-1.75-1.828125-1.984375zm0 0"/></symbol><symbol id="H" overflow="visible"><path d="m4.453125-2.515625h3.046875c.15625 0 .359375 0 .359375-.203125 0-.21875-.203125-.21875-.359375-.21875h-3.046875v-3.0625c0-.15625 0-.359375-.203125-.359375-.21875 0-.21875.203125-.21875.359375v3.0625h-3.0625c-.15625 0-.359375 0-.359375.21875 0 .203125.203125.203125.359375.203125h3.0625v3.0625c0 .15625 0 .359375.21875.359375.203125 0 .203125-.203125.203125-.359375zm0 0"/></symbol><symbol id="I" overflow="visible"><path d="m3.203125-1.796875v.953125c0 .390625-.015625.5-.828125.5h-.21875v.34375c.4375-.03125 1-.03125 1.46875-.03125.453125 0 1.03125 0 1.484375.03125v-.34375h-.234375c-.8125 0-.828125-.109375-.828125-.5v-.953125h1.09375v-.34375h-1.09375v-4.953125c0-.21875 0-.296875-.171875-.296875-.09375 0-.140625 0-.21875.140625l-3.34375 5.109375v.34375zm.0625-.34375h-2.65625l2.65625-4.0625zm0 0"/></symbol><symbol id="J" overflow="visible"><path d="m1.28125-2.375c0-1.78125.890625-2.234375 1.46875-2.234375.09375 0 .78125 0 1.171875.40625-.453125.03125-.515625.359375-.515625.5 0 .28125.1875.5.5.5.28125 0 .5-.1875.5-.515625 0-.734375-.828125-1.171875-1.671875-1.171875-1.359375 0-2.359375 1.1875-2.359375 2.53125 0 1.40625 1.078125 2.484375 2.34375 2.484375 1.453125 0 1.8125-1.3125 1.8125-1.421875s-.109375-.109375-.140625-.109375c-.109375 0-.125.046875-.140625.109375-.328125 1.015625-1.03125 1.140625-1.4375 1.140625-.578125 0-1.53125-.46875-1.53125-2.21875zm0 0"/></symbol><symbol id="K" overflow="visible"><path d="m2.78125 2.71875v-.421875h-1.0625v-10.046875h1.0625v-.421875h-1.5v10.890625zm0 0"/></symbol><symbol id="L" overflow="visible"><path d="m1.734375-8.171875h-1.5v.421875h1.0625v10.046875h-1.0625v.421875h1.5zm0 0"/></symbol><symbol id="M" overflow="visible"><path d="m4.890625-2.1875c0-1.296875-.890625-2.390625-2.0625-2.390625-.53125 0-1 .171875-1.390625.546875v-2.125c.21875.078125.578125.140625.921875.140625 1.34375 0 2.109375-.984375 2.109375-1.125 0-.0625-.03125-.125-.109375-.125 0 0-.03125 0-.078125.03125-.21875.109375-.765625.3125-1.484375.3125-.4375 0-.9375-.0625-1.453125-.296875-.09375-.03125-.109375-.03125-.140625-.03125-.109375 0-.109375.078125-.109375.265625v3.21875c0 .203125 0 .28125.15625.28125.078125 0 .109375-.03125.140625-.09375.125-.171875.53125-.765625 1.40625-.765625.578125 0 .84375.5.9375.703125.171875.40625.1875.828125.1875 1.375 0 .375 0 1.03125-.25 1.484375-.265625.4375-.671875.71875-1.171875.71875-.796875 0-1.421875-.578125-1.609375-1.21875.03125 0 .0625.015625.1875.015625.359375 0 .546875-.265625.546875-.53125s-.1875-.53125-.546875-.53125c-.15625 0-.53125.078125-.53125.578125 0 .9375.75 1.984375 1.96875 1.984375 1.265625 0 2.375-1.046875 2.375-2.421875zm0 0"/></symbol><symbol id="N" overflow="visible"><path d="m1.4375-3.578125v-.265625c0-2.75 1.359375-3.140625 1.90625-3.140625.265625 0 .71875.0625.96875.4375-.171875 0-.609375 0-.609375.484375 0 .34375.265625.5.5.5.1875 0 .515625-.09375.515625-.515625 0-.65625-.484375-1.1875-1.390625-1.1875-1.390625 0-2.875 1.40625-2.875 3.8125 0 2.921875 1.265625 3.6875 2.28125 3.6875 1.21875 0 2.25-1.015625 2.25-2.453125 0-1.390625-.96875-2.4375-2.1875-2.4375-.734375 0-1.140625.5625-1.359375 1.078125zm1.296875 3.515625c-.6875 0-1.015625-.65625-1.078125-.828125-.1875-.5-.1875-1.375-.1875-1.578125 0-.84375.34375-1.9375 1.328125-1.9375.171875 0 .671875 0 1.015625.671875.1875.40625.1875.96875.1875 1.5 0 .515625 0 1.0625-.1875 1.453125-.328125.65625-.828125.71875-1.078125.71875zm0 0"/></symbol><symbol id="O" overflow="visible"><path d="m4.53125-3.625c.109375-.25.296875-.734375 1.015625-.734375v-.34375c-.25.03125-.578125.03125-.828125.03125-.265625 0-.765625-.015625-.9375-.03125v.34375c.390625 0 .515625.265625.515625.46875 0 .09375-.015625.140625-.0625.265625l-1.109375 2.78125-1.234375-3.046875c-.0625-.140625-.0625-.171875-.0625-.1875 0-.28125.421875-.28125.625-.28125v-.34375c-.328125.015625-.9375.03125-1.1875.03125-.296875 0-.734375 0-1.0625-.03125v.34375c.6875 0 .734375.0625.875.40625l1.578125 3.859375c.0625.15625.078125.21875.21875.21875s.1875-.109375.234375-.21875zm0 0"/></symbol><symbol id="P" overflow="visible"><path d="m8.328125-6.609375c.09375-.390625.109375-.5.90625-.5.28125 0 .375 0 .375-.21875 0-.125-.125-.125-.15625-.125-.296875 0-1.09375.03125-1.390625.03125-.3125 0-1.09375-.03125-1.40625-.03125-.09375 0-.203125 0-.203125.21875 0 .125.09375.125.296875.125.015625 0 .234375 0 .421875.015625.1875.03125.28125.03125.28125.171875 0 .046875 0 .078125-.03125.21875l-.65625 2.65625h-3.328125l.640625-2.5625c.09375-.390625.125-.5.921875-.5.28125 0 .359375 0 .359375-.21875 0-.125-.109375-.125-.140625-.125-.3125 0-1.09375.03125-1.40625.03125s-1.09375-.03125-1.40625-.03125c-.078125 0-.203125 0-.203125.21875 0 .125.09375.125.3125.125.015625 0 .21875 0 .40625.015625.203125.03125.296875.03125.296875.171875 0 .046875-.015625.078125-.046875.21875l-1.453125 5.859375c-.109375.421875-.140625.5-1 .5-.1875 0-.296875 0-.296875.21875 0 .125.140625.125.15625.125.3125 0 1.078125-.03125 1.390625-.03125.21875 0 .46875.015625.6875.015625.25 0 .484375.015625.71875.015625.078125 0 .21875 0 .21875-.21875 0-.125-.109375-.125-.3125-.125-.40625 0-.703125 0-.703125-.1875 0-.0625.015625-.125.03125-.1875l.734375-2.984375h3.328125c-.453125 1.8125-.703125 2.84375-.75 3-.109375.359375-.3125.359375-1 .359375-.15625 0-.25 0-.25.21875 0 .125.125.125.15625.125.296875 0 1.078125-.03125 1.375-.03125.234375 0 .46875.015625.703125.015625s.484375.015625.703125.015625c.09375 0 .21875 0 .21875-.21875 0-.125-.09375-.125-.296875-.125-.40625 0-.71875 0-.71875-.1875 0-.0625.03125-.125.03125-.1875zm0 0"/></symbol><symbol id="Q" overflow="visible"><path d="m2.21875-.015625c0-.71875-.28125-1.140625-.703125-1.140625-.359375 0-.578125.265625-.578125.578125 0 .296875.21875.578125.578125.578125.125 0 .265625-.046875.375-.140625.046875-.015625.046875-.03125.0625-.03125s.015625.015625.015625.15625c0 .8125-.375 1.46875-.734375 1.828125-.125.125-.125.140625-.125.171875 0 .078125.0625.125.109375.125.125 0 1-.84375 1-2.125zm0 0"/></symbol><symbol id="R" overflow="visible"><path d="m1.75-.84375c-.109375.421875-.140625.5-1 .5-.1875 0-.296875 0-.296875.21875 0 .125.109375.125.296875.125h3.890625c1.734375 0 3.015625-1.28125 3.015625-2.359375 0-.78125-.625-1.421875-1.6875-1.53125 1.125-.203125 2.28125-1.015625 2.28125-2.046875 0-.8125-.71875-1.515625-2.03125-1.515625h-3.671875c-.203125 0-.3125 0-.3125.21875 0 .125.09375.125.3125.125.015625 0 .21875 0 .40625.015625.203125.03125.296875.03125.296875.171875 0 .046875-.015625.078125-.046875.21875zm1.640625-3.140625.671875-2.71875c.109375-.375.125-.40625.59375-.40625h1.40625c.96875 0 1.1875.640625 1.1875 1.125 0 .953125-.9375 2-2.265625 2zm-.484375 3.640625c-.15625 0-.1875 0-.25 0-.109375-.015625-.140625-.03125-.140625-.109375 0-.03125 0-.0625.0625-.25l.75-3.046875h2.0625c1.046875 0 1.25.8125 1.25 1.28125 0 1.078125-.96875 2.125-2.25 2.125zm0 0"/></symbol><symbol id="S" overflow="visible"><path d="m4.78125-7.765625c.0625-.140625.0625-.1875.0625-.203125 0-.109375-.09375-.203125-.21875-.203125-.078125 0-.15625.03125-.1875.09375l-3.78125 10.390625c-.0625.140625-.0625.1875-.0625.203125 0 .109375.109375.203125.21875.203125.140625 0 .1875-.0625.25-.25zm0 0"/></symbol><symbol id="T" overflow="visible"><path d="m.484375 1.328125c-.078125.375-.109375.453125-.578125.453125-.140625 0-.25 0-.25.203125 0 .09375.046875.125.140625.125.296875 0 .609375-.03125.90625-.03125.359375 0 .734375.03125 1.078125.03125.0625 0 .203125 0 .203125-.21875 0-.109375-.109375-.109375-.265625-.109375-.546875 0-.546875-.078125-.546875-.171875 0-.140625.46875-1.921875.546875-2.1875.140625.3125.4375.703125 1 .703125 1.265625 0 2.625-1.59375 2.625-3.203125 0-1.015625-.625-1.75-1.453125-1.75-.546875 0-1.0625.40625-1.421875.828125-.109375-.59375-.578125-.828125-.984375-.828125-.5 0-.703125.4375-.8125.625-.1875.375-.328125 1.03125-.328125 1.0625 0 .109375.109375.109375.125.109375.109375 0 .125-.015625.1875-.25.1875-.78125.40625-1.296875.796875-1.296875.1875 0 .328125.078125.328125.5 0 .25-.03125.375-.0625.5625zm1.921875-4.734375c.078125-.296875.375-.59375.578125-.765625.375-.328125.6875-.40625.875-.40625.4375 0 .703125.375.703125 1.015625 0 .65625-.359375 1.90625-.5625 2.3125-.375.765625-.890625 1.125-1.296875 1.125-.71875 0-.859375-.90625-.859375-.96875 0-.015625 0-.046875.03125-.171875zm0 0"/></symbol><symbol id="U" overflow="visible"><path d="m.359375 1.890625c-.03125.125-.03125.15625-.03125.171875 0 .15625.125.296875.296875.296875.234375 0 .375-.203125.390625-.234375.046875-.09375.40625-1.5625.703125-2.734375.21875.4375.5625.734375 1.078125.734375 1.265625 0 2.671875-1.546875 2.671875-3.171875 0-1.15625-.71875-1.78125-1.515625-1.78125-1.046875 0-2.203125 1.09375-2.53125 2.421875zm2.421875-2.015625c-.765625 0-.9375-.875-.9375-.96875 0-.046875.046875-.265625.09375-.40625.296875-1.21875.40625-1.609375.640625-2.046875.46875-.796875 1.015625-1.03125 1.359375-1.03125.40625 0 .75.3125.75 1.0625 0 .609375-.3125 1.828125-.609375 2.359375-.359375.6875-.875 1.03125-1.296875 1.03125zm0 0"/></symbol><symbol id="V" overflow="visible"><path d="m3.640625-3.296875c.0625-.28125.3125-1.28125 1.078125-1.28125.0625 0 .3125 0 .546875.140625-.296875.046875-.515625.328125-.515625.59375 0 .171875.109375.375.40625.375.25 0 .59375-.203125.59375-.625 0-.578125-.640625-.734375-1.015625-.734375-.640625 0-1.015625.578125-1.140625.84375-.28125-.734375-.875-.84375-1.1875-.84375-1.125 0-1.75 1.421875-1.75 1.6875 0 .109375.109375.109375.125.109375.09375 0 .125-.015625.140625-.125.375-1.15625 1.09375-1.421875 1.46875-1.421875.203125 0 .59375.09375.59375.734375 0 .328125-.1875 1.0625-.59375 2.59375-.171875.671875-.5625 1.125-1.03125 1.125-.078125 0-.328125 0-.546875-.140625.265625-.046875.5-.28125.5-.578125s-.234375-.390625-.390625-.390625c-.328125 0-.609375.28125-.609375.640625 0 .5.546875.71875 1.03125.71875.71875 0 1.109375-.765625 1.140625-.828125.140625.390625.53125.828125 1.1875.828125 1.109375 0 1.734375-1.40625 1.734375-1.6875 0-.109375-.09375-.109375-.125-.109375-.09375 0-.125.046875-.140625.125-.359375 1.171875-1.109375 1.421875-1.453125 1.421875-.421875 0-.59375-.34375-.59375-.71875 0-.234375.0625-.46875.171875-.953125zm0 0"/></symbol><symbol id="W" overflow="visible"><path d="m5.296875-4.15625c.046875-.15625.046875-.171875.046875-.25 0-.203125-.15625-.296875-.3125-.296875-.109375 0-.28125.0625-.390625.234375-.015625.046875-.109375.390625-.140625.59375-.078125.28125-.15625.578125-.21875.859375l-.5 1.96875c-.046875.15625-.515625.921875-1.234375.921875-.546875 0-.671875-.46875-.671875-.875 0-.5.1875-1.1875.5625-2.140625.171875-.453125.21875-.5625.21875-.78125 0-.5-.359375-.90625-.90625-.90625-1.03125 0-1.4375 1.59375-1.4375 1.6875 0 .109375.109375.109375.140625.109375.109375 0 .109375-.015625.171875-.203125.296875-1.015625.734375-1.34375 1.09375-1.34375.09375 0 .28125 0 .28125.34375 0 .28125-.109375.5625-.1875.765625-.4375 1.15625-.640625 1.78125-.640625 2.296875 0 .96875.6875 1.296875 1.34375 1.296875.421875 0 .78125-.1875 1.09375-.5-.140625.578125-.265625 1.109375-.703125 1.6875-.28125.359375-.703125.6875-1.203125.6875-.15625 0-.640625-.03125-.828125-.46875.171875 0 .3125 0 .46875-.125.109375-.09375.21875-.234375.21875-.453125 0-.328125-.296875-.375-.40625-.375-.25 0-.609375.171875-.609375.703125 0 .546875.484375.953125 1.15625.953125 1.125 0 2.25-.984375 2.546875-2.21875zm0 0"/></symbol><symbol id="X" overflow="visible"><path d="m4.765625-7.3125c0-.015625.03125-.140625.03125-.140625 0-.015625 0-.109375-.125-.109375-.109375 0-.125.03125-.171875.21875l-.625 2.515625c-1.734375.046875-3.34375 1.5-3.34375 2.984375 0 1.03125.765625 1.890625 2.09375 1.96875-.078125.34375-.15625.6875-.25 1.03125-.125.515625-.234375.921875-.234375.953125 0 .109375.078125.125.125.125.0625 0 .078125-.015625.109375-.046875.03125-.015625.09375-.28125.125-.4375l.40625-1.625c1.765625-.046875 3.34375-1.515625 3.34375-2.984375 0-.859375-.578125-1.859375-2.09375-1.96875zm-2.078125 7.203125c-.65625-.03125-1.4375-.421875-1.4375-1.5 0-1.3125.9375-2.84375 2.5625-2.984375zm1.40625-4.484375c.828125.046875 1.453125.546875 1.453125 1.5 0 1.296875-.9375 2.859375-2.578125 2.984375zm0 0"/></symbol><symbol id="Y" overflow="visible"><path d="m.953125-.640625c-.03125.15625-.09375.40625-.09375.46875 0 .1875.15625.296875.3125.296875.140625 0 .328125-.09375.40625-.3125.03125-.046875.390625-1.53125.4375-1.71875.09375-.359375.28125-1.125.34375-1.421875.046875-.140625.359375-.65625.625-.890625.078125-.078125.390625-.359375.859375-.359375.296875 0 .453125.125.46875.125-.328125.0625-.578125.3125-.578125.609375 0 .171875.125.375.421875.375s.59375-.25.59375-.640625-.34375-.71875-.90625-.71875c-.703125 0-1.1875.546875-1.390625.84375-.09375-.484375-.484375-.84375-.984375-.84375-.515625 0-.71875.4375-.8125.625-.203125.375-.34375 1.03125-.34375 1.0625 0 .109375.109375.109375.140625.109375.109375 0 .109375-.015625.171875-.25.1875-.78125.40625-1.296875.796875-1.296875.1875 0 .34375.078125.34375.5 0 .234375-.03125.34375-.171875.921875zm0 0"/></symbol><symbol id="Z" overflow="visible"><path d="m7.1875-2.515625c.1875 0 .375 0 .375-.203125 0-.21875-.1875-.21875-.375-.21875h-5.90625c-.1875 0-.375 0-.375.21875 0 .203125.1875.203125.375.203125zm0 0"/></symbol><symbol id="aa" overflow="visible"><path d="m1.15625-.6875c.28125-.296875.375-.390625 1.078125-.96875.078125-.078125.640625-.53125.859375-.75.5-.484375.8125-.921875.8125-1.015625 0-.0625-.0625-.09375-.125-.09375-.078125 0-.078125.015625-.15625.140625-.25.359375-.421875.421875-.578125.421875-.140625 0-.234375-.0625-.40625-.21875-.203125-.203125-.359375-.34375-.609375-.34375-.640625 0-1.046875.71875-1.046875.9375 0 0 0 .09375.125.09375.078125 0 .109375-.03125.140625-.125.09375-.234375.4375-.3125.671875-.3125.1875 0 .375.046875.578125.109375.328125.09375.40625.09375.578125.09375-.15625.171875-.390625.390625-1 .890625-.328125.28125-.671875.546875-.890625.765625-.578125.578125-.84375.96875-.84375 1.046875s.0625.09375.125.09375c.078125 0 .09375-.015625.140625-.078125.15625-.234375.40625-.484375.703125-.484375.1875 0 .265625.0625.421875.21875.25.25.390625.34375.625.34375.828125 0 1.328125-.984375 1.328125-1.234375 0-.078125-.046875-.109375-.125-.109375s-.09375.046875-.125.140625c-.15625.390625-.59375.609375-.984375.609375-.15625 0-.328125-.046875-.578125-.109375-.328125-.078125-.40625-.078125-.53125-.078125-.078125 0-.125 0-.1875.015625zm0 0"/></symbol><symbol id="ab" overflow="visible"><path d="m3.6875-5.421875c0-.09375-.09375-.109375-.140625-.109375-.09375 0-.109375.046875-.140625.171875l-.453125 1.828125c-1.40625.0625-2.546875 1.125-2.546875 2.15625 0 .796875.6875 1.421875 1.640625 1.46875-.0625.234375-.125.5-.1875.75-.09375.375-.15625.65625-.15625.6875 0 0 0 .09375.109375.09375s.109375-.046875.15625-.1875l.328125-1.34375c1.421875-.0625 2.546875-1.109375 2.546875-2.15625 0-.90625-.796875-1.421875-1.625-1.453125zm-.53125 2.109375c.59375.046875 1.125.375 1.125 1.109375 0 .765625-.546875 1.9375-1.921875 2.0625zm-1.046875 3.1875c-.265625-.015625-1.125-.140625-1.125-1.109375 0-.859375.640625-1.9375 1.90625-2.0625zm0 0"/></symbol><symbol id="ac" overflow="visible"><path d="m1.53125-1.09375c.09375-.34375.1875-.6875.265625-1.046875 0-.015625.0625-.234375.0625-.28125.03125-.078125.234375-.40625.4375-.59375.25-.234375.53125-.28125.671875-.28125.078125 0 .234375.015625.34375.109375-.34375.078125-.390625.359375-.390625.4375 0 .171875.125.296875.3125.296875.203125 0 .453125-.171875.453125-.5 0-.28125-.25-.5625-.703125-.5625-.546875 0-.90625.359375-1.078125.578125-.15625-.578125-.703125-.578125-.78125-.578125-.28125 0-.484375.1875-.609375.4375-.1875.359375-.28125.765625-.28125.78125 0 .078125.0625.109375.125.109375.109375 0 .109375-.03125.171875-.25.09375-.390625.234375-.859375.5625-.859375.21875 0 .265625.203125.265625.375 0 .15625-.046875.296875-.109375.5625-.015625.0625-.140625.53125-.171875.640625l-.296875 1.203125c-.03125.125-.078125.3125-.078125.34375 0 .1875.15625.25.265625.25.28125 0 .328125-.21875.390625-.5zm0 0"/></symbol><symbol id="ad" overflow="visible"><path d="m4.125-3c.03125-.109375.03125-.125.03125-.1875 0-.203125-.15625-.25-.25-.25-.046875 0-.21875.015625-.328125.21875-.015625.046875-.09375.328125-.125.5l-.484375 1.90625c0 .03125-.34375.671875-.921875.671875-.390625 0-.53125-.296875-.53125-.640625 0-.46875.265625-1.171875.453125-1.640625.078125-.203125.109375-.265625.109375-.421875 0-.4375-.359375-.671875-.71875-.671875-.796875 0-1.125 1.125-1.125 1.21875 0 .078125.0625.109375.125.109375.109375 0 .109375-.046875.140625-.125.203125-.703125.546875-.984375.828125-.984375.125 0 .1875.078125.1875.265625 0 .171875-.0625.359375-.109375.5-.328125.84375-.46875 1.25-.46875 1.625 0 .78125.59375.984375 1.0625.984375.375 0 .640625-.171875.84375-.34375-.125.4375-.203125.75-.5 1.140625-.265625.3125-.578125.53125-.9375.53125-.140625 0-.4375-.03125-.59375-.265625.421875-.03125.453125-.390625.453125-.4375 0-.1875-.15625-.296875-.3125-.296875-.1875 0-.453125.140625-.453125.53125 0 .375.34375.6875.90625.6875.8125 0 1.71875-.65625 1.96875-1.609375zm0 0"/></symbol><symbol id="ae" overflow="visible"><path d="m4-3.171875c-.359375.078125-.375.390625-.375.421875 0 .171875.140625.296875.3125.296875s.4375-.140625.4375-.484375c0-.453125-.5-.578125-.796875-.578125-.359375 0-.671875.265625-.859375.578125-.171875-.421875-.578125-.578125-.90625-.578125-.875 0-1.359375 1-1.359375 1.21875 0 .078125.0625.109375.125.109375.09375 0 .109375-.046875.125-.140625.1875-.578125.671875-.96875 1.078125-.96875.3125 0 .46875.234375.46875.515625 0 .15625-.09375.53125-.15625.78125-.0625.234375-.234375.9375-.28125 1.09375-.109375.421875-.390625.765625-.75.765625-.03125 0-.234375 0-.40625-.109375.359375-.09375.359375-.421875.359375-.4375 0-.1875-.140625-.296875-.3125-.296875-.21875 0-.453125.1875-.453125.484375 0 .375.390625.578125.796875.578125.421875 0 .71875-.3125.859375-.578125.1875.390625.546875.578125.9375.578125.859375 0 1.34375-1 1.34375-1.21875 0-.078125-.0625-.109375-.125-.109375-.09375 0-.109375.0625-.140625.140625-.15625.53125-.609375.96875-1.0625.96875-.265625 0-.453125-.171875-.453125-.515625 0-.15625.046875-.34375.15625-.78125.046875-.25.21875-.9375.265625-1.09375.109375-.421875.390625-.765625.75-.765625.046875 0 .25 0 .421875.125zm0 0"/></symbol><symbol id="af" overflow="visible"><path d="m2.25-1.625c.125-.125.453125-.390625.59375-.5.484375-.453125.953125-.890625.953125-1.609375 0-.953125-.796875-1.5625-1.78125-1.5625-.96875 0-1.59375.71875-1.59375 1.4375 0 .390625.3125.4375.421875.4375.171875 0 .421875-.109375.421875-.421875 0-.40625-.40625-.40625-.5-.40625.234375-.59375.765625-.78125 1.15625-.78125.734375 0 1.125.625 1.125 1.296875 0 .828125-.578125 1.4375-1.53125 2.390625l-1 1.046875c-.09375.078125-.09375.09375-.09375.296875h3.140625l.234375-1.421875h-.25c-.015625.15625-.078125.546875-.171875.703125-.046875.0625-.65625.0625-.78125.0625h-1.421875zm0 0"/></symbol><symbol id="ag" overflow="visible"><path d="m3.453125-6.375c-.109375-.40625-.25-.421875-.59375-.421875-.3125 0-.5 0-.59375.421875l-1.3125 5.703125c-.15625 0-.40625 0-.46875.03125-.125.0625-.1875.171875-.1875.3125 0 .328125.28125.328125.46875.328125h1.109375c.203125 0 .453125 0 .453125-.328125 0-.34375-.21875-.34375-.609375-.34375l.25-1.125h1.765625l.25 1.125c-.390625 0-.609375 0-.609375.34375 0 .328125.265625.328125.46875.328125h1.109375c.1875 0 .46875 0 .46875-.328125 0-.140625-.0625-.25-.1875-.296875-.0625-.046875-.3125-.046875-.46875-.046875zm-.59375.46875h.015625l.703125 3.4375h-1.4375zm0 0"/></symbol><symbol id="ah" overflow="visible"><path d="m2.421875-2.03125c0-1.015625.640625-2.0625 1.96875-2.0625 0 .25.1875.46875.46875.46875.234375 0 .453125-.171875.453125-.46875 0-.21875-.125-.671875-1.03125-.671875-.5625 0-1.265625.203125-1.859375.890625v-.375c0-.34375-.0625-.453125-.4375-.453125h-1.203125c-.15625 0-.4375 0-.4375.328125 0 .34375.265625.34375.4375.34375h.890625v3.359375h-.890625c-.15625 0-.4375 0-.4375.328125 0 .34375.265625.34375.4375.34375h2.84375c.171875 0 .453125 0 .453125-.328125 0-.34375-.28125-.34375-.453125-.34375h-1.203125zm0 0"/></symbol><symbol id="ai" overflow="visible"><path d="m5.078125-1.1875c0-.3125-.3125-.3125-.375-.3125-.171875 0-.28125.03125-.359375.25-.0625.140625-.28125.65625-1.078125.65625-.9375 0-1.71875-.765625-1.71875-1.765625 0-.515625.3125-1.78125 1.78125-1.78125.234375 0 .65625 0 .65625.109375 0 .375.21875.53125.46875.53125.265625 0 .5-.1875.5-.5 0-.796875-1.140625-.796875-1.625-.796875-1.875 0-2.53125 1.484375-2.53125 2.4375 0 1.3125 1.03125 2.421875 2.40625 2.421875 1.515625 0 1.875-1.0625 1.875-1.25zm0 0"/></symbol><symbol id="aj" overflow="visible"><path d="m3.234375-6h1.4375v.578125c0 .203125 0 .453125.375.453125.390625 0 .390625-.234375.390625-.453125v-.796875c0-.328125-.078125-.4375-.4375-.4375h-4.265625c-.359375 0-.453125.078125-.453125.4375v.796875c0 .203125 0 .453125.375.453125s.375-.234375.375-.453125v-.578125h1.453125v5.328125h-.5625c-.171875 0-.4375 0-.4375.328125 0 .34375.265625.34375.4375.34375h1.890625c.15625 0 .4375 0 .4375-.328125 0-.34375-.265625-.34375-.4375-.34375h-.578125zm0 0"/></symbol><symbol id="ak" overflow="visible"><path d="m3.984375-.34375c.25.328125.765625.34375 1.1875.34375.296875 0 .546875 0 .546875-.34375 0-.328125-.28125-.328125-.4375-.328125-.453125 0-.5625-.046875-.65625-.078125v-2.359375c0-.765625-.59375-1.6875-2.15625-1.6875-.46875 0-1.578125 0-1.578125.796875 0 .328125.21875.5.484375.5.15625 0 .46875-.09375.484375-.5 0-.09375 0-.09375.21875-.125.15625-.015625.296875-.015625.390625-.015625.828125 0 1.40625.34375 1.40625 1.125-1.9375.03125-3.28125.578125-3.28125 1.625 0 .75.6875 1.453125 1.8125 1.453125.390625 0 1.078125-.078125 1.578125-.40625zm-.109375-2.03125v.90625c0 .265625 0 .484375-.421875.6875-.40625.1875-.890625.1875-.984375.1875-.671875 0-1.109375-.375-1.109375-.796875 0-.546875.9375-.9375 2.515625-.984375zm0 0"/></symbol><symbol id="al" overflow="visible"><path d="m1.8125-4.1875c0-.34375 0-.515625-.4375-.515625h-.796875c-.171875 0-.453125 0-.453125.34375 0 .328125.296875.328125.4375.328125h.5v3.359375h-.484375c-.171875 0-.453125 0-.453125.34375 0 .328125.296875.328125.4375.328125h1.734375c.15625 0 .4375 0 .4375-.328125 0-.34375-.265625-.34375-.4375-.34375h-.484375v-1.921875c0-1.09375.8125-1.5 1.359375-1.5.578125 0 .734375.296875.734375.953125v2.46875h-.421875c-.1875 0-.453125 0-.453125.34375 0 .328125.296875.328125.453125.328125h1.65625c.15625 0 .4375 0 .4375-.328125 0-.34375-.265625-.34375-.4375-.34375h-.484375v-2.53125c0-1.09375-.5625-1.5625-1.421875-1.5625-.71875 0-1.21875.375-1.421875.578125zm0 0"/></symbol><symbol id="am" overflow="visible"><path d="m1.9375-6h.609375c.15625 0 .453125 0 .453125-.328125s-.28125-.328125-.453125-.328125h-1.765625c-.171875 0-.4375 0-.4375.328125s.28125.328125.4375.328125h.40625v5.328125h-.40625c-.171875 0-.4375 0-.4375.34375 0 .328125.28125.328125.4375.328125h4.109375c.359375 0 .4375-.09375.4375-.453125v-.96875c0-.21875 0-.4375-.375-.4375-.390625 0-.390625.21875-.390625.4375v.75h-2.625zm0 0"/></symbol><symbol id="an" overflow="visible"><path d="m5.09375-2.359375c0-1.359375-1.015625-2.4375-2.234375-2.4375s-2.234375 1.078125-2.234375 2.4375c0 1.390625 1.03125 2.421875 2.234375 2.421875s2.234375-1.046875 2.234375-2.421875zm-2.234375 1.765625c-.8125 0-1.484375-.828125-1.484375-1.84375 0-.984375.703125-1.703125 1.484375-1.703125s1.484375.71875 1.484375 1.703125c0 1.015625-.671875 1.84375-1.484375 1.84375zm0 0"/></symbol><symbol id="ao" overflow="visible"><path d="m2.546875-1.921875c-.59375 0-1.046875-.515625-1.046875-1.09375 0-.609375.46875-1.09375 1.046875-1.09375s1.046875.515625 1.046875 1.09375c0 .609375-.484375 1.09375-1.046875 1.09375zm-.984375.390625c.03125.015625.4375.265625.984375.265625 1 0 1.796875-.78125 1.796875-1.75 0-.328125-.09375-.65625-.28125-.953125.21875-.125.484375-.171875.625-.1875.0625.296875.3125.375.421875.375.1875 0 .4375-.140625.4375-.453125 0-.25-.203125-.59375-.796875-.59375-.109375 0-.65625.015625-1.15625.390625-.171875-.125-.546875-.328125-1.046875-.328125-1.03125 0-1.8125.8125-1.8125 1.75 0 .46875.1875.828125.359375 1.03125-.125.171875-.21875.40625-.21875.734375 0 .390625.15625.65625.25.796875-.8125.484375-.8125 1.234375-.8125 1.34375 0 .9375 1.15625 1.609375 2.546875 1.609375s2.546875-.671875 2.546875-1.609375c0-.40625-.203125-.9375-.765625-1.234375-.140625-.078125-.59375-.328125-1.578125-.328125h-.765625c-.078125 0-.21875 0-.3125-.015625-.15625 0-.234375 0-.359375-.15625s-.125-.359375-.125-.390625c0-.046875.015625-.1875.0625-.296875zm1.296875 3.375c-1.09375 0-1.90625-.46875-1.90625-.953125 0-.1875.09375-.546875.4375-.765625.28125-.171875.375-.171875 1.171875-.171875.96875 0 2.203125 0 2.203125.9375 0 .484375-.8125.953125-1.90625.953125zm0 0"/></symbol><g><use x="20.735" xlink:href="#a" y="11.152"/><use x="29.068461" xlink:href="#b" y="11.152"/><use x="32.099009" xlink:href="#c" y="11.152"/><use x="36.401559" xlink:href="#d" y="11.152"/><use x="41.856109" xlink:href="#e" y="11.152"/><use x="47.917204" xlink:href="#f" y="11.152"/><use x="50.947752" xlink:href="#g" y="11.152"/><use x="55.795756" xlink:href="#c" y="11.152"/></g><g><use x="62.629217" xlink:href="#h" y="11.152"/><use x="66.871766" xlink:href="#i" y="11.152"/><use x="72.932862" xlink:href="#g" y="11.152"/></g><g><use x="80.322686" xlink:href="#j" y="11.152"/><use x="86.383782" xlink:href="#k" y="11.152"/><use x="91.838332" xlink:href="#j" y="11.152"/><use x="97.899428" xlink:href="#f" y="11.152"/><use x="100.929976" xlink:href="#b" y="11.152"/><use x="103.960524" xlink:href="#j" y="11.152"/><use x="110.02162" xlink:href="#g" y="11.152"/><use x="114.869624" xlink:href="#d" y="11.152"/><use x="120.324174" xlink:href="#l" y="11.152"/></g><g><use x="127.12818" xlink:href="#m" y="11.152"/><use x="130.462001" xlink:href="#l" y="11.152"/><use x="134.735095" xlink:href="#b" y="11.152"/><use x="137.765643" xlink:href="#j" y="11.152"/><use x="143.826739" xlink:href="#n" y="11.152"/><use x="149.281289" xlink:href="#g" y="11.152"/></g><g><use x="156.660204" xlink:href="#k" y="11.152"/><use x="162.114754" xlink:href="#m" y="11.152"/></g><g><use x="167.990395" xlink:href="#c" y="11.152"/><use x="172.292944" xlink:href="#k" y="11.152"/><use x="177.747494" xlink:href="#f" y="11.152"/><use x="180.778042" xlink:href="#g" y="11.152"/><use x="185.626046" xlink:href="#j" y="11.152"/><use x="191.687142" xlink:href="#k" y="11.152"/><use x="197.141692" xlink:href="#b" y="11.152"/><use x="200.17224" xlink:href="#o" y="11.152"/></g><g><use x="208.764248" xlink:href="#b" y="11.152"/><use x="211.794796" xlink:href="#m" y="11.152"/></g><g><use x="217.659528" xlink:href="#j" y="11.152"/><use x="223.720624" xlink:href="#k" y="11.152"/><use x="229.175174" xlink:href="#j" y="11.152"/><use x="235.23627" xlink:href="#p" y="11.152"/><use x="240.084274" xlink:href="#g" y="11.152"/><use x="244.932278" xlink:href="#l" y="11.152"/><use x="249.205372" xlink:href="#k" y="11.152"/><use x="254.659922" xlink:href="#q" y="11.152"/></g><g><use x="262.17411" xlink:href="#r" y="11.152"/><use x="270.052662" xlink:href="#i" y="11.152"/><use x="276.113758" xlink:href="#g" y="11.152"/></g><g><use x="283.492674" xlink:href="#o" y="11.152"/><use x="289.553769" xlink:href="#g" y="11.152"/><use x="294.401774" xlink:href="#m" y="11.152"/><use x="297.735594" xlink:href="#d" y="11.152"/><use x="303.190144" xlink:href="#s" y="11.152"/><use x="309.25124" xlink:href="#f" y="11.152"/><use x="312.281788" xlink:href="#h" y="11.152"/></g><use x="319.066158" xlink:href="#b" y="11.152"/><use x="322.085797" xlink:href="#c" y="11.152"/><g><use x="328.930166" xlink:href="#t" y="11.152"/><use x="334.384716" xlink:href="#q" y="11.152"/></g><g><use x="341.898904" xlink:href="#r" y="11.152"/><use x="349.777456" xlink:href="#i" y="11.152"/><use x="355.838552" xlink:href="#g" y="11.152"/></g><g><use x="363.217467" xlink:href="#h" y="11.152"/><use x="367.460016" xlink:href="#l" y="11.152"/><use x="371.733111" xlink:href="#d" y="11.152"/><use x="377.187661" xlink:href="#j" y="11.152"/><use x="383.248757" xlink:href="#c" y="11.152"/><use x="387.551306" xlink:href="#m" y="11.152"/><use x="390.885127" xlink:href="#k" y="11.152"/><use x="396.339677" xlink:href="#l" y="11.152"/><use x="400.612771" xlink:href="#u" y="11.152"/><use x="409.703324" xlink:href="#d" y="11.152"/><use x="415.157874" xlink:href="#h" y="11.152"/><use x="419.400423" xlink:href="#b" y="11.152"/><use x="422.430971" xlink:href="#k" y="11.152"/><use x="427.885521" xlink:href="#j" y="11.152"/></g><g><use x="436.477528" xlink:href="#m" y="11.152"/><use x="439.811349" xlink:href="#k" y="11.152"/><use x="445.265899" xlink:href="#l" y="11.152"/></g><g><use x="452.080814" xlink:href="#h" y="11.152"/><use x="456.323363" xlink:href="#i" y="11.152"/></g><use x="462.37355" xlink:href="#g" y="11.152"/><g><use x="469.763374" xlink:href="#j" y="11.152"/><use x="475.82447" xlink:href="#k" y="11.152"/><use x="481.27902" xlink:href="#j" y="11.152"/><use x="487.340116" xlink:href="#f" y="11.152"/><use x="490.370664" xlink:href="#b" y="11.152"/><use x="493.401212" xlink:href="#j" y="11.152"/><use x="499.462308" xlink:href="#g" y="11.152"/><use x="504.310312" xlink:href="#d" y="11.152"/><use x="509.764862" xlink:href="#l" y="11.152"/></g><g><use x="3.798" xlink:href="#m" y="24.701"/><use x="7.131821" xlink:href="#l" y="24.701"/><use x="11.404915" xlink:href="#b" y="24.701"/><use x="14.435463" xlink:href="#j" y="24.701"/><use x="20.496559" xlink:href="#n" y="24.701"/><use x="25.951109" xlink:href="#g" y="24.701"/></g><g><use x="34.431844" xlink:href="#b" y="24.701"/><use x="37.462392" xlink:href="#c" y="24.701"/></g><g><use x="45.40858" xlink:href="#g" y="24.701"/><use x="50.256584" xlink:href="#v" y="24.701"/><use x="56.014407" xlink:href="#w" y="24.701"/><use x="62.075503" xlink:href="#l" y="24.701"/><use x="66.348598" xlink:href="#g" y="24.701"/><use x="71.196602" xlink:href="#c" y="24.701"/><use x="75.499151" xlink:href="#c" y="24.701"/><use x="79.8017" xlink:href="#g" y="24.701"/><use x="84.649704" xlink:href="#o" y="24.701"/></g><use x="94.34353" xlink:href="#e" y="24.701"/><use x="100.099171" xlink:href="#x" y="24.701"/><g><use x="164.867" xlink:href="#g" y="49.209"/><use x="169.715004" xlink:href="#v" y="49.209"/><use x="175.472827" xlink:href="#w" y="49.209"/><use x="181.533923" xlink:href="#y" y="49.209"/><use x="185.776472" xlink:href="#z" y="49.209"/></g><use x="191.837" xlink:href="#P" y="49.209"/><g><use x="204.822" xlink:href="#z" y="49.209"/><use x="207.852548" xlink:href="#A" y="49.209"/></g><use x="212.094" xlink:href="#Q" y="49.209"/><use x="238.764568" xlink:href="#P" y="49.209"/><use x="251.746" xlink:href="#B" y="49.209"/><use x="263.261" xlink:href="#Z" y="49.209"/><use x="271.746" xlink:href="#R" y="49.209"/><use x="280.02" xlink:href="#aa" y="50.845"/><use x="284.794" xlink:href="#S" y="49.209"/><g><use x="290.249" xlink:href="#y" y="49.209"/><use x="294.491549" xlink:href="#C" y="49.209"/></g><use x="299.946" xlink:href="#T" y="49.209"/><use x="305.434" xlink:href="#af" y="44.705"/><use x="310.167" xlink:href="#R" y="49.209"/><use x="318.987007" xlink:href="#U" y="49.209"/><use x="324.629" xlink:href="#A" y="49.209"/><use x="328.871" xlink:href="#T" y="49.209"/><use x="334.36" xlink:href="#ab" y="50.986"/><use x="339.892" xlink:href="#T" y="49.209"/><use x="345.381" xlink:href="#ac" y="50.845"/><use x="349.935" xlink:href="#Q" y="49.209"/><g><use x="489.186" xlink:href="#y" y="49.209"/><use x="493.428549" xlink:href="#D" y="49.209"/><use x="498.883099" xlink:href="#C" y="49.209"/><use x="504.337649" xlink:href="#E" y="49.209"/><use x="509.792199" xlink:href="#A" y="49.209"/></g><g><use x="3.798" xlink:href="#F" y="73.717"/><use x="11.676552" xlink:href="#i" y="73.717"/><use x="17.737648" xlink:href="#g" y="73.717"/><use x="22.585652" xlink:href="#l" y="73.717"/><use x="26.858746" xlink:href="#g" y="73.717"/></g><use x="219.54" xlink:href="#T" y="98.225"/><use x="225.029" xlink:href="#ab" y="100.002"/><use x="233.591" xlink:href="#B" y="98.225"/><g><use x="245.106" xlink:href="#V" y="98.225"/><use x="251.340551" xlink:href="#T" y="98.225"/></g><use x="256.829" xlink:href="#ad" y="99.862"/><use x="264.224" xlink:href="#Z" y="98.225"/><use x="275.133" xlink:href="#W" y="98.225"/><use x="280.874459" xlink:href="#T" y="98.225"/><use x="286.361" xlink:href="#ae" y="99.862"/><use x="295.263" xlink:href="#Q" y="98.225"/><g><use x="489.186" xlink:href="#y" y="98.225"/><use x="493.428549" xlink:href="#D" y="98.225"/><use x="498.883099" xlink:href="#C" y="98.225"/><use x="504.337649" xlink:href="#G" y="98.225"/><use x="509.792199" xlink:href="#A" y="98.225"/></g><use x="220.517" xlink:href="#T" y="114.763"/><use x="226.006" xlink:href="#ac" y="116.399"/><use x="233.591" xlink:href="#B" y="114.763"/><g><use x="245.106" xlink:href="#V" y="114.763"/><use x="251.340551" xlink:href="#T" y="114.763"/></g><use x="256.829" xlink:href="#ae" y="116.399"/><use x="264.519" xlink:href="#H" y="114.763"/><use x="275.428" xlink:href="#W" y="114.763"/><use x="281.169459" xlink:href="#T" y="114.763"/><use x="286.656" xlink:href="#ad" y="116.399"/><use x="295.263" xlink:href="#Q" y="114.763"/><g><use x="489.186" xlink:href="#y" y="114.763"/><use x="493.428549" xlink:href="#D" y="114.763"/><use x="498.883099" xlink:href="#C" y="114.763"/><use x="504.337649" xlink:href="#I" y="114.763"/><use x="509.792199" xlink:href="#A" y="114.763"/></g><g><use x="3.798" xlink:href="#F" y="139.271"/><use x="11.676552" xlink:href="#i" y="139.271"/><use x="17.737648" xlink:href="#k" y="139.271"/><use x="23.192198" xlink:href="#c" y="139.271"/><use x="27.494747" xlink:href="#g" y="139.271"/></g><g><use x="35.975481" xlink:href="#J" y="139.271"/><use x="40.823485" xlink:href="#d" y="139.271"/><use x="46.278035" xlink:href="#j" y="139.271"/><use x="52.339131" xlink:href="#k" y="139.271"/><use x="57.793681" xlink:href="#j" y="139.271"/><use x="63.854777" xlink:href="#b" y="139.271"/><use x="66.885325" xlink:href="#J" y="139.271"/><use x="71.733329" xlink:href="#d" y="139.271"/><use x="77.187879" xlink:href="#f" y="139.271"/></g><g><use x="83.862067" xlink:href="#w" y="139.271"/><use x="89.923163" xlink:href="#d" y="139.271"/><use x="95.377713" xlink:href="#l" y="139.271"/><use x="99.650807" xlink:href="#h" y="139.271"/><use x="103.893356" xlink:href="#j" y="139.271"/><use x="109.954452" xlink:href="#g" y="139.271"/><use x="114.802456" xlink:href="#l" y="139.271"/><use x="119.075551" xlink:href="#c" y="139.271"/></g><g><use x="127.01083" xlink:href="#d" y="139.271"/><use x="132.46538" xlink:href="#l" y="139.271"/><use x="136.738474" xlink:href="#g" y="139.271"/></g><use x="210.598" xlink:href="#X" y="163.779"/><use x="220.129" xlink:href="#B" y="163.779"/><g><use x="231.644" xlink:href="#ag" y="163.779"/><use x="237.371277" xlink:href="#ah" y="163.779"/><use x="243.098555" xlink:href="#ai" y="163.779"/><use x="248.825832" xlink:href="#aj" y="163.779"/><use x="254.55311" xlink:href="#ak" y="163.779"/><use x="260.280387" xlink:href="#al" y="163.779"/></g><use x="266.007" xlink:href="#K" y="163.779"/><use x="269.037" xlink:href="#W" y="163.779"/><g><use x="274.778459" xlink:href="#S" y="163.779"/><use x="280.233009" xlink:href="#V" y="163.779"/></g><use x="286.467" xlink:href="#L" y="163.779"/><use x="293.133" xlink:href="#Q" y="163.779"/><g><use x="489.186" xlink:href="#y" y="163.779"/><use x="493.428549" xlink:href="#D" y="163.779"/><use x="498.883099" xlink:href="#C" y="163.779"/><use x="504.337649" xlink:href="#M" y="163.779"/><use x="509.792199" xlink:href="#A" y="163.779"/></g><use x="211.874" xlink:href="#Y" y="181.47"/><use x="220.129" xlink:href="#B" y="181.47"/><g><use x="231.644" xlink:href="#am" y="181.47"/><use x="237.371277" xlink:href="#an" y="181.47"/><use x="243.098555" xlink:href="#ao" y="181.47"/></g><use x="248.825" xlink:href="#K" y="181.47"/><use x="251.856" xlink:href="#V" y="181.47"/><use x="258.091" xlink:href="#af" y="176.965"/><use x="265.247" xlink:href="#H" y="181.47"/><use x="276.156" xlink:href="#W" y="181.47"/><use x="281.896" xlink:href="#af" y="176.965"/><use x="286.628" xlink:href="#L" y="181.47"/><use x="289.659" xlink:href="#S" y="181.47"/><use x="295.113" xlink:href="#E" y="181.47"/><use x="304.204" xlink:href="#Q" y="181.47"/><g><use x="489.186" xlink:href="#y" y="181.47"/><use x="493.428549" xlink:href="#D" y="181.47"/><use x="498.883099" xlink:href="#C" y="181.47"/><use x="504.337649" xlink:href="#N" y="181.47"/><use x="509.792199" xlink:href="#A" y="181.47"/></g><g><use x="3.798" xlink:href="#l" y="205.978"/><use x="8.071094" xlink:href="#g" y="205.978"/><use x="12.919099" xlink:href="#c" y="205.978"/><use x="17.221648" xlink:href="#w" y="205.978"/></g><g><use x="23.588198" xlink:href="#g" y="205.978"/><use x="28.436202" xlink:href="#J" y="205.978"/><use x="33.284206" xlink:href="#h" y="205.978"/><use x="37.526755" xlink:href="#b" y="205.978"/><use x="40.557303" xlink:href="#O" y="205.978"/></g><g><use x="46.009672" xlink:href="#g" y="205.978"/><use x="50.857676" xlink:href="#f" y="205.978"/><use x="53.888224" xlink:href="#x" y="205.978"/></g><use x="58.740591" xlink:href="#q" y="205.978"/></svg>