<svg height="31pt" viewBox="0 0 289 31" width="289pt" xmlns="http://www.w3.org/2000/svg" xmlns:xlink="http://www.w3.org/1999/xlink"><symbol id="a" overflow="visible"><path d="m3.015625-3.90625 1.65625-2.09375c.390625 0 .625 0 .625-.34375 0-.3125-.296875-.3125-.453125-.3125h-.96875c-.15625 0-.4375 0-.4375.328125s.296875.328125.4375.328125l-2.296875 2.90625v-2.90625h.25c.15625 0 .4375 0 .4375-.328125s-.265625-.328125-.4375-.328125h-1.09375c-.171875 0-.453125 0-.453125.3125 0 .34375.28125.34375.453125.34375h.234375v5.328125h-.234375c-.171875 0-.453125 0-.453125.328125 0 .34375.28125.34375.453125.34375h1.09375c.15625 0 .4375 0 .4375-.328125 0-.34375-.265625-.34375-.4375-.34375h-.25v-1.4375l1.015625-1.28125 1.53125 2.71875c-.15625 0-.4375 0-.4375.328125 0 .34375.265625.34375.453125.34375h.8125c.15625 0 .453125 0 .453125-.328125 0-.34375-.265625-.34375-.578125-.34375-.015625-.03125-.0625-.109375-.078125-.125zm0 0"/></symbol><symbol id="b" overflow="visible"><path d="m1.359375-3.6875c.140625-1.53125 1.171875-2.4375 2.125-2.4375.375 0 .546875.125.609375.1875-.0625.046875-.109375.109375-.109375.3125 0 .265625.1875.484375.46875.484375s.5-.1875.5-.515625c0-.53125-.390625-1.125-1.453125-1.125-1.453125 0-2.921875 1.3125-2.921875 3.515625 0 2.59375 1.21875 3.390625 2.296875 3.390625 1.1875 0 2.265625-.921875 2.265625-2.234375 0-1.234375-.96875-2.203125-2.15625-2.203125-.578125 0-1.140625.171875-1.625.625zm1.515625 3.140625c-.703125 0-1.125-.53125-1.34375-1.203125-.03125-.0625-.03125-.125-.0625-.1875v-.046875-.09375c0-.078125-.03125-.265625-.03125-.34375 0-.671875.65625-1.21875 1.484375-1.21875.890625 0 1.46875.734375 1.46875 1.53125 0 .9375-.71875 1.5625-1.515625 1.5625zm0 0"/></symbol><symbol id="c" overflow="visible"><path d="m1.9375-6h.609375c.15625 0 .453125 0 .453125-.328125s-.28125-.328125-.453125-.328125h-1.765625c-.171875 0-.4375 0-.4375.328125s.28125.328125.4375.328125h.40625v5.328125h-.40625c-.171875 0-.4375 0-.4375.34375 0 .328125.28125.328125.4375.328125h4.109375c.359375 0 .4375-.09375.4375-.453125v-.96875c0-.21875 0-.4375-.375-.4375-.390625 0-.390625.21875-.390625.4375v.75h-2.625zm0 0"/></symbol><symbol id="d" overflow="visible"><path d="m7.5-3.5625c.15625 0 .359375 0 .359375-.21875s-.203125-.21875-.359375-.21875h-6.53125c-.15625 0-.359375 0-.359375.21875s.203125.21875.375.21875zm0 2.109375c.15625 0 .359375 0 .359375-.21875s-.203125-.21875-.359375-.21875h-6.515625c-.171875 0-.375 0-.375.21875s.203125.21875.359375.21875zm0 0"/></symbol><symbol id="e" overflow="visible"><path d="m3.609375 2.625c0-.046875 0-.0625-.1875-.25-1.359375-1.375-1.703125-3.4375-1.703125-5.09375 0-1.90625.40625-3.796875 1.75-5.171875.140625-.125.140625-.140625.140625-.1875 0-.0625-.046875-.09375-.109375-.09375-.109375 0-1.09375.734375-1.734375 2.125-.5625 1.1875-.6875 2.40625-.6875 3.328125 0 .84375.125 2.15625.71875 3.390625.65625 1.34375 1.59375 2.046875 1.703125 2.046875.0625 0 .109375-.03125.109375-.09375zm0 0"/></symbol><symbol id="f" overflow="visible"><path d="m3.203125-6.984375c0-.25 0-.28125-.25-.28125-.671875.703125-1.640625.703125-1.984375.703125v.328125c.21875 0 .859375 0 1.4375-.28125v5.65625c0 .390625-.046875.515625-1.015625.515625h-.359375v.34375c.390625-.03125 1.328125-.03125 1.765625-.03125s1.390625 0 1.765625.03125v-.34375h-.34375c-.984375 0-1.015625-.109375-1.015625-.515625zm0 0"/></symbol><symbol id="g" overflow="visible"><path d="m1.390625-.84375 1.15625-1.125c1.703125-1.5 2.34375-2.09375 2.34375-3.171875 0-1.25-.96875-2.125-2.3125-2.125-1.21875 0-2.03125 1-2.03125 1.96875 0 .625.546875.625.578125.625.1875 0 .5625-.140625.5625-.578125 0-.296875-.1875-.578125-.578125-.578125-.078125 0-.109375 0-.140625.015625.25-.703125.84375-1.109375 1.46875-1.109375 1 0 1.46875.875 1.46875 1.78125 0 .859375-.546875 1.734375-1.140625 2.40625l-2.09375 2.328125c-.125.125-.125.140625-.125.40625h4.046875l.296875-1.890625h-.265625c-.0625.3125-.125.796875-.234375.96875-.078125.078125-.796875.078125-1.046875.078125zm0 0"/></symbol><symbol id="h" overflow="visible"><path d="m3.15625-2.71875c0-.859375-.125-2.171875-.71875-3.40625-.65625-1.34375-1.59375-2.046875-1.703125-2.046875-.0625 0-.109375.03125-.109375.09375 0 .046875 0 .0625.203125.265625 1.0625 1.078125 1.6875 2.8125 1.6875 5.09375 0 1.859375-.40625 3.78125-1.75 5.15625-.140625.125-.140625.140625-.140625.1875 0 .0625.046875.09375.109375.09375.109375 0 1.09375-.734375 1.734375-2.125.546875-1.1875.6875-2.40625.6875-3.3125zm0 0"/></symbol><symbol id="i" overflow="visible"><path d="m1.75-.84375c-.109375.421875-.140625.5-1 .5-.1875 0-.296875 0-.296875.21875 0 .125.109375.125.296875.125h3.890625c1.734375 0 3.015625-1.28125 3.015625-2.359375 0-.78125-.625-1.421875-1.6875-1.53125 1.125-.203125 2.28125-1.015625 2.28125-2.046875 0-.8125-.71875-1.515625-2.03125-1.515625h-3.671875c-.203125 0-.3125 0-.3125.21875 0 .125.09375.125.3125.125.015625 0 .21875 0 .40625.015625.203125.03125.296875.03125.296875.171875 0 .046875-.015625.078125-.046875.21875zm1.640625-3.140625.671875-2.71875c.109375-.375.125-.40625.59375-.40625h1.40625c.96875 0 1.1875.640625 1.1875 1.125 0 .953125-.9375 2-2.265625 2zm-.484375 3.640625c-.15625 0-.1875 0-.25 0-.109375-.015625-.140625-.03125-.140625-.109375 0-.03125 0-.0625.0625-.25l.75-3.046875h2.0625c1.046875 0 1.25.8125 1.25 1.28125 0 1.078125-.96875 2.125-2.25 2.125zm0 0"/></symbol><symbol id="j" overflow="visible"><path d="m.359375 1.890625c-.03125.125-.03125.15625-.03125.171875 0 .15625.125.296875.296875.296875.234375 0 .375-.203125.390625-.234375.046875-.09375.40625-1.5625.703125-2.734375.21875.4375.5625.734375 1.078125.734375 1.265625 0 2.671875-1.546875 2.671875-3.171875 0-1.15625-.71875-1.78125-1.515625-1.78125-1.046875 0-2.203125 1.09375-2.53125 2.421875zm2.421875-2.015625c-.765625 0-.9375-.875-.9375-.96875 0-.046875.046875-.265625.09375-.40625.296875-1.21875.40625-1.609375.640625-2.046875.46875-.796875 1.015625-1.03125 1.359375-1.03125.40625 0 .75.3125.75 1.0625 0 .609375-.3125 1.828125-.609375 2.359375-.359375.6875-.875 1.03125-1.296875 1.03125zm0 0"/></symbol><symbol id="k" overflow="visible"><path d="m2.21875-.015625c0-.71875-.28125-1.140625-.703125-1.140625-.359375 0-.578125.265625-.578125.578125 0 .296875.21875.578125.578125.578125.125 0 .265625-.046875.375-.140625.046875-.015625.046875-.03125.0625-.03125s.015625.015625.015625.15625c0 .8125-.375 1.46875-.734375 1.828125-.125.125-.125.140625-.125.171875 0 .078125.0625.125.109375.125.125 0 1-.84375 1-2.125zm0 0"/></symbol><symbol id="l" overflow="visible"><path d="m2.65625 1.984375c.0625 0 .15625 0 .15625-.09375 0-.03125 0-.03125-.109375-.140625-1.09375-1.03125-1.359375-2.5-1.359375-3.734375 0-2.296875.9375-3.375 1.34375-3.75.125-.09375.125-.109375.125-.140625 0-.046875-.03125-.09375-.109375-.09375-.125 0-.53125.40625-.59375.46875-1.0625 1.125-1.28125 2.546875-1.28125 3.515625 0 1.78125.734375 3.21875 1.828125 3.96875zm0 0"/></symbol><symbol id="m" overflow="visible"><path d="m1.09375-2.640625c0-.65625.0625-1.234375.34375-1.71875.25-.40625.65625-.734375 1.15625-.734375.15625 0 .515625.03125.703125.296875-.359375.03125-.390625.296875-.390625.375 0 .25.1875.375.375.375.140625 0 .375-.078125.375-.390625 0-.46875-.359375-.859375-1.078125-.859375-1.109375 0-2.234375 1.046875-2.234375 2.765625 0 2.171875 1.015625 2.703125 1.78125 2.703125.390625 0 .796875-.109375 1.15625-.453125.328125-.3125.59375-.640625.59375-1.34375 0-1.03125-.796875-1.765625-1.671875-1.765625-.578125 0-.921875.359375-1.109375.75zm1.03125 2.5625c-.421875 0-.6875-.28125-.796875-.515625-.1875-.359375-.203125-.890625-.203125-1.203125 0-.78125.421875-1.375 1.046875-1.375.390625 0 .640625.203125.78125.484375.171875.296875.171875.65625.171875 1.0625s0 .75-.15625 1.046875c-.21875.359375-.484375.5-.84375.5zm0 0"/></symbol><symbol id="n" overflow="visible"><path d="m2.46875-1.984375c0-.765625-.140625-1.671875-.625-2.609375-.390625-.734375-1.125-1.375-1.265625-1.375-.078125 0-.09375.046875-.09375.09375 0 .03125 0 .046875.09375.140625 1.109375 1.0625 1.359375 2.515625 1.359375 3.75 0 2.28125-.9375 3.359375-1.34375 3.734375-.109375.09375-.109375.109375-.109375.140625 0 .046875.015625.09375.09375.09375.125 0 .53125-.40625.59375-.46875 1.0625-1.125 1.296875-2.546875 1.296875-3.5zm0 0"/></symbol><g><use x="3.272" xlink:href="#a" y="20.423"/><use x="8.999278" xlink:href="#b" y="20.423"/></g><use x="17.756" xlink:href="#d" y="20.423"/><use x="30.467" xlink:href="#i" y="13.043"/><g><use x="39.289" xlink:href="#l" y="9.084"/><use x="42.582245" xlink:href="#m" y="9.084"/><use x="46.816759" xlink:href="#n" y="9.084"/></g><use x="50.608" xlink:href="#c" y="13.043"/><path d="m.00175.0006875h25.867188" fill="none" stroke="#000" stroke-miterlimit="10" stroke-width=".436" transform="matrix(1 0 0 -1 30.467 17.696)"/><use x="36.17" xlink:href="#i" y="27.906"/><use x="44.990007" xlink:href="#j" y="27.906"/><use x="57.531" xlink:href="#k" y="20.423"/><g><use x="262.186" xlink:href="#e" y="19.294"/><use x="266.428549" xlink:href="#f" y="19.294"/><use x="271.883099" xlink:href="#g" y="19.294"/><use x="277.337649" xlink:href="#g" y="19.294"/><use x="282.792199" xlink:href="#h" y="19.294"/></g></svg>