<svg height="661pt" viewBox="0 0 517 661" width="517pt" xmlns="http://www.w3.org/2000/svg" xmlns:xlink="http://www.w3.org/1999/xlink"><symbol id="a" overflow="visible"><path d="m6.34375-2.8125h-.265625c-.125 1.109375-.28125 2.46875-2.203125 2.46875h-.890625c-.515625 0-.53125-.078125-.53125-.4375v-5.8125c0-.359375 0-.515625 1.03125-.515625h.359375v-.34375c-.390625.03125-1.375.03125-1.828125.03125-.421875 0-1.28125 0-1.65625-.03125v.34375h.265625c.84375 0 .859375.125.859375.515625v5.75c0 .390625-.015625.5-.859375.5h-.265625v.34375h5.6875zm0 0"/></symbol><symbol id="b" overflow="visible"><path d="m1.21875-2.75c.0625-1.625.984375-1.890625 1.359375-1.890625 1.125 0 1.234375 1.46875 1.234375 1.890625zm-.015625.234375h3.046875c.25 0 .28125 0 .28125-.234375 0-1.078125-.59375-2.140625-1.953125-2.140625-1.265625 0-2.265625 1.125-2.265625 2.484375 0 1.46875 1.140625 2.53125 2.390625 2.53125 1.328125 0 1.828125-1.21875 1.828125-1.421875 0-.109375-.09375-.125-.140625-.125-.109375 0-.125.0625-.140625.140625-.390625 1.125-1.375 1.125-1.484375 1.125-.546875 0-.984375-.328125-1.234375-.734375-.328125-.515625-.328125-1.234375-.328125-1.625zm0 0"/></symbol><symbol id="c" overflow="visible"><path d="m1.890625-4.359375h1.5625v-.34375h-1.5625v-2h-.28125c0 .890625-.328125 2.0625-1.40625 2.09375v.25h.9375v3c0 1.34375 1.015625 1.484375 1.40625 1.484375.765625 0 1.078125-.78125 1.078125-1.484375v-.609375h-.28125v.59375c0 .8125-.328125 1.21875-.71875 1.21875-.734375 0-.734375-.984375-.734375-1.171875zm0 0"/></symbol><symbol id="d" overflow="visible"><path d="m6.765625-6.375c.15625-.40625.453125-.71875 1.203125-.734375v-.34375c-.34375.03125-.78125.03125-1.0625.03125-.328125 0-.96875-.015625-1.25-.03125v.34375c.578125.015625.796875.296875.796875.546875 0 .078125-.03125.15625-.046875.21875l-2 5.25-2.078125-5.5c-.078125-.15625-.078125-.171875-.078125-.203125 0-.3125.625-.3125.90625-.3125v-.34375c-.390625.03125-1.15625.03125-1.5625.03125-.53125 0-1-.015625-1.390625-.03125v.34375c.71875 0 .921875 0 1.078125.40625l2.53125 6.703125c.0625.203125.125.234375.265625.234375.1875 0 .203125-.046875.265625-.203125zm0 0"/></symbol><symbol id="e" overflow="visible"><path d="m4.140625-.59375v.71875l1.609375-.125v-.34375c-.765625 0-.859375-.078125-.859375-.609375v-6.609375l-1.5625.109375v.34375c.765625 0 .84375.078125.84375.609375v2.359375c-.3125-.390625-.78125-.6875-1.375-.6875-1.28125 0-2.421875 1.078125-2.421875 2.484375 0 1.390625 1.0625 2.46875 2.3125 2.46875.6875 0 1.1875-.375 1.453125-.71875zm0-2.921875v2.234375c0 .1875 0 .21875-.109375.390625-.328125.53125-.828125.765625-1.296875.765625-.484375 0-.875-.28125-1.140625-.6875-.28125-.453125-.3125-1.078125-.3125-1.515625 0-.40625.015625-1.0625.328125-1.546875.234375-.34375.640625-.703125 1.234375-.703125.390625 0 .84375.15625 1.1875.65625.109375.1875.109375.203125.109375.40625zm0 0"/></symbol><symbol id="f" overflow="visible"><path d="m1.203125-3.75v2.921875c0 .484375-.125.484375-.859375.484375v.34375c.390625-.015625.9375-.03125 1.234375-.03125.28125 0 .859375.015625 1.21875.03125v-.34375c-.71875 0-.84375 0-.84375-.484375v-2c0-1.140625.765625-1.75 1.46875-1.75.6875 0 .8125.59375.8125 1.203125v2.546875c0 .484375-.125.484375-.859375.484375v.34375c.390625-.015625.9375-.03125 1.234375-.03125.28125 0 .859375.015625 1.21875.03125v-.34375c-.5625 0-.828125 0-.84375-.328125v-2.078125c0-.9375 0-1.28125-.34375-1.671875-.140625-.1875-.5-.40625-1.140625-.40625-.796875 0-1.3125.46875-1.609375 1.15625v-1.15625l-1.546875.125v.34375c.765625 0 .859375.078125.859375.609375zm0 0"/></symbol><symbol id="g" overflow="visible"><path d="m5.140625-2.328125c0-1.40625-1.09375-2.5625-2.421875-2.5625-1.359375 0-2.40625 1.1875-2.40625 2.5625 0 1.40625 1.125 2.453125 2.40625 2.453125 1.3125 0 2.421875-1.078125 2.421875-2.453125zm-2.421875 2.171875c-.46875 0-.9375-.21875-1.234375-.734375-.28125-.46875-.28125-1.140625-.28125-1.53125 0-.421875 0-1.015625.265625-1.5.296875-.5.8125-.71875 1.25-.71875.484375 0 .953125.234375 1.234375.703125s.28125 1.109375.28125 1.515625c0 .390625 0 .984375-.25 1.46875-.234375.484375-.71875.796875-1.265625.796875zm0 0"/></symbol><symbol id="h" overflow="visible"><path d="m1.203125-.828125c0 .484375-.125.484375-.859375.484375v.34375c.390625-.015625.9375-.03125 1.234375-.03125.28125 0 .859375.015625 1.21875.03125v-.34375c-.71875 0-.84375 0-.84375-.484375v-2c0-1.140625.765625-1.75 1.46875-1.75.6875 0 .8125.59375.8125 1.203125v2.546875c0 .484375-.125.484375-.859375.484375v.34375c.390625-.015625.9375-.03125 1.234375-.03125.28125 0 .859375.015625 1.21875.03125v-.34375c-.5625 0-.828125 0-.84375-.328125v-2.078125c0-.9375 0-1.28125-.34375-1.671875-.140625-.1875-.5-.40625-1.140625-.40625-.921875 0-1.390625.65625-1.578125 1.078125v-3.8125l-1.578125.109375v.34375c.765625 0 .859375.078125.859375.609375zm0 0"/></symbol><symbol id="i" overflow="visible"><path d="m1.203125-3.75v2.921875c0 .484375-.125.484375-.859375.484375v.34375c.390625-.015625.9375-.03125 1.234375-.03125.28125 0 .859375.015625 1.21875.03125v-.34375c-.71875 0-.84375 0-.84375-.484375v-2c0-1.140625.765625-1.75 1.46875-1.75.6875 0 .8125.59375.8125 1.203125v2.546875c0 .484375-.125.484375-.859375.484375v.34375c.390625-.015625.9375-.03125 1.234375-.03125.28125 0 .859375.015625 1.21875.03125v-.34375c-.71875 0-.84375 0-.84375-.484375v-2c0-1.140625.78125-1.75 1.46875-1.75s.8125.59375.8125 1.203125v2.546875c0 .484375-.125.484375-.859375.484375v.34375c.390625-.015625.9375-.03125 1.234375-.03125.28125 0 .859375.015625 1.21875.03125v-.34375c-.5625 0-.828125 0-.84375-.328125v-2.078125c0-.9375 0-1.28125-.34375-1.671875-.140625-.1875-.5-.40625-1.140625-.40625-.921875 0-1.390625.65625-1.578125 1.078125-.15625-.953125-.96875-1.078125-1.453125-1.078125-.796875 0-1.3125.46875-1.609375 1.15625v-1.15625l-1.546875.125v.34375c.765625 0 .859375.078125.859375.609375zm0 0"/></symbol><symbol id="j" overflow="visible"><path d="m3.625-.828125c.046875.4375.34375.890625.859375.890625.234375 0 .890625-.15625.890625-1.03125v-.609375h-.265625v.609375c0 .625-.28125.703125-.390625.703125-.359375 0-.40625-.5-.40625-.546875v-2.1875c0-.453125 0-.875-.390625-1.28125-.4375-.4375-.984375-.609375-1.5-.609375-.890625 0-1.640625.515625-1.640625 1.234375 0 .328125.21875.515625.5.515625.296875 0 .5-.21875.5-.5 0-.140625-.0625-.5-.5625-.5.296875-.390625.828125-.5 1.1875-.5.53125 0 1.15625.421875 1.15625 1.390625v.40625c-.5625.03125-1.328125.0625-2.015625.390625-.8125.375-1.09375.9375-1.09375 1.421875 0 .875 1.0625 1.15625 1.75 1.15625.71875 0 1.21875-.4375 1.421875-.953125zm-.0625-1.796875v1.09375c0 1.046875-.796875 1.40625-1.28125 1.40625-.53125 0-.984375-.375-.984375-.921875 0-.59375.453125-1.5 2.265625-1.578125zm0 0"/></symbol><symbol id="k" overflow="visible"><path d="m1.828125-3.625v-1.203125l-1.515625.125v.34375c.75 0 .84375.078125.84375.609375v2.921875c0 .484375-.125.484375-.84375.484375v.34375c.421875-.015625.9375-.03125 1.234375-.03125.4375 0 .953125 0 1.390625.03125v-.34375h-.234375c-.8125 0-.828125-.109375-.828125-.5v-1.6875c0-1.078125.453125-2.046875 1.28125-2.046875.078125 0 .109375 0 .125.015625-.03125 0-.25.140625-.25.421875 0 .296875.234375.46875.46875.46875.203125 0 .46875-.140625.46875-.484375s-.34375-.671875-.8125-.671875c-.796875 0-1.1875.734375-1.328125 1.203125zm0 0"/></symbol><symbol id="l" overflow="visible"><path d="m1.9375-4.828125-1.53125.125v.34375c.703125 0 .796875.0625.796875.59375v2.9375c0 .484375-.109375.484375-.84375.484375v.34375c.34375-.015625.9375-.03125 1.203125-.03125.375 0 .765625.015625 1.125.03125v-.34375c-.71875 0-.75-.046875-.75-.46875zm.03125-1.890625c0-.34375-.265625-.578125-.578125-.578125-.328125 0-.578125.296875-.578125.578125 0 .296875.25.578125.578125.578125.3125 0 .578125-.234375.578125-.578125zm0 0"/></symbol><symbol id="m" overflow="visible"><path d="m3.125-2.5625c.328125-.421875.75-.953125 1.015625-1.234375.328125-.390625.78125-.5625 1.296875-.5625v-.34375c-.296875.03125-.609375.03125-.90625.03125-.328125 0-.90625-.015625-1.046875-.03125v.34375c.234375.015625.328125.15625.328125.328125 0 .1875-.109375.328125-.171875.390625l-.671875.84375-.859375-1.09375c-.09375-.109375-.09375-.140625-.09375-.203125 0-.15625.171875-.265625.390625-.265625v-.34375c-.296875.015625-1.015625.03125-1.1875.03125-.21875 0-.734375 0-1.03125-.03125v.34375c.765625 0 .765625 0 1.28125.65625l1.078125 1.40625-1.015625 1.296875c-.53125.640625-1.171875.65625-1.40625.65625v.34375c.296875-.015625.625-.03125.90625-.03125.328125 0 .78125.015625 1.046875.03125v-.34375c-.25-.03125-.328125-.171875-.328125-.328125 0-.25.328125-.609375.984375-1.390625l.828125 1.09375c.09375.125.234375.296875.234375.359375 0 .09375-.09375.265625-.390625.265625v.34375c.328125-.015625.9375-.03125 1.171875-.03125.296875 0 .71875.015625 1.046875.03125v-.34375c-.59375 0-.78125-.015625-1.03125-.328125zm0 0"/></symbol><symbol id="n" overflow="visible"><path d="m3.59375-4.359375c.5 0 .578125.140625.578125.578125v2.953125c0 .484375-.109375.484375-.84375.484375v.34375c.359375-.015625.9375-.03125 1.203125-.03125.28125 0 .8125.015625 1.21875.03125v-.34375c-.734375 0-.859375 0-.859375-.484375v-4l-1.375.09375c-.171875.015625-.171875.015625-.1875.015625-.03125.015625-.046875.015625-.203125.015625h-1.28125v-1.234375c0-1.078125.9375-1.515625 1.609375-1.515625.328125 0 .71875.109375.9375.359375-.4375.03125-.515625.328125-.515625.5 0 .359375.296875.515625.5.515625.25 0 .5-.1875.5-.515625 0-.640625-.59375-1.09375-1.40625-1.09375-1.015625 0-2.3125.5625-2.3125 1.75v1.234375h-.859375v.34375h.859375v3.53125c0 .484375-.125.484375-.84375.484375v.34375c.359375-.015625.9375-.03125 1.203125-.03125s.8125.015625 1.203125.03125v-.34375c-.71875 0-.84375 0-.84375-.484375v-3.53125zm0 0"/></symbol><symbol id="o" overflow="visible"><path d="m1.9375-7.5625-1.578125.109375v.34375c.765625 0 .84375.078125.84375.609375v5.671875c0 .484375-.109375.484375-.84375.484375v.34375c.359375-.015625.9375-.03125 1.21875-.03125.265625 0 .796875.015625 1.203125.03125v-.34375c-.734375 0-.84375 0-.84375-.484375zm0 0"/></symbol><symbol id="p" overflow="visible"><path d="m2.21875-.015625c0-.6875-.265625-1.140625-.703125-1.140625-.375 0-.578125.296875-.578125.578125s.1875.578125.578125.578125c.171875 0 .3125-.0625.421875-.15625l.015625-.015625c.015625 0 .015625.015625.015625.15625 0 .703125-.296875 1.375-.78125 1.875-.0625.078125-.078125.078125-.078125.125 0 .078125.0625.125.109375.125.140625 0 1-.859375 1-2.125zm0 0"/></symbol><symbol id="q" overflow="visible"><path d="m2.09375-.578125c0-.3125-.265625-.578125-.578125-.578125s-.578125.265625-.578125.578125.265625.578125.578125.578125.578125-.265625.578125-.578125zm0 0"/></symbol><symbol id="r" overflow="visible"><path d="m7.5-3.5625c.15625 0 .359375 0 .359375-.21875s-.203125-.21875-.359375-.21875h-6.53125c-.15625 0-.359375 0-.359375.21875s.203125.21875.375.21875zm0 2.109375c.15625 0 .359375 0 .359375-.21875s-.203125-.21875-.359375-.21875h-6.515625c-.171875 0-.375 0-.375.21875s.203125.21875.359375.21875zm0 0"/></symbol><symbol id="s" overflow="visible"><path d="m3.609375 2.625c0-.046875 0-.0625-.1875-.25-1.359375-1.375-1.703125-3.4375-1.703125-5.09375 0-1.90625.40625-3.796875 1.75-5.171875.140625-.125.140625-.140625.140625-.1875 0-.0625-.046875-.09375-.109375-.09375-.109375 0-1.09375.734375-1.734375 2.125-.5625 1.1875-.6875 2.40625-.6875 3.328125 0 .84375.125 2.15625.71875 3.390625.65625 1.34375 1.59375 2.046875 1.703125 2.046875.0625 0 .109375-.03125.109375-.09375zm0 0"/></symbol><symbol id="t" overflow="visible"><path d="m4.890625-2.1875c0-1.296875-.890625-2.390625-2.0625-2.390625-.53125 0-1 .171875-1.390625.546875v-2.125c.21875.078125.578125.140625.921875.140625 1.34375 0 2.109375-.984375 2.109375-1.125 0-.0625-.03125-.125-.109375-.125 0 0-.03125 0-.078125.03125-.21875.109375-.765625.3125-1.484375.3125-.4375 0-.9375-.0625-1.453125-.296875-.09375-.03125-.109375-.03125-.140625-.03125-.109375 0-.109375.078125-.109375.265625v3.21875c0 .203125 0 .28125.15625.28125.078125 0 .109375-.03125.140625-.09375.125-.171875.53125-.765625 1.40625-.765625.578125 0 .84375.5.9375.703125.171875.40625.1875.828125.1875 1.375 0 .375 0 1.03125-.25 1.484375-.265625.4375-.671875.71875-1.171875.71875-.796875 0-1.421875-.578125-1.609375-1.21875.03125 0 .0625.015625.1875.015625.359375 0 .546875-.265625.546875-.53125s-.1875-.53125-.546875-.53125c-.15625 0-.53125.078125-.53125.578125 0 .9375.75 1.984375 1.96875 1.984375 1.265625 0 2.375-1.046875 2.375-2.421875zm0 0"/></symbol><symbol id="u" overflow="visible"><path d="m3.203125-6.984375c0-.25 0-.28125-.25-.28125-.671875.703125-1.640625.703125-1.984375.703125v.328125c.21875 0 .859375 0 1.4375-.28125v5.65625c0 .390625-.046875.515625-1.015625.515625h-.359375v.34375c.390625-.03125 1.328125-.03125 1.765625-.03125s1.390625 0 1.765625.03125v-.34375h-.34375c-.984375 0-1.015625-.109375-1.015625-.515625zm0 0"/></symbol><symbol id="v" overflow="visible"><path d="m3.15625-2.71875c0-.859375-.125-2.171875-.71875-3.40625-.65625-1.34375-1.59375-2.046875-1.703125-2.046875-.0625 0-.109375.03125-.109375.09375 0 .046875 0 .0625.203125.265625 1.0625 1.078125 1.6875 2.8125 1.6875 5.09375 0 1.859375-.40625 3.78125-1.75 5.15625-.140625.125-.140625.140625-.140625.1875 0 .0625.046875.09375.109375.09375.109375 0 1.09375-.734375 1.734375-2.125.546875-1.1875.6875-2.40625.6875-3.3125zm0 0"/></symbol><symbol id="w" overflow="visible"><path d="m6.75-3.671875c.203125-.53125.53125-.6875.921875-.6875v-.34375c-.25.03125-.5625.03125-.796875.03125-.328125 0-.8125-.015625-1.015625-.03125v.34375c.390625 0 .625.203125.625.515625 0 .0625 0 .09375-.046875.234375l-1 2.796875-1.078125-3.046875c-.046875-.125-.046875-.15625-.046875-.203125 0-.296875.421875-.296875.640625-.296875v-.34375c-.3125.015625-.875.03125-1.140625.03125-.328125 0-.640625 0-.96875-.03125v.34375c.40625 0 .578125.015625.6875.15625.0625.0625.171875.390625.25.609375l-.9375 2.640625-1.03125-2.921875c-.0625-.125-.0625-.15625-.0625-.1875 0-.296875.4375-.296875.65625-.296875v-.34375c-.328125.015625-.9375.03125-1.203125.03125-.03125 0-.609375 0-1-.03125v.34375c.53125 0 .671875.03125.796875.375l1.375 3.859375c.0625.15625.09375.25.234375.25s.15625-.078125.21875-.21875l1.09375-3.09375 1.109375 3.09375c.046875.125.078125.21875.21875.21875.15625 0 .1875-.109375.21875-.21875zm0 0"/></symbol><symbol id="x" overflow="visible"><path d="m1.875-4.09375v-.734375l-1.5625.125v.34375c.765625 0 .84375.0625.84375.546875v5.09375c0 .5-.125.5-.84375.5v.328125c.359375 0 .9375-.03125 1.21875-.03125.296875 0 .84375.03125 1.234375.03125v-.328125c-.734375 0-.859375 0-.859375-.5v-1.921875c.0625.171875.515625.765625 1.34375.765625 1.296875 0 2.4375-1.078125 2.4375-2.484375 0-1.375-1.0625-2.46875-2.28125-2.46875-.859375 0-1.3125.484375-1.53125.734375zm.03125 2.84375v-2.421875c.3125-.5625.859375-.875 1.40625-.875.796875 0 1.46875.953125 1.46875 2.1875 0 1.328125-.765625 2.234375-1.578125 2.234375-.4375 0-.84375-.21875-1.140625-.65625-.15625-.234375-.15625-.25-.15625-.46875zm0 0"/></symbol><symbol id="y" overflow="visible"><path d="m4.53125-3.671875c.28125-.6875.828125-.6875 1.015625-.6875v-.34375c-.25.03125-.578125.03125-.828125.03125-.1875 0-.703125-.015625-.9375-.03125v.34375c.328125 0 .5.1875.5.46875 0 .109375 0 .125-.0625.265625l-1.09375 2.671875-1.21875-2.921875c-.046875-.109375-.0625-.15625-.0625-.203125 0-.28125.40625-.28125.609375-.28125v-.34375c-.28125.015625-1 .03125-1.1875.03125-.296875 0-.734375 0-1.0625-.03125v.34375c.53125 0 .734375 0 .890625.375l1.625 3.984375c-.046875.140625-.203125.5-.265625.640625-.234375.609375-.546875 1.359375-1.25 1.359375-.046875 0-.296875 0-.5-.203125.328125-.046875.421875-.28125.421875-.453125 0-.28125-.203125-.453125-.453125-.453125-.21875 0-.46875.140625-.46875.46875 0 .484375.46875.875 1 .875.6875 0 1.140625-.625 1.40625-1.234375zm0 0"/></symbol><symbol id="z" overflow="visible"><path d="m2.265625-2.109375c.25.03125 1.140625.21875 1.140625 1 0 .546875-.390625.984375-1.234375.984375-.921875 0-1.3125-.609375-1.515625-1.546875-.03125-.140625-.046875-.1875-.15625-.1875-.140625 0-.140625.078125-.140625.28125v1.4375c0 .1875 0 .265625.125.265625.046875 0 .0625-.015625.265625-.21875.03125-.03125.03125-.046875.21875-.25.484375.453125.96875.46875 1.203125.46875 1.25 0 1.75-.734375 1.75-1.515625 0-.578125-.328125-.90625-.453125-1.046875-.359375-.34375-.78125-.4375-1.25-.515625-.609375-.125-1.328125-.265625-1.328125-.890625 0-.390625.28125-.828125 1.21875-.828125 1.1875 0 1.25.96875 1.265625 1.3125.015625.09375.109375.09375.140625.09375.140625 0 .140625-.046875.140625-.25v-1.109375c0-.1875 0-.265625-.125-.265625-.046875 0-.078125 0-.21875.140625-.03125.03125-.140625.140625-.1875.171875-.40625-.3125-.859375-.3125-1.015625-.3125-1.328125 0-1.75.734375-1.75 1.34375 0 .390625.171875.6875.46875.921875.34375.296875.65625.359375 1.4375.515625zm0 0"/></symbol><symbol id="A" overflow="visible"><path d="m1.28125-2.375c0-1.78125.890625-2.234375 1.46875-2.234375.09375 0 .78125 0 1.171875.40625-.453125.03125-.515625.359375-.515625.5 0 .28125.1875.5.5.5.28125 0 .5-.1875.5-.515625 0-.734375-.828125-1.171875-1.671875-1.171875-1.359375 0-2.359375 1.1875-2.359375 2.53125 0 1.40625 1.078125 2.484375 2.34375 2.484375 1.453125 0 1.8125-1.3125 1.8125-1.421875s-.109375-.109375-.140625-.109375c-.109375 0-.125.046875-.140625.109375-.328125 1.015625-1.03125 1.140625-1.4375 1.140625-.578125 0-1.53125-.46875-1.53125-2.21875zm0 0"/></symbol><symbol id="B" overflow="visible"><path d="m4.53125-3.625c.109375-.25.296875-.734375 1.015625-.734375v-.34375c-.25.03125-.578125.03125-.828125.03125-.265625 0-.765625-.015625-.9375-.03125v.34375c.390625 0 .515625.265625.515625.46875 0 .09375-.015625.140625-.0625.265625l-1.109375 2.78125-1.234375-3.046875c-.0625-.140625-.0625-.171875-.0625-.1875 0-.28125.421875-.28125.625-.28125v-.34375c-.328125.015625-.9375.03125-1.1875.03125-.296875 0-.734375 0-1.0625-.03125v.34375c.6875 0 .734375.0625.875.40625l1.578125 3.859375c.0625.15625.078125.21875.21875.21875s.1875-.109375.234375-.21875zm0 0"/></symbol><symbol id="C" overflow="visible"><path d="m7.265625-7.390625h-6.671875l-.203125 2.46875h.28125c.140625-1.765625.3125-2.125 1.953125-2.125.203125 0 .484375 0 .59375.015625.234375.046875.234375.171875.234375.421875v5.75c0 .375 0 .515625-1.15625.515625h-.4375v.34375c.453125-.03125 1.5625-.03125 2.0625-.03125s1.625 0 2.078125.03125v-.34375h-.4375c-1.140625 0-1.140625-.140625-1.140625-.515625v-5.75c0-.21875 0-.375.1875-.421875.125-.015625.421875-.015625.625-.015625 1.640625 0 1.8125.359375 1.96875 2.125h.265625zm0 0"/></symbol><symbol id="D" overflow="visible"><path d="m1.875-4.109375v-3.453125l-1.5625.109375v.34375c.75 0 .84375.078125.84375.609375v6.5h.265625c.015625-.015625.109375-.15625.40625-.671875.15625.25.609375.796875 1.421875.796875 1.296875 0 2.4375-1.078125 2.4375-2.484375 0-1.375-1.078125-2.46875-2.3125-2.46875-.859375 0-1.328125.515625-1.5.71875zm.03125 2.859375v-2.234375c0-.21875 0-.21875.125-.390625.421875-.625 1.015625-.703125 1.28125-.703125.5 0 .890625.28125 1.140625.703125.296875.4375.328125 1.0625.328125 1.515625 0 .390625-.03125 1.046875-.34375 1.546875-.234375.328125-.640625.6875-1.234375.6875-.484375 0-.875-.25-1.140625-.65625-.15625-.234375-.15625-.265625-.15625-.46875zm0 0"/></symbol><symbol id="E" overflow="visible"><path d="m2.46875-3.453125h1.84375c1.3125 0 2.5-.875 2.5-1.96875 0-1.0625-1.09375-2.03125-2.578125-2.03125h-3.859375v.34375h.265625c.84375 0 .859375.125.859375.515625v5.75c0 .390625-.015625.5-.859375.5h-.265625v.34375c.390625-.03125 1.203125-.03125 1.609375-.03125.421875 0 1.234375 0 1.609375.03125v-.34375h-.25c-.84375 0-.875-.109375-.875-.5zm-.03125-.28125v-2.9375c0-.359375.03125-.4375.546875-.4375h.96875c1.734375 0 1.734375 1.15625 1.734375 1.6875 0 .515625 0 1.6875-1.734375 1.6875zm0 0"/></symbol><symbol id="F" overflow="visible"><path d="m2.421875-3.984375v-2.6875c0-.359375.015625-.4375.53125-.4375h1.359375c1.046875 0 1.4375.921875 1.4375 1.5 0 .703125-.53125 1.625-1.75 1.625zm2.578125.09375c1.046875-.203125 1.8125-.90625 1.8125-1.71875 0-.9375-1.015625-1.84375-2.421875-1.84375h-4v.34375h.265625c.84375 0 .859375.125.859375.515625v5.75c0 .390625-.015625.5-.859375.5h-.265625v.34375h4.28125c1.453125 0 2.421875-.96875 2.421875-2 0-.9375-.890625-1.765625-2.09375-1.890625zm-.6875 3.546875h-1.359375c-.515625 0-.53125-.078125-.53125-.4375v-2.96875h2.046875c1.078125 0 1.546875 1.015625 1.546875 1.75 0 .765625-.578125 1.65625-1.703125 1.65625zm0 0"/></symbol><symbol id="G" overflow="visible"><path d="m2.4375-3.84375v-2.828125c0-.25 0-.390625.25-.421875.109375-.015625.421875-.015625.640625-.015625.984375 0 2.203125.046875 2.203125 1.625 0 .75-.265625 1.640625-1.875 1.640625zm2.3125.140625c1.046875-.265625 1.90625-.9375 1.90625-1.78125 0-1.046875-1.25-1.96875-2.84375-1.96875h-3.4375v.34375h.265625c.84375 0 .859375.125.859375.515625v5.75c0 .390625-.015625.5-.859375.5h-.265625v.34375c.40625-.03125 1.171875-.03125 1.59375-.03125.4375 0 1.203125 0 1.59375.03125v-.34375h-.265625c-.828125 0-.859375-.109375-.859375-.5v-2.765625h1.265625c.171875 0 .625 0 1.015625.375.40625.390625.40625.71875.40625 1.453125 0 .71875 0 1.15625.453125 1.5625.4375.390625 1.046875.453125 1.375.453125.84375 0 1.03125-.890625 1.03125-1.1875 0-.078125 0-.1875-.140625-.1875-.125 0-.125.09375-.140625.171875-.0625.765625-.4375.96875-.71875.96875-.53125 0-.609375-.5625-.765625-1.578125l-.140625-.859375c-.203125-.703125-.734375-1.0625-1.328125-1.265625zm0 0"/></symbol><symbol id="H" overflow="visible"><path d="m6.6875-6.59375c0-.390625.015625-.515625.859375-.515625h.265625v-.34375c-.390625.03125-1.1875.03125-1.609375.03125-.40625 0-1.234375 0-1.609375-.03125v.34375h.265625c.828125 0 .859375.125.859375.515625v2.546875h-3.265625v-2.546875c0-.390625.015625-.515625.859375-.515625h.265625v-.34375c-.375.03125-1.1875.03125-1.609375.03125-.40625 0-1.234375 0-1.609375-.03125v.34375h.265625c.84375 0 .859375.125.859375.515625v5.75c0 .390625-.015625.5-.859375.5h-.265625v.34375c.375-.03125 1.1875-.03125 1.609375-.03125.40625 0 1.234375 0 1.609375.03125v-.34375h-.265625c-.84375 0-.859375-.109375-.859375-.5v-2.859375h3.265625v2.859375c0 .390625-.03125.5-.859375.5h-.265625v.34375c.375-.03125 1.1875-.03125 1.59375-.03125.421875 0 1.234375 0 1.625.03125v-.34375h-.265625c-.84375 0-.859375-.109375-.859375-.5zm0 0"/></symbol><symbol id="I" overflow="visible"><path d="m1.390625-.84375 1.15625-1.125c1.703125-1.5 2.34375-2.09375 2.34375-3.171875 0-1.25-.96875-2.125-2.3125-2.125-1.21875 0-2.03125 1-2.03125 1.96875 0 .625.546875.625.578125.625.1875 0 .5625-.140625.5625-.578125 0-.296875-.1875-.578125-.578125-.578125-.078125 0-.109375 0-.140625.015625.25-.703125.84375-1.109375 1.46875-1.109375 1 0 1.46875.875 1.46875 1.78125 0 .859375-.546875 1.734375-1.140625 2.40625l-2.09375 2.328125c-.125.125-.125.140625-.125.40625h4.046875l.296875-1.890625h-.265625c-.0625.3125-.125.796875-.234375.96875-.078125.078125-.796875.078125-1.046875.078125zm0 0"/></symbol><symbol id="J" overflow="visible"><path d="m4.453125-2.515625h3.046875c.15625 0 .359375 0 .359375-.203125 0-.21875-.203125-.21875-.359375-.21875h-3.046875v-3.0625c0-.15625 0-.359375-.203125-.359375-.21875 0-.21875.203125-.21875.359375v3.0625h-3.0625c-.15625 0-.359375 0-.359375.21875 0 .203125.203125.203125.359375.203125h3.0625v3.0625c0 .15625 0 .359375.21875.359375.203125 0 .203125-.203125.203125-.359375zm0 0"/></symbol><symbol id="K" overflow="visible"><path d="m2.453125-6.59375c0-.390625.03125-.515625.890625-.515625h.28125v-.34375c-.375.03125-1.234375.03125-1.65625.03125s-1.28125 0-1.65625-.03125v.34375h.28125c.859375 0 .890625.125.890625.515625v5.75c0 .390625-.03125.5-.890625.5h-.28125v.34375c.375-.03125 1.234375-.03125 1.65625-.03125s1.28125 0 1.65625.03125v-.34375h-.28125c-.859375 0-.890625-.109375-.890625-.5zm0 0"/></symbol><symbol id="L" overflow="visible"><path d="m3.296875-1.609375c0 1-.546875 1.609375-1.125 1.609375-.0625 0-.8125 0-1.203125-.625.5625 0 .703125-.328125.703125-.625 0-.390625-.3125-.609375-.609375-.609375-.25 0-.609375.15625-.609375.640625 0 .796875.765625 1.453125 1.734375 1.453125 1.109375 0 1.90625-.765625 2.03125-1.578125.015625-.078125.015625-.109375.015625-.484375v-4.828125c0-.453125.15625-.453125.84375-.453125v-.34375c-.484375.03125-.90625.03125-1.40625.03125-.46875 0-1.421875 0-1.84375-.03125v.34375h.390625c1.078125 0 1.078125.140625 1.078125.515625zm0 0"/></symbol><symbol id="M" overflow="visible"><path d="m3.15625-3.84375c.90625-.296875 1.53125-1.046875 1.53125-1.921875 0-.890625-.953125-1.5-2-1.5-1.109375 0-1.9375.65625-1.9375 1.484375 0 .359375.25.5625.5625.5625.328125 0 .546875-.234375.546875-.546875 0-.546875-.5-.546875-.671875-.546875.34375-.53125 1.0625-.671875 1.453125-.671875.453125 0 1.046875.234375 1.046875 1.21875 0 .125-.015625.765625-.3125 1.234375-.328125.53125-.6875.5625-.96875.578125-.078125 0-.34375.03125-.421875.03125-.09375 0-.15625.015625-.15625.125 0 .125.0625.125.25.125h.484375c.890625 0 1.296875.734375 1.296875 1.8125 0 1.484375-.75 1.796875-1.234375 1.796875-.46875 0-1.28125-.1875-1.671875-.828125.390625.046875.71875-.1875.71875-.609375 0-.390625-.28125-.609375-.609375-.609375-.25 0-.609375.15625-.609375.640625 0 .984375 1.015625 1.703125 2.203125 1.703125 1.328125 0 2.328125-.984375 2.328125-2.09375 0-.90625-.6875-1.75-1.828125-1.984375zm0 0"/></symbol><symbol id="N" overflow="visible"><path d="m5.015625-3.484375c0-.875-.046875-1.75-.4375-2.5625-.5-1.046875-1.390625-1.21875-1.859375-1.21875-.640625 0-1.4375.28125-1.890625 1.296875-.34375.75-.40625 1.609375-.40625 2.484375 0 .8125.046875 1.796875.5 2.625.46875.875 1.265625 1.09375 1.796875 1.09375.578125 0 1.421875-.21875 1.890625-1.265625.359375-.75.40625-1.59375.40625-2.453125zm-2.296875 3.484375c-.421875 0-1.078125-.265625-1.265625-1.3125-.125-.65625-.125-1.671875-.125-2.3125 0-.6875 0-1.40625.09375-2 .203125-1.296875 1.015625-1.40625 1.296875-1.40625.359375 0 1.078125.203125 1.28125 1.28125.109375.609375.109375 1.4375.109375 2.125 0 .828125 0 1.5625-.125 2.265625-.15625 1.03125-.78125 1.359375-1.265625 1.359375zm0 0"/></symbol><symbol id="O" overflow="visible"><path d="m3.203125-1.796875v.953125c0 .390625-.015625.5-.828125.5h-.21875v.34375c.4375-.03125 1-.03125 1.46875-.03125.453125 0 1.03125 0 1.484375.03125v-.34375h-.234375c-.8125 0-.828125-.109375-.828125-.5v-.953125h1.09375v-.34375h-1.09375v-4.953125c0-.21875 0-.296875-.171875-.296875-.09375 0-.140625 0-.21875.140625l-3.34375 5.109375v.34375zm.0625-.34375h-2.65625l2.65625-4.0625zm0 0"/></symbol><symbol id="P" overflow="visible"><path d="m1.4375-3.578125v-.265625c0-2.75 1.359375-3.140625 1.90625-3.140625.265625 0 .71875.0625.96875.4375-.171875 0-.609375 0-.609375.484375 0 .34375.265625.5.5.5.1875 0 .515625-.09375.515625-.515625 0-.65625-.484375-1.1875-1.390625-1.1875-1.390625 0-2.875 1.40625-2.875 3.8125 0 2.921875 1.265625 3.6875 2.28125 3.6875 1.21875 0 2.25-1.015625 2.25-2.453125 0-1.390625-.96875-2.4375-2.1875-2.4375-.734375 0-1.140625.5625-1.359375 1.078125zm1.296875 3.515625c-.6875 0-1.015625-.65625-1.078125-.828125-.1875-.5-.1875-1.375-.1875-1.578125 0-.84375.34375-1.9375 1.328125-1.9375.171875 0 .671875 0 1.015625.671875.1875.40625.1875.96875.1875 1.5 0 .515625 0 1.0625-.1875 1.453125-.328125.65625-.828125.71875-1.078125.71875zm0 0"/></symbol><symbol id="Q" overflow="visible"><path d="m5.1875-6.640625c.109375-.125.109375-.15625.109375-.390625h-2.65625c-1.328125 0-1.359375-.140625-1.390625-.34375h-.28125l-.359375 2.25h.28125c.03125-.171875.125-.859375.265625-1 .078125-.0625.921875-.0625 1.0625-.0625h2.265625c-.125.171875-.984375 1.359375-1.21875 1.734375-.984375 1.46875-1.34375 2.984375-1.34375 4.09375 0 .109375 0 .59375.5.59375s.5-.484375.5-.59375v-.5625c0-.59375.03125-1.1875.125-1.78125.046875-.25.1875-1.1875.671875-1.859375zm0 0"/></symbol><symbol id="R" overflow="visible"><path d="m3.8125-4.234375-1.40625-.328125c-.671875-.171875-1.09375-.765625-1.09375-1.390625 0-.765625.578125-1.4375 1.4375-1.4375 1.8125 0 2.0625 1.796875 2.125 2.28125.015625.078125.015625.140625.125.140625.140625 0 .140625-.0625.140625-.265625v-2.1875c0-.1875 0-.265625-.109375-.265625-.078125 0-.09375.015625-.171875.140625l-.375.625c-.328125-.3125-.78125-.765625-1.75-.765625-1.203125 0-2.125.953125-2.125 2.109375 0 .90625.578125 1.703125 1.4375 2 .109375.046875.671875.171875 1.4375.359375.296875.078125.609375.15625.921875.5625.234375.28125.34375.640625.34375 1 0 .765625-.546875 1.5625-1.46875 1.5625-.3125 0-1.140625-.0625-1.71875-.59375-.640625-.59375-.671875-1.28125-.671875-1.671875-.015625-.109375-.109375-.109375-.140625-.109375-.140625 0-.140625.0625-.140625.265625v2.1875c0 .171875 0 .25.125.25.078125 0 .078125-.015625.15625-.140625 0 0 .03125-.046875.390625-.625.34375.375 1.046875.765625 2.015625.765625 1.265625 0 2.140625-1.0625 2.140625-2.265625 0-1.09375-.71875-1.984375-1.625-2.203125zm0 0"/></symbol><symbol id="S" overflow="visible"><path d="m2.09375-4.125c0-.3125-.265625-.578125-.578125-.578125s-.578125.265625-.578125.578125.265625.578125.578125.578125.578125-.265625.578125-.578125zm0 3.546875c0-.3125-.265625-.578125-.578125-.578125s-.578125.265625-.578125.578125.265625.578125.578125.578125.578125-.265625.578125-.578125zm0 0"/></symbol><symbol id="T" overflow="visible"><path d="m1.78125-4.984375c-.5-.328125-.546875-.703125-.546875-.890625 0-.65625.703125-1.109375 1.484375-1.109375.796875 0 1.484375.5625 1.484375 1.34375 0 .625-.421875 1.140625-1.078125 1.53125zm1.59375 1.03125c.78125-.40625 1.3125-.96875 1.3125-1.6875 0-1-.96875-1.625-1.96875-1.625-1.078125 0-1.96875.8125-1.96875 1.828125 0 .1875.03125.6875.484375 1.1875.125.140625.515625.40625.796875.59375-.640625.3125-1.578125.9375-1.578125 2.015625 0 1.15625 1.125 1.875 2.265625 1.875 1.234375 0 2.265625-.90625 2.265625-2.0625 0-.390625-.125-.890625-.53125-1.34375-.203125-.234375-.390625-.34375-1.078125-.78125zm-1.09375.46875 1.34375.84375c.296875.203125.8125.53125.8125 1.203125 0 .8125-.8125 1.375-1.71875 1.375-.9375 0-1.71875-.671875-1.71875-1.578125 0-.640625.359375-1.34375 1.28125-1.84375zm0 0"/></symbol><symbol id="U" overflow="visible"><path d="m4-3.46875v.34375c0 2.5625-1.125 3.0625-1.765625 3.0625-.1875 0-.765625-.03125-1.0625-.390625.46875 0 .5625-.328125.5625-.5 0-.34375-.265625-.515625-.5-.515625-.171875 0-.5.109375-.5.53125 0 .734375.578125 1.171875 1.515625 1.171875 1.40625 0 2.734375-1.484375 2.734375-3.828125 0-2.921875-1.25-3.671875-2.21875-3.671875-.609375 0-1.140625.203125-1.609375.6875-.453125.5-.703125.953125-.703125 1.765625 0 1.359375.96875 2.4375 2.1875 2.4375.65625 0 1.109375-.453125 1.359375-1.09375zm-1.34375.84375c-.1875 0-.6875 0-1.015625-.6875-.203125-.40625-.203125-.953125-.203125-1.484375 0-.59375 0-1.109375.234375-1.5.296875-.546875.703125-.6875 1.09375-.6875.5 0 .859375.359375 1.046875.859375.125.34375.171875 1.03125.171875 1.53125 0 .90625-.375 1.96875-1.328125 1.96875zm0 0"/></symbol><symbol id="V" overflow="visible"><path d="m2.625-7.203125c-.09375-.25-.125-.25-.375-.25h-1.84375v.34375h.265625c.828125 0 .859375.125.859375.515625v5.453125c0 .296875 0 .796875-1.125.796875v.34375c.375-.015625.90625-.03125 1.265625-.03125.375 0 .90625.015625 1.28125.03125v-.34375c-1.125 0-1.125-.5-1.125-.796875v-5.890625h.015625l2.625 6.796875c.0625.140625.109375.234375.21875.234375.125 0 .15625-.09375.203125-.203125l2.671875-6.90625h.015625v6.265625c0 .390625-.015625.5-.859375.5h-.265625v.34375c.40625-.03125 1.15625-.03125 1.578125-.03125s1.15625 0 1.5625.03125v-.34375h-.265625c-.84375 0-.859375-.109375-.859375-.5v-5.75c0-.390625.015625-.515625.859375-.515625h.265625v-.34375h-1.84375c-.296875 0-.296875.015625-.359375.21875l-2.390625 6.140625zm0 0"/></symbol><symbol id="W" overflow="visible"><path d="m8.234375-6.625c.046875-.21875.046875-.21875.3125-.296875.1875-.03125.46875-.046875.640625-.046875.203125 0 .375 0 .375-.3125 0-.125-.078125-.203125-.21875-.203125-.390625 0-.796875.03125-1.203125.03125-.28125 0-.96875-.03125-1.25-.03125-.078125 0-.296875 0-.296875.3125 0 .203125.1875.203125.34375.203125.09375 0 .5 0 .765625.109375l-1.078125 4.296875c-.390625 1.578125-1.6875 2.234375-3 2.234375-1.015625 0-1.5-.421875-1.5-1.203125 0-.28125.046875-.546875.109375-.828125l1.140625-4.5625c.25-.046875.625-.046875.75-.046875.375 0 .515625 0 .515625-.3125 0-.140625-.109375-.203125-.234375-.203125-.265625 0-.5625.03125-.828125.03125-.28125 0-.546875 0-.8125 0-.296875 0-.578125 0-.84375 0-.28125 0-.578125-.03125-.859375-.03125-.109375 0-.328125 0-.328125.3125 0 .203125.15625.203125.515625.203125.25 0 .609375 0 .609375.046875 0 .03125-.109375.4375-.171875.640625l-.234375.953125-.671875 2.703125c-.09375.390625-.09375.46875-.09375.6875 0 1.421875 1.21875 2.125 2.875 2.125 1.9375 0 3.25-1.15625 3.625-2.65625zm0 0"/></symbol><symbol id="X" overflow="visible"><path d="m6.140625-3.453125c.078125-.3125.203125-.828125.203125-.90625 0-.234375-.171875-.484375-.515625-.484375-.171875 0-.578125.09375-.71875.578125-.03125.15625-.53125 2.125-.609375 2.484375-.078125.25-.140625.578125-.171875.765625-.1875.265625-.625.703125-1.171875.703125-.640625 0-.65625-.53125-.65625-.78125 0-.671875.328125-1.53125.640625-2.3125.109375-.28125.140625-.359375.140625-.546875 0-.625-.625-.96875-1.234375-.96875-1.15625 0-1.703125 1.46875-1.703125 1.6875 0 .15625.171875.15625.265625.15625.125 0 .203125 0 .25-.140625.359375-1.203125.953125-1.3125 1.125-1.3125.078125 0 .1875 0 .1875.21875 0 .25-.125.5625-.171875.6875-.46875 1.15625-.671875 1.765625-.671875 2.296875 0 1.234375 1.09375 1.421875 1.734375 1.421875.3125 0 .796875-.046875 1.390625-.609375.34375.53125.984375.609375 1.234375.609375.40625 0 .71875-.234375.953125-.625.28125-.4375.421875-1.03125.421875-1.078125 0-.15625-.171875-.15625-.265625-.15625-.125 0-.171875 0-.21875.046875-.03125.03125-.03125.046875-.09375.328125-.21875.84375-.453125 1.078125-.734375 1.078125-.171875 0-.25-.109375-.25-.390625 0-.1875.046875-.359375.15625-.796875.0625-.3125.171875-.75.234375-.984375zm0 0"/></symbol><symbol id="Y" overflow="visible"><path d="m2.21875-.015625c0-.71875-.28125-1.140625-.703125-1.140625-.359375 0-.578125.265625-.578125.578125 0 .296875.21875.578125.578125.578125.125 0 .265625-.046875.375-.140625.046875-.015625.046875-.03125.0625-.03125s.015625.015625.015625.15625c0 .8125-.375 1.46875-.734375 1.828125-.125.125-.125.140625-.125.171875 0 .078125.0625.125.109375.125.125 0 1-.84375 1-2.125zm0 0"/></symbol><symbol id="Z" overflow="visible"><path d="m5.296875-4.484375-.921875-2.171875c-.03125-.078125-.0625-.125-.0625-.140625 0-.0625.1875-.265625.65625-.3125.109375-.015625.21875-.015625.21875-.203125 0-.140625-.140625-.140625-.171875-.140625-.453125 0-.921875.03125-1.375.03125-.265625 0-.953125-.03125-1.21875-.03125-.0625 0-.203125 0-.203125.21875 0 .125.109375.125.25.125.65625 0 .734375.109375.828125.34375l1.28125 3.046875-2.296875 2.46875-.140625.125c-.53125.578125-1.046875.75-1.609375.78125-.140625.015625-.234375.015625-.234375.21875 0 .015625 0 .125.140625.125.328125 0 .6875-.03125 1.03125-.03125.390625 0 .828125.03125 1.21875.03125.0625 0 .1875 0 .1875-.21875 0-.109375-.109375-.125-.125-.125-.09375 0-.4375-.03125-.4375-.328125 0-.171875.15625-.359375.296875-.5l1.109375-1.171875.984375-1.0625 1.09375 2.59375c.046875.125.0625.140625.0625.15625 0 .09375-.203125.28125-.640625.3125-.109375.015625-.21875.03125-.21875.21875 0 .125.125.125.171875.125.296875 0 1.0625-.03125 1.375-.03125.265625 0 .9375.03125 1.203125.03125.078125 0 .21875 0 .21875-.203125 0-.140625-.109375-.140625-.203125-.140625-.734375 0-.75-.03125-.9375-.46875-.421875-1.015625-1.15625-2.71875-1.40625-3.375.734375-.765625 1.890625-2.0625 2.234375-2.359375.3125-.265625.734375-.53125 1.390625-.5625.140625-.015625.234375-.015625.234375-.21875 0-.015625 0-.125-.140625-.125-.328125 0-.6875.03125-1.03125.03125-.40625 0-.8125-.03125-1.203125-.03125-.0625 0-.203125 0-.203125.21875 0 .078125.046875.109375.125.125.09375.015625.4375.03125.4375.34375 0 .140625-.125.28125-.203125.390625zm0 0"/></symbol><symbol id="aa" overflow="visible"><path d="m3.296875-3.453125h1.859375c1.546875 0 3.0625-1.125 3.0625-2.34375 0-.84375-.71875-1.65625-2.140625-1.65625h-3.53125c-.21875 0-.328125 0-.328125.21875 0 .125.09375.125.3125.125.140625 0 .34375.015625.46875.015625.171875.03125.234375.0625.234375.171875 0 .046875 0 .078125-.03125.21875l-1.46875 5.859375c-.109375.421875-.125.5-1 .5-.171875 0-.296875 0-.296875.21875 0 .125.125.125.15625.125.3125 0 1.078125-.03125 1.390625-.03125.234375 0 .46875.015625.703125.015625s.46875.015625.703125.015625c.078125 0 .21875 0 .21875-.21875 0-.125-.09375-.125-.3125-.125-.390625 0-.703125 0-.703125-.1875 0-.0625.03125-.125.03125-.1875zm.796875-3.25c.09375-.375.109375-.40625.578125-.40625h1.046875c.90625 0 1.484375.296875 1.484375 1.046875 0 .421875-.21875 1.359375-.640625 1.75-.546875.5-1.203125.578125-1.671875.578125h-1.546875zm0 0"/></symbol><symbol id="ab" overflow="visible"><path d="m6.515625-6.203125.140625-.15625c.328125-.328125.6875-.703125 1.4375-.75.125-.015625.21875-.015625.21875-.203125 0-.09375-.0625-.140625-.140625-.140625-.28125 0-.609375.03125-.890625.03125-.359375 0-.75-.03125-1.09375-.03125-.0625 0-.203125 0-.203125.21875 0 .109375.09375.125.15625.125.078125 0 .390625.015625.390625.25 0 .1875-.25.46875-.296875.515625l-2.53125 2.921875-1.1875-3.234375c-.078125-.15625-.078125-.1875-.078125-.1875 0-.265625.546875-.265625.65625-.265625.140625 0 .25 0 .25-.21875 0-.125-.125-.125-.15625-.125-.3125 0-1.078125.03125-1.375.03125-.28125 0-.953125-.03125-1.21875-.03125-.0625 0-.21875 0-.21875.21875 0 .125.109375.125.25.125.65625 0 .703125.09375.796875.375l1.34375 3.578125c.015625.03125.046875.15625.046875.1875s-.4375 1.796875-.484375 1.984375c-.140625.609375-.15625.640625-1.03125.640625-.203125 0-.296875 0-.296875.21875 0 .125.140625.125.15625.125.3125 0 1.0625-.03125 1.375-.03125.296875 0 1.09375.03125 1.390625.03125.078125 0 .21875 0 .21875-.21875 0-.125-.109375-.125-.3125-.125-.015625 0-.234375 0-.421875-.015625-.21875-.015625-.28125-.046875-.28125-.171875 0-.078125.09375-.46875.140625-.6875l.390625-1.546875c.046875-.203125.0625-.234375.15625-.328125zm0 0"/></symbol><symbol id="ac" overflow="visible"><path d="m7.859375-7.1875c0-.046875.03125-.09375.03125-.15625 0-.109375-.0625-.109375-.28125-.109375h-4.59375c-.265625 0-.28125.015625-.34375.21875l-.59375 1.96875c-.03125.046875-.03125.125-.03125.15625 0 0 0 .109375.125.109375.09375 0 .125-.078125.140625-.109375.40625-1.28125.984375-2 2.6875-2h1.765625l-6.09375 6.8125c0 .015625-.046875.171875-.046875.203125 0 .09375.078125.09375.28125.09375h4.75c.25 0 .265625-.015625.328125-.21875l.78125-2.40625c0-.046875.046875-.125.046875-.171875s-.046875-.109375-.15625-.109375c-.09375 0-.109375.03125-.171875.265625-.484375 1.484375-1.015625 2.265625-2.859375 2.265625h-1.875zm0 0"/></symbol><symbol id="ad" overflow="visible"><path d="m3.640625-3.296875c.0625-.28125.3125-1.28125 1.078125-1.28125.0625 0 .3125 0 .546875.140625-.296875.046875-.515625.328125-.515625.59375 0 .171875.109375.375.40625.375.25 0 .59375-.203125.59375-.625 0-.578125-.640625-.734375-1.015625-.734375-.640625 0-1.015625.578125-1.140625.84375-.28125-.734375-.875-.84375-1.1875-.84375-1.125 0-1.75 1.421875-1.75 1.6875 0 .109375.109375.109375.125.109375.09375 0 .125-.015625.140625-.125.375-1.15625 1.09375-1.421875 1.46875-1.421875.203125 0 .59375.09375.59375.734375 0 .328125-.1875 1.0625-.59375 2.59375-.171875.671875-.5625 1.125-1.03125 1.125-.078125 0-.328125 0-.546875-.140625.265625-.046875.5-.28125.5-.578125s-.234375-.390625-.390625-.390625c-.328125 0-.609375.28125-.609375.640625 0 .5.546875.71875 1.03125.71875.71875 0 1.109375-.765625 1.140625-.828125.140625.390625.53125.828125 1.1875.828125 1.109375 0 1.734375-1.40625 1.734375-1.6875 0-.109375-.09375-.109375-.125-.109375-.09375 0-.125.046875-.140625.125-.359375 1.171875-1.109375 1.421875-1.453125 1.421875-.421875 0-.59375-.34375-.59375-.71875 0-.234375.0625-.46875.171875-.953125zm0 0"/></symbol><symbol id="ae" overflow="visible"><path d="m.484375 1.328125c-.078125.375-.109375.453125-.578125.453125-.140625 0-.25 0-.25.203125 0 .09375.046875.125.140625.125.296875 0 .609375-.03125.90625-.03125.359375 0 .734375.03125 1.078125.03125.0625 0 .203125 0 .203125-.21875 0-.109375-.109375-.109375-.265625-.109375-.546875 0-.546875-.078125-.546875-.171875 0-.140625.46875-1.921875.546875-2.1875.140625.3125.4375.703125 1 .703125 1.265625 0 2.625-1.59375 2.625-3.203125 0-1.015625-.625-1.75-1.453125-1.75-.546875 0-1.0625.40625-1.421875.828125-.109375-.59375-.578125-.828125-.984375-.828125-.5 0-.703125.4375-.8125.625-.1875.375-.328125 1.03125-.328125 1.0625 0 .109375.109375.109375.125.109375.109375 0 .125-.015625.1875-.25.1875-.78125.40625-1.296875.796875-1.296875.1875 0 .328125.078125.328125.5 0 .25-.03125.375-.0625.5625zm1.921875-4.734375c.078125-.296875.375-.59375.578125-.765625.375-.328125.6875-.40625.875-.40625.4375 0 .703125.375.703125 1.015625 0 .65625-.359375 1.90625-.5625 2.3125-.375.765625-.890625 1.125-1.296875 1.125-.71875 0-.859375-.90625-.859375-.96875 0-.015625 0-.046875.03125-.171875zm0 0"/></symbol><symbol id="af" overflow="visible"><path d="m5.296875-4.15625c.046875-.15625.046875-.171875.046875-.25 0-.203125-.15625-.296875-.3125-.296875-.109375 0-.28125.0625-.390625.234375-.015625.046875-.109375.390625-.140625.59375-.078125.28125-.15625.578125-.21875.859375l-.5 1.96875c-.046875.15625-.515625.921875-1.234375.921875-.546875 0-.671875-.46875-.671875-.875 0-.5.1875-1.1875.5625-2.140625.171875-.453125.21875-.5625.21875-.78125 0-.5-.359375-.90625-.90625-.90625-1.03125 0-1.4375 1.59375-1.4375 1.6875 0 .109375.109375.109375.140625.109375.109375 0 .109375-.015625.171875-.203125.296875-1.015625.734375-1.34375 1.09375-1.34375.09375 0 .28125 0 .28125.34375 0 .28125-.109375.5625-.1875.765625-.4375 1.15625-.640625 1.78125-.640625 2.296875 0 .96875.6875 1.296875 1.34375 1.296875.421875 0 .78125-.1875 1.09375-.5-.140625.578125-.265625 1.109375-.703125 1.6875-.28125.359375-.703125.6875-1.203125.6875-.15625 0-.640625-.03125-.828125-.46875.171875 0 .3125 0 .46875-.125.109375-.09375.21875-.234375.21875-.453125 0-.328125-.296875-.375-.40625-.375-.25 0-.609375.171875-.609375.703125 0 .546875.484375.953125 1.15625.953125 1.125 0 2.25-.984375 2.546875-2.21875zm0 0"/></symbol><symbol id="ag" overflow="visible"><path d="m1.453125-.90625c.59375-.625.90625-.90625 1.296875-1.25 0 0 .671875-.578125 1.0625-.96875 1.046875-1.015625 1.28125-1.546875 1.28125-1.59375 0-.109375-.09375-.109375-.125-.109375-.078125 0-.109375.03125-.15625.125-.328125.53125-.5625.703125-.828125.703125-.25 0-.390625-.171875-.546875-.359375-.203125-.25-.390625-.46875-.75-.46875-.828125 0-1.328125 1.015625-1.328125 1.25 0 .0625.03125.125.140625.125.09375 0 .109375-.0625.140625-.125.203125-.5.828125-.515625.921875-.515625.234375 0 .4375.078125.6875.171875.4375.15625.5625.15625.84375.15625-.390625.46875-1.3125 1.25-1.515625 1.4375l-.984375.90625c-.75.734375-1.125 1.359375-1.125 1.4375 0 .109375.109375.109375.125.109375.09375 0 .109375-.03125.1875-.140625.25-.390625.578125-.6875.921875-.6875.25 0 .359375.109375.625.421875.1875.234375.390625.40625.703125.40625 1.078125 0 1.71875-1.390625 1.71875-1.6875 0-.046875-.046875-.109375-.140625-.109375s-.109375.0625-.15625.140625c-.25.71875-.9375.921875-1.296875.921875-.21875 0-.421875-.0625-.640625-.140625-.375-.140625-.546875-.1875-.765625-.1875-.03125 0-.203125 0-.296875.03125zm0 0"/></symbol><symbol id="ah" overflow="visible"><path d="m2.875-4.765625c-1.359375.328125-2.421875 1.75-2.421875 3.0625 0 1.046875.703125 1.828125 1.734375 1.828125 1.265625 0 2.171875-1.703125 2.171875-3.21875 0-.984375-.4375-1.53125-.796875-2.015625-.40625-.5-1.046875-1.3125-1.046875-1.796875 0-.234375.21875-.5.609375-.5.328125 0 .546875.140625.765625.296875.21875.125.4375.265625.609375.265625.265625 0 .421875-.25.421875-.4375 0-.234375-.171875-.265625-.5625-.359375-.5625-.109375-.71875-.109375-.890625-.109375-.84375 0-1.25.46875-1.25 1.125 0 .578125.328125 1.1875.65625 1.859375zm.140625.234375c.265625.5.59375 1.09375.59375 1.875 0 .71875-.40625 2.546875-1.421875 2.546875-.609375 0-1.046875-.453125-1.046875-1.28125 0-.6875.390625-2.75 1.875-3.140625zm0 0"/></symbol><symbol id="ai" overflow="visible"><path d="m4.0625-4.125c-.1875-.40625-.5-.703125-1-.703125-1.28125 0-2.625 1.609375-2.625 3.203125 0 1.03125.59375 1.75 1.453125 1.75.21875 0 .765625-.046875 1.40625-.828125.09375.46875.484375.828125 1 .828125.375 0 .625-.25.8125-.609375.1875-.390625.328125-1.046875.328125-1.078125 0-.109375-.109375-.109375-.140625-.109375-.109375 0-.109375.046875-.15625.203125-.171875.703125-.375 1.34375-.828125 1.34375-.28125 0-.328125-.28125-.328125-.5 0-.234375.03125-.328125.15625-.796875.109375-.46875.140625-.578125.234375-.984375l.390625-1.53125c.078125-.3125.078125-.328125.078125-.375 0-.1875-.125-.296875-.3125-.296875-.265625 0-.4375.25-.46875.484375zm-.703125 2.828125c-.0625.203125-.0625.21875-.21875.40625-.484375.59375-.921875.765625-1.234375.765625-.546875 0-.703125-.59375-.703125-1.015625 0-.546875.359375-1.890625.609375-2.390625.34375-.640625.828125-1.046875 1.265625-1.046875.703125 0 .859375.890625.859375.953125s-.015625.140625-.03125.1875zm0 0"/></symbol><symbol id="aj" overflow="visible"><path d="m2.609375-7.453125s0-.109375-.140625-.109375c-.25 0-1.046875.078125-1.328125.109375-.09375 0-.21875.015625-.21875.21875 0 .125.109375.125.265625.125.53125 0 .546875.078125.546875.1875 0 .078125-.09375.4375-.15625.671875l-.890625 3.5625c-.125.53125-.171875.71875-.171875 1.09375 0 1.03125.578125 1.71875 1.375 1.71875 1.296875 0 2.640625-1.625 2.640625-3.203125 0-.984375-.578125-1.75-1.453125-1.75-.5 0-.953125.328125-1.28125.65625zm-1.03125 4.125c.0625-.234375.0625-.265625.171875-.375.53125-.71875 1.015625-.875 1.296875-.875.40625 0 .6875.328125.6875 1.015625 0 .65625-.359375 1.90625-.546875 2.3125-.359375.734375-.859375 1.125-1.296875 1.125-.359375 0-.71875-.296875-.71875-1.09375 0-.203125 0-.421875.171875-1.109375zm0 0"/></symbol><symbol id="ak" overflow="visible"><path d="m2.09375-.578125c0-.3125-.265625-.578125-.578125-.578125s-.578125.265625-.578125.578125.265625.578125.578125.578125.578125-.265625.578125-.578125zm0 0"/></symbol><symbol id="al" overflow="visible"><path d="m6.265625-6.203125c0-.828125-.59375-1.5-1.484375-1.5-.625 0-.9375.171875-1.3125.46875-.59375.421875-1.203125 1.484375-1.40625 2.3125l-1.734375 6.921875c-.015625.046875.046875.109375.125.109375.09375 0 .125-.015625.140625-.046875l.765625-3.015625c.203125.65625.6875 1.0625 1.46875 1.0625.796875 0 1.625-.375 2.109375-.859375.53125-.5.875-1.203125.875-2.015625 0-.78125-.40625-1.34375-.796875-1.625.640625-.359375 1.25-1.03125 1.25-1.8125zm-1.953125 1.8125c-.140625.046875-.265625.078125-.53125.078125-.15625 0-.375 0-.484375-.046875.03125-.109375.421875-.09375.546875-.09375.21875 0 .328125 0 .46875.0625zm1.34375-2.0625c0 .765625-.40625 1.546875-.984375 1.890625-.28125-.109375-.5-.140625-.828125-.140625-.234375 0-.84375-.015625-.84375.34375-.015625.3125.5625.28125.75.28125.40625 0 .5625-.015625.890625-.140625.421875.390625.46875.734375.484375 1.234375.015625.625-.234375 1.453125-.546875 1.875-.421875.578125-1.15625.984375-1.78125.984375-.828125 0-1.234375-.640625-1.234375-1.40625 0-.109375 0-.28125.046875-.484375l.703125-2.765625c.234375-.9375 1.03125-2.671875 2.328125-2.671875.640625 0 1.015625.34375 1.015625 1zm0 0"/></symbol><symbol id="am" overflow="visible"><path d="m5.203125-2.578125c0-1.703125-1.015625-2.25-1.828125-2.25-1.484375 0-2.921875 1.5625-2.921875 3.109375 0 1.015625.640625 1.84375 1.765625 1.84375.6875 0 1.46875-.25 2.296875-.921875.140625.578125.5.921875.984375.921875.578125 0 .921875-.609375.921875-.78125 0-.078125-.0625-.109375-.125-.109375-.078125 0-.109375.03125-.140625.109375-.203125.53125-.59375.53125-.609375.53125-.34375 0-.34375-.84375-.34375-1.109375 0-.234375 0-.25.109375-.375 1.03125-1.296875 1.25-2.5625 1.25-2.5625 0-.03125-.015625-.109375-.125-.109375s-.109375.03125-.171875.21875c-.1875.6875-.546875 1.515625-1.0625 2.171875zm-.734375 1.5c-.953125.84375-1.796875.953125-2.234375.953125-.65625 0-.984375-.484375-.984375-1.1875 0-.53125.28125-1.703125.640625-2.265625.515625-.796875 1.09375-1 1.484375-1 1.078125 0 1.078125 1.421875 1.078125 2.28125 0 .40625 0 1.03125.015625 1.21875zm0 0"/></symbol><symbol id="an" overflow="visible"><path d="m5.25-7.28125c.015625-.046875.046875-.109375.046875-.171875 0-.109375-.078125-.109375-.140625-.109375-.109375 0-.125.015625-.15625.21875l-1.8125 7.203125c-.828125-.09375-1.25-.5-1.25-1.21875 0-.21875 0-.5.59375-2.03125.046875-.125.125-.3125.125-.53125 0-.5-.359375-.90625-.90625-.90625-1.03125 0-1.4375 1.59375-1.4375 1.6875 0 .109375.109375.109375.140625.109375.109375 0 .109375-.015625.171875-.203125.296875-1.03125.734375-1.34375 1.09375-1.34375.09375 0 .28125 0 .28125.34375 0 .28125-.109375.5625-.25.9375-.53125 1.375-.53125 1.65625-.53125 1.84375 0 1.03125.859375 1.484375 1.90625 1.546875-.09375.390625-.09375.421875-.25 1-.03125.109375-.25 1-.25 1.03125 0 .015625 0 .109375.140625.109375.015625 0 .0625 0 .09375-.046875.03125-.015625.09375-.296875.125-.4375l.421875-1.625c.40625 0 1.359375 0 2.390625-1.171875.4375-.5.671875-.984375.796875-1.3125.09375-.265625.328125-1.21875.328125-1.703125 0-.609375-.296875-.765625-.46875-.765625-.28125 0-.546875.296875-.546875.53125 0 .140625.0625.203125.15625.296875.125.125.390625.40625.390625.921875 0 .703125-.5625 1.59375-.953125 1.984375-.953125.96875-1.65625.96875-2.046875.96875zm0 0"/></symbol><symbol id="ao" overflow="visible"><path d="m4-3.171875c-.359375.078125-.375.390625-.375.421875 0 .171875.140625.296875.3125.296875s.4375-.140625.4375-.484375c0-.453125-.5-.578125-.796875-.578125-.359375 0-.671875.265625-.859375.578125-.171875-.421875-.578125-.578125-.90625-.578125-.875 0-1.359375 1-1.359375 1.21875 0 .078125.0625.109375.125.109375.09375 0 .109375-.046875.125-.140625.1875-.578125.671875-.96875 1.078125-.96875.3125 0 .46875.234375.46875.515625 0 .15625-.09375.53125-.15625.78125-.0625.234375-.234375.9375-.28125 1.09375-.109375.421875-.390625.765625-.75.765625-.03125 0-.234375 0-.40625-.109375.359375-.09375.359375-.421875.359375-.4375 0-.1875-.140625-.296875-.3125-.296875-.21875 0-.453125.1875-.453125.484375 0 .375.390625.578125.796875.578125.421875 0 .71875-.3125.859375-.578125.1875.390625.546875.578125.9375.578125.859375 0 1.34375-1 1.34375-1.21875 0-.078125-.0625-.109375-.125-.109375-.09375 0-.109375.0625-.140625.140625-.15625.53125-.609375.96875-1.0625.96875-.265625 0-.453125-.171875-.453125-.515625 0-.15625.046875-.34375.15625-.78125.046875-.25.21875-.9375.265625-1.09375.109375-.421875.390625-.765625.75-.765625.046875 0 .25 0 .421875.125zm0 0"/></symbol><symbol id="ap" overflow="visible"><path d="m4.125-3c.03125-.109375.03125-.125.03125-.1875 0-.203125-.15625-.25-.25-.25-.046875 0-.21875.015625-.328125.21875-.015625.046875-.09375.328125-.125.5l-.484375 1.90625c0 .03125-.34375.671875-.921875.671875-.390625 0-.53125-.296875-.53125-.640625 0-.46875.265625-1.171875.453125-1.640625.078125-.203125.109375-.265625.109375-.421875 0-.4375-.359375-.671875-.71875-.671875-.796875 0-1.125 1.125-1.125 1.21875 0 .078125.0625.109375.125.109375.109375 0 .109375-.046875.140625-.125.203125-.703125.546875-.984375.828125-.984375.125 0 .1875.078125.1875.265625 0 .171875-.0625.359375-.109375.5-.328125.84375-.46875 1.25-.46875 1.625 0 .78125.59375.984375 1.0625.984375.375 0 .640625-.171875.84375-.34375-.125.4375-.203125.75-.5 1.140625-.265625.3125-.578125.53125-.9375.53125-.140625 0-.4375-.03125-.59375-.265625.421875-.03125.453125-.390625.453125-.4375 0-.1875-.15625-.296875-.3125-.296875-.1875 0-.453125.140625-.453125.53125 0 .375.34375.6875.90625.6875.8125 0 1.71875-.65625 1.96875-1.609375zm0 0"/></symbol><symbol id="aq" overflow="visible"><path d="m1.15625-.6875c.28125-.296875.375-.390625 1.078125-.96875.078125-.078125.640625-.53125.859375-.75.5-.484375.8125-.921875.8125-1.015625 0-.0625-.0625-.09375-.125-.09375-.078125 0-.078125.015625-.15625.140625-.25.359375-.421875.421875-.578125.421875-.140625 0-.234375-.0625-.40625-.21875-.203125-.203125-.359375-.34375-.609375-.34375-.640625 0-1.046875.71875-1.046875.9375 0 0 0 .09375.125.09375.078125 0 .109375-.03125.140625-.125.09375-.234375.4375-.3125.671875-.3125.1875 0 .375.046875.578125.109375.328125.09375.40625.09375.578125.09375-.15625.171875-.390625.390625-1 .890625-.328125.28125-.671875.546875-.890625.765625-.578125.578125-.84375.96875-.84375 1.046875s.0625.09375.125.09375c.078125 0 .09375-.015625.140625-.078125.15625-.234375.40625-.484375.703125-.484375.1875 0 .265625.0625.421875.21875.25.25.390625.34375.625.34375.828125 0 1.328125-.984375 1.328125-1.234375 0-.078125-.046875-.109375-.125-.109375s-.09375.046875-.125.140625c-.15625.390625-.59375.609375-.984375.609375-.15625 0-.328125-.046875-.578125-.109375-.328125-.078125-.40625-.078125-.53125-.078125-.078125 0-.125 0-.1875.015625zm0 0"/></symbol><symbol id="ar" overflow="visible"><path d="m3.609375-4.828125c.0625-.28125.078125-.296875.40625-.296875h.59375c.828125 0 .921875.265625.921875.65625 0 .203125-.046875.546875-.046875.59375-.015625.078125-.03125.15625-.03125.171875 0 .09375.078125.125.125.125.09375 0 .125-.046875.140625-.203125l.21875-1.5c0-.109375-.09375-.109375-.234375-.109375h-4.703125c-.1875 0-.21875 0-.265625.171875l-.484375 1.375c-.015625.046875-.046875.109375-.046875.15625 0 .0625.0625.109375.125.109375.09375 0 .109375-.046875.15625-.171875.453125-1.28125.671875-1.375 1.890625-1.375h.3125c.234375 0 .25.015625.25.078125 0 .015625-.03125.171875-.046875.203125l-1.046875 4.1875c-.078125.3125-.09375.390625-.921875.390625-.265625 0-.34375 0-.34375.15625 0 0 0 .109375.140625.109375.21875 0 .765625-.03125.984375-.03125h.671875c.21875 0 .78125.03125 1 .03125.0625 0 .1875 0 .1875-.15625 0-.109375-.09375-.109375-.296875-.109375s-.265625 0-.46875-.015625c-.25-.015625-.28125-.046875-.28125-.15625 0-.03125 0-.0625.03125-.140625zm0 0"/></symbol><symbol id="as" overflow="visible"><path d="m1.484375-.125c0 .515625-.109375.984375-.59375 1.46875-.03125.03125-.046875.046875-.046875.078125 0 .0625.0625.109375.109375.109375.09375 0 .765625-.625.765625-1.5625 0-.5-.203125-.859375-.546875-.859375-.28125 0-.4375.234375-.4375.4375 0 .234375.15625.453125.4375.453125.203125 0 .3125-.109375.3125-.125zm0 0"/></symbol><symbol id="at" overflow="visible"><path d="m7.484375-4.625c.1875 0 .390625 0 .390625-.21875s-.203125-.21875-.375-.21875h-6.515625c-.1875 0-.390625 0-.390625.21875s.21875.21875.40625.21875zm.015625 4.234375c.171875 0 .375 0 .375-.21875s-.203125-.21875-.390625-.21875h-6.484375c-.1875 0-.40625 0-.40625.21875s.203125.21875.390625.21875zm0-2.125c.171875 0 .375 0 .375-.203125 0-.21875-.203125-.21875-.375-.21875h-6.515625c-.1875 0-.390625 0-.390625.21875 0 .203125.203125.203125.390625.203125zm0 0"/></symbol><symbol id="au" overflow="visible"><path d="m7.1875-2.515625c.1875 0 .375 0 .375-.203125 0-.21875-.1875-.21875-.375-.21875h-5.90625c-.1875 0-.375 0-.375.21875 0 .203125.1875.203125.375.203125zm0 0"/></symbol><symbol id="av" overflow="visible"><path d="m1.09375-2.640625c0-.65625.0625-1.234375.34375-1.71875.25-.40625.65625-.734375 1.15625-.734375.15625 0 .515625.03125.703125.296875-.359375.03125-.390625.296875-.390625.375 0 .25.1875.375.375.375.140625 0 .375-.078125.375-.390625 0-.46875-.359375-.859375-1.078125-.859375-1.109375 0-2.234375 1.046875-2.234375 2.765625 0 2.171875 1.015625 2.703125 1.78125 2.703125.390625 0 .796875-.109375 1.15625-.453125.328125-.3125.59375-.640625.59375-1.34375 0-1.03125-.796875-1.765625-1.671875-1.765625-.578125 0-.921875.359375-1.109375.75zm1.03125 2.5625c-.421875 0-.6875-.28125-.796875-.515625-.1875-.359375-.203125-.890625-.203125-1.203125 0-.78125.421875-1.375 1.046875-1.375.390625 0 .640625.203125.78125.484375.171875.296875.171875.65625.171875 1.0625s0 .75-.15625 1.046875c-.21875.359375-.484375.5-.84375.5zm0 0"/></symbol><symbol id="aw" overflow="visible"><path d="m2.25-1.625c.125-.125.453125-.390625.59375-.5.484375-.453125.953125-.890625.953125-1.609375 0-.953125-.796875-1.5625-1.78125-1.5625-.96875 0-1.59375.71875-1.59375 1.4375 0 .390625.3125.4375.421875.4375.171875 0 .421875-.109375.421875-.421875 0-.40625-.40625-.40625-.5-.40625.234375-.59375.765625-.78125 1.15625-.78125.734375 0 1.125.625 1.125 1.296875 0 .828125-.578125 1.4375-1.53125 2.390625l-1 1.046875c-.09375.078125-.09375.09375-.09375.296875h3.140625l.234375-1.421875h-.25c-.015625.15625-.078125.546875-.171875.703125-.046875.0625-.65625.0625-.78125.0625h-1.421875zm0 0"/></symbol><symbol id="ax" overflow="visible"><path d="m4.078125 19.296875c.234375 0 .3125 0 .3125-.140625.015625-7.65625.90625-14 4.71875-19.328125.078125-.09375.078125-.125.078125-.140625 0-.109375-.078125-.109375-.25-.109375-.1875 0-.203125 0-.21875.015625-.046875.03125-1.4375 1.625-2.53125 3.8125-1.4375 2.890625-2.34375 6.1875-2.75 10.15625-.03125.34375-.265625 2.609375-.265625 5.203125v.421875c.015625.109375.078125.109375.3125.109375zm0 0"/></symbol><symbol id="ay" overflow="visible"><path d="m4.390625.1875c0-.28125-.015625-.296875-.3125-.296875h-.59375c-.296875 0-.3125.015625-.3125.296875v6.171875c0 .28125.015625.296875.3125.296875h.59375c.296875 0 .3125-.015625.3125-.296875zm0 0"/></symbol><symbol id="az" overflow="visible"><path d="m3.484375-.546875c-.234375 0-.296875 0-.3125.125v.421875c0 6.65625 1.1875 10.5625 1.53125 11.671875.734375 2.421875 1.953125 4.96875 3.765625 7.21875.171875.1875.21875.25.25.265625s.03125.03125.21875.03125c.171875 0 .25 0 .25-.109375 0-.03125 0-.046875-.0625-.140625-3.640625-5.046875-4.734375-11.109375-4.734375-19.328125 0-.15625-.078125-.15625-.3125-.15625zm0 0"/></symbol><symbol id="aA" overflow="visible"><path d="m7.640625 25.625c0-.046875-.03125-.078125-.046875-.109375-.40625-.40625-1.140625-1.125-1.875-2.3125-1.75-2.8125-2.546875-6.359375-2.546875-10.546875 0-2.9375.390625-6.71875 2.1875-9.96875.875-1.546875 1.765625-2.453125 2.25-2.921875.03125-.03125.03125-.0625.03125-.09375 0-.109375-.078125-.109375-.234375-.109375s-.171875 0-.34375.171875c-3.65625 3.3125-4.796875 8.3125-4.796875 12.90625 0 4.28125.984375 8.609375 3.75 11.859375.21875.25.640625.703125 1.078125 1.09375.140625.140625.15625.140625.3125.140625s.234375 0 .234375-.109375zm0 0"/></symbol><symbol id="aB" overflow="visible"><path d="m5.75 12.65625c0-4.296875-.984375-8.609375-3.75-11.875-.21875-.25-.640625-.6875-1.078125-1.09375-.140625-.125-.15625-.125-.3125-.125-.125 0-.234375 0-.234375.109375 0 .046875.046875.09375.078125.109375.375.390625 1.109375 1.125 1.84375 2.296875 1.75 2.8125 2.546875 6.359375 2.546875 10.5625 0 2.9375-.390625 6.71875-2.1875 9.96875-.875 1.546875-1.765625 2.453125-2.234375 2.90625-.015625.03125-.046875.078125-.046875.109375 0 .109375.109375.109375.234375.109375.15625 0 .171875 0 .34375-.171875 3.65625-3.328125 4.796875-8.3125 4.796875-12.90625zm0 0"/></symbol><symbol id="aC" overflow="visible"><path d="m6.359375 18.765625c0-6.671875-1.1875-10.578125-1.53125-11.671875-.734375-2.421875-1.953125-4.984375-3.765625-7.21875-.171875-.203125-.21875-.25-.25-.28125-.03125-.015625-.03125-.015625-.21875-.015625-.15625 0-.25 0-.25.109375 0 .015625 0 .046875.140625.234375 3.796875 5.296875 4.65625 11.84375 4.65625 19.234375 0 .140625.078125.140625.3125.140625h.59375c.234375 0 .296875 0 .3125-.109375zm0 0"/></symbol><symbol id="aD" overflow="visible"><path d="m6.359375.1875c0-.28125-.015625-.296875-.3125-.296875h-.59375c-.296875 0-.3125.015625-.3125.296875v6.171875c0 .28125.015625.296875.3125.296875h.59375c.296875 0 .3125-.015625.3125-.296875zm0 0"/></symbol><symbol id="aE" overflow="visible"><path d="m6.359375-.421875c-.015625-.125-.078125-.125-.3125-.125h-.59375c-.234375 0-.3125 0-.3125.15625 0 1.125 0 3.71875-.28125 6.4375-.59375 5.640625-2.046875 9.53125-4.4375 12.890625-.078125.09375-.078125.109375-.078125.140625 0 .109375.09375.109375.25.109375.1875 0 .203125 0 .21875-.03125.046875-.03125 1.4375-1.625 2.53125-3.8125 1.4375-2.875 2.34375-6.1875 2.75-10.15625.03125-.328125.265625-2.609375.265625-5.1875zm0 0"/></symbol><symbol id="aF" overflow="visible"><path d="m4.625 12.65625c.34375 0 .34375-.015625.453125-.21875l5.96875-12.453125c.078125-.140625.078125-.171875.078125-.203125 0-.125-.09375-.21875-.21875-.21875-.140625 0-.1875.09375-.234375.21875l-5.640625 11.734375-2.3125-5.40625-1.515625 1.171875.15625.171875.78125-.59375zm0 0"/></symbol><symbol id="aG" overflow="visible"><path d="m1.703125-6h.78125c1 0 1.484375.640625 1.484375 1.171875s-.484375 1.15625-1.484375 1.15625h-.78125zm2.09375 2.6875c.71875-.40625.921875-1.078125.921875-1.515625 0-.9375-.828125-1.828125-2.109375-1.828125h-1.9375c-.171875 0-.4375 0-.4375.328125s.28125.328125.4375.328125h.28125v5.328125h-.28125c-.171875 0-.4375 0-.4375.34375 0 .328125.28125.328125.4375.328125h1.296875c.171875 0 .4375 0 .4375-.328125 0-.34375-.25-.34375-.4375-.34375h-.265625v-2.328125h.84375c.21875 0 .546875 0 .890625.3125.234375.21875.234375.46875.234375.921875 0 .703125 0 1.03125.203125 1.390625.1875.328125.5.5.875.5.6875 0 .9375-.71875.9375-1.140625 0-.34375-.25-.34375-.375-.34375-.109375 0-.359375 0-.375.328125 0 .078125-.015625.484375-.203125.484375-.3125 0-.3125-.5-.3125-1.078125 0-.6875 0-.78125-.09375-1.03125-.125-.3125-.375-.546875-.53125-.65625zm0 0"/></symbol><symbol id="aH" overflow="visible"><path d="m3.390625-6.34375c0-.171875 0-.4375-.328125-.4375-.203125 0-.265625.125-.328125.265625-.40625.921875-.984375 1.046875-1.1875 1.0625-.171875.015625-.40625.03125-.40625.34375 0 .265625.203125.328125.359375.328125.21875 0 .65625-.078125 1.140625-.484375v4.59375h-1c-.171875 0-.4375 0-.4375.34375 0 .328125.28125.328125.4375.328125h2.75c.15625 0 .4375 0 .4375-.328125 0-.34375-.265625-.34375-.4375-.34375h-1zm0 0"/></symbol><symbol id="aI" overflow="visible"><path d="m.734375-.625c-.109375.078125-.171875.140625-.171875.28125 0 .34375.28125.34375.453125.34375h3.703125c.359375 0 .421875-.09375.421875-.453125v-.28125c0-.203125 0-.4375-.359375-.4375-.390625 0-.390625.203125-.390625.5h-2.59375c.640625-.546875 1.6875-1.375 2.15625-1.796875.6875-.625 1.1875-1.3125 1.1875-2.1875 0-1.3125-1.09375-2.125-2.421875-2.125-1.296875 0-2.15625.890625-2.15625 1.8125 0 .40625.3125.53125.5.53125.21875 0 .46875-.1875.46875-.484375 0-.140625-.046875-.28125-.140625-.359375.15625-.5.671875-.84375 1.265625-.84375.90625 0 1.734375.515625 1.734375 1.46875 0 .765625-.53125 1.390625-1.25 2zm0 0"/></symbol><symbol id="aJ" overflow="visible"><path d="m4-3.640625c.609375-.390625.921875-1.015625.921875-1.609375 0-.796875-.796875-1.53125-2.046875-1.53125-1.3125 0-2.078125.515625-2.078125 1.28125 0 .359375.265625.5.484375.5.234375 0 .484375-.1875.484375-.484375 0-.15625-.0625-.265625-.09375-.296875.328125-.34375 1.109375-.34375 1.203125-.34375.75 0 1.296875.40625 1.296875.890625 0 .328125-.171875.703125-.46875.953125-.34375.28125-.609375.296875-1.015625.328125-.609375.03125-.78125.03125-.78125.359375s.265625.328125.4375.328125h.5c1.078125 0 1.640625.734375 1.640625 1.375 0 .65625-.609375 1.34375-1.609375 1.34375-.4375 0-1.265625-.125-1.5625-.625.0625-.0625.140625-.125.140625-.34375 0-.265625-.203125-.484375-.484375-.484375-.25 0-.484375.171875-.484375.515625 0 .96875 1.046875 1.609375 2.390625 1.609375 1.4375 0 2.359375-1.015625 2.359375-2.015625 0-.78125-.515625-1.421875-1.234375-1.75zm0 0"/></symbol><symbol id="aK" overflow="visible"><path d="m.421875-2.65625c-.109375.140625-.109375.15625-.109375.375 0 .359375.109375.4375.4375.4375h2.75v1.171875h-.671875c-.171875 0-.4375 0-.4375.34375 0 .328125.265625.328125.4375.328125h1.953125c.171875 0 .4375 0 .4375-.328125 0-.34375-.25-.34375-.4375-.34375h-.671875v-1.171875h.859375c.15625 0 .4375 0 .4375-.328125 0-.34375-.265625-.34375-.4375-.34375h-.859375v-3.828125c0-.359375-.078125-.453125-.4375-.453125h-.3125c-.265625 0-.3125.015625-.453125.234375zm.65625.140625 2.421875-3.796875v3.796875zm0 0"/></symbol><symbol id="aL" overflow="visible"><path d="m5.078125-5.953125c.109375-.171875.109375-.234375.109375-.34375 0-.359375-.234375-.359375-.4375-.359375h-3.65625c-.359375 0-.4375.078125-.4375.4375v.796875c0 .203125 0 .453125.375.453125s.375-.234375.375-.453125v-.578125h2.8125l-3.59375 5.296875c-.09375.15625-.09375.21875-.09375.328125 0 .375.234375.375.4375.375h3.84375c.359375 0 .4375-.09375.4375-.453125v-1c0-.203125 0-.4375-.375-.4375s-.375.21875-.375.4375v.78125h-3zm0 0"/></symbol><symbol id="aM" overflow="visible"><path d="m3.171875-3.5625 1.234375-2.4375h.234375c.171875 0 .453125 0 .453125-.328125s-.28125-.328125-.453125-.328125h-1.125c-.171875 0-.4375 0-.4375.3125 0 .34375.25.34375.5.34375l-.78125 1.59375-.828125-1.59375c.21875 0 .46875 0 .46875-.34375 0-.3125-.28125-.3125-.4375-.3125h-1.140625c-.15625 0-.4375 0-.4375.3125 0 .34375.28125.34375.4375.34375h.25l1.3125 2.453125-1.453125 2.875h-.234375c-.171875 0-.4375 0-.4375.34375 0 .328125.265625.328125.4375.328125h1.125c.171875 0 .453125 0 .453125-.328125 0-.34375-.265625-.34375-.515625-.34375l1-2.109375 1.078125 2.109375c-.25 0-.484375 0-.484375.34375 0 .328125.28125.328125.4375.328125h1.140625c.15625 0 .4375 0 .4375-.328125 0-.34375-.28125-.34375-.4375-.34375h-.25zm0 0"/></symbol><symbol id="aN" overflow="visible"><path d="m1.0625-.671875h-.328125c-.171875 0-.453125 0-.453125.34375 0 .328125.28125.328125.453125.328125h4.296875c.375 0 .4375-.09375.4375-.453125v-.96875c0-.203125 0-.4375-.359375-.4375-.390625 0-.390625.21875-.390625.4375v.75h-2.90625v-2.453125h1.421875c0 .453125 0 .625.390625.625.359375 0 .359375-.234375.359375-.4375v-1.015625c0-.21875 0-.453125-.359375-.453125-.390625 0-.390625.171875-.390625.625h-1.421875v-2.21875h2.671875v.578125c0 .203125 0 .453125.375.453125s.375-.234375.375-.453125v-.796875c0-.328125-.0625-.4375-.4375-.4375h-4.0625c-.171875 0-.453125 0-.453125.3125 0 .34375.28125.34375.453125.34375h.328125zm0 0"/></symbol><symbol id="aO" overflow="visible"><path d="m1.8125-2.671875h1.359375c1.265625 0 2.0625-.984375 2.0625-2s-.8125-1.984375-2.0625-1.984375h-2.4375c-.171875 0-.453125 0-.453125.3125 0 .34375.28125.34375.453125.34375h.328125v5.328125h-.328125c-.171875 0-.453125 0-.453125.34375 0 .328125.28125.328125.453125.328125h1.40625c.15625 0 .4375 0 .4375-.328125 0-.34375-.28125-.34375-.4375-.34375h-.328125zm0-3.328125h1.15625c1.046875 0 1.515625.75 1.515625 1.328125s-.46875 1.328125-1.515625 1.328125h-1.15625zm0 0"/></symbol><symbol id="aP" overflow="visible"><path d="m4.84375-6h.234375c.15625 0 .421875 0 .421875-.328125s-.25-.328125-.421875-.328125h-1.140625c-.15625 0-.4375 0-.4375.3125 0 .34375.234375.34375.5.34375l-1.140625 2.578125c-.15625-.5625-1.03125-2.34375-1.140625-2.578125.25 0 .5 0 .5-.34375 0-.3125-.28125-.3125-.4375-.3125h-1.140625c-.15625 0-.4375 0-.4375.3125 0 .34375.265625.34375.4375.34375h.234375l1.609375 3.34375v1.984375h-.265625c-.171875 0-.4375 0-.4375.328125 0 .34375.265625.34375.4375.34375h1.296875c.15625 0 .4375 0 .4375-.328125 0-.34375-.265625-.34375-.4375-.34375h-.28125v-1.984375zm0 0"/></symbol><g><use x="20.735" xlink:href="#a" y="11.152"/><use x="27.553187" xlink:href="#b" y="11.152"/><use x="32.401192" xlink:href="#c" y="11.152"/></g><use x="40.276471" xlink:href="#d" y="11.152"/><g><use x="52.101935" xlink:href="#e" y="11.152"/><use x="58.163031" xlink:href="#b" y="11.152"/><use x="63.011035" xlink:href="#f" y="11.152"/><use x="69.072131" xlink:href="#g" y="11.152"/><use x="74.526681" xlink:href="#c" y="11.152"/><use x="78.76923" xlink:href="#b" y="11.152"/></g><g><use x="87.249965" xlink:href="#c" y="11.152"/><use x="91.492514" xlink:href="#h" y="11.152"/><use x="97.553609" xlink:href="#b" y="11.152"/></g><g><use x="106.034344" xlink:href="#i" y="11.152"/><use x="115.124897" xlink:href="#j" y="11.152"/><use x="120.579447" xlink:href="#c" y="11.152"/><use x="124.821996" xlink:href="#k" y="11.152"/><use x="129.09509" xlink:href="#l" y="11.152"/><use x="132.125638" xlink:href="#m" y="11.152"/></g><g><use x="141.527101" xlink:href="#c" y="11.152"/><use x="145.76965" xlink:href="#g" y="11.152"/></g><g><use x="154.85693" xlink:href="#e" y="11.152"/><use x="160.918026" xlink:href="#b" y="11.152"/><use x="165.76603" xlink:href="#n" y="11.152"/><use x="171.827126" xlink:href="#f" y="11.152"/><use x="177.888222" xlink:href="#b" y="11.152"/></g><g><use x="186.368956" xlink:href="#c" y="11.152"/><use x="190.611505" xlink:href="#h" y="11.152"/><use x="196.672601" xlink:href="#b" y="11.152"/></g><g><use x="205.164245" xlink:href="#f" y="11.152"/><use x="211.225341" xlink:href="#g" y="11.152"/><use x="216.679891" xlink:href="#k" y="11.152"/></g><use x="220.942076" xlink:href="#i" y="11.152"/><g><use x="230.043538" xlink:href="#j" y="11.152"/><use x="235.498088" xlink:href="#o" y="11.152"/></g><g><use x="242.161366" xlink:href="#i" y="11.152"/><use x="251.251919" xlink:href="#g" y="11.152"/></g><g><use x="257.011924" xlink:href="#e" y="11.152"/><use x="263.07302" xlink:href="#b" y="11.152"/><use x="267.921024" xlink:href="#p" y="11.152"/></g><g><use x="274.584302" xlink:href="#l" y="11.152"/><use x="277.61485" xlink:href="#q" y="11.152"/><use x="280.645398" xlink:href="#b" y="11.152"/><use x="285.493402" xlink:href="#q" y="11.152"/><use x="288.52395" xlink:href="#p" y="11.152"/></g><use x="235.441" xlink:href="#W" y="35.66"/><use x="248.448" xlink:href="#r" y="35.66"/><use x="259.965828" xlink:href="#d" y="35.66"/><use x="268.296" xlink:href="#X" y="35.66"/><use x="279.362" xlink:href="#Y" y="35.66"/><g><use x="494.641" xlink:href="#s" y="35.66"/><use x="498.883549" xlink:href="#t" y="35.66"/><use x="504.338099" xlink:href="#u" y="35.66"/><use x="509.792649" xlink:href="#v" y="35.66"/></g><g><use x="3.798" xlink:href="#w" y="60.168"/><use x="11.676552" xlink:href="#h" y="60.168"/><use x="17.737648" xlink:href="#b" y="60.168"/><use x="22.585652" xlink:href="#k" y="60.168"/><use x="26.858746" xlink:href="#b" y="60.168"/></g><use x="35.398" xlink:href="#W" y="60.168"/><use x="48.496" xlink:href="#r" y="60.168"/><use x="60.101101" xlink:href="#s" y="60.168"/><use x="64.344" xlink:href="#Z" y="60.168"/><use x="73.633099" xlink:href="#Y" y="60.168"/><use x="78.485466" xlink:href="#aa" y="60.168"/><use x="85.484" xlink:href="#ao" y="61.804"/><use x="90.749" xlink:href="#Y" y="60.168"/><use x="95.601368" xlink:href="#ab" y="60.168"/><use x="102.535192" xlink:href="#Y" y="60.168"/><use x="107.387559" xlink:href="#aa" y="60.168"/><use x="114.39" xlink:href="#ap" y="61.804"/><use x="119.359" xlink:href="#Y" y="60.168"/><use x="124.211368" xlink:href="#ac" y="60.168"/><use x="131.832465" xlink:href="#Y" y="60.168"/><use x="136.673924" xlink:href="#aa" y="60.168"/><use x="143.681" xlink:href="#aq" y="61.804"/><use x="148.455" xlink:href="#v" y="60.168"/><g><use x="156.384825" xlink:href="#j" y="60.168"/><use x="161.839375" xlink:href="#f" y="60.168"/><use x="167.900471" xlink:href="#e" y="60.168"/></g><use x="177.655" xlink:href="#X" y="60.168"/><use x="188.205" xlink:href="#r" y="60.168"/><use x="199.810101" xlink:href="#s" y="60.168"/><g><use x="204.054" xlink:href="#ad" y="60.168"/><use x="210.288551" xlink:href="#Y" y="60.168"/></g><use x="215.140918" xlink:href="#ae" y="60.168"/><use x="220.626" xlink:href="#ao" y="61.804"/><use x="225.891" xlink:href="#Y" y="60.168"/><use x="230.743368" xlink:href="#af" y="60.168"/><use x="236.473918" xlink:href="#Y" y="60.168"/><use x="241.326286" xlink:href="#ae" y="60.168"/><use x="246.816" xlink:href="#ap" y="61.804"/><use x="251.786" xlink:href="#Y" y="60.168"/><use x="256.638368" xlink:href="#ag" y="60.168"/><use x="262.1911" xlink:href="#Y" y="60.168"/><use x="267.032558" xlink:href="#ah" y="60.168"/><use x="275.419" xlink:href="#at" y="60.168"/><use x="287.025" xlink:href="#ae" y="60.168"/><use x="294.974" xlink:href="#au" y="60.168"/><g><use x="305.919" xlink:href="#u" y="60.168"/><use x="311.37355" xlink:href="#v" y="60.168"/></g><g><use x="319.303375" xlink:href="#j" y="60.168"/><use x="324.757925" xlink:href="#k" y="60.168"/><use x="329.031019" xlink:href="#b" y="60.168"/></g><g><use x="337.577208" xlink:href="#c" y="60.168"/><use x="341.819757" xlink:href="#h" y="60.168"/><use x="347.880853" xlink:href="#b" y="60.168"/></g><g><use x="356.416133" xlink:href="#f" y="60.168"/><use x="362.477229" xlink:href="#g" y="60.168"/><use x="367.931779" xlink:href="#k" y="60.168"/><use x="372.204873" xlink:href="#i" y="60.168"/><use x="381.295426" xlink:href="#j" y="60.168"/><use x="386.749976" xlink:href="#o" y="60.168"/></g><g><use x="393.4678" xlink:href="#j" y="60.168"/><use x="398.92235" xlink:href="#f" y="60.168"/><use x="404.983446" xlink:href="#e" y="60.168"/></g><use x="414.742727" xlink:href="#x" y="60.168"/><use x="420.792914" xlink:href="#h" y="60.168"/><g><use x="426.559464" xlink:href="#y" y="60.168"/><use x="432.317287" xlink:href="#z" y="60.168"/><use x="436.619836" xlink:href="#l" y="60.168"/><use x="439.650384" xlink:href="#A" y="60.168"/><use x="444.498388" xlink:href="#j" y="60.168"/><use x="449.952938" xlink:href="#o" y="60.168"/></g><g><use x="456.670762" xlink:href="#A" y="60.168"/><use x="461.518766" xlink:href="#g" y="60.168"/></g><g><use x="467.278771" xlink:href="#g" y="60.168"/><use x="472.733321" xlink:href="#k" y="60.168"/><use x="477.006415" xlink:href="#e" y="60.168"/><use x="483.067511" xlink:href="#l" y="60.168"/><use x="486.098059" xlink:href="#f" y="60.168"/><use x="492.159155" xlink:href="#j" y="60.168"/><use x="497.613705" xlink:href="#c" y="60.168"/><use x="501.856254" xlink:href="#b" y="60.168"/><use x="506.704258" xlink:href="#z" y="60.168"/><use x="511.006807" xlink:href="#p" y="60.168"/></g><g><use x="3.798" xlink:href="#k" y="73.717"/><use x="8.071094" xlink:href="#b" y="73.717"/><use x="12.919099" xlink:href="#z" y="73.717"/><use x="17.221648" xlink:href="#x" y="73.717"/></g><g><use x="23.588198" xlink:href="#b" y="73.717"/><use x="28.436202" xlink:href="#A" y="73.717"/><use x="33.284206" xlink:href="#c" y="73.717"/><use x="37.526755" xlink:href="#l" y="73.717"/><use x="40.557303" xlink:href="#B" y="73.717"/></g><g><use x="46.009672" xlink:href="#b" y="73.717"/><use x="50.857676" xlink:href="#o" y="73.717"/><use x="53.888224" xlink:href="#y" y="73.717"/></g><use x="58.740591" xlink:href="#q" y="73.717"/><g><use x="66.61478" xlink:href="#C" y="73.717"/><use x="74.493332" xlink:href="#h" y="73.717"/><use x="80.554428" xlink:href="#b" y="73.717"/></g><g><use x="89.046071" xlink:href="#i" y="73.717"/><use x="98.136624" xlink:href="#j" y="73.717"/><use x="103.591174" xlink:href="#c" y="73.717"/><use x="107.833723" xlink:href="#k" y="73.717"/><use x="112.106818" xlink:href="#l" y="73.717"/></g><use x="115.126456" xlink:href="#m" y="73.717"/><use x="124.527919" xlink:href="#d" y="73.717"/><g><use x="136.342474" xlink:href="#A" y="73.717"/><use x="141.190478" xlink:href="#j" y="73.717"/><use x="146.645028" xlink:href="#f" y="73.717"/></g><use x="156.338854" xlink:href="#D" y="73.717"/><use x="162.705405" xlink:href="#b" y="73.717"/><g><use x="171.197049" xlink:href="#b" y="73.717"/><use x="176.045053" xlink:href="#m" y="73.717"/><use x="181.802876" xlink:href="#x" y="73.717"/><use x="187.863972" xlink:href="#k" y="73.717"/><use x="192.137066" xlink:href="#b" y="73.717"/><use x="196.98507" xlink:href="#z" y="73.717"/><use x="201.287619" xlink:href="#z" y="73.717"/><use x="205.590168" xlink:href="#b" y="73.717"/><use x="210.438172" xlink:href="#e" y="73.717"/></g><g><use x="220.131998" xlink:href="#j" y="73.717"/><use x="225.586548" xlink:href="#z" y="73.717"/></g><use x="226.171" xlink:href="#d" y="98.225"/><use x="237.385555" xlink:href="#r" y="98.225"/><g><use x="248.903383" xlink:href="#E" y="98.225"/><use x="256.328116" xlink:href="#F" y="98.225"/><use x="264.055032" xlink:href="#G" y="98.225"/></g><use x="272.08" xlink:href="#av" y="99.862"/><use x="276.813" xlink:href="#H" y="98.225"/><use x="288.631" xlink:href="#Y" y="98.225"/><g><use x="494.64" xlink:href="#s" y="98.225"/><use x="498.882549" xlink:href="#t" y="98.225"/><use x="504.337099" xlink:href="#I" y="98.225"/><use x="509.791649" xlink:href="#v" y="98.225"/></g><g><use x="3.798" xlink:href="#w" y="122.733"/><use x="11.676552" xlink:href="#h" y="122.733"/><use x="17.737648" xlink:href="#b" y="122.733"/><use x="22.585652" xlink:href="#k" y="122.733"/><use x="26.858746" xlink:href="#b" y="122.733"/></g><use x="143.661" xlink:href="#H" y="172.254"/><use x="154.875555" xlink:href="#r" y="172.254"/><use x="165.176" xlink:href="#ax" y="137.235"/><use x="165.176" xlink:href="#ay" y="156.436"/><use x="165.176" xlink:href="#ay" y="162.981"/><use x="165.176" xlink:href="#ay" y="169.527"/><use x="165.176" xlink:href="#ay" y="176.072"/><use x="165.176" xlink:href="#az" y="183.054"/><use x="174.722" xlink:href="#aA" y="137.213"/><use x="182.752" xlink:href="#u" y="152.595"/><use x="190.631" xlink:href="#au" y="152.595"/><g><use x="202.735" xlink:href="#e" y="145.215"/><use x="208.796096" xlink:href="#b" y="145.215"/><use x="213.6441" xlink:href="#c" y="145.215"/></g><use x="219.708469" xlink:href="#H" y="145.215"/><use x="227.887" xlink:href="#ao" y="146.851"/><path d="m-.001625-.0001875h30.417969" fill="none" stroke="#000" stroke-miterlimit="10" stroke-width=".436" transform="matrix(1 0 0 -1 202.736 149.867)"/><use x="205.667" xlink:href="#u" y="160.078"/><use x="213.54337" xlink:href="#J" y="160.078"/><use x="224.454" xlink:href="#ai" y="160.078"/><use x="234.348" xlink:href="#aB" y="137.213"/><use x="244.196" xlink:href="#K" y="152.595"/><use x="270.202" xlink:href="#H" y="144.093"/><use x="278.384" xlink:href="#ao" y="145.73"/><use x="283.649" xlink:href="#L" y="144.093"/><use x="289.255" xlink:href="#aw" y="145.73"/><use x="293.988" xlink:href="#H" y="144.093"/><use x="302.169" xlink:href="#ar" y="140.135"/><use x="302.169" xlink:href="#ap" y="146.79"/><use x="308.774" xlink:href="#L" y="144.093"/><use x="314.38" xlink:href="#aw" y="145.73"/><path d="m.001125-.0001875h48.910156" fill="none" stroke="#000" stroke-miterlimit="10" stroke-width=".436" transform="matrix(1 0 0 -1 270.202 149.867)"/><use x="282.38" xlink:href="#u" y="160.078"/><use x="290.25637" xlink:href="#J" y="160.078"/><use x="301.168" xlink:href="#ai" y="160.078"/><use x="341.179" xlink:href="#au" y="152.595"/><use x="349.664" xlink:href="#H" y="152.595"/><use x="357.846" xlink:href="#ao" y="154.231"/><use x="187.121" xlink:href="#H" y="172.363"/><use x="195.303" xlink:href="#ap" y="174"/><use x="200.273" xlink:href="#L" y="172.363"/><use x="205.879" xlink:href="#aw" y="174"/><use x="210.611" xlink:href="#H" y="172.363"/><use x="218.793" xlink:href="#ar" y="168.405"/><use x="218.793" xlink:href="#ao" y="175.06"/><use x="225.398" xlink:href="#L" y="172.363"/><use x="231.004" xlink:href="#aw" y="174"/><path d="m.00009375-.001125h48.61328125" fill="none" stroke="#000" stroke-miterlimit="10" stroke-width=".436" transform="matrix(1 0 0 -1 187.121 177.077)"/><use x="199.152" xlink:href="#u" y="187.287"/><use x="207.02837" xlink:href="#J" y="187.287"/><use x="217.939" xlink:href="#ai" y="187.287"/><use x="258.098" xlink:href="#aA" y="164.422"/><use x="266.128" xlink:href="#u" y="179.804"/><use x="274.007" xlink:href="#au" y="179.804"/><g><use x="286.112" xlink:href="#e" y="172.363"/><use x="292.173096" xlink:href="#b" y="172.363"/><use x="297.0211" xlink:href="#c" y="172.363"/></g><use x="303.085469" xlink:href="#H" y="172.363"/><use x="311.263" xlink:href="#ap" y="174"/><path d="m.00128125-.001125h30.12109375" fill="none" stroke="#000" stroke-miterlimit="10" stroke-width=".436" transform="matrix(1 0 0 -1 286.112 177.077)"/><use x="288.895" xlink:href="#u" y="187.287"/><use x="296.77137" xlink:href="#J" y="187.287"/><use x="307.683" xlink:href="#ai" y="187.287"/><use x="317.429" xlink:href="#aB" y="164.422"/><use x="327.277" xlink:href="#K" y="179.804"/><use x="341.327" xlink:href="#au" y="179.804"/><use x="349.812" xlink:href="#H" y="179.804"/><use x="357.993" xlink:href="#ap" y="181.44"/><use x="189.455" xlink:href="#au" y="200.118"/><use x="197.94" xlink:href="#L" y="200.118"/><use x="203.546" xlink:href="#aw" y="201.755"/><use x="208.278" xlink:href="#H" y="200.118"/><use x="216.46" xlink:href="#ar" y="195.614"/><use x="216.46" xlink:href="#ao" y="202.815"/><use x="223.064" xlink:href="#L" y="200.118"/><use x="228.67" xlink:href="#aw" y="201.755"/><use x="272.683" xlink:href="#au" y="200.118"/><use x="281.168" xlink:href="#L" y="200.118"/><use x="286.774" xlink:href="#aw" y="201.755"/><use x="291.507" xlink:href="#H" y="200.118"/><use x="299.688" xlink:href="#ar" y="195.614"/><use x="299.688" xlink:href="#ap" y="202.815"/><use x="306.293" xlink:href="#L" y="200.118"/><use x="311.899" xlink:href="#aw" y="201.755"/><use x="347.292" xlink:href="#ai" y="200.118"/><use x="353.058" xlink:href="#K" y="200.118"/><use x="363.111" xlink:href="#aC" y="137.235"/><use x="363.111" xlink:href="#aD" y="156.436"/><use x="363.111" xlink:href="#aD" y="162.981"/><use x="363.111" xlink:href="#aD" y="169.527"/><use x="363.111" xlink:href="#aD" y="176.072"/><use x="363.111" xlink:href="#aE" y="183.054"/><use x="378.111" xlink:href="#Y" y="172.254"/><g><use x="494.64" xlink:href="#s" y="172.254"/><use x="498.882549" xlink:href="#t" y="172.254"/><use x="504.337099" xlink:href="#M" y="172.254"/><use x="509.791649" xlink:href="#v" y="172.254"/></g><use x="139.08" xlink:href="#G" y="231.634"/><use x="147.111" xlink:href="#av" y="233.27"/><use x="154.873" xlink:href="#r" y="231.634"/><use x="165.176" xlink:href="#aA" y="216.252"/><use x="179.627" xlink:href="#G" y="224.842"/><use x="204.041" xlink:href="#N" y="224.825"/><use x="219.455558" xlink:href="#N" y="224.825"/><use x="173.207" xlink:href="#N" y="238.391"/><use x="188.621558" xlink:href="#N" y="238.391"/><use x="212.507" xlink:href="#K" y="238.409"/><use x="224.913" xlink:href="#aB" y="216.252"/><use x="235.973" xlink:href="#r" y="231.634"/><use x="247.488" xlink:href="#ax" y="209.707"/><use x="247.488" xlink:href="#az" y="229.343"/><use x="257.034" xlink:href="#aj" y="218.3"/><use x="261.716" xlink:href="#K" y="218.3"/><use x="275.615284" xlink:href="#L" y="218.3"/><use x="281.224" xlink:href="#aw" y="219.937"/><use x="285.956" xlink:href="#k" y="218.3"/><use x="290.229" xlink:href="#ar" y="213.796"/><use x="296.833" xlink:href="#L" y="218.3"/><use x="302.439" xlink:href="#aw" y="219.937"/><use x="317.134" xlink:href="#N" y="218.3"/><use x="259.208" xlink:href="#k" y="231.85"/><use x="287.084" xlink:href="#aj" y="231.85"/><use x="291.766" xlink:href="#K" y="231.85"/><use x="317.130748" xlink:href="#N" y="231.85"/><use x="258.617" xlink:href="#N" y="245.399"/><use x="288.671571" xlink:href="#N" y="245.399"/><use x="317.897049" xlink:href="#K" y="245.399"/><use x="322.589" xlink:href="#aC" y="209.707"/><use x="322.589" xlink:href="#aE" y="229.343"/><use x="337.589" xlink:href="#Y" y="231.634"/><g><use x="494.64" xlink:href="#s" y="231.634"/><use x="498.882549" xlink:href="#t" y="231.634"/><use x="504.337099" xlink:href="#O" y="231.634"/><use x="509.791649" xlink:href="#v" y="231.634"/></g><g><use x="136.691" xlink:href="#E" y="276.5"/><use x="144.115733" xlink:href="#F" y="276.5"/></g><use x="154.875379" xlink:href="#r" y="276.5"/><use x="165.176" xlink:href="#ax" y="254.572"/><use x="165.176" xlink:href="#az" y="274.209"/><use x="174.722" xlink:href="#E" y="262.933"/><use x="182.146" xlink:href="#ao" y="264.569"/><use x="187.411" xlink:href="#F" y="262.933"/><use x="195.138" xlink:href="#ao" y="264.569"/><use x="220.184" xlink:href="#N" y="262.933"/><use x="255.038574" xlink:href="#N" y="262.933"/><use x="184.835" xlink:href="#N" y="276.482"/><use x="210.362294" xlink:href="#E" y="276.482"/><use x="217.79" xlink:href="#ap" y="278.119"/><use x="222.76" xlink:href="#F" y="276.482"/><use x="230.487" xlink:href="#ap" y="278.119"/><use x="255.042" xlink:href="#N" y="276.482"/><use x="184.835" xlink:href="#N" y="290.031"/><use x="220.180484" xlink:href="#N" y="290.031"/><use x="245.424141" xlink:href="#E" y="290.031"/><use x="252.844" xlink:href="#aq" y="291.668"/><use x="257.618" xlink:href="#F" y="290.031"/><use x="265.345" xlink:href="#aq" y="291.668"/><use x="270.119" xlink:href="#aC" y="254.572"/><use x="270.119" xlink:href="#aE" y="274.209"/><use x="285.119" xlink:href="#Y" y="276.5"/><g><use x="494.64" xlink:href="#s" y="276.5"/><use x="498.882549" xlink:href="#t" y="276.5"/><use x="504.337099" xlink:href="#t" y="276.5"/><use x="509.791649" xlink:href="#v" y="276.5"/></g><g><use x="7.434" xlink:href="#w" y="313.627"/><use x="15.312552" xlink:href="#l" y="313.627"/><use x="18.3431" xlink:href="#c" y="313.627"/><use x="22.585649" xlink:href="#h" y="313.627"/></g><use x="196.731" xlink:href="#ai" y="338.135"/><use x="202.498" xlink:href="#aw" y="333.631"/><use x="209.654" xlink:href="#J" y="338.135"/><g><use x="220.560918" xlink:href="#e" y="338.135"/><use x="226.622014" xlink:href="#b" y="338.135"/><use x="231.470018" xlink:href="#c" y="338.135"/></g><use x="237.534387" xlink:href="#H" y="338.135"/><use x="245.715" xlink:href="#ao" y="339.771"/><use x="253.404" xlink:href="#J" y="338.135"/><g><use x="264.310918" xlink:href="#e" y="338.135"/><use x="270.372014" xlink:href="#b" y="338.135"/><use x="275.220018" xlink:href="#c" y="338.135"/></g><use x="281.284387" xlink:href="#H" y="338.135"/><use x="289.465" xlink:href="#ap" y="339.771"/><use x="297.465" xlink:href="#r" y="338.135"/><use x="308.982828" xlink:href="#u" y="338.135"/><use x="318.071" xlink:href="#Y" y="338.135"/><g><use x="494.64" xlink:href="#s" y="338.135"/><use x="498.882549" xlink:href="#t" y="338.135"/><use x="504.337099" xlink:href="#P" y="338.135"/><use x="509.791649" xlink:href="#v" y="338.135"/></g><use x="196.731" xlink:href="#aj" y="355.826"/><use x="201.413" xlink:href="#aw" y="351.321"/><use x="208.57" xlink:href="#J" y="355.826"/><g><use x="219.476918" xlink:href="#e" y="355.826"/><use x="225.538014" xlink:href="#b" y="355.826"/><use x="230.386018" xlink:href="#c" y="355.826"/></g><use x="236.450387" xlink:href="#G" y="355.826"/><use x="247.513305" xlink:href="#r" y="355.826"/><use x="259.020224" xlink:href="#u" y="355.826"/><use x="268.115" xlink:href="#ak" y="355.826"/><g><use x="494.64" xlink:href="#s" y="355.826"/><use x="498.882549" xlink:href="#t" y="355.826"/><use x="504.337099" xlink:href="#Q" y="355.826"/><use x="509.791649" xlink:href="#v" y="355.826"/></g><g><use x="3.798" xlink:href="#R" y="380.334"/><use x="9.859096" xlink:href="#y" y="380.334"/><use x="15.616919" xlink:href="#i" y="380.334"/></g><use x="24.402017" xlink:href="#D" y="380.334"/><g><use x="30.768568" xlink:href="#g" y="380.334"/><use x="36.223118" xlink:href="#o" y="380.334"/><use x="39.253666" xlink:href="#z" y="380.334"/></g><g><use x="47.188945" xlink:href="#K" y="380.334"/><use x="51.128221" xlink:href="#p" y="380.334"/><use x="54.158769" xlink:href="#L" y="380.334"/></g><use x="59.768" xlink:href="#aw" y="381.97"/><use x="64.5" xlink:href="#p" y="380.334"/><use x="71.163278" xlink:href="#H" y="380.334"/><g><use x="79.349" xlink:href="#ao" y="381.97"/><use x="84.115917" xlink:href="#as" y="381.97"/><use x="86.467893" xlink:href="#ap" y="381.97"/></g><use x="91.438" xlink:href="#p" y="380.334"/><g><use x="98.101278" xlink:href="#k" y="380.334"/><use x="102.374373" xlink:href="#p" y="380.334"/></g><use x="109.04856" xlink:href="#F" y="380.334"/><g><use x="116.771" xlink:href="#ao" y="381.97"/><use x="121.537917" xlink:href="#as" y="381.97"/><use x="123.889893" xlink:href="#ap" y="381.97"/></g><g><use x="128.362713" xlink:href="#as" y="381.97"/><use x="130.71469" xlink:href="#aq" y="381.97"/></g><use x="135.488" xlink:href="#p" y="380.334"/><use x="142.151278" xlink:href="#E" y="380.334"/><g><use x="149.579" xlink:href="#ao" y="381.97"/><use x="154.345917" xlink:href="#as" y="381.97"/><use x="156.697893" xlink:href="#ap" y="381.97"/></g><g><use x="161.170713" xlink:href="#as" y="381.97"/><use x="163.52269" xlink:href="#aq" y="381.97"/></g><g><use x="171.932" xlink:href="#j" y="380.334"/><use x="177.38655" xlink:href="#D" y="380.334"/></g><use x="183.753101" xlink:href="#g" y="380.334"/><use x="188.902196" xlink:href="#B" y="380.334"/><use x="194.354564" xlink:href="#b" y="380.334"/><g><use x="202.846208" xlink:href="#j" y="380.334"/><use x="208.300758" xlink:href="#k" y="380.334"/><use x="212.573852" xlink:href="#b" y="380.334"/></g><use x="221.054586" xlink:href="#I" y="380.334"/><use x="230.141867" xlink:href="#D" y="380.334"/><use x="235.897508" xlink:href="#y" y="380.334"/><use x="245.29897" xlink:href="#I" y="380.334"/><g><use x="254.386251" xlink:href="#i" y="380.334"/><use x="263.476804" xlink:href="#j" y="380.334"/><use x="268.931354" xlink:href="#c" y="380.334"/><use x="273.173903" xlink:href="#k" y="380.334"/><use x="277.446997" xlink:href="#l" y="380.334"/><use x="280.477545" xlink:href="#A" y="380.334"/><use x="285.325549" xlink:href="#b" y="380.334"/><use x="290.173553" xlink:href="#z" y="380.334"/><use x="294.476102" xlink:href="#S" y="380.334"/></g><use x="197.334" xlink:href="#K" y="411.751"/><use x="204.304" xlink:href="#at" y="411.751"/><use x="214.607" xlink:href="#aA" y="396.369"/><use x="222.637" xlink:href="#u" y="404.959"/><use x="238.051558" xlink:href="#N" y="404.959"/><use x="222.637" xlink:href="#N" y="418.508"/><use x="238.051558" xlink:href="#u" y="418.508"/><use x="243.509" xlink:href="#aB" y="396.369"/><use x="256.994" xlink:href="#Y" y="411.751"/><g><use x="494.64" xlink:href="#s" y="411.751"/><use x="498.882549" xlink:href="#t" y="411.751"/><use x="504.337099" xlink:href="#T" y="411.751"/><use x="509.791649" xlink:href="#v" y="411.751"/></g><use x="190.935" xlink:href="#L" y="442.835"/><use x="196.541" xlink:href="#aw" y="444.471"/><use x="204.304" xlink:href="#at" y="442.835"/><use x="214.607" xlink:href="#aA" y="427.453"/><use x="226.879" xlink:href="#N" y="436.043"/><use x="246.537198" xlink:href="#u" y="436.043"/><use x="222.637" xlink:href="#au" y="449.592"/><use x="231.122" xlink:href="#u" y="449.592"/><use x="246.536558" xlink:href="#N" y="449.592"/><use x="251.994" xlink:href="#aB" y="427.453"/><use x="265.478" xlink:href="#Y" y="442.835"/><g><use x="494.64" xlink:href="#s" y="442.835"/><use x="498.882549" xlink:href="#t" y="442.835"/><use x="504.337099" xlink:href="#U" y="442.835"/><use x="509.791649" xlink:href="#v" y="442.835"/></g><use x="197.001" xlink:href="#k" y="473.918"/><use x="204.304" xlink:href="#at" y="473.918"/><use x="214.607" xlink:href="#aA" y="458.536"/><g><use x="222.637" xlink:href="#aG" y="467.126"/><use x="228.364278" xlink:href="#aH" y="467.126"/></g><g><use x="244.051563" xlink:href="#aG" y="467.126"/><use x="249.778841" xlink:href="#aI" y="467.126"/></g><g><use x="222.637" xlink:href="#aG" y="480.675"/><use x="228.364278" xlink:href="#aJ" y="480.675"/></g><g><use x="244.051563" xlink:href="#aG" y="480.675"/><use x="249.778841" xlink:href="#aK" y="480.675"/></g><use x="255.508" xlink:href="#aB" y="458.536"/><use x="268.993" xlink:href="#Y" y="473.918"/><g><use x="494.64" xlink:href="#s" y="473.918"/><use x="498.882549" xlink:href="#P" y="473.918"/><use x="504.337099" xlink:href="#N" y="473.918"/><use x="509.791649" xlink:href="#v" y="473.918"/></g><use x="181.457" xlink:href="#F" y="517.634"/><g><use x="189.184" xlink:href="#ao" y="519.271"/><use x="193.950917" xlink:href="#as" y="519.271"/><use x="196.302893" xlink:href="#ap" y="519.271"/></g><use x="204.304" xlink:href="#at" y="517.634"/><use x="214.607" xlink:href="#ax" y="489.161"/><use x="214.607" xlink:href="#ay" y="508.362"/><use x="214.607" xlink:href="#ay" y="514.907"/><use x="214.607" xlink:href="#az" y="521.889"/><use x="237.205" xlink:href="#u" y="496.336"/><path d="m-.00034375.00071875h29.16796875" fill="none" stroke="#000" stroke-miterlimit="10" stroke-width=".436" transform="matrix(1 0 0 -1 225.348 500.989)"/><use x="225.348" xlink:href="#aF" y="503.389"/><path d="m.0008125-.000875h18.2578125" fill="none" stroke="#000" stroke-miterlimit="10" stroke-width=".436" transform="matrix(1 0 0 -1 236.257 503.171)"/><use x="236.257" xlink:href="#al" y="512.184"/><g><use x="242.427" xlink:href="#ao" y="513.82"/><use x="247.193917" xlink:href="#as" y="513.82"/><use x="249.545893" xlink:href="#ap" y="513.82"/></g><use x="277.532" xlink:href="#N" y="503.716"/><use x="230.398" xlink:href="#am" y="520.741"/><g><use x="237.377" xlink:href="#ao" y="522.377"/><use x="242.143917" xlink:href="#as" y="522.377"/><use x="244.495893" xlink:href="#ap" y="522.377"/></g><path d="m-.00034375.000875h29.16796875" fill="none" stroke="#000" stroke-miterlimit="10" stroke-width=".436" transform="matrix(1 0 0 -1 225.348 525.454)"/><use x="225.348" xlink:href="#aF" y="527.854"/><path d="m.0008125-.00071875h18.2578125" fill="none" stroke="#000" stroke-miterlimit="10" stroke-width=".436" transform="matrix(1 0 0 -1 236.257 527.636)"/><use x="236.257" xlink:href="#al" y="536.649"/><g><use x="242.427" xlink:href="#ao" y="538.285"/><use x="247.193917" xlink:href="#as" y="538.285"/><use x="249.545893" xlink:href="#ap" y="538.285"/></g><use x="265.675" xlink:href="#aF" y="518.854"/><path d="m.0019375-.00071875h18.2578125" fill="none" stroke="#000" stroke-miterlimit="10" stroke-width=".436" transform="matrix(1 0 0 -1 276.584 518.636)"/><use x="276.584" xlink:href="#al" y="528.181"/><g><use x="282.754" xlink:href="#ao" y="529.818"/><use x="287.520917" xlink:href="#as" y="529.818"/><use x="289.872893" xlink:href="#ap" y="529.818"/></g><use x="294.843" xlink:href="#aC" y="489.162"/><use x="294.843" xlink:href="#aD" y="508.362"/><use x="294.843" xlink:href="#aD" y="514.907"/><use x="294.843" xlink:href="#aE" y="521.889"/><use x="309.843" xlink:href="#Y" y="517.635"/><g><use x="494.64" xlink:href="#s" y="517.635"/><use x="498.882549" xlink:href="#P" y="517.635"/><use x="504.337099" xlink:href="#u" y="517.635"/><use x="509.791649" xlink:href="#v" y="517.635"/></g><use x="175.132" xlink:href="#E" y="561.351"/><g><use x="182.556" xlink:href="#ao" y="562.987"/><use x="187.322917" xlink:href="#as" y="562.987"/><use x="189.674893" xlink:href="#ap" y="562.987"/></g><g><use x="194.147713" xlink:href="#as" y="562.987"/><use x="196.49969" xlink:href="#aq" y="562.987"/></g><use x="204.304" xlink:href="#at" y="561.351"/><use x="214.607" xlink:href="#aA" y="545.969"/><g><use x="227.183" xlink:href="#A" y="554.559"/><use x="232.031004" xlink:href="#g" y="554.559"/><use x="237.485554" xlink:href="#z" y="554.559"/></g><use x="243.607" xlink:href="#an" y="554.559"/><g><use x="250.713" xlink:href="#ao" y="556.195"/><use x="255.479917" xlink:href="#as" y="556.195"/><use x="257.831893" xlink:href="#ap" y="556.195"/></g><g><use x="262.304713" xlink:href="#as" y="556.195"/><use x="264.65669" xlink:href="#aq" y="556.195"/></g><g><use x="284.544" xlink:href="#z" y="554.559"/><use x="288.846549" xlink:href="#l" y="554.559"/><use x="291.877097" xlink:href="#f" y="554.559"/></g><use x="299.756" xlink:href="#an" y="554.559"/><g><use x="306.862" xlink:href="#ao" y="556.195"/><use x="311.628917" xlink:href="#as" y="556.195"/><use x="313.980893" xlink:href="#ap" y="556.195"/></g><g><use x="318.453713" xlink:href="#as" y="556.195"/><use x="320.80569" xlink:href="#aq" y="556.195"/></g><use x="222.637" xlink:href="#au" y="568.108"/><g><use x="232.94" xlink:href="#z" y="568.108"/><use x="237.242549" xlink:href="#l" y="568.108"/><use x="240.273097" xlink:href="#f" y="568.108"/></g><use x="248.152" xlink:href="#an" y="568.108"/><g><use x="255.258" xlink:href="#ao" y="569.744"/><use x="260.024917" xlink:href="#as" y="569.744"/><use x="262.376893" xlink:href="#ap" y="569.744"/></g><g><use x="266.849713" xlink:href="#as" y="569.744"/><use x="269.20169" xlink:href="#aq" y="569.744"/></g><g><use x="283.938" xlink:href="#A" y="568.108"/><use x="288.786004" xlink:href="#g" y="568.108"/><use x="294.240554" xlink:href="#z" y="568.108"/></g><use x="300.362" xlink:href="#an" y="568.108"/><g><use x="307.468" xlink:href="#ao" y="569.744"/><use x="312.234917" xlink:href="#as" y="569.744"/><use x="314.586893" xlink:href="#ap" y="569.744"/></g><g><use x="319.059713" xlink:href="#as" y="569.744"/><use x="321.41169" xlink:href="#aq" y="569.744"/></g><use x="326.185" xlink:href="#aB" y="545.969"/><use x="339.67" xlink:href="#ak" y="561.351"/><g><use x="494.64" xlink:href="#s" y="561.351"/><use x="498.882549" xlink:href="#P" y="561.351"/><use x="504.337099" xlink:href="#I" y="561.351"/><use x="509.791649" xlink:href="#v" y="561.351"/></g><g><use x="7.434" xlink:href="#V" y="591.704"/><use x="17.434372" xlink:href="#j" y="591.704"/><use x="22.888922" xlink:href="#c" y="591.704"/><use x="27.131471" xlink:href="#k" y="591.704"/><use x="31.404565" xlink:href="#l" y="591.704"/><use x="34.435113" xlink:href="#A" y="591.704"/><use x="39.283117" xlink:href="#b" y="591.704"/><use x="44.131121" xlink:href="#z" y="591.704"/></g><use x="52.066401" xlink:href="#H" y="591.704"/><g><use x="60.253" xlink:href="#ao" y="593.34"/><use x="65.019917" xlink:href="#as" y="593.34"/><use x="67.371893" xlink:href="#ap" y="593.34"/></g><g><use x="75.978" xlink:href="#e" y="591.704"/><use x="82.039096" xlink:href="#b" y="591.704"/><use x="86.8871" xlink:href="#n" y="591.704"/><use x="92.948196" xlink:href="#f" y="591.704"/><use x="99.009292" xlink:href="#b" y="591.704"/></g><g><use x="107.490026" xlink:href="#e" y="591.704"/><use x="113.551122" xlink:href="#l" y="591.704"/><use x="116.58167" xlink:href="#z" y="591.704"/><use x="120.884219" xlink:href="#x" y="591.704"/></g><g><use x="127.25077" xlink:href="#b" y="591.704"/><use x="132.098774" xlink:href="#k" y="591.704"/><use x="136.371869" xlink:href="#z" y="591.704"/><use x="140.674418" xlink:href="#l" y="591.704"/><use x="143.704966" xlink:href="#g" y="591.704"/><use x="149.159516" xlink:href="#f" y="591.704"/><use x="155.220611" xlink:href="#z" y="591.704"/></g><g><use x="163.155891" xlink:href="#j" y="591.704"/><use x="168.610441" xlink:href="#z" y="591.704"/></g><use x="196.015" xlink:href="#ax" y="608.198"/><use x="196.015" xlink:href="#ay" y="627.398"/><use x="196.015" xlink:href="#ay" y="633.943"/><use x="196.015" xlink:href="#az" y="640.925"/><g><use x="208.424" xlink:href="#aL" y="616.329"/><use x="214.151277" xlink:href="#aM" y="616.329"/></g><g><use x="235.565841" xlink:href="#aN" y="616.329"/><use x="241.293118" xlink:href="#aM" y="616.329"/></g><g><use x="205.56" xlink:href="#aL" y="629.879"/><use x="211.287277" xlink:href="#aO" y="629.879"/><use x="217.014555" xlink:href="#aM" y="629.879"/></g><g><use x="232.701841" xlink:href="#aN" y="629.879"/><use x="238.429118" xlink:href="#aO" y="629.879"/><use x="244.156396" xlink:href="#aM" y="629.879"/></g><g><use x="208.424" xlink:href="#aL" y="643.428"/><use x="214.151277" xlink:href="#aP" y="643.428"/></g><g><use x="235.565841" xlink:href="#aN" y="643.428"/><use x="241.293118" xlink:href="#aP" y="643.428"/></g><g><use x="205.56" xlink:href="#aL" y="656.977"/><use x="211.287277" xlink:href="#aO" y="656.977"/><use x="217.014555" xlink:href="#aP" y="656.977"/></g><g><use x="232.701841" xlink:href="#aN" y="656.977"/><use x="238.429118" xlink:href="#aO" y="656.977"/><use x="244.156396" xlink:href="#aP" y="656.977"/></g><use x="249.886" xlink:href="#aC" y="608.198"/><use x="249.886" xlink:href="#aD" y="627.398"/><use x="249.886" xlink:href="#aD" y="633.943"/><use x="249.886" xlink:href="#aE" y="640.925"/><use x="262.462" xlink:href="#at" y="636.671"/><use x="273.977" xlink:href="#G" y="636.671"/><use x="283.825" xlink:href="#aA" y="621.289"/><use x="291.856" xlink:href="#H" y="629.879"/><use x="300.038" xlink:href="#ao" y="631.515"/><use x="292.003" xlink:href="#H" y="643.428"/><use x="300.185" xlink:href="#ap" y="645.064"/><use x="305.303" xlink:href="#aB" y="621.289"/><use x="318.787" xlink:href="#ak" y="636.671"/><g><use x="494.64" xlink:href="#s" y="636.671"/><use x="498.882549" xlink:href="#P" y="636.671"/><use x="504.337099" xlink:href="#M" y="636.671"/><use x="509.791649" xlink:href="#v" y="636.671"/></g></svg>