<svg height="31pt" viewBox="0 0 298 31" width="298pt" xmlns="http://www.w3.org/2000/svg" xmlns:xlink="http://www.w3.org/1999/xlink"><symbol id="a" overflow="visible"><path d="m3.234375-2.984375c.296875.0625 1.203125.28125 1.203125 1.234375 0 .5625-.46875 1.203125-1.328125 1.203125-.3125 0-.84375-.046875-1.28125-.34375-.453125-.28125-.5-.75-.515625-.9375 0-.1875-.015625-.390625-.359375-.390625-.390625 0-.390625.234375-.390625.453125v1.4375c0 .171875 0 .453125.328125.453125.25 0 .3125-.15625.40625-.5.4375.328125 1.109375.5 1.796875.5 1.265625 0 2.046875-.96875 2.046875-1.9375 0-.703125-.390625-1.15625-.515625-1.296875-.453125-.4375-.75-.515625-1.59375-.703125l-.875-.203125c-.46875-.125-.875-.515625-.875-1.015625 0-.5625.53125-1.09375 1.296875-1.09375 1.296875 0 1.453125 1.03125 1.515625 1.375.046875.234375.15625.296875.375.296875.390625 0 .390625-.21875.390625-.4375v-1.453125c0-.171875 0-.4375-.328125-.4375-.265625 0-.328125.1875-.40625.515625-.453125-.390625-1.03125-.515625-1.53125-.515625-1.203125 0-2.03125.859375-2.03125 1.78125 0 .734375.5 1.453125 1.40625 1.71875.046875.015625 1.109375.265625 1.265625.296875zm0 0"/></symbol><symbol id="b" overflow="visible"><path d="m3.015625-3.90625 1.65625-2.09375c.390625 0 .625 0 .625-.34375 0-.3125-.296875-.3125-.453125-.3125h-.96875c-.15625 0-.4375 0-.4375.328125s.296875.328125.4375.328125l-2.296875 2.90625v-2.90625h.25c.15625 0 .4375 0 .4375-.328125s-.265625-.328125-.4375-.328125h-1.09375c-.171875 0-.453125 0-.453125.3125 0 .34375.28125.34375.453125.34375h.234375v5.328125h-.234375c-.171875 0-.453125 0-.453125.328125 0 .34375.28125.34375.453125.34375h1.09375c.15625 0 .4375 0 .4375-.328125 0-.34375-.265625-.34375-.4375-.34375h-.25v-1.4375l1.015625-1.28125 1.53125 2.71875c-.15625 0-.4375 0-.4375.328125 0 .34375.265625.34375.453125.34375h.8125c.15625 0 .453125 0 .453125-.328125 0-.34375-.265625-.34375-.578125-.34375-.015625-.03125-.0625-.109375-.078125-.125zm0 0"/></symbol><symbol id="c" overflow="visible"><path d="m3.390625-6.34375c0-.171875 0-.4375-.328125-.4375-.203125 0-.265625.125-.328125.265625-.40625.921875-.984375 1.046875-1.1875 1.0625-.171875.015625-.40625.03125-.40625.34375 0 .265625.203125.328125.359375.328125.21875 0 .65625-.078125 1.140625-.484375v4.59375h-1c-.171875 0-.4375 0-.4375.34375 0 .328125.28125.328125.4375.328125h2.75c.15625 0 .4375 0 .4375-.328125 0-.34375-.265625-.34375-.4375-.34375h-1zm0 0"/></symbol><symbol id="d" overflow="visible"><path d="m2.859375-3.921875c-.796875 0-1.46875-.5-1.46875-1.109375 0-.5625.609375-1.09375 1.46875-1.09375.84375 0 1.46875.53125 1.46875 1.09375 0 .625-.671875 1.109375-1.46875 1.109375zm.859375.328125c.875-.28125 1.359375-.828125 1.359375-1.4375 0-.90625-.921875-1.75-2.21875-1.75-1.3125 0-2.234375.859375-2.234375 1.75 0 .609375.515625 1.15625 1.375 1.4375-.828125.234375-1.515625.875-1.515625 1.703125 0 1.046875 1.015625 2.015625 2.375 2.015625 1.375 0 2.375-.96875 2.375-2.015625 0-.828125-.703125-1.46875-1.515625-1.703125zm-.859375 3.046875c-.90625 0-1.625-.609375-1.625-1.359375 0-.671875.625-1.359375 1.625-1.359375s1.625.6875 1.625 1.359375c0 .75-.71875 1.359375-1.625 1.359375zm0 0"/></symbol><symbol id="e" overflow="visible"><path d="m1.9375-6h.609375c.15625 0 .453125 0 .453125-.328125s-.28125-.328125-.453125-.328125h-1.765625c-.171875 0-.4375 0-.4375.328125s.28125.328125.4375.328125h.40625v5.328125h-.40625c-.171875 0-.4375 0-.4375.34375 0 .328125.28125.328125.4375.328125h4.109375c.359375 0 .4375-.09375.4375-.453125v-.96875c0-.21875 0-.4375-.375-.4375-.390625 0-.390625.21875-.390625.4375v.75h-2.625zm0 0"/></symbol><symbol id="f" overflow="visible"><path d="m7.5-3.5625c.15625 0 .359375 0 .359375-.21875s-.203125-.21875-.359375-.21875h-6.53125c-.15625 0-.359375 0-.359375.21875s.203125.21875.375.21875zm0 2.109375c.15625 0 .359375 0 .359375-.21875s-.203125-.21875-.359375-.21875h-6.515625c-.171875 0-.375 0-.375.21875s.203125.21875.359375.21875zm0 0"/></symbol><symbol id="g" overflow="visible"><path d="m3.609375 2.625c0-.046875 0-.0625-.1875-.25-1.359375-1.375-1.703125-3.4375-1.703125-5.09375 0-1.90625.40625-3.796875 1.75-5.171875.140625-.125.140625-.140625.140625-.1875 0-.0625-.046875-.09375-.109375-.09375-.109375 0-1.09375.734375-1.734375 2.125-.5625 1.1875-.6875 2.40625-.6875 3.328125 0 .84375.125 2.15625.71875 3.390625.65625 1.34375 1.59375 2.046875 1.703125 2.046875.0625 0 .109375-.03125.109375-.09375zm0 0"/></symbol><symbol id="h" overflow="visible"><path d="m3.203125-6.984375c0-.25 0-.28125-.25-.28125-.671875.703125-1.640625.703125-1.984375.703125v.328125c.21875 0 .859375 0 1.4375-.28125v5.65625c0 .390625-.046875.515625-1.015625.515625h-.359375v.34375c.390625-.03125 1.328125-.03125 1.765625-.03125s1.390625 0 1.765625.03125v-.34375h-.34375c-.984375 0-1.015625-.109375-1.015625-.515625zm0 0"/></symbol><symbol id="i" overflow="visible"><path d="m3.203125-1.796875v.953125c0 .390625-.015625.5-.828125.5h-.21875v.34375c.4375-.03125 1-.03125 1.46875-.03125.453125 0 1.03125 0 1.484375.03125v-.34375h-.234375c-.8125 0-.828125-.109375-.828125-.5v-.953125h1.09375v-.34375h-1.09375v-4.953125c0-.21875 0-.296875-.171875-.296875-.09375 0-.140625 0-.21875.140625l-3.34375 5.109375v.34375zm.0625-.34375h-2.65625l2.65625-4.0625zm0 0"/></symbol><symbol id="j" overflow="visible"><path d="m5.1875-6.640625c.109375-.125.109375-.15625.109375-.390625h-2.65625c-1.328125 0-1.359375-.140625-1.390625-.34375h-.28125l-.359375 2.25h.28125c.03125-.171875.125-.859375.265625-1 .078125-.0625.921875-.0625 1.0625-.0625h2.265625c-.125.171875-.984375 1.359375-1.21875 1.734375-.984375 1.46875-1.34375 2.984375-1.34375 4.09375 0 .109375 0 .59375.5.59375s.5-.484375.5-.59375v-.5625c0-.59375.03125-1.1875.125-1.78125.046875-.25.1875-1.1875.671875-1.859375zm0 0"/></symbol><symbol id="k" overflow="visible"><path d="m3.15625-2.71875c0-.859375-.125-2.171875-.71875-3.40625-.65625-1.34375-1.59375-2.046875-1.703125-2.046875-.0625 0-.109375.03125-.109375.09375 0 .046875 0 .0625.203125.265625 1.0625 1.078125 1.6875 2.8125 1.6875 5.09375 0 1.859375-.40625 3.78125-1.75 5.15625-.140625.125-.140625.140625-.140625.1875 0 .0625.046875.09375.109375.09375.109375 0 1.09375-.734375 1.734375-2.125.546875-1.1875.6875-2.40625.6875-3.3125zm0 0"/></symbol><symbol id="l" overflow="visible"><path d="m1.75-.84375c-.109375.421875-.140625.5-1 .5-.1875 0-.296875 0-.296875.21875 0 .125.109375.125.296875.125h3.890625c1.734375 0 3.015625-1.28125 3.015625-2.359375 0-.78125-.625-1.421875-1.6875-1.53125 1.125-.203125 2.28125-1.015625 2.28125-2.046875 0-.8125-.71875-1.515625-2.03125-1.515625h-3.671875c-.203125 0-.3125 0-.3125.21875 0 .125.09375.125.3125.125.015625 0 .21875 0 .40625.015625.203125.03125.296875.03125.296875.171875 0 .046875-.015625.078125-.046875.21875zm1.640625-3.140625.671875-2.71875c.109375-.375.125-.40625.59375-.40625h1.40625c.96875 0 1.1875.640625 1.1875 1.125 0 .953125-.9375 2-2.265625 2zm-.484375 3.640625c-.15625 0-.1875 0-.25 0-.109375-.015625-.140625-.03125-.140625-.109375 0-.03125 0-.0625.0625-.25l.75-3.046875h2.0625c1.046875 0 1.25.8125 1.25 1.28125 0 1.078125-.96875 2.125-2.25 2.125zm0 0"/></symbol><symbol id="m" overflow="visible"><path d="m.359375 1.890625c-.03125.125-.03125.15625-.03125.171875 0 .15625.125.296875.296875.296875.234375 0 .375-.203125.390625-.234375.046875-.09375.40625-1.5625.703125-2.734375.21875.4375.5625.734375 1.078125.734375 1.265625 0 2.671875-1.546875 2.671875-3.171875 0-1.15625-.71875-1.78125-1.515625-1.78125-1.046875 0-2.203125 1.09375-2.53125 2.421875zm2.421875-2.015625c-.765625 0-.9375-.875-.9375-.96875 0-.046875.046875-.265625.09375-.40625.296875-1.21875.40625-1.609375.640625-2.046875.46875-.796875 1.015625-1.03125 1.359375-1.03125.40625 0 .75.3125.75 1.0625 0 .609375-.3125 1.828125-.609375 2.359375-.359375.6875-.875 1.03125-1.296875 1.03125zm0 0"/></symbol><symbol id="n" overflow="visible"><path d="m2.21875-.015625c0-.71875-.28125-1.140625-.703125-1.140625-.359375 0-.578125.265625-.578125.578125 0 .296875.21875.578125.578125.578125.125 0 .265625-.046875.375-.140625.046875-.015625.046875-.03125.0625-.03125s.015625.015625.015625.15625c0 .8125-.375 1.46875-.734375 1.828125-.125.125-.125.140625-.125.171875 0 .078125.0625.125.109375.125.125 0 1-.84375 1-2.125zm0 0"/></symbol><symbol id="o" overflow="visible"><path d="m2.65625 1.984375c.0625 0 .15625 0 .15625-.09375 0-.03125 0-.03125-.109375-.140625-1.09375-1.03125-1.359375-2.5-1.359375-3.734375 0-2.296875.9375-3.375 1.34375-3.75.125-.09375.125-.109375.125-.140625 0-.046875-.03125-.09375-.109375-.09375-.125 0-.53125.40625-.59375.46875-1.0625 1.125-1.28125 2.546875-1.28125 3.515625 0 1.78125.734375 3.21875 1.828125 3.96875zm0 0"/></symbol><symbol id="p" overflow="visible"><path d="m2.5-5.078125c0-.21875-.015625-.21875-.234375-.21875-.328125.3125-.75.5-1.5.5v.265625c.21875 0 .640625 0 1.109375-.203125v4.078125c0 .296875-.03125.390625-.78125.390625h-.28125v.265625c.328125-.03125 1.015625-.03125 1.375-.03125s1.046875 0 1.375.03125v-.265625h-.28125c-.75 0-.78125-.09375-.78125-.390625zm0 0"/></symbol><symbol id="q" overflow="visible"><path d="m2.640625-2.875c.453125-.21875 1-.609375 1-1.234375 0-.765625-.78125-1.1875-1.515625-1.1875-.84375 0-1.53125.578125-1.53125 1.328125 0 .296875.09375.5625.296875.796875.140625.171875.171875.1875.65625.5-.984375.4375-1.203125 1.015625-1.203125 1.453125 0 .890625.890625 1.390625 1.765625 1.390625.96875 0 1.765625-.671875 1.765625-1.515625 0-.5-.265625-.828125-.40625-.96875-.125-.125-.140625-.140625-.828125-.5625zm-1.234375-.75c-.234375-.140625-.421875-.375-.421875-.640625 0-.5.546875-.828125 1.125-.828125.609375 0 1.125.421875 1.125.984375 0 .453125-.359375.84375-.828125 1.078125zm.390625 1.09375c.03125.015625.9375.578125 1.078125.65625.125.078125.546875.328125.546875.8125 0 .609375-.65625.984375-1.296875.984375-.71875 0-1.3125-.484375-1.3125-1.140625 0-.59375.4375-1.0625.984375-1.3125zm0 0"/></symbol><symbol id="r" overflow="visible"><path d="m2.46875-1.984375c0-.765625-.140625-1.671875-.625-2.609375-.390625-.734375-1.125-1.375-1.265625-1.375-.078125 0-.09375.046875-.09375.09375 0 .03125 0 .046875.09375.140625 1.109375 1.0625 1.359375 2.515625 1.359375 3.75 0 2.28125-.9375 3.359375-1.34375 3.734375-.109375.09375-.109375.109375-.109375.140625 0 .046875.015625.09375.09375.09375.125 0 .53125-.40625.59375-.46875 1.0625-1.125 1.296875-2.546875 1.296875-3.5zm0 0"/></symbol><g><use x="2.609" xlink:href="#a" y="20.423"/><use x="8.336278" xlink:href="#b" y="20.423"/><use x="14.063555" xlink:href="#c" y="20.423"/><use x="19.790833" xlink:href="#d" y="20.423"/></g><use x="28.548" xlink:href="#f" y="20.423"/><use x="41.259" xlink:href="#l" y="13.043"/><g><use x="50.081" xlink:href="#o" y="9.084"/><use x="53.374245" xlink:href="#p" y="9.084"/><use x="57.608759" xlink:href="#q" y="9.084"/><use x="61.843274" xlink:href="#r" y="9.084"/></g><use x="65.634" xlink:href="#e" y="13.043"/><path d="m-.0011875.0006875h30.1015625" fill="none" stroke="#000" stroke-miterlimit="10" stroke-width=".436" transform="matrix(1 0 0 -1 41.259 17.696)"/><use x="49.079" xlink:href="#l" y="27.906"/><use x="57.899007" xlink:href="#m" y="27.906"/><use x="76.193" xlink:href="#n" y="20.423"/><g><use x="271.186" xlink:href="#g" y="19.294"/><use x="275.428549" xlink:href="#h" y="19.294"/><use x="280.883099" xlink:href="#i" y="19.294"/><use x="286.337649" xlink:href="#j" y="19.294"/><use x="291.792199" xlink:href="#k" y="19.294"/></g></svg>