<svg height="32pt" viewBox="0 0 389 32" width="389pt" xmlns="http://www.w3.org/2000/svg" xmlns:xlink="http://www.w3.org/1999/xlink"><symbol id="a" overflow="visible"><path d="m1.21875-2.75c.0625-1.625.984375-1.890625 1.359375-1.890625 1.125 0 1.234375 1.46875 1.234375 1.890625zm-.015625.234375h3.046875c.25 0 .28125 0 .28125-.234375 0-1.078125-.59375-2.140625-1.953125-2.140625-1.265625 0-2.265625 1.125-2.265625 2.484375 0 1.46875 1.140625 2.53125 2.390625 2.53125 1.328125 0 1.828125-1.21875 1.828125-1.421875 0-.109375-.09375-.125-.140625-.125-.109375 0-.125.0625-.140625.140625-.390625 1.125-1.375 1.125-1.484375 1.125-.546875 0-.984375-.328125-1.234375-.734375-.328125-.515625-.328125-1.234375-.328125-1.625zm0 0"/></symbol><symbol id="b" overflow="visible"><path d="m3.125-2.5625c.328125-.421875.75-.953125 1.015625-1.234375.328125-.390625.78125-.5625 1.296875-.5625v-.34375c-.296875.03125-.609375.03125-.90625.03125-.328125 0-.90625-.015625-1.046875-.03125v.34375c.234375.015625.328125.15625.328125.328125 0 .1875-.109375.328125-.171875.390625l-.671875.84375-.859375-1.09375c-.09375-.109375-.09375-.140625-.09375-.203125 0-.15625.171875-.265625.390625-.265625v-.34375c-.296875.015625-1.015625.03125-1.1875.03125-.21875 0-.734375 0-1.03125-.03125v.34375c.765625 0 .765625 0 1.28125.65625l1.078125 1.40625-1.015625 1.296875c-.53125.640625-1.171875.65625-1.40625.65625v.34375c.296875-.015625.625-.03125.90625-.03125.328125 0 .78125.015625 1.046875.03125v-.34375c-.25-.03125-.328125-.171875-.328125-.328125 0-.25.328125-.609375.984375-1.390625l.828125 1.09375c.09375.125.234375.296875.234375.359375 0 .09375-.09375.265625-.390625.265625v.34375c.328125-.015625.9375-.03125 1.171875-.03125.296875 0 .71875.015625 1.046875.03125v-.34375c-.59375 0-.78125-.015625-1.03125-.328125zm0 0"/></symbol><symbol id="c" overflow="visible"><path d="m1.875-4.09375v-.734375l-1.5625.125v.34375c.765625 0 .84375.0625.84375.546875v5.09375c0 .5-.125.5-.84375.5v.328125c.359375 0 .9375-.03125 1.21875-.03125.296875 0 .84375.03125 1.234375.03125v-.328125c-.734375 0-.859375 0-.859375-.5v-1.921875c.0625.171875.515625.765625 1.34375.765625 1.296875 0 2.4375-1.078125 2.4375-2.484375 0-1.375-1.0625-2.46875-2.28125-2.46875-.859375 0-1.3125.484375-1.53125.734375zm.03125 2.84375v-2.421875c.3125-.5625.859375-.875 1.40625-.875.796875 0 1.46875.953125 1.46875 2.1875 0 1.328125-.765625 2.234375-1.578125 2.234375-.4375 0-.84375-.21875-1.140625-.65625-.15625-.234375-.15625-.25-.15625-.46875zm0 0"/></symbol><symbol id="d" overflow="visible"><path d="m3.609375 2.625c0-.046875 0-.0625-.1875-.25-1.359375-1.375-1.703125-3.4375-1.703125-5.09375 0-1.90625.40625-3.796875 1.75-5.171875.140625-.125.140625-.140625.140625-.1875 0-.0625-.046875-.09375-.109375-.09375-.109375 0-1.09375.734375-1.734375 2.125-.5625 1.1875-.6875 2.40625-.6875 3.328125 0 .84375.125 2.15625.71875 3.390625.65625 1.34375 1.59375 2.046875 1.703125 2.046875.0625 0 .109375-.03125.109375-.09375zm0 0"/></symbol><symbol id="e" overflow="visible"><path d="m2.09375-4.125c0-.3125-.265625-.578125-.578125-.578125s-.578125.265625-.578125.578125.265625.578125.578125.578125.578125-.265625.578125-.578125zm0 3.546875c0-.3125-.265625-.578125-.578125-.578125s-.578125.265625-.578125.578125.265625.578125.578125.578125.578125-.265625.578125-.578125zm0 0"/></symbol><symbol id="f" overflow="visible"><path d="m3.15625-2.71875c0-.859375-.125-2.171875-.71875-3.40625-.65625-1.34375-1.59375-2.046875-1.703125-2.046875-.0625 0-.109375.03125-.109375.09375 0 .046875 0 .0625.203125.265625 1.0625 1.078125 1.6875 2.8125 1.6875 5.09375 0 1.859375-.40625 3.78125-1.75 5.15625-.140625.125-.140625.140625-.140625.1875 0 .0625.046875.09375.109375.09375.109375 0 1.09375-.734375 1.734375-2.125.546875-1.1875.6875-2.40625.6875-3.3125zm0 0"/></symbol><symbol id="g" overflow="visible"><path d="m7.5-3.5625c.15625 0 .359375 0 .359375-.21875s-.203125-.21875-.359375-.21875h-6.53125c-.15625 0-.359375 0-.359375.21875s.203125.21875.375.21875zm0 2.109375c.15625 0 .359375 0 .359375-.21875s-.203125-.21875-.359375-.21875h-6.515625c-.171875 0-.375 0-.375.21875s.203125.21875.359375.21875zm0 0"/></symbol><symbol id="h" overflow="visible"><path d="m3.203125-6.984375c0-.25 0-.28125-.25-.28125-.671875.703125-1.640625.703125-1.984375.703125v.328125c.21875 0 .859375 0 1.4375-.28125v5.65625c0 .390625-.046875.515625-1.015625.515625h-.359375v.34375c.390625-.03125 1.328125-.03125 1.765625-.03125s1.390625 0 1.765625.03125v-.34375h-.34375c-.984375 0-1.015625-.109375-1.015625-.515625zm0 0"/></symbol><symbol id="i" overflow="visible"><path d="m1.390625-.84375 1.15625-1.125c1.703125-1.5 2.34375-2.09375 2.34375-3.171875 0-1.25-.96875-2.125-2.3125-2.125-1.21875 0-2.03125 1-2.03125 1.96875 0 .625.546875.625.578125.625.1875 0 .5625-.140625.5625-.578125 0-.296875-.1875-.578125-.578125-.578125-.078125 0-.109375 0-.140625.015625.25-.703125.84375-1.109375 1.46875-1.109375 1 0 1.46875.875 1.46875 1.78125 0 .859375-.546875 1.734375-1.140625 2.40625l-2.09375 2.328125c-.125.125-.125.140625-.125.40625h4.046875l.296875-1.890625h-.265625c-.0625.3125-.125.796875-.234375.96875-.078125.078125-.796875.078125-1.046875.078125zm0 0"/></symbol><symbol id="j" overflow="visible"><path d="m3.203125-1.796875v.953125c0 .390625-.015625.5-.828125.5h-.21875v.34375c.4375-.03125 1-.03125 1.46875-.03125.453125 0 1.03125 0 1.484375.03125v-.34375h-.234375c-.8125 0-.828125-.109375-.828125-.5v-.953125h1.09375v-.34375h-1.09375v-4.953125c0-.21875 0-.296875-.171875-.296875-.09375 0-.140625 0-.21875.140625l-3.34375 5.109375v.34375zm.0625-.34375h-2.65625l2.65625-4.0625zm0 0"/></symbol><symbol id="k" overflow="visible"><path d="m4.453125-2.515625h3.046875c.15625 0 .359375 0 .359375-.203125 0-.21875-.203125-.21875-.359375-.21875h-3.046875v-3.0625c0-.15625 0-.359375-.203125-.359375-.21875 0-.21875.203125-.21875.359375v3.0625h-3.0625c-.15625 0-.359375 0-.359375.21875 0 .203125.203125.203125.359375.203125h3.0625v3.0625c0 .15625 0 .359375.21875.359375.203125 0 .203125-.203125.203125-.359375zm0 0"/></symbol><symbol id="l" overflow="visible"><path d="m1.4375-3.578125v-.265625c0-2.75 1.359375-3.140625 1.90625-3.140625.265625 0 .71875.0625.96875.4375-.171875 0-.609375 0-.609375.484375 0 .34375.265625.5.5.5.1875 0 .515625-.09375.515625-.515625 0-.65625-.484375-1.1875-1.390625-1.1875-1.390625 0-2.875 1.40625-2.875 3.8125 0 2.921875 1.265625 3.6875 2.28125 3.6875 1.21875 0 2.25-1.015625 2.25-2.453125 0-1.390625-.96875-2.4375-2.1875-2.4375-.734375 0-1.140625.5625-1.359375 1.078125zm1.296875 3.515625c-.6875 0-1.015625-.65625-1.078125-.828125-.1875-.5-.1875-1.375-.1875-1.578125 0-.84375.34375-1.9375 1.328125-1.9375.171875 0 .671875 0 1.015625.671875.1875.40625.1875.96875.1875 1.5 0 .515625 0 1.0625-.1875 1.453125-.328125.65625-.828125.71875-1.078125.71875zm0 0"/></symbol><symbol id="m" overflow="visible"><path d="m4.890625-2.1875c0-1.296875-.890625-2.390625-2.0625-2.390625-.53125 0-1 .171875-1.390625.546875v-2.125c.21875.078125.578125.140625.921875.140625 1.34375 0 2.109375-.984375 2.109375-1.125 0-.0625-.03125-.125-.109375-.125 0 0-.03125 0-.078125.03125-.21875.109375-.765625.3125-1.484375.3125-.4375 0-.9375-.0625-1.453125-.296875-.09375-.03125-.109375-.03125-.140625-.03125-.109375 0-.109375.078125-.109375.265625v3.21875c0 .203125 0 .28125.15625.28125.078125 0 .109375-.03125.140625-.09375.125-.171875.53125-.765625 1.40625-.765625.578125 0 .84375.5.9375.703125.171875.40625.1875.828125.1875 1.375 0 .375 0 1.03125-.25 1.484375-.265625.4375-.671875.71875-1.171875.71875-.796875 0-1.421875-.578125-1.609375-1.21875.03125 0 .0625.015625.1875.015625.359375 0 .546875-.265625.546875-.53125s-.1875-.53125-.546875-.53125c-.15625 0-.53125.078125-.53125.578125 0 .9375.75 1.984375 1.96875 1.984375 1.265625 0 2.375-1.046875 2.375-2.421875zm0 0"/></symbol><symbol id="n" overflow="visible"><path d="m5.015625-3.484375c0-.875-.046875-1.75-.4375-2.5625-.5-1.046875-1.390625-1.21875-1.859375-1.21875-.640625 0-1.4375.28125-1.890625 1.296875-.34375.75-.40625 1.609375-.40625 2.484375 0 .8125.046875 1.796875.5 2.625.46875.875 1.265625 1.09375 1.796875 1.09375.578125 0 1.421875-.21875 1.890625-1.265625.359375-.75.40625-1.59375.40625-2.453125zm-2.296875 3.484375c-.421875 0-1.078125-.265625-1.265625-1.3125-.125-.65625-.125-1.671875-.125-2.3125 0-.6875 0-1.40625.09375-2 .203125-1.296875 1.015625-1.40625 1.296875-1.40625.359375 0 1.078125.203125 1.28125 1.28125.109375.609375.109375 1.4375.109375 2.125 0 .828125 0 1.5625-.125 2.265625-.15625 1.03125-.78125 1.359375-1.265625 1.359375zm0 0"/></symbol><symbol id="o" overflow="visible"><path d="m6.84375-6.203125c.546875-.859375 1-.890625 1.40625-.90625.125-.015625.140625-.203125.140625-.203125 0-.09375-.0625-.140625-.140625-.140625-.28125 0-.609375.03125-.90625.03125-.359375 0-.71875-.03125-1.078125-.03125-.0625 0-.203125 0-.203125.21875 0 .109375.09375.125.171875.125.296875.015625.5.125.5.359375 0 .15625-.15625.40625-.15625.40625l-3.34375 5.328125-.75-5.765625c0-.1875.25-.328125.75-.328125.15625 0 .28125 0 .28125-.21875 0-.09375-.09375-.125-.15625-.125-.4375 0-.90625.03125-1.359375.03125-.1875 0-.390625 0-.59375 0s-.40625-.03125-.59375-.03125c-.078125 0-.203125 0-.203125.21875 0 .125.09375.125.28125.125.609375 0 .609375.09375.640625.375l.875 6.71875c.03125.21875.0625.25.21875.25.171875 0 .203125-.046875.296875-.1875zm0 0"/></symbol><symbol id="p" overflow="visible"><path d="m2.21875-.015625c0-.71875-.28125-1.140625-.703125-1.140625-.359375 0-.578125.265625-.578125.578125 0 .296875.21875.578125.578125.578125.125 0 .265625-.046875.375-.140625.046875-.015625.046875-.03125.0625-.03125s.015625.015625.015625.15625c0 .8125-.375 1.46875-.734375 1.828125-.125.125-.125.140625-.125.171875 0 .078125.0625.125.109375.125.125 0 1-.84375 1-2.125zm0 0"/></symbol><symbol id="q" overflow="visible"><path d="m.484375 1.328125c-.078125.375-.109375.453125-.578125.453125-.140625 0-.25 0-.25.203125 0 .09375.046875.125.140625.125.296875 0 .609375-.03125.90625-.03125.359375 0 .734375.03125 1.078125.03125.0625 0 .203125 0 .203125-.21875 0-.109375-.109375-.109375-.265625-.109375-.546875 0-.546875-.078125-.546875-.171875 0-.140625.46875-1.921875.546875-2.1875.140625.3125.4375.703125 1 .703125 1.265625 0 2.625-1.59375 2.625-3.203125 0-1.015625-.625-1.75-1.453125-1.75-.546875 0-1.0625.40625-1.421875.828125-.109375-.59375-.578125-.828125-.984375-.828125-.5 0-.703125.4375-.8125.625-.1875.375-.328125 1.03125-.328125 1.0625 0 .109375.109375.109375.125.109375.109375 0 .125-.015625.1875-.25.1875-.78125.40625-1.296875.796875-1.296875.1875 0 .328125.078125.328125.5 0 .25-.03125.375-.0625.5625zm1.921875-4.734375c.078125-.296875.375-.59375.578125-.765625.375-.328125.6875-.40625.875-.40625.4375 0 .703125.375.703125 1.015625 0 .65625-.359375 1.90625-.5625 2.3125-.375.765625-.890625 1.125-1.296875 1.125-.71875 0-.859375-.90625-.859375-.96875 0-.015625 0-.046875.03125-.171875zm0 0"/></symbol><symbol id="r" overflow="visible"><path d="m.359375 1.890625c-.03125.125-.03125.15625-.03125.171875 0 .15625.125.296875.296875.296875.234375 0 .375-.203125.390625-.234375.046875-.09375.40625-1.5625.703125-2.734375.21875.4375.5625.734375 1.078125.734375 1.265625 0 2.671875-1.546875 2.671875-3.171875 0-1.15625-.71875-1.78125-1.515625-1.78125-1.046875 0-2.203125 1.09375-2.53125 2.421875zm2.421875-2.015625c-.765625 0-.9375-.875-.9375-.96875 0-.046875.046875-.265625.09375-.40625.296875-1.21875.40625-1.609375.640625-2.046875.46875-.796875 1.015625-1.03125 1.359375-1.03125.40625 0 .75.3125.75 1.0625 0 .609375-.3125 1.828125-.609375 2.359375-.359375.6875-.875 1.03125-1.296875 1.03125zm0 0"/></symbol><symbol id="s" overflow="visible"><path d="m5.296875-4.15625c.046875-.15625.046875-.171875.046875-.25 0-.203125-.15625-.296875-.3125-.296875-.109375 0-.28125.0625-.390625.234375-.015625.046875-.109375.390625-.140625.59375-.078125.28125-.15625.578125-.21875.859375l-.5 1.96875c-.046875.15625-.515625.921875-1.234375.921875-.546875 0-.671875-.46875-.671875-.875 0-.5.1875-1.1875.5625-2.140625.171875-.453125.21875-.5625.21875-.78125 0-.5-.359375-.90625-.90625-.90625-1.03125 0-1.4375 1.59375-1.4375 1.6875 0 .109375.109375.109375.140625.109375.109375 0 .109375-.015625.171875-.203125.296875-1.015625.734375-1.34375 1.09375-1.34375.09375 0 .28125 0 .28125.34375 0 .28125-.109375.5625-.1875.765625-.4375 1.15625-.640625 1.78125-.640625 2.296875 0 .96875.6875 1.296875 1.34375 1.296875.421875 0 .78125-.1875 1.09375-.5-.140625.578125-.265625 1.109375-.703125 1.6875-.28125.359375-.703125.6875-1.203125.6875-.15625 0-.640625-.03125-.828125-.46875.171875 0 .3125 0 .46875-.125.109375-.09375.21875-.234375.21875-.453125 0-.328125-.296875-.375-.40625-.375-.25 0-.609375.171875-.609375.703125 0 .546875.484375.953125 1.15625.953125 1.125 0 2.25-.984375 2.546875-2.21875zm0 0"/></symbol><symbol id="t" overflow="visible"><path d="m7.1875-2.515625c.1875 0 .375 0 .375-.203125 0-.21875-.1875-.21875-.375-.21875h-5.90625c-.1875 0-.375 0-.375.21875 0 .203125.1875.203125.375.203125zm0 0"/></symbol><symbol id="u" overflow="visible"><path d="m7.640625 25.625c0-.046875-.03125-.078125-.046875-.109375-.40625-.40625-1.140625-1.125-1.875-2.3125-1.75-2.8125-2.546875-6.359375-2.546875-10.546875 0-2.9375.390625-6.71875 2.1875-9.96875.875-1.546875 1.765625-2.453125 2.25-2.921875.03125-.03125.03125-.0625.03125-.09375 0-.109375-.078125-.109375-.234375-.109375s-.171875 0-.34375.171875c-3.65625 3.3125-4.796875 8.3125-4.796875 12.90625 0 4.28125.984375 8.609375 3.75 11.859375.21875.25.640625.703125 1.078125 1.09375.140625.140625.15625.140625.3125.140625s.234375 0 .234375-.109375zm0 0"/></symbol><symbol id="v" overflow="visible"><path d="m5.75 12.65625c0-4.296875-.984375-8.609375-3.75-11.875-.21875-.25-.640625-.6875-1.078125-1.09375-.140625-.125-.15625-.125-.3125-.125-.125 0-.234375 0-.234375.109375 0 .046875.046875.09375.078125.109375.375.390625 1.109375 1.125 1.84375 2.296875 1.75 2.8125 2.546875 6.359375 2.546875 10.5625 0 2.9375-.390625 6.71875-2.1875 9.96875-.875 1.546875-1.765625 2.453125-2.234375 2.90625-.015625.03125-.046875.078125-.046875.109375 0 .109375.109375.109375.234375.109375.15625 0 .171875 0 .34375-.171875 3.65625-3.328125 4.796875-8.3125 4.796875-12.90625zm0 0"/></symbol><symbol id="w" overflow="visible"><path d="m1.859375-3h1.484375c0 .453125 0 .625.390625.625.359375 0 .359375-.25.359375-.453125v-1.015625c0-.203125 0-.4375-.359375-.4375-.390625 0-.390625.171875-.390625.609375h-1.484375v-2.328125h2.734375v.578125c0 .203125 0 .453125.375.453125s.375-.234375.375-.453125v-.796875c0-.328125-.0625-.4375-.4375-.4375h-4.15625c-.171875 0-.4375 0-.4375.328125s.28125.328125.4375.328125h.359375v5.328125h-.359375c-.171875 0-.4375 0-.4375.34375 0 .328125.28125.328125.4375.328125h1.6875c.15625 0 .4375 0 .4375-.328125 0-.34375-.265625-.34375-.4375-.34375h-.578125zm0 0"/></symbol><symbol id="x" overflow="visible"><path d="m3.390625-6.34375c0-.171875 0-.4375-.328125-.4375-.203125 0-.265625.125-.328125.265625-.40625.921875-.984375 1.046875-1.1875 1.0625-.171875.015625-.40625.03125-.40625.34375 0 .265625.203125.328125.359375.328125.21875 0 .65625-.078125 1.140625-.484375v4.59375h-1c-.171875 0-.4375 0-.4375.34375 0 .328125.28125.328125.4375.328125h2.75c.15625 0 .4375 0 .4375-.328125 0-.34375-.265625-.34375-.4375-.34375h-1zm0 0"/></symbol><symbol id="y" overflow="visible"><path d="m2.25-1.625c.125-.125.453125-.390625.59375-.5.484375-.453125.953125-.890625.953125-1.609375 0-.953125-.796875-1.5625-1.78125-1.5625-.96875 0-1.59375.71875-1.59375 1.4375 0 .390625.3125.4375.421875.4375.171875 0 .421875-.109375.421875-.421875 0-.40625-.40625-.40625-.5-.40625.234375-.59375.765625-.78125 1.15625-.78125.734375 0 1.125.625 1.125 1.296875 0 .828125-.578125 1.4375-1.53125 2.390625l-1 1.046875c-.09375.078125-.09375.09375-.09375.296875h3.140625l.234375-1.421875h-.25c-.015625.15625-.078125.546875-.171875.703125-.046875.0625-.65625.0625-.78125.0625h-1.421875zm0 0"/></symbol><symbol id="z" overflow="visible"><path d="m3.140625-5.15625c0-.15625 0-.21875-.171875-.21875-.09375 0-.109375 0-.1875.109375l-2.546875 3.703125v.25h2.25v.671875c0 .296875-.015625.375-.640625.375h-.171875v.265625c.671875-.03125.6875-.03125 1.140625-.03125s.46875 0 1.140625.03125v-.265625h-.171875c-.625 0-.640625-.078125-.640625-.375v-.671875h.84375v-.25h-.84375zm-.59375.640625v2.953125h-2.03125zm0 0"/></symbol><symbol id="A" overflow="visible"><path d="m1.9375-5.296875c.015625-.015625.03125-.109375.03125-.125 0-.03125-.03125-.109375-.125-.109375-.03125 0-.28125.03125-.453125.046875l-.453125.03125c-.171875.015625-.25.015625-.25.15625 0 .125.109375.125.203125.125.390625 0 .390625.046875.390625.109375 0 .046875-.09375.375-.140625.546875l-.6875 2.78125c-.0625.265625-.0625.390625-.0625.515625 0 .828125.5 1.296875 1.109375 1.296875.984375 0 2-1.125 2-2.28125 0-.796875-.5-1.3125-1.140625-1.3125-.453125 0-.796875.28125-.96875.4375zm-.4375 5.15625c-.28125 0-.5625-.21875-.5625-.8125 0-.203125.03125-.40625.125-.796875.046875-.21875.109375-.453125.171875-.6875.046875-.140625.046875-.15625.140625-.265625.265625-.34375.625-.59375.953125-.59375.40625 0 .5625.390625.5625.75 0 .296875-.1875 1.15625-.421875 1.625-.203125.421875-.59375.78125-.96875.78125zm0 0"/></symbol><symbol id="B" overflow="visible"><path d="m4-3.171875c-.359375.078125-.375.390625-.375.421875 0 .171875.140625.296875.3125.296875s.4375-.140625.4375-.484375c0-.453125-.5-.578125-.796875-.578125-.359375 0-.671875.265625-.859375.578125-.171875-.421875-.578125-.578125-.90625-.578125-.875 0-1.359375 1-1.359375 1.21875 0 .078125.0625.109375.125.109375.09375 0 .109375-.046875.125-.140625.1875-.578125.671875-.96875 1.078125-.96875.3125 0 .46875.234375.46875.515625 0 .15625-.09375.53125-.15625.78125-.0625.234375-.234375.9375-.28125 1.09375-.109375.421875-.390625.765625-.75.765625-.03125 0-.234375 0-.40625-.109375.359375-.09375.359375-.421875.359375-.4375 0-.1875-.140625-.296875-.3125-.296875-.21875 0-.453125.1875-.453125.484375 0 .375.390625.578125.796875.578125.421875 0 .71875-.3125.859375-.578125.1875.390625.546875.578125.9375.578125.859375 0 1.34375-1 1.34375-1.21875 0-.078125-.0625-.109375-.125-.109375-.09375 0-.109375.0625-.140625.140625-.15625.53125-.609375.96875-1.0625.96875-.265625 0-.453125-.171875-.453125-.515625 0-.15625.046875-.34375.15625-.78125.046875-.25.21875-.9375.265625-1.09375.109375-.421875.390625-.765625.75-.765625.046875 0 .25 0 .421875.125zm0 0"/></symbol><g><use x="3.103" xlink:href="#a" y="20.582"/><use x="7.951004" xlink:href="#b" y="20.582"/><use x="13.708827" xlink:href="#c" y="20.582"/><use x="19.769923" xlink:href="#d" y="20.582"/><use x="24.012472" xlink:href="#e" y="20.582"/></g><use x="30.072" xlink:href="#o" y="20.582"/><g><use x="41.891" xlink:href="#e" y="20.582"/><use x="44.921548" xlink:href="#f" y="20.582"/></g><use x="49.163" xlink:href="#p" y="20.582"/><use x="75.833568" xlink:href="#o" y="20.582"/><use x="87.648" xlink:href="#g" y="20.582"/><use x="99.163" xlink:href="#t" y="20.582"/><use x="108.861" xlink:href="#h" y="13.202"/><path d="m-.00025-.00046875h5.488281" fill="none" stroke="#000" stroke-miterlimit="10" stroke-width=".436" transform="matrix(1 0 0 -1 108.844 17.855)"/><use x="108.844" xlink:href="#q" y="28.065"/><use x="117.346" xlink:href="#u" y="5.2"/><g><use x="128.813" xlink:href="#w" y="13.202"/><use x="134.540278" xlink:href="#x" y="13.202"/></g><use x="140.268" xlink:href="#y" y="9.243"/><path d="m-.0016875-.00046875h20.6718745" fill="none" stroke="#000" stroke-miterlimit="10" stroke-width=".436" transform="matrix(1 0 0 -1 126.572 17.855)"/><g><use x="126.572" xlink:href="#i" y="28.065"/><use x="132.02655" xlink:href="#j" y="28.065"/></g><use x="137.481" xlink:href="#r" y="28.065"/><use x="143.121" xlink:href="#A" y="29.842"/><use x="148.437" xlink:href="#q" y="20.582"/><use x="153.926" xlink:href="#B" y="22.218"/><use x="161.615" xlink:href="#t" y="20.582"/><g><use x="178.328" xlink:href="#w" y="13.202"/><use x="184.055277" xlink:href="#x" y="13.202"/></g><path d="m-.00125-.00046875h20.671875" fill="none" stroke="#000" stroke-miterlimit="10" stroke-width=".436" transform="matrix(1 0 0 -1 173.72 17.855)"/><g><use x="173.72" xlink:href="#h" y="28.065"/><use x="179.17455" xlink:href="#i" y="28.065"/></g><use x="184.629" xlink:href="#r" y="28.065"/><use x="190.269" xlink:href="#A" y="29.842"/><use x="195.585" xlink:href="#s" y="20.582"/><use x="201.325" xlink:href="#y" y="16.078"/><use x="208.482" xlink:href="#k" y="20.582"/><use x="230.809" xlink:href="#s" y="13.202"/><use x="236.549" xlink:href="#z" y="9.243"/><path d="m-.0000625-.00046875h30.9179685" fill="none" stroke="#000" stroke-miterlimit="10" stroke-width=".436" transform="matrix(1 0 0 -1 220.586 17.855)"/><use x="220.586" xlink:href="#l" y="28.276"/><g><use x="226.041" xlink:href="#w" y="28.276"/><use x="231.768277" xlink:href="#x" y="28.276"/></g><use x="241.132" xlink:href="#r" y="28.276"/><use x="246.772" xlink:href="#y" y="24.518"/><use x="246.772" xlink:href="#A" y="31.798"/><use x="252.7" xlink:href="#v" y="5.2"/><g><use x="367.64" xlink:href="#d" y="20.68"/><use x="371.882549" xlink:href="#m" y="20.68"/><use x="377.337099" xlink:href="#n" y="20.68"/><use x="382.791649" xlink:href="#f" y="20.68"/></g></svg>