<svg height="263pt" viewBox="0 0 403 263" width="403pt" xmlns="http://www.w3.org/2000/svg" xmlns:xlink="http://www.w3.org/1999/xlink"><symbol id="a" overflow="visible"><path d="m.484375 1.328125c-.078125.375-.109375.453125-.578125.453125-.140625 0-.25 0-.25.203125 0 .09375.046875.125.140625.125.296875 0 .609375-.03125.90625-.03125.359375 0 .734375.03125 1.078125.03125.0625 0 .203125 0 .203125-.21875 0-.109375-.109375-.109375-.265625-.109375-.546875 0-.546875-.078125-.546875-.171875 0-.140625.46875-1.921875.546875-2.1875.140625.3125.4375.703125 1 .703125 1.265625 0 2.625-1.59375 2.625-3.203125 0-1.015625-.625-1.75-1.453125-1.75-.546875 0-1.0625.40625-1.421875.828125-.109375-.59375-.578125-.828125-.984375-.828125-.5 0-.703125.4375-.8125.625-.1875.375-.328125 1.03125-.328125 1.0625 0 .109375.109375.109375.125.109375.109375 0 .125-.015625.1875-.25.1875-.78125.40625-1.296875.796875-1.296875.1875 0 .328125.078125.328125.5 0 .25-.03125.375-.0625.5625zm1.921875-4.734375c.078125-.296875.375-.59375.578125-.765625.375-.328125.6875-.40625.875-.40625.4375 0 .703125.375.703125 1.015625 0 .65625-.359375 1.90625-.5625 2.3125-.375.765625-.890625 1.125-1.296875 1.125-.71875 0-.859375-.90625-.859375-.96875 0-.015625 0-.046875.03125-.171875zm0 0"/></symbol><symbol id="b" overflow="visible"><path d="m.359375 1.890625c-.03125.125-.03125.15625-.03125.171875 0 .15625.125.296875.296875.296875.234375 0 .375-.203125.390625-.234375.046875-.09375.40625-1.5625.703125-2.734375.21875.4375.5625.734375 1.078125.734375 1.265625 0 2.671875-1.546875 2.671875-3.171875 0-1.15625-.71875-1.78125-1.515625-1.78125-1.046875 0-2.203125 1.09375-2.53125 2.421875zm2.421875-2.015625c-.765625 0-.9375-.875-.9375-.96875 0-.046875.046875-.265625.09375-.40625.296875-1.21875.40625-1.609375.640625-2.046875.46875-.796875 1.015625-1.03125 1.359375-1.03125.40625 0 .75.3125.75 1.0625 0 .609375-.3125 1.828125-.609375 2.359375-.359375.6875-.875 1.03125-1.296875 1.03125zm0 0"/></symbol><symbol id="c" overflow="visible"><path d="m5.25-7.28125c.015625-.046875.046875-.109375.046875-.171875 0-.109375-.078125-.109375-.140625-.109375-.109375 0-.125.015625-.15625.21875l-1.8125 7.203125c-.828125-.09375-1.25-.5-1.25-1.21875 0-.21875 0-.5.59375-2.03125.046875-.125.125-.3125.125-.53125 0-.5-.359375-.90625-.90625-.90625-1.03125 0-1.4375 1.59375-1.4375 1.6875 0 .109375.109375.109375.140625.109375.109375 0 .109375-.015625.171875-.203125.296875-1.03125.734375-1.34375 1.09375-1.34375.09375 0 .28125 0 .28125.34375 0 .28125-.109375.5625-.25.9375-.53125 1.375-.53125 1.65625-.53125 1.84375 0 1.03125.859375 1.484375 1.90625 1.546875-.09375.390625-.09375.421875-.25 1-.03125.109375-.25 1-.25 1.03125 0 .015625 0 .109375.140625.109375.015625 0 .0625 0 .09375-.046875.03125-.015625.09375-.296875.125-.4375l.421875-1.625c.40625 0 1.359375 0 2.390625-1.171875.4375-.5.671875-.984375.796875-1.3125.09375-.265625.328125-1.21875.328125-1.703125 0-.609375-.296875-.765625-.46875-.765625-.28125 0-.546875.296875-.546875.53125 0 .140625.0625.203125.15625.296875.125.125.390625.40625.390625.921875 0 .703125-.5625 1.59375-.953125 1.984375-.953125.96875-1.65625.96875-2.046875.96875zm0 0"/></symbol><symbol id="d" overflow="visible"><path d="m6.59375-4.0625c0-.484375-.1875-.765625-.4375-.765625-.28125 0-.578125.265625-.578125.515625 0 .109375.0625.234375.171875.328125.1875.171875.375.46875.375.921875 0 .4375-.203125 1.0625-.546875 1.5625-.328125.46875-.71875.828125-1.234375.828125-.625 0-.96875-.390625-1.0625-.96875.125-.296875.375-.984375.375-1.296875 0-.125-.0625-.234375-.203125-.234375-.078125 0-.203125.015625-.296875.1875-.109375.21875-.25.921875-.25 1.3125-.359375.515625-.796875 1-1.484375 1-.71875 0-.9375-.640625-.9375-1.25 0-1.359375 1.109375-2.5 1.109375-2.640625 0-.125-.09375-.21875-.203125-.21875-.140625 0-.21875.140625-.296875.25-.546875.796875-.96875 2.09375-.96875 3.09375 0 .75.25 1.5625 1.15625 1.5625.765625 0 1.28125-.546875 1.671875-1.15625.09375.640625.53125 1.15625 1.203125 1.15625.84375 0 1.375-.671875 1.765625-1.484375.265625-.53125.671875-2.015625.671875-2.703125zm0 0"/></symbol><symbol id="e" overflow="visible"><path d="m3.640625-3.296875c.0625-.28125.3125-1.28125 1.078125-1.28125.0625 0 .3125 0 .546875.140625-.296875.046875-.515625.328125-.515625.59375 0 .171875.109375.375.40625.375.25 0 .59375-.203125.59375-.625 0-.578125-.640625-.734375-1.015625-.734375-.640625 0-1.015625.578125-1.140625.84375-.28125-.734375-.875-.84375-1.1875-.84375-1.125 0-1.75 1.421875-1.75 1.6875 0 .109375.109375.109375.125.109375.09375 0 .125-.015625.140625-.125.375-1.15625 1.09375-1.421875 1.46875-1.421875.203125 0 .59375.09375.59375.734375 0 .328125-.1875 1.0625-.59375 2.59375-.171875.671875-.5625 1.125-1.03125 1.125-.078125 0-.328125 0-.546875-.140625.265625-.046875.5-.28125.5-.578125s-.234375-.390625-.390625-.390625c-.328125 0-.609375.28125-.609375.640625 0 .5.546875.71875 1.03125.71875.71875 0 1.109375-.765625 1.140625-.828125.140625.390625.53125.828125 1.1875.828125 1.109375 0 1.734375-1.40625 1.734375-1.6875 0-.109375-.09375-.109375-.125-.109375-.09375 0-.125.046875-.140625.125-.359375 1.171875-1.109375 1.421875-1.453125 1.421875-.421875 0-.59375-.34375-.59375-.71875 0-.234375.0625-.46875.171875-.953125zm0 0"/></symbol><symbol id="f" overflow="visible"><path d="m2.21875-.015625c0-.71875-.28125-1.140625-.703125-1.140625-.359375 0-.578125.265625-.578125.578125 0 .296875.21875.578125.578125.578125.125 0 .265625-.046875.375-.140625.046875-.015625.046875-.03125.0625-.03125s.015625.015625.015625.15625c0 .8125-.375 1.46875-.734375 1.828125-.125.125-.125.140625-.125.171875 0 .078125.0625.125.109375.125.125 0 1-.84375 1-2.125zm0 0"/></symbol><symbol id="g" overflow="visible"><path d="m5.296875-4.15625c.046875-.15625.046875-.171875.046875-.25 0-.203125-.15625-.296875-.3125-.296875-.109375 0-.28125.0625-.390625.234375-.015625.046875-.109375.390625-.140625.59375-.078125.28125-.15625.578125-.21875.859375l-.5 1.96875c-.046875.15625-.515625.921875-1.234375.921875-.546875 0-.671875-.46875-.671875-.875 0-.5.1875-1.1875.5625-2.140625.171875-.453125.21875-.5625.21875-.78125 0-.5-.359375-.90625-.90625-.90625-1.03125 0-1.4375 1.59375-1.4375 1.6875 0 .109375.109375.109375.140625.109375.109375 0 .109375-.015625.171875-.203125.296875-1.015625.734375-1.34375 1.09375-1.34375.09375 0 .28125 0 .28125.34375 0 .28125-.109375.5625-.1875.765625-.4375 1.15625-.640625 1.78125-.640625 2.296875 0 .96875.6875 1.296875 1.34375 1.296875.421875 0 .78125-.1875 1.09375-.5-.140625.578125-.265625 1.109375-.703125 1.6875-.28125.359375-.703125.6875-1.203125.6875-.15625 0-.640625-.03125-.828125-.46875.171875 0 .3125 0 .46875-.125.109375-.09375.21875-.234375.21875-.453125 0-.328125-.296875-.375-.40625-.375-.25 0-.609375.171875-.609375.703125 0 .546875.484375.953125 1.15625.953125 1.125 0 2.25-.984375 2.546875-2.21875zm0 0"/></symbol><symbol id="h" overflow="visible"><path d="m4.265625-4.078125c-.3125.015625-.53125.25-.53125.484375 0 .15625.109375.328125.34375.328125s.5-.1875.5-.609375c0-.5-.46875-.953125-1.296875-.953125-1.4375 0-1.84375 1.125-1.84375 1.59375 0 .859375.8125 1.015625 1.125 1.078125.5625.109375 1.140625.234375 1.140625.84375 0 .28125-.25 1.1875-1.5625 1.1875-.15625 0-1 0-1.25-.578125.421875.0625.6875-.265625.6875-.578125 0-.25-.171875-.375-.40625-.375-.28125 0-.609375.234375-.609375.71875 0 .625.625 1.0625 1.5625 1.0625 1.765625 0 2.1875-1.328125 2.1875-1.8125 0-.390625-.203125-.671875-.328125-.796875-.296875-.3125-.609375-.359375-1.09375-.453125-.390625-.09375-.828125-.171875-.828125-.65625 0-.328125.265625-.984375 1.21875-.984375.28125 0 .8125.078125.984375.5zm0 0"/></symbol><symbol id="i" overflow="visible"><path d="m1.453125-.90625c.59375-.625.90625-.90625 1.296875-1.25 0 0 .671875-.578125 1.0625-.96875 1.046875-1.015625 1.28125-1.546875 1.28125-1.59375 0-.109375-.09375-.109375-.125-.109375-.078125 0-.109375.03125-.15625.125-.328125.53125-.5625.703125-.828125.703125-.25 0-.390625-.171875-.546875-.359375-.203125-.25-.390625-.46875-.75-.46875-.828125 0-1.328125 1.015625-1.328125 1.25 0 .0625.03125.125.140625.125.09375 0 .109375-.0625.140625-.125.203125-.5.828125-.515625.921875-.515625.234375 0 .4375.078125.6875.171875.4375.15625.5625.15625.84375.15625-.390625.46875-1.3125 1.25-1.515625 1.4375l-.984375.90625c-.75.734375-1.125 1.359375-1.125 1.4375 0 .109375.109375.109375.125.109375.09375 0 .109375-.03125.1875-.140625.25-.390625.578125-.6875.921875-.6875.25 0 .359375.109375.625.421875.1875.234375.390625.40625.703125.40625 1.078125 0 1.71875-1.390625 1.71875-1.6875 0-.046875-.046875-.109375-.140625-.109375s-.109375.0625-.15625.140625c-.25.71875-.9375.921875-1.296875.921875-.21875 0-.421875-.0625-.640625-.140625-.375-.140625-.546875-.1875-.765625-.1875-.03125 0-.203125 0-.296875.03125zm0 0"/></symbol><symbol id="j" overflow="visible"><path d="m5.109375-4.0625c0-.578125-.28125-.765625-.484375-.765625-.265625 0-.53125.296875-.53125.53125 0 .140625.046875.203125.171875.328125.234375.21875.375.5.375.890625 0 .453125-.671875 2.953125-1.953125 2.953125-.546875 0-.796875-.375-.796875-.9375 0-.609375.296875-1.40625.625-2.3125.078125-.1875.140625-.34375.140625-.546875 0-.5-.359375-.90625-.90625-.90625-1.015625 0-1.4375 1.59375-1.4375 1.6875 0 .109375.109375.109375.140625.109375.109375 0 .109375-.015625.171875-.203125.3125-1.09375.78125-1.34375 1.09375-1.34375.09375 0 .28125 0 .28125.34375 0 .28125-.109375.5625-.1875.765625-.484375 1.265625-.625 1.765625-.625 2.234375 0 1.1875.96875 1.359375 1.46875 1.359375 1.828125 0 2.453125-3.609375 2.453125-4.1875zm0 0"/></symbol><symbol id="k" overflow="visible"><path d="m4.078125-6.59375c.09375-.390625.125-.515625 1.15625-.515625.328125 0 .421875 0 .421875-.203125 0-.140625-.125-.140625-.1875-.140625-.359375 0-1.25.03125-1.609375.03125-.328125 0-1.125-.03125-1.453125-.03125-.078125 0-.203125 0-.203125.21875 0 .125.09375.125.3125.125.015625 0 .21875 0 .40625.015625.203125.03125.296875.03125.296875.171875 0 .046875-.015625.078125-.046875.21875l-1.453125 5.859375c-.109375.421875-.140625.5-1 .5-.1875 0-.296875 0-.296875.21875 0 .125.109375.125.296875.125h5.046875c.265625 0 .28125 0 .34375-.1875l.859375-2.359375c.046875-.109375.046875-.140625.046875-.140625 0-.046875-.03125-.125-.140625-.125-.09375 0-.109375.046875-.171875.234375-.375 1-.859375 2.234375-2.75 2.234375h-1.015625c-.15625 0-.171875 0-.25 0-.109375-.015625-.140625-.03125-.140625-.109375 0-.03125 0-.0625.0625-.25zm0 0"/></symbol><symbol id="l" overflow="visible"><path d="m2.09375-.578125c0-.3125-.265625-.578125-.578125-.578125s-.578125.265625-.578125.578125.265625.578125.578125.578125.578125-.265625.578125-.578125zm0 0"/></symbol><symbol id="m" overflow="visible"><path d="m4-3.171875c-.359375.078125-.375.390625-.375.421875 0 .171875.140625.296875.3125.296875s.4375-.140625.4375-.484375c0-.453125-.5-.578125-.796875-.578125-.359375 0-.671875.265625-.859375.578125-.171875-.421875-.578125-.578125-.90625-.578125-.875 0-1.359375 1-1.359375 1.21875 0 .078125.0625.109375.125.109375.09375 0 .109375-.046875.125-.140625.1875-.578125.671875-.96875 1.078125-.96875.3125 0 .46875.234375.46875.515625 0 .15625-.09375.53125-.15625.78125-.0625.234375-.234375.9375-.28125 1.09375-.109375.421875-.390625.765625-.75.765625-.03125 0-.234375 0-.40625-.109375.359375-.09375.359375-.421875.359375-.4375 0-.1875-.140625-.296875-.3125-.296875-.21875 0-.453125.1875-.453125.484375 0 .375.390625.578125.796875.578125.421875 0 .71875-.3125.859375-.578125.1875.390625.546875.578125.9375.578125.859375 0 1.34375-1 1.34375-1.21875 0-.078125-.0625-.109375-.125-.109375-.09375 0-.109375.0625-.140625.140625-.15625.53125-.609375.96875-1.0625.96875-.265625 0-.453125-.171875-.453125-.515625 0-.15625.046875-.34375.15625-.78125.046875-.25.21875-.9375.265625-1.09375.109375-.421875.390625-.765625.75-.765625.046875 0 .25 0 .421875.125zm0 0"/></symbol><symbol id="n" overflow="visible"><path d="m1.9375-5.296875c.015625-.015625.03125-.109375.03125-.125 0-.03125-.03125-.109375-.125-.109375-.03125 0-.28125.03125-.453125.046875l-.453125.03125c-.171875.015625-.25.015625-.25.15625 0 .125.109375.125.203125.125.390625 0 .390625.046875.390625.109375 0 .046875-.09375.375-.140625.546875l-.6875 2.78125c-.0625.265625-.0625.390625-.0625.515625 0 .828125.5 1.296875 1.109375 1.296875.984375 0 2-1.125 2-2.28125 0-.796875-.5-1.3125-1.140625-1.3125-.453125 0-.796875.28125-.96875.4375zm-.4375 5.15625c-.28125 0-.5625-.21875-.5625-.8125 0-.203125.03125-.40625.125-.796875.046875-.21875.109375-.453125.171875-.6875.046875-.140625.046875-.15625.140625-.265625.265625-.34375.625-.59375.953125-.59375.40625 0 .5625.390625.5625.75 0 .296875-.1875 1.15625-.421875 1.625-.203125.421875-.59375.78125-.96875.78125zm0 0"/></symbol><symbol id="o" overflow="visible"><path d="m1.15625-.6875c.28125-.296875.375-.390625 1.078125-.96875.078125-.078125.640625-.53125.859375-.75.5-.484375.8125-.921875.8125-1.015625 0-.0625-.0625-.09375-.125-.09375-.078125 0-.078125.015625-.15625.140625-.25.359375-.421875.421875-.578125.421875-.140625 0-.234375-.0625-.40625-.21875-.203125-.203125-.359375-.34375-.609375-.34375-.640625 0-1.046875.71875-1.046875.9375 0 0 0 .09375.125.09375.078125 0 .109375-.03125.140625-.125.09375-.234375.4375-.3125.671875-.3125.1875 0 .375.046875.578125.109375.328125.09375.40625.09375.578125.09375-.15625.171875-.390625.390625-1 .890625-.328125.28125-.671875.546875-.890625.765625-.578125.578125-.84375.96875-.84375 1.046875s.0625.09375.125.09375c.078125 0 .09375-.015625.140625-.078125.15625-.234375.40625-.484375.703125-.484375.1875 0 .265625.0625.421875.21875.25.25.390625.34375.625.34375.828125 0 1.328125-.984375 1.328125-1.234375 0-.078125-.046875-.109375-.125-.109375s-.09375.046875-.125.140625c-.15625.390625-.59375.609375-.984375.609375-.15625 0-.328125-.046875-.578125-.109375-.328125-.078125-.40625-.078125-.53125-.078125-.078125 0-.125 0-.1875.015625zm0 0"/></symbol><symbol id="p" overflow="visible"><path d="m4.125-3c.03125-.109375.03125-.125.03125-.1875 0-.203125-.15625-.25-.25-.25-.046875 0-.21875.015625-.328125.21875-.015625.046875-.09375.328125-.125.5l-.484375 1.90625c0 .03125-.34375.671875-.921875.671875-.390625 0-.53125-.296875-.53125-.640625 0-.46875.265625-1.171875.453125-1.640625.078125-.203125.109375-.265625.109375-.421875 0-.4375-.359375-.671875-.71875-.671875-.796875 0-1.125 1.125-1.125 1.21875 0 .078125.0625.109375.125.109375.109375 0 .109375-.046875.140625-.125.203125-.703125.546875-.984375.828125-.984375.125 0 .1875.078125.1875.265625 0 .171875-.0625.359375-.109375.5-.328125.84375-.46875 1.25-.46875 1.625 0 .78125.59375.984375 1.0625.984375.375 0 .640625-.171875.84375-.34375-.125.4375-.203125.75-.5 1.140625-.265625.3125-.578125.53125-.9375.53125-.140625 0-.4375-.03125-.59375-.265625.421875-.03125.453125-.390625.453125-.4375 0-.1875-.15625-.296875-.3125-.296875-.1875 0-.453125.140625-.453125.53125 0 .375.34375.6875.90625.6875.8125 0 1.71875-.65625 1.96875-1.609375zm0 0"/></symbol><symbol id="q" overflow="visible"><path d="m2.25-1.625c.125-.125.453125-.390625.59375-.5.484375-.453125.953125-.890625.953125-1.609375 0-.953125-.796875-1.5625-1.78125-1.5625-.96875 0-1.59375.71875-1.59375 1.4375 0 .390625.3125.4375.421875.4375.171875 0 .421875-.109375.421875-.421875 0-.40625-.40625-.40625-.5-.40625.234375-.59375.765625-.78125 1.15625-.78125.734375 0 1.125.625 1.125 1.296875 0 .828125-.578125 1.4375-1.53125 2.390625l-1 1.046875c-.09375.078125-.09375.09375-.09375.296875h3.140625l.234375-1.421875h-.25c-.015625.15625-.078125.546875-.171875.703125-.046875.0625-.65625.0625-.78125.0625h-1.421875zm0 0"/></symbol><symbol id="r" overflow="visible"><path d="m3.890625-2.546875c0-.84375-.078125-1.359375-.34375-1.875-.34375-.703125-1-.875-1.4375-.875-1 0-1.375.75-1.484375.96875-.28125.578125-.296875 1.375-.296875 1.78125 0 .53125.015625 1.328125.40625 1.96875.359375.59375.953125.75 1.375.75.390625 0 1.0625-.125 1.46875-.90625.296875-.578125.3125-1.296875.3125-1.8125zm-1.78125 2.484375c-.265625 0-.8125-.125-.984375-.953125-.09375-.453125-.09375-1.203125-.09375-1.625 0-.546875 0-1.109375.09375-1.546875.171875-.8125.78125-.890625.984375-.890625.265625 0 .828125.140625.984375.859375.09375.4375.09375 1.046875.09375 1.578125 0 .46875 0 1.1875-.09375 1.640625-.171875.828125-.71875.9375-.984375.9375zm0 0"/></symbol><symbol id="s" overflow="visible"><path d="m2.5-5.078125c0-.21875-.015625-.21875-.234375-.21875-.328125.3125-.75.5-1.5.5v.265625c.21875 0 .640625 0 1.109375-.203125v4.078125c0 .296875-.03125.390625-.78125.390625h-.28125v.265625c.328125-.03125 1.015625-.03125 1.375-.03125s1.046875 0 1.375.03125v-.265625h-.28125c-.75 0-.78125-.09375-.78125-.390625zm0 0"/></symbol><symbol id="t" overflow="visible"><path d="m7.5-3.5625c.15625 0 .359375 0 .359375-.21875s-.203125-.21875-.359375-.21875h-6.53125c-.15625 0-.359375 0-.359375.21875s.203125.21875.375.21875zm0 2.109375c.15625 0 .359375 0 .359375-.21875s-.203125-.21875-.359375-.21875h-6.515625c-.171875 0-.375 0-.375.21875s.203125.21875.359375.21875zm0 0"/></symbol><symbol id="u" overflow="visible"><path d="m3.609375 2.625c0-.046875 0-.0625-.1875-.25-1.359375-1.375-1.703125-3.4375-1.703125-5.09375 0-1.90625.40625-3.796875 1.75-5.171875.140625-.125.140625-.140625.140625-.1875 0-.0625-.046875-.09375-.109375-.09375-.109375 0-1.09375.734375-1.734375 2.125-.5625 1.1875-.6875 2.40625-.6875 3.328125 0 .84375.125 2.15625.71875 3.390625.65625 1.34375 1.59375 2.046875 1.703125 2.046875.0625 0 .109375-.03125.109375-.09375zm0 0"/></symbol><symbol id="v" overflow="visible"><path d="m2.265625-2.109375c.25.03125 1.140625.21875 1.140625 1 0 .546875-.390625.984375-1.234375.984375-.921875 0-1.3125-.609375-1.515625-1.546875-.03125-.140625-.046875-.1875-.15625-.1875-.140625 0-.140625.078125-.140625.28125v1.4375c0 .1875 0 .265625.125.265625.046875 0 .0625-.015625.265625-.21875.03125-.03125.03125-.046875.21875-.25.484375.453125.96875.46875 1.203125.46875 1.25 0 1.75-.734375 1.75-1.515625 0-.578125-.328125-.90625-.453125-1.046875-.359375-.34375-.78125-.4375-1.25-.515625-.609375-.125-1.328125-.265625-1.328125-.890625 0-.390625.28125-.828125 1.21875-.828125 1.1875 0 1.25.96875 1.265625 1.3125.015625.09375.109375.09375.140625.09375.140625 0 .140625-.046875.140625-.25v-1.109375c0-.1875 0-.265625-.125-.265625-.046875 0-.078125 0-.21875.140625-.03125.03125-.140625.140625-.1875.171875-.40625-.3125-.859375-.3125-1.015625-.3125-1.328125 0-1.75.734375-1.75 1.34375 0 .390625.171875.6875.46875.921875.34375.296875.65625.359375 1.4375.515625zm0 0"/></symbol><symbol id="w" overflow="visible"><path d="m1.9375-4.828125-1.53125.125v.34375c.703125 0 .796875.0625.796875.59375v2.9375c0 .484375-.109375.484375-.84375.484375v.34375c.34375-.015625.9375-.03125 1.203125-.03125.375 0 .765625.015625 1.125.03125v-.34375c-.71875 0-.75-.046875-.75-.46875zm.03125-1.890625c0-.34375-.265625-.578125-.578125-.578125-.328125 0-.578125.296875-.578125.578125 0 .296875.25.578125.578125.578125.3125 0 .578125-.234375.578125-.578125zm0 0"/></symbol><symbol id="x" overflow="visible"><path d="m1.203125-3.75v2.921875c0 .484375-.125.484375-.859375.484375v.34375c.390625-.015625.9375-.03125 1.234375-.03125.28125 0 .859375.015625 1.21875.03125v-.34375c-.71875 0-.84375 0-.84375-.484375v-2c0-1.140625.765625-1.75 1.46875-1.75.6875 0 .8125.59375.8125 1.203125v2.546875c0 .484375-.125.484375-.859375.484375v.34375c.390625-.015625.9375-.03125 1.234375-.03125.28125 0 .859375.015625 1.21875.03125v-.34375c-.5625 0-.828125 0-.84375-.328125v-2.078125c0-.9375 0-1.28125-.34375-1.671875-.140625-.1875-.5-.40625-1.140625-.40625-.796875 0-1.3125.46875-1.609375 1.15625v-1.15625l-1.546875.125v.34375c.765625 0 .859375.078125.859375.609375zm0 0"/></symbol><symbol id="y" overflow="visible"><path d="m4.453125-2.515625h3.046875c.15625 0 .359375 0 .359375-.203125 0-.21875-.203125-.21875-.359375-.21875h-3.046875v-3.0625c0-.15625 0-.359375-.203125-.359375-.21875 0-.21875.203125-.21875.359375v3.0625h-3.0625c-.15625 0-.359375 0-.359375.21875 0 .203125.203125.203125.359375.203125h3.0625v3.0625c0 .15625 0 .359375.21875.359375.203125 0 .203125-.203125.203125-.359375zm0 0"/></symbol><symbol id="z" overflow="visible"><path d="m3.15625-2.71875c0-.859375-.125-2.171875-.71875-3.40625-.65625-1.34375-1.59375-2.046875-1.703125-2.046875-.0625 0-.109375.03125-.109375.09375 0 .046875 0 .0625.203125.265625 1.0625 1.078125 1.6875 2.8125 1.6875 5.09375 0 1.859375-.40625 3.78125-1.75 5.15625-.140625.125-.140625.140625-.140625.1875 0 .0625.046875.09375.109375.09375.109375 0 1.09375-.734375 1.734375-2.125.546875-1.1875.6875-2.40625.6875-3.3125zm0 0"/></symbol><symbol id="A" overflow="visible"><path d="m1.28125-2.375c0-1.78125.890625-2.234375 1.46875-2.234375.09375 0 .78125 0 1.171875.40625-.453125.03125-.515625.359375-.515625.5 0 .28125.1875.5.5.5.28125 0 .5-.1875.5-.515625 0-.734375-.828125-1.171875-1.671875-1.171875-1.359375 0-2.359375 1.1875-2.359375 2.53125 0 1.40625 1.078125 2.484375 2.34375 2.484375 1.453125 0 1.8125-1.3125 1.8125-1.421875s-.109375-.109375-.140625-.109375c-.109375 0-.125.046875-.140625.109375-.328125 1.015625-1.03125 1.140625-1.4375 1.140625-.578125 0-1.53125-.46875-1.53125-2.21875zm0 0"/></symbol><symbol id="B" overflow="visible"><path d="m5.140625-2.328125c0-1.40625-1.09375-2.5625-2.421875-2.5625-1.359375 0-2.40625 1.1875-2.40625 2.5625 0 1.40625 1.125 2.453125 2.40625 2.453125 1.3125 0 2.421875-1.078125 2.421875-2.453125zm-2.421875 2.171875c-.46875 0-.9375-.21875-1.234375-.734375-.28125-.46875-.28125-1.140625-.28125-1.53125 0-.421875 0-1.015625.265625-1.5.296875-.5.8125-.71875 1.25-.71875.484375 0 .953125.234375 1.234375.703125s.28125 1.109375.28125 1.515625c0 .390625 0 .984375-.25 1.46875-.234375.484375-.71875.796875-1.265625.796875zm0 0"/></symbol><symbol id="C" overflow="visible"><path d="m6.75-3.671875c.203125-.53125.53125-.6875.921875-.6875v-.34375c-.25.03125-.5625.03125-.796875.03125-.328125 0-.8125-.015625-1.015625-.03125v.34375c.390625 0 .625.203125.625.515625 0 .0625 0 .09375-.046875.234375l-1 2.796875-1.078125-3.046875c-.046875-.125-.046875-.15625-.046875-.203125 0-.296875.421875-.296875.640625-.296875v-.34375c-.3125.015625-.875.03125-1.140625.03125-.328125 0-.640625 0-.96875-.03125v.34375c.40625 0 .578125.015625.6875.15625.0625.0625.171875.390625.25.609375l-.9375 2.640625-1.03125-2.921875c-.0625-.125-.0625-.15625-.0625-.1875 0-.296875.4375-.296875.65625-.296875v-.34375c-.328125.015625-.9375.03125-1.203125.03125-.03125 0-.609375 0-1-.03125v.34375c.53125 0 .671875.03125.796875.375l1.375 3.859375c.0625.15625.09375.25.234375.25s.15625-.078125.21875-.21875l1.09375-3.09375 1.109375 3.09375c.046875.125.078125.21875.21875.21875.15625 0 .1875-.109375.21875-.21875zm0 0"/></symbol><symbol id="D" overflow="visible"><path d="m1.203125-.828125c0 .484375-.125.484375-.859375.484375v.34375c.390625-.015625.9375-.03125 1.234375-.03125.28125 0 .859375.015625 1.21875.03125v-.34375c-.71875 0-.84375 0-.84375-.484375v-2c0-1.140625.765625-1.75 1.46875-1.75.6875 0 .8125.59375.8125 1.203125v2.546875c0 .484375-.125.484375-.859375.484375v.34375c.390625-.015625.9375-.03125 1.234375-.03125.28125 0 .859375.015625 1.21875.03125v-.34375c-.5625 0-.828125 0-.84375-.328125v-2.078125c0-.9375 0-1.28125-.34375-1.671875-.140625-.1875-.5-.40625-1.140625-.40625-.921875 0-1.390625.65625-1.578125 1.078125v-3.8125l-1.578125.109375v.34375c.765625 0 .859375.078125.859375.609375zm0 0"/></symbol><symbol id="E" overflow="visible"><path d="m1.21875-2.75c.0625-1.625.984375-1.890625 1.359375-1.890625 1.125 0 1.234375 1.46875 1.234375 1.890625zm-.015625.234375h3.046875c.25 0 .28125 0 .28125-.234375 0-1.078125-.59375-2.140625-1.953125-2.140625-1.265625 0-2.265625 1.125-2.265625 2.484375 0 1.46875 1.140625 2.53125 2.390625 2.53125 1.328125 0 1.828125-1.21875 1.828125-1.421875 0-.109375-.09375-.125-.140625-.125-.109375 0-.125.0625-.140625.140625-.390625 1.125-1.375 1.125-1.484375 1.125-.546875 0-.984375-.328125-1.234375-.734375-.328125-.515625-.328125-1.234375-.328125-1.625zm0 0"/></symbol><symbol id="F" overflow="visible"><path d="m1.828125-3.625v-1.203125l-1.515625.125v.34375c.75 0 .84375.078125.84375.609375v2.921875c0 .484375-.125.484375-.84375.484375v.34375c.421875-.015625.9375-.03125 1.234375-.03125.4375 0 .953125 0 1.390625.03125v-.34375h-.234375c-.8125 0-.828125-.109375-.828125-.5v-1.6875c0-1.078125.453125-2.046875 1.28125-2.046875.078125 0 .109375 0 .125.015625-.03125 0-.25.140625-.25.421875 0 .296875.234375.46875.46875.46875.203125 0 .46875-.140625.46875-.484375s-.34375-.671875-.8125-.671875c-.796875 0-1.1875.734375-1.328125 1.203125zm0 0"/></symbol><symbol id="G" overflow="visible"><path d="m4.890625-2.1875c0-1.296875-.890625-2.390625-2.0625-2.390625-.53125 0-1 .171875-1.390625.546875v-2.125c.21875.078125.578125.140625.921875.140625 1.34375 0 2.109375-.984375 2.109375-1.125 0-.0625-.03125-.125-.109375-.125 0 0-.03125 0-.078125.03125-.21875.109375-.765625.3125-1.484375.3125-.4375 0-.9375-.0625-1.453125-.296875-.09375-.03125-.109375-.03125-.140625-.03125-.109375 0-.109375.078125-.109375.265625v3.21875c0 .203125 0 .28125.15625.28125.078125 0 .109375-.03125.140625-.09375.125-.171875.53125-.765625 1.40625-.765625.578125 0 .84375.5.9375.703125.171875.40625.1875.828125.1875 1.375 0 .375 0 1.03125-.25 1.484375-.265625.4375-.671875.71875-1.171875.71875-.796875 0-1.421875-.578125-1.609375-1.21875.03125 0 .0625.015625.1875.015625.359375 0 .546875-.265625.546875-.53125s-.1875-.53125-.546875-.53125c-.15625 0-.53125.078125-.53125.578125 0 .9375.75 1.984375 1.96875 1.984375 1.265625 0 2.375-1.046875 2.375-2.421875zm0 0"/></symbol><symbol id="H" overflow="visible"><path d="m5.1875-6.640625c.109375-.125.109375-.15625.109375-.390625h-2.65625c-1.328125 0-1.359375-.140625-1.390625-.34375h-.28125l-.359375 2.25h.28125c.03125-.171875.125-.859375.265625-1 .078125-.0625.921875-.0625 1.0625-.0625h2.265625c-.125.171875-.984375 1.359375-1.21875 1.734375-.984375 1.46875-1.34375 2.984375-1.34375 4.09375 0 .109375 0 .59375.5.59375s.5-.484375.5-.59375v-.5625c0-.59375.03125-1.1875.125-1.78125.046875-.25.1875-1.1875.671875-1.859375zm0 0"/></symbol><symbol id="I" overflow="visible"><path d="m7.1875-2.515625c.1875 0 .375 0 .375-.203125 0-.21875-.1875-.21875-.375-.21875h-5.90625c-.1875 0-.375 0-.375.21875 0 .203125.1875.203125.375.203125zm0 0"/></symbol><symbol id="J" overflow="visible"><path d="m7.484375-4.625c.1875 0 .390625 0 .390625-.21875s-.203125-.21875-.375-.21875h-6.515625c-.1875 0-.390625 0-.390625.21875s.21875.21875.40625.21875zm.015625 4.234375c.171875 0 .375 0 .375-.21875s-.203125-.21875-.390625-.21875h-6.484375c-.1875 0-.40625 0-.40625.21875s.203125.21875.390625.21875zm0-2.125c.171875 0 .375 0 .375-.203125 0-.21875-.203125-.21875-.375-.21875h-6.515625c-.1875 0-.390625 0-.390625.21875 0 .203125.203125.203125.390625.203125zm0 0"/></symbol><symbol id="K" overflow="visible"><path d="m4.25-3.03125-2.1875-2.171875c-.125-.125-.15625-.15625-.234375-.15625-.109375 0-.21875.109375-.21875.21875 0 .078125.015625.109375.140625.21875l2.171875 2.203125-2.171875 2.1875c-.125.109375-.140625.140625-.140625.21875 0 .109375.109375.21875.21875.21875.078125 0 .109375-.03125.234375-.15625l2.171875-2.171875 2.25 2.265625c.03125 0 .109375.0625.171875.0625.125 0 .21875-.109375.21875-.21875 0-.03125 0-.0625-.03125-.125-.015625-.015625-1.75-1.734375-2.296875-2.28125l2-2c.046875-.0625.21875-.203125.265625-.28125.015625-.015625.0625-.0625.0625-.140625 0-.109375-.09375-.21875-.21875-.21875-.09375 0-.140625.046875-.25.171875zm0 0"/></symbol><symbol id="L" overflow="visible"><path d="m5.0625 17.5625-2.34375-8.1875-1.515625 1.78125.171875.171875.734375-.875 2.515625 8.734375c.359375 0 .375 0 .453125-.25l5.984375-18.9375c.0625-.15625.0625-.203125.0625-.21875 0-.125-.09375-.21875-.21875-.21875-.15625 0-.203125.140625-.25.28125zm0 0"/></symbol><symbol id="M" overflow="visible"><path d="m4.078125 19.296875c.234375 0 .3125 0 .3125-.140625.015625-7.65625.90625-14 4.71875-19.328125.078125-.09375.078125-.125.078125-.140625 0-.109375-.078125-.109375-.25-.109375-.1875 0-.203125 0-.21875.015625-.046875.03125-1.4375 1.625-2.53125 3.8125-1.4375 2.890625-2.34375 6.1875-2.75 10.15625-.03125.34375-.265625 2.609375-.265625 5.203125v.421875c.015625.109375.078125.109375.3125.109375zm0 0"/></symbol><symbol id="N" overflow="visible"><path d="m3.484375-.546875c-.234375 0-.296875 0-.3125.125v.421875c0 6.65625 1.1875 10.5625 1.53125 11.671875.734375 2.421875 1.953125 4.96875 3.765625 7.21875.171875.1875.21875.25.25.265625s.03125.03125.21875.03125c.171875 0 .25 0 .25-.109375 0-.03125 0-.046875-.0625-.140625-3.640625-5.046875-4.734375-11.109375-4.734375-19.328125 0-.15625-.078125-.15625-.3125-.15625zm0 0"/></symbol><symbol id="O" overflow="visible"><path d="m6.359375 18.765625c0-6.671875-1.1875-10.578125-1.53125-11.671875-.734375-2.421875-1.953125-4.984375-3.765625-7.21875-.171875-.203125-.21875-.25-.25-.28125-.03125-.015625-.03125-.015625-.21875-.015625-.15625 0-.25 0-.25.109375 0 .015625 0 .046875.140625.234375 3.796875 5.296875 4.65625 11.84375 4.65625 19.234375 0 .140625.078125.140625.3125.140625h.59375c.234375 0 .296875 0 .3125-.109375zm0 0"/></symbol><symbol id="P" overflow="visible"><path d="m6.359375-.421875c-.015625-.125-.078125-.125-.3125-.125h-.59375c-.234375 0-.3125 0-.3125.15625 0 1.125 0 3.71875-.28125 6.4375-.59375 5.640625-2.046875 9.53125-4.4375 12.890625-.078125.09375-.078125.109375-.078125.140625 0 .109375.09375.109375.25.109375.1875 0 .203125 0 .21875-.03125.046875-.03125 1.4375-1.625 2.53125-3.8125 1.4375-2.875 2.34375-6.1875 2.75-10.15625.03125-.328125.265625-2.609375.265625-5.1875zm0 0"/></symbol><symbol id="Q" overflow="visible"><path d="m2.109375-3.78125c.046875-.09375.078125-.15625.078125-.234375 0-.265625-.25-.4375-.46875-.4375-.3125 0-.40625.28125-.4375.390625l-1.015625 3.4375c-.03125.09375-.03125.109375-.03125.125 0 .0625.046875.078125.125.109375.15625.0625.171875.0625.1875.0625s.0625 0 .125-.140625zm0 0"/></symbol><symbol id="R" overflow="visible"><path d="m5.5625-1.8125c.140625 0 .3125 0 .3125-.171875 0-.1875-.171875-.1875-.3125-.1875h-4.5625c-.125 0-.296875 0-.296875.1875 0 .171875.171875.171875.296875.171875zm0 0"/></symbol><symbol id="S" overflow="visible"><path d="m3.453125-6.375c-.109375-.40625-.25-.421875-.59375-.421875-.3125 0-.5 0-.59375.421875l-1.3125 5.703125c-.15625 0-.40625 0-.46875.03125-.125.0625-.1875.171875-.1875.3125 0 .328125.28125.328125.46875.328125h1.109375c.203125 0 .453125 0 .453125-.328125 0-.34375-.21875-.34375-.609375-.34375l.25-1.125h1.765625l.25 1.125c-.390625 0-.609375 0-.609375.34375 0 .328125.265625.328125.46875.328125h1.109375c.1875 0 .46875 0 .46875-.328125 0-.140625-.0625-.25-.1875-.296875-.0625-.046875-.3125-.046875-.46875-.046875zm-.59375.46875h.015625l.703125 3.4375h-1.4375zm0 0"/></symbol><symbol id="T" overflow="visible"><path d="m2.078125-6.265625c-.140625-.359375-.296875-.390625-.59375-.390625h-.75c-.15625 0-.421875 0-.421875.3125 0 .34375.25.34375.421875.34375h.28125v5.328125h-.28125c-.15625 0-.421875 0-.421875.328125 0 .34375.25.34375.421875.34375h1.15625c.171875 0 .4375 0 .4375-.328125 0-.34375-.25-.34375-.4375-.34375h-.265625v-5.171875h.015625l2 5.453125c.140625.375.3125.390625.609375.390625.3125 0 .453125-.03125.453125-.453125v-5.546875h.265625c.171875 0 .4375 0 .4375-.328125s-.265625-.328125-.4375-.328125h-1.15625c-.171875 0-.4375 0-.4375.328125s.28125.328125.4375.328125h.28125v5.1875h-.015625zm0 0"/></symbol><symbol id="U" overflow="visible"><path d="m4.890625-2.28125c.265625 0 .515625 0 .515625-.34375 0-.3125-.28125-.3125-.4375-.3125h-1.296875c-.171875 0-.4375 0-.4375.3125 0 .34375.25.34375.4375.34375h.453125c-.140625 1.21875-.671875 1.734375-1.25 1.734375-.875 0-1.703125-1.171875-1.703125-2.78125 0-1.671875.875-2.796875 1.71875-2.796875.375 0 1.0625.25 1.25 1.4375.03125.1875.09375.3125.375.3125.375 0 .375-.234375.375-.453125v-1.515625c0-.171875 0-.4375-.328125-.4375-.21875 0-.28125.125-.4375.484375-.390625-.328125-.828125-.484375-1.28125-.484375-1.3125 0-2.421875 1.46875-2.421875 3.4375 0 2.015625 1.125 3.46875 2.421875 3.46875.625 0 1.078125-.328125 1.296875-.578125 0 .234375 0 .453125.390625.453125.359375 0 .359375-.234375.359375-.453125zm0 0"/></symbol><symbol id="V" overflow="visible"><path d="m1.9375-6h.609375c.15625 0 .453125 0 .453125-.328125s-.28125-.328125-.453125-.328125h-1.765625c-.171875 0-.4375 0-.4375.328125s.28125.328125.4375.328125h.40625v5.328125h-.40625c-.171875 0-.4375 0-.4375.34375 0 .328125.28125.328125.4375.328125h4.109375c.359375 0 .4375-.09375.4375-.453125v-.96875c0-.21875 0-.4375-.375-.4375-.390625 0-.390625.21875-.390625.4375v.75h-2.625zm0 0"/></symbol><symbol id="W" overflow="visible"><path d="m1.0625-.671875h-.328125c-.171875 0-.453125 0-.453125.34375 0 .328125.28125.328125.453125.328125h4.296875c.375 0 .4375-.09375.4375-.453125v-.96875c0-.203125 0-.4375-.359375-.4375-.390625 0-.390625.21875-.390625.4375v.75h-2.90625v-2.453125h1.421875c0 .453125 0 .625.390625.625.359375 0 .359375-.234375.359375-.4375v-1.015625c0-.21875 0-.453125-.359375-.453125-.390625 0-.390625.171875-.390625.625h-1.421875v-2.21875h2.671875v.578125c0 .203125 0 .453125.375.453125s.375-.234375.375-.453125v-.796875c0-.328125-.0625-.4375-.4375-.4375h-4.0625c-.171875 0-.453125 0-.453125.3125 0 .34375.28125.34375.453125.34375h.328125zm0 0"/></symbol><use x="30.673" xlink:href="#a" y="16.184"/><use x="36.162" xlink:href="#m" y="17.82"/><use x="40.929" xlink:href="#q" y="17.82"/><use x="48.691" xlink:href="#t" y="16.184"/><use x="59.6" xlink:href="#I" y="16.184"/><use x="71.705" xlink:href="#b" y="8.804"/><use x="77.345" xlink:href="#r" y="10.44"/><path d="m-.001875-.00003125h10.375" fill="none" stroke="#000" stroke-miterlimit="10" stroke-width=".436" transform="matrix(1 0 0 -1 71.705 13.457)"/><use x="72.011" xlink:href="#b" y="23.667"/><use x="77.651" xlink:href="#n" y="25.444"/><g><use x="83.273" xlink:href="#u" y="16.184"/><use x="87.515549" xlink:href="#v" y="16.184"/><use x="91.818098" xlink:href="#w" y="16.184"/><use x="94.848646" xlink:href="#x" y="16.184"/></g><use x="102.728" xlink:href="#c" y="16.184"/><use x="109.834" xlink:href="#q" y="17.82"/><use x="116.99" xlink:href="#y" y="16.184"/><g><use x="127.896918" xlink:href="#v" y="16.184"/><use x="132.199467" xlink:href="#w" y="16.184"/><use x="135.230015" xlink:href="#x" y="16.184"/><use x="141.291111" xlink:href="#u" y="16.184"/></g><use x="145.536" xlink:href="#d" y="16.184"/><use x="155.142" xlink:href="#y" y="16.184"/><use x="166.051" xlink:href="#c" y="16.184"/><use x="173.157" xlink:href="#s" y="17.82"/><g><use x="177.889" xlink:href="#z" y="16.184"/><use x="182.131549" xlink:href="#z" y="16.184"/></g><use x="59.6" xlink:href="#y" y="41.85"/><use x="70.509" xlink:href="#a" y="41.85"/><use x="75.998" xlink:href="#o" y="43.487"/><use x="80.274" xlink:href="#s" y="43.487"/><g><use x="86.824" xlink:href="#v" y="41.85"/><use x="91.126549" xlink:href="#w" y="41.85"/><use x="94.157097" xlink:href="#x" y="41.85"/></g><use x="102.036" xlink:href="#d" y="41.85"/><use x="111.642" xlink:href="#y" y="41.85"/><use x="122.551" xlink:href="#a" y="41.85"/><use x="128.04" xlink:href="#m" y="43.487"/><use x="132.807" xlink:href="#s" y="43.487"/><g><use x="139.357" xlink:href="#A" y="41.85"/><use x="144.205004" xlink:href="#B" y="41.85"/><use x="149.659554" xlink:href="#v" y="41.85"/></g><use x="155.782" xlink:href="#d" y="41.85"/><use x="165.388" xlink:href="#I" y="41.85"/><use x="188.995" xlink:href="#e" y="34.47"/><use x="195.23" xlink:href="#s" y="36.107"/><path d="m.0001875.00190625h33.9726565" fill="none" stroke="#000" stroke-miterlimit="10" stroke-width=".436" transform="matrix(1 0 0 -1 177.492 39.123)"/><use x="177.492" xlink:href="#b" y="49.333"/><use x="183.132" xlink:href="#n" y="51.111"/><g><use x="189.071" xlink:href="#v" y="49.333"/><use x="193.373549" xlink:href="#w" y="49.333"/><use x="196.404097" xlink:href="#x" y="49.333"/></g><use x="204.283" xlink:href="#d" y="49.333"/><use x="216.297" xlink:href="#f" y="41.85"/><use x="34.694" xlink:href="#e" y="64.924"/><use x="40.929" xlink:href="#q" y="66.56"/><use x="48.691" xlink:href="#t" y="64.924"/><use x="57.176" xlink:href="#e" y="64.924"/><use x="63.411" xlink:href="#s" y="66.56"/><g><use x="69.961" xlink:href="#A" y="64.924"/><use x="74.809004" xlink:href="#B" y="64.924"/><use x="80.263554" xlink:href="#v" y="64.924"/></g><use x="86.386" xlink:href="#d" y="64.924"/><use x="95.992" xlink:href="#y" y="64.924"/><use x="106.901" xlink:href="#b" y="64.924"/><use x="112.541" xlink:href="#n" y="66.701"/><use x="116.662" xlink:href="#u" y="64.924"/><use x="120.904" xlink:href="#a" y="64.924"/><use x="126.393" xlink:href="#o" y="66.56"/><use x="130.668" xlink:href="#q" y="66.56"/><use x="137.825" xlink:href="#I" y="64.924"/><use x="148.734" xlink:href="#a" y="64.924"/><use x="154.223" xlink:href="#o" y="66.56"/><use x="158.498" xlink:href="#s" y="66.56"/><g><use x="165.049" xlink:href="#A" y="64.924"/><use x="169.897004" xlink:href="#B" y="64.924"/><use x="175.351554" xlink:href="#v" y="64.924"/></g><use x="181.473" xlink:href="#d" y="64.924"/><use x="191.079" xlink:href="#y" y="64.924"/><use x="201.988" xlink:href="#a" y="64.924"/><use x="207.477" xlink:href="#m" y="66.56"/><use x="212.244" xlink:href="#s" y="66.56"/><g><use x="218.794" xlink:href="#v" y="64.924"/><use x="223.096549" xlink:href="#w" y="64.924"/><use x="226.127097" xlink:href="#x" y="64.924"/></g><use x="234.006" xlink:href="#d" y="64.924"/><use x="241.188" xlink:href="#z" y="64.924"/><use x="59.6" xlink:href="#y" y="81.462"/><use x="70.509" xlink:href="#b" y="81.462"/><use x="76.15" xlink:href="#r" y="83.098"/><g><use x="80.882" xlink:href="#u" y="81.462"/><use x="85.124549" xlink:href="#A" y="81.462"/><use x="89.972553" xlink:href="#B" y="81.462"/><use x="95.427103" xlink:href="#v" y="81.462"/><use x="99.729652" xlink:href="#u" y="81.462"/></g><use x="103.973" xlink:href="#d" y="81.462"/><use x="113.579" xlink:href="#y" y="81.462"/><use x="124.488" xlink:href="#c" y="81.462"/><use x="131.594" xlink:href="#s" y="83.098"/><use x="136.326" xlink:href="#z" y="81.462"/><use x="142.993" xlink:href="#I" y="81.462"/><g><use x="153.902" xlink:href="#A" y="81.462"/><use x="158.750004" xlink:href="#B" y="81.462"/><use x="164.204554" xlink:href="#v" y="81.462"/></g><use x="170.326" xlink:href="#c" y="81.462"/><use x="177.432" xlink:href="#q" y="83.098"/><use x="182.165" xlink:href="#z" y="81.462"/><use x="190.043" xlink:href="#f" y="81.462"/><use x="35.58" xlink:href="#g" y="101.649"/><use x="40.929" xlink:href="#q" y="103.286"/><use x="48.691" xlink:href="#t" y="101.649"/><use x="57.176" xlink:href="#g" y="101.649"/><use x="62.525" xlink:href="#s" y="103.286"/><use x="69.681" xlink:href="#y" y="101.649"/><use x="80.59" xlink:href="#h" y="101.649"/><use x="104.131" xlink:href="#a" y="94.209"/><use x="109.62" xlink:href="#p" y="95.845"/><use x="114.091" xlink:href="#s" y="95.845"/><path d="m-.0005625.000125h49.1562495" fill="none" stroke="#000" stroke-miterlimit="10" stroke-width=".436" transform="matrix(1 0 0 -1 86.899 98.922)"/><use x="86.899" xlink:href="#L" y="101.322"/><path d="m-.00040625-.00146875h38.24609325" fill="none" stroke="#000" stroke-miterlimit="10" stroke-width=".436" transform="matrix(1 0 0 -1 97.809 101.104)"/><use x="97.809" xlink:href="#a" y="113.305"/><use x="103.297" xlink:href="#q" y="109.547"/><use x="103.297" xlink:href="#s" y="116.429"/><use x="110.454" xlink:href="#I" y="113.305"/><use x="121.363" xlink:href="#a" y="113.305"/><use x="126.851" xlink:href="#q" y="109.547"/><use x="126.851" xlink:href="#p" y="116.429"/><use x="131.323" xlink:href="#s" y="116.429"/><use x="140.887" xlink:href="#f" y="101.649"/><use x="35.856" xlink:href="#i" y="136.584"/><use x="40.929" xlink:href="#q" y="138.221"/><use x="48.691" xlink:href="#t" y="136.584"/><use x="57.176" xlink:href="#i" y="136.584"/><use x="62.249" xlink:href="#s" y="138.221"/><use x="69.406" xlink:href="#I" y="136.584"/><use x="80.315" xlink:href="#h" y="136.584"/><use x="106.092" xlink:href="#a" y="129.204"/><use x="111.58" xlink:href="#s" y="130.841"/><path d="m.001.00153125h49.15625" fill="none" stroke="#000" stroke-miterlimit="10" stroke-width=".436" transform="matrix(1 0 0 -1 86.624 133.857)"/><use x="86.624" xlink:href="#L" y="136.257"/><path d="m-.00175-.0000625h38.25" fill="none" stroke="#000" stroke-miterlimit="10" stroke-width=".436" transform="matrix(1 0 0 -1 97.533 136.039)"/><use x="97.533" xlink:href="#a" y="148.24"/><use x="103.022" xlink:href="#q" y="144.482"/><use x="103.022" xlink:href="#s" y="151.364"/><use x="110.178" xlink:href="#I" y="148.24"/><use x="121.088" xlink:href="#a" y="148.24"/><use x="126.576" xlink:href="#q" y="144.482"/><use x="126.576" xlink:href="#p" y="151.364"/><use x="131.048" xlink:href="#s" y="151.364"/><use x="139.4" xlink:href="#y" y="136.584"/><use x="151.505" xlink:href="#j" y="129.204"/><use x="156.792" xlink:href="#s" y="130.841"/><path d="m-.00109375.00153125h10.01953175" fill="none" stroke="#000" stroke-miterlimit="10" stroke-width=".436" transform="matrix(1 0 0 -1 151.505 133.857)"/><use x="151.505" xlink:href="#j" y="144.067"/><use x="156.792" xlink:href="#r" y="145.704"/><use x="162.72" xlink:href="#k" y="136.584"/><use x="170.144" xlink:href="#Q" y="132.08"/><use x="176.576" xlink:href="#f" y="136.584"/><g><use x="3.743" xlink:href="#C" y="175.209"/><use x="11.621552" xlink:href="#D" y="175.209"/><use x="17.682648" xlink:href="#E" y="175.209"/><use x="22.530652" xlink:href="#F" y="175.209"/><use x="26.803746" xlink:href="#E" y="175.209"/></g><use x="35.289" xlink:href="#b" y="175.209"/><use x="40.929" xlink:href="#r" y="176.845"/><use x="48.691" xlink:href="#J" y="175.209"/><use x="67.58" xlink:href="#k" y="167.829"/><use x="75.004" xlink:href="#Q" y="163.87"/><path d="m-.00090625.00153125h28.63671825" fill="none" stroke="#000" stroke-miterlimit="10" stroke-width=".436" transform="matrix(1 0 0 -1 58.372 172.482)"/><g><use x="58.372" xlink:href="#S" y="182.692"/><use x="64.099278" xlink:href="#T" y="182.692"/><use x="69.826555" xlink:href="#U" y="182.692"/><use x="75.553833" xlink:href="#V" y="182.692"/><use x="81.28111" xlink:href="#W" y="182.692"/></g><use x="91.84" xlink:href="#f" y="175.209"/><use x="38.479" xlink:href="#d" y="196.162"/><use x="48.691" xlink:href="#J" y="196.162"/><g><use x="57.176" xlink:href="#S" y="196.162"/><use x="62.903278" xlink:href="#T" y="196.162"/><use x="68.630555" xlink:href="#U" y="196.162"/><use x="74.357833" xlink:href="#V" y="196.162"/><use x="80.08511" xlink:href="#W" y="196.162"/></g><use x="88.236" xlink:href="#I" y="196.162"/><use x="99.146" xlink:href="#c" y="196.162"/><use x="106.252" xlink:href="#s" y="197.798"/><use x="113.408" xlink:href="#I" y="196.162"/><use x="124.317" xlink:href="#c" y="196.162"/><use x="131.423" xlink:href="#q" y="197.798"/><use x="139.792" xlink:href="#f" y="196.162"/><use x="40.547" xlink:href="#h" y="212.7"/><use x="48.691" xlink:href="#J" y="212.7"/><g><use x="57.176" xlink:href="#S" y="212.7"/><use x="62.903278" xlink:href="#T" y="212.7"/><use x="68.630555" xlink:href="#U" y="212.7"/><use x="74.357833" xlink:href="#V" y="212.7"/><use x="80.08511" xlink:href="#W" y="212.7"/></g><use x="88.236" xlink:href="#K" y="212.7"/><use x="99.145" xlink:href="#b" y="212.7"/><use x="104.786" xlink:href="#n" y="214.477"/><use x="59.6" xlink:href="#K" y="243.113"/><use x="70.509" xlink:href="#M" y="221.186"/><use x="70.509" xlink:href="#N" y="240.822"/><g><use x="80.055" xlink:href="#v" y="243.113"/><use x="84.357549" xlink:href="#w" y="243.113"/><use x="87.388097" xlink:href="#x" y="243.113"/></g><use x="93.449" xlink:href="#R" y="238.609"/><use x="100.035" xlink:href="#s" y="238.609"/><use x="124.865" xlink:href="#a" y="235.733"/><use x="130.354" xlink:href="#m" y="237.37"/><use x="135.121" xlink:href="#s" y="237.37"/><path d="m.00025-.00071875h49.15625" fill="none" stroke="#000" stroke-miterlimit="10" stroke-width=".436" transform="matrix(1 0 0 -1 107.781 240.386)"/><use x="107.781" xlink:href="#L" y="242.786"/><path d="m.00040625.00159375h38.24609375" fill="none" stroke="#000" stroke-miterlimit="10" stroke-width=".436" transform="matrix(1 0 0 -1 118.691 242.568)"/><use x="118.691" xlink:href="#a" y="254.769"/><use x="124.179" xlink:href="#q" y="251.011"/><use x="124.179" xlink:href="#s" y="257.893"/><use x="131.336" xlink:href="#I" y="254.769"/><use x="142.245" xlink:href="#a" y="254.769"/><use x="147.733" xlink:href="#q" y="251.011"/><use x="147.733" xlink:href="#p" y="257.893"/><use x="152.205" xlink:href="#s" y="257.893"/><use x="160.557" xlink:href="#I" y="243.113"/><g><use x="171.466" xlink:href="#v" y="243.113"/><use x="175.768549" xlink:href="#w" y="243.113"/><use x="178.799097" xlink:href="#x" y="243.113"/></g><use x="184.86" xlink:href="#R" y="238.609"/><use x="191.447" xlink:href="#s" y="238.609"/><use x="216.277" xlink:href="#a" y="235.733"/><use x="221.765" xlink:href="#m" y="237.369"/><use x="226.532" xlink:href="#q" y="237.369"/><path d="m-.00159375-.00071875h49.15624975" fill="none" stroke="#000" stroke-miterlimit="10" stroke-width=".436" transform="matrix(1 0 0 -1 199.193 240.386)"/><use x="199.193" xlink:href="#L" y="242.786"/><path d="m-.0004375.00159375h38.2460935" fill="none" stroke="#000" stroke-miterlimit="10" stroke-width=".436" transform="matrix(1 0 0 -1 210.102 242.568)"/><use x="210.102" xlink:href="#a" y="254.769"/><use x="215.59" xlink:href="#q" y="251.011"/><use x="215.59" xlink:href="#q" y="257.893"/><use x="222.747" xlink:href="#I" y="254.769"/><use x="233.656" xlink:href="#a" y="254.769"/><use x="239.145" xlink:href="#q" y="251.011"/><use x="239.145" xlink:href="#p" y="257.893"/><use x="243.616" xlink:href="#q" y="257.893"/><use x="251.968" xlink:href="#y" y="243.113"/><use x="262.877" xlink:href="#d" y="243.113"/><use x="270.059" xlink:href="#O" y="221.186"/><use x="270.059" xlink:href="#P" y="240.822"/><use x="285.059" xlink:href="#l" y="243.113"/><g><use x="381.64" xlink:href="#u" y="135.774"/><use x="385.882549" xlink:href="#G" y="135.774"/><use x="391.337099" xlink:href="#H" y="135.774"/><use x="396.791649" xlink:href="#z" y="135.774"/></g></svg>