<svg height="95pt" viewBox="0 0 516 95" width="516pt" xmlns="http://www.w3.org/2000/svg" xmlns:xlink="http://www.w3.org/1999/xlink"><symbol id="a" overflow="visible"><path d="m7.265625-7.390625h-6.671875l-.203125 2.46875h.28125c.140625-1.765625.3125-2.125 1.953125-2.125.203125 0 .484375 0 .59375.015625.234375.046875.234375.171875.234375.421875v5.75c0 .375 0 .515625-1.15625.515625h-.4375v.34375c.453125-.03125 1.5625-.03125 2.0625-.03125s1.625 0 2.078125.03125v-.34375h-.4375c-1.140625 0-1.140625-.140625-1.140625-.515625v-5.75c0-.21875 0-.375.1875-.421875.125-.015625.421875-.015625.625-.015625 1.640625 0 1.8125.359375 1.96875 2.125h.265625zm0 0"/></symbol><symbol id="b" overflow="visible"><path d="m1.203125-.828125c0 .484375-.125.484375-.859375.484375v.34375c.390625-.015625.9375-.03125 1.234375-.03125.28125 0 .859375.015625 1.21875.03125v-.34375c-.71875 0-.84375 0-.84375-.484375v-2c0-1.140625.765625-1.75 1.46875-1.75.6875 0 .8125.59375.8125 1.203125v2.546875c0 .484375-.125.484375-.859375.484375v.34375c.390625-.015625.9375-.03125 1.234375-.03125.28125 0 .859375.015625 1.21875.03125v-.34375c-.5625 0-.828125 0-.84375-.328125v-2.078125c0-.9375 0-1.28125-.34375-1.671875-.140625-.1875-.5-.40625-1.140625-.40625-.921875 0-1.390625.65625-1.578125 1.078125v-3.8125l-1.578125.109375v.34375c.765625 0 .859375.078125.859375.609375zm0 0"/></symbol><symbol id="c" overflow="visible"><path d="m1.21875-2.75c.0625-1.625.984375-1.890625 1.359375-1.890625 1.125 0 1.234375 1.46875 1.234375 1.890625zm-.015625.234375h3.046875c.25 0 .28125 0 .28125-.234375 0-1.078125-.59375-2.140625-1.953125-2.140625-1.265625 0-2.265625 1.125-2.265625 2.484375 0 1.46875 1.140625 2.53125 2.390625 2.53125 1.328125 0 1.828125-1.21875 1.828125-1.421875 0-.109375-.09375-.125-.140625-.125-.109375 0-.125.0625-.140625.140625-.390625 1.125-1.375 1.125-1.484375 1.125-.546875 0-.984375-.328125-1.234375-.734375-.328125-.515625-.328125-1.234375-.328125-1.625zm0 0"/></symbol><symbol id="d" overflow="visible"><path d="m1.28125-2.375c0-1.78125.890625-2.234375 1.46875-2.234375.09375 0 .78125 0 1.171875.40625-.453125.03125-.515625.359375-.515625.5 0 .28125.1875.5.5.5.28125 0 .5-.1875.5-.515625 0-.734375-.828125-1.171875-1.671875-1.171875-1.359375 0-2.359375 1.1875-2.359375 2.53125 0 1.40625 1.078125 2.484375 2.34375 2.484375 1.453125 0 1.8125-1.3125 1.8125-1.421875s-.109375-.109375-.140625-.109375c-.109375 0-.125.046875-.140625.109375-.328125 1.015625-1.03125 1.140625-1.4375 1.140625-.578125 0-1.53125-.46875-1.53125-2.21875zm0 0"/></symbol><symbol id="e" overflow="visible"><path d="m5.140625-2.328125c0-1.40625-1.09375-2.5625-2.421875-2.5625-1.359375 0-2.40625 1.1875-2.40625 2.5625 0 1.40625 1.125 2.453125 2.40625 2.453125 1.3125 0 2.421875-1.078125 2.421875-2.453125zm-2.421875 2.171875c-.46875 0-.9375-.21875-1.234375-.734375-.28125-.46875-.28125-1.140625-.28125-1.53125 0-.421875 0-1.015625.265625-1.5.296875-.5.8125-.71875 1.25-.71875.484375 0 .953125.234375 1.234375.703125s.28125 1.109375.28125 1.515625c0 .390625 0 .984375-.25 1.46875-.234375.484375-.71875.796875-1.265625.796875zm0 0"/></symbol><symbol id="f" overflow="visible"><path d="m3.59375-4.359375c.5 0 .578125.140625.578125.578125v2.953125c0 .484375-.109375.484375-.84375.484375v.34375c.359375-.015625.9375-.03125 1.203125-.03125.28125 0 .8125.015625 1.21875.03125v-.34375c-.734375 0-.859375 0-.859375-.484375v-4l-1.375.09375c-.171875.015625-.171875.015625-.1875.015625-.03125.015625-.046875.015625-.203125.015625h-1.28125v-1.234375c0-1.078125.9375-1.515625 1.609375-1.515625.328125 0 .71875.109375.9375.359375-.4375.03125-.515625.328125-.515625.5 0 .359375.296875.515625.5.515625.25 0 .5-.1875.5-.515625 0-.640625-.59375-1.09375-1.40625-1.09375-1.015625 0-2.3125.5625-2.3125 1.75v1.234375h-.859375v.34375h.859375v3.53125c0 .484375-.125.484375-.84375.484375v.34375c.359375-.015625.9375-.03125 1.203125-.03125s.8125.015625 1.203125.03125v-.34375c-.71875 0-.84375 0-.84375-.484375v-3.53125zm0 0"/></symbol><symbol id="g" overflow="visible"><path d="m1.9375-4.828125-1.53125.125v.34375c.703125 0 .796875.0625.796875.59375v2.9375c0 .484375-.109375.484375-.84375.484375v.34375c.34375-.015625.9375-.03125 1.203125-.03125.375 0 .765625.015625 1.125.03125v-.34375c-.71875 0-.75-.046875-.75-.46875zm.03125-1.890625c0-.34375-.265625-.578125-.578125-.578125-.328125 0-.578125.296875-.578125.578125 0 .296875.25.578125.578125.578125.3125 0 .578125-.234375.578125-.578125zm0 0"/></symbol><symbol id="h" overflow="visible"><path d="m1.203125-3.75v2.921875c0 .484375-.125.484375-.859375.484375v.34375c.390625-.015625.9375-.03125 1.234375-.03125.28125 0 .859375.015625 1.21875.03125v-.34375c-.71875 0-.84375 0-.84375-.484375v-2c0-1.140625.765625-1.75 1.46875-1.75.6875 0 .8125.59375.8125 1.203125v2.546875c0 .484375-.125.484375-.859375.484375v.34375c.390625-.015625.9375-.03125 1.234375-.03125.28125 0 .859375.015625 1.21875.03125v-.34375c-.5625 0-.828125 0-.84375-.328125v-2.078125c0-.9375 0-1.28125-.34375-1.671875-.140625-.1875-.5-.40625-1.140625-.40625-.796875 0-1.3125.46875-1.609375 1.15625v-1.15625l-1.546875.125v.34375c.765625 0 .859375.078125.859375.609375zm0 0"/></symbol><symbol id="i" overflow="visible"><path d="m1.890625-4.359375h1.5625v-.34375h-1.5625v-2h-.28125c0 .890625-.328125 2.0625-1.40625 2.09375v.25h.9375v3c0 1.34375 1.015625 1.484375 1.40625 1.484375.765625 0 1.078125-.78125 1.078125-1.484375v-.609375h-.28125v.59375c0 .8125-.328125 1.21875-.71875 1.21875-.734375 0-.734375-.984375-.734375-1.171875zm0 0"/></symbol><symbol id="j" overflow="visible"><path d="m1.828125-3.625v-1.203125l-1.515625.125v.34375c.75 0 .84375.078125.84375.609375v2.921875c0 .484375-.125.484375-.84375.484375v.34375c.421875-.015625.9375-.03125 1.234375-.03125.4375 0 .953125 0 1.390625.03125v-.34375h-.234375c-.8125 0-.828125-.109375-.828125-.5v-1.6875c0-1.078125.453125-2.046875 1.28125-2.046875.078125 0 .109375 0 .125.015625-.03125 0-.25.140625-.25.421875 0 .296875.234375.46875.46875.46875.203125 0 .46875-.140625.46875-.484375s-.34375-.671875-.8125-.671875c-.796875 0-1.1875.734375-1.328125 1.203125zm0 0"/></symbol><symbol id="k" overflow="visible"><path d="m1.875-4.09375v-.734375l-1.5625.125v.34375c.765625 0 .84375.0625.84375.546875v5.09375c0 .5-.125.5-.84375.5v.328125c.359375 0 .9375-.03125 1.21875-.03125.296875 0 .84375.03125 1.234375.03125v-.328125c-.734375 0-.859375 0-.859375-.5v-1.921875c.0625.171875.515625.765625 1.34375.765625 1.296875 0 2.4375-1.078125 2.4375-2.484375 0-1.375-1.0625-2.46875-2.28125-2.46875-.859375 0-1.3125.484375-1.53125.734375zm.03125 2.84375v-2.421875c.3125-.5625.859375-.875 1.40625-.875.796875 0 1.46875.953125 1.46875 2.1875 0 1.328125-.765625 2.234375-1.578125 2.234375-.4375 0-.84375-.21875-1.140625-.65625-.15625-.234375-.15625-.25-.15625-.46875zm0 0"/></symbol><symbol id="l" overflow="visible"><path d="m2.265625-2.109375c.25.03125 1.140625.21875 1.140625 1 0 .546875-.390625.984375-1.234375.984375-.921875 0-1.3125-.609375-1.515625-1.546875-.03125-.140625-.046875-.1875-.15625-.1875-.140625 0-.140625.078125-.140625.28125v1.4375c0 .1875 0 .265625.125.265625.046875 0 .0625-.015625.265625-.21875.03125-.03125.03125-.046875.21875-.25.484375.453125.96875.46875 1.203125.46875 1.25 0 1.75-.734375 1.75-1.515625 0-.578125-.328125-.90625-.453125-1.046875-.359375-.34375-.78125-.4375-1.25-.515625-.609375-.125-1.328125-.265625-1.328125-.890625 0-.390625.28125-.828125 1.21875-.828125 1.1875 0 1.25.96875 1.265625 1.3125.015625.09375.109375.09375.140625.09375.140625 0 .140625-.046875.140625-.25v-1.109375c0-.1875 0-.265625-.125-.265625-.046875 0-.078125 0-.21875.140625-.03125.03125-.140625.140625-.1875.171875-.40625-.3125-.859375-.3125-1.015625-.3125-1.328125 0-1.75.734375-1.75 1.34375 0 .390625.171875.6875.46875.921875.34375.296875.65625.359375 1.4375.515625zm0 0"/></symbol><symbol id="m" overflow="visible"><path d="m1.203125-3.75v2.921875c0 .484375-.125.484375-.859375.484375v.34375c.390625-.015625.9375-.03125 1.234375-.03125.28125 0 .859375.015625 1.21875.03125v-.34375c-.71875 0-.84375 0-.84375-.484375v-2c0-1.140625.765625-1.75 1.46875-1.75.6875 0 .8125.59375.8125 1.203125v2.546875c0 .484375-.125.484375-.859375.484375v.34375c.390625-.015625.9375-.03125 1.234375-.03125.28125 0 .859375.015625 1.21875.03125v-.34375c-.71875 0-.84375 0-.84375-.484375v-2c0-1.140625.78125-1.75 1.46875-1.75s.8125.59375.8125 1.203125v2.546875c0 .484375-.125.484375-.859375.484375v.34375c.390625-.015625.9375-.03125 1.234375-.03125.28125 0 .859375.015625 1.21875.03125v-.34375c-.5625 0-.828125 0-.84375-.328125v-2.078125c0-.9375 0-1.28125-.34375-1.671875-.140625-.1875-.5-.40625-1.140625-.40625-.921875 0-1.390625.65625-1.578125 1.078125-.15625-.953125-.96875-1.078125-1.453125-1.078125-.796875 0-1.3125.46875-1.609375 1.15625v-1.15625l-1.546875.125v.34375c.765625 0 .859375.078125.859375.609375zm0 0"/></symbol><symbol id="n" overflow="visible"><path d="m3.625-.828125c.046875.4375.34375.890625.859375.890625.234375 0 .890625-.15625.890625-1.03125v-.609375h-.265625v.609375c0 .625-.28125.703125-.390625.703125-.359375 0-.40625-.5-.40625-.546875v-2.1875c0-.453125 0-.875-.390625-1.28125-.4375-.4375-.984375-.609375-1.5-.609375-.890625 0-1.640625.515625-1.640625 1.234375 0 .328125.21875.515625.5.515625.296875 0 .5-.21875.5-.5 0-.140625-.0625-.5-.5625-.5.296875-.390625.828125-.5 1.1875-.5.53125 0 1.15625.421875 1.15625 1.390625v.40625c-.5625.03125-1.328125.0625-2.015625.390625-.8125.375-1.09375.9375-1.09375 1.421875 0 .875 1.0625 1.15625 1.75 1.15625.71875 0 1.21875-.4375 1.421875-.953125zm-.0625-1.796875v1.09375c0 1.046875-.796875 1.40625-1.28125 1.40625-.53125 0-.984375-.375-.984375-.921875 0-.59375.453125-1.5 2.265625-1.578125zm0 0"/></symbol><symbol id="o" overflow="visible"><path d="m1.875-4.109375v-3.453125l-1.5625.109375v.34375c.75 0 .84375.078125.84375.609375v6.5h.265625c.015625-.015625.109375-.15625.40625-.671875.15625.25.609375.796875 1.421875.796875 1.296875 0 2.4375-1.078125 2.4375-2.484375 0-1.375-1.078125-2.46875-2.3125-2.46875-.859375 0-1.328125.515625-1.5.71875zm.03125 2.859375v-2.234375c0-.21875 0-.21875.125-.390625.421875-.625 1.015625-.703125 1.28125-.703125.5 0 .890625.28125 1.140625.703125.296875.4375.328125 1.0625.328125 1.515625 0 .390625-.03125 1.046875-.34375 1.546875-.234375.328125-.640625.6875-1.234375.6875-.484375 0-.875-.25-1.140625-.65625-.15625-.234375-.15625-.265625-.15625-.46875zm0 0"/></symbol><symbol id="p" overflow="visible"><path d="m6.75-3.671875c.203125-.53125.53125-.6875.921875-.6875v-.34375c-.25.03125-.5625.03125-.796875.03125-.328125 0-.8125-.015625-1.015625-.03125v.34375c.390625 0 .625.203125.625.515625 0 .0625 0 .09375-.046875.234375l-1 2.796875-1.078125-3.046875c-.046875-.125-.046875-.15625-.046875-.203125 0-.296875.421875-.296875.640625-.296875v-.34375c-.3125.015625-.875.03125-1.140625.03125-.328125 0-.640625 0-.96875-.03125v.34375c.40625 0 .578125.015625.6875.15625.0625.0625.171875.390625.25.609375l-.9375 2.640625-1.03125-2.921875c-.0625-.125-.0625-.15625-.0625-.1875 0-.296875.4375-.296875.65625-.296875v-.34375c-.328125.015625-.9375.03125-1.203125.03125-.03125 0-.609375 0-1-.03125v.34375c.53125 0 .671875.03125.796875.375l1.375 3.859375c.0625.15625.09375.25.234375.25s.15625-.078125.21875-.21875l1.09375-3.09375 1.109375 3.09375c.046875.125.078125.21875.21875.21875.15625 0 .1875-.109375.21875-.21875zm0 0"/></symbol><symbol id="q" overflow="visible"><path d="m2.09375-4.125c0-.3125-.265625-.578125-.578125-.578125s-.578125.265625-.578125.578125.265625.578125.578125.578125.578125-.265625.578125-.578125zm0 3.546875c0-.3125-.265625-.578125-.578125-.578125s-.578125.265625-.578125.578125.265625.578125.578125.578125.578125-.265625.578125-.578125zm0 0"/></symbol><symbol id="r" overflow="visible"><path d="m3.203125-6.984375c0-.25 0-.28125-.25-.28125-.671875.703125-1.640625.703125-1.984375.703125v.328125c.21875 0 .859375 0 1.4375-.28125v5.65625c0 .390625-.046875.515625-1.015625.515625h-.359375v.34375c.390625-.03125 1.328125-.03125 1.765625-.03125s1.390625 0 1.765625.03125v-.34375h-.34375c-.984375 0-1.015625-.109375-1.015625-.515625zm0 0"/></symbol><symbol id="s" overflow="visible"><path d="m1.390625-.84375 1.15625-1.125c1.703125-1.5 2.34375-2.09375 2.34375-3.171875 0-1.25-.96875-2.125-2.3125-2.125-1.21875 0-2.03125 1-2.03125 1.96875 0 .625.546875.625.578125.625.1875 0 .5625-.140625.5625-.578125 0-.296875-.1875-.578125-.578125-.578125-.078125 0-.109375 0-.140625.015625.25-.703125.84375-1.109375 1.46875-1.109375 1 0 1.46875.875 1.46875 1.78125 0 .859375-.546875 1.734375-1.140625 2.40625l-2.09375 2.328125c-.125.125-.125.140625-.125.40625h4.046875l.296875-1.890625h-.265625c-.0625.3125-.125.796875-.234375.96875-.078125.078125-.796875.078125-1.046875.078125zm0 0"/></symbol><symbol id="t" overflow="visible"><path d="m4.453125-2.515625h3.046875c.15625 0 .359375 0 .359375-.203125 0-.21875-.203125-.21875-.359375-.21875h-3.046875v-3.0625c0-.15625 0-.359375-.203125-.359375-.21875 0-.21875.203125-.21875.359375v3.0625h-3.0625c-.15625 0-.359375 0-.359375.21875 0 .203125.203125.203125.359375.203125h3.0625v3.0625c0 .15625 0 .359375.21875.359375.203125 0 .203125-.203125.203125-.359375zm0 0"/></symbol><symbol id="u" overflow="visible"><path d="m3.609375 2.625c0-.046875 0-.0625-.1875-.25-1.359375-1.375-1.703125-3.4375-1.703125-5.09375 0-1.90625.40625-3.796875 1.75-5.171875.140625-.125.140625-.140625.140625-.1875 0-.0625-.046875-.09375-.109375-.09375-.109375 0-1.09375.734375-1.734375 2.125-.5625 1.1875-.6875 2.40625-.6875 3.328125 0 .84375.125 2.15625.71875 3.390625.65625 1.34375 1.59375 2.046875 1.703125 2.046875.0625 0 .109375-.03125.109375-.09375zm0 0"/></symbol><symbol id="v" overflow="visible"><path d="m1.78125-4.984375c-.5-.328125-.546875-.703125-.546875-.890625 0-.65625.703125-1.109375 1.484375-1.109375.796875 0 1.484375.5625 1.484375 1.34375 0 .625-.421875 1.140625-1.078125 1.53125zm1.59375 1.03125c.78125-.40625 1.3125-.96875 1.3125-1.6875 0-1-.96875-1.625-1.96875-1.625-1.078125 0-1.96875.8125-1.96875 1.828125 0 .1875.03125.6875.484375 1.1875.125.140625.515625.40625.796875.59375-.640625.3125-1.578125.9375-1.578125 2.015625 0 1.15625 1.125 1.875 2.265625 1.875 1.234375 0 2.265625-.90625 2.265625-2.0625 0-.390625-.125-.890625-.53125-1.34375-.203125-.234375-.390625-.34375-1.078125-.78125zm-1.09375.46875 1.34375.84375c.296875.203125.8125.53125.8125 1.203125 0 .8125-.8125 1.375-1.71875 1.375-.9375 0-1.71875-.671875-1.71875-1.578125 0-.640625.359375-1.34375 1.28125-1.84375zm0 0"/></symbol><symbol id="w" overflow="visible"><path d="m5.1875-6.640625c.109375-.125.109375-.15625.109375-.390625h-2.65625c-1.328125 0-1.359375-.140625-1.390625-.34375h-.28125l-.359375 2.25h.28125c.03125-.171875.125-.859375.265625-1 .078125-.0625.921875-.0625 1.0625-.0625h2.265625c-.125.171875-.984375 1.359375-1.21875 1.734375-.984375 1.46875-1.34375 2.984375-1.34375 4.09375 0 .109375 0 .59375.5.59375s.5-.484375.5-.59375v-.5625c0-.59375.03125-1.1875.125-1.78125.046875-.25.1875-1.1875.671875-1.859375zm0 0"/></symbol><symbol id="x" overflow="visible"><path d="m3.15625-2.71875c0-.859375-.125-2.171875-.71875-3.40625-.65625-1.34375-1.59375-2.046875-1.703125-2.046875-.0625 0-.109375.03125-.109375.09375 0 .046875 0 .0625.203125.265625 1.0625 1.078125 1.6875 2.8125 1.6875 5.09375 0 1.859375-.40625 3.78125-1.75 5.15625-.140625.125-.140625.140625-.140625.1875 0 .0625.046875.09375.109375.09375.109375 0 1.09375-.734375 1.734375-2.125.546875-1.1875.6875-2.40625.6875-3.3125zm0 0"/></symbol><symbol id="y" overflow="visible"><path d="m2.53125-7.3125c-.09375-.125-.109375-.140625-.3125-.140625h-1.859375v.34375h.3125c.171875 0 .390625.015625.546875.015625.25.03125.265625.046875.265625.25v5.703125c0 .296875 0 .796875-1.125.796875v.34375c.375-.015625.921875-.03125 1.28125-.03125s.890625.015625 1.265625.03125v-.34375c-1.125 0-1.125-.5-1.125-.796875v-5.671875c.0625.046875.078125.0625.109375.125l4.453125 6.546875c.109375.125.109375.140625.1875.140625.15625 0 .15625-.078125.15625-.28125v-6.015625c0-.296875 0-.8125 1.125-.8125v-.34375c-.390625.015625-.921875.03125-1.28125.03125s-.890625-.015625-1.28125-.03125v.34375c1.125 0 1.125.515625 1.125.8125v4.65625zm0 0"/></symbol><symbol id="z" overflow="visible"><path d="m2.09375-.578125c0-.3125-.265625-.578125-.578125-.578125s-.578125.265625-.578125.578125.265625.578125.578125.578125.578125-.265625.578125-.578125zm0 0"/></symbol><symbol id="A" overflow="visible"><path d="m4.53125-3.625c.109375-.25.296875-.734375 1.015625-.734375v-.34375c-.25.03125-.578125.03125-.828125.03125-.265625 0-.765625-.015625-.9375-.03125v.34375c.390625 0 .515625.265625.515625.46875 0 .09375-.015625.140625-.0625.265625l-1.109375 2.78125-1.234375-3.046875c-.0625-.140625-.0625-.171875-.0625-.1875 0-.28125.421875-.28125.625-.28125v-.34375c-.328125.015625-.9375.03125-1.1875.03125-.296875 0-.734375 0-1.0625-.03125v.34375c.6875 0 .734375.0625.875.40625l1.578125 3.859375c.0625.15625.078125.21875.21875.21875s.1875-.109375.234375-.21875zm0 0"/></symbol><symbol id="B" overflow="visible"><path d="m4.140625-.59375v.71875l1.609375-.125v-.34375c-.765625 0-.859375-.078125-.859375-.609375v-6.609375l-1.5625.109375v.34375c.765625 0 .84375.078125.84375.609375v2.359375c-.3125-.390625-.78125-.6875-1.375-.6875-1.28125 0-2.421875 1.078125-2.421875 2.484375 0 1.390625 1.0625 2.46875 2.3125 2.46875.6875 0 1.1875-.375 1.453125-.71875zm0-2.921875v2.234375c0 .1875 0 .21875-.109375.390625-.328125.53125-.828125.765625-1.296875.765625-.484375 0-.875-.28125-1.140625-.6875-.28125-.453125-.3125-1.078125-.3125-1.515625 0-.40625.015625-1.0625.328125-1.546875.234375-.34375.640625-.703125 1.234375-.703125.390625 0 .84375.15625 1.1875.65625.109375.1875.109375.203125.109375.40625zm0 0"/></symbol><symbol id="C" overflow="visible"><path d="m4.265625-.859375v.984375l1.5625-.125v-.34375c-.75 0-.84375-.078125-.84375-.609375v-3.875l-1.609375.125v.34375c.765625 0 .859375.078125.859375.609375v1.9375c0 .953125-.53125 1.6875-1.328125 1.6875-.90625 0-.953125-.5-.953125-1.078125v-3.625l-1.609375.125v.34375c.859375 0 .859375.03125.859375 1v1.640625c0 .84375 0 1.84375 1.65625 1.84375.609375 0 1.09375-.3125 1.40625-.984375zm0 0"/></symbol><symbol id="D" overflow="visible"><path d="m2.421875-1.875c-.953125 0-.953125-1.09375-.953125-1.34375 0-.296875.015625-.640625.171875-.921875.09375-.125.34375-.421875.78125-.421875.953125 0 .953125 1.078125.953125 1.328125 0 .296875-.015625.65625-.171875.921875-.09375.125-.34375.4375-.78125.4375zm-1.265625.421875c0-.046875 0-.296875.1875-.515625.421875.3125.875.34375 1.078125.34375 1.015625 0 1.765625-.75 1.765625-1.59375 0-.40625-.171875-.8125-.453125-1.0625.40625-.359375.796875-.421875.984375-.421875.03125 0 .078125 0 .109375.015625-.109375.046875-.171875.15625-.171875.296875 0 .1875.140625.3125.3125.3125.109375 0 .328125-.078125.328125-.328125 0-.1875-.140625-.53125-.5625-.53125-.21875 0-.703125.0625-1.15625.515625-.453125-.359375-.921875-.40625-1.15625-.40625-1.015625 0-1.765625.765625-1.765625 1.59375 0 .484375.234375.90625.515625 1.125-.140625.171875-.34375.53125-.34375.90625 0 .34375.140625.75.484375.96875-.65625.1875-1 .65625-1 1.09375 0 .78125 1.078125 1.390625 2.40625 1.390625 1.28125 0 2.421875-.5625 2.421875-1.40625 0-.390625-.15625-.9375-.71875-1.25-.578125-.296875-1.203125-.296875-1.875-.296875-.265625 0-.734375 0-.8125-.015625-.34375-.046875-.578125-.375-.578125-.734375zm1.5625 3.453125c-1.09375 0-1.84375-.5625-1.84375-1.140625 0-.5.40625-.90625.890625-.9375h.640625c.9375 0 2.15625 0 2.15625.9375 0 .59375-.765625 1.140625-1.84375 1.140625zm0 0"/></symbol><symbol id="E" overflow="visible"><path d="m1.9375-7.5625-1.578125.109375v.34375c.765625 0 .84375.078125.84375.609375v5.671875c0 .484375-.109375.484375-.84375.484375v.34375c.359375-.015625.9375-.03125 1.21875-.03125.265625 0 .796875.015625 1.203125.03125v-.34375c-.734375 0-.84375 0-.84375-.484375zm0 0"/></symbol><symbol id="F" overflow="visible"><path d="m2.453125-6.59375c0-.390625.03125-.515625.890625-.515625h.28125v-.34375c-.375.03125-1.234375.03125-1.65625.03125s-1.28125 0-1.65625-.03125v.34375h.28125c.859375 0 .890625.125.890625.515625v5.75c0 .390625-.03125.5-.890625.5h-.28125v.34375c.375-.03125 1.234375-.03125 1.65625-.03125s1.28125 0 1.65625.03125v-.34375h-.28125c-.859375 0-.890625-.109375-.890625-.5zm0 0"/></symbol><symbol id="G" overflow="visible"><path d="m1.90625-4.703125v-1.265625c0-.953125.53125-1.484375 1-1.484375.03125 0 .203125 0 .359375.078125-.125.046875-.328125.1875-.328125.453125s.1875.46875.46875.46875c.328125 0 .484375-.203125.484375-.46875 0-.40625-.40625-.765625-.984375-.765625-.75 0-1.6875.578125-1.6875 1.734375v1.25h-.859375v.34375h.859375v3.53125c0 .484375-.125.484375-.84375.484375v.34375c.421875-.015625.9375-.03125 1.234375-.03125.4375 0 .953125 0 1.390625.03125v-.34375h-.234375c-.796875 0-.828125-.109375-.828125-.5v-3.515625h1.25v-.34375zm0 0"/></symbol><symbol id="H" overflow="visible"><path d="m.609375-3.734375c0 2.265625 1.765625 3.96875 3.796875 3.96875 1.78125 0 2.84375-1.515625 2.84375-2.78125 0-.109375 0-.171875-.140625-.171875-.125 0-.125.0625-.125.171875-.09375 1.546875-1.265625 2.453125-2.453125 2.453125-.65625 0-2.796875-.375-2.796875-3.625 0-3.265625 2.125-3.625 2.796875-3.625 1.1875 0 2.15625.984375 2.375 2.578125.015625.15625.015625.1875.171875.1875.171875 0 .171875-.03125.171875-.265625v-2.578125c0-.1875 0-.265625-.125-.265625-.03125 0-.078125 0-.171875.125l-.546875.8125c-.390625-.390625-.953125-.9375-2-.9375-2.046875 0-3.796875 1.734375-3.796875 3.953125zm0 0"/></symbol><symbol id="I" overflow="visible"><path d="m3.015625-2.046875v-.625h-2.890625v.625zm0 0"/></symbol><symbol id="J" overflow="visible"><path d="m3.8125-4.234375-1.40625-.328125c-.671875-.171875-1.09375-.765625-1.09375-1.390625 0-.765625.578125-1.4375 1.4375-1.4375 1.8125 0 2.0625 1.796875 2.125 2.28125.015625.078125.015625.140625.125.140625.140625 0 .140625-.0625.140625-.265625v-2.1875c0-.1875 0-.265625-.109375-.265625-.078125 0-.09375.015625-.171875.140625l-.375.625c-.328125-.3125-.78125-.765625-1.75-.765625-1.203125 0-2.125.953125-2.125 2.109375 0 .90625.578125 1.703125 1.4375 2 .109375.046875.671875.171875 1.4375.359375.296875.078125.609375.15625.921875.5625.234375.28125.34375.640625.34375 1 0 .765625-.546875 1.5625-1.46875 1.5625-.3125 0-1.140625-.0625-1.71875-.59375-.640625-.59375-.671875-1.28125-.671875-1.671875-.015625-.109375-.109375-.109375-.140625-.109375-.140625 0-.140625.0625-.140625.265625v2.1875c0 .171875 0 .25.125.25.078125 0 .078125-.015625.15625-.140625 0 0 .03125-.046875.390625-.625.34375.375 1.046875.765625 2.015625.765625 1.265625 0 2.140625-1.0625 2.140625-2.265625 0-1.09375-.71875-1.984375-1.625-2.203125zm0 0"/></symbol><symbol id="K" overflow="visible"><path d="m4.53125-3.671875c.28125-.6875.828125-.6875 1.015625-.6875v-.34375c-.25.03125-.578125.03125-.828125.03125-.1875 0-.703125-.015625-.9375-.03125v.34375c.328125 0 .5.1875.5.46875 0 .109375 0 .125-.0625.265625l-1.09375 2.671875-1.21875-2.921875c-.046875-.109375-.0625-.15625-.0625-.203125 0-.28125.40625-.28125.609375-.28125v-.34375c-.28125.015625-1 .03125-1.1875.03125-.296875 0-.734375 0-1.0625-.03125v.34375c.53125 0 .734375 0 .890625.375l1.625 3.984375c-.046875.140625-.203125.5-.265625.640625-.234375.609375-.546875 1.359375-1.25 1.359375-.046875 0-.296875 0-.5-.203125.328125-.046875.421875-.28125.421875-.453125 0-.28125-.203125-.453125-.453125-.453125-.21875 0-.46875.140625-.46875.46875 0 .484375.46875.875 1 .875.6875 0 1.140625-.625 1.40625-1.234375zm0 0"/></symbol><symbol id="L" overflow="visible"><path d="m1.75-.84375c-.109375.421875-.140625.5-1 .5-.1875 0-.296875 0-.296875.21875 0 .125.109375.125.296875.125h3.890625c1.734375 0 3.015625-1.28125 3.015625-2.359375 0-.78125-.625-1.421875-1.6875-1.53125 1.125-.203125 2.28125-1.015625 2.28125-2.046875 0-.8125-.71875-1.515625-2.03125-1.515625h-3.671875c-.203125 0-.3125 0-.3125.21875 0 .125.09375.125.3125.125.015625 0 .21875 0 .40625.015625.203125.03125.296875.03125.296875.171875 0 .046875-.015625.078125-.046875.21875zm1.640625-3.140625.671875-2.71875c.109375-.375.125-.40625.59375-.40625h1.40625c.96875 0 1.1875.640625 1.1875 1.125 0 .953125-.9375 2-2.265625 2zm-.484375 3.640625c-.15625 0-.1875 0-.25 0-.109375-.015625-.140625-.03125-.140625-.109375 0-.03125 0-.0625.0625-.25l.75-3.046875h2.0625c1.046875 0 1.25.8125 1.25 1.28125 0 1.078125-.96875 2.125-2.25 2.125zm0 0"/></symbol><symbol id="M" overflow="visible"><path d="m6.265625-6.203125c0-.828125-.59375-1.5-1.484375-1.5-.625 0-.9375.171875-1.3125.46875-.59375.421875-1.203125 1.484375-1.40625 2.3125l-1.734375 6.921875c-.015625.046875.046875.109375.125.109375.09375 0 .125-.015625.140625-.046875l.765625-3.015625c.203125.65625.6875 1.0625 1.46875 1.0625.796875 0 1.625-.375 2.109375-.859375.53125-.5.875-1.203125.875-2.015625 0-.78125-.40625-1.34375-.796875-1.625.640625-.359375 1.25-1.03125 1.25-1.8125zm-1.953125 1.8125c-.140625.046875-.265625.078125-.53125.078125-.15625 0-.375 0-.484375-.046875.03125-.109375.421875-.09375.546875-.09375.21875 0 .328125 0 .46875.0625zm1.34375-2.0625c0 .765625-.40625 1.546875-.984375 1.890625-.28125-.109375-.5-.140625-.828125-.140625-.234375 0-.84375-.015625-.84375.34375-.015625.3125.5625.28125.75.28125.40625 0 .5625-.015625.890625-.140625.421875.390625.46875.734375.484375 1.234375.015625.625-.234375 1.453125-.546875 1.875-.421875.578125-1.15625.984375-1.78125.984375-.828125 0-1.234375-.640625-1.234375-1.40625 0-.109375 0-.28125.046875-.484375l.703125-2.765625c.234375-.9375 1.03125-2.671875 2.328125-2.671875.640625 0 1.015625.34375 1.015625 1zm0 0"/></symbol><symbol id="N" overflow="visible"><path d="m5.203125-2.578125c0-1.703125-1.015625-2.25-1.828125-2.25-1.484375 0-2.921875 1.5625-2.921875 3.109375 0 1.015625.640625 1.84375 1.765625 1.84375.6875 0 1.46875-.25 2.296875-.921875.140625.578125.5.921875.984375.921875.578125 0 .921875-.609375.921875-.78125 0-.078125-.0625-.109375-.125-.109375-.078125 0-.109375.03125-.140625.109375-.203125.53125-.59375.53125-.609375.53125-.34375 0-.34375-.84375-.34375-1.109375 0-.234375 0-.25.109375-.375 1.03125-1.296875 1.25-2.5625 1.25-2.5625 0-.03125-.015625-.109375-.125-.109375s-.109375.03125-.171875.21875c-.1875.6875-.546875 1.515625-1.0625 2.171875zm-.734375 1.5c-.953125.84375-1.796875.953125-2.234375.953125-.65625 0-.984375-.484375-.984375-1.1875 0-.53125.28125-1.703125.640625-2.265625.515625-.796875 1.09375-1 1.484375-1 1.078125 0 1.078125 1.421875 1.078125 2.28125 0 .40625 0 1.03125.015625 1.21875zm0 0"/></symbol><symbol id="O" overflow="visible"><path d="m2.09375-.578125c0-.3125-.265625-.578125-.578125-.578125s-.578125.265625-.578125.578125.265625.578125.578125.578125.578125-.265625.578125-.578125zm0 0"/></symbol><symbol id="P" overflow="visible"><path d="m6.21875-2.421875c0-.640625-.28125-1.09375-1.140625-1.09375-.734375 0-1.109375.5-1.234375.734375-.140625-.578125-.59375-.734375-1.109375-.734375-.78125 0-1.140625.546875-1.25.765625v-.765625l-1.15625.09375v.265625c.546875 0 .609375.046875.609375.4375v2.09375c0 .359375-.09375.359375-.609375.359375v.265625c.34375-.03125.6875-.03125.90625-.03125.234375 0 .5625 0 .90625.03125v-.265625c-.5 0-.609375 0-.609375-.359375v-1.4375c0-.84375.640625-1.234375 1.140625-1.234375.515625 0 .609375.40625.609375.84375v1.828125c0 .359375-.109375.359375-.609375.359375v.265625c.34375-.03125.6875-.03125.90625-.03125.234375 0 .5625 0 .90625.03125v-.265625c-.515625 0-.609375 0-.609375-.359375v-1.4375c0-.84375.640625-1.234375 1.140625-1.234375.515625 0 .609375.40625.609375.84375v1.828125c0 .359375-.109375.359375-.609375.359375v.265625c.34375-.03125.6875-.03125.90625-.03125.234375 0 .5625 0 .90625.03125v-.265625c-.515625 0-.609375 0-.609375-.359375zm0 0"/></symbol><symbol id="Q" overflow="visible"><path d="m3.34375-2.375c0-.78125-.75-1.171875-1.484375-1.171875-.65625 0-1.25.25-1.25.78125 0 .234375.171875.375.375.375.234375 0 .375-.15625.375-.375 0-.1875-.109375-.328125-.296875-.359375.296875-.203125.734375-.203125.78125-.203125.453125 0 .890625.3125.890625.96875v.234375c-.453125.03125-.984375.046875-1.546875.28125-.703125.3125-.84375.765625-.84375 1.03125 0 .6875.8125.890625 1.359375.890625.578125 0 .9375-.328125 1.125-.640625.03125.296875.234375.609375.59375.609375.078125 0 .75-.03125.75-.765625v-.4375h-.25v.4375c0 .328125-.109375.453125-.28125.453125-.296875 0-.296875-.359375-.296875-.453125zm-.609375 1.25c0 .78125-.640625.984375-.96875.984375-.40625 0-.765625-.28125-.765625-.671875 0-.515625.5-1.0625 1.734375-1.09375zm0 0"/></symbol><symbol id="R" overflow="visible"><path d="m1.375-.546875c-.25-.03125-.4375-.234375-.4375-.53125 0-.1875.046875-.265625.09375-.328125.34375.1875.65625.234375.84375.234375.78125 0 1.375-.546875 1.375-1.171875 0-.296875-.140625-.5625-.328125-.765625.109375-.09375.375-.265625.765625-.265625-.03125.015625-.078125.0625-.078125.1875 0 .140625.109375.25.25.25.109375 0 .25-.078125.25-.265625 0-.125-.109375-.40625-.453125-.40625-.140625 0-.53125.046875-.890625.375-.203125-.140625-.515625-.28125-.890625-.28125-.78125 0-1.359375.546875-1.359375 1.171875 0 .375.203125.65625.375.8125-.1875.203125-.25.453125-.25.640625 0 .328125.171875.578125.34375.71875-.421875.109375-.75.421875-.75.78125 0 .578125.828125 1.03125 1.875 1.03125 1 0 1.875-.40625 1.875-1.046875 0-.421875-.25-.765625-.515625-.890625-.46875-.25-.859375-.25-1.640625-.25zm.5-.859375c-.734375 0-.734375-.765625-.734375-.9375 0-.296875.03125-.5.15625-.65625.140625-.1875.359375-.28125.578125-.28125.734375 0 .734375.765625.734375.9375 0 .296875-.03125.5-.15625.65625-.171875.234375-.421875.28125-.578125.28125zm.375 1.375c.21875 0 1.265625 0 1.265625.640625 0 .421875-.609375.796875-1.40625.796875s-1.40625-.375-1.40625-.796875c0-.171875.140625-.640625.78125-.640625zm0 0"/></symbol><symbol id="S" overflow="visible"><path d="m2.25-1.625c.125-.125.453125-.390625.59375-.5.484375-.453125.953125-.890625.953125-1.609375 0-.953125-.796875-1.5625-1.78125-1.5625-.96875 0-1.59375.71875-1.59375 1.4375 0 .390625.3125.4375.421875.4375.171875 0 .421875-.109375.421875-.421875 0-.40625-.40625-.40625-.5-.40625.234375-.59375.765625-.78125 1.15625-.78125.734375 0 1.125.625 1.125 1.296875 0 .828125-.578125 1.4375-1.53125 2.390625l-1 1.046875c-.09375.078125-.09375.09375-.09375.296875h3.140625l.234375-1.421875h-.25c-.015625.15625-.078125.546875-.171875.703125-.046875.0625-.65625.0625-.78125.0625h-1.421875zm0 0"/></symbol><symbol id="T" overflow="visible"><path d="m2.5-5.078125c0-.21875-.015625-.21875-.234375-.21875-.328125.3125-.75.5-1.5.5v.265625c.21875 0 .640625 0 1.109375-.203125v4.078125c0 .296875-.03125.390625-.78125.390625h-.28125v.265625c.328125-.03125 1.015625-.03125 1.375-.03125s1.046875 0 1.375.03125v-.265625h-.28125c-.75 0-.78125-.09375-.78125-.390625zm0 0"/></symbol><symbol id="U" overflow="visible"><path d="m7.484375-4.625c.1875 0 .390625 0 .390625-.21875s-.203125-.21875-.375-.21875h-6.515625c-.1875 0-.390625 0-.390625.21875s.21875.21875.40625.21875zm.015625 4.234375c.171875 0 .375 0 .375-.21875s-.203125-.21875-.390625-.21875h-6.484375c-.1875 0-.40625 0-.40625.21875s.203125.21875.390625.21875zm0-2.125c.171875 0 .375 0 .375-.203125 0-.21875-.203125-.21875-.375-.21875h-6.515625c-.1875 0-.390625 0-.390625.21875 0 .203125.203125.203125.390625.203125zm0 0"/></symbol><symbol id="V" overflow="visible"><path d="m7.1875-2.515625c.1875 0 .375 0 .375-.203125 0-.21875-.1875-.21875-.375-.21875h-5.90625c-.1875 0-.375 0-.375.21875 0 .203125.1875.203125.375.203125zm0 0"/></symbol><symbol id="W" overflow="visible"><path d="m7.34375-3.53125c.15625-.0625.21875-.140625.21875-.25 0-.09375-.03125-.171875-.21875-.25l-6-2.828125c-.15625-.078125-.203125-.078125-.21875-.078125-.125 0-.21875.09375-.21875.21875s.09375.1875.203125.234375l5.734375 2.703125-5.703125 2.6875c-.21875.09375-.234375.1875-.234375.25 0 .125.09375.21875.21875.21875.03125 0 .046875 0 .1875-.078125zm-.15625 5.03125c.1875 0 .375 0 .375-.21875s-.21875-.21875-.390625-.21875h-5.875c-.15625 0-.390625 0-.390625.21875s.1875.21875.375.21875zm0 0"/></symbol><symbol id="X" overflow="visible"><path d="m3 32.265625h3.234375v-.671875h-2.5625v-31.359375h2.5625v-.671875h-3.234375zm0 0"/></symbol><symbol id="Y" overflow="visible"><path d="m7.640625 25.625c0-.046875-.03125-.078125-.046875-.109375-.40625-.40625-1.140625-1.125-1.875-2.3125-1.75-2.8125-2.546875-6.359375-2.546875-10.546875 0-2.9375.390625-6.71875 2.1875-9.96875.875-1.546875 1.765625-2.453125 2.25-2.921875.03125-.03125.03125-.0625.03125-.09375 0-.109375-.078125-.109375-.234375-.109375s-.171875 0-.34375.171875c-3.65625 3.3125-4.796875 8.3125-4.796875 12.90625 0 4.28125.984375 8.609375 3.75 11.859375.21875.25.640625.703125 1.078125 1.09375.140625.140625.15625.140625.3125.140625s.234375 0 .234375-.109375zm0 0"/></symbol><symbol id="Z" overflow="visible"><path d="m5.75 12.65625c0-4.296875-.984375-8.609375-3.75-11.875-.21875-.25-.640625-.6875-1.078125-1.09375-.140625-.125-.15625-.125-.3125-.125-.125 0-.234375 0-.234375.109375 0 .046875.046875.09375.078125.109375.375.390625 1.109375 1.125 1.84375 2.296875 1.75 2.8125 2.546875 6.359375 2.546875 10.5625 0 2.9375-.390625 6.71875-2.1875 9.96875-.875 1.546875-1.765625 2.453125-2.234375 2.90625-.015625.03125-.046875.078125-.046875.109375 0 .109375.109375.109375.234375.109375.15625 0 .171875 0 .34375-.171875 3.65625-3.328125 4.796875-8.3125 4.796875-12.90625zm0 0"/></symbol><symbol id="aa" overflow="visible"><path d="m2.671875 31.59375h-2.546875v.671875h3.21875v-32.703125h-3.21875v.671875h2.546875zm0 0"/></symbol><g><use x="19.735" xlink:href="#a" y="11.152"/><use x="27.613552" xlink:href="#b" y="11.152"/><use x="33.674648" xlink:href="#c" y="11.152"/></g><use x="42.159" xlink:href="#L" y="11.152"/><g><use x="50.434" xlink:href="#P" y="12.788"/><use x="57.490727" xlink:href="#Q" y="12.788"/><use x="61.725241" xlink:href="#R" y="12.788"/></g><g><use x="70.211" xlink:href="#d" y="11.152"/><use x="75.059004" xlink:href="#e" y="11.152"/></g><g><use x="80.819009" xlink:href="#c" y="11.152"/><use x="85.667013" xlink:href="#c" y="11.152"/><use x="90.515017" xlink:href="#f" y="11.152"/><use x="96.576113" xlink:href="#d" y="11.152"/><use x="101.424117" xlink:href="#g" y="11.152"/><use x="104.454665" xlink:href="#c" y="11.152"/><use x="109.302669" xlink:href="#h" y="11.152"/></g><use x="115.05831" xlink:href="#i" y="11.152"/><g><use x="122.933589" xlink:href="#j" y="11.152"/><use x="127.206684" xlink:href="#c" y="11.152"/><use x="132.054688" xlink:href="#k" y="11.152"/><use x="138.115784" xlink:href="#j" y="11.152"/><use x="142.388878" xlink:href="#c" y="11.152"/><use x="147.236882" xlink:href="#l" y="11.152"/><use x="151.539431" xlink:href="#c" y="11.152"/></g><use x="156.398345" xlink:href="#h" y="11.152"/><g><use x="162.153986" xlink:href="#i" y="11.152"/><use x="166.396535" xlink:href="#l" y="11.152"/></g><g><use x="174.331814" xlink:href="#i" y="11.152"/><use x="178.574363" xlink:href="#b" y="11.152"/><use x="184.635459" xlink:href="#c" y="11.152"/></g><g><use x="193.116193" xlink:href="#m" y="11.152"/><use x="202.206746" xlink:href="#g" y="11.152"/><use x="205.237294" xlink:href="#l" y="11.152"/><use x="209.539843" xlink:href="#m" y="11.152"/><use x="218.630396" xlink:href="#n" y="11.152"/><use x="224.084946" xlink:href="#i" y="11.152"/><use x="228.327495" xlink:href="#d" y="11.152"/></g><use x="232.880954" xlink:href="#b" y="11.152"/><use x="242.57478" xlink:href="#o" y="11.152"/><g><use x="248.941331" xlink:href="#c" y="11.152"/><use x="253.789335" xlink:href="#i" y="11.152"/></g><use x="257.726429" xlink:href="#p" y="11.152"/><g><use x="265.299526" xlink:href="#c" y="11.152"/><use x="270.14753" xlink:href="#c" y="11.152"/><use x="274.995534" xlink:href="#h" y="11.152"/></g><use x="284.70027" xlink:href="#i" y="11.152"/><use x="288.637364" xlink:href="#p" y="11.152"/><use x="296.210461" xlink:href="#e" y="11.152"/><g><use x="305.297741" xlink:href="#e" y="11.152"/><use x="310.752291" xlink:href="#k" y="11.152"/><use x="316.813387" xlink:href="#i" y="11.152"/><use x="321.055936" xlink:href="#g" y="11.152"/><use x="324.086484" xlink:href="#d" y="11.152"/><use x="328.934488" xlink:href="#l" y="11.152"/><use x="333.237037" xlink:href="#q" y="11.152"/></g><use x="154.303" xlink:href="#L" y="45.384"/><g><use x="162.578" xlink:href="#P" y="47.02"/><use x="169.634727" xlink:href="#Q" y="47.02"/><use x="173.869241" xlink:href="#R" y="47.02"/></g><use x="181.749" xlink:href="#U" y="45.384"/><use x="194.46" xlink:href="#r" y="38.004"/><path d="m.0009375.00075h5.4531255" fill="none" stroke="#000" stroke-miterlimit="10" stroke-width=".436" transform="matrix(1 0 0 -1 194.46 42.657)"/><use x="194.46" xlink:href="#s" y="52.867"/><use x="202.928" xlink:href="#X" y="26.729"/><use x="210.487" xlink:href="#M" y="38.004"/><use x="216.657" xlink:href="#S" y="39.64"/><path d="m.00128125.00075h10.90234375" fill="none" stroke="#000" stroke-miterlimit="10" stroke-width=".436" transform="matrix(1 0 0 -1 210.487 42.657)"/><use x="210.487" xlink:href="#M" y="52.867"/><use x="216.657" xlink:href="#T" y="54.503"/><use x="225.009" xlink:href="#t" y="45.384"/><use x="237.114" xlink:href="#M" y="38.004"/><use x="243.285" xlink:href="#T" y="39.64"/><path d="m-.00071875.00075h10.90234375" fill="none" stroke="#000" stroke-miterlimit="10" stroke-width=".436" transform="matrix(1 0 0 -1 237.114 42.657)"/><use x="237.114" xlink:href="#M" y="52.867"/><use x="243.285" xlink:href="#S" y="54.503"/><use x="251.637" xlink:href="#t" y="45.384"/><use x="262.546" xlink:href="#M" y="45.384"/><use x="268.716" xlink:href="#T" y="47.02"/><use x="273.448" xlink:href="#M" y="45.384"/><use x="279.619" xlink:href="#S" y="47.02"/><use x="286.169" xlink:href="#Y" y="30.002"/><use x="295.395" xlink:href="#N" y="38.004"/><use x="302.374" xlink:href="#S" y="39.64"/><path d="m-.00046875.00075h11.71093775" fill="none" stroke="#000" stroke-miterlimit="10" stroke-width=".436" transform="matrix(1 0 0 -1 295.395 42.657)"/><use x="295.799" xlink:href="#M" y="52.867"/><use x="301.97" xlink:href="#S" y="54.503"/><use x="310.726" xlink:href="#V" y="45.384"/><use x="322.83" xlink:href="#N" y="38.004"/><use x="329.809" xlink:href="#T" y="39.64"/><path d="m-.001875.00075h11.710938" fill="none" stroke="#000" stroke-miterlimit="10" stroke-width=".436" transform="matrix(1 0 0 -1 322.83 42.657)"/><use x="323.234" xlink:href="#M" y="52.867"/><use x="329.405" xlink:href="#T" y="54.503"/><use x="335.737" xlink:href="#Z" y="30.002"/><use x="343.767" xlink:href="#S" y="32.721"/><use x="348.499" xlink:href="#aa" y="26.729"/><use x="358.499" xlink:href="#O" y="45.384"/><g><use x="493.64" xlink:href="#u" y="45.384"/><use x="497.882549" xlink:href="#v" y="45.384"/><use x="503.337099" xlink:href="#w" y="45.384"/><use x="508.791649" xlink:href="#x" y="45.384"/></g><g><use x="2.798" xlink:href="#y" y="78.551"/><use x="10.979825" xlink:href="#e" y="78.551"/><use x="16.434375" xlink:href="#i" y="78.551"/><use x="20.676924" xlink:href="#c" y="78.551"/></g><g><use x="28.994022" xlink:href="#i" y="78.551"/><use x="33.236571" xlink:href="#b" y="78.551"/><use x="39.297667" xlink:href="#n" y="78.551"/><use x="44.752217" xlink:href="#i" y="78.551"/></g><use x="52.469" xlink:href="#L" y="78.551"/><g><use x="60.744" xlink:href="#P" y="80.188"/><use x="67.800727" xlink:href="#Q" y="80.188"/><use x="72.035241" xlink:href="#R" y="80.188"/></g><use x="79.915" xlink:href="#W" y="78.551"/><g><use x="91.43" xlink:href="#r" y="78.551"/><use x="96.88455" xlink:href="#z" y="78.551"/></g><use x="104.709" xlink:href="#L" y="78.551"/><g><use x="112.983" xlink:href="#P" y="80.188"/><use x="120.039727" xlink:href="#Q" y="80.188"/><use x="124.274241" xlink:href="#R" y="80.188"/></g><g><use x="132.596" xlink:href="#g" y="78.551"/><use x="135.626548" xlink:href="#l" y="78.551"/></g><g><use x="143.398191" xlink:href="#d" y="78.551"/><use x="148.246195" xlink:href="#e" y="78.551"/><use x="153.700745" xlink:href="#h" y="78.551"/><use x="159.761841" xlink:href="#l" y="78.551"/><use x="164.06439" xlink:href="#c" y="78.551"/><use x="168.912394" xlink:href="#j" y="78.551"/><use x="173.185488" xlink:href="#A" y="78.551"/></g><g><use x="178.648766" xlink:href="#c" y="78.551"/><use x="183.49677" xlink:href="#B" y="78.551"/></g><g><use x="193.026959" xlink:href="#i" y="78.551"/><use x="197.269508" xlink:href="#b" y="78.551"/><use x="203.330604" xlink:href="#j" y="78.551"/><use x="207.603699" xlink:href="#e" y="78.551"/><use x="213.058249" xlink:href="#C" y="78.551"/><use x="219.119345" xlink:href="#D" y="78.551"/><use x="224.573895" xlink:href="#b" y="78.551"/></g><use x="234.104085" xlink:href="#n" y="78.551"/><use x="243.027728" xlink:href="#o" y="78.551"/><g><use x="249.394279" xlink:href="#c" y="78.551"/><use x="254.242283" xlink:href="#n" y="78.551"/><use x="259.696833" xlink:href="#m" y="78.551"/></g><g><use x="272.25648" xlink:href="#E" y="78.551"/><use x="275.287028" xlink:href="#g" y="78.551"/><use x="278.317576" xlink:href="#h" y="78.551"/><use x="284.378672" xlink:href="#c" y="78.551"/></g><g><use x="292.69577" xlink:href="#C" y="78.551"/><use x="298.756866" xlink:href="#h" y="78.551"/><use x="304.817962" xlink:href="#E" y="78.551"/><use x="307.84851" xlink:href="#c" y="78.551"/><use x="312.696514" xlink:href="#l" y="78.551"/><use x="316.999063" xlink:href="#l" y="78.551"/></g><g><use x="324.781615" xlink:href="#n" y="78.551"/><use x="330.236165" xlink:href="#h" y="78.551"/></g><g><use x="339.766354" xlink:href="#n" y="78.551"/><use x="345.220904" xlink:href="#B" y="78.551"/><use x="351.282" xlink:href="#B" y="78.551"/><use x="357.343096" xlink:href="#g" y="78.551"/><use x="360.373644" xlink:href="#i" y="78.551"/><use x="364.616193" xlink:href="#g" y="78.551"/><use x="367.646741" xlink:href="#e" y="78.551"/><use x="373.101291" xlink:href="#h" y="78.551"/><use x="379.162387" xlink:href="#n" y="78.551"/><use x="384.616937" xlink:href="#E" y="78.551"/></g><g><use x="391.116579" xlink:href="#m" y="78.551"/><use x="400.207132" xlink:href="#n" y="78.551"/><use x="405.661682" xlink:href="#d" y="78.551"/></g><g><use x="410.204231" xlink:href="#b" y="78.551"/><use x="416.265327" xlink:href="#g" y="78.551"/><use x="419.295875" xlink:href="#h" y="78.551"/><use x="425.356971" xlink:href="#c" y="78.551"/></g><g><use x="433.674069" xlink:href="#c" y="78.551"/><use x="438.522073" xlink:href="#j" y="78.551"/><use x="442.795168" xlink:href="#j" y="78.551"/><use x="447.068262" xlink:href="#e" y="78.551"/><use x="452.522812" xlink:href="#j" y="78.551"/></g><g><use x="460.275909" xlink:href="#n" y="78.551"/><use x="465.730459" xlink:href="#k" y="78.551"/><use x="471.791555" xlink:href="#k" y="78.551"/></g><g><use x="478.147197" xlink:href="#c" y="78.551"/><use x="482.995201" xlink:href="#n" y="78.551"/><use x="488.449751" xlink:href="#j" y="78.551"/><use x="492.722846" xlink:href="#l" y="78.551"/><use x="497.025395" xlink:href="#z" y="78.551"/></g><g><use x="504.855947" xlink:href="#F" y="78.551"/><use x="508.795223" xlink:href="#i" y="78.551"/></g><g><use x="2.798" xlink:href="#g" y="92.101"/><use x="5.828548" xlink:href="#l" y="92.101"/></g><use x="13.763827" xlink:href="#n" y="92.101"/><g><use x="22.862017" xlink:href="#j" y="92.101"/><use x="27.135111" xlink:href="#n" y="92.101"/><use x="32.589661" xlink:href="#i" y="92.101"/><use x="36.83221" xlink:href="#g" y="92.101"/><use x="39.862758" xlink:href="#e" y="92.101"/></g><g><use x="48.950038" xlink:href="#e" y="92.101"/><use x="54.404588" xlink:href="#G" y="92.101"/></g><g><use x="61.37114" xlink:href="#i" y="92.101"/><use x="65.613689" xlink:href="#b" y="92.101"/><use x="71.674785" xlink:href="#c" y="92.101"/></g><use x="80.166428" xlink:href="#n" y="92.101"/><use x="85.315523" xlink:href="#A" y="92.101"/><g><use x="90.767891" xlink:href="#c" y="92.101"/><use x="95.615896" xlink:href="#j" y="92.101"/><use x="99.88899" xlink:href="#n" y="92.101"/><use x="105.34354" xlink:href="#D" y="92.101"/><use x="110.79809" xlink:href="#c" y="92.101"/></g><g><use x="119.278824" xlink:href="#H" y="92.101"/><use x="127.157376" xlink:href="#e" y="92.101"/><use x="132.611926" xlink:href="#C" y="92.101"/><use x="138.673022" xlink:href="#j" y="92.101"/><use x="142.946117" xlink:href="#n" y="92.101"/><use x="148.400667" xlink:href="#h" y="92.101"/></g><g><use x="154.167217" xlink:href="#i" y="92.101"/><use x="158.409766" xlink:href="#I" y="92.101"/><use x="162.045769" xlink:href="#J" y="92.101"/><use x="168.106865" xlink:href="#h" y="92.101"/></g><g><use x="173.862506" xlink:href="#K" y="92.101"/><use x="179.620329" xlink:href="#B" y="92.101"/><use x="185.681425" xlink:href="#c" y="92.101"/><use x="190.529429" xlink:href="#j" y="92.101"/></g><g><use x="198.435254" xlink:href="#g" y="92.101"/><use x="201.465802" xlink:href="#h" y="92.101"/><use x="207.526898" xlink:href="#d" y="92.101"/><use x="212.374902" xlink:href="#n" y="92.101"/><use x="217.829452" xlink:href="#j" y="92.101"/><use x="222.102546" xlink:href="#g" y="92.101"/><use x="225.133094" xlink:href="#n" y="92.101"/><use x="230.587644" xlink:href="#h" y="92.101"/></g><use x="236.343286" xlink:href="#i" y="92.101"/><g><use x="244.218565" xlink:href="#i" y="92.101"/><use x="248.461114" xlink:href="#e" y="92.101"/></g><g><use x="257.559303" xlink:href="#i" y="92.101"/><use x="261.801852" xlink:href="#b" y="92.101"/><use x="267.862948" xlink:href="#c" y="92.101"/></g><g><use x="276.343682" xlink:href="#c" y="92.101"/><use x="281.191687" xlink:href="#m" y="92.101"/><use x="290.28224" xlink:href="#g" y="92.101"/><use x="293.312788" xlink:href="#i" y="92.101"/><use x="297.555337" xlink:href="#i" y="92.101"/><use x="301.797886" xlink:href="#n" y="92.101"/><use x="307.252436" xlink:href="#h" y="92.101"/><use x="313.313531" xlink:href="#d" y="92.101"/><use x="318.161536" xlink:href="#c" y="92.101"/><use x="323.00954" xlink:href="#z" y="92.101"/></g></svg>