<svg height="147pt" viewBox="0 0 517 147" width="517pt" xmlns="http://www.w3.org/2000/svg" xmlns:xlink="http://www.w3.org/1999/xlink"><symbol id="a" overflow="visible"><path d="m7.265625-7.390625h-6.671875l-.203125 2.46875h.28125c.140625-1.765625.3125-2.125 1.953125-2.125.203125 0 .484375 0 .59375.015625.234375.046875.234375.171875.234375.421875v5.75c0 .375 0 .515625-1.15625.515625h-.4375v.34375c.453125-.03125 1.5625-.03125 2.0625-.03125s1.625 0 2.078125.03125v-.34375h-.4375c-1.140625 0-1.140625-.140625-1.140625-.515625v-5.75c0-.21875 0-.375.1875-.421875.125-.015625.421875-.015625.625-.015625 1.640625 0 1.8125.359375 1.96875 2.125h.265625zm0 0"/></symbol><symbol id="b" overflow="visible"><path d="m1.203125-.828125c0 .484375-.125.484375-.859375.484375v.34375c.390625-.015625.9375-.03125 1.234375-.03125.28125 0 .859375.015625 1.21875.03125v-.34375c-.71875 0-.84375 0-.84375-.484375v-2c0-1.140625.765625-1.75 1.46875-1.75.6875 0 .8125.59375.8125 1.203125v2.546875c0 .484375-.125.484375-.859375.484375v.34375c.390625-.015625.9375-.03125 1.234375-.03125.28125 0 .859375.015625 1.21875.03125v-.34375c-.5625 0-.828125 0-.84375-.328125v-2.078125c0-.9375 0-1.28125-.34375-1.671875-.140625-.1875-.5-.40625-1.140625-.40625-.921875 0-1.390625.65625-1.578125 1.078125v-3.8125l-1.578125.109375v.34375c.765625 0 .859375.078125.859375.609375zm0 0"/></symbol><symbol id="c" overflow="visible"><path d="m1.21875-2.75c.0625-1.625.984375-1.890625 1.359375-1.890625 1.125 0 1.234375 1.46875 1.234375 1.890625zm-.015625.234375h3.046875c.25 0 .28125 0 .28125-.234375 0-1.078125-.59375-2.140625-1.953125-2.140625-1.265625 0-2.265625 1.125-2.265625 2.484375 0 1.46875 1.140625 2.53125 2.390625 2.53125 1.328125 0 1.828125-1.21875 1.828125-1.421875 0-.109375-.09375-.125-.140625-.125-.109375 0-.125.0625-.140625.140625-.390625 1.125-1.375 1.125-1.484375 1.125-.546875 0-.984375-.328125-1.234375-.734375-.328125-.515625-.328125-1.234375-.328125-1.625zm0 0"/></symbol><symbol id="d" overflow="visible"><path d="m6.6875-6.59375c0-.390625.015625-.515625.859375-.515625h.265625v-.34375c-.390625.03125-1.1875.03125-1.609375.03125-.40625 0-1.234375 0-1.609375-.03125v.34375h.265625c.828125 0 .859375.125.859375.515625v2.546875h-3.265625v-2.546875c0-.390625.015625-.515625.859375-.515625h.265625v-.34375c-.375.03125-1.1875.03125-1.609375.03125-.40625 0-1.234375 0-1.609375-.03125v.34375h.265625c.84375 0 .859375.125.859375.515625v5.75c0 .390625-.015625.5-.859375.5h-.265625v.34375c.375-.03125 1.1875-.03125 1.609375-.03125.40625 0 1.234375 0 1.609375.03125v-.34375h-.265625c-.84375 0-.859375-.109375-.859375-.5v-2.859375h3.265625v2.859375c0 .390625-.03125.5-.859375.5h-.265625v.34375c.375-.03125 1.1875-.03125 1.59375-.03125.421875 0 1.234375 0 1.625.03125v-.34375h-.265625c-.84375 0-.859375-.109375-.859375-.5zm0 0"/></symbol><symbol id="e" overflow="visible"><path d="m3.625-.828125c.046875.4375.34375.890625.859375.890625.234375 0 .890625-.15625.890625-1.03125v-.609375h-.265625v.609375c0 .625-.28125.703125-.390625.703125-.359375 0-.40625-.5-.40625-.546875v-2.1875c0-.453125 0-.875-.390625-1.28125-.4375-.4375-.984375-.609375-1.5-.609375-.890625 0-1.640625.515625-1.640625 1.234375 0 .328125.21875.515625.5.515625.296875 0 .5-.21875.5-.5 0-.140625-.0625-.5-.5625-.5.296875-.390625.828125-.5 1.1875-.5.53125 0 1.15625.421875 1.15625 1.390625v.40625c-.5625.03125-1.328125.0625-2.015625.390625-.8125.375-1.09375.9375-1.09375 1.421875 0 .875 1.0625 1.15625 1.75 1.15625.71875 0 1.21875-.4375 1.421875-.953125zm-.0625-1.796875v1.09375c0 1.046875-.796875 1.40625-1.28125 1.40625-.53125 0-.984375-.375-.984375-.921875 0-.59375.453125-1.5 2.265625-1.578125zm0 0"/></symbol><symbol id="f" overflow="visible"><path d="m1.203125-3.75v2.921875c0 .484375-.125.484375-.859375.484375v.34375c.390625-.015625.9375-.03125 1.234375-.03125.28125 0 .859375.015625 1.21875.03125v-.34375c-.71875 0-.84375 0-.84375-.484375v-2c0-1.140625.765625-1.75 1.46875-1.75.6875 0 .8125.59375.8125 1.203125v2.546875c0 .484375-.125.484375-.859375.484375v.34375c.390625-.015625.9375-.03125 1.234375-.03125.28125 0 .859375.015625 1.21875.03125v-.34375c-.71875 0-.84375 0-.84375-.484375v-2c0-1.140625.78125-1.75 1.46875-1.75s.8125.59375.8125 1.203125v2.546875c0 .484375-.125.484375-.859375.484375v.34375c.390625-.015625.9375-.03125 1.234375-.03125.28125 0 .859375.015625 1.21875.03125v-.34375c-.5625 0-.828125 0-.84375-.328125v-2.078125c0-.9375 0-1.28125-.34375-1.671875-.140625-.1875-.5-.40625-1.140625-.40625-.921875 0-1.390625.65625-1.578125 1.078125-.15625-.953125-.96875-1.078125-1.453125-1.078125-.796875 0-1.3125.46875-1.609375 1.15625v-1.15625l-1.546875.125v.34375c.765625 0 .859375.078125.859375.609375zm0 0"/></symbol><symbol id="g" overflow="visible"><path d="m1.9375-4.828125-1.53125.125v.34375c.703125 0 .796875.0625.796875.59375v2.9375c0 .484375-.109375.484375-.84375.484375v.34375c.34375-.015625.9375-.03125 1.203125-.03125.375 0 .765625.015625 1.125.03125v-.34375c-.71875 0-.75-.046875-.75-.46875zm.03125-1.890625c0-.34375-.265625-.578125-.578125-.578125-.328125 0-.578125.296875-.578125.578125 0 .296875.25.578125.578125.578125.3125 0 .578125-.234375.578125-.578125zm0 0"/></symbol><symbol id="h" overflow="visible"><path d="m1.9375-7.5625-1.578125.109375v.34375c.765625 0 .84375.078125.84375.609375v5.671875c0 .484375-.109375.484375-.84375.484375v.34375c.359375-.015625.9375-.03125 1.21875-.03125.265625 0 .796875.015625 1.203125.03125v-.34375c-.734375 0-.84375 0-.84375-.484375zm0 0"/></symbol><symbol id="i" overflow="visible"><path d="m1.890625-4.359375h1.5625v-.34375h-1.5625v-2h-.28125c0 .890625-.328125 2.0625-1.40625 2.09375v.25h.9375v3c0 1.34375 1.015625 1.484375 1.40625 1.484375.765625 0 1.078125-.78125 1.078125-1.484375v-.609375h-.28125v.59375c0 .8125-.328125 1.21875-.71875 1.21875-.734375 0-.734375-.984375-.734375-1.171875zm0 0"/></symbol><symbol id="j" overflow="visible"><path d="m5.140625-2.328125c0-1.40625-1.09375-2.5625-2.421875-2.5625-1.359375 0-2.40625 1.1875-2.40625 2.5625 0 1.40625 1.125 2.453125 2.40625 2.453125 1.3125 0 2.421875-1.078125 2.421875-2.453125zm-2.421875 2.171875c-.46875 0-.9375-.21875-1.234375-.734375-.28125-.46875-.28125-1.140625-.28125-1.53125 0-.421875 0-1.015625.265625-1.5.296875-.5.8125-.71875 1.25-.71875.484375 0 .953125.234375 1.234375.703125s.28125 1.109375.28125 1.515625c0 .390625 0 .984375-.25 1.46875-.234375.484375-.71875.796875-1.265625.796875zm0 0"/></symbol><symbol id="k" overflow="visible"><path d="m1.203125-3.75v2.921875c0 .484375-.125.484375-.859375.484375v.34375c.390625-.015625.9375-.03125 1.234375-.03125.28125 0 .859375.015625 1.21875.03125v-.34375c-.71875 0-.84375 0-.84375-.484375v-2c0-1.140625.765625-1.75 1.46875-1.75.6875 0 .8125.59375.8125 1.203125v2.546875c0 .484375-.125.484375-.859375.484375v.34375c.390625-.015625.9375-.03125 1.234375-.03125.28125 0 .859375.015625 1.21875.03125v-.34375c-.5625 0-.828125 0-.84375-.328125v-2.078125c0-.9375 0-1.28125-.34375-1.671875-.140625-.1875-.5-.40625-1.140625-.40625-.796875 0-1.3125.46875-1.609375 1.15625v-1.15625l-1.546875.125v.34375c.765625 0 .859375.078125.859375.609375zm0 0"/></symbol><symbol id="l" overflow="visible"><path d="m1.28125-2.375c0-1.78125.890625-2.234375 1.46875-2.234375.09375 0 .78125 0 1.171875.40625-.453125.03125-.515625.359375-.515625.5 0 .28125.1875.5.5.5.28125 0 .5-.1875.5-.515625 0-.734375-.828125-1.171875-1.671875-1.171875-1.359375 0-2.359375 1.1875-2.359375 2.53125 0 1.40625 1.078125 2.484375 2.34375 2.484375 1.453125 0 1.8125-1.3125 1.8125-1.421875s-.109375-.109375-.140625-.109375c-.109375 0-.125.046875-.140625.109375-.328125 1.015625-1.03125 1.140625-1.4375 1.140625-.578125 0-1.53125-.46875-1.53125-2.21875zm0 0"/></symbol><symbol id="m" overflow="visible"><path d="m1.875-4.109375v-3.453125l-1.5625.109375v.34375c.75 0 .84375.078125.84375.609375v6.5h.265625c.015625-.015625.109375-.15625.40625-.671875.15625.25.609375.796875 1.421875.796875 1.296875 0 2.4375-1.078125 2.4375-2.484375 0-1.375-1.078125-2.46875-2.3125-2.46875-.859375 0-1.328125.515625-1.5.71875zm.03125 2.859375v-2.234375c0-.21875 0-.21875.125-.390625.421875-.625 1.015625-.703125 1.28125-.703125.5 0 .890625.28125 1.140625.703125.296875.4375.328125 1.0625.328125 1.515625 0 .390625-.03125 1.046875-.34375 1.546875-.234375.328125-.640625.6875-1.234375.6875-.484375 0-.875-.25-1.140625-.65625-.15625-.234375-.15625-.265625-.15625-.46875zm0 0"/></symbol><symbol id="n" overflow="visible"><path d="m3.125-2.5625c.328125-.421875.75-.953125 1.015625-1.234375.328125-.390625.78125-.5625 1.296875-.5625v-.34375c-.296875.03125-.609375.03125-.90625.03125-.328125 0-.90625-.015625-1.046875-.03125v.34375c.234375.015625.328125.15625.328125.328125 0 .1875-.109375.328125-.171875.390625l-.671875.84375-.859375-1.09375c-.09375-.109375-.09375-.140625-.09375-.203125 0-.15625.171875-.265625.390625-.265625v-.34375c-.296875.015625-1.015625.03125-1.1875.03125-.21875 0-.734375 0-1.03125-.03125v.34375c.765625 0 .765625 0 1.28125.65625l1.078125 1.40625-1.015625 1.296875c-.53125.640625-1.171875.65625-1.40625.65625v.34375c.296875-.015625.625-.03125.90625-.03125.328125 0 .78125.015625 1.046875.03125v-.34375c-.25-.03125-.328125-.171875-.328125-.328125 0-.25.328125-.609375.984375-1.390625l.828125 1.09375c.09375.125.234375.296875.234375.359375 0 .09375-.09375.265625-.390625.265625v.34375c.328125-.015625.9375-.03125 1.171875-.03125.296875 0 .71875.015625 1.046875.03125v-.34375c-.59375 0-.78125-.015625-1.03125-.328125zm0 0"/></symbol><symbol id="o" overflow="visible"><path d="m1.875-4.09375v-.734375l-1.5625.125v.34375c.765625 0 .84375.0625.84375.546875v5.09375c0 .5-.125.5-.84375.5v.328125c.359375 0 .9375-.03125 1.21875-.03125.296875 0 .84375.03125 1.234375.03125v-.328125c-.734375 0-.859375 0-.859375-.5v-1.921875c.0625.171875.515625.765625 1.34375.765625 1.296875 0 2.4375-1.078125 2.4375-2.484375 0-1.375-1.0625-2.46875-2.28125-2.46875-.859375 0-1.3125.484375-1.53125.734375zm.03125 2.84375v-2.421875c.3125-.5625.859375-.875 1.40625-.875.796875 0 1.46875.953125 1.46875 2.1875 0 1.328125-.765625 2.234375-1.578125 2.234375-.4375 0-.84375-.21875-1.140625-.65625-.15625-.234375-.15625-.25-.15625-.46875zm0 0"/></symbol><symbol id="p" overflow="visible"><path d="m4.140625-.59375v.71875l1.609375-.125v-.34375c-.765625 0-.859375-.078125-.859375-.609375v-6.609375l-1.5625.109375v.34375c.765625 0 .84375.078125.84375.609375v2.359375c-.3125-.390625-.78125-.6875-1.375-.6875-1.28125 0-2.421875 1.078125-2.421875 2.484375 0 1.390625 1.0625 2.46875 2.3125 2.46875.6875 0 1.1875-.375 1.453125-.71875zm0-2.921875v2.234375c0 .1875 0 .21875-.109375.390625-.328125.53125-.828125.765625-1.296875.765625-.484375 0-.875-.28125-1.140625-.6875-.28125-.453125-.3125-1.078125-.3125-1.515625 0-.40625.015625-1.0625.328125-1.546875.234375-.34375.640625-.703125 1.234375-.703125.390625 0 .84375.15625 1.1875.65625.109375.1875.109375.203125.109375.40625zm0 0"/></symbol><symbol id="q" overflow="visible"><path d="m4.265625-.859375v.984375l1.5625-.125v-.34375c-.75 0-.84375-.078125-.84375-.609375v-3.875l-1.609375.125v.34375c.765625 0 .859375.078125.859375.609375v1.9375c0 .953125-.53125 1.6875-1.328125 1.6875-.90625 0-.953125-.5-.953125-1.078125v-3.625l-1.609375.125v.34375c.859375 0 .859375.03125.859375 1v1.640625c0 .84375 0 1.84375 1.65625 1.84375.609375 0 1.09375-.3125 1.40625-.984375zm0 0"/></symbol><symbol id="r" overflow="visible"><path d="m2.265625-2.109375c.25.03125 1.140625.21875 1.140625 1 0 .546875-.390625.984375-1.234375.984375-.921875 0-1.3125-.609375-1.515625-1.546875-.03125-.140625-.046875-.1875-.15625-.1875-.140625 0-.140625.078125-.140625.28125v1.4375c0 .1875 0 .265625.125.265625.046875 0 .0625-.015625.265625-.21875.03125-.03125.03125-.046875.21875-.25.484375.453125.96875.46875 1.203125.46875 1.25 0 1.75-.734375 1.75-1.515625 0-.578125-.328125-.90625-.453125-1.046875-.359375-.34375-.78125-.4375-1.25-.515625-.609375-.125-1.328125-.265625-1.328125-.890625 0-.390625.28125-.828125 1.21875-.828125 1.1875 0 1.25.96875 1.265625 1.3125.015625.09375.109375.09375.140625.09375.140625 0 .140625-.046875.140625-.25v-1.109375c0-.1875 0-.265625-.125-.265625-.046875 0-.078125 0-.21875.140625-.03125.03125-.140625.140625-.1875.171875-.40625-.3125-.859375-.3125-1.015625-.3125-1.328125 0-1.75.734375-1.75 1.34375 0 .390625.171875.6875.46875.921875.34375.296875.65625.359375 1.4375.515625zm0 0"/></symbol><symbol id="s" overflow="visible"><path d="m1.828125-3.625v-1.203125l-1.515625.125v.34375c.75 0 .84375.078125.84375.609375v2.921875c0 .484375-.125.484375-.84375.484375v.34375c.421875-.015625.9375-.03125 1.234375-.03125.4375 0 .953125 0 1.390625.03125v-.34375h-.234375c-.8125 0-.828125-.109375-.828125-.5v-1.6875c0-1.078125.453125-2.046875 1.28125-2.046875.078125 0 .109375 0 .125.015625-.03125 0-.25.140625-.25.421875 0 .296875.234375.46875.46875.46875.203125 0 .46875-.140625.46875-.484375s-.34375-.671875-.8125-.671875c-.796875 0-1.1875.734375-1.328125 1.203125zm0 0"/></symbol><symbol id="t" overflow="visible"><path d="m1.90625-4.703125v-1.265625c0-.953125.53125-1.484375 1-1.484375.03125 0 .203125 0 .359375.078125-.125.046875-.328125.1875-.328125.453125s.1875.46875.46875.46875c.328125 0 .484375-.203125.484375-.46875 0-.40625-.40625-.765625-.984375-.765625-.75 0-1.6875.578125-1.6875 1.734375v1.25h-.859375v.34375h.859375v3.53125c0 .484375-.125.484375-.84375.484375v.34375c.421875-.015625.9375-.03125 1.234375-.03125.4375 0 .953125 0 1.390625.03125v-.34375h-.234375c-.796875 0-.828125-.109375-.828125-.5v-3.515625h1.25v-.34375zm0 0"/></symbol><symbol id="u" overflow="visible"><path d="m4.53125-3.625c.109375-.25.296875-.734375 1.015625-.734375v-.34375c-.25.03125-.578125.03125-.828125.03125-.265625 0-.765625-.015625-.9375-.03125v.34375c.390625 0 .515625.265625.515625.46875 0 .09375-.015625.140625-.0625.265625l-1.109375 2.78125-1.234375-3.046875c-.0625-.140625-.0625-.171875-.0625-.1875 0-.28125.421875-.28125.625-.28125v-.34375c-.328125.015625-.9375.03125-1.1875.03125-.296875 0-.734375 0-1.0625-.03125v.34375c.6875 0 .734375.0625.875.40625l1.578125 3.859375c.0625.15625.078125.21875.21875.21875s.1875-.109375.234375-.21875zm0 0"/></symbol><symbol id="v" overflow="visible"><path d="m2.09375-4.125c0-.3125-.265625-.578125-.578125-.578125s-.578125.265625-.578125.578125.265625.578125.578125.578125.578125-.265625.578125-.578125zm0 3.546875c0-.3125-.265625-.578125-.578125-.578125s-.578125.265625-.578125.578125.265625.578125.578125.578125.578125-.265625.578125-.578125zm0 0"/></symbol><symbol id="w" overflow="visible"><path d="m7.5-3.5625c.15625 0 .359375 0 .359375-.21875s-.203125-.21875-.359375-.21875h-6.53125c-.15625 0-.359375 0-.359375.21875s.203125.21875.375.21875zm0 2.109375c.15625 0 .359375 0 .359375-.21875s-.203125-.21875-.359375-.21875h-6.515625c-.171875 0-.375 0-.375.21875s.203125.21875.359375.21875zm0 0"/></symbol><symbol id="x" overflow="visible"><path d="m4.453125-2.515625h3.046875c.15625 0 .359375 0 .359375-.203125 0-.21875-.203125-.21875-.359375-.21875h-3.046875v-3.0625c0-.15625 0-.359375-.203125-.359375-.21875 0-.21875.203125-.21875.359375v3.0625h-3.0625c-.15625 0-.359375 0-.359375.21875 0 .203125.203125.203125.359375.203125h3.0625v3.0625c0 .15625 0 .359375.21875.359375.203125 0 .203125-.203125.203125-.359375zm0 0"/></symbol><symbol id="y" overflow="visible"><path d="m3.609375 2.625c0-.046875 0-.0625-.1875-.25-1.359375-1.375-1.703125-3.4375-1.703125-5.09375 0-1.90625.40625-3.796875 1.75-5.171875.140625-.125.140625-.140625.140625-.1875 0-.0625-.046875-.09375-.109375-.09375-.109375 0-1.09375.734375-1.734375 2.125-.5625 1.1875-.6875 2.40625-.6875 3.328125 0 .84375.125 2.15625.71875 3.390625.65625 1.34375 1.59375 2.046875 1.703125 2.046875.0625 0 .109375-.03125.109375-.09375zm0 0"/></symbol><symbol id="z" overflow="visible"><path d="m3.203125-6.984375c0-.25 0-.28125-.25-.28125-.671875.703125-1.640625.703125-1.984375.703125v.328125c.21875 0 .859375 0 1.4375-.28125v5.65625c0 .390625-.046875.515625-1.015625.515625h-.359375v.34375c.390625-.03125 1.328125-.03125 1.765625-.03125s1.390625 0 1.765625.03125v-.34375h-.34375c-.984375 0-1.015625-.109375-1.015625-.515625zm0 0"/></symbol><symbol id="A" overflow="visible"><path d="m1.78125-4.984375c-.5-.328125-.546875-.703125-.546875-.890625 0-.65625.703125-1.109375 1.484375-1.109375.796875 0 1.484375.5625 1.484375 1.34375 0 .625-.421875 1.140625-1.078125 1.53125zm1.59375 1.03125c.78125-.40625 1.3125-.96875 1.3125-1.6875 0-1-.96875-1.625-1.96875-1.625-1.078125 0-1.96875.8125-1.96875 1.828125 0 .1875.03125.6875.484375 1.1875.125.140625.515625.40625.796875.59375-.640625.3125-1.578125.9375-1.578125 2.015625 0 1.15625 1.125 1.875 2.265625 1.875 1.234375 0 2.265625-.90625 2.265625-2.0625 0-.390625-.125-.890625-.53125-1.34375-.203125-.234375-.390625-.34375-1.078125-.78125zm-1.09375.46875 1.34375.84375c.296875.203125.8125.53125.8125 1.203125 0 .8125-.8125 1.375-1.71875 1.375-.9375 0-1.71875-.671875-1.71875-1.578125 0-.640625.359375-1.34375 1.28125-1.84375zm0 0"/></symbol><symbol id="B" overflow="visible"><path d="m3.15625-2.71875c0-.859375-.125-2.171875-.71875-3.40625-.65625-1.34375-1.59375-2.046875-1.703125-2.046875-.0625 0-.109375.03125-.109375.09375 0 .046875 0 .0625.203125.265625 1.0625 1.078125 1.6875 2.8125 1.6875 5.09375 0 1.859375-.40625 3.78125-1.75 5.15625-.140625.125-.140625.140625-.140625.1875 0 .0625.046875.09375.109375.09375.109375 0 1.09375-.734375 1.734375-2.125.546875-1.1875.6875-2.40625.6875-3.3125zm0 0"/></symbol><symbol id="C" overflow="visible"><path d="m1.390625-.84375 1.15625-1.125c1.703125-1.5 2.34375-2.09375 2.34375-3.171875 0-1.25-.96875-2.125-2.3125-2.125-1.21875 0-2.03125 1-2.03125 1.96875 0 .625.546875.625.578125.625.1875 0 .5625-.140625.5625-.578125 0-.296875-.1875-.578125-.578125-.578125-.078125 0-.109375 0-.140625.015625.25-.703125.84375-1.109375 1.46875-1.109375 1 0 1.46875.875 1.46875 1.78125 0 .859375-.546875 1.734375-1.140625 2.40625l-2.09375 2.328125c-.125.125-.125.140625-.125.40625h4.046875l.296875-1.890625h-.265625c-.0625.3125-.125.796875-.234375.96875-.078125.078125-.796875.078125-1.046875.078125zm0 0"/></symbol><symbol id="D" overflow="visible"><path d="m4-3.46875v.34375c0 2.5625-1.125 3.0625-1.765625 3.0625-.1875 0-.765625-.03125-1.0625-.390625.46875 0 .5625-.328125.5625-.5 0-.34375-.265625-.515625-.5-.515625-.171875 0-.5.109375-.5.53125 0 .734375.578125 1.171875 1.515625 1.171875 1.40625 0 2.734375-1.484375 2.734375-3.828125 0-2.921875-1.25-3.671875-2.21875-3.671875-.609375 0-1.140625.203125-1.609375.6875-.453125.5-.703125.953125-.703125 1.765625 0 1.359375.96875 2.4375 2.1875 2.4375.65625 0 1.109375-.453125 1.359375-1.09375zm-1.34375.84375c-.1875 0-.6875 0-1.015625-.6875-.203125-.40625-.203125-.953125-.203125-1.484375 0-.59375 0-1.109375.234375-1.5.296875-.546875.703125-.6875 1.09375-.6875.5 0 .859375.359375 1.046875.859375.125.34375.171875 1.03125.171875 1.53125 0 .90625-.375 1.96875-1.328125 1.96875zm0 0"/></symbol><symbol id="E" overflow="visible"><path d="m6.75-3.671875c.203125-.53125.53125-.6875.921875-.6875v-.34375c-.25.03125-.5625.03125-.796875.03125-.328125 0-.8125-.015625-1.015625-.03125v.34375c.390625 0 .625.203125.625.515625 0 .0625 0 .09375-.046875.234375l-1 2.796875-1.078125-3.046875c-.046875-.125-.046875-.15625-.046875-.203125 0-.296875.421875-.296875.640625-.296875v-.34375c-.3125.015625-.875.03125-1.140625.03125-.328125 0-.640625 0-.96875-.03125v.34375c.40625 0 .578125.015625.6875.15625.0625.0625.171875.390625.25.609375l-.9375 2.640625-1.03125-2.921875c-.0625-.125-.0625-.15625-.0625-.1875 0-.296875.4375-.296875.65625-.296875v-.34375c-.328125.015625-.9375.03125-1.203125.03125-.03125 0-.609375 0-1-.03125v.34375c.53125 0 .671875.03125.796875.375l1.375 3.859375c.0625.15625.09375.25.234375.25s.15625-.078125.21875-.21875l1.09375-3.09375 1.109375 3.09375c.046875.125.078125.21875.21875.21875.15625 0 .1875-.109375.21875-.21875zm0 0"/></symbol><symbol id="F" overflow="visible"><path d="m3.59375-4.359375c.5 0 .578125.140625.578125.578125v2.953125c0 .484375-.109375.484375-.84375.484375v.34375c.359375-.015625.9375-.03125 1.203125-.03125.28125 0 .8125.015625 1.21875.03125v-.34375c-.734375 0-.859375 0-.859375-.484375v-4l-1.375.09375c-.171875.015625-.171875.015625-.1875.015625-.03125.015625-.046875.015625-.203125.015625h-1.28125v-1.234375c0-1.078125.9375-1.515625 1.609375-1.515625.328125 0 .71875.109375.9375.359375-.4375.03125-.515625.328125-.515625.5 0 .359375.296875.515625.5.515625.25 0 .5-.1875.5-.515625 0-.640625-.59375-1.09375-1.40625-1.09375-1.015625 0-2.3125.5625-2.3125 1.75v1.234375h-.859375v.34375h.859375v3.53125c0 .484375-.125.484375-.84375.484375v.34375c.359375-.015625.9375-.03125 1.203125-.03125s.8125.015625 1.203125.03125v-.34375c-.71875 0-.84375 0-.84375-.484375v-3.53125zm0 0"/></symbol><symbol id="G" overflow="visible"><path d="m2.21875-.015625c0-.6875-.265625-1.140625-.703125-1.140625-.375 0-.578125.296875-.578125.578125s.1875.578125.578125.578125c.171875 0 .3125-.0625.421875-.15625l.015625-.015625c.015625 0 .015625.015625.015625.15625 0 .703125-.296875 1.375-.78125 1.875-.0625.078125-.078125.078125-.078125.125 0 .078125.0625.125.109375.125.140625 0 1-.859375 1-2.125zm0 0"/></symbol><symbol id="H" overflow="visible"><path d="m2.421875-1.875c-.953125 0-.953125-1.09375-.953125-1.34375 0-.296875.015625-.640625.171875-.921875.09375-.125.34375-.421875.78125-.421875.953125 0 .953125 1.078125.953125 1.328125 0 .296875-.015625.65625-.171875.921875-.09375.125-.34375.4375-.78125.4375zm-1.265625.421875c0-.046875 0-.296875.1875-.515625.421875.3125.875.34375 1.078125.34375 1.015625 0 1.765625-.75 1.765625-1.59375 0-.40625-.171875-.8125-.453125-1.0625.40625-.359375.796875-.421875.984375-.421875.03125 0 .078125 0 .109375.015625-.109375.046875-.171875.15625-.171875.296875 0 .1875.140625.3125.3125.3125.109375 0 .328125-.078125.328125-.328125 0-.1875-.140625-.53125-.5625-.53125-.21875 0-.703125.0625-1.15625.515625-.453125-.359375-.921875-.40625-1.15625-.40625-1.015625 0-1.765625.765625-1.765625 1.59375 0 .484375.234375.90625.515625 1.125-.140625.171875-.34375.53125-.34375.90625 0 .34375.140625.75.484375.96875-.65625.1875-1 .65625-1 1.09375 0 .78125 1.078125 1.390625 2.40625 1.390625 1.28125 0 2.421875-.5625 2.421875-1.40625 0-.390625-.15625-.9375-.71875-1.25-.578125-.296875-1.203125-.296875-1.875-.296875-.265625 0-.734375 0-.8125-.015625-.34375-.046875-.578125-.375-.578125-.734375zm1.5625 3.453125c-1.09375 0-1.84375-.5625-1.84375-1.140625 0-.5.40625-.90625.890625-.9375h.640625c.9375 0 2.15625 0 2.15625.9375 0 .59375-.765625 1.140625-1.84375 1.140625zm0 0"/></symbol><symbol id="I" overflow="visible"><path d="m4.53125-3.671875c.28125-.6875.828125-.6875 1.015625-.6875v-.34375c-.25.03125-.578125.03125-.828125.03125-.1875 0-.703125-.015625-.9375-.03125v.34375c.328125 0 .5.1875.5.46875 0 .109375 0 .125-.0625.265625l-1.09375 2.671875-1.21875-2.921875c-.046875-.109375-.0625-.15625-.0625-.203125 0-.28125.40625-.28125.609375-.28125v-.34375c-.28125.015625-1 .03125-1.1875.03125-.296875 0-.734375 0-1.0625-.03125v.34375c.53125 0 .734375 0 .890625.375l1.625 3.984375c-.046875.140625-.203125.5-.265625.640625-.234375.609375-.546875 1.359375-1.25 1.359375-.046875 0-.296875 0-.5-.203125.328125-.046875.421875-.28125.421875-.453125 0-.28125-.203125-.453125-.453125-.453125-.21875 0-.46875.140625-.46875.46875 0 .484375.46875.875 1 .875.6875 0 1.140625-.625 1.40625-1.234375zm0 0"/></symbol><symbol id="J" overflow="visible"><path d="m2.09375-.578125c0-.3125-.265625-.578125-.578125-.578125s-.578125.265625-.578125.578125.265625.578125.578125.578125.578125-.265625.578125-.578125zm0 0"/></symbol><symbol id="K" overflow="visible"><path d="m2.53125-7.3125c-.09375-.125-.109375-.140625-.3125-.140625h-1.859375v.34375h.3125c.171875 0 .390625.015625.546875.015625.25.03125.265625.046875.265625.25v5.703125c0 .296875 0 .796875-1.125.796875v.34375c.375-.015625.921875-.03125 1.28125-.03125s.890625.015625 1.265625.03125v-.34375c-1.125 0-1.125-.5-1.125-.796875v-5.671875c.0625.046875.078125.0625.109375.125l4.453125 6.546875c.109375.125.109375.140625.1875.140625.15625 0 .15625-.078125.15625-.28125v-6.015625c0-.296875 0-.8125 1.125-.8125v-.34375c-.390625.015625-.921875.03125-1.28125.03125s-.890625-.015625-1.28125-.03125v.34375c1.125 0 1.125.515625 1.125.8125v4.65625zm0 0"/></symbol><symbol id="L" overflow="visible"><path d="m5.015625-3.484375c0-.875-.046875-1.75-.4375-2.5625-.5-1.046875-1.390625-1.21875-1.859375-1.21875-.640625 0-1.4375.28125-1.890625 1.296875-.34375.75-.40625 1.609375-.40625 2.484375 0 .8125.046875 1.796875.5 2.625.46875.875 1.265625 1.09375 1.796875 1.09375.578125 0 1.421875-.21875 1.890625-1.265625.359375-.75.40625-1.59375.40625-2.453125zm-2.296875 3.484375c-.421875 0-1.078125-.265625-1.265625-1.3125-.125-.65625-.125-1.671875-.125-2.3125 0-.6875 0-1.40625.09375-2 .203125-1.296875 1.015625-1.40625 1.296875-1.40625.359375 0 1.078125.203125 1.28125 1.28125.109375.609375.109375 1.4375.109375 2.125 0 .828125 0 1.5625-.125 2.265625-.15625 1.03125-.78125 1.359375-1.265625 1.359375zm0 0"/></symbol><symbol id="M" overflow="visible"><path d="m4.140625-.671875v1.953125c0 .5-.109375.5-.84375.5v.328125c.375 0 .9375-.03125 1.21875-.03125.296875 0 .84375.03125 1.234375.03125v-.328125c-.734375 0-.859375 0-.859375-.5v-6.109375h-.234375l-.40625 1c-.15625-.3125-.59375-1-1.46875-1-1.265625 0-2.40625 1.0625-2.40625 2.484375 0 1.359375 1.046875 2.46875 2.3125 2.46875.765625 0 1.21875-.46875 1.453125-.796875zm.03125-2.34375v1.53125c0 .34375-.1875.65625-.4375.921875-.140625.140625-.484375.4375-1 .4375-.796875 0-1.453125-.96875-1.453125-2.21875 0-1.296875.765625-2.203125 1.5625-2.203125.875 0 1.328125.953125 1.328125 1.53125zm0 0"/></symbol><symbol id="N" overflow="visible"><path d="m2.453125-6.59375c0-.390625.03125-.515625.890625-.515625h.28125v-.34375c-.375.03125-1.234375.03125-1.65625.03125s-1.28125 0-1.65625-.03125v.34375h.28125c.859375 0 .890625.125.890625.515625v5.75c0 .390625-.03125.5-.890625.5h-.28125v.34375c.375-.03125 1.234375-.03125 1.65625-.03125s1.28125 0 1.65625.03125v-.34375h-.28125c-.859375 0-.890625-.109375-.890625-.5zm0 0"/></symbol><symbol id="O" overflow="visible"><path d="m1.15625-.828125c0 .484375-.125.484375-.84375.484375v.34375c.359375-.015625.859375-.03125 1.1875-.03125s.75.015625 1.1875.03125v-.34375c-.71875 0-.84375 0-.84375-.484375v-1.125l.703125-.59375c.828125 1.15625 1.296875 1.765625 1.296875 1.953125 0 .21875-.1875.25-.390625.25v.34375c.296875-.015625.9375-.03125 1.171875-.03125.3125 0 .625.015625.953125.03125v-.34375c-.40625 0-.65625 0-1.0625-.578125l-1.390625-1.953125c0-.015625-.0625-.078125-.0625-.109375 0-.046875.78125-.703125.890625-.796875.6875-.546875 1.140625-.578125 1.375-.578125v-.34375c-.328125.03125-.46875.03125-.765625.03125-.390625 0-1.078125-.015625-1.21875-.03125v.34375c.203125 0 .3125.125.3125.265625 0 .21875-.15625.359375-.25.421875l-1.53125 1.34375v-5.234375l-1.5625.109375v.34375c.75 0 .84375.078125.84375.609375zm0 0"/></symbol><symbol id="P" overflow="visible"><path d="m3.015625-2.046875v-.625h-2.890625v.625zm0 0"/></symbol><symbol id="Q" overflow="visible"><path d="m6.34375-2.515625c0 1.546875-1.046875 2.421875-2.09375 2.421875-.515625 0-1.796875-.28125-1.796875-2.34375v-4.15625c0-.390625.015625-.515625.859375-.515625h.265625v-.34375c-.375.03125-1.1875.03125-1.609375.03125-.40625 0-1.234375 0-1.609375-.03125v.34375h.265625c.84375 0 .859375.125.859375.515625v4.109375c0 1.53125 1.265625 2.71875 2.75 2.71875 1.25 0 2.234375-1.015625 2.421875-2.25.03125-.21875.03125-.3125.03125-.75v-3.5c0-.359375 0-.84375 1.125-.84375v-.34375c-.390625.015625-.921875.03125-1.296875.03125s-.90625-.015625-1.296875-.03125v.34375c1.125 0 1.125.515625 1.125.8125zm0 0"/></symbol><symbol id="R" overflow="visible"><path d="m3.8125-4.234375-1.40625-.328125c-.671875-.171875-1.09375-.765625-1.09375-1.390625 0-.765625.578125-1.4375 1.4375-1.4375 1.8125 0 2.0625 1.796875 2.125 2.28125.015625.078125.015625.140625.125.140625.140625 0 .140625-.0625.140625-.265625v-2.1875c0-.1875 0-.265625-.109375-.265625-.078125 0-.09375.015625-.171875.140625l-.375.625c-.328125-.3125-.78125-.765625-1.75-.765625-1.203125 0-2.125.953125-2.125 2.109375 0 .90625.578125 1.703125 1.4375 2 .109375.046875.671875.171875 1.4375.359375.296875.078125.609375.15625.921875.5625.234375.28125.34375.640625.34375 1 0 .765625-.546875 1.5625-1.46875 1.5625-.3125 0-1.140625-.0625-1.71875-.59375-.640625-.59375-.671875-1.28125-.671875-1.671875-.015625-.109375-.109375-.109375-.140625-.109375-.140625 0-.140625.0625-.140625.265625v2.1875c0 .171875 0 .25.125.25.078125 0 .078125-.015625.15625-.140625 0 0 .03125-.046875.390625-.625.34375.375 1.046875.765625 2.015625.765625 1.265625 0 2.140625-1.0625 2.140625-2.265625 0-1.09375-.71875-1.984375-1.625-2.203125zm0 0"/></symbol><symbol id="S" overflow="visible"><path d="m4.34375-7.59375c-.0625-.140625-.078125-.21875-.25-.21875s-.21875.0625-.265625.21875l-2.25 6.53125c-.203125.546875-.640625.71875-1.234375.71875v.34375c.25-.015625.71875-.03125 1.125-.03125.328125 0 .890625.015625 1.25.03125v-.34375c-.546875 0-.828125-.265625-.828125-.546875 0-.03125.015625-.140625.03125-.171875l.5-1.421875h2.6875l.578125 1.671875c.015625.03125.03125.109375.03125.140625 0 .328125-.609375.328125-.890625.328125v.34375c.390625-.03125 1.15625-.03125 1.5625-.03125.46875 0 .96875.015625 1.421875.03125v-.34375h-.1875c-.65625 0-.8125-.078125-.921875-.4375zm-.578125 1.21875 1.234375 3.546875h-2.453125zm0 0"/></symbol><symbol id="T" overflow="visible"><path d="m.375-7.453125v.34375h.265625c.84375 0 .859375.125.859375.515625v5.75c0 .390625-.015625.5-.859375.5h-.265625v.34375h4c1.828125 0 3.328125-1.609375 3.328125-3.671875s-1.46875-3.78125-3.328125-3.78125zm2.609375 7.109375c-.515625 0-.546875-.078125-.546875-.4375v-5.890625c0-.359375.03125-.4375.546875-.4375h1.078125c.6875 0 1.4375.234375 1.984375 1.015625.46875.640625.578125 1.578125.578125 2.421875 0 1.21875-.21875 1.875-.609375 2.40625-.21875.296875-.828125.921875-1.9375.921875zm0 0"/></symbol><symbol id="U" overflow="visible"><path d="m8.328125-6.609375c.09375-.390625.109375-.5.90625-.5.28125 0 .375 0 .375-.21875 0-.125-.125-.125-.15625-.125-.296875 0-1.09375.03125-1.390625.03125-.3125 0-1.09375-.03125-1.40625-.03125-.09375 0-.203125 0-.203125.21875 0 .125.09375.125.296875.125.015625 0 .234375 0 .421875.015625.1875.03125.28125.03125.28125.171875 0 .046875 0 .078125-.03125.21875l-.65625 2.65625h-3.328125l.640625-2.5625c.09375-.390625.125-.5.921875-.5.28125 0 .359375 0 .359375-.21875 0-.125-.109375-.125-.140625-.125-.3125 0-1.09375.03125-1.40625.03125s-1.09375-.03125-1.40625-.03125c-.078125 0-.203125 0-.203125.21875 0 .125.09375.125.3125.125.015625 0 .21875 0 .40625.015625.203125.03125.296875.03125.296875.171875 0 .046875-.015625.078125-.046875.21875l-1.453125 5.859375c-.109375.421875-.140625.5-1 .5-.1875 0-.296875 0-.296875.21875 0 .125.140625.125.15625.125.3125 0 1.078125-.03125 1.390625-.03125.21875 0 .46875.015625.6875.015625.25 0 .484375.015625.71875.015625.078125 0 .21875 0 .21875-.21875 0-.125-.109375-.125-.3125-.125-.40625 0-.703125 0-.703125-.1875 0-.0625.015625-.125.03125-.1875l.734375-2.984375h3.328125c-.453125 1.8125-.703125 2.84375-.75 3-.109375.359375-.3125.359375-1 .359375-.15625 0-.25 0-.25.21875 0 .125.125.125.15625.125.296875 0 1.078125-.03125 1.375-.03125.234375 0 .46875.015625.703125.015625s.484375.015625.703125.015625c.09375 0 .21875 0 .21875-.21875 0-.125-.09375-.125-.296875-.125-.40625 0-.71875 0-.71875-.1875 0-.0625.03125-.125.03125-.1875zm0 0"/></symbol><symbol id="V" overflow="visible"><path d="m6.734375-7.546875c-.046875-.21875-.0625-.265625-.25-.265625-.109375 0-.1875 0-.34375.203125l-5.515625 7.390625c-.09375.109375-.09375.125-.09375.15625 0 .046875.015625.0625.25.0625h7.515625c.1875 0 .28125 0 .28125-.109375 0-.046875 0-.109375-.015625-.15625zm-.828125.765625 1.5 6h-5.984375zm0 0"/></symbol><symbol id="W" overflow="visible"><path d="m2.21875-.015625c0-.71875-.28125-1.140625-.703125-1.140625-.359375 0-.578125.265625-.578125.578125 0 .296875.21875.578125.578125.578125.125 0 .265625-.046875.375-.140625.046875-.015625.046875-.03125.0625-.03125s.015625.015625.015625.15625c0 .8125-.375 1.46875-.734375 1.828125-.125.125-.125.140625-.125.171875 0 .078125.0625.125.109375.125.125 0 1-.84375 1-2.125zm0 0"/></symbol><symbol id="X" overflow="visible"><path d="m.484375 1.328125c-.078125.375-.109375.453125-.578125.453125-.140625 0-.25 0-.25.203125 0 .09375.046875.125.140625.125.296875 0 .609375-.03125.90625-.03125.359375 0 .734375.03125 1.078125.03125.0625 0 .203125 0 .203125-.21875 0-.109375-.109375-.109375-.265625-.109375-.546875 0-.546875-.078125-.546875-.171875 0-.140625.46875-1.921875.546875-2.1875.140625.3125.4375.703125 1 .703125 1.265625 0 2.625-1.59375 2.625-3.203125 0-1.015625-.625-1.75-1.453125-1.75-.546875 0-1.0625.40625-1.421875.828125-.109375-.59375-.578125-.828125-.984375-.828125-.5 0-.703125.4375-.8125.625-.1875.375-.328125 1.03125-.328125 1.0625 0 .109375.109375.109375.125.109375.109375 0 .125-.015625.1875-.25.1875-.78125.40625-1.296875.796875-1.296875.1875 0 .328125.078125.328125.5 0 .25-.03125.375-.0625.5625zm1.921875-4.734375c.078125-.296875.375-.59375.578125-.765625.375-.328125.6875-.40625.875-.40625.4375 0 .703125.375.703125 1.015625 0 .65625-.359375 1.90625-.5625 2.3125-.375.765625-.890625 1.125-1.296875 1.125-.71875 0-.859375-.90625-.859375-.96875 0-.015625 0-.046875.03125-.171875zm0 0"/></symbol><symbol id="Y" overflow="visible"><path d="m4.0625-4.125c-.1875-.40625-.5-.703125-1-.703125-1.28125 0-2.625 1.609375-2.625 3.203125 0 1.03125.59375 1.75 1.453125 1.75.21875 0 .765625-.046875 1.40625-.828125.09375.46875.484375.828125 1 .828125.375 0 .625-.25.8125-.609375.1875-.390625.328125-1.046875.328125-1.078125 0-.109375-.109375-.109375-.140625-.109375-.109375 0-.109375.046875-.15625.203125-.171875.703125-.375 1.34375-.828125 1.34375-.28125 0-.328125-.28125-.328125-.5 0-.234375.03125-.328125.15625-.796875.109375-.46875.140625-.578125.234375-.984375l.390625-1.53125c.078125-.3125.078125-.328125.078125-.375 0-.1875-.125-.296875-.3125-.296875-.265625 0-.4375.25-.46875.484375zm-.703125 2.828125c-.0625.203125-.0625.21875-.21875.40625-.484375.59375-.921875.765625-1.234375.765625-.546875 0-.703125-.59375-.703125-1.015625 0-.546875.359375-1.890625.609375-2.390625.34375-.640625.828125-1.046875 1.265625-1.046875.703125 0 .859375.890625.859375.953125s-.015625.140625-.03125.1875zm0 0"/></symbol><symbol id="Z" overflow="visible"><path d="m3.640625-3.296875c.0625-.28125.3125-1.28125 1.078125-1.28125.0625 0 .3125 0 .546875.140625-.296875.046875-.515625.328125-.515625.59375 0 .171875.109375.375.40625.375.25 0 .59375-.203125.59375-.625 0-.578125-.640625-.734375-1.015625-.734375-.640625 0-1.015625.578125-1.140625.84375-.28125-.734375-.875-.84375-1.1875-.84375-1.125 0-1.75 1.421875-1.75 1.6875 0 .109375.109375.109375.125.109375.09375 0 .125-.015625.140625-.125.375-1.15625 1.09375-1.421875 1.46875-1.421875.203125 0 .59375.09375.59375.734375 0 .328125-.1875 1.0625-.59375 2.59375-.171875.671875-.5625 1.125-1.03125 1.125-.078125 0-.328125 0-.546875-.140625.265625-.046875.5-.28125.5-.578125s-.234375-.390625-.390625-.390625c-.328125 0-.609375.28125-.609375.640625 0 .5.546875.71875 1.03125.71875.71875 0 1.109375-.765625 1.140625-.828125.140625.390625.53125.828125 1.1875.828125 1.109375 0 1.734375-1.40625 1.734375-1.6875 0-.109375-.09375-.109375-.125-.109375-.09375 0-.125.046875-.140625.125-.359375 1.171875-1.109375 1.421875-1.453125 1.421875-.421875 0-.59375-.34375-.59375-.71875 0-.234375.0625-.46875.171875-.953125zm0 0"/></symbol><symbol id="aa" overflow="visible"><path d="m.359375 1.890625c-.03125.125-.03125.15625-.03125.171875 0 .15625.125.296875.296875.296875.234375 0 .375-.203125.390625-.234375.046875-.09375.40625-1.5625.703125-2.734375.21875.4375.5625.734375 1.078125.734375 1.265625 0 2.671875-1.546875 2.671875-3.171875 0-1.15625-.71875-1.78125-1.515625-1.78125-1.046875 0-2.203125 1.09375-2.53125 2.421875zm2.421875-2.015625c-.765625 0-.9375-.875-.9375-.96875 0-.046875.046875-.265625.09375-.40625.296875-1.21875.40625-1.609375.640625-2.046875.46875-.796875 1.015625-1.03125 1.359375-1.03125.40625 0 .75.3125.75 1.0625 0 .609375-.3125 1.828125-.609375 2.359375-.359375.6875-.875 1.03125-1.296875 1.03125zm0 0"/></symbol><symbol id="ab" overflow="visible"><path d="m7.71875-2.546875c.03125-.046875.0625-.125.0625-.140625s0-.125-.140625-.125c-.09375 0-.109375.0625-.140625.125-.703125 1.625-1.109375 2.34375-2.96875 2.34375h-1.59375c-.15625 0-.171875 0-.25 0-.109375-.015625-.140625-.03125-.140625-.109375 0-.03125 0-.0625.0625-.25l.734375-2.984375h1.078125c.9375 0 .9375.234375.9375.5 0 .078125 0 .203125-.078125.53125-.03125.0625-.03125.09375-.03125.125 0 .0625.046875.125.140625.125.078125 0 .109375-.0625.15625-.21875l.625-2.5625c0-.0625-.046875-.109375-.125-.109375-.109375 0-.125.0625-.15625.1875-.234375.828125-.421875 1.078125-1.4375 1.078125h-1.015625l.65625-2.625c.09375-.375.109375-.421875.578125-.421875h1.546875c1.328125 0 1.65625.3125 1.65625 1.203125 0 .265625 0 .296875-.046875.578125 0 .078125-.015625.15625-.015625.203125 0 .0625.046875.125.140625.125.125 0 .125-.0625.15625-.265625l.21875-1.890625c.03125-.296875-.03125-.296875-.296875-.296875h-5.515625c-.21875 0-.328125 0-.328125.21875 0 .125.109375.125.3125.125.40625 0 .703125 0 .703125.203125 0 .03125 0 .0625-.046875.25l-1.4375 5.78125c-.109375.421875-.140625.5-1 .5-.1875 0-.296875 0-.296875.21875 0 .125.09375.125.296875.125h5.65625c.25 0 .265625-.015625.34375-.1875zm0 0"/></symbol><symbol id="ac" overflow="visible"><path d="m5.109375-4.0625c0-.578125-.28125-.765625-.484375-.765625-.265625 0-.53125.296875-.53125.53125 0 .140625.046875.203125.171875.328125.234375.21875.375.5.375.890625 0 .453125-.671875 2.953125-1.953125 2.953125-.546875 0-.796875-.375-.796875-.9375 0-.609375.296875-1.40625.625-2.3125.078125-.1875.140625-.34375.140625-.546875 0-.5-.359375-.90625-.90625-.90625-1.015625 0-1.4375 1.59375-1.4375 1.6875 0 .109375.109375.109375.140625.109375.109375 0 .109375-.015625.171875-.203125.3125-1.09375.78125-1.34375 1.09375-1.34375.09375 0 .28125 0 .28125.34375 0 .28125-.109375.5625-.1875.765625-.484375 1.265625-.625 1.765625-.625 2.234375 0 1.1875.96875 1.359375 1.46875 1.359375 1.828125 0 2.453125-3.609375 2.453125-4.1875zm0 0"/></symbol><symbol id="ad" overflow="visible"><path d="m5.296875-4.15625c.046875-.15625.046875-.171875.046875-.25 0-.203125-.15625-.296875-.3125-.296875-.109375 0-.28125.0625-.390625.234375-.015625.046875-.109375.390625-.140625.59375-.078125.28125-.15625.578125-.21875.859375l-.5 1.96875c-.046875.15625-.515625.921875-1.234375.921875-.546875 0-.671875-.46875-.671875-.875 0-.5.1875-1.1875.5625-2.140625.171875-.453125.21875-.5625.21875-.78125 0-.5-.359375-.90625-.90625-.90625-1.03125 0-1.4375 1.59375-1.4375 1.6875 0 .109375.109375.109375.140625.109375.109375 0 .109375-.015625.171875-.203125.296875-1.015625.734375-1.34375 1.09375-1.34375.09375 0 .28125 0 .28125.34375 0 .28125-.109375.5625-.1875.765625-.4375 1.15625-.640625 1.78125-.640625 2.296875 0 .96875.6875 1.296875 1.34375 1.296875.421875 0 .78125-.1875 1.09375-.5-.140625.578125-.265625 1.109375-.703125 1.6875-.28125.359375-.703125.6875-1.203125.6875-.15625 0-.640625-.03125-.828125-.46875.171875 0 .3125 0 .46875-.125.109375-.09375.21875-.234375.21875-.453125 0-.328125-.296875-.375-.40625-.375-.25 0-.609375.171875-.609375.703125 0 .546875.484375.953125 1.15625.953125 1.125 0 2.25-.984375 2.546875-2.21875zm0 0"/></symbol><symbol id="ae" overflow="visible"><path d="m4.78125-7.765625c.0625-.140625.0625-.1875.0625-.203125 0-.109375-.09375-.203125-.21875-.203125-.078125 0-.15625.03125-.1875.09375l-3.78125 10.390625c-.0625.140625-.0625.1875-.0625.203125 0 .109375.109375.203125.21875.203125.140625 0 .1875-.0625.25-.25zm0 0"/></symbol><symbol id="af" overflow="visible"><path d="m2.25-1.625c.125-.125.453125-.390625.59375-.5.484375-.453125.953125-.890625.953125-1.609375 0-.953125-.796875-1.5625-1.78125-1.5625-.96875 0-1.59375.71875-1.59375 1.4375 0 .390625.3125.4375.421875.4375.171875 0 .421875-.109375.421875-.421875 0-.40625-.40625-.40625-.5-.40625.234375-.59375.765625-.78125 1.15625-.78125.734375 0 1.125.625 1.125 1.296875 0 .828125-.578125 1.4375-1.53125 2.390625l-1 1.046875c-.09375.078125-.09375.09375-.09375.296875h3.140625l.234375-1.421875h-.25c-.015625.15625-.078125.546875-.171875.703125-.046875.0625-.65625.0625-.78125.0625h-1.421875zm0 0"/></symbol><symbol id="ag" overflow="visible"><path d="m2.5-5.078125c0-.21875-.015625-.21875-.234375-.21875-.328125.3125-.75.5-1.5.5v.265625c.21875 0 .640625 0 1.109375-.203125v4.078125c0 .296875-.03125.390625-.78125.390625h-.28125v.265625c.328125-.03125 1.015625-.03125 1.375-.03125s1.046875 0 1.375.03125v-.265625h-.28125c-.75 0-.78125-.09375-.78125-.390625zm0 0"/></symbol><symbol id="ah" overflow="visible"><path d="m3.890625-2.546875c0-.84375-.078125-1.359375-.34375-1.875-.34375-.703125-1-.875-1.4375-.875-1 0-1.375.75-1.484375.96875-.28125.578125-.296875 1.375-.296875 1.78125 0 .53125.015625 1.328125.40625 1.96875.359375.59375.953125.75 1.375.75.390625 0 1.0625-.125 1.46875-.90625.296875-.578125.3125-1.296875.3125-1.8125zm-1.78125 2.484375c-.265625 0-.8125-.125-.984375-.953125-.09375-.453125-.09375-1.203125-.09375-1.625 0-.546875 0-1.109375.09375-1.546875.171875-.8125.78125-.890625.984375-.890625.265625 0 .828125.140625.984375.859375.09375.4375.09375 1.046875.09375 1.578125 0 .46875 0 1.1875-.09375 1.640625-.171875.828125-.71875.9375-.984375.9375zm0 0"/></symbol><symbol id="ai" overflow="visible"><path d="m7.1875-2.515625c.1875 0 .375 0 .375-.203125 0-.21875-.1875-.21875-.375-.21875h-5.90625c-.1875 0-.375 0-.375.21875 0 .203125.1875.203125.375.203125zm0 0"/></symbol><symbol id="aj" overflow="visible"><path d="m6.875-7.390625c.078125-.140625.078125-.171875.078125-.203125 0-.078125-.0625-.21875-.21875-.21875-.125 0-.15625.0625-.234375.21875l-4.890625 9.53125c-.09375.140625-.09375.171875-.09375.203125 0 .078125.078125.21875.21875.21875.125 0 .15625-.0625.234375-.21875zm0 0"/></symbol><symbol id="ak" overflow="visible"><path d="m7.640625 25.625c0-.046875-.03125-.078125-.046875-.109375-.40625-.40625-1.140625-1.125-1.875-2.3125-1.75-2.8125-2.546875-6.359375-2.546875-10.546875 0-2.9375.390625-6.71875 2.1875-9.96875.875-1.546875 1.765625-2.453125 2.25-2.921875.03125-.03125.03125-.0625.03125-.09375 0-.109375-.078125-.109375-.234375-.109375s-.171875 0-.34375.171875c-3.65625 3.3125-4.796875 8.3125-4.796875 12.90625 0 4.28125.984375 8.609375 3.75 11.859375.21875.25.640625.703125 1.078125 1.09375.140625.140625.15625.140625.3125.140625s.234375 0 .234375-.109375zm0 0"/></symbol><symbol id="al" overflow="visible"><path d="m5.75 12.65625c0-4.296875-.984375-8.609375-3.75-11.875-.21875-.25-.640625-.6875-1.078125-1.09375-.140625-.125-.15625-.125-.3125-.125-.125 0-.234375 0-.234375.109375 0 .046875.046875.09375.078125.109375.375.390625 1.109375 1.125 1.84375 2.296875 1.75 2.8125 2.546875 6.359375 2.546875 10.5625 0 2.9375-.390625 6.71875-2.1875 9.96875-.875 1.546875-1.765625 2.453125-2.234375 2.90625-.015625.03125-.046875.078125-.046875.109375 0 .109375.109375.109375.234375.109375.15625 0 .171875 0 .34375-.171875 3.65625-3.328125 4.796875-8.3125 4.796875-12.90625zm0 0"/></symbol><symbol id="am" overflow="visible"><path d="m4-3.171875c-.359375.078125-.375.390625-.375.421875 0 .171875.140625.296875.3125.296875s.4375-.140625.4375-.484375c0-.453125-.5-.578125-.796875-.578125-.359375 0-.671875.265625-.859375.578125-.171875-.421875-.578125-.578125-.90625-.578125-.875 0-1.359375 1-1.359375 1.21875 0 .078125.0625.109375.125.109375.09375 0 .109375-.046875.125-.140625.1875-.578125.671875-.96875 1.078125-.96875.3125 0 .46875.234375.46875.515625 0 .15625-.09375.53125-.15625.78125-.0625.234375-.234375.9375-.28125 1.09375-.109375.421875-.390625.765625-.75.765625-.03125 0-.234375 0-.40625-.109375.359375-.09375.359375-.421875.359375-.4375 0-.1875-.140625-.296875-.3125-.296875-.21875 0-.453125.1875-.453125.484375 0 .375.390625.578125.796875.578125.421875 0 .71875-.3125.859375-.578125.1875.390625.546875.578125.9375.578125.859375 0 1.34375-1 1.34375-1.21875 0-.078125-.0625-.109375-.125-.109375-.09375 0-.109375.0625-.140625.140625-.15625.53125-.609375.96875-1.0625.96875-.265625 0-.453125-.171875-.453125-.515625 0-.15625.046875-.34375.15625-.78125.046875-.25.21875-.9375.265625-1.09375.109375-.421875.390625-.765625.75-.765625.046875 0 .25 0 .421875.125zm0 0"/></symbol><symbol id="an" overflow="visible"><path d="m4.125-3c.03125-.109375.03125-.125.03125-.1875 0-.203125-.15625-.25-.25-.25-.046875 0-.21875.015625-.328125.21875-.015625.046875-.09375.328125-.125.5l-.484375 1.90625c0 .03125-.34375.671875-.921875.671875-.390625 0-.53125-.296875-.53125-.640625 0-.46875.265625-1.171875.453125-1.640625.078125-.203125.109375-.265625.109375-.421875 0-.4375-.359375-.671875-.71875-.671875-.796875 0-1.125 1.125-1.125 1.21875 0 .078125.0625.109375.125.109375.109375 0 .109375-.046875.140625-.125.203125-.703125.546875-.984375.828125-.984375.125 0 .1875.078125.1875.265625 0 .171875-.0625.359375-.109375.5-.328125.84375-.46875 1.25-.46875 1.625 0 .78125.59375.984375 1.0625.984375.375 0 .640625-.171875.84375-.34375-.125.4375-.203125.75-.5 1.140625-.265625.3125-.578125.53125-.9375.53125-.140625 0-.4375-.03125-.59375-.265625.421875-.03125.453125-.390625.453125-.4375 0-.1875-.15625-.296875-.3125-.296875-.1875 0-.453125.140625-.453125.53125 0 .375.34375.6875.90625.6875.8125 0 1.71875-.65625 1.96875-1.609375zm0 0"/></symbol><symbol id="ao" overflow="visible"><path d="m3.21875-3c-.1875.03125-.359375.171875-.359375.375 0 .140625.09375.25.265625.25.125 0 .375-.09375.375-.453125 0-.484375-.515625-.6875-1.015625-.6875-1.0625 0-1.40625.765625-1.40625 1.171875 0 .078125 0 .359375.296875.578125.1875.140625.328125.171875.734375.25.28125.0625.734375.140625.734375.546875 0 .21875-.15625.46875-.375.625-.296875.1875-.6875.203125-.8125.203125-.1875 0-.734375-.03125-.9375-.359375.40625-.015625.46875-.34375.46875-.4375 0-.234375-.21875-.296875-.3125-.296875-.125 0-.453125.109375-.453125.546875 0 .46875.5.765625 1.234375.765625 1.390625 0 1.6875-.984375 1.6875-1.3125 0-.71875-.78125-.875-1.078125-.921875-.390625-.078125-.703125-.125-.703125-.46875 0-.140625.140625-.671875.921875-.671875.296875 0 .609375.09375.734375.296875zm0 0"/></symbol><symbol id="ap" overflow="visible"><path d="m1.484375-.125c0 .515625-.109375.984375-.59375 1.46875-.03125.03125-.046875.046875-.046875.078125 0 .0625.0625.109375.109375.109375.09375 0 .765625-.625.765625-1.5625 0-.5-.203125-.859375-.546875-.859375-.28125 0-.4375.234375-.4375.4375 0 .234375.15625.453125.4375.453125.203125 0 .3125-.109375.3125-.125zm0 0"/></symbol><symbol id="aq" overflow="visible"><path d="m3.8125-.640625c.109375.53125.515625.765625.90625.765625s.625-.28125.78125-.609375c.203125-.421875.328125-1.046875.328125-1.078125 0-.109375-.078125-.109375-.15625-.109375-.125 0-.140625.015625-.203125.25-.15625.609375-.359375 1.296875-.734375 1.296875-.28125 0-.28125-.296875-.28125-.4375 0-.078125 0-.25.078125-.5625l.734375-2.96875c.046875-.15625.046875-.171875.046875-.21875 0-.234375-.1875-.296875-.296875-.296875-.34375 0-.421875.375-.4375.4375-.203125-.46875-.546875-.65625-.90625-.65625-1.203125 0-2.5 1.671875-2.5 3.25 0 .9375.5 1.703125 1.328125 1.703125.390625 0 .875-.234375 1.3125-.765625zm.578125-2.765625-.515625 2.046875c-.078125.359375-.75 1.234375-1.359375 1.234375-.515625 0-.59375-.640625-.59375-.96875 0-.546875.328125-1.8125.53125-2.28125.265625-.65625.78125-1.203125 1.21875-1.203125.484375 0 .75.5625.75 1.015625 0 .03125 0 .078125-.03125.15625zm0 0"/></symbol><symbol id="ar" overflow="visible"><path d="m2.515625-1.90625c.046875-.25.109375-.46875.171875-.71875.140625-.546875.140625-.5625.328125-.875.140625-.265625.640625-1.078125 1.46875-1.078125.484375 0 .5.484375.5.71875 0 .671875-.484375 1.96875-.625 2.40625-.15625.375-.1875.46875-.1875.703125 0 .484375.3125.875.828125.875 1.015625 0 1.390625-1.625 1.390625-1.6875 0-.109375-.09375-.109375-.15625-.109375-.15625 0-.15625.03125-.1875.1875-.09375.296875-.390625 1.359375-1.015625 1.359375-.234375 0-.25-.15625-.25-.3125 0-.265625.109375-.5625.203125-.8125.21875-.578125.671875-1.796875.671875-2.4375 0-.890625-.609375-1.140625-1.140625-1.140625-.890625 0-1.421875.65625-1.5625.875-.078125-.546875-.4375-.875-.90625-.875-.40625 0-.625.265625-.796875.578125-.203125.4375-.34375 1.09375-.34375 1.109375 0 .109375.109375.109375.15625.109375.140625 0 .15625-.015625.21875-.25.1875-.765625.390625-1.296875.734375-1.296875.28125 0 .28125.3125.28125.4375 0 .171875-.03125.375-.078125.546875l-.8125 3.28125c-.015625.0625-.03125.109375-.03125.15625 0 .109375.09375.28125.296875.28125.140625 0 .328125-.078125.40625-.28125zm0 0"/></symbol><symbol id="as" overflow="visible"><path d="m3.296875-7.296875c.015625-.03125.046875-.125.046875-.140625 0-.09375-.078125-.125-.15625-.125-.03125 0-.140625 0-.171875.015625l-1.078125.09375c-.140625 0-.265625.015625-.265625.21875 0 .125.109375.125.265625.125.53125 0 .546875.078125.546875.1875 0 .03125-.03125.171875-.03125.1875l-1.359375 5.453125c-.015625.03125-.0625.25-.0625.421875 0 .578125.390625.984375.90625.984375.421875 0 .640625-.296875.78125-.578125.1875-.375.328125-1.078125.328125-1.109375 0-.109375-.078125-.109375-.15625-.109375-.0625 0-.125 0-.15625.0625l-.078125.265625c-.1875.765625-.390625 1.21875-.6875 1.21875s-.296875-.296875-.296875-.4375c0-.078125 0-.25.078125-.5zm0 0"/></symbol><symbol id="at" overflow="visible"><path d="m3.890625-.28125c-.40625 1.796875-1.21875 2.28125-1.765625 2.28125-.515625 0-.671875-.421875-.671875-.46875 0-.015625.015625-.03125.078125-.03125.34375-.0625.46875-.359375.46875-.53125 0-.234375-.171875-.34375-.359375-.34375-.140625 0-.5625.0625-.5625.671875 0 .5625.453125.9375 1.046875.9375 1.140625 0 2.125-1.125 2.40625-2.203125l1.0625-4.296875c.015625-.0625.03125-.125.03125-.15625 0-.109375-.078125-.28125-.296875-.28125-.328125 0-.40625.3125-.4375.40625l-.796875 3.203125c-.0625.3125-.5.96875-1.15625.96875-.484375 0-.578125-.46875-.578125-.828125 0-.671875.359375-1.65625.625-2.390625.09375-.234375.140625-.390625.140625-.59375 0-.546875-.359375-.890625-.828125-.890625-1.015625 0-1.390625 1.625-1.390625 1.6875 0 .109375.109375.109375.15625.109375.140625 0 .15625-.015625.203125-.171875.09375-.34375.375-1.375 1.015625-1.375.125 0 .234375.03125.234375.3125 0 .265625-.109375.5625-.265625.984375-.28125.765625-.5625 1.5625-.5625 2.140625 0 .9375.640625 1.265625 1.21875 1.265625.5 0 .84375-.265625.984375-.40625zm0 0"/></symbol><symbol id="au" overflow="visible"><path d="m2.828125-4.359375h.9375c.1875 0 .296875 0 .296875-.203125 0-.140625-.09375-.140625-.265625-.140625h-.875l.40625-1.609375c.046875-.15625.046875-.171875.046875-.234375 0-.21875-.1875-.28125-.296875-.28125-.28125 0-.390625.234375-.421875.390625l-.4375 1.734375h-.921875c-.1875 0-.296875 0-.296875.203125 0 .140625.09375.140625.265625.140625h.875l-.78125 3.125c-.015625.046875-.0625.21875-.0625.375 0 .546875.359375.984375.921875.984375 1.109375 0 1.65625-1.625 1.65625-1.6875 0-.109375-.078125-.109375-.15625-.109375-.125 0-.125.015625-.21875.203125-.203125.53125-.625 1.34375-1.25 1.34375-.296875 0-.296875-.265625-.296875-.4375 0-.078125 0-.25.078125-.5625zm0 0"/></symbol><symbol id="av" overflow="visible"><path d="m3.609375-1.5625c0-.109375-.09375-.109375-.15625-.109375-.15625 0-.15625.03125-.1875.1875-.09375.3125-.390625 1.359375-1.015625 1.359375-.09375 0-.25 0-.25-.296875 0-.28125.15625-.640625.296875-1.046875l.6875-1.875c.109375-.3125.140625-.390625.140625-.609375 0-.59375-.421875-.875-.828125-.875-1.015625 0-1.390625 1.625-1.390625 1.6875 0 .109375.109375.109375.15625.109375.140625 0 .15625-.015625.203125-.171875.09375-.359375.375-1.375 1.015625-1.375.125 0 .234375.046875.234375.296875 0 .265625-.109375.578125-.1875.796875l-.328125.90625c-.140625.359375-.28125.71875-.40625 1.078125-.15625.40625-.203125.53125-.203125.75 0 .421875.265625.875.828125.875 1.03125 0 1.390625-1.640625 1.390625-1.6875zm-.046875-5.234375c0-.265625-.21875-.359375-.375-.359375-.234375 0-.53125.21875-.53125.53125 0 .265625.21875.359375.375.359375.21875 0 .53125-.21875.53125-.53125zm0 0"/></symbol><symbol id="aw" overflow="visible"><path d="m4.75-4.109375c-.546875.0625-.546875.515625-.546875.53125 0 .171875.109375.34375.359375.34375.296875 0 .5625-.234375.5625-.640625 0-.546875-.46875-.953125-1.171875-.953125-1.34375 0-2.75 1.5625-2.75 3.15625 0 1.078125.640625 1.796875 1.59375 1.796875 1.40625 0 2.3125-1.09375 2.3125-1.265625 0-.046875-.09375-.171875-.1875-.171875-.03125 0-.046875.015625-.140625.125-.796875 1.03125-1.765625 1.0625-1.953125 1.0625-.59375 0-.859375-.484375-.859375-1.125 0-.578125.28125-1.71875.578125-2.234375.390625-.71875.9375-1.09375 1.421875-1.09375.125 0 .609375.015625.78125.46875zm0 0"/></symbol><symbol id="ax" overflow="visible"><path d="m2.6875-2.15625c.484375.109375.984375.21875.984375.8125 0 .34375-.296875 1.21875-1.421875 1.21875-.25 0-.875-.046875-1.046875-.609375.546875-.046875.546875-.515625.546875-.53125 0-.203125-.140625-.34375-.359375-.34375-.25 0-.5625.1875-.5625.671875 0 .671875.640625 1.0625 1.40625 1.0625 1.640625 0 2.046875-1.328125 2.046875-1.84375 0-.9375-.84375-1.140625-1.296875-1.234375-.296875-.0625-.6875-.15625-.6875-.625 0-.265625.21875-1 1.09375-1 .296875 0 .703125.109375.8125.53125-.34375.046875-.421875.34375-.421875.453125s.0625.296875.3125.296875c.1875 0 .46875-.125.46875-.59375 0-.5-.4375-.9375-1.15625-.9375-1.28125 0-1.734375 1.046875-1.734375 1.625 0 .84375.71875.984375 1.015625 1.046875zm0 0"/></symbol><symbol id="ay" overflow="visible"><path d="m5.546875-3.03125c0-1.03125-.640625-1.796875-1.59375-1.796875-1.34375 0-2.75 1.5625-2.75 3.15625 0 1.109375.6875 1.796875 1.59375 1.796875 1.34375 0 2.75-1.546875 2.75-3.15625zm-2.75 2.90625c-.4375 0-.828125-.328125-.828125-1.125 0-.53125.28125-1.75.625-2.34375.40625-.65625.921875-.984375 1.359375-.984375.53125 0 .828125.484375.828125 1.125 0 .46875-.234375 1.59375-.578125 2.25-.328125.59375-.875 1.078125-1.40625 1.078125zm0 0"/></symbol><symbol id="az" overflow="visible"><path d="m5.59375-4.265625c.015625-.0625.03125-.125.03125-.15625 0-.109375-.078125-.28125-.296875-.28125-.328125 0-.40625.3125-.4375.40625l-.796875 3.1875c-.046875.1875-.046875.21875-.140625.359375-.21875.296875-.53125.625-1.015625.625s-.578125-.46875-.578125-.828125c0-.671875.359375-1.65625.625-2.390625.09375-.234375.140625-.390625.140625-.59375 0-.546875-.359375-.890625-.828125-.890625-1.015625 0-1.390625 1.625-1.390625 1.6875 0 .109375.109375.109375.15625.109375.140625 0 .15625-.015625.203125-.171875.09375-.34375.375-1.375 1.015625-1.375.125 0 .234375.03125.234375.3125 0 .265625-.109375.5625-.265625.984375-.28125.765625-.5625 1.5625-.5625 2.140625 0 .9375.640625 1.265625 1.21875 1.265625s.953125-.328125 1.21875-.65625c.1875.578125.65625.65625.875.65625.40625 0 .625-.28125.796875-.609375.1875-.421875.328125-1.046875.328125-1.078125 0-.109375-.09375-.109375-.171875-.109375-.125 0-.140625.015625-.203125.25-.15625.609375-.359375 1.296875-.734375 1.296875-.28125 0-.28125-.296875-.28125-.4375 0-.078125 0-.25.078125-.5625zm0 0"/></symbol><g><use x="20.735" xlink:href="#a" y="11.152"/><use x="28.613552" xlink:href="#b" y="11.152"/><use x="34.674648" xlink:href="#c" y="11.152"/></g><g><use x="43.155382" xlink:href="#d" y="11.152"/><use x="51.337207" xlink:href="#e" y="11.152"/><use x="56.791757" xlink:href="#f" y="11.152"/><use x="65.88231" xlink:href="#g" y="11.152"/><use x="68.912858" xlink:href="#h" y="11.152"/><use x="71.943406" xlink:href="#i" y="11.152"/><use x="76.185955" xlink:href="#j" y="11.152"/><use x="81.640505" xlink:href="#k" y="11.152"/><use x="87.701601" xlink:href="#g" y="11.152"/><use x="90.732149" xlink:href="#e" y="11.152"/><use x="96.186699" xlink:href="#k" y="11.152"/></g><use x="105.886" xlink:href="#U" y="11.152"/><g><use x="119.477" xlink:href="#l" y="11.152"/><use x="124.325004" xlink:href="#e" y="11.152"/><use x="129.779554" xlink:href="#k" y="11.152"/></g><use x="139.47338" xlink:href="#m" y="11.152"/><use x="145.839931" xlink:href="#c" y="11.152"/><use x="154.320665" xlink:href="#c" y="11.152"/><use x="159.179579" xlink:href="#n" y="11.152"/><g><use x="164.926492" xlink:href="#o" y="11.152"/><use x="170.987588" xlink:href="#e" y="11.152"/><use x="176.442138" xlink:href="#k" y="11.152"/><use x="182.503234" xlink:href="#p" y="11.152"/><use x="188.56433" xlink:href="#c" y="11.152"/><use x="193.412334" xlink:href="#p" y="11.152"/></g><g><use x="203.11707" xlink:href="#q" y="11.152"/><use x="209.178166" xlink:href="#o" y="11.152"/></g><g><use x="218.871992" xlink:href="#i" y="11.152"/><use x="223.114541" xlink:href="#j" y="11.152"/></g><g><use x="232.201821" xlink:href="#i" y="11.152"/><use x="236.44437" xlink:href="#b" y="11.152"/><use x="242.505466" xlink:href="#c" y="11.152"/></g><g><use x="250.99711" xlink:href="#r" y="11.152"/><use x="255.299659" xlink:href="#c" y="11.152"/><use x="260.147663" xlink:href="#l" y="11.152"/><use x="264.995667" xlink:href="#j" y="11.152"/><use x="270.450217" xlink:href="#k" y="11.152"/><use x="276.511313" xlink:href="#p" y="11.152"/></g><g><use x="286.205139" xlink:href="#j" y="11.152"/><use x="291.659689" xlink:href="#s" y="11.152"/><use x="295.932783" xlink:href="#p" y="11.152"/><use x="301.993879" xlink:href="#c" y="11.152"/><use x="306.841883" xlink:href="#s" y="11.152"/></g><g><use x="314.747708" xlink:href="#j" y="11.152"/><use x="320.202258" xlink:href="#t" y="11.152"/></g><g><use x="327.179719" xlink:href="#i" y="11.152"/><use x="331.422268" xlink:href="#b" y="11.152"/></g><use x="337.472454" xlink:href="#c" y="11.152"/><g><use x="345.964098" xlink:href="#i" y="11.152"/><use x="350.206647" xlink:href="#s" y="11.152"/><use x="354.479741" xlink:href="#e" y="11.152"/><use x="359.934291" xlink:href="#k" y="11.152"/><use x="365.995387" xlink:href="#r" y="11.152"/><use x="370.297936" xlink:href="#u" y="11.152"/></g><g><use x="375.750304" xlink:href="#c" y="11.152"/><use x="380.598309" xlink:href="#s" y="11.152"/><use x="384.871403" xlink:href="#r" y="11.152"/><use x="389.173952" xlink:href="#c" y="11.152"/></g><g><use x="397.654686" xlink:href="#l" y="11.152"/><use x="402.50269" xlink:href="#j" y="11.152"/></g><g><use x="408.262695" xlink:href="#j" y="11.152"/><use x="413.717245" xlink:href="#s" y="11.152"/><use x="417.99034" xlink:href="#p" y="11.152"/><use x="424.051436" xlink:href="#g" y="11.152"/><use x="427.081984" xlink:href="#k" y="11.152"/><use x="433.14308" xlink:href="#e" y="11.152"/><use x="438.59763" xlink:href="#i" y="11.152"/><use x="442.840179" xlink:href="#c" y="11.152"/><use x="447.688183" xlink:href="#r" y="11.152"/></g><g><use x="455.634371" xlink:href="#e" y="11.152"/><use x="461.088921" xlink:href="#r" y="11.152"/><use x="465.39147" xlink:href="#v" y="11.152"/></g><use x="106.828" xlink:href="#U" y="35.66"/><use x="119.813" xlink:href="#w" y="35.66"/><use x="131.328" xlink:href="#U" y="35.66"/><use x="140.396" xlink:href="#af" y="37.296"/><use x="147.553" xlink:href="#x" y="35.66"/><g><use x="158.462" xlink:href="#V" y="35.66"/><use x="167.552553" xlink:href="#U" y="35.66"/></g><use x="181.148564" xlink:href="#W" y="35.66"/><g><use x="494.64" xlink:href="#y" y="35.66"/><use x="498.882549" xlink:href="#z" y="35.66"/><use x="504.337099" xlink:href="#A" y="35.66"/><use x="509.791649" xlink:href="#B" y="35.66"/></g><use x="102.982" xlink:href="#U" y="60.245"/><use x="112.05" xlink:href="#af" y="61.882"/><use x="119.813" xlink:href="#w" y="60.245"/><use x="131.328" xlink:href="#ai" y="60.245"/><use x="141.631" xlink:href="#ak" y="44.863"/><use x="149.661" xlink:href="#X" y="60.245"/><use x="157.574" xlink:href="#ai" y="60.245"/><use x="169.679" xlink:href="#y" y="52.865"/><use x="173.921" xlink:href="#X" y="52.865"/><use x="179.41" xlink:href="#am" y="54.502"/><use x="187.099" xlink:href="#ai" y="52.865"/><use x="198.008" xlink:href="#Y" y="52.865"/><use x="203.775" xlink:href="#am" y="54.502"/><use x="208.541" xlink:href="#ag" y="54.502"/><use x="213.274" xlink:href="#B" y="52.865"/><use x="217.516" xlink:href="#af" y="48.906"/><path d="m.0006875-.00153125h52.5703125" fill="none" stroke="#000" stroke-miterlimit="10" stroke-width=".436" transform="matrix(1 0 0 -1 169.679 57.518)"/><use x="190.492" xlink:href="#C" y="67.728"/><use x="195.947" xlink:href="#X" y="67.728"/><use x="225.868" xlink:href="#ai" y="60.245"/><use x="237.973" xlink:href="#y" y="52.805"/><use x="242.215" xlink:href="#X" y="52.805"/><use x="247.704" xlink:href="#an" y="54.441"/><use x="255.098" xlink:href="#ai" y="52.805"/><use x="266.007" xlink:href="#Y" y="52.805"/><use x="271.773" xlink:href="#an" y="54.441"/><use x="276.245" xlink:href="#ag" y="54.441"/><use x="280.977" xlink:href="#B" y="52.805"/><use x="285.22" xlink:href="#af" y="48.846"/><path d="m-.00034375-.00153125h51.98046875" fill="none" stroke="#000" stroke-miterlimit="10" stroke-width=".436" transform="matrix(1 0 0 -1 237.973 57.518)"/><use x="258.491" xlink:href="#C" y="67.728"/><use x="263.945" xlink:href="#X" y="67.728"/><use x="293.572" xlink:href="#x" y="60.245"/><use x="304.481" xlink:href="#Y" y="60.245"/><use x="310.247" xlink:href="#ao" y="61.882"/><use x="314.163" xlink:href="#af" y="61.882"/><use x="318.896" xlink:href="#al" y="44.863"/><use x="328.748008" xlink:href="#ak" y="44.863"/><use x="336.774" xlink:href="#z" y="60.245"/><use x="344.65037" xlink:href="#x" y="60.245"/><use x="356.758" xlink:href="#Z" y="52.865"/><path d="m-.0001875-.00153125h6.2343755" fill="none" stroke="#000" stroke-miterlimit="10" stroke-width=".436" transform="matrix(1 0 0 -1 356.758 57.518)"/><use x="357.055" xlink:href="#aa" y="67.728"/><use x="364.188" xlink:href="#al" y="44.863"/><use x="374.643" xlink:href="#x" y="60.245"/><use x="392.527" xlink:href="#ab" y="52.865"/><path d="m-.00090625-.00153125h20.24218725" fill="none" stroke="#000" stroke-miterlimit="10" stroke-width=".436" transform="matrix(1 0 0 -1 386.747 57.518)"/><use x="386.747" xlink:href="#X" y="67.728"/><use x="392.236" xlink:href="#ah" y="69.365"/><use x="396.968" xlink:href="#ac" y="67.728"/><use x="402.256" xlink:href="#ah" y="69.365"/><use x="411.82" xlink:href="#W" y="60.245"/><g><use x="494.64" xlink:href="#y" y="60.245"/><use x="498.882549" xlink:href="#z" y="60.245"/><use x="504.337099" xlink:href="#D" y="60.245"/><use x="509.791649" xlink:href="#B" y="60.245"/></g><g><use x="3.798" xlink:href="#E" y="90.14"/><use x="11.676552" xlink:href="#b" y="90.14"/><use x="17.737648" xlink:href="#c" y="90.14"/><use x="22.585652" xlink:href="#s" y="90.14"/><use x="26.858746" xlink:href="#c" y="90.14"/></g><use x="35.388" xlink:href="#Y" y="90.14"/><use x="41.155" xlink:href="#am" y="91.776"/><use x="45.922" xlink:href="#ag" y="91.776"/><g><use x="54.335" xlink:href="#e" y="90.14"/><use x="59.78955" xlink:href="#k" y="90.14"/><use x="65.850646" xlink:href="#p" y="90.14"/></g><use x="75.592" xlink:href="#Y" y="90.14"/><use x="81.358" xlink:href="#an" y="91.776"/><use x="85.83" xlink:href="#ag" y="91.776"/><g><use x="94.243" xlink:href="#e" y="90.14"/><use x="99.69755" xlink:href="#s" y="90.14"/><use x="103.970644" xlink:href="#c" y="90.14"/></g><g><use x="112.495015" xlink:href="#i" y="90.14"/><use x="116.737564" xlink:href="#b" y="90.14"/><use x="122.79866" xlink:href="#c" y="90.14"/></g><g><use x="131.33394" xlink:href="#i" y="90.14"/><use x="135.576489" xlink:href="#s" y="90.14"/><use x="139.849583" xlink:href="#e" y="90.14"/><use x="145.304133" xlink:href="#k" y="90.14"/><use x="151.365229" xlink:href="#r" y="90.14"/><use x="155.667778" xlink:href="#u" y="90.14"/></g><g><use x="161.120147" xlink:href="#c" y="90.14"/><use x="165.968151" xlink:href="#s" y="90.14"/><use x="170.241245" xlink:href="#r" y="90.14"/><use x="174.543794" xlink:href="#c" y="90.14"/></g><use x="183.079074" xlink:href="#u" y="90.14"/><g><use x="188.531442" xlink:href="#c" y="90.14"/><use x="193.379446" xlink:href="#l" y="90.14"/><use x="198.22745" xlink:href="#i" y="90.14"/><use x="202.469999" xlink:href="#j" y="90.14"/><use x="207.924549" xlink:href="#s" y="90.14"/></g><use x="215.87401" xlink:href="#o" y="90.14"/><g><use x="222.240561" xlink:href="#j" y="90.14"/><use x="227.695111" xlink:href="#i" y="90.14"/><use x="231.93766" xlink:href="#c" y="90.14"/><use x="236.785664" xlink:href="#k" y="90.14"/></g><g><use x="242.541305" xlink:href="#i" y="90.14"/><use x="246.783854" xlink:href="#g" y="90.14"/><use x="249.814402" xlink:href="#e" y="90.14"/><use x="255.268952" xlink:href="#h" y="90.14"/><use x="258.2995" xlink:href="#r" y="90.14"/></g><use x="266.289325" xlink:href="#q" y="90.14"/><use x="272.339512" xlink:href="#o" y="90.14"/><g><use x="282.087884" xlink:href="#i" y="90.14"/><use x="286.330433" xlink:href="#j" y="90.14"/></g><g><use x="295.461349" xlink:href="#i" y="90.14"/><use x="299.703898" xlink:href="#b" y="90.14"/><use x="305.764994" xlink:href="#c" y="90.14"/></g><g><use x="314.300274" xlink:href="#F" y="90.14"/><use x="320.36137" xlink:href="#s" y="90.14"/><use x="324.634465" xlink:href="#r" y="90.14"/><use x="328.937014" xlink:href="#i" y="90.14"/></g><g><use x="336.855929" xlink:href="#j" y="90.14"/><use x="342.310479" xlink:href="#s" y="90.14"/><use x="346.583574" xlink:href="#p" y="90.14"/><use x="352.64467" xlink:href="#c" y="90.14"/><use x="357.492674" xlink:href="#s" y="90.14"/><use x="361.765768" xlink:href="#G" y="90.14"/></g><g><use x="368.483592" xlink:href="#e" y="90.14"/><use x="373.938142" xlink:href="#k" y="90.14"/><use x="379.999238" xlink:href="#p" y="90.14"/></g><use x="389.744" xlink:href="#Y" y="90.14"/><use x="395.511" xlink:href="#ao" y="91.776"/><use x="399.427" xlink:href="#af" y="91.776"/><g><use x="407.84" xlink:href="#h" y="90.14"/><use x="410.870548" xlink:href="#j" y="90.14"/><use x="416.325098" xlink:href="#k" y="90.14"/><use x="422.386194" xlink:href="#H" y="90.14"/><use x="427.840744" xlink:href="#g" y="90.14"/><use x="430.871292" xlink:href="#i" y="90.14"/><use x="435.113841" xlink:href="#q" y="90.14"/><use x="441.174937" xlink:href="#p" y="90.14"/><use x="447.236033" xlink:href="#g" y="90.14"/><use x="450.266581" xlink:href="#k" y="90.14"/><use x="456.327677" xlink:href="#e" y="90.14"/><use x="461.782227" xlink:href="#h" y="90.14"/></g><g><use x="468.489141" xlink:href="#j" y="90.14"/><use x="473.943691" xlink:href="#k" y="90.14"/><use x="480.004787" xlink:href="#c" y="90.14"/></g><g><use x="488.540067" xlink:href="#q" y="90.14"/><use x="494.601163" xlink:href="#o" y="90.14"/></g><g><use x="504.338626" xlink:href="#i" y="90.14"/><use x="508.581175" xlink:href="#j" y="90.14"/></g><g><use x="3.798" xlink:href="#i" y="103.689"/><use x="8.040549" xlink:href="#b" y="103.689"/><use x="14.101645" xlink:href="#c" y="103.689"/></g><g><use x="23.291471" xlink:href="#r" y="103.689"/><use x="27.59402" xlink:href="#c" y="103.689"/><use x="32.442024" xlink:href="#l" y="103.689"/><use x="37.290028" xlink:href="#j" y="103.689"/><use x="42.744578" xlink:href="#k" y="103.689"/><use x="48.805674" xlink:href="#p" y="103.689"/></g><g><use x="59.197683" xlink:href="#j" y="103.689"/><use x="64.652233" xlink:href="#s" y="103.689"/><use x="68.925327" xlink:href="#p" y="103.689"/><use x="74.986423" xlink:href="#c" y="103.689"/><use x="79.834427" xlink:href="#s" y="103.689"/></g><g><use x="88.449343" xlink:href="#j" y="103.689"/><use x="93.903893" xlink:href="#t" y="103.689"/></g><use x="101.572" xlink:href="#Z" y="103.689"/><g><use x="112.145" xlink:href="#e" y="103.689"/><use x="117.59955" xlink:href="#k" y="103.689"/><use x="123.660646" xlink:href="#p" y="103.689"/></g><use x="134.058" xlink:href="#ad" y="103.689"/><use x="139.798" xlink:href="#G" y="103.689"/><g><use x="147.344915" xlink:href="#s" y="103.689"/><use x="151.61801" xlink:href="#c" y="103.689"/><use x="156.466014" xlink:href="#r" y="103.689"/><use x="160.768563" xlink:href="#o" y="103.689"/></g><g><use x="167.124205" xlink:href="#c" y="103.689"/><use x="171.972209" xlink:href="#l" y="103.689"/><use x="176.820213" xlink:href="#i" y="103.689"/><use x="181.062762" xlink:href="#g" y="103.689"/><use x="184.09331" xlink:href="#u" y="103.689"/></g><g><use x="189.556587" xlink:href="#c" y="103.689"/><use x="194.404591" xlink:href="#h" y="103.689"/><use x="197.435139" xlink:href="#I" y="103.689"/></g><use x="202.276598" xlink:href="#J" y="103.689"/><g><use x="212.267151" xlink:href="#K" y="103.689"/><use x="220.448976" xlink:href="#j" y="103.689"/><use x="225.903526" xlink:href="#i" y="103.689"/><use x="230.146075" xlink:href="#c" y="103.689"/></g><g><use x="239.324992" xlink:href="#i" y="103.689"/><use x="243.567541" xlink:href="#b" y="103.689"/><use x="249.628637" xlink:href="#e" y="103.689"/><use x="255.083187" xlink:href="#i" y="103.689"/></g><use x="263.664" xlink:href="#Y" y="103.689"/><g><use x="269.431" xlink:href="#am" y="105.326"/><use x="274.197917" xlink:href="#ap" y="105.326"/><use x="276.549893" xlink:href="#an" y="105.326"/></g><use x="285.718" xlink:href="#w" y="103.689"/><use x="298.403101" xlink:href="#L" y="103.689"/><use x="308.188564" xlink:href="#E" y="103.689"/><use x="316.078025" xlink:href="#b" y="103.689"/><use x="322.128212" xlink:href="#c" y="103.689"/><use x="326.987125" xlink:href="#s" y="103.689"/><use x="331.249311" xlink:href="#c" y="103.689"/><use x="340.439137" xlink:href="#z" y="103.689"/><g><use x="345.895" xlink:href="#ae" y="103.689"/><use x="351.34955" xlink:href="#aa" y="103.689"/></g><use x="361.188" xlink:href="#aj" y="103.689"/><use x="361.188" xlink:href="#w" y="103.689"/><g><use x="373.873101" xlink:href="#L" y="103.689"/><use x="379.327651" xlink:href="#J" y="103.689"/></g><g><use x="389.307296" xlink:href="#a" y="103.689"/><use x="397.185848" xlink:href="#b" y="103.689"/></g><g><use x="402.941489" xlink:href="#q" y="103.689"/><use x="409.002585" xlink:href="#r" y="103.689"/></g><use x="417.646" xlink:href="#U" y="103.689"/><use x="426.714" xlink:href="#af" y="105.326"/><g><use x="435.784" xlink:href="#s" y="103.689"/><use x="440.057094" xlink:href="#c" y="103.689"/><use x="444.905099" xlink:href="#o" y="103.689"/><use x="450.966194" xlink:href="#s" y="103.689"/><use x="455.239289" xlink:href="#c" y="103.689"/><use x="460.087293" xlink:href="#r" y="103.689"/><use x="464.389842" xlink:href="#c" y="103.689"/><use x="469.237846" xlink:href="#k" y="103.689"/></g><g><use x="474.993487" xlink:href="#i" y="103.689"/><use x="479.236036" xlink:href="#r" y="103.689"/></g><g><use x="487.880407" xlink:href="#q" y="103.689"/><use x="493.941503" xlink:href="#o" y="103.689"/></g><g><use x="504.333512" xlink:href="#i" y="103.689"/><use x="508.576061" xlink:href="#j" y="103.689"/></g><g><use x="3.798" xlink:href="#M" y="117.238"/><use x="9.555823" xlink:href="#q" y="117.238"/><use x="15.616919" xlink:href="#e" y="117.238"/><use x="21.071469" xlink:href="#p" y="117.238"/><use x="27.132565" xlink:href="#s" y="117.238"/><use x="31.405659" xlink:href="#q" y="117.238"/><use x="37.466755" xlink:href="#o" y="117.238"/></g><g><use x="43.833306" xlink:href="#j" y="117.238"/><use x="49.287856" xlink:href="#h" y="117.238"/><use x="52.318404" xlink:href="#c" y="117.238"/></g><g><use x="61.137321" xlink:href="#F" y="117.238"/><use x="67.198416" xlink:href="#c" y="117.238"/><use x="72.046421" xlink:href="#h" y="117.238"/><use x="75.076968" xlink:href="#p" y="117.238"/></g><use x="81.127155" xlink:href="#r" y="117.238"/><use x="89.400617" xlink:href="#j" y="117.238"/><use x="94.560621" xlink:href="#u" y="117.238"/><g><use x="100.012989" xlink:href="#c" y="117.238"/><use x="104.860993" xlink:href="#s" y="117.238"/><use x="109.134088" xlink:href="#h" y="117.238"/><use x="112.164636" xlink:href="#e" y="117.238"/><use x="117.619186" xlink:href="#o" y="117.238"/><use x="123.680282" xlink:href="#o" y="117.238"/></g><g><use x="130.046832" xlink:href="#c" y="117.238"/><use x="134.894837" xlink:href="#p" y="117.238"/></g><g><use x="144.926845" xlink:href="#E" y="117.238"/><use x="152.805397" xlink:href="#g" y="117.238"/><use x="155.835945" xlink:href="#i" y="117.238"/><use x="160.078494" xlink:href="#b" y="117.238"/></g><use x="170.099593" xlink:href="#e" y="117.238"/><g><use x="179.525056" xlink:href="#q" y="117.238"/><use x="185.586151" xlink:href="#k" y="117.238"/><use x="191.647247" xlink:href="#g" y="117.238"/><use x="194.677795" xlink:href="#t" y="117.238"/><use x="198.011616" xlink:href="#j" y="117.238"/><use x="203.466166" xlink:href="#s" y="117.238"/><use x="207.739261" xlink:href="#f" y="117.238"/></g><g><use x="220.800726" xlink:href="#r" y="117.238"/><use x="225.103275" xlink:href="#j" y="117.238"/><use x="230.557825" xlink:href="#h" y="117.238"/><use x="233.588373" xlink:href="#c" y="117.238"/><use x="238.436377" xlink:href="#k" y="117.238"/><use x="244.497473" xlink:href="#j" y="117.238"/><use x="249.952023" xlink:href="#g" y="117.238"/><use x="252.982571" xlink:href="#p" y="117.238"/><use x="259.043667" xlink:href="#J" y="117.238"/></g><g><use x="267.921493" xlink:href="#N" y="117.238"/><use x="271.860769" xlink:href="#i" y="117.238"/></g><g><use x="280.07423" xlink:href="#g" y="117.238"/><use x="283.104778" xlink:href="#r" y="117.238"/></g><g><use x="291.37824" xlink:href="#O" y="117.238"/><use x="297.136063" xlink:href="#k" y="117.238"/><use x="303.197159" xlink:href="#j" y="117.238"/></g><g><use x="308.357163" xlink:href="#E" y="117.238"/><use x="316.235715" xlink:href="#k" y="117.238"/></g><g><use x="326.256814" xlink:href="#i" y="117.238"/><use x="330.499363" xlink:href="#b" y="117.238"/><use x="336.560459" xlink:href="#e" y="117.238"/><use x="342.015009" xlink:href="#i" y="117.238"/></g><use x="350.232" xlink:href="#U" y="117.238"/><use x="359.3" xlink:href="#af" y="118.875"/><g><use x="368.003" xlink:href="#b" y="117.238"/><use x="374.064096" xlink:href="#e" y="117.238"/><use x="379.518646" xlink:href="#r" y="117.238"/></g><g><use x="387.792107" xlink:href="#e" y="117.238"/><use x="393.246657" xlink:href="#k" y="117.238"/></g><g><use x="403.277" xlink:href="#aq" y="117.238"/><use x="408.852641" xlink:href="#ar" y="117.238"/><use x="414.985737" xlink:href="#aq" y="117.238"/><use x="420.561378" xlink:href="#as" y="117.238"/><use x="423.349744" xlink:href="#at" y="117.238"/><use x="428.647203" xlink:href="#au" y="117.238"/><use x="432.271206" xlink:href="#av" y="117.238"/><use x="435.617027" xlink:href="#aw" y="117.238"/></g><g><use x="444.846126" xlink:href="#ax" y="117.238"/><use x="449.306857" xlink:href="#ay" y="117.238"/><use x="454.882498" xlink:href="#as" y="117.238"/><use x="457.670864" xlink:href="#az" y="117.238"/><use x="463.525777" xlink:href="#au" y="117.238"/><use x="467.14978" xlink:href="#av" y="117.238"/><use x="470.495601" xlink:href="#ay" y="117.238"/><use x="476.071242" xlink:href="#ar" y="117.238"/></g><use x="482.202" xlink:href="#G" y="117.238"/><g><use x="489.290733" xlink:href="#g" y="117.238"/><use x="492.321281" xlink:href="#t" y="117.238"/></g><use x="499.62" xlink:href="#Y" y="117.238"/><use x="505.386" xlink:href="#ao" y="118.875"/><use x="509.302" xlink:href="#af" y="118.875"/><g><use x="3.798" xlink:href="#g" y="130.788"/><use x="6.828548" xlink:href="#r" y="130.788"/></g><g><use x="14.982009" xlink:href="#i" y="130.788"/><use x="19.224558" xlink:href="#g" y="130.788"/><use x="22.255106" xlink:href="#f" y="130.788"/><use x="31.345659" xlink:href="#c" y="130.788"/><use x="36.193663" xlink:href="#P" y="130.788"/><use x="39.829666" xlink:href="#g" y="130.788"/><use x="42.860214" xlink:href="#k" y="130.788"/><use x="48.92131" xlink:href="#p" y="130.788"/><use x="54.982406" xlink:href="#c" y="130.788"/><use x="59.83041" xlink:href="#o" y="130.788"/></g><g><use x="66.196961" xlink:href="#c" y="130.788"/><use x="71.044965" xlink:href="#k" y="130.788"/><use x="77.106061" xlink:href="#p" y="130.788"/><use x="83.167157" xlink:href="#c" y="130.788"/><use x="88.015161" xlink:href="#k" y="130.788"/></g><g><use x="93.770802" xlink:href="#i" y="130.788"/><use x="98.013351" xlink:href="#J" y="130.788"/></g><g><use x="106.542086" xlink:href="#Q" y="130.788"/><use x="114.723911" xlink:href="#k" y="130.788"/><use x="120.785007" xlink:href="#h" y="130.788"/><use x="123.815555" xlink:href="#c" y="130.788"/><use x="128.663559" xlink:href="#r" y="130.788"/><use x="132.966108" xlink:href="#r" y="130.788"/></g><use x="141.12" xlink:href="#U" y="130.788"/><g><use x="154.927" xlink:href="#g" y="130.788"/><use x="157.957548" xlink:href="#i" y="130.788"/><use x="162.200097" xlink:href="#r" y="130.788"/><use x="166.502646" xlink:href="#c" y="130.788"/><use x="171.35065" xlink:href="#h" y="130.788"/><use x="174.381198" xlink:href="#t" y="130.788"/></g><g><use x="181.565931" xlink:href="#g" y="130.788"/><use x="184.596479" xlink:href="#r" y="130.788"/></g><g><use x="192.749941" xlink:href="#r" y="130.788"/><use x="197.05249" xlink:href="#j" y="130.788"/><use x="202.50704" xlink:href="#h" y="130.788"/><use x="205.537588" xlink:href="#u" y="130.788"/></g><g><use x="210.69541" xlink:href="#e" y="130.788"/><use x="216.14996" xlink:href="#m" y="130.788"/><use x="222.211056" xlink:href="#h" y="130.788"/><use x="225.241604" xlink:href="#c" y="130.788"/><use x="230.089608" xlink:href="#G" y="130.788"/></g><g><use x="237.025614" xlink:href="#R" y="130.788"/><use x="243.08671" xlink:href="#S" y="130.788"/><use x="251.268535" xlink:href="#T" y="130.788"/></g><g><use x="263.452909" xlink:href="#q" y="130.788"/><use x="269.514005" xlink:href="#r" y="130.788"/><use x="273.816554" xlink:href="#c" y="130.788"/><use x="278.664558" xlink:href="#r" y="130.788"/></g><g><use x="286.818019" xlink:href="#r" y="130.788"/><use x="291.120568" xlink:href="#q" y="130.788"/><use x="297.181664" xlink:href="#l" y="130.788"/></g><use x="301.724213" xlink:href="#b" y="130.788"/><g><use x="311.636221" xlink:href="#e" y="130.788"/><use x="317.090771" xlink:href="#k" y="130.788"/></g><g><use x="327.00278" xlink:href="#e" y="130.788"/><use x="332.45733" xlink:href="#k" y="130.788"/><use x="338.518426" xlink:href="#e" y="130.788"/><use x="343.972976" xlink:href="#h" y="130.788"/><use x="347.003524" xlink:href="#I" y="130.788"/><use x="352.761347" xlink:href="#i" y="130.788"/><use x="357.003896" xlink:href="#g" y="130.788"/><use x="360.034444" xlink:href="#l" y="130.788"/></g><g><use x="368.73336" xlink:href="#r" y="130.788"/><use x="373.035909" xlink:href="#j" y="130.788"/><use x="378.490459" xlink:href="#h" y="130.788"/><use x="381.521007" xlink:href="#q" y="130.788"/><use x="387.582103" xlink:href="#i" y="130.788"/><use x="391.824652" xlink:href="#g" y="130.788"/><use x="394.8552" xlink:href="#j" y="130.788"/><use x="400.30975" xlink:href="#k" y="130.788"/></g><g><use x="410.221758" xlink:href="#j" y="130.788"/><use x="415.676308" xlink:href="#t" y="130.788"/></g><use x="422.866" xlink:href="#U" y="130.788"/><use x="431.934" xlink:href="#af" y="132.424"/><use x="436.666" xlink:href="#G" y="130.788"/><g><use x="443.602006" xlink:href="#i" y="130.788"/><use x="447.844555" xlink:href="#b" y="130.788"/><use x="453.905651" xlink:href="#c" y="130.788"/><use x="458.753655" xlink:href="#k" y="130.788"/></g><g><use x="468.665663" xlink:href="#e" y="130.788"/><use x="474.120213" xlink:href="#o" y="130.788"/><use x="480.181309" xlink:href="#o" y="130.788"/><use x="486.242405" xlink:href="#h" y="130.788"/><use x="489.272953" xlink:href="#I" y="130.788"/></g><g><use x="498.881688" xlink:href="#i" y="130.788"/><use x="503.124237" xlink:href="#b" y="130.788"/><use x="509.185333" xlink:href="#c" y="130.788"/></g><g><use x="3.798" xlink:href="#s" y="144.337"/><use x="8.071094" xlink:href="#c" y="144.337"/><use x="12.919099" xlink:href="#r" y="144.337"/><use x="17.221648" xlink:href="#g" y="144.337"/><use x="20.252196" xlink:href="#p" y="144.337"/><use x="26.313291" xlink:href="#q" y="144.337"/><use x="32.374387" xlink:href="#e" y="144.337"/><use x="37.828937" xlink:href="#h" y="144.337"/></g><g><use x="44.495" xlink:href="#V" y="144.337"/><use x="53.585553" xlink:href="#U" y="144.337"/></g><use x="67.177" xlink:href="#m" y="144.337"/><use x="72.932641" xlink:href="#I" y="144.337"/><g><use x="82.334104" xlink:href="#r" y="144.337"/><use x="86.636653" xlink:href="#h" y="144.337"/><use x="89.667201" xlink:href="#g" y="144.337"/><use x="92.697749" xlink:href="#l" y="144.337"/><use x="97.545753" xlink:href="#g" y="144.337"/><use x="100.576301" xlink:href="#k" y="144.337"/></g><g><use x="106.626487" xlink:href="#H" y="144.337"/><use x="112.081037" xlink:href="#J" y="144.337"/></g></svg>