<svg height="134pt" viewBox="0 0 516 134" width="516pt" xmlns="http://www.w3.org/2000/svg" xmlns:xlink="http://www.w3.org/1999/xlink"><symbol id="a" overflow="visible"><path d="m1.859375-3h1.484375c0 .453125 0 .625.390625.625.359375 0 .359375-.25.359375-.453125v-1.015625c0-.203125 0-.4375-.359375-.4375-.390625 0-.390625.171875-.390625.609375h-1.484375v-2.328125h2.734375v.578125c0 .203125 0 .453125.375.453125s.375-.234375.375-.453125v-.796875c0-.328125-.0625-.4375-.4375-.4375h-4.15625c-.171875 0-.4375 0-.4375.328125s.28125.328125.4375.328125h.359375v5.328125h-.359375c-.171875 0-.4375 0-.4375.34375 0 .328125.28125.328125.4375.328125h1.6875c.15625 0 .4375 0 .4375-.328125 0-.34375-.265625-.34375-.4375-.34375h-.578125zm0 0"/></symbol><symbol id="b" overflow="visible"><path d="m3.390625-6.34375c0-.171875 0-.4375-.328125-.4375-.203125 0-.265625.125-.328125.265625-.40625.921875-.984375 1.046875-1.1875 1.0625-.171875.015625-.40625.03125-.40625.34375 0 .265625.203125.328125.359375.328125.21875 0 .65625-.078125 1.140625-.484375v4.59375h-1c-.171875 0-.4375 0-.4375.34375 0 .328125.28125.328125.4375.328125h2.75c.15625 0 .4375 0 .4375-.328125 0-.34375-.265625-.34375-.4375-.34375h-1zm0 0"/></symbol><symbol id="c" overflow="visible"><path d="m.734375-.625c-.109375.078125-.171875.140625-.171875.28125 0 .34375.28125.34375.453125.34375h3.703125c.359375 0 .421875-.09375.421875-.453125v-.28125c0-.203125 0-.4375-.359375-.4375-.390625 0-.390625.203125-.390625.5h-2.59375c.640625-.546875 1.6875-1.375 2.15625-1.796875.6875-.625 1.1875-1.3125 1.1875-2.1875 0-1.3125-1.09375-2.125-2.421875-2.125-1.296875 0-2.15625.890625-2.15625 1.8125 0 .40625.3125.53125.5.53125.21875 0 .46875-.1875.46875-.484375 0-.140625-.046875-.28125-.140625-.359375.15625-.5.671875-.84375 1.265625-.84375.90625 0 1.734375.515625 1.734375 1.46875 0 .765625-.53125 1.390625-1.25 2zm0 0"/></symbol><symbol id="d" overflow="visible"><path d="m3.015625-3.90625 1.65625-2.09375c.390625 0 .625 0 .625-.34375 0-.3125-.296875-.3125-.453125-.3125h-.96875c-.15625 0-.4375 0-.4375.328125s.296875.328125.4375.328125l-2.296875 2.90625v-2.90625h.25c.15625 0 .4375 0 .4375-.328125s-.265625-.328125-.4375-.328125h-1.09375c-.171875 0-.453125 0-.453125.3125 0 .34375.28125.34375.453125.34375h.234375v5.328125h-.234375c-.171875 0-.453125 0-.453125.328125 0 .34375.28125.34375.453125.34375h1.09375c.15625 0 .4375 0 .4375-.328125 0-.34375-.265625-.34375-.4375-.34375h-.25v-1.4375l1.015625-1.28125 1.53125 2.71875c-.15625 0-.4375 0-.4375.328125 0 .34375.265625.34375.453125.34375h.8125c.15625 0 .453125 0 .453125-.328125 0-.34375-.265625-.34375-.578125-.34375-.015625-.03125-.0625-.109375-.078125-.125zm0 0"/></symbol><symbol id="e" overflow="visible"><path d="m1.9375-6h.609375c.15625 0 .453125 0 .453125-.328125s-.28125-.328125-.453125-.328125h-1.765625c-.171875 0-.4375 0-.4375.328125s.28125.328125.4375.328125h.40625v5.328125h-.40625c-.171875 0-.4375 0-.4375.34375 0 .328125.28125.328125.4375.328125h4.109375c.359375 0 .4375-.09375.4375-.453125v-.96875c0-.21875 0-.4375-.375-.4375-.390625 0-.390625.21875-.390625.4375v.75h-2.625zm0 0"/></symbol><symbol id="f" overflow="visible"><path d="m3.625-.828125c.046875.4375.34375.890625.859375.890625.234375 0 .890625-.15625.890625-1.03125v-.609375h-.265625v.609375c0 .625-.28125.703125-.390625.703125-.359375 0-.40625-.5-.40625-.546875v-2.1875c0-.453125 0-.875-.390625-1.28125-.4375-.4375-.984375-.609375-1.5-.609375-.890625 0-1.640625.515625-1.640625 1.234375 0 .328125.21875.515625.5.515625.296875 0 .5-.21875.5-.5 0-.140625-.0625-.5-.5625-.5.296875-.390625.828125-.5 1.1875-.5.53125 0 1.15625.421875 1.15625 1.390625v.40625c-.5625.03125-1.328125.0625-2.015625.390625-.8125.375-1.09375.9375-1.09375 1.421875 0 .875 1.0625 1.15625 1.75 1.15625.71875 0 1.21875-.4375 1.421875-.953125zm-.0625-1.796875v1.09375c0 1.046875-.796875 1.40625-1.28125 1.40625-.53125 0-.984375-.375-.984375-.921875 0-.59375.453125-1.5 2.265625-1.578125zm0 0"/></symbol><symbol id="g" overflow="visible"><path d="m1.203125-3.75v2.921875c0 .484375-.125.484375-.859375.484375v.34375c.390625-.015625.9375-.03125 1.234375-.03125.28125 0 .859375.015625 1.21875.03125v-.34375c-.71875 0-.84375 0-.84375-.484375v-2c0-1.140625.765625-1.75 1.46875-1.75.6875 0 .8125.59375.8125 1.203125v2.546875c0 .484375-.125.484375-.859375.484375v.34375c.390625-.015625.9375-.03125 1.234375-.03125.28125 0 .859375.015625 1.21875.03125v-.34375c-.5625 0-.828125 0-.84375-.328125v-2.078125c0-.9375 0-1.28125-.34375-1.671875-.140625-.1875-.5-.40625-1.140625-.40625-.796875 0-1.3125.46875-1.609375 1.15625v-1.15625l-1.546875.125v.34375c.765625 0 .859375.078125.859375.609375zm0 0"/></symbol><symbol id="h" overflow="visible"><path d="m4.140625-.59375v.71875l1.609375-.125v-.34375c-.765625 0-.859375-.078125-.859375-.609375v-6.609375l-1.5625.109375v.34375c.765625 0 .84375.078125.84375.609375v2.359375c-.3125-.390625-.78125-.6875-1.375-.6875-1.28125 0-2.421875 1.078125-2.421875 2.484375 0 1.390625 1.0625 2.46875 2.3125 2.46875.6875 0 1.1875-.375 1.453125-.71875zm0-2.921875v2.234375c0 .1875 0 .21875-.109375.390625-.328125.53125-.828125.765625-1.296875.765625-.484375 0-.875-.28125-1.140625-.6875-.28125-.453125-.3125-1.078125-.3125-1.515625 0-.40625.015625-1.0625.328125-1.546875.234375-.34375.640625-.703125 1.234375-.703125.390625 0 .84375.15625 1.1875.65625.109375.1875.109375.203125.109375.40625zm0 0"/></symbol><symbol id="i" overflow="visible"><path d="m1.828125-3.625v-1.203125l-1.515625.125v.34375c.75 0 .84375.078125.84375.609375v2.921875c0 .484375-.125.484375-.84375.484375v.34375c.421875-.015625.9375-.03125 1.234375-.03125.4375 0 .953125 0 1.390625.03125v-.34375h-.234375c-.8125 0-.828125-.109375-.828125-.5v-1.6875c0-1.078125.453125-2.046875 1.28125-2.046875.078125 0 .109375 0 .125.015625-.03125 0-.25.140625-.25.421875 0 .296875.234375.46875.46875.46875.203125 0 .46875-.140625.46875-.484375s-.34375-.671875-.8125-.671875c-.796875 0-1.1875.734375-1.328125 1.203125zm0 0"/></symbol><symbol id="j" overflow="visible"><path d="m1.21875-2.75c.0625-1.625.984375-1.890625 1.359375-1.890625 1.125 0 1.234375 1.46875 1.234375 1.890625zm-.015625.234375h3.046875c.25 0 .28125 0 .28125-.234375 0-1.078125-.59375-2.140625-1.953125-2.140625-1.265625 0-2.265625 1.125-2.265625 2.484375 0 1.46875 1.140625 2.53125 2.390625 2.53125 1.328125 0 1.828125-1.21875 1.828125-1.421875 0-.109375-.09375-.125-.140625-.125-.109375 0-.125.0625-.140625.140625-.390625 1.125-1.375 1.125-1.484375 1.125-.546875 0-.984375-.328125-1.234375-.734375-.328125-.515625-.328125-1.234375-.328125-1.625zm0 0"/></symbol><symbol id="k" overflow="visible"><path d="m1.875-4.09375v-.734375l-1.5625.125v.34375c.765625 0 .84375.0625.84375.546875v5.09375c0 .5-.125.5-.84375.5v.328125c.359375 0 .9375-.03125 1.21875-.03125.296875 0 .84375.03125 1.234375.03125v-.328125c-.734375 0-.859375 0-.859375-.5v-1.921875c.0625.171875.515625.765625 1.34375.765625 1.296875 0 2.4375-1.078125 2.4375-2.484375 0-1.375-1.0625-2.46875-2.28125-2.46875-.859375 0-1.3125.484375-1.53125.734375zm.03125 2.84375v-2.421875c.3125-.5625.859375-.875 1.40625-.875.796875 0 1.46875.953125 1.46875 2.1875 0 1.328125-.765625 2.234375-1.578125 2.234375-.4375 0-.84375-.21875-1.140625-.65625-.15625-.234375-.15625-.25-.15625-.46875zm0 0"/></symbol><symbol id="l" overflow="visible"><path d="m1.203125-3.75v2.921875c0 .484375-.125.484375-.859375.484375v.34375c.390625-.015625.9375-.03125 1.234375-.03125.28125 0 .859375.015625 1.21875.03125v-.34375c-.71875 0-.84375 0-.84375-.484375v-2c0-1.140625.765625-1.75 1.46875-1.75.6875 0 .8125.59375.8125 1.203125v2.546875c0 .484375-.125.484375-.859375.484375v.34375c.390625-.015625.9375-.03125 1.234375-.03125.28125 0 .859375.015625 1.21875.03125v-.34375c-.71875 0-.84375 0-.84375-.484375v-2c0-1.140625.78125-1.75 1.46875-1.75s.8125.59375.8125 1.203125v2.546875c0 .484375-.125.484375-.859375.484375v.34375c.390625-.015625.9375-.03125 1.234375-.03125.28125 0 .859375.015625 1.21875.03125v-.34375c-.5625 0-.828125 0-.84375-.328125v-2.078125c0-.9375 0-1.28125-.34375-1.671875-.140625-.1875-.5-.40625-1.140625-.40625-.921875 0-1.390625.65625-1.578125 1.078125-.15625-.953125-.96875-1.078125-1.453125-1.078125-.796875 0-1.3125.46875-1.609375 1.15625v-1.15625l-1.546875.125v.34375c.765625 0 .859375.078125.859375.609375zm0 0"/></symbol><symbol id="m" overflow="visible"><path d="m1.890625-4.359375h1.5625v-.34375h-1.5625v-2h-.28125c0 .890625-.328125 2.0625-1.40625 2.09375v.25h.9375v3c0 1.34375 1.015625 1.484375 1.40625 1.484375.765625 0 1.078125-.78125 1.078125-1.484375v-.609375h-.28125v.59375c0 .8125-.328125 1.21875-.71875 1.21875-.734375 0-.734375-.984375-.734375-1.171875zm0 0"/></symbol><symbol id="n" overflow="visible"><path d="m2.265625-2.109375c.25.03125 1.140625.21875 1.140625 1 0 .546875-.390625.984375-1.234375.984375-.921875 0-1.3125-.609375-1.515625-1.546875-.03125-.140625-.046875-.1875-.15625-.1875-.140625 0-.140625.078125-.140625.28125v1.4375c0 .1875 0 .265625.125.265625.046875 0 .0625-.015625.265625-.21875.03125-.03125.03125-.046875.21875-.25.484375.453125.96875.46875 1.203125.46875 1.25 0 1.75-.734375 1.75-1.515625 0-.578125-.328125-.90625-.453125-1.046875-.359375-.34375-.78125-.4375-1.25-.515625-.609375-.125-1.328125-.265625-1.328125-.890625 0-.390625.28125-.828125 1.21875-.828125 1.1875 0 1.25.96875 1.265625 1.3125.015625.09375.109375.09375.140625.09375.140625 0 .140625-.046875.140625-.25v-1.109375c0-.1875 0-.265625-.125-.265625-.046875 0-.078125 0-.21875.140625-.03125.03125-.140625.140625-.1875.171875-.40625-.3125-.859375-.3125-1.015625-.3125-1.328125 0-1.75.734375-1.75 1.34375 0 .390625.171875.6875.46875.921875.34375.296875.65625.359375 1.4375.515625zm0 0"/></symbol><symbol id="o" overflow="visible"><path d="m5.140625-2.328125c0-1.40625-1.09375-2.5625-2.421875-2.5625-1.359375 0-2.40625 1.1875-2.40625 2.5625 0 1.40625 1.125 2.453125 2.40625 2.453125 1.3125 0 2.421875-1.078125 2.421875-2.453125zm-2.421875 2.171875c-.46875 0-.9375-.21875-1.234375-.734375-.28125-.46875-.28125-1.140625-.28125-1.53125 0-.421875 0-1.015625.265625-1.5.296875-.5.8125-.71875 1.25-.71875.484375 0 .953125.234375 1.234375.703125s.28125 1.109375.28125 1.515625c0 .390625 0 .984375-.25 1.46875-.234375.484375-.71875.796875-1.265625.796875zm0 0"/></symbol><symbol id="p" overflow="visible"><path d="m1.28125-2.375c0-1.78125.890625-2.234375 1.46875-2.234375.09375 0 .78125 0 1.171875.40625-.453125.03125-.515625.359375-.515625.5 0 .28125.1875.5.5.5.28125 0 .5-.1875.5-.515625 0-.734375-.828125-1.171875-1.671875-1.171875-1.359375 0-2.359375 1.1875-2.359375 2.53125 0 1.40625 1.078125 2.484375 2.34375 2.484375 1.453125 0 1.8125-1.3125 1.8125-1.421875s-.109375-.109375-.140625-.109375c-.109375 0-.125.046875-.140625.109375-.328125 1.015625-1.03125 1.140625-1.4375 1.140625-.578125 0-1.53125-.46875-1.53125-2.21875zm0 0"/></symbol><symbol id="q" overflow="visible"><path d="m1.203125-.828125c0 .484375-.125.484375-.859375.484375v.34375c.390625-.015625.9375-.03125 1.234375-.03125.28125 0 .859375.015625 1.21875.03125v-.34375c-.71875 0-.84375 0-.84375-.484375v-2c0-1.140625.765625-1.75 1.46875-1.75.6875 0 .8125.59375.8125 1.203125v2.546875c0 .484375-.125.484375-.859375.484375v.34375c.390625-.015625.9375-.03125 1.234375-.03125.28125 0 .859375.015625 1.21875.03125v-.34375c-.5625 0-.828125 0-.84375-.328125v-2.078125c0-.9375 0-1.28125-.34375-1.671875-.140625-.1875-.5-.40625-1.140625-.40625-.921875 0-1.390625.65625-1.578125 1.078125v-3.8125l-1.578125.109375v.34375c.765625 0 .859375.078125.859375.609375zm0 0"/></symbol><symbol id="r" overflow="visible"><path d="m1.9375-4.828125-1.53125.125v.34375c.703125 0 .796875.0625.796875.59375v2.9375c0 .484375-.109375.484375-.84375.484375v.34375c.34375-.015625.9375-.03125 1.203125-.03125.375 0 .765625.015625 1.125.03125v-.34375c-.71875 0-.75-.046875-.75-.46875zm.03125-1.890625c0-.34375-.265625-.578125-.578125-.578125-.328125 0-.578125.296875-.578125.578125 0 .296875.25.578125.578125.578125.3125 0 .578125-.234375.578125-.578125zm0 0"/></symbol><symbol id="s" overflow="visible"><path d="m4.25-4.375c.109375-.125.109375-.140625.109375-.1875 0-.140625-.09375-.140625-.296875-.140625h-3.484375l-.125 1.765625h.28125c.0625-1.125.265625-1.515625 1.46875-1.515625h1.25l-3.046875 4.109375c-.09375.109375-.09375.140625-.09375.1875 0 .15625.0625.15625.28125.15625h3.59375l.1875-2.046875h-.28125c-.09375 1.296875-.3125 1.78125-1.578125 1.78125h-1.296875zm0 0"/></symbol><symbol id="t" overflow="visible"><path d="m1.9375-7.5625-1.578125.109375v.34375c.765625 0 .84375.078125.84375.609375v5.671875c0 .484375-.109375.484375-.84375.484375v.34375c.359375-.015625.9375-.03125 1.21875-.03125.265625 0 .796875.015625 1.203125.03125v-.34375c-.734375 0-.84375 0-.84375-.484375zm0 0"/></symbol><symbol id="u" overflow="visible"><path d="m1.90625-4.703125v-1.265625c0-.953125.53125-1.484375 1-1.484375.03125 0 .203125 0 .359375.078125-.125.046875-.328125.1875-.328125.453125s.1875.46875.46875.46875c.328125 0 .484375-.203125.484375-.46875 0-.40625-.40625-.765625-.984375-.765625-.75 0-1.6875.578125-1.6875 1.734375v1.25h-.859375v.34375h.859375v3.53125c0 .484375-.125.484375-.84375.484375v.34375c.421875-.015625.9375-.03125 1.234375-.03125.4375 0 .953125 0 1.390625.03125v-.34375h-.234375c-.796875 0-.828125-.109375-.828125-.5v-3.515625h1.25v-.34375zm0 0"/></symbol><symbol id="v" overflow="visible"><path d="m3.59375-4.359375c.5 0 .578125.140625.578125.578125v2.953125c0 .484375-.109375.484375-.84375.484375v.34375c.359375-.015625.9375-.03125 1.203125-.03125.28125 0 .8125.015625 1.21875.03125v-.34375c-.734375 0-.859375 0-.859375-.484375v-4l-1.375.09375c-.171875.015625-.171875.015625-.1875.015625-.03125.015625-.046875.015625-.203125.015625h-1.28125v-1.234375c0-1.078125.9375-1.515625 1.609375-1.515625.328125 0 .71875.109375.9375.359375-.4375.03125-.515625.328125-.515625.5 0 .359375.296875.515625.5.515625.25 0 .5-.1875.5-.515625 0-.640625-.59375-1.09375-1.40625-1.09375-1.015625 0-2.3125.5625-2.3125 1.75v1.234375h-.859375v.34375h.859375v3.53125c0 .484375-.125.484375-.84375.484375v.34375c.359375-.015625.9375-.03125 1.203125-.03125s.8125.015625 1.203125.03125v-.34375c-.71875 0-.84375 0-.84375-.484375v-3.53125zm0 0"/></symbol><symbol id="w" overflow="visible"><path d="m2.421875-1.875c-.953125 0-.953125-1.09375-.953125-1.34375 0-.296875.015625-.640625.171875-.921875.09375-.125.34375-.421875.78125-.421875.953125 0 .953125 1.078125.953125 1.328125 0 .296875-.015625.65625-.171875.921875-.09375.125-.34375.4375-.78125.4375zm-1.265625.421875c0-.046875 0-.296875.1875-.515625.421875.3125.875.34375 1.078125.34375 1.015625 0 1.765625-.75 1.765625-1.59375 0-.40625-.171875-.8125-.453125-1.0625.40625-.359375.796875-.421875.984375-.421875.03125 0 .078125 0 .109375.015625-.109375.046875-.171875.15625-.171875.296875 0 .1875.140625.3125.3125.3125.109375 0 .328125-.078125.328125-.328125 0-.1875-.140625-.53125-.5625-.53125-.21875 0-.703125.0625-1.15625.515625-.453125-.359375-.921875-.40625-1.15625-.40625-1.015625 0-1.765625.765625-1.765625 1.59375 0 .484375.234375.90625.515625 1.125-.140625.171875-.34375.53125-.34375.90625 0 .34375.140625.75.484375.96875-.65625.1875-1 .65625-1 1.09375 0 .78125 1.078125 1.390625 2.40625 1.390625 1.28125 0 2.421875-.5625 2.421875-1.40625 0-.390625-.15625-.9375-.71875-1.25-.578125-.296875-1.203125-.296875-1.875-.296875-.265625 0-.734375 0-.8125-.015625-.34375-.046875-.578125-.375-.578125-.734375zm1.5625 3.453125c-1.09375 0-1.84375-.5625-1.84375-1.140625 0-.5.40625-.90625.890625-.9375h.640625c.9375 0 2.15625 0 2.15625.9375 0 .59375-.765625 1.140625-1.84375 1.140625zm0 0"/></symbol><symbol id="x" overflow="visible"><path d="m2.09375-4.125c0-.3125-.265625-.578125-.578125-.578125s-.578125.265625-.578125.578125.265625.578125.578125.578125.578125-.265625.578125-.578125zm0 3.546875c0-.3125-.265625-.578125-.578125-.578125s-.578125.265625-.578125.578125.265625.578125.578125.578125.578125-.265625.578125-.578125zm0 0"/></symbol><symbol id="y" overflow="visible"><path d="m7.5-3.5625c.15625 0 .359375 0 .359375-.21875s-.203125-.21875-.359375-.21875h-6.53125c-.15625 0-.359375 0-.359375.21875s.203125.21875.375.21875zm0 2.109375c.15625 0 .359375 0 .359375-.21875s-.203125-.21875-.359375-.21875h-6.515625c-.171875 0-.375 0-.375.21875s.203125.21875.359375.21875zm0 0"/></symbol><symbol id="z" overflow="visible"><path d="m3.609375 2.625c0-.046875 0-.0625-.1875-.25-1.359375-1.375-1.703125-3.4375-1.703125-5.09375 0-1.90625.40625-3.796875 1.75-5.171875.140625-.125.140625-.140625.140625-.1875 0-.0625-.046875-.09375-.109375-.09375-.109375 0-1.09375.734375-1.734375 2.125-.5625 1.1875-.6875 2.40625-.6875 3.328125 0 .84375.125 2.15625.71875 3.390625.65625 1.34375 1.59375 2.046875 1.703125 2.046875.0625 0 .109375-.03125.109375-.09375zm0 0"/></symbol><symbol id="A" overflow="visible"><path d="m3.15625-2.71875c0-.859375-.125-2.171875-.71875-3.40625-.65625-1.34375-1.59375-2.046875-1.703125-2.046875-.0625 0-.109375.03125-.109375.09375 0 .046875 0 .0625.203125.265625 1.0625 1.078125 1.6875 2.8125 1.6875 5.09375 0 1.859375-.40625 3.78125-1.75 5.15625-.140625.125-.140625.140625-.140625.1875 0 .0625.046875.09375.109375.09375.109375 0 1.09375-.734375 1.734375-2.125.546875-1.1875.6875-2.40625.6875-3.3125zm0 0"/></symbol><symbol id="B" overflow="visible"><path d="m1.390625-.84375 1.15625-1.125c1.703125-1.5 2.34375-2.09375 2.34375-3.171875 0-1.25-.96875-2.125-2.3125-2.125-1.21875 0-2.03125 1-2.03125 1.96875 0 .625.546875.625.578125.625.1875 0 .5625-.140625.5625-.578125 0-.296875-.1875-.578125-.578125-.578125-.078125 0-.109375 0-.140625.015625.25-.703125.84375-1.109375 1.46875-1.109375 1 0 1.46875.875 1.46875 1.78125 0 .859375-.546875 1.734375-1.140625 2.40625l-2.09375 2.328125c-.125.125-.125.140625-.125.40625h4.046875l.296875-1.890625h-.265625c-.0625.3125-.125.796875-.234375.96875-.078125.078125-.796875.078125-1.046875.078125zm0 0"/></symbol><symbol id="C" overflow="visible"><path d="m3.203125-1.796875v.953125c0 .390625-.015625.5-.828125.5h-.21875v.34375c.4375-.03125 1-.03125 1.46875-.03125.453125 0 1.03125 0 1.484375.03125v-.34375h-.234375c-.8125 0-.828125-.109375-.828125-.5v-.953125h1.09375v-.34375h-1.09375v-4.953125c0-.21875 0-.296875-.171875-.296875-.09375 0-.140625 0-.21875.140625l-3.34375 5.109375v.34375zm.0625-.34375h-2.65625l2.65625-4.0625zm0 0"/></symbol><symbol id="D" overflow="visible"><path d="m3.203125-6.984375c0-.25 0-.28125-.25-.28125-.671875.703125-1.640625.703125-1.984375.703125v.328125c.21875 0 .859375 0 1.4375-.28125v5.65625c0 .390625-.046875.515625-1.015625.515625h-.359375v.34375c.390625-.03125 1.328125-.03125 1.765625-.03125s1.390625 0 1.765625.03125v-.34375h-.34375c-.984375 0-1.015625-.109375-1.015625-.515625zm0 0"/></symbol><symbol id="E" overflow="visible"><path d="m4.890625-2.1875c0-1.296875-.890625-2.390625-2.0625-2.390625-.53125 0-1 .171875-1.390625.546875v-2.125c.21875.078125.578125.140625.921875.140625 1.34375 0 2.109375-.984375 2.109375-1.125 0-.0625-.03125-.125-.109375-.125 0 0-.03125 0-.078125.03125-.21875.109375-.765625.3125-1.484375.3125-.4375 0-.9375-.0625-1.453125-.296875-.09375-.03125-.109375-.03125-.140625-.03125-.109375 0-.109375.078125-.109375.265625v3.21875c0 .203125 0 .28125.15625.28125.078125 0 .109375-.03125.140625-.09375.125-.171875.53125-.765625 1.40625-.765625.578125 0 .84375.5.9375.703125.171875.40625.1875.828125.1875 1.375 0 .375 0 1.03125-.25 1.484375-.265625.4375-.671875.71875-1.171875.71875-.796875 0-1.421875-.578125-1.609375-1.21875.03125 0 .0625.015625.1875.015625.359375 0 .546875-.265625.546875-.53125s-.1875-.53125-.546875-.53125c-.15625 0-.53125.078125-.53125.578125 0 .9375.75 1.984375 1.96875 1.984375 1.265625 0 2.375-1.046875 2.375-2.421875zm0 0"/></symbol><symbol id="F" overflow="visible"><path d="m3.15625-3.84375c.90625-.296875 1.53125-1.046875 1.53125-1.921875 0-.890625-.953125-1.5-2-1.5-1.109375 0-1.9375.65625-1.9375 1.484375 0 .359375.25.5625.5625.5625.328125 0 .546875-.234375.546875-.546875 0-.546875-.5-.546875-.671875-.546875.34375-.53125 1.0625-.671875 1.453125-.671875.453125 0 1.046875.234375 1.046875 1.21875 0 .125-.015625.765625-.3125 1.234375-.328125.53125-.6875.5625-.96875.578125-.078125 0-.34375.03125-.421875.03125-.09375 0-.15625.015625-.15625.125 0 .125.0625.125.25.125h.484375c.890625 0 1.296875.734375 1.296875 1.8125 0 1.484375-.75 1.796875-1.234375 1.796875-.46875 0-1.28125-.1875-1.671875-.828125.390625.046875.71875-.1875.71875-.609375 0-.390625-.28125-.609375-.609375-.609375-.25 0-.609375.15625-.609375.640625 0 .984375 1.015625 1.703125 2.203125 1.703125 1.328125 0 2.328125-.984375 2.328125-2.09375 0-.90625-.6875-1.75-1.828125-1.984375zm0 0"/></symbol><symbol id="G" overflow="visible"><path d="m6.75-3.671875c.203125-.53125.53125-.6875.921875-.6875v-.34375c-.25.03125-.5625.03125-.796875.03125-.328125 0-.8125-.015625-1.015625-.03125v.34375c.390625 0 .625.203125.625.515625 0 .0625 0 .09375-.046875.234375l-1 2.796875-1.078125-3.046875c-.046875-.125-.046875-.15625-.046875-.203125 0-.296875.421875-.296875.640625-.296875v-.34375c-.3125.015625-.875.03125-1.140625.03125-.328125 0-.640625 0-.96875-.03125v.34375c.40625 0 .578125.015625.6875.15625.0625.0625.171875.390625.25.609375l-.9375 2.640625-1.03125-2.921875c-.0625-.125-.0625-.15625-.0625-.1875 0-.296875.4375-.296875.65625-.296875v-.34375c-.328125.015625-.9375.03125-1.203125.03125-.03125 0-.609375 0-1-.03125v.34375c.53125 0 .671875.03125.796875.375l1.375 3.859375c.0625.15625.09375.25.234375.25s.15625-.078125.21875-.21875l1.09375-3.09375 1.109375 3.09375c.046875.125.078125.21875.21875.21875.15625 0 .1875-.109375.21875-.21875zm0 0"/></symbol><symbol id="H" overflow="visible"><path d="m5.015625-3.484375c0-.875-.046875-1.75-.4375-2.5625-.5-1.046875-1.390625-1.21875-1.859375-1.21875-.640625 0-1.4375.28125-1.890625 1.296875-.34375.75-.40625 1.609375-.40625 2.484375 0 .8125.046875 1.796875.5 2.625.46875.875 1.265625 1.09375 1.796875 1.09375.578125 0 1.421875-.21875 1.890625-1.265625.359375-.75.40625-1.59375.40625-2.453125zm-2.296875 3.484375c-.421875 0-1.078125-.265625-1.265625-1.3125-.125-.65625-.125-1.671875-.125-2.3125 0-.6875 0-1.40625.09375-2 .203125-1.296875 1.015625-1.40625 1.296875-1.40625.359375 0 1.078125.203125 1.28125 1.28125.109375.609375.109375 1.4375.109375 2.125 0 .828125 0 1.5625-.125 2.265625-.15625 1.03125-.78125 1.359375-1.265625 1.359375zm0 0"/></symbol><symbol id="I" overflow="visible"><path d="m1.4375-3.578125v-.265625c0-2.75 1.359375-3.140625 1.90625-3.140625.265625 0 .71875.0625.96875.4375-.171875 0-.609375 0-.609375.484375 0 .34375.265625.5.5.5.1875 0 .515625-.09375.515625-.515625 0-.65625-.484375-1.1875-1.390625-1.1875-1.390625 0-2.875 1.40625-2.875 3.8125 0 2.921875 1.265625 3.6875 2.28125 3.6875 1.21875 0 2.25-1.015625 2.25-2.453125 0-1.390625-.96875-2.4375-2.1875-2.4375-.734375 0-1.140625.5625-1.359375 1.078125zm1.296875 3.515625c-.6875 0-1.015625-.65625-1.078125-.828125-.1875-.5-.1875-1.375-.1875-1.578125 0-.84375.34375-1.9375 1.328125-1.9375.171875 0 .671875 0 1.015625.671875.1875.40625.1875.96875.1875 1.5 0 .515625 0 1.0625-.1875 1.453125-.328125.65625-.828125.71875-1.078125.71875zm0 0"/></symbol><symbol id="J" overflow="visible"><path d="m4.890625-4.359375h1.25v-.34375h-1.28125v-1.265625c0-.96875.515625-1.484375 1.015625-1.484375.03125 0 .1875 0 .359375.078125-.140625.046875-.328125.1875-.328125.453125s.171875.46875.46875.46875c.3125 0 .46875-.203125.46875-.46875 0-.390625-.375-.765625-.984375-.765625-.640625 0-1.125.40625-1.1875.453125-.3125-.40625-.921875-.453125-1.21875-.453125-1.03125 0-2.296875.5625-2.296875 1.75v1.234375h-.859375v.34375h.859375v3.53125c0 .484375-.125.484375-.84375.484375v.34375c.359375-.015625.9375-.03125 1.203125-.03125s.8125.015625 1.203125.03125v-.34375c-.71875 0-.84375 0-.84375-.484375v-3.53125h2.296875v3.53125c0 .484375-.125.484375-.859375.484375v.34375c.421875-.015625.9375-.03125 1.25-.03125.4375 0 .9375 0 1.375.03125v-.34375h-.21875c-.8125 0-.828125-.109375-.828125-.5zm-3.046875-.34375v-1.234375c0-1.046875.890625-1.515625 1.609375-1.515625.53125 0 .828125.21875.84375.21875-.1875.03125-.40625.171875-.40625.46875 0 .0625.015625.34375.3125.4375-.03125.140625-.03125.25-.03125.375v1.25zm0 0"/></symbol><symbol id="K" overflow="visible"><path d="m4.53125-3.625c.109375-.25.296875-.734375 1.015625-.734375v-.34375c-.25.03125-.578125.03125-.828125.03125-.265625 0-.765625-.015625-.9375-.03125v.34375c.390625 0 .515625.265625.515625.46875 0 .09375-.015625.140625-.0625.265625l-1.109375 2.78125-1.234375-3.046875c-.0625-.140625-.0625-.171875-.0625-.1875 0-.28125.421875-.28125.625-.28125v-.34375c-.328125.015625-.9375.03125-1.1875.03125-.296875 0-.734375 0-1.0625-.03125v.34375c.6875 0 .734375.0625.875.40625l1.578125 3.859375c.0625.15625.078125.21875.21875.21875s.1875-.109375.234375-.21875zm0 0"/></symbol><symbol id="L" overflow="visible"><path d="m2.21875-.015625c0-.6875-.265625-1.140625-.703125-1.140625-.375 0-.578125.296875-.578125.578125s.1875.578125.578125.578125c.171875 0 .3125-.0625.421875-.15625l.015625-.015625c.015625 0 .015625.015625.015625.15625 0 .703125-.296875 1.375-.78125 1.875-.0625.078125-.078125.078125-.078125.125 0 .078125.0625.125.109375.125.140625 0 1-.859375 1-2.125zm0 0"/></symbol><symbol id="M" overflow="visible"><path d="m2.09375-.578125c0-.3125-.265625-.578125-.578125-.578125s-.578125.265625-.578125.578125.265625.578125.578125.578125.578125-.265625.578125-.578125zm0 0"/></symbol><symbol id="N" overflow="visible"><path d="m4.0625-4.125c-.1875-.40625-.5-.703125-1-.703125-1.28125 0-2.625 1.609375-2.625 3.203125 0 1.03125.59375 1.75 1.453125 1.75.21875 0 .765625-.046875 1.40625-.828125.09375.46875.484375.828125 1 .828125.375 0 .625-.25.8125-.609375.1875-.390625.328125-1.046875.328125-1.078125 0-.109375-.109375-.109375-.140625-.109375-.109375 0-.109375.046875-.15625.203125-.171875.703125-.375 1.34375-.828125 1.34375-.28125 0-.328125-.28125-.328125-.5 0-.234375.03125-.328125.15625-.796875.109375-.46875.140625-.578125.234375-.984375l.390625-1.53125c.078125-.3125.078125-.328125.078125-.375 0-.1875-.125-.296875-.3125-.296875-.265625 0-.4375.25-.46875.484375zm-.703125 2.828125c-.0625.203125-.0625.21875-.21875.40625-.484375.59375-.921875.765625-1.234375.765625-.546875 0-.703125-.59375-.703125-1.015625 0-.546875.359375-1.890625.609375-2.390625.34375-.640625.828125-1.046875 1.265625-1.046875.703125 0 .859375.890625.859375.953125s-.015625.140625-.03125.1875zm0 0"/></symbol><symbol id="O" overflow="visible"><path d="m2.21875-.015625c0-.71875-.28125-1.140625-.703125-1.140625-.359375 0-.578125.265625-.578125.578125 0 .296875.21875.578125.578125.578125.125 0 .265625-.046875.375-.140625.046875-.015625.046875-.03125.0625-.03125s.015625.015625.015625.15625c0 .8125-.375 1.46875-.734375 1.828125-.125.125-.125.140625-.125.171875 0 .078125.0625.125.109375.125.125 0 1-.84375 1-2.125zm0 0"/></symbol><symbol id="P" overflow="visible"><path d="m4.078125-6.609375c.09375-.390625.125-.5 1-.5.25 0 .34375 0 .34375-.203125 0-.140625-.125-.140625-.171875-.140625-.3125 0-1.109375.03125-1.4375.03125s-1.125-.03125-1.453125-.03125c-.0625 0-.203125 0-.203125.21875 0 .125.09375.125.296875.125.453125 0 .75 0 .75.203125 0 .0625 0 .078125-.015625.171875l-1.46875 5.890625c-.109375.390625-.140625.5-1 .5-.25 0-.34375 0-.34375.21875 0 .125.125.125.15625.125.3125 0 1.109375-.03125 1.4375-.03125s1.125.03125 1.453125.03125c.09375 0 .21875 0 .21875-.203125 0-.140625-.078125-.140625-.328125-.140625-.1875 0-.25 0-.46875-.015625s-.265625-.0625-.265625-.1875c0-.078125.015625-.171875.046875-.25zm0 0"/></symbol><symbol id="Q" overflow="visible"><path d="m4.265625-4.078125c-.3125.015625-.53125.25-.53125.484375 0 .15625.109375.328125.34375.328125s.5-.1875.5-.609375c0-.5-.46875-.953125-1.296875-.953125-1.4375 0-1.84375 1.125-1.84375 1.59375 0 .859375.8125 1.015625 1.125 1.078125.5625.109375 1.140625.234375 1.140625.84375 0 .28125-.25 1.1875-1.5625 1.1875-.15625 0-1 0-1.25-.578125.421875.0625.6875-.265625.6875-.578125 0-.25-.171875-.375-.40625-.375-.28125 0-.609375.234375-.609375.71875 0 .625.625 1.0625 1.5625 1.0625 1.765625 0 2.1875-1.328125 2.1875-1.8125 0-.390625-.203125-.671875-.328125-.796875-.296875-.3125-.609375-.359375-1.09375-.453125-.390625-.09375-.828125-.171875-.828125-.65625 0-.328125.265625-.984375 1.21875-.984375.28125 0 .8125.078125.984375.5zm0 0"/></symbol><symbol id="R" overflow="visible"><path d="m5.546875-4.40625c0-.03125-.046875-.125-.046875-.15625 0 0 .1875-.15625.3125-.25l1.90625-1.46875c1.03125-.75 1.453125-.796875 1.78125-.828125.09375-.015625.203125-.015625.203125-.21875 0-.046875-.046875-.125-.125-.125-.25 0-.515625.03125-.78125.03125-.390625 0-.8125-.03125-1.203125-.03125-.078125 0-.203125 0-.203125.21875 0 .078125.046875.109375.125.125.234375.015625.34375.078125.34375.234375 0 .1875-.328125.4375-.40625.5l-4.25 3.265625.875-3.5c.09375-.390625.125-.5.921875-.5.265625 0 .359375 0 .359375-.21875 0-.09375-.078125-.125-.140625-.125-.3125 0-1.09375.03125-1.40625.03125s-1.09375-.03125-1.40625-.03125c-.078125 0-.21875 0-.21875.21875 0 .125.109375.125.328125.125.140625 0 .328125.015625.46875.015625.171875.03125.234375.0625.234375.171875 0 .046875-.015625.078125-.046875.21875l-1.453125 5.859375c-.109375.421875-.140625.5-1 .5-.1875 0-.296875 0-.296875.21875 0 .125.125.125.15625.125.3125 0 1.078125-.03125 1.390625-.03125.21875 0 .46875.015625.6875.015625.25 0 .484375.015625.71875.015625.078125 0 .21875 0 .21875-.21875 0-.125-.109375-.125-.3125-.125-.40625 0-.703125 0-.703125-.1875 0-.078125.0625-.3125.09375-.484375.15625-.5625.296875-1.140625.4375-1.703125l1.625-1.265625 1.265625 2.921875c.125.296875.125.328125.125.390625 0 .328125-.46875.328125-.5625.328125-.125 0-.234375 0-.234375.21875 0 .125.125.125.140625.125.4375 0 .90625-.03125 1.34375-.03125.234375 0 .828125.03125 1.0625.03125.046875 0 .203125 0 .203125-.21875 0-.125-.125-.125-.21875-.125-.453125 0-.59375-.109375-.765625-.484375zm0 0"/></symbol><symbol id="S" overflow="visible"><path d="m5.625-7.453125s0-.109375-.140625-.109375c-.15625 0-1.203125.09375-1.390625.109375-.078125.015625-.140625.0625-.140625.21875 0 .125.09375.125.25.125.53125 0 .546875.078125.546875.1875l-.03125.21875-.65625 2.578125c-.1875-.40625-.5-.703125-1-.703125-1.28125 0-2.625 1.609375-2.625 3.203125 0 1.03125.59375 1.75 1.453125 1.75.21875 0 .765625-.046875 1.40625-.828125.09375.46875.484375.828125 1 .828125.375 0 .625-.25.8125-.609375.1875-.390625.328125-1.046875.328125-1.078125 0-.109375-.109375-.109375-.140625-.109375-.109375 0-.109375.046875-.15625.203125-.171875.703125-.375 1.34375-.828125 1.34375-.28125 0-.328125-.28125-.328125-.5 0-.265625.03125-.328125.078125-.515625zm-2.265625 6.15625c-.0625.203125-.0625.21875-.21875.40625-.484375.59375-.921875.765625-1.234375.765625-.546875 0-.703125-.59375-.703125-1.015625 0-.546875.359375-1.890625.609375-2.390625.34375-.640625.828125-1.046875 1.265625-1.046875.703125 0 .859375.890625.859375.953125s-.015625.140625-.03125.1875zm0 0"/></symbol><symbol id="T" overflow="visible"><path d="m4.78125-7.765625c.0625-.140625.0625-.1875.0625-.203125 0-.109375-.09375-.203125-.21875-.203125-.078125 0-.15625.03125-.1875.09375l-3.78125 10.390625c-.0625.140625-.0625.1875-.0625.203125 0 .109375.109375.203125.21875.203125.140625 0 .1875-.0625.25-.25zm0 0"/></symbol><symbol id="U" overflow="visible"><path d="m4.25 9.328125-1.921875-4.25c-.078125-.171875-.140625-.171875-.171875-.171875 0 0-.0625 0-.1875.09375l-1.03125.78125c-.140625.109375-.140625.140625-.140625.171875 0 .0625.03125.125.109375.125.0625 0 .25-.15625.375-.25.0625-.046875.21875-.171875.34375-.25l2.15625 4.71875c.0625.171875.125.171875.21875.171875.171875 0 .203125-.0625.28125-.21875l4.953125-10.25c.0625-.15625.0625-.203125.0625-.21875 0-.109375-.078125-.21875-.21875-.21875-.078125 0-.15625.0625-.25.234375zm0 0"/></symbol><symbol id="V" overflow="visible"><path d="m7.484375-4.625c.1875 0 .390625 0 .390625-.21875s-.203125-.21875-.375-.21875h-6.515625c-.1875 0-.390625 0-.390625.21875s.21875.21875.40625.21875zm.015625 4.234375c.171875 0 .375 0 .375-.21875s-.203125-.21875-.390625-.21875h-6.484375c-.1875 0-.40625 0-.40625.21875s.203125.21875.390625.21875zm0-2.125c.171875 0 .375 0 .375-.203125 0-.21875-.203125-.21875-.375-.21875h-6.515625c-.1875 0-.390625 0-.390625.21875 0 .203125.203125.203125.390625.203125zm0 0"/></symbol><symbol id="W" overflow="visible"><path d="m7.1875-2.515625c.1875 0 .375 0 .375-.203125 0-.21875-.1875-.21875-.375-.21875h-5.90625c-.1875 0-.375 0-.375.21875 0 .203125.1875.203125.375.203125zm0 0"/></symbol><symbol id="X" overflow="visible"><path d="m7.640625 25.625c0-.046875-.03125-.078125-.046875-.109375-.40625-.40625-1.140625-1.125-1.875-2.3125-1.75-2.8125-2.546875-6.359375-2.546875-10.546875 0-2.9375.390625-6.71875 2.1875-9.96875.875-1.546875 1.765625-2.453125 2.25-2.921875.03125-.03125.03125-.0625.03125-.09375 0-.109375-.078125-.109375-.234375-.109375s-.171875 0-.34375.171875c-3.65625 3.3125-4.796875 8.3125-4.796875 12.90625 0 4.28125.984375 8.609375 3.75 11.859375.21875.25.640625.703125 1.078125 1.09375.140625.140625.15625.140625.3125.140625s.234375 0 .234375-.109375zm0 0"/></symbol><symbol id="Y" overflow="visible"><path d="m5.75 12.65625c0-4.296875-.984375-8.609375-3.75-11.875-.21875-.25-.640625-.6875-1.078125-1.09375-.140625-.125-.15625-.125-.3125-.125-.125 0-.234375 0-.234375.109375 0 .046875.046875.09375.078125.109375.375.390625 1.109375 1.125 1.84375 2.296875 1.75 2.8125 2.546875 6.359375 2.546875 10.5625 0 2.9375-.390625 6.71875-2.1875 9.96875-.875 1.546875-1.765625 2.453125-2.234375 2.90625-.015625.03125-.046875.078125-.046875.109375 0 .109375.109375.109375.234375.109375.15625 0 .171875 0 .34375-.171875 3.65625-3.328125 4.796875-8.3125 4.796875-12.90625zm0 0"/></symbol><symbol id="Z" overflow="visible"><path d="m1.140625 23.75c.34375-.03125.53125-.265625.53125-.546875 0-.359375-.28125-.53125-.53125-.53125s-.53125.171875-.53125.546875c0 .5625.546875 1.015625 1.21875 1.015625 1.65625 0 2.265625-2.546875 3.046875-5.71875.84375-3.4375 1.546875-6.921875 2.140625-10.421875.40625-2.328125.796875-4.5 1.171875-5.90625.140625-.546875.5-1.953125.9375-1.953125.328125 0 .609375.21875.640625.25-.359375.03125-.53125.265625-.53125.546875 0 .359375.265625.53125.515625.53125.265625 0 .53125-.171875.53125-.546875 0-.59375-.578125-1.015625-1.1875-1.015625-.828125 0-1.4375 1.1875-2.03125 3.40625-.03125.125-1.515625 5.609375-2.71875 12.734375-.28125 1.671875-.609375 3.484375-.96875 5-.1875.796875-.6875 2.859375-1.578125 2.859375-.390625 0-.65625-.25-.65625-.25zm0 0"/></symbol><symbol id="aa" overflow="visible"><path d="m2.25-1.625c.125-.125.453125-.390625.59375-.5.484375-.453125.953125-.890625.953125-1.609375 0-.953125-.796875-1.5625-1.78125-1.5625-.96875 0-1.59375.71875-1.59375 1.4375 0 .390625.3125.4375.421875.4375.171875 0 .421875-.109375.421875-.421875 0-.40625-.40625-.40625-.5-.40625.234375-.59375.765625-.78125 1.15625-.78125.734375 0 1.125.625 1.125 1.296875 0 .828125-.578125 1.4375-1.53125 2.390625l-1 1.046875c-.09375.078125-.09375.09375-.09375.296875h3.140625l.234375-1.421875h-.25c-.015625.15625-.078125.546875-.171875.703125-.046875.0625-.65625.0625-.78125.0625h-1.421875zm0 0"/></symbol><symbol id="ab" overflow="visible"><path d="m3.890625-2.546875c0-.84375-.078125-1.359375-.34375-1.875-.34375-.703125-1-.875-1.4375-.875-1 0-1.375.75-1.484375.96875-.28125.578125-.296875 1.375-.296875 1.78125 0 .53125.015625 1.328125.40625 1.96875.359375.59375.953125.75 1.375.75.390625 0 1.0625-.125 1.46875-.90625.296875-.578125.3125-1.296875.3125-1.8125zm-1.78125 2.484375c-.265625 0-.8125-.125-.984375-.953125-.09375-.453125-.09375-1.203125-.09375-1.625 0-.546875 0-1.109375.09375-1.546875.171875-.8125.78125-.890625.984375-.890625.265625 0 .828125.140625.984375.859375.09375.4375.09375 1.046875.09375 1.578125 0 .46875 0 1.1875-.09375 1.640625-.171875.828125-.71875.9375-.984375.9375zm0 0"/></symbol><symbol id="ac" overflow="visible"><path d="m2.5-5.078125c0-.21875-.015625-.21875-.234375-.21875-.328125.3125-.75.5-1.5.5v.265625c.21875 0 .640625 0 1.109375-.203125v4.078125c0 .296875-.03125.390625-.78125.390625h-.28125v.265625c.328125-.03125 1.015625-.03125 1.375-.03125s1.046875 0 1.375.03125v-.265625h-.28125c-.75 0-.78125-.09375-.78125-.390625zm0 0"/></symbol><symbol id="ad" overflow="visible"><path d="m2.015625-2.65625c.625 0 1.03125.453125 1.03125 1.296875 0 1-.5625 1.28125-.984375 1.28125-.4375 0-1.046875-.15625-1.328125-.578125.296875 0 .5-.1875.5-.4375 0-.265625-.1875-.4375-.453125-.4375-.203125 0-.4375.125-.4375.453125 0 .75.8125 1.25 1.734375 1.25 1.046875 0 1.796875-.734375 1.796875-1.53125 0-.671875-.53125-1.265625-1.34375-1.453125.625-.21875 1.109375-.75 1.109375-1.390625s-.71875-1.09375-1.546875-1.09375c-.859375 0-1.5.453125-1.5 1.0625 0 .296875.1875.421875.40625.421875.25 0 .40625-.171875.40625-.40625 0-.296875-.265625-.40625-.4375-.40625.34375-.4375.953125-.46875 1.09375-.46875.203125 0 .8125.0625.8125.890625 0 .546875-.234375.890625-.34375 1.015625-.234375.25-.421875.265625-.90625.296875-.15625 0-.21875.015625-.21875.125s.078125.109375.21875.109375zm0 0"/></symbol><symbol id="ae" overflow="visible"><path d="m1.59375-1.3125c.03125-.109375.109375-.421875.125-.53125.109375-.4375.109375-.4375.296875-.703125.265625-.390625.640625-.75 1.171875-.75.28125 0 .453125.171875.453125.546875 0 .4375-.328125 1.34375-.484375 1.734375-.109375.265625-.109375.3125-.109375.421875 0 .453125.375.671875.71875.671875.78125 0 1.109375-1.109375 1.109375-1.21875 0-.078125-.0625-.109375-.125-.109375-.09375 0-.109375.0625-.125.140625-.1875.65625-.53125.96875-.828125.96875-.125 0-.1875-.078125-.1875-.265625s.0625-.359375.140625-.5625c.109375-.296875.46875-1.21875.46875-1.65625 0-.609375-.421875-.890625-.984375-.890625-.65625 0-1.0625.390625-1.296875.6875-.0625-.4375-.40625-.6875-.8125-.6875-.28125 0-.484375.1875-.609375.4375-.203125.375-.28125.765625-.28125.78125 0 .078125.0625.109375.125.109375.109375 0 .109375-.03125.171875-.25.09375-.390625.234375-.859375.5625-.859375.21875 0 .265625.203125.265625.375 0 .15625-.046875.296875-.109375.5625-.015625.0625-.140625.53125-.171875.640625l-.296875 1.203125c-.03125.125-.078125.3125-.078125.34375 0 .1875.15625.25.265625.25.140625 0 .265625-.09375.3125-.1875.03125-.046875.09375-.328125.125-.484375zm0 0"/></symbol><symbol id="af" overflow="visible"><path d="m4.296875-2.1875c-.46875-.5625-.53125-.625-.8125-.828125-.359375-.28125-.84375-.5-1.375-.5-.96875 0-1.640625.859375-1.640625 1.796875s.65625 1.796875 1.609375 1.796875c.65625 0 1.421875-.34375 2.078125-1.328125.46875.5625.53125.625.8125.828125.375.28125.859375.5 1.375.5.984375 0 1.65625-.84375 1.65625-1.796875 0-.9375-.671875-1.796875-1.609375-1.796875-.65625 0-1.421875.34375-2.09375 1.328125zm.25.296875c.296875-.5.953125-1.328125 1.890625-1.328125.859375 0 1.328125.78125 1.328125 1.5 0 .765625-.578125 1.375-1.28125 1.375s-1.171875-.59375-1.9375-1.546875zm-.625.34375c-.296875.5-.953125 1.328125-1.890625 1.328125-.859375 0-1.34375-.78125-1.34375-1.5 0-.765625.59375-1.359375 1.296875-1.359375s1.171875.578125 1.9375 1.53125zm0 0"/></symbol><symbol id="ag" overflow="visible"><path d="m5.5625-1.8125c.140625 0 .3125 0 .3125-.171875 0-.1875-.171875-.1875-.3125-.1875h-4.5625c-.125 0-.296875 0-.296875.1875 0 .171875.171875.171875.296875.171875zm0 0"/></symbol><g><use x="20.735" xlink:href="#a" y="11.152"/><use x="26.462277" xlink:href="#b" y="11.152"/></g><g><use x="35.826" xlink:href="#f" y="11.152"/><use x="41.28055" xlink:href="#g" y="11.152"/><use x="47.341646" xlink:href="#h" y="11.152"/></g><g><use x="57.038" xlink:href="#a" y="11.152"/><use x="62.765277" xlink:href="#c" y="11.152"/></g><g><use x="72.128" xlink:href="#f" y="11.152"/><use x="77.58255" xlink:href="#i" y="11.152"/><use x="81.855644" xlink:href="#j" y="11.152"/></g><g><use x="90.336379" xlink:href="#k" y="11.152"/><use x="96.397475" xlink:href="#f" y="11.152"/><use x="101.852025" xlink:href="#i" y="11.152"/><use x="106.125119" xlink:href="#f" y="11.152"/><use x="111.579669" xlink:href="#l" y="11.152"/><use x="120.670222" xlink:href="#j" y="11.152"/><use x="125.518226" xlink:href="#m" y="11.152"/><use x="129.760775" xlink:href="#j" y="11.152"/><use x="134.608779" xlink:href="#i" y="11.152"/><use x="138.881874" xlink:href="#n" y="11.152"/></g><g><use x="146.828062" xlink:href="#m" y="11.152"/><use x="151.070611" xlink:href="#o" y="11.152"/></g><use x="160.157892" xlink:href="#p" y="11.152"/><g><use x="164.700441" xlink:href="#q" y="11.152"/><use x="170.761537" xlink:href="#f" y="11.152"/><use x="176.216087" xlink:href="#i" y="11.152"/><use x="180.489181" xlink:href="#f" y="11.152"/><use x="185.943731" xlink:href="#p" y="11.152"/><use x="190.791735" xlink:href="#m" y="11.152"/><use x="195.034284" xlink:href="#j" y="11.152"/><use x="199.882288" xlink:href="#i" y="11.152"/><use x="204.155383" xlink:href="#r" y="11.152"/><use x="207.185931" xlink:href="#s" y="11.152"/><use x="212.033935" xlink:href="#j" y="11.152"/></g><g><use x="220.525578" xlink:href="#m" y="11.152"/><use x="224.768127" xlink:href="#q" y="11.152"/><use x="230.829223" xlink:href="#j" y="11.152"/></g><g><use x="239.309957" xlink:href="#n" y="11.152"/><use x="243.612507" xlink:href="#t" y="11.152"/><use x="246.643055" xlink:href="#o" y="11.152"/><use x="252.097605" xlink:href="#k" y="11.152"/></g><use x="258.464155" xlink:href="#j" y="11.152"/><g><use x="266.94489" xlink:href="#o" y="11.152"/><use x="272.39944" xlink:href="#u" y="11.152"/></g><g><use x="279.365991" xlink:href="#m" y="11.152"/><use x="283.60854" xlink:href="#q" y="11.152"/><use x="289.669636" xlink:href="#j" y="11.152"/></g><g><use x="298.161279" xlink:href="#v" y="11.152"/><use x="304.222375" xlink:href="#j" y="11.152"/><use x="309.070379" xlink:href="#t" y="11.152"/><use x="312.100927" xlink:href="#h" y="11.152"/></g><g><use x="321.794754" xlink:href="#f" y="11.152"/><use x="327.249304" xlink:href="#m" y="11.152"/></g><g><use x="335.124583" xlink:href="#m" y="11.152"/><use x="339.367132" xlink:href="#q" y="11.152"/><use x="345.428228" xlink:href="#j" y="11.152"/></g><g><use x="353.919871" xlink:href="#j" y="11.152"/><use x="358.767875" xlink:href="#h" y="11.152"/><use x="364.828971" xlink:href="#w" y="11.152"/><use x="370.283521" xlink:href="#j" y="11.152"/><use x="375.131525" xlink:href="#n" y="11.152"/></g><g><use x="383.066805" xlink:href="#h" y="11.152"/><use x="389.127901" xlink:href="#j" y="11.152"/><use x="393.975905" xlink:href="#v" y="11.152"/><use x="400.037001" xlink:href="#g" y="11.152"/><use x="406.098096" xlink:href="#j" y="11.152"/><use x="410.946101" xlink:href="#h" y="11.152"/></g><g><use x="420.639927" xlink:href="#f" y="11.152"/><use x="426.094477" xlink:href="#n" y="11.152"/><use x="430.397026" xlink:href="#x" y="11.152"/></g><g><use x="176.938" xlink:href="#a" y="41.703"/><use x="182.665278" xlink:href="#b" y="41.703"/></g><g><use x="191.422" xlink:href="#y" y="41.703"/><use x="199.907098" xlink:href="#n" y="41.703"/><use x="204.209647" xlink:href="#w" y="41.703"/><use x="209.664197" xlink:href="#g" y="41.703"/><use x="215.725293" xlink:href="#z" y="41.703"/></g><use x="219.968" xlink:href="#N" y="41.703"/><use x="225.734" xlink:href="#A" y="41.703"/><use x="229.977" xlink:href="#U" y="33.313"/><path d="m-.00159375.00125h5.76953175" fill="none" stroke="#000" stroke-miterlimit="10" stroke-width=".436" transform="matrix(1 0 0 -1 239.068 33.095)"/><g><use x="239.068" xlink:href="#N" y="41.703"/><use x="244.83455" xlink:href="#O" y="41.703"/></g><use x="271.505118" xlink:href="#N" y="41.703"/><use x="280.297" xlink:href="#V" y="41.703"/><g><use x="291.812" xlink:href="#B" y="41.703"/><use x="297.26655" xlink:href="#C" y="41.703"/></g><use x="304.54" xlink:href="#X" y="26.321"/><use x="313.766" xlink:href="#P" y="34.323"/><use x="319.417" xlink:href="#aa" y="30.364"/><use x="318.561" xlink:href="#ab" y="37.246"/><path d="m-.000375-.0005625h10.382813" fill="none" stroke="#000" stroke-miterlimit="10" stroke-width=".436" transform="matrix(1 0 0 -1 313.766 38.976)"/><use x="316.23" xlink:href="#B" y="49.186"/><use x="327.769" xlink:href="#W" y="41.703"/><use x="338.678" xlink:href="#P" y="41.703"/><use x="343.474" xlink:href="#ac" y="43.34"/><use x="348.206" xlink:href="#Y" y="26.321"/><use x="361.691" xlink:href="#O" y="41.703"/><g><use x="489.186" xlink:href="#z" y="41.703"/><use x="493.428549" xlink:href="#D" y="41.703"/><use x="498.883099" xlink:href="#E" y="41.703"/><use x="504.337649" xlink:href="#C" y="41.703"/><use x="509.792199" xlink:href="#A" y="41.703"/></g><g><use x="176.938" xlink:href="#a" y="72.527"/><use x="182.665277" xlink:href="#c" y="72.527"/></g><use x="191.422" xlink:href="#y" y="72.527"/><use x="199.907" xlink:href="#P" y="72.527"/><use x="204.703" xlink:href="#aa" y="74.164"/><use x="211.859" xlink:href="#W" y="72.527"/><use x="223.964" xlink:href="#P" y="65.147"/><use x="229.615" xlink:href="#ad" y="61.188"/><use x="228.759" xlink:href="#ab" y="68.07"/><path d="m.00084375-.00078125h10.38281225" fill="none" stroke="#000" stroke-miterlimit="10" stroke-width=".436" transform="matrix(1 0 0 -1 223.964 69.8)"/><use x="226.428" xlink:href="#F" y="80.01"/><g><use x="489.186" xlink:href="#z" y="72.527"/><use x="493.428549" xlink:href="#D" y="72.527"/><use x="498.883099" xlink:href="#E" y="72.527"/><use x="504.337649" xlink:href="#E" y="72.527"/><use x="509.792199" xlink:href="#A" y="72.527"/></g><g><use x="153.112" xlink:href="#G" y="99.557"/><use x="160.990552" xlink:href="#r" y="99.557"/><use x="164.0211" xlink:href="#m" y="99.557"/><use x="168.263649" xlink:href="#q" y="99.557"/></g><use x="177.96" xlink:href="#P" y="99.557"/><use x="182.756" xlink:href="#ae" y="101.194"/><use x="191.422" xlink:href="#V" y="99.557"/><use x="201.725" xlink:href="#Z" y="84.709"/><use x="212.634" xlink:href="#af" y="87.864"/><g><use x="207.786" xlink:href="#ag" y="109.449"/><use x="214.372491" xlink:href="#af" y="109.449"/></g><use x="223.339" xlink:href="#z" y="99.557"/><use x="227.581" xlink:href="#Q" y="99.557"/><use x="235.119" xlink:href="#W" y="99.557"/><use x="246.028" xlink:href="#Q" y="99.557"/><g><use x="251.142" xlink:href="#H" y="99.557"/><use x="256.59655" xlink:href="#A" y="99.557"/></g><use x="260.839" xlink:href="#ae" y="95.053"/><use x="267.671" xlink:href="#R" y="92.177"/><use x="276.936" xlink:href="#ac" y="93.814"/><use x="281.668" xlink:href="#z" y="92.177"/><use x="285.911" xlink:href="#Q" y="92.177"/><use x="291.024" xlink:href="#A" y="92.177"/><path d="m.000875.001875h27.59375" fill="none" stroke="#000" stroke-miterlimit="10" stroke-width=".436" transform="matrix(1 0 0 -1 267.671 96.83)"/><use x="272.353" xlink:href="#R" y="107.04"/><g><use x="281.618" xlink:href="#ac" y="108.677"/><use x="285.852514" xlink:href="#ab" y="108.677"/></g><g><use x="296.462" xlink:href="#S" y="99.557"/><use x="302.140187" xlink:href="#Q" y="99.557"/></g><use x="310.886012" xlink:href="#O" y="99.557"/><g><use x="489.186" xlink:href="#z" y="99.557"/><use x="493.428549" xlink:href="#D" y="99.557"/><use x="498.883099" xlink:href="#E" y="99.557"/><use x="504.337649" xlink:href="#I" y="99.557"/><use x="509.792199" xlink:href="#A" y="99.557"/></g><g><use x="3.798" xlink:href="#G" y="130.417"/><use x="11.676552" xlink:href="#q" y="130.417"/><use x="17.737648" xlink:href="#j" y="130.417"/><use x="22.585652" xlink:href="#i" y="130.417"/><use x="26.858746" xlink:href="#j" y="130.417"/></g><use x="35.344" xlink:href="#Q" y="130.417"/><use x="40.457" xlink:href="#ab" y="132.053"/><g><use x="48.826" xlink:href="#r" y="130.417"/><use x="51.856548" xlink:href="#n" y="130.417"/></g><g><use x="59.791827" xlink:href="#m" y="130.417"/><use x="64.034376" xlink:href="#q" y="130.417"/><use x="70.095472" xlink:href="#j" y="130.417"/></g><g><use x="78.587116" xlink:href="#t" y="130.417"/><use x="81.617664" xlink:href="#o" y="130.417"/></g><g><use x="87.366759" xlink:href="#p" y="130.417"/><use x="92.214763" xlink:href="#f" y="130.417"/><use x="97.669313" xlink:href="#m" y="130.417"/><use x="101.911862" xlink:href="#r" y="130.417"/><use x="104.94241" xlink:href="#o" y="130.417"/><use x="110.39696" xlink:href="#g" y="130.417"/></g><g><use x="120.101696" xlink:href="#o" y="130.417"/><use x="125.556246" xlink:href="#u" y="130.417"/></g><g><use x="132.522797" xlink:href="#m" y="130.417"/><use x="136.765346" xlink:href="#q" y="130.417"/><use x="142.826442" xlink:href="#j" y="130.417"/></g><g><use x="151.307176" xlink:href="#j" y="130.417"/><use x="156.15518" xlink:href="#h" y="130.417"/><use x="162.216276" xlink:href="#w" y="130.417"/><use x="167.670826" xlink:href="#j" y="130.417"/></g><g><use x="176.16247" xlink:href="#G" y="130.417"/><use x="184.041022" xlink:href="#q" y="130.417"/><use x="190.102118" xlink:href="#j" y="130.417"/><use x="194.950122" xlink:href="#i" y="130.417"/><use x="199.223216" xlink:href="#j" y="130.417"/></g><g><use x="207.703951" xlink:href="#m" y="130.417"/><use x="211.9465" xlink:href="#q" y="130.417"/><use x="218.007596" xlink:href="#j" y="130.417"/></g><g><use x="226.48833" xlink:href="#j" y="130.417"/><use x="231.336334" xlink:href="#J" y="130.417"/></g><g><use x="237.710521" xlink:href="#j" y="130.417"/><use x="242.558525" xlink:href="#p" y="130.417"/><use x="247.406529" xlink:href="#m" y="130.417"/><use x="251.649078" xlink:href="#r" y="130.417"/><use x="254.679626" xlink:href="#K" y="130.417"/></g><use x="260.131994" xlink:href="#j" y="130.417"/><g><use x="268.612729" xlink:href="#t" y="130.417"/><use x="271.643277" xlink:href="#j" y="130.417"/><use x="276.491281" xlink:href="#g" y="130.417"/><use x="282.552377" xlink:href="#w" y="130.417"/><use x="288.006927" xlink:href="#m" y="130.417"/><use x="292.249476" xlink:href="#q" y="130.417"/></g><g><use x="301.943302" xlink:href="#r" y="130.417"/><use x="304.97385" xlink:href="#n" y="130.417"/></g><g><use x="312.920038" xlink:href="#h" y="130.417"/><use x="318.981134" xlink:href="#j" y="130.417"/><use x="323.829138" xlink:href="#v" y="130.417"/><use x="329.890234" xlink:href="#g" y="130.417"/><use x="335.95133" xlink:href="#j" y="130.417"/><use x="340.799334" xlink:href="#h" y="130.417"/><use x="346.86043" xlink:href="#L" y="130.417"/></g><g><use x="353.523708" xlink:href="#f" y="130.417"/><use x="358.978258" xlink:href="#g" y="130.417"/><use x="365.039354" xlink:href="#h" y="130.417"/></g><use x="374.735" xlink:href="#R" y="130.417"/><g><use x="384.001" xlink:href="#ac" y="132.053"/><use x="388.235514" xlink:href="#ab" y="132.053"/></g><use x="395.997" xlink:href="#y" y="130.417"/><g><use x="407.512" xlink:href="#d" y="130.417"/><use x="413.239277" xlink:href="#b" y="130.417"/></g><use x="418.967" xlink:href="#T" y="130.417"/><use x="424.421" xlink:href="#e" y="130.417"/><use x="430.149" xlink:href="#M" y="130.417"/></svg>