#define dirmenu_width 14
#define dirmenu_height 14
static unsigned char dirmenu_bits[] = {
   0x00, 0x00, 0x00, 0x00, 0x00, 0x00, 0x00, 0x00, 0x00, 0x00, 0x00, 0x00,
   0xfc, 0x1f, 0xf8, 0x0f, 0xf0, 0x07, 0xe0, 0x03, 0xc0, 0x01, 0x80, 0x00,
   0x00, 0x00, 0x00, 0x00 };
