#define dirup_width 14
#define dirup_height 14
static unsigned char dirup_bits[] = {
   0x00, 0x00, 0x00, 0x00, 0x00, 0x00, 0x20, 0x00, 0x70, 0x00, 0xf8, 0x00,
   0xfc, 0x01, 0x20, 0x00, 0x20, 0x00, 0x20, 0x00, 0xe0, 0x1f, 0x00, 0x00,
   0x00, 0x00, 0x00, 0x00 };
