#define bb_width 18
#define bb_height 14
static char bb_bits[] = {
   0xff, 0xff, 0x03, 0xff, 0x01, 0x02, 0x07, 0x7e, 0x02, 0x73, 0xc6, 0x02,
   0x73, 0xc6, 0x02, 0x73, 0xc6, 0x02, 0x07, 0x7e, 0x02, 0x73, 0xc6, 0x02,
   0x73, 0xc6, 0x02, 0x73, 0xc6, 0x02, 0x73, 0xc6, 0x02, 0x07, 0x7e, 0x02,
   0xff, 0x01, 0x02, 0xff, 0xff, 0x03};
