#define connect_width 27
#define connect_height 9
static char connect_bits[] = {
   0x80, 0xdf, 0x0f, 0x00, 0x80, 0x9f, 0x0f, 0x00, 0x80, 0x7f, 0x0f, 0x00,
   0x80, 0xff, 0x0e, 0x00, 0xff, 0xff, 0xfe, 0x07, 0x80, 0xff, 0x0e, 0x00,
   0x80, 0x7f, 0x0f, 0x00, 0x80, 0x9f, 0x0f, 0x00, 0x80, 0xdf, 0x0f, 0x00};
