#define constat3_width 27
#define constat3_height 9
static char constat3_bits[] = {
   0x80, 0xdf, 0x0f, 0x00, 0x80, 0x8f, 0x0f, 0x00, 0x80, 0x57, 0x0f, 0x00,
   0x80, 0xdb, 0x0e, 0x00, 0xff, 0xdb, 0xfe, 0x07, 0x80, 0xdb, 0x0e, 0x00,
   0x80, 0x57, 0x0f, 0x00, 0x80, 0x8f, 0x0f, 0x00, 0x80, 0xdf, 0x0f, 0x00};
