#define constat2_width 27
#define constat2_height 9
static char constat2_bits[] = {
   0xc0, 0x8f, 0x1f, 0x00, 0xc0, 0x07, 0x1f, 0x00, 0xc0, 0x2b, 0x1e, 0x00,
   0xde, 0x6d, 0x1c, 0x00, 0xf3, 0x6d, 0x7c, 0x06, 0xc0, 0x6d, 0xdc, 0x03,
   0xc0, 0x2b, 0x1e, 0x00, 0xc0, 0x07, 0x1f, 0x00, 0xc0, 0x8f, 0x1f, 0x00};
