#define constat5_width 27
#define constat5_height 9
static char constat5_bits[] = {
   0x80, 0xdf, 0x0f, 0x00, 0x80, 0x8f, 0x0f, 0x00, 0x80, 0x77, 0x0f, 0x00,
   0x80, 0xfb, 0x0e, 0x00, 0xff, 0x03, 0xfe, 0x07, 0x80, 0xfb, 0x0e, 0x00,
   0x80, 0x77, 0x0f, 0x00, 0x80, 0x8f, 0x0f, 0x00, 0x80, 0xdf, 0x0f, 0x00};
