#define constat1_width 27
#define constat1_height 9
static char constat1_bits[] = {
   0xe0, 0x07, 0x3f, 0x00, 0xe0, 0x03, 0x3e, 0x00, 0xee, 0x15, 0x3c, 0x00,
   0xea, 0x36, 0x38, 0x00, 0xfb, 0x36, 0xf8, 0x06, 0xe0, 0x36, 0xb8, 0x02,
   0xe0, 0x15, 0xbc, 0x03, 0xe0, 0x03, 0x3e, 0x00, 0xe0, 0x07, 0x3f, 0x00};
