#define constat4_width 27
#define constat4_height 9
static char constat4_bits[] = {
   0x80, 0xdf, 0x0f, 0x00, 0x80, 0x8f, 0x0f, 0x00, 0x80, 0x77, 0x0f, 0x00,
   0x80, 0xbb, 0x0e, 0x00, 0xff, 0xdb, 0xfe, 0x07, 0x80, 0xeb, 0x0e, 0x00,
   0x80, 0x77, 0x0f, 0x00, 0x80, 0x8f, 0x0f, 0x00, 0x80, 0xdf, 0x0f, 0x00};
