#define cursors_width 17
#define cursors_height 17
static char cursors_bits[] = {
   0x00, 0x01, 0x00, 0x80, 0x03, 0x00, 0xc0, 0x07, 0x00, 0xe0, 0x0f, 0x00,
   0x00, 0x01, 0x00, 0x08, 0x21, 0x00, 0x0c, 0x61, 0x00, 0x0e, 0xe0, 0x00,
   0x7f, 0xfc, 0x01, 0x0e, 0xe0, 0x00, 0x0c, 0x61, 0x00, 0x08, 0x21, 0x00,
   0x00, 0x01, 0x00, 0xe0, 0x0f, 0x00, 0xc0, 0x07, 0x00, 0x80, 0x03, 0x00,
   0x00, 0x01, 0x00};
