#define dec_width 15
#define dec_height 8
static char dec_bits[] = {
   0xff, 0x7f, 0xfe, 0x3f, 0x1c, 0x1c, 0xf8, 0x0f, 0xf0, 0x07, 0xe0, 0x03,
   0xc0, 0x01, 0x80, 0x00};
