#define dirup_width 10
#define dirup_height 10
static char dirup_bits[] = {
   0x00, 0x00, 0x00, 0x00, 0x20, 0x00, 0x70, 0x00, 0xf8, 0x00, 0xfc, 0x01,
   0x20, 0x00, 0x20, 0x00, 0x20, 0x00, 0xe0, 0x03};
