#define disconnect_width 27
#define disconnect_height 9
static char disconnect_bits[] = {
   0xe0, 0x07, 0x3f, 0x00, 0xe0, 0x07, 0x3f, 0x00, 0xee, 0x1f, 0x3c, 0x00,
   0xea, 0x3f, 0x38, 0x00, 0xfb, 0x3f, 0xf8, 0x06, 0xe0, 0x3f, 0xb8, 0x02,
   0xe0, 0x1f, 0xbc, 0x03, 0xe0, 0x07, 0x3f, 0x00, 0xe0, 0x07, 0x3f, 0x00};
