#define downarrow_width 10
#define downarrow_height 10
static char downarrow_bits[] = {
   0x00, 0x00, 0x00, 0x00, 0x00, 0x00, 0x00, 0x00, 0xfe, 0x03, 0xfc, 0x01,
   0xf8, 0x00, 0x70, 0x00, 0x20, 0x00, 0x00, 0x00};
