#define inc_width 15
#define inc_height 8
static char inc_bits[] = {
   0x80, 0x00, 0xc0, 0x01, 0x60, 0x03, 0x70, 0x07, 0x18, 0x0c, 0x7c, 0x1f,
   0x7e, 0x3f, 0xff, 0x7f};
