#define medm_width 18
#define medm_height 18
static char medm_bits[] = {
  0x9e, 0xff, 0x01, 0x9c, 0x33, 0x01, 0x9c, 0xb3, 0x00, 0x74, 0xf3, 0x00, 
  0x74, 0xb3, 0x00, 0x74, 0x33, 0x00, 0x24, 0x33, 0x01, 0xae, 0xff, 0x01, 
  0x00, 0x00, 0x00, 0x3f, 0xcf, 0x03, 0x66, 0xce, 0x01, 0xc6, 0xce, 0x01, 
  0xc6, 0xba, 0x01, 0xc6, 0xba, 0x01, 0xc6, 0xba, 0x01, 0x66, 0x92, 0x01, 
  0x3f, 0xd7, 0x03, 0x00, 0x00, 0x00, };
