#define sad_width 18
#define sad_height 18
static char sad_bits[] = {
  0x78, 0xfd, 0x00, 0x8c, 0x99, 0x01, 0x8c, 0x18, 0x03, 0x8c, 0x0c, 0x03, 
  0x1c, 0x0c, 0x03, 0x38, 0x0c, 0x03, 0x70, 0x0e, 0x03, 0xc2, 0x8e, 0x01, 
  0xc2, 0xce, 0x01, 0xc7, 0xef, 0x00, 0xf9, 0x3f, 0x00, 0x80, 0x0c, 0x00, 
  0x40, 0x0c, 0x00, 0xe0, 0x0f, 0x00, 0x20, 0x0c, 0x00, 0x10, 0x0c, 0x00, 
  0x3c, 0x1e, 0x00, 0x00, 0x00, 0x00, };
