#define toioc_width 27
#define toioc_height 9
static char toioc_bits[] = {
   0x00, 0x78, 0x8e, 0x03, 0x40, 0x30, 0xdb, 0x06, 0xc0, 0x30, 0xdb, 0x06,
   0xff, 0x31, 0xdb, 0x00, 0xff, 0x33, 0xdb, 0x00, 0xff, 0x31, 0xdb, 0x00,
   0xc0, 0x30, 0xdb, 0x06, 0x40, 0x30, 0xdb, 0x06, 0x00, 0x78, 0x8e, 0x03};
