#define uparrow_width 10
#define uparrow_height 10
static char uparrow_bits[] = {
   0x00, 0x00, 0x00, 0x00, 0x00, 0x00, 0x20, 0x00, 0x70, 0x00, 0xf8, 0x00,
   0xfc, 0x01, 0xfe, 0x03, 0x00, 0x00, 0x00, 0x00};
